<svg height="496pt" viewBox="-88 0 496 496" width="496pt" xmlns="http://www.w3.org/2000/svg"><path d="m280.425781 424h31.574219v-416h-240v416zm6.308594-280" fill="#57a4ff"/><g fill="#004fac"><path d="m312 0h-304c-4.417969 0-8 3.582031-8 8v416c0 4.417969 3.582031 8 8 8h208v56c0 3.445312 2.203125 6.5 5.46875 7.589844 3.269531 1.089844 6.863281-.035156 8.929688-2.789063l17.601562-23.464843 17.601562 23.464843c1.507813 2.011719 3.878907 3.199219 6.398438 3.199219.859375-.003906 1.710938-.140625 2.527344-.40625 3.269531-1.089844 5.472656-4.148438 5.472656-7.59375v-56h32c4.417969 0 8-3.582031 8-8v-416c0-4.417969-3.582031-8-8-8zm-296 16h48v400h-48zm248 448-9.601562-12.800781c-1.507813-2.011719-3.878907-3.199219-6.398438-3.199219s-4.890625 1.1875-6.398438 3.199219l-9.601562 12.800781v-32h32zm40-48h-224v-400h224zm0 0"/><path d="m104 88h176c4.417969 0 8-3.582031 8-8s-3.582031-8-8-8h-176c-4.417969 0-8 3.582031-8 8s3.582031 8 8 8zm0 0"/><path d="m104 120h176c4.417969 0 8-3.582031 8-8s-3.582031-8-8-8h-176c-4.417969 0-8 3.582031-8 8s3.582031 8 8 8zm0 0"/><path d="m280 136h-176c-4.417969 0-8 3.582031-8 8s3.582031 8 8 8h176c4.417969 0 8-3.582031 8-8s-3.582031-8-8-8zm0 0"/></g></svg>