<svg height="496pt" viewBox="-56 0 496 496" width="496pt" xmlns="http://www.w3.org/2000/svg"><path d="m312 72h-240v416h240zm-164.207031 72" fill="#57a4ff"/><g fill="#004fac"><path d="m104 152h176c4.417969 0 8-3.582031 8-8s-3.582031-8-8-8h-176c-4.417969 0-8 3.582031-8 8s3.582031 8 8 8zm0 0"/><path d="m104 184h176c4.417969 0 8-3.582031 8-8s-3.582031-8-8-8h-176c-4.417969 0-8 3.582031-8 8s3.582031 8 8 8zm0 0"/><path d="m280 200h-176c-4.417969 0-8 3.582031-8 8s3.582031 8 8 8h176c4.417969 0 8-3.582031 8-8s-3.582031-8-8-8zm0 0"/><path d="m383.945312 7.710938c-.015624-.949219-.203124-1.890626-.554687-2.773438 0-.074219-.085937-.128906-.117187-.203125-.453126-1.039063-1.148438-1.957031-2.035157-2.671875-.503906-.441406-1.0625-.816406-1.664062-1.117188-.257813-.136718-.523438-.261718-.796875-.371093-.886719-.355469-1.824219-.5507815-2.777344-.574219h-304c-2.121094 0-4.15625.84375-5.65625 2.34375l-64 64c-1.492188 1.507812-2.3320312 3.535156-2.34375 5.65625v416c0 4.417969 3.582031 8 8 8h304c1.050781-.003906 2.085938-.214844 3.054688-.617188.976562-.398437 1.863281-.988281 2.609374-1.734374l64-64c1.496094-1.5 2.335938-3.53125 2.335938-5.648438v-416c0-.105469-.054688-.183594-.054688-.289062zm-308.632812 8.289062h281.375l-48 48h-281.375zm228.6875 64v400h-224v-400zm-288 0h48v400h-48zm304 388.6875v-393.375l48-48v393.375zm0 0"/></g></svg>