<svg height="496pt" viewBox="-88 0 496 496" width="496pt" xmlns="http://www.w3.org/2000/svg"><path d="m312 8h-304v480h304zm-32 200h-240v-168h240zm0 0" fill="#57a4ff"/><g fill="#004fac"><path d="m312 496h-304c-4.417969 0-8-3.582031-8-8v-480c0-4.417969 3.582031-8 8-8h304c4.417969 0 8 3.582031 8 8v480c0 4.417969-3.582031 8-8 8zm-296-16h288v-464h-288zm0 0"/><path d="m248 96h-176c-4.417969 0-8-3.582031-8-8s3.582031-8 8-8h176c4.417969 0 8 3.582031 8 8s-3.582031 8-8 8zm0 0"/><path d="m248 128h-176c-4.417969 0-8-3.582031-8-8s3.582031-8 8-8h176c4.417969 0 8 3.582031 8 8s-3.582031 8-8 8zm0 0"/><path d="m248 160h-176c-4.417969 0-8-3.582031-8-8s3.582031-8 8-8h176c4.417969 0 8 3.582031 8 8s-3.582031 8-8 8zm0 0"/><path d="m280 216h-240c-4.417969 0-8-3.582031-8-8v-168c0-4.417969 3.582031-8 8-8h240c4.417969 0 8 3.582031 8 8v168c0 4.417969-3.582031 8-8 8zm-232-16h224v-152h-224zm0 0"/></g></svg>