<svg height="496pt" viewBox="0 -40 496 496" width="496pt" xmlns="http://www.w3.org/2000/svg"><path d="m296 216.011719c12.835938-5.390625 26.261719-9.257813 40-11.519531v-32c-13.738281 2.261718-27.164062 6.128906-40 11.519531 12.835938-5.390625 26.261719-9.257813 40-11.519531v-32c-13.738281 2.261718-27.164062 6.128906-40 11.519531 12.835938-5.390625 26.261719-9.257813 40-11.519531v-130.640626c-30.257812 3.046876-59.90625 10.515626-88 22.160157v336c28.09375-11.644531 57.742188-19.113281 88-22.160157v-141.359374c-13.738281 2.261718-27.164062 6.128906-40 11.519531zm0 0" fill="#57a4ff"/><path d="m400 140.492188c13.738281 2.261718 27.164062 6.128906 40 11.519531-12.835938-5.390625-26.261719-9.257813-40-11.519531v32c13.738281 2.261718 27.164062 6.128906 40 11.519531-12.835938-5.390625-26.261719-9.257813-40-11.519531v32c13.738281 2.261718 27.164062 6.128906 40 11.519531-12.835938-5.390625-26.261719-9.257813-40-11.519531v141.359374c30.257812 3.046876 59.90625 10.515626 88 22.160157v-336c-28.09375-11.644531-57.742188-19.113281-88-22.160157zm0 0" fill="#57a4ff"/><path d="m8 32.011719v336c76.835938-31.824219 163.164062-31.824219 240 0v-336c-76.835938-31.824219-163.164062-31.824219-240 0zm48 184c46.101562-19.097657 97.898438-19.097657 144 0-46.101562-19.097657-97.898438-19.097657-144 0zm0-32c46.101562-19.097657 97.898438-19.097657 144 0-46.101562-19.097657-97.898438-19.097657-144 0zm0-32c46.101562-19.097657 97.898438-19.097657 144 0-46.101562-19.097657-97.898438-19.097657-144 0zm0 0" fill="#57a4ff"/><g fill="#004fac"><path d="m203.0625 176.621094c-48.035156-20.050782-102.089844-20.050782-150.125 0-4.085938 1.691406-6.023438 6.371094-4.328125 10.453125 1.691406 4.082031 6.371094 6.019531 10.453125 4.328125 44.113281-18.414063 93.761719-18.414063 137.875 0 4.082031 1.691406 8.761719-.246094 10.453125-4.328125 1.695313-4.082031-.242187-8.761719-4.328125-10.453125zm0 0"/><path d="m203.0625 144.621094c-48.035156-20.050782-102.089844-20.050782-150.125 0-4.085938 1.691406-6.023438 6.371094-4.328125 10.453125 1.691406 4.082031 6.371094 6.019531 10.453125 4.328125 44.113281-18.414063 93.761719-18.414063 137.875 0 4.082031 1.691406 8.761719-.246094 10.453125-4.328125 1.695313-4.082031-.242187-8.761719-4.328125-10.453125zm0 0"/><path d="m203.0625 208.621094c-48.035156-20.050782-102.089844-20.050782-150.125 0-4.085938 1.691406-6.023438 6.371094-4.328125 10.453125 1.691406 4.082031 6.371094 6.019531 10.453125 4.328125 44.113281-18.414063 93.761719-18.414063 137.875 0 4.082031 1.691406 8.761719-.246094 10.453125-4.328125 1.695313-4.082031-.242187-8.761719-4.328125-10.453125zm0 0"/><path d="m491.070312 24.628906c-77.734374-32.160156-164.972656-32.578125-243.015624-1.167968-78.023438-31.675782-165.398438-31.261719-243.117188 1.160156-2.988281 1.238281-4.9375 4.15625-4.9375 7.390625v336c0 2.671875 1.332031 5.167969 3.554688 6.652343 2.222656 1.484376 5.039062 1.761719 7.507812.738282 74.832031-31.230469 159.042969-31.230469 233.875 0 .050781-.003906.105469-.003906.160156 0 .835938.320312 1.726563.496094 2.621094.519531.097656 0 .183594.058594.28125.058594s.335938-.066407.503906-.074219c.4375-.03125.871094-.09375 1.296875-.191406.269531-.0625.539063-.136719.800781-.230469.148438-.035156.292969-.074219.4375-.121094 24.644532-10.140625 50.523438-16.976562 76.960938-20.335937v52.984375c0 3.234375 1.949219 6.152343 4.9375 7.390625 2.988281 1.234375 6.429688.550781 8.71875-1.734375l26.34375-26.34375 26.34375 26.34375c2.289062 2.285156 5.730469 2.96875 8.71875 1.734375 2.988281-1.238282 4.9375-4.15625 4.9375-7.390625v-52.984375c26.429688 3.371094 52.292969 10.21875 76.929688 20.367187.972656.410157 2.015624.617188 3.070312.617188 4.417969 0 8-3.582031 8-8v-336c0-3.230469-1.945312-6.144531-4.929688-7.382813zm-475.070312 331.636719v-318.863281c71.933594-28.566406 152.066406-28.566406 224 0v318.863281c-72.214844-27.058594-151.785156-27.058594-224 0zm240 0v-318.863281c23.152344-9.070313 47.335938-15.25 72-18.398438v114.902344c-12.023438 2.410156-23.78125 6.003906-35.097656 10.730469-2.667969 1.082031-4.550782 3.515625-4.925782 6.375-.371093 2.855469.820313 5.691406 3.121094 7.425781 2.300782 1.734375 5.355469 2.097656 8 .949219 9.339844-3.914063 19.015625-6.992188 28.902344-9.191407v15.710938c-12.023438 2.410156-23.78125 6.003906-35.097656 10.730469-2.667969 1.082031-4.550782 3.515625-4.925782 6.375-.371093 2.855469.820313 5.691406 3.121094 7.425781 2.300782 1.734375 5.355469 2.097656 8 .949219 9.339844-3.914063 19.015625-6.992188 28.902344-9.191407v15.710938c-12.023438 2.410156-23.78125 6.003906-35.097656 10.730469-2.667969 1.082031-4.550782 3.515625-4.925782 6.375-.371093 2.855469.820313 5.691406 3.121094 7.425781 2.300782 1.734375 5.355469 2.097656 8 .949219 9.339844-3.914063 19.015625-6.992188 28.902344-9.191407v124.65625c-24.59375 2.992188-48.757812 8.835938-72 17.414063zm117.65625 14.089844c-3.125-3.125-8.1875-3.125-11.3125 0l-18.34375 18.34375v-371.457031c15.972656-1.285157 32.027344-1.285157 48 0v371.457031zm106.34375-14.089844c-23.242188-8.578125-47.40625-14.421875-72-17.414063v-124.65625c9.886719 2.199219 19.5625 5.277344 28.902344 9.191407 4.0625 1.648437 8.6875-.277344 10.382812-4.316407 1.699219-4.039062-.171875-8.691406-4.1875-10.433593-11.316406-4.726563-23.074218-8.320313-35.097656-10.730469v-15.710938c9.886719 2.199219 19.5625 5.277344 28.902344 9.191407 2.644531 1.148437 5.699218.785156 8-.949219 2.300781-1.734375 3.492187-4.570312 3.121094-7.425781-.375-2.859375-2.257813-5.292969-4.925782-6.375-11.316406-4.726563-23.074218-8.320313-35.097656-10.730469v-15.710938c9.886719 2.199219 19.5625 5.277344 28.902344 9.191407 2.644531 1.148437 5.699218.785156 8-.949219 2.300781-1.734375 3.492187-4.570312 3.121094-7.425781-.375-2.859375-2.257813-5.292969-4.925782-6.375-11.316406-4.726563-23.074218-8.320313-35.097656-10.730469v-114.894531c24.664062 3.152343 48.847656 9.332031 72 18.398437zm0 0"/></g></svg>