<svg height="496pt" viewBox="0 -40 496 495" width="496pt" xmlns="http://www.w3.org/2000/svg"><path d="m8 32.511719v336c76.835938-31.824219 163.164062-31.824219 240 0v-336c-76.835938-31.824219-163.164062-31.824219-240 0zm48 184c46.101562-19.09375 97.898438-19.09375 144 0-46.101562-19.09375-97.898438-19.09375-144 0zm0-32c46.101562-19.09375 97.898438-19.09375 144 0-46.101562-19.09375-97.898438-19.09375-144 0zm0-32c46.101562-19.09375 97.898438-19.09375 144 0-46.101562-19.09375-97.898438-19.09375-144 0zm0 0" fill="#57a4ff"/><path d="m248 32.511719v336c76.835938-31.824219 163.164062-31.824219 240 0v-336c-76.835938-31.824219-163.164062-31.824219-240 0zm48 184c46.101562-19.09375 97.898438-19.09375 144 0-46.101562-19.09375-97.898438-19.09375-144 0zm0-32c46.101562-19.09375 97.898438-19.09375 144 0-46.101562-19.09375-97.898438-19.09375-144 0zm0-32c46.101562-19.09375 97.898438-19.09375 144 0-46.101562-19.09375-97.898438-19.09375-144 0zm0 0" fill="#57a4ff"/><g fill="#004fac"><path d="m203.0625 177.121094c-48.035156-20.050782-102.089844-20.050782-150.125 0-4.085938 1.691406-6.023438 6.371094-4.328125 10.453125 1.691406 4.085937 6.371094 6.023437 10.453125 4.328125 44.113281-18.414063 93.761719-18.414063 137.875 0 4.082031 1.695312 8.761719-.242188 10.453125-4.328125 1.695313-4.082031-.242187-8.761719-4.328125-10.453125zm0 0"/><path d="m203.0625 145.121094c-48.035156-20.050782-102.089844-20.050782-150.125 0-4.085938 1.691406-6.023438 6.371094-4.328125 10.453125 1.691406 4.085937 6.371094 6.023437 10.453125 4.328125 44.113281-18.414063 93.761719-18.414063 137.875 0 4.082031 1.695312 8.761719-.242188 10.453125-4.328125 1.695313-4.082031-.242187-8.761719-4.328125-10.453125zm0 0"/><path d="m203.0625 209.121094c-48.035156-20.050782-102.089844-20.050782-150.125 0-4.085938 1.691406-6.023438 6.371094-4.328125 10.453125 1.691406 4.085937 6.371094 6.023437 10.453125 4.328125 44.113281-18.414063 93.761719-18.414063 137.875 0 4.082031 1.695312 8.761719-.242188 10.453125-4.328125 1.695313-4.082031-.242187-8.761719-4.328125-10.453125zm0 0"/><path d="m491.0625 25.121094c-77.699219-32.414063-165.050781-32.839844-243.0625-1.183594-78.011719-31.65625-165.363281-31.230469-243.0625 1.183594-2.988281 1.238281-4.9375 4.15625-4.9375 7.390625v336c0 2.671875 1.332031 5.167969 3.554688 6.652343 2.222656 1.488282 5.039062 1.761719 7.507812.738282 74.832031-31.230469 159.042969-31.230469 233.875 0h.140625c.855469.335937 1.757813.515625 2.675781.539062.078125 0 .167969.046875.246094.046875s.296875-.054687.449219-.0625c.46875-.03125.933593-.101562 1.390625-.210937.269531-.054688.539062-.125.800781-.214844.144531-.046875.304687-.0625.449219-.121094 24.628906-10.195312 50.484375-17.140625 76.910156-20.664062v53.296875c0 3.234375 1.949219 6.152343 4.9375 7.390625 2.988281 1.238281 6.429688.554687 8.71875-1.734375l26.34375-26.34375 26.34375 26.34375c2.289062 2.289062 5.730469 2.972656 8.71875 1.734375 2.988281-1.238282 4.9375-4.15625 4.9375-7.390625v-53.296875c26.433594 3.53125 52.296875 10.484375 76.9375 20.6875 2.46875 1.023437 5.285156.75 7.507812-.738282 2.222657-1.484374 3.554688-3.980468 3.554688-6.652343v-336c0-3.234375-1.949219-6.152344-4.9375-7.390625zm-475.0625 331.648437v-318.867187c71.933594-28.566406 152.066406-28.566406 224 0v318.867187c-72.214844-27.0625-151.785156-27.0625-224 0zm376 32.429688-18.34375-18.34375c-3.125-3.121094-8.1875-3.121094-11.3125 0l-18.34375 18.34375v-35.679688c15.976562-1.273437 32.023438-1.273437 48 0zm88-32.429688c-72.214844-27.0625-151.785156-27.0625-224 0v-318.867187c71.933594-28.566406 152.066406-28.566406 224 0zm0 0"/><path d="m443.0625 177.121094c-48.035156-20.050782-102.089844-20.050782-150.125 0-4.085938 1.691406-6.023438 6.371094-4.328125 10.453125 1.691406 4.085937 6.371094 6.023437 10.453125 4.328125 44.113281-18.414063 93.761719-18.414063 137.875 0 4.082031 1.695312 8.761719-.242188 10.453125-4.328125 1.695313-4.082031-.242187-8.761719-4.328125-10.453125zm0 0"/><path d="m292.9375 145.121094c-4.085938 1.691406-6.023438 6.371094-4.328125 10.453125 1.691406 4.085937 6.371094 6.023437 10.453125 4.328125 44.113281-18.414063 93.761719-18.414063 137.875 0 4.082031 1.695312 8.761719-.242188 10.453125-4.328125 1.695313-4.082031-.242187-8.761719-4.328125-10.453125-48.035156-20.050782-102.089844-20.050782-150.125 0zm0 0"/><path d="m443.0625 209.121094c-48.035156-20.050782-102.089844-20.050782-150.125 0-4.085938 1.691406-6.023438 6.371094-4.328125 10.453125 1.691406 4.085937 6.371094 6.023437 10.453125 4.328125 44.113281-18.414063 93.761719-18.414063 137.875 0 4.082031 1.695312 8.761719-.242188 10.453125-4.328125 1.695313-4.082031-.242187-8.761719-4.328125-10.453125zm0 0"/></g></svg>