<svg height="496pt" viewBox="0 -66 496 496" width="496pt" xmlns="http://www.w3.org/2000/svg"><path d="m248 319.773438v-292.566407c-61.46875-25.464843-130.53125-25.464843-192 0v292.566407c61.46875-25.453126 130.53125-25.453126 192 0zm-24-180.566407c-46.101562-19.097656-97.898438-19.097656-144 0 46.101562-19.097656 97.898438-19.097656 144 0zm0 32c-46.101562-19.097656-97.898438-19.097656-144 0 46.101562-19.097656 97.898438-19.097656 144 0zm0 32c-46.101562-19.097656-97.898438-19.097656-144 0 46.101562-19.097656 97.898438-19.097656 144 0zm0 0" fill="#57a4ff"/><path d="m440 319.773438v-292.566407c-61.46875-25.464843-130.53125-25.464843-192 0v292.566407c61.46875-25.453126 130.53125-25.453126 192 0zm-24-180.566407c-46.101562-19.097656-97.898438-19.097656-144 0 46.101562-19.097656 97.898438-19.097656 144 0zm0 32c-46.101562-19.097656-97.898438-19.097656-144 0 46.101562-19.097656 97.898438-19.097656 144 0zm0 32c-46.101562-19.097656-97.898438-19.097656-144 0 46.101562-19.097656 97.898438-19.097656 144 0zm0 0" fill="#57a4ff"/><g fill="#004fac"><path d="m83.0625 178.597656c44.113281-18.414062 93.761719-18.414062 137.875 0 4.082031 1.691406 8.761719-.246094 10.453125-4.328125 1.695313-4.082031-.242187-8.761719-4.328125-10.453125-48.035156-20.050781-102.089844-20.050781-150.125 0-4.085938 1.691406-6.023438 6.371094-4.328125 10.453125 1.691406 4.082031 6.371094 6.019531 10.453125 4.328125zm0 0"/><path d="m83.0625 146.597656c44.113281-18.414062 93.761719-18.414062 137.875 0 4.082031 1.691406 8.761719-.246094 10.453125-4.328125 1.695313-4.082031-.242187-8.761719-4.328125-10.453125-48.035156-20.050781-102.089844-20.050781-150.125 0-4.085938 1.691406-6.023438 6.371094-4.328125 10.453125 1.691406 4.082031 6.371094 6.019531 10.453125 4.328125zm0 0"/><path d="m220.9375 210.597656c4.082031 1.691406 8.761719-.246094 10.453125-4.328125 1.695313-4.082031-.242187-8.761719-4.328125-10.453125-48.035156-20.050781-102.089844-20.050781-150.125 0-4.085938 1.691406-6.023438 6.371094-4.328125 10.453125 1.691406 4.082031 6.371094 6.019531 10.453125 4.328125 44.113281-18.414062 93.761719-18.414062 137.875 0zm0 0"/><path d="m275.0625 178.597656c44.113281-18.414062 93.761719-18.414062 137.875 0 4.082031 1.691406 8.761719-.246094 10.453125-4.328125 1.695313-4.082031-.242187-8.761719-4.328125-10.453125-48.035156-20.050781-102.089844-20.050781-150.125 0-4.085938 1.691406-6.023438 6.371094-4.328125 10.453125 1.691406 4.082031 6.371094 6.019531 10.453125 4.328125zm0 0"/><path d="m275.0625 146.597656c44.113281-18.414062 93.761719-18.414062 137.875 0 4.082031 1.691406 8.761719-.246094 10.453125-4.328125 1.695313-4.082031-.242187-8.761719-4.328125-10.453125-48.035156-20.050781-102.089844-20.050781-150.125 0-4.085938 1.691406-6.023438 6.371094-4.328125 10.453125 1.691406 4.082031 6.371094 6.019531 10.453125 4.328125zm0 0"/><path d="m275.0625 210.597656c44.113281-18.414062 93.761719-18.414062 137.875 0 4.082031 1.691406 8.761719-.246094 10.453125-4.328125 1.695313-4.082031-.242187-8.761719-4.328125-10.453125-48.035156-20.050781-102.089844-20.050781-150.125 0-4.085938 1.691406-6.023438 6.371094-4.328125 10.453125 1.691406 4.082031 6.371094 6.019531 10.453125 4.328125zm0 0"/><path d="m488 35.207031h-40v-8c0-3.234375-1.949219-6.152343-4.9375-7.390625-62.339844-26.003906-132.410156-26.429687-195.0625-1.1875-62.652344-25.242187-132.722656-24.816406-195.0625 1.1875-2.988281 1.238282-4.9375 4.15625-4.9375 7.390625v8.128907c-.128906 0-.238281-.082032-.367188-.082032h-39.632812c-4.417969 0-8 3.582032-8 8v311.953125c0 4.417969 3.582031 8 8 8h480c4.417969 0 8-3.582031 8-8v-312c0-4.417969-3.582031-8-8-8zm-56-2.59375v275.472657c-56.835938-20.722657-119.164062-20.722657-176 0v-275.472657c56.570312-22.183593 119.429688-22.183593 176 0zm-368 0c56.570312-22.183593 119.429688-22.183593 176 0v275.472657c-56.835938-20.722657-119.164062-20.722657-176 0zm416 314.59375h-464v-295.953125h31.632812c.128907 0 .238282-.0625.367188-.070312v268.589844c0 2.675781 1.332031 5.171874 3.554688 6.65625 2.222656 1.484374 5.039062 1.761718 7.507812.738281 59.472656-24.816407 126.402344-24.816407 185.875 0 .050781.003906.101562.003906.152344 0 .847656.324219 1.746094.503906 2.652344.527343.089843 0 .167968.046876.257812.046876s.3125-.054688.464844-.0625c.460937-.03125.917968-.097657 1.367187-.210938.273438-.050781.539063-.121094.800781-.214844.148438-.03125.292969-.070312.4375-.121094 59.472657-24.8125 126.402344-24.8125 185.875 0 2.460938 1.019532 5.269532.746094 7.488282-.730468 2.21875-1.476563 3.554687-3.960938 3.566406-6.628906v-268.566407h32zm0 0"/></g></svg>