<svg height="496pt" viewBox="0 -66 496 496" width="496pt" xmlns="http://www.w3.org/2000/svg"><path d="m248 27.207031v292.558594c22.972656-9.527344 47.242188-15.566406 72-17.921875v-111.359375c-16.507812 2.019531-32.660156 6.300781-48 12.722656 15.339844-6.421875 31.492188-10.703125 48-12.722656v-32c-16.507812 2.019531-32.660156 6.300781-48 12.722656 15.339844-6.421875 31.492188-10.703125 48-12.722656v-32c-16.507812 2.019531-32.660156 6.300781-48 12.722656 15.339844-6.421875 31.492188-10.703125 48-12.722656v-115.277344h48v115.277344c16.507812 2.019531 32.660156 6.300781 48 12.722656-15.339844-6.421875-31.492188-10.703125-48-12.722656v32c16.507812 2.019531 32.660156 6.300781 48 12.722656-15.339844-6.421875-31.492188-10.703125-48-12.722656v32c16.507812 2.019531 32.660156 6.300781 48 12.722656-15.339844-6.421875-31.492188-10.703125-48-12.722656v111.359375c24.757812 2.355469 49.027344 8.394531 72 17.921875v-292.558594c-61.472656-25.441406-130.527344-25.441406-192 0zm0 0" fill="#57a4ff"/><path d="m56 27.207031v292.566407c61.46875-25.457032 130.53125-25.457032 192 0v-292.566407c-61.46875-25.464843-130.53125-25.464843-192 0zm24 176c46.101562-19.097656 97.898438-19.097656 144 0-46.101562-19.097656-97.898438-19.097656-144 0zm0-32c46.101562-19.097656 97.898438-19.097656 144 0-46.101562-19.097656-97.898438-19.097656-144 0zm0-32c46.101562-19.097656 97.898438-19.097656 144 0-46.101562-19.097656-97.898438-19.097656-144 0zm0 0" fill="#57a4ff"/><g fill="#004fac"><path d="m83.0625 178.597656c44.113281-18.417968 93.761719-18.417968 137.875 0 4.082031 1.691406 8.761719-.246094 10.453125-4.328125 1.695313-4.082031-.242187-8.765625-4.328125-10.457031-48.035156-20.046875-102.089844-20.046875-150.125 0-4.085938 1.691406-6.023438 6.375-4.328125 10.457031 1.691406 4.082031 6.371094 6.019531 10.453125 4.328125zm0 0"/><path d="m83.0625 146.597656c44.113281-18.417968 93.761719-18.417968 137.875 0 4.082031 1.691406 8.761719-.246094 10.453125-4.328125 1.695313-4.082031-.242187-8.765625-4.328125-10.457031-48.035156-20.046875-102.089844-20.046875-150.125 0-4.085938 1.691406-6.023438 6.375-4.328125 10.457031 1.691406 4.082031 6.371094 6.019531 10.453125 4.328125zm0 0"/><path d="m220.9375 210.597656c4.082031 1.691406 8.761719-.246094 10.453125-4.328125 1.695313-4.082031-.242187-8.765625-4.328125-10.457031-48.035156-20.046875-102.089844-20.046875-150.125 0-4.085938 1.691406-6.023438 6.375-4.328125 10.457031 1.691406 4.082031 6.371094 6.019531 10.453125 4.328125 44.113281-18.417968 93.761719-18.417968 137.875 0zm0 0"/><path d="m488 35.207031h-40v-8c0-3.238281-1.949219-6.15625-4.9375-7.394531-62.417969-25.613281-132.339844-26.035156-195.0625-1.175781-62.652344-25.25-132.726562-24.828125-195.070312 1.175781-2.988282 1.242188-4.933594 4.160156-4.929688 7.394531v8.046875h-40c-4.417969 0-8 3.582032-8 8v311.953125c0 4.417969 3.582031 8 8 8h480c4.417969 0 8-3.582031 8-8v-312c0-4.417969-3.582031-8-8-8zm-56 272.878907c-18.109375-6.511719-36.894531-10.96875-56-13.289063v-94.960937c12.667969 2.210937 25.046875 5.816406 36.921875 10.753906.972656.410156 2.019531.621094 3.078125.617187 3.8125 0 7.097656-2.691406 7.847656-6.429687.746094-3.742188-1.246094-7.488282-4.769531-8.957032-13.828125-5.738281-28.289063-9.820312-43.078125-12.167968v-15.816406c12.667969 2.210937 25.046875 5.816406 36.921875 10.753906.972656.410156 2.019531.621094 3.078125.617187 3.8125 0 7.097656-2.691406 7.847656-6.429687.746094-3.742188-1.246094-7.488282-4.769531-8.957032-13.828125-5.738281-28.289063-9.820312-43.078125-12.167968v-15.816406c12.667969 2.210937 25.046875 5.816406 36.921875 10.753906.972656.410156 2.019531.621094 3.078125.617187 3.8125 0 7.097656-2.691406 7.847656-6.429687.746094-3.742188-1.246094-7.488282-4.769531-8.957032-13.828125-5.738281-28.289063-9.820312-43.078125-12.167968v-101.246094c19.167969 2.492188 37.96875 7.273438 56 14.238281zm-120-188.433594c-14.789062 2.347656-29.25 6.429687-43.078125 12.167968-3.523437 1.46875-5.515625 5.214844-4.769531 8.957032.75 3.738281 4.035156 6.429687 7.847656 6.429687 1.058594.003907 2.105469-.207031 3.078125-.617187 11.875-4.9375 24.253906-8.542969 36.921875-10.753906v15.816406c-14.789062 2.347656-29.25 6.429687-43.078125 12.167968-3.523437 1.46875-5.515625 5.214844-4.769531 8.957032.75 3.738281 4.035156 6.429687 7.847656 6.429687 1.058594.003907 2.105469-.207031 3.078125-.617187 11.875-4.9375 24.253906-8.542969 36.921875-10.753906v15.816406c-14.789062 2.347656-29.25 6.429687-43.078125 12.167968-3.523437 1.46875-5.515625 5.214844-4.769531 8.957032.75 3.738281 4.035156 6.429687 7.847656 6.429687 1.058594.003907 2.105469-.207031 3.078125-.617187 11.875-4.9375 24.253906-8.542969 36.921875-10.753906v94.960937c-19.105469 2.320313-37.890625 6.777344-56 13.289063v-275.472657c18.03125-6.96875 36.832031-11.746093 56-14.238281zm16-100.445313h32v292.6875l-10.34375-10.34375c-3.125-3.125-8.1875-3.125-11.3125 0l-10.34375 10.34375zm-264 13.40625c56.570312-22.183593 119.429688-22.183593 176 0v275.472657c-56.835938-20.726563-119.164062-20.726563-176 0zm416 314.59375h-464v-295.953125h32v268.519532c0 2.671874 1.332031 5.167968 3.554688 6.652343 2.222656 1.488281 5.039062 1.761719 7.507812.738281 59.472656-24.816406 126.402344-24.816406 185.875 0 .0625 0 .125 0 .191406.042969.816406.304688 1.679688.476563 2.550782.503907.113281 0 .214843.0625.320312.0625s.375-.0625.558594-.078126c.390625-.035156.777344-.089843 1.160156-.167968.328125-.070313.652344-.160156.96875-.273438.121094-.039062.25-.046875.367188-.097656 19.523437-8.03125 40.011718-13.472656 60.945312-16.183594v20.234375c0 3.234375 1.949219 6.148438 4.9375 7.386719s6.429688.554688 8.71875-1.730469l18.34375-18.347656 18.34375 18.347656c2.289062 2.285157 5.730469 2.96875 8.71875 1.730469s4.9375-4.152344 4.9375-7.386719v-20.234375c20.933594 2.710938 41.421875 8.152344 60.945312 16.183594 2.464844 1.019531 5.28125.742188 7.5-.742188 2.222657-1.484374 3.554688-3.976562 3.554688-6.648437v-268.558594h32zm0 0"/></g></svg>