<svg height="496pt" viewBox="0 -50 496 496" width="496pt" xmlns="http://www.w3.org/2000/svg"><path d="m56 27.207031v292.566407c61.46875-25.457032 130.53125-25.457032 192 0v-292.566407c-61.46875-25.464843-130.53125-25.464843-192 0zm24 176c46.101562-19.097656 97.898438-19.097656 144 0-46.101562-19.097656-97.898438-19.097656-144 0zm0-32c46.101562-19.097656 97.898438-19.097656 144 0-46.101562-19.097656-97.898438-19.097656-144 0zm0-32c46.101562-19.097656 97.898438-19.097656 144 0-46.101562-19.097656-97.898438-19.097656-144 0zm0 0" fill="#57a4ff"/><path d="m368 301.84375c24.757812 2.355469 49.027344 8.394531 72 17.921875v-292.558594c-61.472656-25.441406-130.527344-25.441406-192 0v292.558594c22.972656-9.527344 47.242188-15.566406 72-17.921875 15.964844-1.519531 32.035156-1.519531 48 0zm48-162.636719c-46.101562-19.097656-97.898438-19.097656-144 0 46.101562-19.097656 97.898438-19.097656 144 0zm-96 19.277344c15.925781-2.160156 32.074219-2.160156 48 0 16.507812 2.019531 32.660156 6.300781 48 12.722656-15.339844-6.421875-31.492188-10.703125-48-12.722656-15.925781-2.160156-32.074219-2.160156-48 0-16.507812 2.019531-32.660156 6.300781-48 12.722656 15.339844-6.421875 31.492188-10.703125 48-12.722656zm-48 44.722656c15.339844-6.421875 31.492188-10.703125 48-12.722656 15.925781-2.160156 32.074219-2.160156 48 0 16.507812 2.019531 32.660156 6.300781 48 12.722656-15.339844-6.421875-31.492188-10.703125-48-12.722656-15.925781-2.160156-32.074219-2.160156-48 0-16.507812 2.019531-32.660156 6.300781-48 12.722656zm0 0" fill="#57a4ff"/><g fill="#004fac"><path d="m83.0625 178.597656c44.113281-18.417968 93.761719-18.417968 137.875 0 4.082031 1.691406 8.761719-.246094 10.453125-4.328125 1.695313-4.082031-.242187-8.765625-4.328125-10.457031-48.035156-20.046875-102.089844-20.046875-150.125 0-4.085938 1.691406-6.023438 6.375-4.328125 10.457031 1.691406 4.082031 6.371094 6.019531 10.453125 4.328125zm0 0"/><path d="m83.0625 146.597656c44.113281-18.417968 93.761719-18.417968 137.875 0 4.082031 1.691406 8.761719-.246094 10.453125-4.328125 1.695313-4.082031-.242187-8.765625-4.328125-10.457031-48.035156-20.046875-102.089844-20.046875-150.125 0-4.085938 1.691406-6.023438 6.375-4.328125 10.457031 1.691406 4.082031 6.371094 6.019531 10.453125 4.328125zm0 0"/><path d="m220.9375 210.597656c4.082031 1.691406 8.761719-.246094 10.453125-4.328125 1.695313-4.082031-.242187-8.765625-4.328125-10.457031-48.035156-20.046875-102.089844-20.046875-150.125 0-4.085938 1.691406-6.023438 6.375-4.328125 10.457031 1.691406 4.082031 6.371094 6.019531 10.453125 4.328125 44.113281-18.417968 93.761719-18.417968 137.875 0zm0 0"/><path d="m275.078125 178.589844c14.703125-6.148438 30.183594-10.242188 46-12.175782 15.25-2.070312 30.707031-2.070312 45.953125 0 15.78125 1.933594 31.222656 6.023438 45.890625 12.160157.972656.414062 2.019531.628906 3.078125.632812 3.8125 0 7.097656-2.691406 7.847656-6.429687.746094-3.742188-1.246094-7.488282-4.769531-8.957032-15.980469-6.683593-32.804687-11.144531-50-13.261718-16.605469-2.25-33.4375-2.25-50.046875 0h-.121094c-17.1875 2.113281-34.007812 6.574218-49.988281 13.253906-4.078125 1.703125-6.007813 6.386719-4.304687 10.464844 1.699218 4.078125 6.382812 6.003906 10.460937 4.304687zm0 0"/><path d="m275.0625 146.597656c44.113281-18.417968 93.761719-18.417968 137.875 0 4.082031 1.691406 8.761719-.246094 10.453125-4.328125 1.695313-4.082031-.242187-8.765625-4.328125-10.457031-48.035156-20.046875-102.089844-20.046875-150.125 0-4.085938 1.691406-6.023438 6.375-4.328125 10.457031 1.691406 4.082031 6.371094 6.019531 10.453125 4.328125zm0 0"/><path d="m275.078125 210.589844c14.703125-6.148438 30.183594-10.242188 46-12.175782 15.25-2.066406 30.707031-2.066406 45.953125 0 15.78125 1.933594 31.222656 6.023438 45.890625 12.160157.972656.414062 2.019531.628906 3.078125.632812 3.8125 0 7.097656-2.691406 7.847656-6.429687.746094-3.742188-1.246094-7.488282-4.769531-8.957032-15.980469-6.683593-32.804687-11.144531-50-13.261718-16.605469-2.25-33.4375-2.25-50.046875 0h-.121094c-17.1875 2.113281-34.007812 6.574218-49.988281 13.253906-4.078125 1.703125-6.007813 6.386719-4.304687 10.464844 1.699218 4.078125 6.382812 6.003906 10.460937 4.304687zm0 0"/><path d="m488 35.207031h-40v-8c0-3.238281-1.949219-6.15625-4.9375-7.394531-62.417969-25.613281-132.339844-26.035156-195.0625-1.175781-62.652344-25.25-132.726562-24.828125-195.070312 1.175781-2.988282 1.242188-4.933594 4.160156-4.929688 7.394531v8.078125h-40c-4.417969 0-8 3.582032-8 8v311.921875c0 4.417969 3.582031 8 8 8h304v24c0 3.277344 2.007812 6.226563 5.058594 7.433594 3.050781 1.207031 6.527344.429687 8.773437-1.964844l18.167969-19.375 18.167969 19.375c2.246093 2.394531 5.722656 3.171875 8.773437 1.964844 3.050782-1.207031 5.058594-4.15625 5.058594-7.433594v-24h112c4.417969 0 8-3.582031 8-8v-312c0-4.417969-3.582031-8-8-8zm-56-2.59375v275.472657c-20.382812-7.378907-41.617188-12.152344-63.199219-14.207032-16.46875-1.5625-33.046875-1.5625-49.511719 0-21.613281 2.046875-42.875 6.820313-63.289062 14.207032v-275.472657c56.640625-21.808593 119.359375-21.808593 176 0zm-368 0c56.570312-22.183593 119.429688-22.183593 176 0v275.472657c-56.835938-20.726563-119.164062-20.726563-176 0zm-48 314.59375v-295.921875h32v268.488282c0 2.671874 1.332031 5.167968 3.554688 6.652343 2.222656 1.488281 5.039062 1.761719 7.507812.738281 59.472656-24.816406 126.402344-24.816406 185.875 0 .0625 0 .125 0 .191406.042969.816406.304688 1.679688.476563 2.550782.503907.113281 0 .214843.0625.320312.0625s.375-.0625.558594-.078126c.390625-.035156.777344-.089843 1.160156-.167968.332031-.074219.65625-.164063.976562-.273438.113282-.039062.242188-.046875.359376-.097656 19.523437-8.03125 40.011718-13.472656 60.945312-16.183594v36.234375zm344 19.765625-10.167969-10.839844c-1.542969-1.550781-3.644531-2.425781-5.832031-2.425781s-4.289062.875-5.832031 2.425781l-10.167969 10.839844v-57.679687c10.65625-.695313 21.34375-.695313 32 0zm120-19.765625h-104v-36.234375c20.933594 2.710938 41.421875 8.152344 60.945312 16.183594 2.464844 1.019531 5.28125.742188 7.5-.742188 2.222657-1.484374 3.554688-3.976562 3.554688-6.648437v-268.558594h32zm0 0"/></g></svg>