<svg height="496pt" viewBox="0 -60 496 496" width="496pt" xmlns="http://www.w3.org/2000/svg"><path d="m8 32.011719v336c76.835938-31.824219 163.164062-31.824219 240 0v-336c-76.835938-31.824219-163.164062-31.824219-240 0zm48 184c46.101562-19.09375 97.898438-19.09375 144 0-46.101562-19.09375-97.898438-19.09375-144 0zm0-32c46.101562-19.09375 97.898438-19.09375 144 0-46.101562-19.09375-97.898438-19.09375-144 0zm0-32c46.101562-19.09375 97.898438-19.09375 144 0-46.101562-19.09375-97.898438-19.09375-144 0zm0 0" fill="#57a4ff"/><path d="m248 32.011719v336c76.835938-31.824219 163.164062-31.824219 240 0v-336c-76.835938-31.824219-163.164062-31.824219-240 0zm48 184c46.101562-19.09375 97.898438-19.09375 144 0-46.101562-19.09375-97.898438-19.09375-144 0zm0-32c46.101562-19.09375 97.898438-19.09375 144 0-46.101562-19.09375-97.898438-19.09375-144 0zm0-32c46.101562-19.09375 97.898438-19.09375 144 0-46.101562-19.09375-97.898438-19.09375-144 0zm0 0" fill="#57a4ff"/><g fill="#004fac"><path d="m203.0625 176.621094c-48.035156-20.050782-102.089844-20.050782-150.125 0-4.085938 1.691406-6.023438 6.371094-4.328125 10.453125 1.691406 4.085937 6.371094 6.023437 10.453125 4.328125 44.113281-18.414063 93.761719-18.414063 137.875 0 4.082031 1.695312 8.761719-.242188 10.453125-4.328125 1.695313-4.082031-.242187-8.761719-4.328125-10.453125zm0 0"/><path d="m203.0625 144.621094c-48.035156-20.050782-102.089844-20.050782-150.125 0-4.085938 1.691406-6.023438 6.371094-4.328125 10.453125 1.691406 4.085937 6.371094 6.023437 10.453125 4.328125 44.113281-18.414063 93.761719-18.414063 137.875 0 4.082031 1.695312 8.761719-.242188 10.453125-4.328125 1.695313-4.082031-.242187-8.761719-4.328125-10.453125zm0 0"/><path d="m203.0625 208.621094c-48.035156-20.050782-102.089844-20.050782-150.125 0-4.085938 1.691406-6.023438 6.371094-4.328125 10.453125 1.691406 4.085937 6.371094 6.023437 10.453125 4.328125 44.113281-18.414063 93.761719-18.414063 137.875 0 4.082031 1.695312 8.761719-.242188 10.453125-4.328125 1.695313-4.082031-.242187-8.761719-4.328125-10.453125zm0 0"/><path d="m491.0625 24.621094c-77.699219-32.414063-165.050781-32.839844-243.0625-1.183594-78.011719-31.65625-165.363281-31.230469-243.0625 1.183594-2.988281 1.238281-4.9375 4.15625-4.9375 7.390625v336c0 2.671875 1.332031 5.167969 3.554688 6.652343 2.222656 1.488282 5.039062 1.761719 7.507812.738282 74.832031-31.230469 159.042969-31.230469 233.875 0 .050781-.003906.101562-.003906.152344 0 .84375.324218 1.742187.5 2.644531.53125.089844 0 .175781.046875.265625.046875.15625-.015625.3125-.039063.464844-.074219.460937-.019531.917968-.089844 1.367187-.199219.269531-.054687.539063-.125.800781-.214843.152344-.046876.304688-.0625.445313-.121094 74.832031-31.230469 159.042969-31.230469 233.875 0 2.460937 1.015625 5.265625.738281 7.480469-.738282 2.21875-1.476562 3.554687-3.957031 3.566406-6.621093v-336c0-3.234375-1.949219-6.152344-4.9375-7.390625zm-475.0625 331.648437v-318.867187c71.933594-28.566406 152.066406-28.566406 224 0v318.867187c-72.214844-27.0625-151.785156-27.0625-224 0zm464 0c-72.214844-27.0625-151.785156-27.0625-224 0v-318.867187c71.933594-28.566406 152.066406-28.566406 224 0zm0 0"/><path d="m443.0625 176.621094c-48.035156-20.050782-102.089844-20.050782-150.125 0-4.085938 1.691406-6.023438 6.371094-4.328125 10.453125 1.691406 4.085937 6.371094 6.023437 10.453125 4.328125 44.113281-18.414063 93.761719-18.414063 137.875 0 4.082031 1.695312 8.761719-.242188 10.453125-4.328125 1.695313-4.082031-.242187-8.761719-4.328125-10.453125zm0 0"/><path d="m292.9375 144.621094c-4.085938 1.691406-6.023438 6.371094-4.328125 10.453125 1.691406 4.085937 6.371094 6.023437 10.453125 4.328125 44.113281-18.414063 93.761719-18.414063 137.875 0 4.082031 1.695312 8.761719-.242188 10.453125-4.328125 1.695313-4.082031-.242187-8.761719-4.328125-10.453125-48.035156-20.050782-102.089844-20.050782-150.125 0zm0 0"/><path d="m443.0625 208.621094c-48.035156-20.050782-102.089844-20.050782-150.125 0-4.085938 1.691406-6.023438 6.371094-4.328125 10.453125 1.691406 4.085937 6.371094 6.023437 10.453125 4.328125 44.113281-18.414063 93.761719-18.414063 137.875 0 4.082031 1.695312 8.761719-.242188 10.453125-4.328125 1.695313-4.082031-.242187-8.761719-4.328125-10.453125zm0 0"/></g></svg>