<svg height="496pt" viewBox="-88 0 496 496" width="496pt" xmlns="http://www.w3.org/2000/svg"><path d="m312 8h-240v480h240zm0 0" fill="#57a4ff"/><g fill="#004fac"><path d="m312 0h-304c-4.398438 0-8 3.601562-8 8v480c0 4.398438 3.601562 8 8 8h304c4.398438 0 8-3.601562 8-8v-480c0-4.398438-3.601562-8-8-8zm-296 480v-464h48v464zm288 0h-224v-464h224zm0 0"/><path d="m104 88h176c4.398438 0 8-3.601562 8-8s-3.601562-8-8-8h-176c-4.398438 0-8 3.601562-8 8s3.601562 8 8 8zm0 0"/><path d="m104 120h176c4.398438 0 8-3.601562 8-8s-3.601562-8-8-8h-176c-4.398438 0-8 3.601562-8 8s3.601562 8 8 8zm0 0"/><path d="m280 136h-176c-4.398438 0-8 3.601562-8 8s3.601562 8 8 8h176c4.398438 0 8-3.601562 8-8s-3.601562-8-8-8zm0 0"/></g></svg>