<svg height="496pt" viewBox="-56 0 496 496.61873" width="496pt" xmlns="http://www.w3.org/2000/svg"><path d="m304.308594 8.617188c-39.765625 0-72 32.238281-72 72-.015625 8.183593 1.390625 16.304687 4.160156 24h91.839844c-1.042969 19.042968-10.546875 36.621093-25.910156 47.921874.632812.066407 1.273437.09375 1.910156.078126 39.765625 0 72-32.234376 72-72 0-39.761719-32.234375-72-72-72zm0 0" fill="#57a4ff"/><path d="m305.507812 160.554688c33.886719-.386719 63.882813-22.015626 74.953126-54.042969 11.074218-32.027344.84375-67.5625-25.566407-88.796875-26.414062-21.234375-63.3125-23.597656-92.21875-5.90625-28.902343 17.691406-43.582031 51.628906-36.6875 84.808594h-217.679687c-4.417969 0-8 3.582031-8 8 0 49.152343 61.601562 88.472656 144 94.953124v227.089844l-106.191406 30.261719c-3.4375.980469-5.808594 4.121094-5.808594 7.695313v24c0 4.417968 3.582031 8 8 8h256c4.417968 0 8-3.582032 8-8v-24c0-3.578126-2.378906-6.722657-5.824219-7.695313l-106.175781-30.109375v-227.203125c47.105468-3.742187 87.328125-18.191406 113.199218-39.054687zm-65.199218-79.9375c-.007813-32.796876 24.777344-60.292969 57.402344-63.675782 32.625-3.382812 62.523437 18.445313 69.242187 50.550782 6.71875 32.101562-11.921875 64.085937-43.164063 74.070312 7.960938-10.6875 12.34375-23.617188 12.519532-36.945312 0-4.417969-3.582032-8-8-8h-85.960938c-1.359375-5.222657-2.046875-10.601563-2.039062-16zm-223.199219 32h302.398437c-7.910156 39.785156-73.933593 72-151.199218 72-77.261719 0-143.296875-32.214844-151.199219-72zm159.199219 88v232.242187c0 3.578125 2.378906 6.722656 5.824218 7.695313l106.175782 30.113281v9.949219h-240v-9.957032l106.191406-30.265625c3.4375-.980469 5.808594-4.121093 5.808594-7.695312v-232.082031zm0 0" fill="#004fac"/></svg>