<svg height="496pt" viewBox="-48 0 496 496" width="496pt" xmlns="http://www.w3.org/2000/svg"><path d="m8 8v480h128v-480zm32 56h64v160h-64zm-8 352" fill="#57a4ff"/><path d="m136 8v480h128v-480zm32 56h64v160h-64zm-8 352" fill="#57a4ff"/><path d="m264 488h128v-480h-128zm32-424h64v160h-64zm72 352" fill="#57a4ff"/><g fill="#004fac"><path d="m40 232h64c4.417969 0 8-3.582031 8-8v-160c0-4.417969-3.582031-8-8-8h-64c-4.417969 0-8 3.582031-8 8v160c0 4.417969 3.582031 8 8 8zm8-160h48v144h-48zm0 0"/><path d="m112 408h-80c-4.417969 0-8 3.582031-8 8s3.582031 8 8 8h80c4.417969 0 8-3.582031 8-8s-3.582031-8-8-8zm0 0"/><path d="m168 232h64c4.417969 0 8-3.582031 8-8v-160c0-4.417969-3.582031-8-8-8h-64c-4.417969 0-8 3.582031-8 8v160c0 4.417969 3.582031 8 8 8zm8-160h48v144h-48zm0 0"/><path d="m240 408h-80c-4.417969 0-8 3.582031-8 8s3.582031 8 8 8h80c4.417969 0 8-3.582031 8-8s-3.582031-8-8-8zm0 0"/><path d="m392 0h-384c-4.417969 0-8 3.582031-8 8v480c0 4.417969 3.582031 8 8 8h384c4.417969 0 8-3.582031 8-8v-480c0-4.417969-3.582031-8-8-8zm-376 16h112v464h-112zm128 0h112v464h-112zm240 464h-112v-464h112zm0 0"/><path d="m296 232h64c4.417969 0 8-3.582031 8-8v-160c0-4.417969-3.582031-8-8-8h-64c-4.417969 0-8 3.582031-8 8v160c0 4.417969 3.582031 8 8 8zm8-160h48v144h-48zm0 0"/><path d="m288 424h80c4.417969 0 8-3.582031 8-8s-3.582031-8-8-8h-80c-4.417969 0-8 3.582031-8 8s3.582031 8 8 8zm0 0"/></g></svg>