<svg height="496pt" viewBox="0 -40 496.00033 496" width="496pt" xmlns="http://www.w3.org/2000/svg"><path d="m161.359375 296.238281h.046875c-16.304688-37.644531-58.449219-56.851562-97.5625-44.464843-39.109375 12.386718-62.511719 52.355468-54.175781 92.523437 8.339843 40.171875 45.714843 67.523437 86.523437 63.324219 40.8125-4.203125 71.828125-38.59375 71.808594-79.621094-.003906-10.929688-2.246094-21.746094-6.59375-31.777344zm0 0" fill="#57a4ff"/><path d="m408 248c-31.894531.003906-60.738281 18.953125-73.40625 48.222656h.046875-.046875c-14.042969 32.449219-5.125 70.265625 21.941406 93.015625 27.0625 22.75 65.851563 25.035157 95.398438 5.625 29.550781-19.414062 42.855468-55.917969 32.722656-89.792969-10.132812-33.871093-41.300781-57.074218-76.65625-57.070312zm0 0" fill="#57a4ff"/><path d="m496 72c0-39.703125-25.128906-72-56-72-4.417969 0-8 3.582031-8 8s3.582031 8 8 8c22.054688 0 40 25.128906 40 56v205.601562c-17.476562-25.027343-46.691406-39.191406-77.164062-37.414062-30.472657 1.777344-57.839844 19.238281-72.292969 46.125-53.414063-18.855469-111.671875-18.855469-165.085938 0-14.453125-26.886719-41.820312-44.347656-72.292969-46.125-30.472656-1.777344-59.6875 12.386719-77.164062 37.414062v-205.601562c0-30.871094 17.945312-56 40-56 4.417969 0 8-3.582031 8-8s-3.582031-8-8-8c-30.871094 0-56 32.296875-56 72v248c.0507812.542969.15625 1.078125.320312 1.601562-.152343 2.117188-.320312 4.230469-.320312 6.398438-.0898438 47.546875 37.621094 86.554688 85.144531 88.070312 47.519531 1.511719 87.640625-35.015624 90.574219-82.46875 46.546875-17.785156 98.015625-17.785156 144.5625 0 2.933594 47.453126 43.054688 83.980469 90.578125 82.46875 47.519531-1.515624 85.230469-40.523437 85.140625-88.070312 0-2.160156-.167969-4.273438-.320312-6.398438.164062-.523437.269531-1.058593.320312-1.601562zm-408 328c-35.949219.023438-66.40625-26.472656-71.363281-62.078125-4.953125-35.609375 17.117187-69.410156 51.710937-79.199219 34.589844-9.789062 71.101563 7.433594 85.539063 40.359375v.046875l.058593.078125c9.75 22.25 7.613282 47.921875-5.6875 68.25-13.300781 20.328125-35.964843 32.566407-60.257812 32.542969zm87.199219-83.320312c-.667969-5.316407-1.824219-10.558594-3.453125-15.664063 49.390625-17.195313 103.148437-17.195313 152.542968 0-1.628906 5.105469-2.785156 10.347656-3.457031 15.664063-47.125-16.609376-98.507812-16.609376-145.632812 0zm232.800781 83.320312c-24.285156.023438-46.941406-12.207031-60.246094-32.519531-13.304687-20.316407-15.457031-45.972657-5.730468-68.222657l.082031-.128906c14.417969-32.941406 50.929687-50.191406 85.53125-40.417968 34.605469 9.777343 56.691406 43.585937 51.738281 79.203124-4.949219 35.613282-35.417969 62.117188-71.375 62.085938zm0 0" fill="#004fac"/></svg>