<svg height="496pt" viewBox="0 -48 496 496" width="496pt" xmlns="http://www.w3.org/2000/svg"><path d="m200 352h-192v32h352v-32zm0 0" fill="#57a4ff"/><g fill="#004fac"><path d="m136 72c.050781-10.75-1.023438-21.472656-3.199219-32h48.703125c4.417969 0 8-3.582031 8-8s-3.582031-8-8-8h-59.007812c-2.527344 0-4.910156 1.195312-6.417969 3.222656s-1.972656 4.652344-1.246094 7.074219c3.546875 12.25 5.289063 24.949219 5.167969 37.703125.160156 14.890625-2.328125 29.691406-7.34375 43.710938-1.433594 4.109374.675781 8.609374 4.75 10.132812 4.078125 1.523438 8.621094-.488281 10.234375-4.53125 5.683594-15.8125 8.511719-32.511719 8.359375-49.3125zm0 0"/><path d="m488 336c-4.417969 0-8 3.582031-8 8v16h-112v-8c0-4.417969-3.582031-8-8-8h-152v-29.945312c38.480469-20.28125 62.957031-59.808594 63.96875-103.292969 1.007812-43.484375-21.609375-84.109375-59.105469-106.152344-3.335937-10.542969-4.980469-21.550781-4.863281-32.609375 0-32.054688 12.671875-56 24-56 4.417969 0 8-3.582031 8-8s-3.582031-8-8-8h-160c-4.417969 0-8 3.582031-8 8s3.582031 8 8 8c11.328125 0 24 23.945312 24 56 .117188 11.058594-1.527344 22.066406-4.863281 32.609375-37.496094 22.042969-60.113281 62.667969-59.105469 106.152344 1.011719 43.484375 25.488281 83.011719 63.96875 103.292969v29.945312h-88c-4.417969 0-8 3.582031-8 8v32c0 4.417969 3.582031 8 8 8h352c4.417969 0 8-3.582031 8-8v-8h112v16c0 4.417969 3.582031 8 8 8s8-3.582031 8-8v-48c0-4.417969-3.582031-8-8-8zm-440-128c.042969-37.789062 20.554688-72.589844 53.601562-90.929688 1.65625-.921874 2.933594-2.40625 3.597657-4.183593 4.667969-13.117188 6.972656-26.960938 6.800781-40.886719.746094-19.652344-4.214844-39.101562-14.28125-56h108.5625c-10.066406 16.898438-15.027344 36.347656-14.28125 56-.160156 13.925781 2.152344 27.769531 6.832031 40.886719.664063 1.777343 1.941407 3.261719 3.601563 4.183593 37.53125 20.800782 58.421875 62.535157 52.574218 105.046876-5.84375 42.511718-37.222656 77.058593-78.976562 86.953124v-53.070312c0-4.417969-3.582031-8-8-8s-8 3.582031-8 8v55.59375c-2.648438.207031-5.296875.40625-8 .40625s-5.351562-.199219-8-.40625v-55.59375c0-4.417969-3.582031-8-8-8s-8 3.582031-8 8v53.097656c-46.84375-11.136718-79.941406-52.945312-80.03125-101.097656zm64 113c5.21875 1.902344 10.566406 3.433594 16 4.585938v2.414062c0 4.417969 3.582031 8 8 8s8-3.582031 8-8v-.40625c2.65625.175781 5.296875.40625 8 .40625s5.34375-.230469 8-.40625v.40625c0 4.417969 3.582031 8 8 8s8-3.582031 8-8v-2.398438c5.433594-1.152343 10.78125-2.683593 16-4.585937v22.984375h-80zm240 55h-336v-16h336zm0 0"/></g></svg>