<svg height="496pt" viewBox="0 -12 496 496" width="496pt" xmlns="http://www.w3.org/2000/svg"><g fill="#57a4ff"><path d="m232 224h32v208h-32zm0 0"/><path d="m136 432v32h224v-32zm0 0"/><path d="m416 312c0 8.835938-7.164062 16-16 16s-16-7.164062-16-16 7.164062-16 16-16 16 7.164062 16 16zm0 0"/></g><path d="m248 0c-136.753906 0-248 100.488281-248 224 0 4.417969 3.582031 8 8 8h216v192h-88c-4.417969 0-8 3.582031-8 8v32c0 4.417969 3.582031 8 8 8h224c4.417969 0 8-3.582031 8-8v-32c0-4.417969-3.582031-8-8-8h-88v-192h120v56c.046875.46875.140625.933594.28125 1.382812-11.121094 3.777344-17.875 15.050782-15.960938 26.636719 1.914063 11.589844 11.933594 20.089844 23.679688 20.089844s21.765625-8.5 23.679688-20.089844c1.914062-11.585937-4.839844-22.859375-15.960938-26.636719.140625-.449218.234375-.914062.28125-1.382812v-56h80c4.417969 0 8-3.582031 8-8 0-123.511719-111.246094-224-248-224zm152 320c-4.417969 0-8-3.582031-8-8s3.582031-8 8-8 8 3.582031 8 8-3.582031 8-8 8zm-48 136h-208v-16h208zm-96-32h-16v-192h16zm-239.832031-208c4.703125-110.992188 106.894531-200 231.832031-200s227.128906 89.007812 231.832031 200zm0 0" fill="#004fac"/></svg>