<svg height="496pt" viewBox="-72 0 496 496" width="496pt" xmlns="http://www.w3.org/2000/svg"><path d="m159.996094 360h32v96h-32zm0 0" fill="#57a4ff"/><path d="m63.996094 456v32h224v-32zm0 0" fill="#57a4ff"/><path d="m351.757812 358.0625-88-352c-.886718-3.5625-4.089843-6.0625-7.761718-6.0625h-160c-3.671875 0-6.871094 2.5-7.757813 6.0625l-88 352c-.597656 2.390625-.058593 4.921875 1.457031 6.863281 1.515626 1.9375 3.839844 3.074219 6.300782 3.074219h144v80h-88c-4.417969 0-8 3.582031-8 8v32c0 4.417969 3.582031 8 8 8h224c4.421875 0 8-3.582031 8-8v-32c0-4.417969-3.578125-8-8-8h-88v-80h144c2.464844 0 4.789062-1.136719 6.304687-3.074219 1.515625-1.941406 2.054688-4.472656 1.457031-6.863281zm-71.761718 121.9375h-208v-16h208zm-96-32h-16v-80h16zm-165.75-96 84-336h147.503906l84 336zm0 0" fill="#004fac"/></svg>