<svg height="496pt" viewBox="0 -60 496 496" width="496pt" xmlns="http://www.w3.org/2000/svg"><path d="m152 248.003906v72-208l-96-24v224l192 32v-72zm0 0" fill="#57a4ff"/><path d="m152 248.003906 96 24v-232l-96-16zm64-184-40-8zm0 24-40-8zm0 24-40-8zm0 0" fill="#57a4ff"/><path d="m248 40.003906v304l192-32v-304zm32 184 128-32zm0-32 128-32zm0-32 128-32zm0 0" fill="#57a4ff"/><g fill="#004fac"><path d="m488 48.003906h-40v-40c0-2.351562-1.035156-4.582031-2.832031-6.101562-1.796875-1.519532-4.167969-2.171875-6.488281-1.785156l-190.679688 31.777343-190.679688-31.777343c-2.320312-.402344-4.699218.25-6.488281 1.785156-1.796875 1.519531-2.832031 3.75-2.832031 6.101562v40.050782h-40c-4.417969 0-8 3.578124-8 8v311.949218c0 4.417969 3.582031 8 8 8h480c4.417969 0 8-3.582031 8-8v-312c0-4.417968-3.582031-8-8-8zm-56 257.226563-176 29.328125v-287.777344l176-29.328125zm-368-206.976563 80 20v200.304688l-80-13.328125zm96 221.75v-61.75l80 20v56.304688l-80.238281-13.371094c.109375-.386719.191406-.78125.238281-1.183594zm80-58.246094-80-20v-208.304687l80 13.328125zm-96-230.976562v70.976562l-80-20v-64.304687zm336 329.222656h-464v-295.949218h32v247.949218c0 3.910156 2.824219 7.242188 6.679688 7.890625l192 32c.875.148438 1.765624.148438 2.640624 0l192-32c3.855469-.648437 6.679688-3.980469 6.679688-7.890625v-248h32zm0 0"/><path d="m280 200.003906c.65625.003906 1.3125-.078125 1.953125-.238281l128-32c4.253906-1.097656 6.828125-5.425781 5.757813-9.691406-1.066407-4.265625-5.375-6.867188-9.648438-5.828125l-128 32c-3.914062.980468-6.484375 4.726562-5.992188 8.734375.492188 4.007812 3.890626 7.019531 7.929688 7.023437zm0 0"/><path d="m280 168.003906c.65625.003906 1.3125-.078125 1.953125-.238281l128-32c4.253906-1.097656 6.828125-5.425781 5.757813-9.691406-1.066407-4.265625-5.375-6.867188-9.648438-5.828125l-128 32c-3.914062.980468-6.484375 4.726562-5.992188 8.734375.492188 4.007812 3.890626 7.019531 7.929688 7.023437zm0 0"/><path d="m280 232.003906c.65625.003906 1.3125-.078125 1.953125-.238281l128-32c2.789063-.679687 5.003906-2.800781 5.796875-5.558594.796875-2.761719.050781-5.734375-1.953125-7.792969-2-2.058593-4.953125-2.886718-7.734375-2.167968l-128 32c-3.914062.980468-6.484375 4.726562-5.992188 8.734375.492188 4.007812 3.890626 7.019531 7.929688 7.023437zm0 0"/><path d="m174.398438 63.84375 40 8c.527343.109375 1.0625.164062 1.601562.160156 4.109375.003906 7.554688-3.105468 7.96875-7.195312.410156-4.089844-2.339844-7.824219-6.367188-8.644532l-40-8c-4.253906-.699218-8.296874 2.097657-9.144531 6.324219-.84375 4.230469 1.8125 8.367188 6.007813 9.355469zm0 0"/><path d="m174.398438 87.84375 40 8c.527343.109375 1.0625.164062 1.601562.160156 4.109375.003906 7.554688-3.105468 7.96875-7.195312.410156-4.089844-2.339844-7.824219-6.367188-8.644532l-40-8c-4.253906-.699218-8.296874 2.097657-9.144531 6.324219-.84375 4.230469 1.8125 8.367188 6.007813 9.355469zm0 0"/><path d="m217.601562 104.164062-40-8c-4.253906-.699218-8.296874 2.097657-9.144531 6.324219-.84375 4.230469 1.8125 8.367188 6.007813 9.355469l40 8c.503906.105469 1.019531.160156 1.535156.160156 4.109375.003906 7.554688-3.105468 7.96875-7.195312.410156-4.089844-2.339844-7.824219-6.367188-8.644532zm0 0"/></g></svg>