<svg height="496pt" viewBox="0 -60 496 496" width="496pt" xmlns="http://www.w3.org/2000/svg"><path d="m248 40.003906v304l192-32v-304zm32 184 128-32zm0-32 128-32zm0-32 128-32zm0 0" fill="#57a4ff"/><path d="m152 320.003906v-208l-96-24v224l192 32v-72l-96-24zm0 0" fill="#57a4ff"/><path d="m152 112.003906v136l96 24v-232l-96-16zm64-48-40-8zm0 24-40-8zm0 24-40-8zm0 0" fill="#57a4ff"/><g fill="#004fac"><path d="m488 48.003906h-32.105469c-1.527343.042969-3.007812.527344-4.261719 1.402344l-10.167968-16.097656 13.296875-21.023438c2.363281-3.734375 1.253906-8.675781-2.480469-11.039062-2.53125-1.574219-5.730469-1.597656-8.28125-.058594-1.585938-.96875-3.464844-1.347656-5.304688-1.070312l-190.695312 31.777343-190.679688-31.777343c-2.320312-.402344-4.699218.25-6.488281 1.785156-1.796875 1.519531-2.832031 3.75-2.832031 6.101562v40.050782h-40c-4.417969 0-8 3.578124-8 8v311.949218c0 4.417969 3.582031 8 8 8h480c4.417969 0 8-3.582031 8-8v-312c0-4.417968-3.582031-8-8-8zm-424 50.25 80 20v200.304688l-80-13.328125zm96 221.75v-61.75l80 20v56.304688l-80.238281-13.371094c.109375-.386719.191406-.78125.238281-1.183594zm96-273.222656 176.625-29.441406-7.386719 11.6875c-1.648437 2.613281-1.648437 5.941406 0 8.554687l13.296875 21.046875-13.296875 21.039063c-1.644531 2.609375-1.644531 5.933593 0 8.542969l13.296875 21.050781-13.304687 21.0625c-1.648438 2.609375-1.648438 5.933593 0 8.542969l13.304687 21.058593-13.296875 21.03125c-1.648437 2.609375-1.648437 5.941407 0 8.550781l13.304688 21.058594-13.304688 21.0625c-1.644531 2.609375-1.644531 5.933594 0 8.542969l13.304688 21.074219-13.304688 21.109375c-1.640625 2.605469-1.640625 5.921875 0 8.53125l8.800781 14-178.039062 29.671875zm-16 214.976562-80-20v-208.304687l80 13.328125zm-96-230.976562v70.976562l-80-20v-64.304687zm336 329.222656h-464v-295.949218h32v247.949218c0 3.910156 2.824219 7.242188 6.679688 7.890625l192 32c.875.148438 1.765624.148438 2.640624 0l192-32c.9375-.175781 1.832032-.515625 2.648438-1.007812 3.175781 1.832031 7.191406 1.273437 9.746094-1.363281 2.550781-2.632813 2.988281-6.664063 1.054687-9.78125l-13.3125-21.121094 13.3125-21.113282c1.644531-2.605468 1.644531-5.925781 0-8.535156l-13.304687-21.070312 13.304687-21.066406c1.648438-2.609376 1.648438-5.933594 0-8.542969l-13.304687-21.054688 13.296875-21.035156c1.648437-2.609375 1.648437-5.9375 0-8.550781l-13.304688-21.054688 13.304688-21.066406c1.644531-2.609375 1.644531-5.933594 0-8.542969l-13.296875-21.046875 12.800781-20.265625c.519531.164063 1.054687.273438 1.597656.328125h24.136719zm0 0"/><path d="m406.054688 152.246094-128 32c-3.917969.980468-6.488282 4.730468-5.992188 8.738281.492188 4.007813 3.898438 7.019531 7.9375 7.019531.65625.003906 1.3125-.078125 1.953125-.238281l128-32c4.253906-1.097656 6.828125-5.425781 5.757813-9.691406-1.066407-4.265625-5.375-6.867188-9.648438-5.828125zm0 0"/><path d="m406.054688 120.246094-128 32c-3.917969.980468-6.488282 4.730468-5.992188 8.738281.492188 4.007813 3.898438 7.019531 7.9375 7.019531.65625.003906 1.3125-.078125 1.953125-.238281l128-32c4.253906-1.097656 6.828125-5.425781 5.757813-9.691406-1.066407-4.265625-5.375-6.867188-9.648438-5.828125zm0 0"/><path d="m406.054688 184.246094-128 32c-3.917969.980468-6.488282 4.730468-5.992188 8.738281.492188 4.007813 3.898438 7.019531 7.9375 7.019531.65625.003906 1.3125-.078125 1.953125-.238281l128-32c2.789063-.679687 5.003906-2.800781 5.796875-5.558594.796875-2.761719.050781-5.734375-1.953125-7.792969-2-2.058593-4.953125-2.886718-7.734375-2.167968zm0 0"/><path d="m174.398438 63.84375 40 8c.527343.109375 1.0625.164062 1.601562.160156 4.109375.003906 7.554688-3.105468 7.96875-7.195312.410156-4.089844-2.339844-7.824219-6.367188-8.644532l-40-8c-4.253906-.699218-8.296874 2.097657-9.144531 6.324219-.84375 4.230469 1.8125 8.367188 6.007813 9.355469zm0 0"/><path d="m174.398438 87.84375 40 8c.527343.109375 1.0625.164062 1.601562.160156 4.109375.003906 7.554688-3.105468 7.96875-7.195312.410156-4.089844-2.339844-7.824219-6.367188-8.644532l-40-8c-4.253906-.699218-8.296874 2.097657-9.144531 6.324219-.84375 4.230469 1.8125 8.367188 6.007813 9.355469zm0 0"/><path d="m217.601562 104.164062-40-8c-4.253906-.699218-8.296874 2.097657-9.144531 6.324219-.84375 4.230469 1.8125 8.367188 6.007813 9.355469l40 8c.503906.105469 1.019531.160156 1.535156.160156 4.109375.003906 7.554688-3.105468 7.96875-7.195312.410156-4.089844-2.339844-7.824219-6.367188-8.644532zm0 0"/></g></svg>