<svg height="496pt" viewBox="-80 0 496 496" width="496pt" xmlns="http://www.w3.org/2000/svg"><path d="m328 80-64-72v72zm0 0" fill="#57a4ff"/><g fill="#004fac"><path d="m335.398438 77.03125c-.175782-.355469-.382813-.695312-.613282-1.015625-.222656-.46875-.492187-.917969-.800781-1.335937l-64-72c-.046875-.054688-.128906-.070313-.175781-.128907-.570313-.5625-1.222656-1.042969-1.9375-1.414062-.210938-.164063-.433594-.3125-.664063-.449219-1.007812-.449219-2.101562-.68359375-3.207031-.6875h-240c-4.417969 0-8 3.582031-8 8v24h-8c-4.417969 0-8 3.582031-8 8s3.582031 8 8 8h8v16h-8c-4.417969 0-8 3.582031-8 8s3.582031 8 8 8h8v16h-8c-4.417969 0-8 3.582031-8 8s3.582031 8 8 8h8v16h-8c-4.417969 0-8 3.582031-8 8s3.582031 8 8 8h8v16h-8c-4.417969 0-8 3.582031-8 8s3.582031 8 8 8h8v16h-8c-4.417969 0-8 3.582031-8 8s3.582031 8 8 8h8v16h-8c-4.417969 0-8 3.582031-8 8s3.582031 8 8 8h8v16h-8c-4.417969 0-8 3.582031-8 8s3.582031 8 8 8h8v16h-8c-4.417969 0-8 3.582031-8 8s3.582031 8 8 8h8v16h-8c-4.417969 0-8 3.582031-8 8s3.582031 8 8 8h8v16h-8c-4.417969 0-8 3.582031-8 8s3.582031 8 8 8h8v16h-8c-4.417969 0-8 3.582031-8 8s3.582031 8 8 8h8v16h-8c-4.417969 0-8 3.582031-8 8s3.582031 8 8 8h8v16h-8c-4.417969 0-8 3.582031-8 8s3.582031 8 8 8h8v24c0 4.417969 3.582031 8 8 8h304c4.417969 0 8-3.582031 8-8v-408c-.007812-1.019531-.210938-2.027344-.601562-2.96875zm-63.398438-47.992188 38.183594 42.960938h-38.183594zm-240 450.960938v-16h8c4.417969 0 8-3.582031 8-8s-3.582031-8-8-8h-8v-16h8c4.417969 0 8-3.582031 8-8s-3.582031-8-8-8h-8v-16h8c4.417969 0 8-3.582031 8-8s-3.582031-8-8-8h-8v-16h8c4.417969 0 8-3.582031 8-8s-3.582031-8-8-8h-8v-16h8c4.417969 0 8-3.582031 8-8s-3.582031-8-8-8h-8v-16h8c4.417969 0 8-3.582031 8-8s-3.582031-8-8-8h-8v-16h8c4.417969 0 8-3.582031 8-8s-3.582031-8-8-8h-8v-16h8c4.417969 0 8-3.582031 8-8s-3.582031-8-8-8h-8v-16h8c4.417969 0 8-3.582031 8-8s-3.582031-8-8-8h-8v-16h8c4.417969 0 8-3.582031 8-8s-3.582031-8-8-8h-8v-16h8c4.417969 0 8-3.582031 8-8s-3.582031-8-8-8h-8v-16h8c4.417969 0 8-3.582031 8-8s-3.582031-8-8-8h-8v-16h8c4.417969 0 8-3.582031 8-8s-3.582031-8-8-8h-8v-16h8c4.417969 0 8-3.582031 8-8s-3.582031-8-8-8h-8v-16h224v64c0 4.417969 3.582031 8 8 8h56v392zm0 0"/><path d="m264 168h-176c-4.417969 0-8 3.582031-8 8s3.582031 8 8 8h176c4.417969 0 8-3.582031 8-8s-3.582031-8-8-8zm0 0"/><path d="m264 200h-176c-4.417969 0-8 3.582031-8 8s3.582031 8 8 8h176c4.417969 0 8-3.582031 8-8s-3.582031-8-8-8zm0 0"/><path d="m264 232h-176c-4.417969 0-8 3.582031-8 8s3.582031 8 8 8h176c4.417969 0 8-3.582031 8-8s-3.582031-8-8-8zm0 0"/></g></svg>