<svg height="496pt" viewBox="-80 0 496 496" width="496pt" xmlns="http://www.w3.org/2000/svg"><path d="m40 456h-16v32h304v-480h-304v448zm32-416h224v152h-224zm0 0" fill="#57a4ff"/><g fill="#004fac"><path d="m328 0h-304c-4.417969 0-8 3.582031-8 8v24h-8c-4.417969 0-8 3.582031-8 8s3.582031 8 8 8h8v16h-8c-4.417969 0-8 3.582031-8 8s3.582031 8 8 8h8v16h-8c-4.417969 0-8 3.582031-8 8s3.582031 8 8 8h8v16h-8c-4.417969 0-8 3.582031-8 8s3.582031 8 8 8h8v16h-8c-4.417969 0-8 3.582031-8 8s3.582031 8 8 8h8v16h-8c-4.417969 0-8 3.582031-8 8s3.582031 8 8 8h8v16h-8c-4.417969 0-8 3.582031-8 8s3.582031 8 8 8h8v16h-8c-4.417969 0-8 3.582031-8 8s3.582031 8 8 8h8v16h-8c-4.417969 0-8 3.582031-8 8s3.582031 8 8 8h8v16h-8c-4.417969 0-8 3.582031-8 8s3.582031 8 8 8h8v16h-8c-4.417969 0-8 3.582031-8 8s3.582031 8 8 8h8v16h-8c-4.417969 0-8 3.582031-8 8s3.582031 8 8 8h8v16h-8c-4.417969 0-8 3.582031-8 8s3.582031 8 8 8h8v16h-8c-4.417969 0-8 3.582031-8 8s3.582031 8 8 8h8v24c0 4.417969 3.582031 8 8 8h304c4.417969 0 8-3.582031 8-8v-480c0-4.417969-3.582031-8-8-8zm-8 480h-288v-16h8c4.417969 0 8-3.582031 8-8s-3.582031-8-8-8h-8v-16h8c4.417969 0 8-3.582031 8-8s-3.582031-8-8-8h-8v-16h8c4.417969 0 8-3.582031 8-8s-3.582031-8-8-8h-8v-16h8c4.417969 0 8-3.582031 8-8s-3.582031-8-8-8h-8v-16h8c4.417969 0 8-3.582031 8-8s-3.582031-8-8-8h-8v-16h8c4.417969 0 8-3.582031 8-8s-3.582031-8-8-8h-8v-16h8c4.417969 0 8-3.582031 8-8s-3.582031-8-8-8h-8v-16h8c4.417969 0 8-3.582031 8-8s-3.582031-8-8-8h-8v-16h8c4.417969 0 8-3.582031 8-8s-3.582031-8-8-8h-8v-16h8c4.417969 0 8-3.582031 8-8s-3.582031-8-8-8h-8v-16h8c4.417969 0 8-3.582031 8-8s-3.582031-8-8-8h-8v-16h8c4.417969 0 8-3.582031 8-8s-3.582031-8-8-8h-8v-16h8c4.417969 0 8-3.582031 8-8s-3.582031-8-8-8h-8v-16h8c4.417969 0 8-3.582031 8-8s-3.582031-8-8-8h-8v-16h288zm0 0"/><path d="m272 72h-176c-4.417969 0-8 3.582031-8 8s3.582031 8 8 8h176c4.417969 0 8-3.582031 8-8s-3.582031-8-8-8zm0 0"/><path d="m272 104h-176c-4.417969 0-8 3.582031-8 8s3.582031 8 8 8h176c4.417969 0 8-3.582031 8-8s-3.582031-8-8-8zm0 0"/><path d="m272 136h-176c-4.417969 0-8 3.582031-8 8s3.582031 8 8 8h176c4.417969 0 8-3.582031 8-8s-3.582031-8-8-8zm0 0"/><path d="m72 200h224c4.417969 0 8-3.582031 8-8v-152c0-4.417969-3.582031-8-8-8h-224c-4.417969 0-8 3.582031-8 8v152c0 4.417969 3.582031 8 8 8zm8-152h208v136h-208zm0 0"/></g></svg>