<svg height="496pt" viewBox="-92 0 496 496" width="496pt" xmlns="http://www.w3.org/2000/svg"><g fill="#004fac"><path d="m304.023438 0h-288c-1.417969.0351562-2.800782.460938-4 1.222656-2.09375-1.2890622-4.667969-1.53125-6.96875-.65625-4.105469 1.640625-6.105469 6.296875-4.464844 10.402344l14.816406 37.078125-14.816406 37.089844c-.75 1.90625-.75 4.027343 0 5.933593l14.816406 37.058594-14.816406 37.015625c-.75 1.90625-.75 4.027344 0 5.933594l14.816406 37.050781-14.816406 37.023438c-.75 1.910156-.75 4.035156 0 5.945312l14.816406 37.023438-14.816406 37.03125c-.75 1.910156-.75 4.035156 0 5.945312l14.816406 37.007813-14.816406 36.992187c-.75 1.910156-.75 4.03125 0 5.941406l14.816406 37.007813-14.816406 36.976563c-1.300782 3.183593-.410156 6.839843 2.207031 9.070312s6.371094 2.527344 9.308594.738281c1.179687.730469 2.53125 1.132813 3.917969 1.167969h288c4.417968 0 8-3.582031 8-8v-480c0-4.417969-3.582032-8-8-8zm-8 480h-276.175782l11.609375-28.976562c.75-1.910157.75-4.035157 0-5.945313l-14.816406-37.015625 14.816406-36.992188c.75-1.910156.75-4.03125 0-5.941406l-14.816406-37.007812 14.816406-37.023438c.75-1.910156.75-4.035156 0-5.945312l-14.816406-37.023438 14.816406-37.03125c.75-1.910156.75-4.03125 0-5.9375l-14.816406-37.046875 14.816406-37.015625c.75-1.910156.75-4.03125 0-5.9375l-14.816406-37.054687 14.816406-37.089844c.75-1.90625.75-4.027344 0-5.9375l-11.625-29.078125h276.191407zm0 0"/><path d="m72.023438 256h176c4.417968 0 8-3.582031 8-8s-3.582032-8-8-8h-176c-4.417969 0-8 3.582031-8 8s3.582031 8 8 8zm0 0"/><path d="m72.023438 224h176c4.417968 0 8-3.582031 8-8s-3.582032-8-8-8h-176c-4.417969 0-8 3.582031-8 8s3.582031 8 8 8zm0 0"/><path d="m72.023438 288h176c4.417968 0 8-3.582031 8-8s-3.582032-8-8-8h-176c-4.417969 0-8 3.582031-8 8s3.582031 8 8 8zm0 0"/></g></svg>