<svg height="412pt" viewBox="0 0 412.64892 412" width="412pt" xmlns="http://www.w3.org/2000/svg"><path d="m76.550781 76.773438c-37.5 37.5-37.5 98.300781 0 135.800781s98.296875 37.5 135.796875 0 37.5-98.300781 0-135.800781-98.296875-37.5-135.796875 0zm0 0" fill="#57a4ff"/><g fill="#004fac"><path d="m217.949219 71.074219c-40.601563-40.601563-106.398438-40.601563-147 .097656-40.601563 40.703125-40.601563 106.402344 0 147 40.601562 40.601563 106.398437 40.601563 147 0 40.5-40.597656 40.5-106.398437 0-147.097656zm-11.300781 135.800781c-34.398438 34.398438-90.097657 34.398438-124.5 0-34.398438-34.402344-34.398438-90.101562 0-124.5 34.402343-34.402344 90.101562-34.402344 124.402343 0 34.398438 34.398438 34.398438 90.097656.097657 124.5zm0 0"/><path d="m136.25 71.574219c-40.402344 4.5-69.402344 40.898437-64.902344 81.300781 1.902344 16.597656 9.300782 32 21.101563 43.796875 3.199219 3.101563 8.199219 3 11.300781-.199219 3-3.097656 3-8 0-11.097656-22.5-22.5-22.5-58.902344 0-81.402344 9.199219-9.199218 21.300781-15 34.300781-16.5 4.398438-.5 7.597657-4.398437 7.097657-8.800781-.5-4.5-4.5-7.597656-8.898438-7.097656zm0 0"/><path d="m410.25 365.273438-144-144c42.398438-67.398438 22.097656-156.398438-45.300781-198.800782-67.398438-42.398437-156.398438-22.097656-198.800781 45.300782-42.398438 67.398437-22.0976568 156.398437 45.300781 198.800781 46.898437 29.5 106.601562 29.5 153.5 0l144 144c3.101562 3.097656 8.199219 3.097656 11.300781 0l34-33.902344c3.199219-3.199219 3.199219-8.296875 0-11.398437zm-356.300781-130.101563c-50-50-50-131 0-181s131-50 181 0 50 131 0 181c-24 24-56.601563 37.5-90.5 37.5-34-.097656-66.5-13.5-90.5-37.5zm316.800781 158.402344-136.5-136.5c4.199219-3.300781 8.199219-6.902344 12-10.601563 3.800781-3.800781 7.300781-7.800781 10.597656-12l136.402344 136.5zm0 0"/></g></svg>