<svg height="496pt" viewBox="-136 0 496 496" width="496pt" xmlns="http://www.w3.org/2000/svg"><g fill="#57a4ff"><path d="m216 8h-208v144h208zm-32 112h-144v-80h144zm0 0"/><path d="m216 152h-208v144h208zm-32 88h-144v-80h144zm0 0"/><path d="m216 440v-144h-208v144zm-32-32h-144v-80h144zm0 0"/><path d="m24 440h32v48h-32zm0 0"/><path d="m168 440h32v48h-32zm0 0"/></g><path d="m216 0h-208c-4.417969 0-8 3.582031-8 8v432c0 4.417969 3.582031 8 8 8h8v40c0 4.417969 3.582031 8 8 8h32c4.417969 0 8-3.582031 8-8v-40h96v40c0 4.417969 3.582031 8 8 8h32c4.417969 0 8-3.582031 8-8v-40h8c4.417969 0 8-3.582031 8-8v-432c0-4.417969-3.582031-8-8-8zm-200 160h16v80c0 4.417969 3.582031 8 8 8h144c4.417969 0 8-3.582031 8-8v-80h16v128h-192zm160 8v64h-128v-64zm-160-152h192v128h-192zm32 464h-16v-32h16zm144 0h-16v-32h16zm16-48h-192v-128h192zm0 0" fill="#004fac"/><path d="m40 416h144c4.417969 0 8-3.582031 8-8v-80c0-4.417969-3.582031-8-8-8h-144c-4.417969 0-8 3.582031-8 8v80c0 4.417969 3.582031 8 8 8zm8-80h128v64h-128zm0 0" fill="#004fac"/><path d="m184 32h-144c-4.417969 0-8 3.582031-8 8v80c0 4.417969 3.582031 8 8 8h144c4.417969 0 8-3.582031 8-8v-80c0-4.417969-3.582031-8-8-8zm-8 80h-128v-64h128zm0 0" fill="#004fac"/></svg>