<svg height="496pt" viewBox="-8 0 496 496" width="496pt" xmlns="http://www.w3.org/2000/svg"><g fill="#57a4ff"><path d="m8 152h464v-144h-464zm24-112h416v80h-416zm0 0"/><path d="m8 296h464v-144h-464zm24-112h416v80h-416zm0 0"/><path d="m8 440h464v-144h-464zm24-112h416v80h-416zm0 0"/><path d="m8 440h32v48h-32zm0 0"/><path d="m440 440h32v48h-32zm0 0"/><path d="m200 40h80v32h-80zm0 0"/><path d="m200 184h80v32h-80zm0 0"/><path d="m200 328h80v32h-80zm0 0"/></g><path d="m472 0h-464c-4.417969 0-8 3.582031-8 8v480c0 4.417969 3.582031 8 8 8h32c4.417969 0 8-3.582031 8-8v-40h384v40c0 4.417969 3.582031 8 8 8h32c4.417969 0 8-3.582031 8-8v-480c0-4.417969-3.582031-8-8-8zm-456 432v-128h448v128zm448-144h-448v-128h448zm-448-272h448v128h-448zm16 464h-16v-32h16zm432 0h-16v-32h16zm0 0" fill="#004fac"/><path d="m448 320h-416c-4.417969 0-8 3.582031-8 8v80c0 4.417969 3.582031 8 8 8h416c4.417969 0 8-3.582031 8-8v-80c0-4.417969-3.582031-8-8-8zm-176 16v16h-64v-16zm168 64h-400v-64h152v24c0 4.417969 3.582031 8 8 8h80c4.417969 0 8-3.582031 8-8v-24h152zm0 0" fill="#004fac"/><path d="m32 272h416c4.417969 0 8-3.582031 8-8v-80c0-4.417969-3.582031-8-8-8h-416c-4.417969 0-8 3.582031-8 8v80c0 4.417969 3.582031 8 8 8zm240-80v16h-64v-16zm-232 0h152v24c0 4.417969 3.582031 8 8 8h80c4.417969 0 8-3.582031 8-8v-24h152v64h-400zm0 0" fill="#004fac"/><path d="m448 32h-416c-4.417969 0-8 3.582031-8 8v80c0 4.417969 3.582031 8 8 8h416c4.417969 0 8-3.582031 8-8v-80c0-4.417969-3.582031-8-8-8zm-176 16v16h-64v-16zm168 64h-400v-64h152v24c0 4.417969 3.582031 8 8 8h80c4.417969 0 8-3.582031 8-8v-24h152zm0 0" fill="#004fac"/></svg>