<svg height="496pt" viewBox="-64 0 496 496" width="496pt" xmlns="http://www.w3.org/2000/svg"><g fill="#57a4ff"><path d="m56 8h48v120h-48zm0 0"/><path d="m104 8h48v120h-48zm0 0"/><path d="m8 8h48v120h-48zm0 0"/><path d="m104 128h-96v24h352v-24zm0 0"/><path d="m312 152h48v120h-48zm0 0"/><path d="m264 152h48v120h-48zm0 0"/><path d="m216 152h48v120h-48zm0 0"/><path d="m264 272h-256v24h352v-24zm0 0"/><path d="m8 296h48v120h-48zm0 0"/><path d="m136 416h-128v24h352v-24zm0 0"/><path d="m136 296h32v120h-32zm0 0"/><path d="m88 296h48v120h-48zm0 0"/><path d="m56 296h32v120h-32zm0 0"/><path d="m8 440h32v48h-32zm0 0"/><path d="m328 440h32v48h-32zm0 0"/><path d="m137.050781 242.414062 54.449219-58.609374 23.445312 21.78125-54.449218 58.609374zm0 0"/></g><path d="m360 0h-352c-4.417969 0-8 3.582031-8 8v480c0 4.417969 3.582031 8 8 8h32c4.417969 0 8-3.582031 8-8v-40h272v40c0 4.417969 3.582031 8 8 8h32c4.417969 0 8-3.582031 8-8v-480c0-4.417969-3.582031-8-8-8zm-344 432v-8h336v8zm96-312v-104h32v104zm-16 0h-32v-104h32zm256 16v8h-336v-8zm0 128h-32v-104h32zm0 144h-176v-104h176zm-208 0v-104h16v104zm-48 0v-104h32v104zm-32 0v-104h16v104zm-48 0v-104h32v104zm0-120v-8h336v8zm240-128v104h-32v-104zm48 0v104h-32v-104zm-132.398438 104 36.398438-39.199219v39.199219zm-11.511718-11.113281-11.730469-10.886719 43.550781-46.886719 11.730469 10.886719zm47.910156-64.671875-11.054688-10.269532c-1.535156-1.484374-3.617187-2.253906-5.746093-2.128906-2.128907.066406-4.144531.984375-5.597657 2.542969l-54.402343 58.609375c-3.003907 3.234375-2.820313 8.296875.417969 11.304688l16.917968 15.726562h-132.535156v-104h192zm144-68.214844h-192v-104h192zm-304-104v104h-32v-104zm-16 464h-16v-32h16zm320 0h-16v-32h16zm0 0" fill="#004fac"/></svg>