<svg height="496pt" viewBox="-144 0 496 496" width="496pt" xmlns="http://www.w3.org/2000/svg"><g fill="#57a4ff"><path d="m168 8h32v120h-32zm0 0"/><path d="m136 8h32v120h-32zm0 0"/><path d="m72 152h128v-24h-192v24zm0 0"/><path d="m88 8h48v120h-48zm0 0"/><path d="m40 152h32v120h-32zm0 0"/><path d="m8 152h32v120h-32zm0 0"/><path d="m72 296h128v-24h-55.320312l-.183594.191406-.207032-.191406h-136.289062v24zm0 0"/><path d="m72 296h48v120h-48zm0 0"/><path d="m8 296h32v120h-32zm0 0"/><path d="m200 416h-192v24h192zm0 0"/><path d="m40 296h32v120h-32zm0 0"/><path d="m120 296h32v120h-32zm0 0"/><path d="m8 440h32v48h-32zm0 0"/><path d="m168 440h32v48h-32zm0 0"/><path d="m144.496094 272.191406.183594-.191406h-.390626zm0 0"/><path d="m175.503906 191.808594-54.449218 58.605468 23.234374 21.585938h.390626l54.265624-58.414062zm0 0"/></g><path d="m200 0h-192c-4.417969 0-8 3.582031-8 8v480c0 4.417969 3.582031 8 8 8h32c4.417969 0 8-3.582031 8-8v-40h112v40c0 4.417969 3.582031 8 8 8h32c4.417969 0 8-3.582031 8-8v-480c0-4.417969-3.582031-8-8-8zm-184 432v-8h176v8zm128-312v-104h16v104zm-16 0h-32v-104h32zm64 16v8h-176v-8zm0 60.214844-11.054688-10.269532c-1.53125-1.484374-3.617187-2.257812-5.746093-2.128906-2.128907.066406-4.144531.984375-5.597657 2.542969l-54.402343 58.609375c-3.003907 3.234375-2.820313 8.296875.417969 11.304688l8.320312 7.726562h-43.9375v-104h112zm0 211.785156h-32v-104h32zm-64 0v-104h16v104zm-48 0v-104h32v104zm-32 0v-104h16v104zm-32 0v-104h16v104zm0-120v-8h127.472656c.335938.085938.679688.152344 1.023438.191406h.304687c.269531-.046875.535157-.113281.800781-.191406h46.398438v8zm48-128v104h-16v-104zm-32 104h-16v-104h16zm100.359375-14 43.550781-46.886719 11.730469 10.886719-43.550781 46.886719zm30.671875 14 28.96875-31.199219v31.199219zm28.96875-144h-16v-104h16zm-112-104v104h-64v-104zm-48 464h-16v-32h16zm160 0h-16v-32h16zm0 0" fill="#004fac"/></svg>