<svg height="496pt" viewBox="0 0 496 496" width="496pt" xmlns="http://www.w3.org/2000/svg"><g fill="#57a4ff"><path d="m8 8h40v120h-40zm0 0"/><path d="m96 8h40v120h-40zm0 0"/><path d="m48 8h48v120h-48zm0 0"/><path d="m216 8h48v120h-48zm0 0"/><path d="m136 8h32v120h-32zm0 0"/><path d="m168 8h48v120h-48zm0 0"/><path d="m216 128h-208v24h480v-24zm0 0"/><path d="m328 152h48v120h-48zm0 0"/><path d="m376 152h56v120h-56zm0 0"/><path d="m280 152h48v120h-48zm0 0"/><path d="m376 272h-368v24h480v-24zm0 0"/><path d="m432 152h56v120h-56zm0 0"/><path d="m152 296h48v120h-48zm0 0"/><path d="m200 296h32v120h-32zm0 0"/><path d="m200 416h-192v24h480v-24zm0 0"/><path d="m120 296h32v120h-32zm0 0"/><path d="m8 440h32v48h-32zm0 0"/><path d="m456 440h32v48h-32zm0 0"/><path d="m201.050781 242.414062 54.449219-58.609374 23.445312 21.78125-54.449218 58.609374zm0 0"/></g><path d="m488 0h-480c-4.417969 0-8 3.582031-8 8v480c0 4.417969 3.582031 8 8 8h32c4.417969 0 8-3.582031 8-8v-40h400v40c0 4.417969 3.582031 8 8 8h32c4.417969 0 8-3.582031 8-8v-480c0-4.417969-3.582031-8-8-8zm-448 432h-24v-8h464v8zm184-312v-104h32v104zm-16 0h-32v-104h32zm-48 0h-16v-104h16zm-32 0h-24v-104h24zm-40 0h-32v-104h32zm392 16v8h-464v-8zm0 128h-40v-104h40zm0 144h-240v-104h240zm-272 0v-104h16v104zm-48 0v-104h32v104zm-32 0v-104h16v104zm-112 0v-104h96v104zm0-120v-8h464v8zm304-128v104h-32v-104zm48 0v104h-32v-104zm56 0v104h-40v-104zm-188.398438 104 36.398438-39.199219v39.199219zm-11.511718-11.113281-11.730469-10.886719 43.550781-46.886719 11.730469 10.886719zm47.910156-64.671875-11.054688-10.269532c-1.53125-1.488281-3.617187-2.257812-5.746093-2.128906-2.128907.066406-4.144531.984375-5.597657 2.542969l-54.402343 58.609375c-3.003907 3.234375-2.820313 8.296875.417969 11.304688l16.917968 15.726562h-196.535156v-104h256zm208-68.214844h-208v-104h208zm-440-104v104h-24v-104zm-8 464h-16v-32h16zm448 0h-16v-32h16zm0 0" fill="#004fac"/></svg>