<svg height="496pt" viewBox="-64 0 496 496" width="496pt" xmlns="http://www.w3.org/2000/svg"><g fill="#57a4ff"><path d="m360 8h-352v144h352zm-32 112h-288v-80h288zm0 0"/><path d="m360 152h-352v144h352zm-32 112h-288v-80h288zm0 0"/><path d="m360 440v-144h-352v144zm-32-32h-288v-80h288zm0 0"/><path d="m24 440h32v48h-32zm0 0"/><path d="m312 440h32v48h-32zm0 0"/></g><path d="m360 0h-352c-4.417969 0-8 3.582031-8 8v432c0 4.417969 3.582031 8 8 8h8v40c0 4.417969 3.582031 8 8 8h32c4.417969 0 8-3.582031 8-8v-40h240v40c0 4.417969 3.582031 8 8 8h32c4.417969 0 8-3.582031 8-8v-40h8c4.417969 0 8-3.582031 8-8v-432c0-4.417969-3.582031-8-8-8zm-344 160h336v128h-336zm0-144h336v128h-336zm32 464h-16v-32h16zm288 0h-16v-32h16zm16-48h-336v-128h336zm0 0" fill="#004fac"/><path d="m40 416h288c4.417969 0 8-3.582031 8-8v-80c0-4.417969-3.582031-8-8-8h-288c-4.417969 0-8 3.582031-8 8v80c0 4.417969 3.582031 8 8 8zm8-80h272v64h-272zm0 0" fill="#004fac"/><path d="m328 176h-288c-4.417969 0-8 3.582031-8 8v80c0 4.417969 3.582031 8 8 8h288c4.417969 0 8-3.582031 8-8v-80c0-4.417969-3.582031-8-8-8zm-8 80h-272v-64h272zm0 0" fill="#004fac"/><path d="m328 32h-288c-4.417969 0-8 3.582031-8 8v80c0 4.417969 3.582031 8 8 8h288c4.417969 0 8-3.582031 8-8v-80c0-4.417969-3.582031-8-8-8zm-8 80h-272v-64h272zm0 0" fill="#004fac"/></svg>