<svg height="496pt" viewBox="0 -40 496 496" width="496pt" xmlns="http://www.w3.org/2000/svg"><path d="m32 152h-24v256h480v-256zm232 144" fill="#57a4ff"/><g fill="#004fac"><path d="m488 144h-21.601562l-213.957032-142.65625c-2.691406-1.792969-6.191406-1.792969-8.882812 0l-213.957032 142.65625h-21.601562c-4.417969 0-8 3.582031-8 8v256c0 4.417969 3.582031 8 8 8h480c4.417969 0 8-3.582031 8-8v-256c0-4.417969-3.582031-8-8-8zm-240-126.398438 189.601562 126.398438h-379.203124zm232 382.398438h-464v-240h464zm0 0"/><path d="m440 320h-176c-4.417969 0-8 3.582031-8 8s3.582031 8 8 8h176c4.417969 0 8-3.582031 8-8s-3.582031-8-8-8zm0 0"/><path d="m440 288h-176c-4.417969 0-8 3.582031-8 8s3.582031 8 8 8h176c4.417969 0 8-3.582031 8-8s-3.582031-8-8-8zm0 0"/><path d="m440 352h-176c-4.417969 0-8 3.582031-8 8s3.582031 8 8 8h176c4.417969 0 8-3.582031 8-8s-3.582031-8-8-8zm0 0"/></g></svg>