<svg height="496pt" viewBox="0 -80 496 496" width="496pt" xmlns="http://www.w3.org/2000/svg"><g fill="#57a4ff"><path d="m104 192h288v-112h56v-40c0-17.671875-14.328125-32-32-32h-336c-17.671875 0-32 14.328125-32 32v40h56zm0 0"/><path d="m104 80h-96v208h96zm0 0"/><path d="m392 80v208h96v-208zm0 0"/><path d="m116.519531 192h-12.519531v96h288v-96zm0 0"/><path d="m40 288h32v40h-32zm0 0"/><path d="m424 288h32v40h-32zm0 0"/></g><path d="m488 72h-32v-32c-.027344-22.082031-17.917969-39.9726562-40-40h-336c-22.082031.0273438-39.972656 17.917969-40 40v32h-32c-4.417969 0-8 3.582031-8 8v208c0 4.417969 3.582031 8 8 8h24v32c0 4.417969 3.582031 8 8 8h32c4.417969 0 8-3.582031 8-8v-32h336v32c0 4.417969 3.582031 8 8 8h32c4.417969 0 8-3.582031 8-8v-32h24c4.417969 0 8-3.582031 8-8v-208c0-4.417969-3.582031-8-8-8zm-432-32c0-13.253906 10.746094-24 24-24h336c13.253906 0 24 10.746094 24 24v32h-48c-4.417969 0-8 3.582031-8 8v104h-272v-104c0-4.417969-3.582031-8-8-8h-48zm-40 48h80v192h-80zm48 232h-16v-24h16zm48-120h272v80h-272zm336 120h-16v-24h16zm32-40h-80v-192h80zm0 0" fill="#004fac"/></svg>