<svg height="496pt" viewBox="-136 0 496 496" width="496pt" xmlns="http://www.w3.org/2000/svg"><g fill="#57a4ff"><path d="m40 352v-344h-32v480h32zm0 0"/><path d="m216 488v-480h-32v480zm0 0"/><path d="m40 64h144v32h-144zm0 0"/><path d="m40 144h144v32h-144zm0 0"/><path d="m40 232h144v32h-144zm0 0"/><path d="m40 320h144v32h-144zm0 0"/><path d="m40 400h144v32h-144zm0 0"/></g><path d="m216 0h-32c-4.417969 0-8 3.582031-8 8v48h-128v-48c0-4.417969-3.582031-8-8-8h-32c-4.417969 0-8 3.582031-8 8v480c0 4.417969 3.582031 8 8 8h32c4.417969 0 8-3.582031 8-8v-48h128v48c0 4.417969 3.582031 8 8 8h32c4.417969 0 8-3.582031 8-8v-480c0-4.417969-3.582031-8-8-8zm-40 256h-128v-16h128zm-128-32v-40h128v40zm128-56h-128v-16h128zm-128 104h128v40h-128zm0 56h128v16h-128zm128-192h-128v-32h128zm-128 224h128v32h-128zm128-288v16h-128v-16zm-144 408h-16v-464h16zm16-56v-16h128v16zm160 56h-16v-464h16zm0 0" fill="#004fac"/></svg>