<svg height="496pt" viewBox="0 -48 496 496" width="496pt" xmlns="http://www.w3.org/2000/svg"><path d="m248 8c-132.558594 0-240 75.199219-240 168s107.441406 168 240 168c22.214844.042969 44.375-2.128906 66.160156-6.480469 6.507813 25.886719 26.800782 46.050781 52.726563 52.390625 25.929687 6.339844 53.238281-2.1875 70.953125-22.148437-1.917969.160156-3.839844.238281-5.839844.238281-29.476562-.003906-55.972656-17.976562-66.878906-45.359375 73.359375-28.71875 122.878906-83.601563 122.878906-146.640625 0-92.800781-107.441406-168-240-168zm0 0" fill="#57a4ff"/><path d="m496 176c0-97.046875-111.246094-176-248-176s-248 78.953125-248 176 111.246094 176 248 176c20.3125.027344 40.585938-1.738281 60.585938-5.28125 9.460937 26.679688 32.316406 46.371094 60.101562 51.785156 27.785156 5.410156 56.359375-4.261718 75.144531-25.441406 2.171875-2.445312 2.632813-5.96875 1.164063-8.894531-1.464844-2.925781-4.566406-4.660157-7.828125-4.382813-1.695313.152344-3.398438.214844-5.167969.214844-23.359375.085938-44.886719-12.632812-56.078125-33.136719 74.292969-31.664062 120.078125-88.878906 120.078125-150.863281zm-133.800781 139.199219c-1.980469.777343-3.570313 2.308593-4.421875 4.261719-.847656 1.953124-.882813 4.160156-.097656 6.140624 10.058593 25.535157 32.578124 44.078126 59.566406 49.054688-17.367188 10.566406-38.726563 12.253906-57.539063 4.542969-18.8125-7.710938-32.839843-23.90625-37.796875-43.625-.886718-3.550781-4.078125-6.046875-7.742187-6.054688-.539063 0-1.074219.050781-1.601563.160157-21.257812 4.246093-42.886718 6.363281-64.566406 6.320312-127.921875 0-232-71.777344-232-160s104.078125-160 232-160 232 71.777344 232 160c0 57.40625-45.144531 110.742188-117.800781 139.199219zm0 0" fill="#004fac"/></svg>