<svg height="496pt" viewBox="0 -4 496 496" width="496pt" xmlns="http://www.w3.org/2000/svg"><path d="m368 368v-272h-240v272c0 35.347656 28.652344 64 64 64h112c35.347656 0 64-28.652344 64-64zm0 0" fill="#57a4ff"/><path d="m192 432h-184v16c0 17.671875 14.328125 32 32 32h416c17.671875 0 32-14.328125 32-32v-16zm0 0" fill="#57a4ff"/><g fill="#004fac"><path d="m488 424h-138.847656c16.96875-13.636719 26.84375-34.230469 26.847656-56v-272c0-4.417969-3.582031-8-8-8h-240c-4.417969 0-8 3.582031-8 8v272c.003906 21.769531 9.878906 42.363281 26.847656 56h-138.847656c-4.417969 0-8 3.582031-8 8v16c.0273438 22.082031 17.917969 39.972656 40 40h416c22.082031-.027344 39.972656-17.917969 40-40v-16c0-4.417969-3.582031-8-8-8zm-352-56v-264h224v264c-.035156 30.914062-25.085938 55.964844-56 56h-112c-30.914062-.035156-55.964844-25.085938-56-56zm344 80c0 13.253906-10.746094 24-24 24h-416c-13.253906 0-24-10.746094-24-24v-8h464zm0 0"/><path d="m243.558594 54.671875c-6.703125 3.261719-11.121094 9.886719-11.558594 17.328125 0 4.417969 3.582031 8 8 8s8-3.582031 8-8c0-.902344 1.3125-1.929688 4.441406-4 6.707032-3.261719 11.128906-9.898438 11.558594-17.34375-.4375-7.441406-4.855469-14.066406-11.558594-17.328125-3.128906-2.089844-4.441406-3.113281-4.441406-4s1.3125-1.914063 4.433594-4c6.710937-3.253906 11.136718-9.882813 11.566406-17.328125 0-4.417969-3.582031-8-8-8s-8 3.582031-8 8c0 .894531-1.3125 1.910156-4.433594 4-6.703125 3.25-11.128906 9.871094-11.566406 17.3125.4375 7.441406 4.855469 14.066406 11.558594 17.328125 3.128906 2.085937 4.441406 3.113281 4.441406 4s-1.3125 1.945313-4.441406 4.03125zm0 0"/><path d="m163.558594 54.671875c-6.703125 3.261719-11.121094 9.886719-11.558594 17.328125 0 4.417969 3.582031 8 8 8s8-3.582031 8-8c0-.902344 1.3125-1.929688 4.441406-4 6.707032-3.261719 11.128906-9.898438 11.558594-17.34375-.4375-7.441406-4.855469-14.066406-11.558594-17.328125-3.128906-2.089844-4.441406-3.113281-4.441406-4s1.3125-1.914063 4.433594-4c6.710937-3.253906 11.136718-9.882813 11.566406-17.328125 0-4.417969-3.582031-8-8-8s-8 3.582031-8 8c0 .894531-1.3125 1.910156-4.433594 4-6.703125 3.25-11.128906 9.871094-11.566406 17.3125.4375 7.441406 4.855469 14.066406 11.558594 17.328125 3.128906 2.085937 4.441406 3.113281 4.441406 4s-1.3125 1.945313-4.441406 4.03125zm0 0"/><path d="m323.558594 54.671875c-6.703125 3.261719-11.121094 9.886719-11.558594 17.328125 0 4.417969 3.582031 8 8 8s8-3.582031 8-8c0-.902344 1.3125-1.929688 4.441406-4 6.707032-3.261719 11.128906-9.898438 11.558594-17.34375-.4375-7.441406-4.855469-14.066406-11.558594-17.328125-3.128906-2.089844-4.441406-3.113281-4.441406-4s1.3125-1.914063 4.433594-4c6.710937-3.253906 11.136718-9.882813 11.566406-17.328125 0-4.417969-3.582031-8-8-8s-8 3.582031-8 8c0 .894531-1.3125 1.910156-4.433594 4-6.703125 3.25-11.128906 9.871094-11.566406 17.3125.4375 7.441406 4.855469 14.066406 11.558594 17.328125 3.128906 2.085937 4.441406 3.113281 4.441406 4s-1.3125 1.945313-4.441406 4.03125zm0 0"/></g></svg>