<svg height="512" viewBox="0 0 64 64" width="512" xmlns="http://www.w3.org/2000/svg"><g id="debit_card" data-name="debit card"><path d="m15 41h10.56a4 4 0 0 1 6.32-4.78l4.91 4.78h2.21a2.006 2.006 0 0 0 2-2v-34a2.006 2.006 0 0 0 -2-2h-24a2.006 2.006 0 0 0 -2 2v34a2.006 2.006 0 0 0 2 2zm9-34h6v6h-6zm-7 20h4v10h-4z" fill="#78b9eb"/><g fill="#1a6fb0"><path d="m55.826 31.621-13.826-8.191v-18.43a3 3 0 0 0 -3-3h-24a3 3 0 0 0 -3 3v34a3 3 0 0 0 3 3h10.027a4.79 4.79 0 0 0 .432.529l7.541 8.84v1.631a9.011 9.011 0 0 0 9 9h18a2 2 0 0 0 2-2v-17.315a12.927 12.927 0 0 0 -6.174-11.064zm-40.826 8.379a1 1 0 0 1 -1-1v-34a1 1 0 0 1 1-1h24a1 1 0 0 1 1 1v34a1 1 0 0 1 -1 1h-1.806l-4.607-4.487a5 5 0 0 0 -8.537 3.537 5.159 5.159 0 0 0 .092.95zm45 20h-18a7.008 7.008 0 0 1 -7-7v-2a1 1 0 0 0 -.239-.649l-7.834-9.178a3.007 3.007 0 0 1 0-4.246 3.071 3.071 0 0 1 4.254.01l13.119 12.779 1.4-1.432-6.474-6.307a2.993 2.993 0 0 0 2.774-2.977v-13.245l12.79 7.577a10.933 10.933 0 0 1 5.21 9.353z"/><path d="m31 13v-6a1 1 0 0 0 -1-1h-6a1 1 0 0 0 -1 1v6a1 1 0 0 0 1 1h6a1 1 0 0 0 1-1zm-2-1h-4v-4h4z"/><path d="m21 26h-4a1 1 0 0 0 -1 1v10a1 1 0 0 0 1 1h4a1 1 0 0 0 1-1v-10a1 1 0 0 0 -1-1zm-1 10h-2v-8h2z"/><path d="m33 6h2v4h-2z"/><path d="m33 12h2v4h-2z"/><path d="m36 6h2v10h-2z"/><path d="m16 6h2v4h-2z"/><path d="m16 12h2v4h-2z"/><path d="m19 6h2v10h-2z"/><path d="m29 16h2v4h-2z"/><path d="m29 22h2v4h-2z"/><path d="m29 28h2v4h-2z"/><path d="m36 36h2v2h-2z"/><path d="m36 32h2v2h-2z"/><path d="m36 28h2v2h-2z"/><path d="m52.843 34.631-1.053 1.7a10.933 10.933 0 0 1 5.21 9.354h2a12.92 12.92 0 0 0 -6.157-11.054z"/></g></g></svg>