<svg height="512" viewBox="0 0 64 64" width="512" xmlns="http://www.w3.org/2000/svg"><g id="documents"><path d="m55 3h-1v6h7a6 6 0 0 0 -6-6z" fill="#78b9eb"/><path d="m53 50h4v7h-4z" fill="#78b9eb"/><path d="m53 43h4v3h-4z" fill="#78b9eb"/><rect fill="#78b9eb" height="12" rx="4" width="20" x="37" y="27"/><rect fill="#78b9eb" height="5" rx="1.5" width="5" x="45" y="52"/><rect fill="#78b9eb" height="5" rx="1.5" width="5" x="45" y="43"/><rect fill="#78b9eb" height="5" rx="1.5" width="5" x="37" y="52"/><rect fill="#78b9eb" height="5" rx="1.5" width="5" x="37" y="43"/><path d="m4.76 59.24a5.944 5.944 0 0 0 4.24 1.76h26a2.006 2.006 0 0 1 -2-2v-4h-30a5.944 5.944 0 0 0 1.76 4.24z" fill="#78b9eb"/><g fill="#1a6fb0"><path d="m59 22h-4v-12h6a1 1 0 0 0 1-1 7.008 7.008 0 0 0 -7-7h-41a5.006 5.006 0 0 0 -5 5v47h-6a1 1 0 0 0 -1 1 7.008 7.008 0 0 0 7 7h50a3 3 0 0 0 3-3v-34a3 3 0 0 0 -3-3zm.9-14h-4.9v-4a5.008 5.008 0 0 1 4.9 4zm-48.9-1a3 3 0 0 1 3-3h39v18h-18a3 3 0 0 0 -3 3v29h-21zm-5.536 51.53a4.9 4.9 0 0 1 -1.364-2.53h27.9v3a2.966 2.966 0 0 0 .184 1h-23.184a4.935 4.935 0 0 1 -3.536-1.47zm54.536.47a1 1 0 0 1 -1 1h-24a1 1 0 0 1 -1-1v-34a1 1 0 0 1 1-1h24a1 1 0 0 1 1 1z"/><path d="m53 26h-12a5.006 5.006 0 0 0 -5 5v4a5.006 5.006 0 0 0 5 5h12a5.006 5.006 0 0 0 5-5v-4a5.006 5.006 0 0 0 -5-5zm3 9a3 3 0 0 1 -3 3h-12a3 3 0 0 1 -3-3v-4a3 3 0 0 1 3-3h12a3 3 0 0 1 3 3z"/><path d="m40.5 42h-2a2.5 2.5 0 0 0 -2.5 2.5v2a2.5 2.5 0 0 0 2.5 2.5h2a2.5 2.5 0 0 0 2.5-2.5v-2a2.5 2.5 0 0 0 -2.5-2.5zm.5 4.5a.5.5 0 0 1 -.5.5h-2a.5.5 0 0 1 -.5-.5v-2a.5.5 0 0 1 .5-.5h2a.5.5 0 0 1 .5.5z"/><path d="m40.5 51h-2a2.5 2.5 0 0 0 -2.5 2.5v2a2.5 2.5 0 0 0 2.5 2.5h2a2.5 2.5 0 0 0 2.5-2.5v-2a2.5 2.5 0 0 0 -2.5-2.5zm.5 4.5a.5.5 0 0 1 -.5.5h-2a.5.5 0 0 1 -.5-.5v-2a.5.5 0 0 1 .5-.5h2a.5.5 0 0 1 .5.5z"/><path d="m48.5 42h-2a2.5 2.5 0 0 0 -2.5 2.5v2a2.5 2.5 0 0 0 2.5 2.5h2a2.5 2.5 0 0 0 2.5-2.5v-2a2.5 2.5 0 0 0 -2.5-2.5zm.5 4.5a.5.5 0 0 1 -.5.5h-2a.5.5 0 0 1 -.5-.5v-2a.5.5 0 0 1 .5-.5h2a.5.5 0 0 1 .5.5z"/><path d="m48.5 51h-2a2.5 2.5 0 0 0 -2.5 2.5v2a2.5 2.5 0 0 0 2.5 2.5h2a2.5 2.5 0 0 0 2.5-2.5v-2a2.5 2.5 0 0 0 -2.5-2.5zm.5 4.5a.5.5 0 0 1 -.5.5h-2a.5.5 0 0 1 -.5-.5v-2a.5.5 0 0 1 .5-.5h2a.5.5 0 0 1 .5.5z"/><path d="m57 49h-4a1 1 0 0 0 -1 1v7a1 1 0 0 0 1 1h4a1 1 0 0 0 1-1v-7a1 1 0 0 0 -1-1zm-1 7h-2v-5h2z"/><path d="m52 29h-2a2 2 0 0 0 -2 2v4a2 2 0 0 0 2 2h2a2 2 0 0 0 2-2v-4a2 2 0 0 0 -2-2zm-2 6v-4h2v4z"/><path d="m13 36h2v2h-2z"/><path d="m17 36h13v2h-13z"/><path d="m13 40h2v2h-2z"/><path d="m17 40h13v2h-13z"/><path d="m13 44h2v2h-2z"/><path d="m17 44h13v2h-13z"/><path d="m13 48h2v2h-2z"/><path d="m17 48h13v2h-13z"/><path d="m13 20h2v2h-2z"/><path d="m17 20h13v2h-13z"/><path d="m25 7h14v2h-14z"/><path d="m13 24h2v2h-2z"/><path d="m17 24h13v2h-13z"/><path d="m13 28h2v2h-2z"/><path d="m17 28h13v2h-13z"/><path d="m13 32h2v2h-2z"/><path d="m17 32h13v2h-13z"/><path d="m13 12h2v2h-2z"/><path d="m17 12h34v2h-34z"/><path d="m13 16h2v2h-2z"/><path d="m17 16h34v2h-34z"/><path d="m57 42h-4a1 1 0 0 0 -1 1v3a1 1 0 0 0 1 1h4a1 1 0 0 0 1-1v-3a1 1 0 0 0 -1-1zm-1 3h-2v-1h2z"/></g></g></svg>