<?xml version="1.0"?>
<svg xmlns="http://www.w3.org/2000/svg" viewBox="0 0 64 64" width="512" height="512"><g id="home"><polygon points="46 15 52 15 32 3 12 15 18 15 46 15" style="fill:#78b9eb"/><path d="M36,31V25a4,4,0,0,0-8,0v6H3l4,8H9V53a2.015,2.015,0,0,0,2,2,2.006,2.006,0,0,0,2-2V39l9-4,7.5,4H53.49c2.55-1.1,4.37-1.87,4.46-1.89V37.1L61,31H36Z" style="fill:#78b9eb"/><path d="M60.718,36.9a3.648,3.648,0,0,0-1.22-.655l2.4-4.794A1,1,0,0,0,61,30H47V16h5a1,1,0,0,0,.515-1.857l-20-12a1,1,0,0,0-1.03,0l-20,12A1,1,0,0,0,12,16h5V30H3a1,1,0,0,0-.895,1.447L5.382,38H3a1,1,0,0,0-1,1V59a1,1,0,0,0,.617.924A.987.987,0,0,0,3,60a1,1,0,0,0,.707-.293L8.615,54.8a2.972,2.972,0,0,0,5.043-.437l17.954,7.56A.985.985,0,0,0,32,62a1,1,0,0,0,.567-.177L60.445,42.6a3.582,3.582,0,0,0,.273-5.7ZM32,4.166,48.39,14H15.61ZM19,16H45V30H37V25a5,5,0,0,0-10,0v5H19ZM35,30H29V25a3,3,0,0,1,6,0ZM4.618,32H59.382l-2.167,4.334c-.545.221-1.648.687-3.925,1.666H29.751l-7.28-3.883a1,1,0,0,0-.877-.031l-7.947,3.532A2.979,2.979,0,0,0,8.184,38H7.618ZM37.471,42.117,33.5,40H48.66c-2.677,1.16-6.152,2.669-10.66,4.633V43A1,1,0,0,0,37.471,42.117ZM4,40H8V52.586l-4,4Zm8,13a1,1,0,0,1-2,0V39a1,1,0,0,1,2,0ZM59.313,40.946l-27.43,18.92L14,52.336V39.65l7.96-3.538L36,43.6V45a1,1,0,0,1-1,1H22v2H35a2.97,2.97,0,0,0,1.921-.715c8.214-3.579,20.515-8.92,21.32-9.218a1.576,1.576,0,0,1,1.2.367A1.544,1.544,0,0,1,60,39.65,1.594,1.594,0,0,1,59.313,40.946Z" style="fill:#1a6fb0"/></g></svg>
