<svg height="512" viewBox="0 0 64 64" width="512" xmlns="http://www.w3.org/2000/svg"><g id="mobile_banking" data-name="mobile banking"><path d="m57 35v18a2.006 2.006 0 0 0 2 2h2v-22h-2a2.006 2.006 0 0 0 -2 2z" fill="#78b9eb"/><path d="m39 43h-14-12-2v4h42v-4h-2z" fill="#78b9eb"/><path d="m11.05 17h41.9l-20.95-14zm23.95-6a2.015 2.015 0 0 1 -2 2h-2a2.006 2.006 0 0 1 -2-2 2.015 2.015 0 0 1 2-2h2a2.006 2.006 0 0 1 2 2z" fill="#78b9eb"/><path d="m48 21h-6v18h6v-12z" fill="#78b9eb"/><path d="m16 21v6 12h6v-18z" fill="#78b9eb"/><g fill="#1a6fb0"><path d="m59 26h-10v-4h2a1 1 0 0 0 1-1v-3h.952a1 1 0 0 0 .556-1.832l-20.952-14a1 1 0 0 0 -1.112 0l-20.952 14a1 1 0 0 0 .556 1.832h.952v3a1 1 0 0 0 1 1h2v4h-10a3 3 0 0 0 -3 3v30a3 3 0 0 0 3 3h54a3 3 0 0 0 3-3v-30a3 3 0 0 0 -3-3zm-35 14v2h-10v-2zm1-18a1 1 0 0 0 1-1v-3h12v3a1 1 0 0 0 1 1h2v16h-2a1 1 0 0 0 -1 1v3h-12v-3a1 1 0 0 0 -1-1h-2v-16zm27 22v2h-40v-2zm-2-2h-10v-2h10zm-3-4h-4v-16h4zm3-18h-10v-2h10zm-18-15.8 17.655 11.8h-35.31zm-18 13.8h10v2h-10zm7 4v16h-4v-16zm38 38h-54a1 1 0 0 1 -1-1v-30a1 1 0 0 1 1-1h10v10h-2a1 1 0 0 0 -1 1v3h-1a1 1 0 0 0 -1 1v4a1 1 0 0 0 1 1h42a1 1 0 0 0 1-1v-4a1 1 0 0 0 -1-1h-1v-3a1 1 0 0 0 -1-1h-2v-10h10a1 1 0 0 1 1 1v3h-1a3 3 0 0 0 -3 3v18a3 3 0 0 0 3 3h1v3a1 1 0 0 1 -1 1zm1-26v20h-1a1 1 0 0 1 -1-1v-18a1 1 0 0 1 1-1z"/><path d="m33 8h-2a3 3 0 0 0 0 6h2a3 3 0 0 0 0-6zm0 4h-2a1 1 0 0 1 0-2h2a1 1 0 0 1 0 2z"/><path d="m31 37h2v-2a2 2 0 0 0 2-2v-2a2 2 0 0 0 -2-2h-2v-2h4v-2h-2v-2h-2v2a2 2 0 0 0 -2 2v2a2 2 0 0 0 2 2h2v2h-4v2h2z"/><path d="m10 50h16v2h-16z"/><path d="m28 50h26v2h-26z"/><path d="m10 54h34v2h-34z"/><path d="m46 54h8v2h-8z"/></g></g></svg>