<svg height="512" viewBox="0 0 64 64" width="512" xmlns="http://www.w3.org/2000/svg"><g id="mobile_payment" data-name="mobile payment"><path d="m54 27h-13v10h13v4l7-9-7-9z" fill="#78b9eb"/><path d="m46 21 5-5-5-5v2h-5v6h5z" fill="#78b9eb"/><path d="m46 53 5-5-5-5v2h-5v6h5z" fill="#78b9eb"/><circle cx="32" cy="51" fill="#78b9eb" r="2"/><path d="m11 7h18a2.006 2.006 0 0 0 2-2v-2h-22v2a2.006 2.006 0 0 0 2 2z" fill="#78b9eb"/><path d="m28.12 42.12a3 3 0 1 0 -2.12.88 2.993 2.993 0 0 0 2.12-.88z" fill="#78b9eb"/><path d="m20.04 13h-.04a9 9 0 0 0 -.04 18h.04a9 9 0 0 0 .04-18z" fill="#78b9eb"/><circle cx="24" cy="51" fill="#78b9eb" r="2"/><circle cx="16" cy="51" fill="#78b9eb" r="2"/><circle cx="8" cy="51" fill="#78b9eb" r="2"/><g fill="#1a6fb0"><path d="m35 2h-30a3 3 0 0 0 -3 3v54a3 3 0 0 0 3 3h30a3 3 0 0 0 3-3v-54a3 3 0 0 0 -3-3zm-25 2h20v1a1 1 0 0 1 -1 1h-18a1 1 0 0 1 -1-1zm26 55a1 1 0 0 1 -1 1h-30a1 1 0 0 1 -1-1v-54a1 1 0 0 1 1-1h3v1a3 3 0 0 0 3 3h18a3 3 0 0 0 3-3v-1h3a1 1 0 0 1 1 1z"/><path d="m61.789 31.386-7-9a1 1 0 0 0 -1.789.614v3h-12a1 1 0 0 0 -1 1v10a1 1 0 0 0 1 1h12v3a1 1 0 0 0 .676.946 1.01 1.01 0 0 0 .324.054 1 1 0 0 0 .789-.386l7-9a1 1 0 0 0 0-1.228zm-6.789 6.699v-1.085a1 1 0 0 0 -1-1h-12v-8h12a1 1 0 0 0 1-1v-1.085l4.733 6.085z"/><path d="m19 29h2v-2a2 2 0 0 0 2-2v-2a2 2 0 0 0 -2-2h-2v-2h4v-2h-2v-2h-2v2a2 2 0 0 0 -2 2v2a2 2 0 0 0 2 2h2v2h-4v2h2z"/><path d="m20 32a10 10 0 1 0 -10-10 10.011 10.011 0 0 0 10 10zm0-18a8 8 0 1 1 -8 8 8.009 8.009 0 0 1 8-8z"/><path d="m46.707 42.293a1 1 0 0 0 -1.707.707v1h-4a1 1 0 0 0 -1 1v6a1 1 0 0 0 1 1h4v1a1 1 0 0 0 1.707.707l5-5a1 1 0 0 0 0-1.414zm.23 8.356a1 1 0 0 0 -.937-.649h-4v-4h4a1 1 0 0 0 .937-.649l2.649 2.649z"/><path d="m41 20h4v1a1 1 0 0 0 1.707.707l5-5a1 1 0 0 0 0-1.414l-5-5a1 1 0 0 0 -1.707.707v1h-4a1 1 0 0 0 -1 1v6a1 1 0 0 0 1 1zm1-6h4a1 1 0 0 0 .937-.649l2.649 2.649-2.649 2.649a1 1 0 0 0 -.937-.649h-4z"/><path d="m26 36h-12a4 4 0 0 0 0 8h12a4 4 0 0 0 0-8zm-14 4a2 2 0 0 1 2-2h8.556a3.966 3.966 0 0 0 -.414 1h-8.142v2h8.142a3.966 3.966 0 0 0 .414 1h-8.556a2 2 0 0 1 -2-2zm14 2a2 2 0 1 1 2-2 2 2 0 0 1 -2 2z"/><path d="m16 48a3 3 0 1 0 3 3 3 3 0 0 0 -3-3zm0 4a1 1 0 1 1 1-1 1 1 0 0 1 -1 1z"/><path d="m24 48a3 3 0 1 0 3 3 3 3 0 0 0 -3-3zm0 4a1 1 0 1 1 1-1 1 1 0 0 1 -1 1z"/><path d="m32 48a3 3 0 1 0 3 3 3 3 0 0 0 -3-3zm0 4a1 1 0 1 1 1-1 1 1 0 0 1 -1 1z"/><path d="m8 48a3 3 0 1 0 3 3 3 3 0 0 0 -3-3zm0 4a1 1 0 1 1 1-1 1 1 0 0 1 -1 1z"/></g></g></svg>