<svg height="512" viewBox="0 0 64 64" width="512" xmlns="http://www.w3.org/2000/svg"><g id="money_bag" data-name="money bag"><g fill="#78b9eb"><path d="m58 21c.52-.65-8.22-6.77-7-10 1.11-2.95 9.72-1.39 10-3 .23-1.34-5.4-4.73-11-4-5.43.7-9.09 5.05-11.11 8.33a.01.01 0 0 0 -.01.01l-.64 1.93a3.034 3.034 0 0 0 -1.24-.27h-10a3.034 3.034 0 0 0 -1.24.27 3 3 0 0 0 -.88 4.85 2.92 2.92 0 0 0 1.02.67 2.873 2.873 0 0 0 1.1.21h10a2.873 2.873 0 0 0 1.1-.21 3 3 0 0 0 1.9-2.79 1.055 1.055 0 0 0 -.02-.25 15.353 15.353 0 0 1 5.02-.75c7.14.16 12.56 5.55 13 5z"/><path d="m39 42h-14a2.015 2.015 0 0 0 -2 2 2.006 2.006 0 0 0 2 2h14a2.015 2.015 0 0 0 2-2 2.006 2.006 0 0 0 -2-2z"/><path d="m40.41 53.41a1.955 1.955 0 0 0 .59-1.41 2.006 2.006 0 0 0 -2-2h-14a2.015 2.015 0 0 0 -2 2 2.006 2.006 0 0 0 2 2h14a1.955 1.955 0 0 0 1.41-.59z"/><path d="m32.05 24h-.05a8 8 0 0 0 -.05 16h.05a8 8 0 0 0 .05-16z"/></g><path d="m32 23a9 9 0 1 0 9 9 9.01 9.01 0 0 0 -9-9zm0 16a7 7 0 1 1 7-7 7.008 7.008 0 0 1 -7 7z" fill="#1a6fb0"/><path d="m22 44a2.981 2.981 0 0 0 .78 2 2.954 2.954 0 0 0 0 4 2.954 2.954 0 0 0 0 4 2.987 2.987 0 0 0 2.22 5h14a2.987 2.987 0 0 0 2.22-5 2.954 2.954 0 0 0 0-4 2.954 2.954 0 0 0 0-4 2.987 2.987 0 0 0 -2.22-5h-14a3 3 0 0 0 -3 3zm18 4a1 1 0 0 1 -1 1h-14a1 1 0 0 1 0-2h14a1 1 0 0 1 1 1zm0 4a1 1 0 0 1 -1 1h-14a1 1 0 0 1 0-2h14a1 1 0 0 1 1 1zm-1 5h-14a1 1 0 0 1 0-2h14a1 1 0 0 1 0 2zm0-14a1 1 0 0 1 0 2h-14a1 1 0 0 1 0-2z" fill="#1a6fb0"/><path d="m33 26h-2v1a2 2 0 0 0 -2 2v2a2 2 0 0 0 2 2h2v2h-4v2h2v1h2v-1a2 2 0 0 0 2-2v-2a2 2 0 0 0 -2-2h-2v-2h4v-2h-2z" fill="#1a6fb0"/><path d="m61.233 6.337c-1.721-1.792-6.627-3.947-11.361-3.329a14.414 14.414 0 0 0 -8.235 4.235l.432-1.3a3.01 3.01 0 0 0 -.414-2.7 2.957 2.957 0 0 0 -2.425-1.243h-14.46a2.957 2.957 0 0 0 -2.425 1.243 3.007 3.007 0 0 0 -.413 2.7l2.634 7.9a3.961 3.961 0 0 0 -.444 5.917c-6.239 4.54-11.122 14.316-11.122 22.65v6.97a12.453 12.453 0 0 0 12.25 12.62h13.5a12.453 12.453 0 0 0 12.25-12.62v-6.97c0-8.334-4.883-18.112-11.122-22.644a3.977 3.977 0 0 0 1.07-2.247 14.268 14.268 0 0 1 4.03-.519c4.7.105 8.669 2.651 10.8 4.019a5.018 5.018 0 0 0 2.187 1.033 1 1 0 0 0 .812-.427c.746-.935-.055-1.7-1.995-3.559-1.761-1.686-5.425-5.193-4.85-6.714.41-1.089 3.446-1.293 5.455-1.428 2.519-.17 4.34-.292 4.594-1.755a2.15 2.15 0 0 0 -.748-1.832zm-24.233 12.663h-10a2 2 0 0 1 0-4h10a2 2 0 0 1 0 4zm-13.171-13.686a1 1 0 0 1 .941-1.314h14.46a.976.976 0 0 1 .8.413.986.986 0 0 1 .14.9l-2.58 7.747a3.958 3.958 0 0 0 -.59-.06h-10a3.958 3.958 0 0 0 -.59.06zm25.171 37.096v6.97a10.452 10.452 0 0 1 -10.25 10.62h-13.5a10.452 10.452 0 0 1 -10.25-10.62v-6.97c0-8.11 4.934-17.649 11.065-21.532a3.96 3.96 0 0 0 .935.122h10a3.96 3.96 0 0 0 .935-.122c6.131 3.883 11.065 13.422 11.065 21.532zm8.256-34.482c-2.966.2-6.328.426-7.192 2.718-.74 1.96.911 4.312 2.894 6.433a19.156 19.156 0 0 0 -7.937-2.079 16.427 16.427 0 0 0 -4.315.513 3.985 3.985 0 0 0 -1.272-1.664l.359-1.076c2-3.218 5.4-7.145 10.336-7.781 4.26-.559 8.525 1.54 9.637 2.677a22.093 22.093 0 0 1 -2.51.259z" fill="#1a6fb0"/></g></svg>