<svg height="512" viewBox="0 0 64 64" width="512" xmlns="http://www.w3.org/2000/svg"><g id="money_grown" data-name="money grown"><g fill="#78b9eb"><path d="m59 45h-14a2.006 2.006 0 0 0 -2 2 2.015 2.015 0 0 0 2 2h14a2.006 2.006 0 0 0 2-2 2.015 2.015 0 0 0 -2-2z"/><path d="m59 53h-14a2.006 2.006 0 0 0 -2 2 2.015 2.015 0 0 0 2 2h14a2.006 2.006 0 0 0 2-2 2.015 2.015 0 0 0 -2-2z"/><path d="m55 37v-5h2l-5-5-5 5h2v5z"/><path d="m39 21h-14a2.015 2.015 0 0 0 -2 2 2.006 2.006 0 0 0 2 2h14a2.015 2.015 0 0 0 2-2 2.006 2.006 0 0 0 -2-2z"/><path d="m39 29h-14a2.015 2.015 0 0 0 -2 2 2.006 2.006 0 0 0 2 2h14a2.015 2.015 0 0 0 2-2 2.006 2.006 0 0 0 -2-2z"/><path d="m39 37h-14a2.015 2.015 0 0 0 -2 2 2.006 2.006 0 0 0 2 2h14a2.015 2.015 0 0 0 2-2 2.006 2.006 0 0 0 -2-2z"/><path d="m39 45h-14a2.015 2.015 0 0 0 -2 2 2.006 2.006 0 0 0 2 2h14a2.015 2.015 0 0 0 2-2 2.006 2.006 0 0 0 -2-2z"/><path d="m39 53h-14a2.015 2.015 0 0 0 -2 2 2.006 2.006 0 0 0 2 2h14a2.015 2.015 0 0 0 2-2 2.006 2.006 0 0 0 -2-2z"/><path d="m24 11a8 8 0 0 0 7.95 8h.05a8 8 0 0 0 .05-16h-.05a8 8 0 0 0 -8 8z"/><path d="m5 33h14a2.015 2.015 0 0 0 2-2 2.006 2.006 0 0 0 -2-2h-14a2.015 2.015 0 0 0 -2 2 2.006 2.006 0 0 0 2 2z"/><path d="m5 41h14a2.015 2.015 0 0 0 2-2 2.006 2.006 0 0 0 -2-2h-14a2.015 2.015 0 0 0 -2 2 2.006 2.006 0 0 0 2 2z"/><path d="m5 49h14a2.015 2.015 0 0 0 2-2 2.006 2.006 0 0 0 -2-2h-14a2.015 2.015 0 0 0 -2 2 2.006 2.006 0 0 0 2 2z"/><path d="m5 57h14a2.015 2.015 0 0 0 2-2 2.006 2.006 0 0 0 -2-2h-14a2.015 2.015 0 0 0 -2 2 2.006 2.006 0 0 0 2 2z"/><path d="m9 25h6v-5h2l-5-5-5 5h2z"/></g><path d="m41 11a9 9 0 1 0 -9 9 9.011 9.011 0 0 0 9-9zm-9 7a7 7 0 1 1 7-7 7.008 7.008 0 0 1 -7 7z" fill="#1a6fb0"/><path d="m33 5h-2v1a2 2 0 0 0 -2 2v2a2 2 0 0 0 2 2h2v2h-4v2h2v1h2v-1a2 2 0 0 0 2-2v-2a2 2 0 0 0 -2-2h-2v-2h4v-2h-2z" fill="#1a6fb0"/><path d="m22 55a2.981 2.981 0 0 0 -.78-2 2.954 2.954 0 0 0 0-4 2.954 2.954 0 0 0 0-4 2.954 2.954 0 0 0 0-4 2.954 2.954 0 0 0 0-4 2.954 2.954 0 0 0 0-4 2.987 2.987 0 0 0 -2.22-5h-14a2.987 2.987 0 0 0 -2.22 5 2.954 2.954 0 0 0 0 4 2.954 2.954 0 0 0 0 4 2.954 2.954 0 0 0 0 4 2.954 2.954 0 0 0 0 4 2.954 2.954 0 0 0 0 4 2.954 2.954 0 0 0 0 4 2.987 2.987 0 0 0 2.22 5h14a2.987 2.987 0 0 0 2.22-5 2.981 2.981 0 0 0 .78-2zm-18 0a1 1 0 0 1 1-1h14a1 1 0 0 1 0 2h-14a1 1 0 0 1 -1-1zm0-4a1 1 0 0 1 1-1h14a1 1 0 0 1 0 2h-14a1 1 0 0 1 -1-1zm0-4a1 1 0 0 1 1-1h14a1 1 0 0 1 0 2h-14a1 1 0 0 1 -1-1zm0-4a1 1 0 0 1 1-1h14a1 1 0 0 1 0 2h-14a1 1 0 0 1 -1-1zm0-4a1 1 0 0 1 1-1h14a1 1 0 0 1 0 2h-14a1 1 0 0 1 -1-1zm0-4a1 1 0 0 1 1-1h14a1 1 0 0 1 0 2h-14a1 1 0 0 1 -1-1zm1-5h14a1 1 0 0 1 0 2h-14a1 1 0 0 1 0-2zm14 30h-14a1 1 0 0 1 0-2h14a1 1 0 0 1 0 2z" fill="#1a6fb0"/><path d="m42 55a2.981 2.981 0 0 0 -.78-2 2.954 2.954 0 0 0 0-4 2.954 2.954 0 0 0 0-4 2.954 2.954 0 0 0 0-4 2.954 2.954 0 0 0 0-4 2.954 2.954 0 0 0 0-4 2.954 2.954 0 0 0 0-4 2.954 2.954 0 0 0 0-4 2.987 2.987 0 0 0 -2.22-5h-14a2.987 2.987 0 0 0 -2.22 5 2.954 2.954 0 0 0 0 4 2.954 2.954 0 0 0 0 4 2.954 2.954 0 0 0 0 4 2.954 2.954 0 0 0 0 4 2.954 2.954 0 0 0 0 4 2.954 2.954 0 0 0 0 4 2.954 2.954 0 0 0 0 4 2.954 2.954 0 0 0 0 4 2.987 2.987 0 0 0 2.22 5h14a2.987 2.987 0 0 0 2.22-5 2.981 2.981 0 0 0 .78-2zm-18 0a1 1 0 0 1 1-1h14a1 1 0 0 1 0 2h-14a1 1 0 0 1 -1-1zm0-4a1 1 0 0 1 1-1h14a1 1 0 0 1 0 2h-14a1 1 0 0 1 -1-1zm0-4a1 1 0 0 1 1-1h14a1 1 0 0 1 0 2h-14a1 1 0 0 1 -1-1zm0-4a1 1 0 0 1 1-1h14a1 1 0 0 1 0 2h-14a1 1 0 0 1 -1-1zm0-4a1 1 0 0 1 1-1h14a1 1 0 0 1 0 2h-14a1 1 0 0 1 -1-1zm0-4a1 1 0 0 1 1-1h14a1 1 0 0 1 0 2h-14a1 1 0 0 1 -1-1zm0-4a1 1 0 0 1 1-1h14a1 1 0 0 1 0 2h-14a1 1 0 0 1 -1-1zm0-4a1 1 0 0 1 1-1h14a1 1 0 0 1 0 2h-14a1 1 0 0 1 -1-1zm1-5h14a1 1 0 0 1 0 2h-14a1 1 0 0 1 0-2zm14 38h-14a1 1 0 0 1 0-2h14a1 1 0 0 1 0 2z" fill="#1a6fb0"/><path d="m7 21h1v4a1 1 0 0 0 1 1h6a1 1 0 0 0 1-1v-4h1a1 1 0 0 0 .707-1.707l-5-5a1 1 0 0 0 -1.414 0l-5 5a1 1 0 0 0 .707 1.707zm5-4.586 2.649 2.649a1 1 0 0 0 -.649.937v4h-4v-4a1 1 0 0 0 -.649-.937z" fill="#1a6fb0"/><path d="m47 33h1v4a1 1 0 0 0 1 1h6a1 1 0 0 0 1-1v-4h1a1 1 0 0 0 .707-1.707l-5-5a1 1 0 0 0 -1.414 0l-5 5a1 1 0 0 0 .707 1.707zm5-4.586 2.649 2.649a1 1 0 0 0 -.649.937v4h-4v-4a1 1 0 0 0 -.649-.937z" fill="#1a6fb0"/><path d="m61.22 45a2.987 2.987 0 0 0 -2.22-5h-14a2.987 2.987 0 0 0 -2.22 5 2.954 2.954 0 0 0 0 4 2.954 2.954 0 0 0 0 4 2.954 2.954 0 0 0 0 4 2.987 2.987 0 0 0 2.22 5h14a2.987 2.987 0 0 0 2.22-5 2.954 2.954 0 0 0 0-4 2.954 2.954 0 0 0 0-4 2.954 2.954 0 0 0 0-4zm-1.22 6a1 1 0 0 1 -1 1h-14a1 1 0 0 1 0-2h14a1 1 0 0 1 1 1zm0 4a1 1 0 0 1 -1 1h-14a1 1 0 0 1 0-2h14a1 1 0 0 1 1 1zm-15-7a1 1 0 0 1 0-2h14a1 1 0 0 1 0 2zm0-6h14a1 1 0 0 1 0 2h-14a1 1 0 0 1 0-2zm14 18h-14a1 1 0 0 1 0-2h14a1 1 0 0 1 0 2z" fill="#1a6fb0"/></g></svg>