<svg height="512" viewBox="0 0 64 64" width="512" xmlns="http://www.w3.org/2000/svg"><g id="money"><path d="m56 7h-48a5 5 0 0 1 -5 5v14a5 5 0 0 1 5 5h-5l4 8h2v14a2.015 2.015 0 0 0 2 2 2.006 2.006 0 0 0 2-2v-14l9-4 7.5 4h23.99c2.55-1.1 4.37-1.87 4.46-1.89v-.01l3.05-6.1h-5a5 5 0 0 1 5-5v-14a5 5 0 0 1 -5-5zm-46 15a3 3 0 1 1 3-3 3 3 0 0 1 -3 3zm22 5h-.05a8 8 0 0 1 .05-16h.05a8 8 0 0 1 -.05 16zm22-5a3 3 0 1 1 3-3 3 3 0 0 1 -3 3z" fill="#78b9eb"/><g fill="#1a6fb0"><path d="m62 31v-24a1 1 0 0 0 -1-1h-58a1 1 0 0 0 -1 1v24a1 1 0 0 0 .1.447l3.282 6.553h-2.382a1 1 0 0 0 -1 1v20a1 1 0 0 0 .617.924.987.987 0 0 0 .383.076 1 1 0 0 0 .707-.293l4.908-4.907a2.972 2.972 0 0 0 5.043-.437l17.954 7.56a1 1 0 0 0 .956-.1l27.877-19.223a3.582 3.582 0 0 0 .273-5.7 3.632 3.632 0 0 0 -1.221-.654l2.4-4.795a1 1 0 0 0 .103-.451zm-53.09-1a6.008 6.008 0 0 0 -4.91-4.91v-12.18a6.008 6.008 0 0 0 4.91-4.91h46.18a6.008 6.008 0 0 0 4.91 4.91v12.18a6.008 6.008 0 0 0 -4.91 4.91zm-2.052 0h-2.858v-2.858a4 4 0 0 1 2.858 2.858zm53.142-2.858v2.858h-2.858a4 4 0 0 1 2.858-2.858zm0-16.284a4 4 0 0 1 -2.858-2.858h2.858zm-53.142-2.858a4 4 0 0 1 -2.858 2.858v-2.858zm-2.24 24h54.764l-2.167 4.334c-.545.222-1.649.687-3.926 1.666h-23.538l-7.28-3.883a1 1 0 0 0 -.877-.031l-7.947 3.532a2.979 2.979 0 0 0 -5.463.382h-.566zm32.853 10.117-3.971-2.117h15.159c-2.677 1.16-6.151 2.669-10.659 4.633v-1.633a1 1 0 0 0 -.529-.883zm-33.471-2.117h4v12.586l-4 4zm8 13a1 1 0 0 1 -2 0v-14a1 1 0 0 1 2 0zm47.312-12.054-27.429 18.92-17.883-7.53v-12.686l7.96-3.538 14.04 7.488v1.4a1 1 0 0 1 -1 1h-13v2h13a2.97 2.97 0 0 0 1.921-.715c8.214-3.579 20.516-8.921 21.32-9.218a1.582 1.582 0 0 1 1.2.367 1.544 1.544 0 0 1 .559 1.216 1.592 1.592 0 0 1 -.688 1.296z"/><path d="m10 15a4 4 0 1 0 4 4 4 4 0 0 0 -4-4zm0 6a2 2 0 1 1 2-2 2 2 0 0 1 -2 2z"/><path d="m58 19a4 4 0 1 0 -4 4 4 4 0 0 0 4-4zm-6 0a2 2 0 1 1 2 2 2 2 0 0 1 -2-2z"/><path d="m32 10a9 9 0 1 0 9 9 9.01 9.01 0 0 0 -9-9zm0 16a7 7 0 1 1 7-7 7.008 7.008 0 0 1 -7 7z"/><path d="m33 13h-2v1a2 2 0 0 0 -2 2v2a2 2 0 0 0 2 2h2v2h-4v2h2v1h2v-1a2 2 0 0 0 2-2v-2a2 2 0 0 0 -2-2h-2v-2h4v-2h-2z"/></g></g></svg>