<svg height="512" viewBox="0 0 64 64" width="512" xmlns="http://www.w3.org/2000/svg"><g id="pay"><path d="m31.21 35.69a3.322 3.322 0 0 1 .67.53l9.12 8.88v-37.1a5 5 0 0 1 -5-5h-14a5 5 0 0 1 -5 5v40a5 5 0 0 1 5 5h12v-2l-2.66-3.12a3 3 0 1 1 -3.83-4.49l-1.29-1.51a4.008 4.008 0 0 1 0-5.66 3.355 3.355 0 0 1 .63-.51 8.005 8.005 0 1 1 4.36-.02zm-2.21-22.69a3 3 0 1 1 3-3 3 3 0 0 1 -3 3z" fill="#78b9eb"/><g fill="#1a6fb0"><path d="m55.826 31.621-13.826-8.191v-20.43a1 1 0 0 0 -1-1h-24a1 1 0 0 0 -1 1v50a1 1 0 0 0 1 1h16.059a9.01 9.01 0 0 0 8.941 8h18a2 2 0 0 0 2-2v-17.315a12.929 12.929 0 0 0 -6.174-11.064zm-22.732 4.386a8.994 8.994 0 1 0 -8.049.076 4.964 4.964 0 0 0 .414 6.446l.629.737a3.994 3.994 0 0 0 2.912 6.734 3.973 3.973 0 0 0 2.231-.7l1.769 2.068v.632h-10.09a6.008 6.008 0 0 0 -4.91-4.91v-38.18a6.008 6.008 0 0 0 4.91-4.91h12.18a6.008 6.008 0 0 0 4.91 4.91v33.823zm-6.319-1.388a7 7 0 1 1 4.508-.022 4.832 4.832 0 0 0 -4.508.022zm.632 10.193 2.519 2.953a1.985 1.985 0 0 1 -2.519-2.953zm12.593-37.954a4 4 0 0 1 -2.858-2.858h2.858zm-19.142-2.858a4 4 0 0 1 -2.858 2.858v-2.858zm-2.858 45.142a4 4 0 0 1 2.858 2.858h-2.858zm42 10.858h-18a7.008 7.008 0 0 1 -7-7v-2a1 1 0 0 0 -.239-.649l-7.834-9.178a3.008 3.008 0 0 1 0-4.246 3.071 3.071 0 0 1 4.255.01l13.118 12.78 1.4-1.434-3.7-3.6v-18.928l12.79 7.577a10.933 10.933 0 0 1 5.21 9.353z"/><path d="m52.843 34.631-1.053 1.7a10.933 10.933 0 0 1 5.21 9.354h2a12.922 12.922 0 0 0 -6.157-11.054z"/><path d="m29 6a4 4 0 1 0 4 4 4 4 0 0 0 -4-4zm0 6a2 2 0 1 1 2-2 2 2 0 0 1 -2 2z"/><path d="m30 29v-2h2v4h2v-2h1v-2h-1a2 2 0 0 0 -2-2h-2a2 2 0 0 0 -2 2v2h-2v-4h-2v2h-1v2h1a2 2 0 0 0 2 2h2a2 2 0 0 0 2-2z"/><path d="m48 19h2v2h-2z"/><path d="m48 9h2v8h-2z"/><path d="m44 12h2v2h-2z"/><path d="m44 2h2v8h-2z"/><path d="m8 35h2v2h-2z"/><path d="m8 39h2v8h-2z"/><path d="m12 42h2v2h-2z"/><path d="m12 46h2v8h-2z"/></g></g></svg>