<svg height="512" viewBox="0 0 64 64" width="512" xmlns="http://www.w3.org/2000/svg"><g id="payment_machine" data-name="payment machine"><path d="m21 35h4v4h-4z" fill="#78b9eb"/><path d="m30 35h4v4h-4z" fill="#78b9eb"/><path d="m39 35h4v4h-4z" fill="#78b9eb"/><path d="m39 27h4v4h-4z" fill="#78b9eb"/><path d="m30 27h4v4h-4z" fill="#78b9eb"/><path d="m21 27h4v4h-4z" fill="#78b9eb"/><path d="m39 45h-4v-2h-15v16a2.006 2.006 0 0 0 2 2h20a2.006 2.006 0 0 0 2-2v-16h-5zm0 12h-4v-8h4z" fill="#78b9eb"/><rect fill="#78b9eb" height="16" rx="4" width="28" x="18" y="7"/><g fill="#1a6fb0"><path d="m24 52h2v2h-2z"/><path d="m24 56h2v2h-2z"/><path d="m27 52h2v6h-2z"/><path d="m24 47h2v2h-2z"/><path d="m39 48h-4a1 1 0 0 0 -1 1v8a1 1 0 0 0 1 1h4a1 1 0 0 0 1-1v-8a1 1 0 0 0 -1-1zm-1 8h-2v-6h2z"/><path d="m42 24a5.006 5.006 0 0 0 5-5v-8a5.006 5.006 0 0 0 -5-5h-20a5.006 5.006 0 0 0 -5 5v8a5.006 5.006 0 0 0 5 5zm-23-5v-8a3 3 0 0 1 3-3h20a3 3 0 0 1 3 3v8a3 3 0 0 1 -3 3h-20a3 3 0 0 1 -3-3z"/><path d="m25 26h-4a1 1 0 0 0 -1 1v4a1 1 0 0 0 1 1h4a1 1 0 0 0 1-1v-4a1 1 0 0 0 -1-1zm-1 4h-2v-2h2z"/><path d="m34 26h-4a1 1 0 0 0 -1 1v4a1 1 0 0 0 1 1h4a1 1 0 0 0 1-1v-4a1 1 0 0 0 -1-1zm-1 4h-2v-2h2z"/><path d="m43 26h-4a1 1 0 0 0 -1 1v4a1 1 0 0 0 1 1h4a1 1 0 0 0 1-1v-4a1 1 0 0 0 -1-1zm-1 4h-2v-2h2z"/><path d="m25 34h-4a1 1 0 0 0 -1 1v4a1 1 0 0 0 1 1h4a1 1 0 0 0 1-1v-4a1 1 0 0 0 -1-1zm-1 4h-2v-2h2z"/><path d="m34 34h-4a1 1 0 0 0 -1 1v4a1 1 0 0 0 1 1h4a1 1 0 0 0 1-1v-4a1 1 0 0 0 -1-1zm-1 4h-2v-2h2z"/><path d="m44 35a1 1 0 0 0 -1-1h-4a1 1 0 0 0 -1 1v4a1 1 0 0 0 1 1h4a1 1 0 0 0 1-1zm-2 3h-2v-2h2z"/><path d="m35 20h2a2 2 0 0 0 2-2v-4a2 2 0 0 0 -2-2h-2a2 2 0 0 0 -2 2v4a2 2 0 0 0 2 2zm0-6h2v4h-2z"/><path d="m27 20h2a2 2 0 0 0 2-2v-4a2 2 0 0 0 -2-2h-2a2 2 0 0 0 -2 2v4a2 2 0 0 0 2 2zm0-6h2v4h-2z"/><path d="m48 50a1 1 0 0 0 1-.9l2-20.1v-24a3 3 0 0 0 -3-3h-32a3 3 0 0 0 -3 3l.005 24.1 2 20a1 1 0 0 0 .995.9h3v9a3 3 0 0 0 3 3h20a3 3 0 0 0 3-3v-9zm-29-7v5h-2.095l-1.905-19v-24a1 1 0 0 1 1-1h32a1 1 0 0 1 1 1l.005 23.9-1.905 19.1h-2.1v-5a1 1 0 0 0 -1-1h-24a1 1 0 0 0 -1 1zm24 16a1 1 0 0 1 -1 1h-20a1 1 0 0 1 -1-1v-15h3v1h2v-1h1v5h2v-5h5v1a1 1 0 0 0 1 1h4a1 1 0 0 0 1-1v-1h3z"/><path d="m15 54h2v2h-2z"/><path d="m15 58h2v4h-2z"/><path d="m11 43h2v2h-2z"/><path d="m11 47h2v8h-2z"/><path d="m47 54h2v2h-2z"/><path d="m47 58h2v4h-2z"/><path d="m51 43h2v2h-2z"/><path d="m51 47h2v8h-2z"/><path d="m41 18h2v2h-2z"/></g></g></svg>