<svg height="512" viewBox="0 0 64 64" width="512" xmlns="http://www.w3.org/2000/svg"><g id="safebox"><circle cx="17" cy="47" fill="#78b9eb" r="3"/><path d="m42 55h-5v-20a2.006 2.006 0 0 0 -2-2h-16v-6h-8v6h-6a2.006 2.006 0 0 0 -2 2v24a2.006 2.006 0 0 0 2 2h56v-6zm-9 2h-26v-3h2a2.015 2.015 0 0 0 2-2 2.006 2.006 0 0 0 -2-2h-2v-6h2a2.015 2.015 0 0 0 2-2 2.006 2.006 0 0 0 -2-2h-2v-3h26z" fill="#78b9eb"/><path d="m22 21h20 14 5l-29-18-29 18h5z" fill="#78b9eb"/><path d="m45 27h8v22h-8z" fill="#78b9eb"/><g fill="#1a6fb0"><path d="m56 28a1 1 0 0 0 1-1v-1h4a1 1 0 0 0 1-1v-4h-.007a.994.994 0 0 0 -.466-.85l-29-18a1 1 0 0 0 -1.054 0l-29 18a.994.994 0 0 0 -.466.85h-.007v4a1 1 0 0 0 1 1h4v1a1 1 0 0 0 1 1h2v4h-5a3 3 0 0 0 -3 3v24a3 3 0 0 0 3 3h56a1 1 0 0 0 1-1v-6a1 1 0 0 0 -1-1h-4v-5a1 1 0 0 0 -1-1h-2v-20zm-13-2v-4h12v4zm-1 22a1 1 0 0 0 -1 1v5h-3v-19a3 3 0 0 0 -3-3h-15v-4h2a1 1 0 0 0 1-1v-1h18v1a1 1 0 0 0 1 1h2v20zm-1-26v2h-18v-2zm16 2v-2h3v2zm-25-19.823 25.492 15.823h-50.984zm-28 19.823v-2h3v2zm5-2h12v4h-12zm3 6h6v4h-6zm-8 21v-4h2v4zm5 2a1 1 0 0 1 0 2h-5v-2zm-1 4h1a3 3 0 0 0 0-6h-1v-4h1a3 3 0 0 0 0-6h-1v-1h24v18h-24zm1-14a1 1 0 0 1 0 2h-5v-2zm-4 19a1 1 0 0 1 -1-1v-4h2v2a1 1 0 0 0 1 1h26a1 1 0 0 0 1-1v-20a1 1 0 0 0 -1-1h-26a1 1 0 0 0 -1 1v2h-2v-4a1 1 0 0 1 1-1h30a1 1 0 0 1 1 1v24a1 1 0 0 1 -1 1zm55 0h-22.184a2.966 2.966 0 0 0 .184-1v-3h22zm-5-6h-12v-4h12zm-3-6h-6v-20h6z"/><path d="m17 43a4 4 0 1 0 4 4 4 4 0 0 0 -4-4zm0 6a2 2 0 1 1 2-2 2 2 0 0 1 -2 2z"/><path d="m28 46h2v2h-2z"/><path d="m25 46h2v2h-2z"/><path d="m22 46h2v2h-2z"/><path d="m28 49h2v2h-2z"/><path d="m25 49h2v2h-2z"/><path d="m22 49h2v2h-2z"/><path d="m28 43h2v2h-2z"/><path d="m25 43h2v2h-2z"/><path d="m22 43h2v2h-2z"/></g></g></svg>