<svg height="512" viewBox="0 0 64 64" width="512" xmlns="http://www.w3.org/2000/svg"><g id="savings"><path d="m21 61a2.006 2.006 0 0 0 2-2v-2h14v2a2.006 2.006 0 0 0 2 2h2a2.006 2.006 0 0 0 2-2v-2.14a15.992 15.992 0 0 0 -2-31.86h-19c0-.01-2.12-5.71-6.03-7v8.63h.02a16.009 16.009 0 0 0 -8.7 11.37h-2.29a2.006 2.006 0 0 0 -2 2v2a2.006 2.006 0 0 0 2 2h2.29a16.013 16.013 0 0 0 9.71 11.83v3.17a2.006 2.006 0 0 0 2 2z" fill="#78b9eb"/><g fill="#1a6fb0"><path d="m59 38a2.957 2.957 0 0 0 -1.239.276 17.011 17.011 0 0 0 -16.761-14.276h-18.35c-.789-1.877-2.912-5.81-6.367-6.95a1 1 0 0 0 -1.313.95v8.024a17.1 17.1 0 0 0 -8.486 10.976h-1.484a3 3 0 0 0 -3 3v2a3 3 0 0 0 3 3h1.483a16.907 16.907 0 0 0 9.517 11.486v2.514a3 3 0 0 0 3 3h2a3 3 0 0 0 3-3v-1h12v1a3 3 0 0 0 3 3h2a3 3 0 0 0 3-3v-1.278a17.013 17.013 0 0 0 14-16.722 1 1 0 0 1 2 0v6h2v-6a3 3 0 0 0 -3-3zm-16.124 17.87a1 1 0 0 0 -.876.992v2.138a1 1 0 0 1 -1 1h-2a1 1 0 0 1 -1-1v-2a1 1 0 0 0 -1-1h-14a1 1 0 0 0 -1 1v2a1 1 0 0 1 -1 1h-2a1 1 0 0 1 -1-1v-3.174a1 1 0 0 0 -.625-.927 14.925 14.925 0 0 1 -9.1-11.086 1 1 0 0 0 -.984-.813h-2.291a1 1 0 0 1 -1-1v-2a1 1 0 0 1 1-1h2.291a1 1 0 0 0 .982-.813 15.073 15.073 0 0 1 8.154-10.664.988.988 0 0 0 .543-1.031v-6.877c2.521 1.737 3.991 5.468 4.083 5.707a1 1 0 0 0 .947.678h19a14.994 14.994 0 0 1 1.876 29.87z"/><path d="m18 32a4 4 0 0 0 -4 4h2a2 2 0 0 1 4 0h2a4 4 0 0 0 -4-4z"/><path d="m25 28h14v2h-14z"/><path d="m51 19h2v-2a2 2 0 0 0 2-2v-2a2 2 0 0 0 -2-2h-2v-2h4v-2h-2v-2h-2v2a2 2 0 0 0 -2 2v2a2 2 0 0 0 2 2h2v2h-4v2h2z"/><path d="m52 22a10 10 0 1 0 -10-10 10.011 10.011 0 0 0 10 10zm0-18a8 8 0 1 1 -8 8 8.009 8.009 0 0 1 8-8z"/><path d="m31 20h2v2h-2z"/><path d="m38 10h2v2h-2z"/><path d="m33 12h3v-2h-4a1 1 0 0 0 -1 1v7h2z"/></g></g></svg>