<svg height="512" viewBox="0 0 64 64" width="512" xmlns="http://www.w3.org/2000/svg"><g id="scholarship"><g fill="#78b9eb"><rect height="6" rx="2" width="26" x="35" y="55"/><rect height="6" rx="2" width="26" x="35" y="43"/><path d="m52 31v-7.03l-12.75 7.03z"/><path d="m31.96 28h.04a9 9 0 0 0 .04-18h-.04a9 9 0 0 0 -.04 18z"/><rect height="6" rx="2" width="26" x="3" y="49"/><rect height="6" rx="2" width="26" x="3" y="37"/><path d="m12 23.97v7.03h12.75z"/></g><path d="m59 42h-22a3 3 0 0 0 -3 3v2a2.981 2.981 0 0 0 .78 2 2.981 2.981 0 0 0 -.78 2v2a2.981 2.981 0 0 0 .78 2 2.981 2.981 0 0 0 -.78 2v2a3 3 0 0 0 3 3h22a3 3 0 0 0 3-3v-2a2.981 2.981 0 0 0 -.78-2 2.981 2.981 0 0 0 .78-2v-2a2.981 2.981 0 0 0 -.78-2 2.981 2.981 0 0 0 .78-2v-2a3 3 0 0 0 -3-3zm-23 3a1 1 0 0 1 1-1h22a1 1 0 0 1 1 1v2a1 1 0 0 1 -1 1h-22a1 1 0 0 1 -1-1zm24 6v2a1 1 0 0 1 -1 1h-22a1 1 0 0 1 -1-1v-2a1 1 0 0 1 1-1h22a1 1 0 0 1 1 1zm0 8a1 1 0 0 1 -1 1h-22a1 1 0 0 1 -1-1v-2a1 1 0 0 1 1-1h22a1 1 0 0 1 1 1z" fill="#1a6fb0"/><path d="m27 36h-22a3 3 0 0 0 -3 3v2a2.981 2.981 0 0 0 .78 2 2.981 2.981 0 0 0 -.78 2v2a2.981 2.981 0 0 0 .78 2 2.981 2.981 0 0 0 -.78 2v2a2.981 2.981 0 0 0 .78 2 2.981 2.981 0 0 0 -.78 2v2a3 3 0 0 0 3 3h22a3 3 0 0 0 3-3v-2a2.981 2.981 0 0 0 -.78-2 2.981 2.981 0 0 0 .78-2v-2a2.981 2.981 0 0 0 -.78-2 2.981 2.981 0 0 0 .78-2v-2a2.981 2.981 0 0 0 -.78-2 2.981 2.981 0 0 0 .78-2v-2a3 3 0 0 0 -3-3zm-23 3a1 1 0 0 1 1-1h22a1 1 0 0 1 1 1v2a1 1 0 0 1 -1 1h-22a1 1 0 0 1 -1-1zm24 6v2a1 1 0 0 1 -1 1h-22a1 1 0 0 1 -1-1v-2a1 1 0 0 1 1-1h22a1 1 0 0 1 1 1zm0 6v2a1 1 0 0 1 -1 1h-22a1 1 0 0 1 -1-1v-2a1 1 0 0 1 1-1h22a1 1 0 0 1 1 1zm0 8a1 1 0 0 1 -1 1h-22a1 1 0 0 1 -1-1v-2a1 1 0 0 1 1-1h22a1 1 0 0 1 1 1z" fill="#1a6fb0"/><path d="m52 32a1 1 0 0 0 1-1v-6.444l4-2.207v4.318l-2.8 3.733a1 1 0 0 0 .8 1.6h6a1 1 0 0 0 .8-1.6l-2.8-3.733v-5.421l2.483-1.371a1 1 0 0 0 0-1.75l-29-16a.994.994 0 0 0 -.966 0l-29 16a1 1 0 0 0 0 1.75l8.483 4.681v6.444a1 1 0 0 0 1 1h12.492l7.025 3.875a1 1 0 0 0 .966 0l7.025-3.875zm5-2 1-1.333 1 1.333zm-6 0h-7.867l7.867-4.341zm-38 0v-4.341l7.867 4.341zm19 3.858-26.93-14.858 26.93-14.858 26.93 14.858z" fill="#1a6fb0"/><path d="m33 12h-2v2a2 2 0 0 0 -2 2v2a2 2 0 0 0 2 2h2v2h-4v2h2v2h2v-2a2 2 0 0 0 2-2v-2a2 2 0 0 0 -2-2h-2v-2h4v-2h-2z" fill="#1a6fb0"/><path d="m32 9a10 10 0 1 0 10 10 10.011 10.011 0 0 0 -10-10zm0 18a8 8 0 1 1 8-8 8.009 8.009 0 0 1 -8 8z" fill="#1a6fb0"/></g></svg>