<svg height="512" viewBox="0 0 64 64" width="512" xmlns="http://www.w3.org/2000/svg"><g id="wallet"><path d="m35.05 33.05a7 7 0 0 0 4.95 11.95h21v-4h-17a3 3 0 0 1 0-6h17v-4h-21a6.958 6.958 0 0 0 -4.95 2.05z" fill="#78b9eb"/><path d="m51 7a7.9 7.9 0 0 0 -3.75.94h-.01a7.972 7.972 0 0 0 -4.24 7.06 7.851 7.851 0 0 0 1.08 4h12.92a3.572 3.572 0 0 1 .87.1 8 8 0 0 0 -6.87-12.1z" fill="#78b9eb"/><path d="m34 11.25a8.239 8.239 0 0 0 -2-.25 8 8 0 0 0 -8 8h16a8.006 8.006 0 0 0 -6-7.75z" fill="#78b9eb"/><g fill="#1a6fb0"><path d="m59.263 18.567a8.989 8.989 0 0 0 -12.351-11.575l-12.936 3.234a8.906 8.906 0 0 0 -7.837 1.959l-23.382 5.845v.018a.986.986 0 0 0 -.757.952v34a5.006 5.006 0 0 0 5 5h50a5.006 5.006 0 0 0 5-5v-30a4.986 4.986 0 0 0 -2.737-4.433zm-1.263-3.567a7.417 7.417 0 0 1 -1 3h-3v-2a2 2 0 0 0 -2-2h-2v-2h4v-2h-2v-1h-2v1a2 2 0 0 0 -2 2v2a2 2 0 0 0 2 2h2v2h-7.3a6.9 6.9 0 0 1 -.7-3 7 7 0 0 1 14 0zm-14.391-5.121a8.854 8.854 0 0 0 -1.074 8.121h-1.594a9 9 0 0 0 -3.931-6.472zm-11.609 2.121a7.006 7.006 0 0 1 6.92 6h-7.92v-2h4v-2h-2v-1h-2v1a2 2 0 0 0 -2 2v2h-3.92a7.006 7.006 0 0 1 6.92-6zm-20.879 6 12.942-3.236a8.938 8.938 0 0 0 -1 3.236zm45.879 38h-50a3 3 0 0 1 -3-3v-33h53a3 3 0 0 1 3 3v7h-20a8 8 0 0 0 0 16h20v7a3 3 0 0 1 -3 3zm-13-22a4 4 0 0 0 0 8h16v2h-20a6 6 0 0 1 0-12h20v2zm16 2v4h-16a2 2 0 0 1 0-4z"/><path d="m36 37h2v2h-2z"/><path d="m56 22h2v2h-2z"/><path d="m52 22h2v2h-2z"/><path d="m48 22h2v2h-2z"/><path d="m44 22h2v2h-2z"/><path d="m40 22h2v2h-2z"/><path d="m36 22h2v2h-2z"/><path d="m32 22h2v2h-2z"/><path d="m28 22h2v2h-2z"/><path d="m24 22h2v2h-2z"/><path d="m20 22h2v2h-2z"/><path d="m16 22h2v2h-2z"/><path d="m12 22h2v2h-2z"/><path d="m52 52h2v2h-2z"/><path d="m48 52h2v2h-2z"/><path d="m44 52h2v2h-2z"/><path d="m40 52h2v2h-2z"/><path d="m36 52h2v2h-2z"/><path d="m32 52h2v2h-2z"/><path d="m28 52h2v2h-2z"/><path d="m24 52h2v2h-2z"/><path d="m20 52h2v2h-2z"/><path d="m16 52h2v2h-2z"/><path d="m12 52h2v2h-2z"/><path d="m6 27h2v2h-2z"/><path d="m6 31h2v2h-2z"/><path d="m6 35h2v2h-2z"/><path d="m6 39h2v2h-2z"/><path d="m6 43h2v2h-2z"/><path d="m6 47h2v2h-2z"/><path d="m56 52h2v2h-2z"/><path d="m8 51h-2v2a1 1 0 0 0 1 1h3v-2h-2z"/><path d="m6 23v2h2v-1h2v-2h-3a1 1 0 0 0 -1 1z"/></g></g></svg>