<svg height="512" viewBox="0 0 64 64" width="512" xmlns="http://www.w3.org/2000/svg"><g id="atm"><path d="m20 23a2.006 2.006 0 0 0 -2 2v34a2.006 2.006 0 0 0 2 2h24a2.006 2.006 0 0 0 2-2v-34a2.006 2.006 0 0 0 -2-2zm6 34h-4v-10h4zm9-24h-6v-6h6z" fill="#78b9eb"/><path d="m9 15h46a3.993 3.993 0 0 1 2.38-3.65l-1.05-2.35-1.33-3h-17a6 6 0 0 1 -12 0h-17l-1.33 3-1.05 2.35a3.993 3.993 0 0 1 2.38 3.65z" fill="#78b9eb"/><g fill="#1a6fb0"><path d="m35 26h-6a1 1 0 0 0 -1 1v6a1 1 0 0 0 1 1h6a1 1 0 0 0 1-1v-6a1 1 0 0 0 -1-1zm-1 6h-4v-4h4z"/><path d="m26 46h-4a1 1 0 0 0 -1 1v10a1 1 0 0 0 1 1h4a1 1 0 0 0 1-1v-10a1 1 0 0 0 -1-1zm-1 10h-2v-8h2z"/><path d="m38 26h2v4h-2z"/><path d="m38 32h2v4h-2z"/><path d="m41 26h2v10h-2z"/><path d="m21 26h2v4h-2z"/><path d="m21 32h2v4h-2z"/><path d="m24 26h2v10h-2z"/><path d="m34 36h2v4h-2z"/><path d="m34 42h2v4h-2z"/><path d="m34 48h2v4h-2z"/><path d="m41 56h2v2h-2z"/><path d="m41 52h2v2h-2z"/><path d="m41 48h2v2h-2z"/><path d="m51 18h-38a5 5 0 0 0 0 10h4v31a3 3 0 0 0 3 3h24a3 3 0 0 0 3-3v-31h4a5 5 0 0 0 0-10zm-6 41a1 1 0 0 1 -1 1h-24a1 1 0 0 1 -1-1v-34a1 1 0 0 1 1-1h24a1 1 0 0 1 1 1zm8.128-33.882a3.018 3.018 0 0 1 -2.128.882h-4v-1a3 3 0 0 0 -3-3h-24a3 3 0 0 0 -3 3v1h-4a3 3 0 1 1 0-6h38a3 3 0 0 1 2.128 5.118z"/><path d="m61 2h-58a1 1 0 0 0 -1 1v6a1 1 0 0 0 1 1h3.128l-2.042 4.594a1 1 0 0 0 .914 1.406h54a1 1 0 0 0 .914-1.406l-2.042-4.594h3.128a1 1 0 0 0 1-1v-6a1 1 0 0 0 -1-1zm-35.92 5a6.991 6.991 0 0 0 13.84 0h15.43l1.75 3.946a4.988 4.988 0 0 0 -1.986 3.054h-44.228a4.988 4.988 0 0 0 -1.986-3.054l1.75-3.946zm2.02 0h9.8a5 5 0 0 1 -9.8 0zm-20.043 5.833a2.991 2.991 0 0 1 .763 1.167h-1.281zm49.123 1.167a2.991 2.991 0 0 1 .763-1.167l.518 1.167zm3.82-6h-3.017l-1.069-2.406a1 1 0 0 0 -.914-.594h-46a1 1 0 0 0 -.914.594l-1.069 2.406h-3.017v-4h56z"/></g></g></svg>