<svg height="512" viewBox="0 0 64 64" width="512" xmlns="http://www.w3.org/2000/svg"><g id="cash"><path d="m45.69 48.47a1.812 1.812 0 0 1 1.32.57l1.97 1.98.02-.02h1.03a.965.965 0 0 0 .97-.97v-26.06a.965.965 0 0 0 -.97-.97h-12.06a.965.965 0 0 0 -.97.97v26.06a.965.965 0 0 0 .97.97h5.95a1.954 1.954 0 0 1 .45-1.96 1.812 1.812 0 0 1 1.32-.57z" fill="#78b9eb"/><path d="m13 20v20.03a.965.965 0 0 0 .97.97h12.06a.965.965 0 0 0 .97-.97v-26.06a.965.965 0 0 0 -.97-.97h-5.95a1.954 1.954 0 0 1 -.45 1.96 1.813 1.813 0 0 1 -2.64 0l-1.97-1.98-.02.02h-1.03a.965.965 0 0 0 -.97.97z" fill="#78b9eb"/><g fill="#1a6fb0"><path d="m58.887 46.39a1 1 0 0 0 -.137-.073l-6.75-2.97v-19.377a1.973 1.973 0 0 0 -1.97-1.97h-12.06a1.973 1.973 0 0 0 -1.97 1.97v26.06a1.973 1.973 0 0 0 1.97 1.97h5.309a2.626 2.626 0 0 0 .319.406l3.402 4.126v.468a5.006 5.006 0 0 0 5 5h9a1 1 0 0 0 1-1v-9a6.572 6.572 0 0 0 -3.113-5.61zm-20.917-22.39 12.03-.03v20.03l.03 6h-.655l-1.646-1.658a2.893 2.893 0 0 0 -4.079 0 2.953 2.953 0 0 0 -.791 1.663l-4.859.025zm22.03 36h-8a3 3 0 0 1 -3-3v-.828a1 1 0 0 0 -.229-.636l-3.683-4.462a.985.985 0 0 1 0-1.342.829.829 0 0 1 1.213.01l6.122 6.17 1.42-1.41-2.781-2.8a1.963 1.963 0 0 0 .938-1.672v-4.5l5.871 2.582a4.538 4.538 0 0 1 2.129 3.888z"/><path d="m56.707 48.293-1.414 1.414.924.924a2.655 2.655 0 0 1 .783 1.89v1.479h2v-1.479a4.641 4.641 0 0 0 -1.369-3.3z"/><path d="m43 42h2v-1a2 2 0 0 0 2-2v-2a2 2 0 0 0 -2-2h-2v-2h4v-2h-2v-1h-2v1a2 2 0 0 0 -2 2v2a2 2 0 0 0 2 2h2v2h-4v2h2z"/><path d="m12 40.03a1.973 1.973 0 0 0 1.97 1.97h12.06a1.973 1.973 0 0 0 1.97-1.97v-26.06a1.973 1.973 0 0 0 -1.97-1.97h-5.309a2.626 2.626 0 0 0 -.319-.406l-3.402-4.126v-.468a5.006 5.006 0 0 0 -5-5h-9a1 1 0 0 0 -1 1v9a6.572 6.572 0 0 0 3.113 5.61 1 1 0 0 0 .137.073l6.75 2.97zm14.03-.03-12.03.03v-20.03l-.03-6h.655l1.646 1.658a2.893 2.893 0 0 0 4.079 0 2.953 2.953 0 0 0 .791-1.658l4.859-.03zm-19.901-24.115a4.538 4.538 0 0 1 -2.129-3.885v-8h8a3 3 0 0 1 3 3v.828a1 1 0 0 0 .229.636l3.683 4.462a.985.985 0 0 1 0 1.342.829.829 0 0 1 -1.213-.01l-6.122-6.17-1.42 1.412 2.781 2.8a1.963 1.963 0 0 0 -.938 1.67v4.5z"/><path d="m54 25h2v2h-2z"/><path d="m54 15h2v8h-2z"/><path d="m50 18h2v2h-2z"/><path d="m50 8h2v8h-2z"/><path d="m12 44h2v2h-2z"/><path d="m12 48h2v8h-2z"/><path d="m8 37h2v2h-2z"/><path d="m8 41h2v8h-2z"/><path d="m7 11.479v-1.479h-2v1.479a4.641 4.641 0 0 0 1.369 3.3l.924.924 1.414-1.414-.924-.924a2.655 2.655 0 0 1 -.783-1.886z"/><path d="m21 22h-2v1a2 2 0 0 0 -2 2v2a2 2 0 0 0 2 2h2v2h-4v2h2v1h2v-1a2 2 0 0 0 2-2v-2a2 2 0 0 0 -2-2h-2v-2h4v-2h-2z"/><path d="m36.761 15.971a13.759 13.759 0 0 1 6.526 3.73l1.426-1.4a15.675 15.675 0 0 0 -14.95-4.271l.474 1.944a13.806 13.806 0 0 1 6.524-.003z"/><path d="m27.239 48.029a13.759 13.759 0 0 1 -6.526-3.73l-1.426 1.4a15.71 15.71 0 0 0 14.95 4.271l-.474-1.944a13.793 13.793 0 0 1 -6.524.003z"/></g></g></svg>