<svg height="512" viewBox="0 0 64 64" width="512" xmlns="http://www.w3.org/2000/svg"><g fill="#78b9eb"><path d="m15 50a3 3 0 0 1 -3 3h-6a3 3 0 0 1 0-6h6a3 3 0 0 1 3 3z"/><path d="m12 35a3 3 0 0 1 0 6h-6a3 3 0 0 1 0-6z"/><path d="m12 23a3 3 0 0 1 0 6h-6a3 3 0 0 1 0-6z"/><path d="m12 11a3 3 0 0 1 0 6h-6a3 3 0 0 1 0-6z"/><path d="m51 5v54a2.055 2.055 0 0 1 -2.1 2h-29.9v-58h29.9a2.055 2.055 0 0 1 2.1 2zm-4 14v-10h-24v10z"/><path d="m61 26v1h-6v-1a3 3 0 0 1 6 0z"/><path d="m61 31v23.29l-.32.71h-5.36l-.32-.71v-23.29z"/></g><path d="m48.9 2h-35.7a5.109 5.109 0 0 0 -5.2 5v3h-2a4 4 0 0 0 0 8h2v4h-2a4 4 0 0 0 0 8h2v4h-2a4 4 0 0 0 0 8h2v4h-2a4 4 0 0 0 0 8h2v3a5.109 5.109 0 0 0 5.2 5h35.7a3.055 3.055 0 0 0 3.1-3v-54a3.055 3.055 0 0 0 -3.1-3zm-44.9 12a2 2 0 0 1 2-2h6a2 2 0 0 1 0 4h-6a2 2 0 0 1 -2-2zm0 12a2 2 0 0 1 2-2h6a2 2 0 0 1 0 4h-6a2 2 0 0 1 -2-2zm0 12a2 2 0 0 1 2-2h6a2 2 0 0 1 0 4h-6a2 2 0 0 1 -2-2zm0 12a2 2 0 0 1 2-2h6a2 2 0 0 1 0 4h-6a2 2 0 0 1 -2-2zm6 7v-3h2a4 4 0 0 0 0-8h-2v-4h2a4 4 0 0 0 0-8h-2v-4h2a4 4 0 0 0 0-8h-2v-4h2a4 4 0 0 0 0-8h-2v-3a3.109 3.109 0 0 1 3.2-3h4.8v56h-4.8a3.109 3.109 0 0 1 -3.2-3zm40 2a1.055 1.055 0 0 1 -1.1 1h-28.9v-56h28.9a1.055 1.055 0 0 1 1.1 1z" fill="#006df0"/><path d="m58 22a4 4 0 0 0 -4 4v28.294a1 1 0 0 0 .087.408l3 6.706a1 1 0 0 0 1.826 0l3-6.706a1 1 0 0 0 .087-.408v-28.294a4 4 0 0 0 -4-4zm0 2a2 2 0 0 1 2 2h-4a2 2 0 0 1 2-2zm-2 30v-22h4v22zm0-24v-2h4v2zm2 28.551-1.141-2.551h2.282z" fill="#006df0"/><path d="m47 8h-24a1 1 0 0 0 -1 1v10a1 1 0 0 0 1 1h24a1 1 0 0 0 1-1v-10a1 1 0 0 0 -1-1zm-1 10h-22v-8h22z" fill="#006df0"/></svg>