<svg height="512" viewBox="0 0 64 64" width="512" xmlns="http://www.w3.org/2000/svg"><g fill="#78b9eb"><path d="m41 58v3h-32a5.47 5.47 0 0 1 -1-.09v-2.91z"/><path d="m41 49v3h-33v-2.91a5.47 5.47 0 0 1 1-.09z"/><path d="m8 58v2.91a5.991 5.991 0 0 1 -3.24-10.15 5.832 5.832 0 0 1 3.24-1.67z"/><path d="m43 46v3h-32a5.47 5.47 0 0 1 -1-.09v-2.91z"/><path d="m43 37v3h-33v-2.91a5.47 5.47 0 0 1 1-.09z"/><path d="m10 46v2.91a5.991 5.991 0 0 1 -3.24-10.15 5.832 5.832 0 0 1 3.24-1.67z"/><path d="m47 53h14v8h-14z"/><path d="m61 11v38h-14v-38zm-4 10a3 3 0 1 0 -3 3 3 3 0 0 0 3-3z"/><path d="m25 13h-4a4 4 0 0 1 -4-4h4a4 4 0 0 1 4 4z"/><path d="m37 25a12 12 0 0 1 -24 0c0-6.63 5.37-9 12-9s12 2.37 12 9z"/></g><path d="m31.9 36a12.99 12.99 0 0 0 6.1-11c0-6.184-4.257-9.695-12-9.973v-4.027a3 3 0 0 1 3-3h2v-2h-2a4.993 4.993 0 0 0 -4.679 3.29 4.964 4.964 0 0 0 -3.321-1.29h-4a1 1 0 0 0 -1 1 5.006 5.006 0 0 0 5 5h3v1.027c-7.743.278-12 3.789-12 9.973a12.99 12.99 0 0 0 6.1 11h-7.1a7 7 0 0 0 -4.4 12.434 7 7 0 0 0 2.4 13.566h34v-2h-1v-10h3v-2h-1v-10h1v-2zm-10.9-24a3.006 3.006 0 0 1 -2.829-2h2.829a3.006 3.006 0 0 1 2.829 2zm-7 13c0-6.612 5.982-8 11-8s11 1.388 11 8a11 11 0 0 1 -22 0zm28 20h-31v-4h31zm-36-2a5 5 0 0 1 3-4.576v9.152a5 5 0 0 1 -3-4.576zm34 14h-31v-4h31zm-36-2a5 5 0 0 1 3-4.576v9.152a5 5 0 0 1 -3-4.576zm5 5v-1h31v1zm31-9h-31v-1h31zm1-3h-30v-1h31v1zm1-9h-31v-1h31z" fill="#006df0"/><path d="m61 10h-14a1 1 0 0 0 -1 1v50a1 1 0 0 0 1 1h14a1 1 0 0 0 1-1v-50a1 1 0 0 0 -1-1zm-1 2v36h-12v-36zm0 40h-12v-2h12zm-12 8v-6h12v6z" fill="#006df0"/><path d="m54 25a4 4 0 1 0 -4-4 4 4 0 0 0 4 4zm0-6a2 2 0 1 1 -2 2 2 2 0 0 1 2-2z" fill="#006df0"/><path d="m16 25h2c0-1.2 0-4 7-4v-2c-9 0-9 4.516-9 6z" fill="#006df0"/></svg>