<svg height="512" viewBox="0 0 64 64" width="512" xmlns="http://www.w3.org/2000/svg"><path d="m16 51h38v3h-38z" fill="#78b9eb"/><path d="m16 58h38v3h-38z" fill="#78b9eb"/><path d="m16 51v10h-1a5 5 0 0 1 0-10z" fill="#78b9eb"/><path d="m16 3v48h-1a5 5 0 0 0 -5 5v-48a5 5 0 0 1 5-5z" fill="#78b9eb"/><path d="m42.18 46h-14.36a2 2 0 0 1 -1.89-2.66l3.78-10.78a7.277 7.277 0 0 0 1.95.24c3.34 0 3.34-1.6 6.67-1.6a7.493 7.493 0 0 1 1.54.14l4.2 12a2 2 0 0 1 -1.89 2.66z" fill="#78b9eb"/><g fill="#006df0"><path d="m42 10h2v2h-2z"/><path d="m42 14h2v2h-2z"/><path d="m44 12h2v2h-2z"/><path d="m40 12h2v2h-2z"/><path d="m26 10h2v2h-2z"/><path d="m26 14h2v2h-2z"/><path d="m28 12h2v2h-2z"/><path d="m24 12h2v2h-2z"/><path d="m34 6h2v2h-2z"/><path d="m34 10h2v2h-2z"/><path d="m36 8h2v2h-2z"/><path d="m32 8h2v2h-2z"/><path d="m54 2h-39a6.006 6.006 0 0 0 -6 6v48a6.006 6.006 0 0 0 6 6h39a1 1 0 0 0 1-1v-3a1 1 0 0 0 -1-1v-2a1 1 0 0 0 1-1v-51a1 1 0 0 0 -1-1zm-1 51h-36v-1h36zm-38-49v46a5.969 5.969 0 0 0 -4 1.54v-43.54a4 4 0 0 1 4-4zm-4 52a4 4 0 0 1 4-4v8a4 4 0 0 1 -4-4zm42 4h-36v-1h36zm-1-3h-35v-2h35zm1-7h-36v-46h36z"/><path d="m39 25.83v-7.83a1 1 0 0 0 -1-1h-6a1 1 0 0 0 -1 1v7.83l-6.013 17.179a3 3 0 0 0 2.832 3.991h14.362a3 3 0 0 0 2.832-3.991zm-6.056.5a1.014 1.014 0 0 0 .056-.33v-7h4v7a1.014 1.014 0 0 0 .056.331l1.355 3.869c-.028 0-.052 0-.081 0a7.627 7.627 0 0 0 -3.762.9 5.729 5.729 0 0 1 -2.908.7c-.22 0-.417-.019-.618-.035zm10.056 18.249a.986.986 0 0 1 -.815.421h-14.366a1 1 0 0 1 -.943-1.33l3.488-9.97a8.975 8.975 0 0 0 1.3.1 7.656 7.656 0 0 0 3.773-.9 5.7 5.7 0 0 1 2.9-.7c.29 0 .55.016.794.04l4 11.43a.984.984 0 0 1 -.131.909z"/></g></svg>