<svg height="512" viewBox="0 0 64 64" width="512" xmlns="http://www.w3.org/2000/svg"><g fill="#78b9eb"><path d="m50 10v12h-30v-12h4v8l5-4 5 4v-8z"/><path d="m54 58v3h-38v-3h37z"/><path d="m54 51v3h-1-37v-3z"/><path d="m16 58v3h-1a5 5 0 0 1 0-10h1z"/><path d="m15 51a5 5 0 0 0 -5 5v-48a5 5 0 0 1 5-5h1v48z"/></g><path d="m19 27h32v2h-32z" fill="#006df0"/><path d="m19 33h32v2h-32z" fill="#006df0"/><path d="m54 2h-39a6.006 6.006 0 0 0 -6 6v48a6.006 6.006 0 0 0 6 6h39a1 1 0 0 0 1-1v-3a1 1 0 0 0 -1-1v-2a1 1 0 0 0 1-1v-51a1 1 0 0 0 -1-1zm-30.433 16.9a1 1 0 0 0 1.058-.12l4.375-3.499 4.375 3.5a1 1 0 0 0 1.625-.781v-7h14v10h-28v-10h2v7a1 1 0 0 0 .567.9zm9.433-14.9v11.919l-3.375-2.7a1 1 0 0 0 -1.25 0l-3.375 2.7v-11.919zm20 49h-36v-1h36zm-38-49v46a5.969 5.969 0 0 0 -4 1.54v-43.54a4 4 0 0 1 4-4zm-4 52a4 4 0 0 1 4-4v8a4 4 0 0 1 -4-4zm42 4h-36v-1h36zm-1-3h-35v-2h35zm1-7h-36v-46h6v5h-3a1 1 0 0 0 -1 1v12a1 1 0 0 0 1 1h30a1 1 0 0 0 1-1v-12a1 1 0 0 0 -1-1h-15v-5h18z" fill="#006df0"/></svg>