<svg height="512" viewBox="0 0 64 64" width="512" xmlns="http://www.w3.org/2000/svg"><g fill="#78b9eb"><path d="m36 45v4h-4a4 4 0 0 1 4-4z"/><path d="m36 53h22v4a2.006 2.006 0 0 1 -2 2h-18a2.006 2.006 0 0 1 -2-2z"/><path d="m58 25v2h-22v-2a2.006 2.006 0 0 1 2-2h18a1.275 1.275 0 0 1 .2.01 2.006 2.006 0 0 1 1.8 1.99z"/><path d="m32 49h-29v-40h4v36h21a4 4 0 0 1 4 4z"/><path d="m23 5v15l-5-4-5 4v-15z"/><path d="m61 9v40h-3v-24a1.98 1.98 0 0 0 -1-1.72v-14.28z"/></g><path d="m61 8h-3v-3a1 1 0 0 0 -1-1h-21a4.982 4.982 0 0 0 -4 2.031 4.982 4.982 0 0 0 -4-2.031h-21a1 1 0 0 0 -1 1v3h-3a1 1 0 0 0 -1 1v40a1 1 0 0 0 1 1h32v7a3 3 0 0 0 3 3h18a3 3 0 0 0 3-3v-7h2a1 1 0 0 0 1-1v-40a1 1 0 0 0 -1-1zm-4 44h-20v-24h20zm-20-26v-1a1 1 0 0 1 1-1h18a1 1 0 0 1 1 1v1zm-1-20h20v16h-18a3 3 0 0 0 -3 3v19.1a4.954 4.954 0 0 0 -2 .925v-36.025a3 3 0 0 1 3-3zm-14 0v11.919l-3.375-2.7a1 1 0 0 0 -1.25 0l-3.375 2.7v-11.919zm-14 0h4v14a1 1 0 0 0 1.625.781l4.375-3.501 4.375 3.5a1 1 0 0 0 1.625-.78v-14h4a3 3 0 0 1 3 3v36.026a4.948 4.948 0 0 0 -3-1.026h-20zm-4 4h2v35a1 1 0 0 0 1 1h21a3 3 0 0 1 2.816 2h-26.816zm29.184 38a3 3 0 0 1 1.816-1.816v1.816zm22.816 10h-18a1 1 0 0 1 -1-1v-3h20v3a1 1 0 0 1 -1 1zm4-10h-1v-23a2.985 2.985 0 0 0 -1-2.22v-12.78h2z" fill="#006df0"/><path d="m46 55h2v2h-2z" fill="#006df0"/></svg>