<svg height="512" viewBox="0 0 64 64" width="512" xmlns="http://www.w3.org/2000/svg"><path d="m33.86 14.06a10 10 0 0 0 -3.2 18.94h8.68a10 10 0 0 0 -5.48-18.94zm-.86 11.94h-4v-5h4zm8 0h-4v-5h4z" fill="#78b9eb"/><path d="m39 37v2a4 4 0 0 1 -8 0v-2z" fill="#78b9eb"/><path d="m16 58h38v3h-38z" fill="#78b9eb"/><path d="m16 3v48h-1a5 5 0 0 0 -5 5v-48a5 5 0 0 1 5-5z" fill="#78b9eb"/><path d="m16 51h38v3h-38z" fill="#78b9eb"/><path d="m16 51v10h-1a5 5 0 0 1 0-10z" fill="#78b9eb"/><g fill="#006df0"><path d="m54 2h-39a6.006 6.006 0 0 0 -6 6v48a6.006 6.006 0 0 0 6 6h39a1 1 0 0 0 1-1v-3a1 1 0 0 0 -1-1v-2a1 1 0 0 0 1-1v-51a1 1 0 0 0 -1-1zm-1 51h-36v-1h36zm-38-49v46a5.969 5.969 0 0 0 -4 1.54v-43.54a4 4 0 0 1 4-4zm-4 52a4 4 0 0 1 4-4v8a4 4 0 0 1 -4-4zm42 4h-36v-1h36zm-1-3h-35v-2h35zm1-7h-36v-46h36z"/><path d="m34 9h2v2h-2z"/><path d="m27 10.876h2v2h-2z" transform="matrix(.866 -.5 .5 .866 -2.186 15.592)"/><path d="m21.876 16h2v2h-2z" transform="matrix(.5 -.866 .866 .5 -3.285 28.31)"/><path d="m20 23h2v2h-2z"/><path d="m21.876 30h2v2h-2z" transform="matrix(.866 -.5 .5 .866 -12.434 15.588)"/><path d="m46.124 30h2v2h-2z" transform="matrix(.5 -.866 .866 .5 -3.285 56.309)"/><path d="m48 23h2v2h-2z"/><path d="m46.124 16h2v2h-2z" transform="matrix(.866 -.5 .5 .866 -2.187 25.835)"/><path d="m41 10.876h2v2h-2z" transform="matrix(.5 -.866 .866 .5 10.718 42.314)"/><path d="m42.335 15.8a11 11 0 0 0 -18.228 6.641 10.94 10.94 0 0 0 5.893 11.359v5.2a5 5 0 0 0 10 0v-5.206a11 11 0 0 0 2.335-17.994zm-7.335 26.2a3 3 0 0 1 -3-3v-1h6v1a3 3 0 0 1 -3 3zm3-6h-6v-2h6zm-6-11h-2v-3h2zm4 7h-2v-5h2zm3.066 0h-1.066v-5h3a1 1 0 0 0 1-1v-5a1 1 0 0 0 -1-1h-4a1 1 0 0 0 -1 1v4h-2v-4a1 1 0 0 0 -1-1h-4a1 1 0 0 0 -1 1v5a1 1 0 0 0 1 1h3v5h-1.1a8.994 8.994 0 0 1 3.074-16.942 9.415 9.415 0 0 1 1.038-.058 8.9 8.9 0 0 1 5.988 2.292 8.973 8.973 0 0 1 -1.934 14.708zm-1.066-7v-3h2v3z"/></g></svg>