<svg height="512" viewBox="0 0 64 64" width="512" xmlns="http://www.w3.org/2000/svg"><g fill="#78b9eb"><path d="m31 24v7a2.006 2.006 0 0 1 -2 2h-10a2.006 2.006 0 0 1 -2-2v-13h14z"/><path d="m8 58v2.91a5.991 5.991 0 0 1 -3.24-10.15 5.832 5.832 0 0 1 3.24-1.67z"/><path d="m41 61h-32a5.47 5.47 0 0 1 -1-.09v-2.91h33z"/><path d="m11 49h30v3h-33v-2.91a5.47 5.47 0 0 1 1-.09z"/><path d="m10 46v2.91a5.991 5.991 0 0 1 -3.24-10.15 5.832 5.832 0 0 1 3.24-1.67z"/><path d="m43 46v3h-32a5.47 5.47 0 0 1 -1-.09v-2.91z"/><path d="m43 40h-33v-2.91a5.47 5.47 0 0 1 1-.09h32z"/><path d="m47 53h14v8h-14z"/><path d="m47 11h14v7h-14z"/><path d="m47 22h14v27h-14z"/></g><path d="m11 36a7 7 0 0 0 -4.4 12.434 7 7 0 0 0 2.4 13.566h34v-2h-1v-10h3v-2h-1v-10h1v-2zm31 9h-31v-4h31zm-36-2a5 5 0 0 1 3-4.576v9.152a5 5 0 0 1 -3-4.576zm34 14h-31v-4h31zm-36-2a5 5 0 0 1 3-4.576v9.152a5 5 0 0 1 -3-4.576zm5 5v-1h31v1zm31-9h-31v-1h31zm1-3h-30v-1h31v1zm1-9h-31v-1h31z" fill="#006df0"/><path d="m61 10h-14a1 1 0 0 0 -1 1v50a1 1 0 0 0 1 1h14a1 1 0 0 0 1-1v-50a1 1 0 0 0 -1-1zm-1 42h-12v-2h12zm-12-4v-25h12v25zm0-29h12v2h-12zm12-7v5h-12v-5zm-12 48v-6h12v6z" fill="#006df0"/><path d="m19 34h10a3 3 0 0 0 3-3v-6h1a3 3 0 0 0 3-3v-4a3 3 0 0 0 -3-3h-1v-1a1 1 0 0 0 -1-1h-14a1 1 0 0 0 -1 1v17a3 3 0 0 0 3 3zm10-2h-10a1 1 0 0 1 -1-1v-12h12v12a1 1 0 0 1 -1 1zm4-15a1 1 0 0 1 1 1v4a1 1 0 0 1 -1 1h-1v-6zm-3-2v2h-12v-2z" fill="#006df0"/><path d="m22 10a3 3 0 0 0 3-3v-1h-2v1a1 1 0 0 1 -1 1 3 3 0 0 0 -3 3h2a1 1 0 0 1 1-1z" fill="#006df0"/><path d="m27 11a1 1 0 0 1 1-1 3 3 0 0 0 3-3v-1h-2v1a1 1 0 0 1 -1 1 3 3 0 0 0 -3 3z" fill="#006df0"/></svg>