<svg height="512" viewBox="0 0 64 64" width="512" xmlns="http://www.w3.org/2000/svg"><g fill="#78b9eb"><path d="m44 13h5a9 9 0 0 1 -9 9h-5a9 9 0 0 1 9-9z"/><path d="m26 13a9 9 0 0 1 9 9h-5a9 9 0 0 1 -9-9z"/><path d="m43 32-1 12h-14l-1-12z"/><path d="m15 51a5 5 0 0 0 -5 5v-48a5 5 0 0 1 5-5h1v48z"/><path d="m16 58v3h-1a5 5 0 0 1 0-10h1z"/><path d="m54 51v3h-1-37v-3z"/><path d="m54 58v3h-38v-3h37z"/></g><path d="m54 2h-39a6.006 6.006 0 0 0 -6 6v48a6.006 6.006 0 0 0 6 6h39a1 1 0 0 0 1-1v-3a1 1 0 0 0 -1-1v-2a1 1 0 0 0 1-1v-51a1 1 0 0 0 -1-1zm-1 51h-36v-1h36zm-38-49v46a5.969 5.969 0 0 0 -4 1.54v-43.54a4 4 0 0 1 4-4zm-4 52a4 4 0 0 1 4-4v8a4 4 0 0 1 -4-4zm42 4h-36v-1h36zm-1-3h-35v-2h35zm1-7h-36v-46h36z" fill="#006df0"/><path d="m49 12h-5a10 10 0 0 0 -9 5.67 10 10 0 0 0 -9-5.67h-5a1 1 0 0 0 -1 1 10.011 10.011 0 0 0 10 10h4v4h-9a1 1 0 0 0 -1 1v4a1 1 0 0 0 1 1h1.08l.92 11.083a1 1 0 0 0 1 .917h14a1 1 0 0 0 1-.917l.92-11.083h1.08a1 1 0 0 0 1-1v-4a1 1 0 0 0 -1-1h-9v-4h4a10.011 10.011 0 0 0 10-10 1 1 0 0 0 -1-1zm-7.92 31h-12.16l-.833-10h13.826zm2.92-12h-18v-2h18zm-14-10a8.013 8.013 0 0 1 -7.938-7h3.938a8.011 8.011 0 0 1 7.937 7zm10 0h-3.938a8.013 8.013 0 0 1 7.938-7h3.937a8.011 8.011 0 0 1 -7.937 7z" fill="#006df0"/></svg>