<svg height="512" viewBox="0 0 64 64" width="512" xmlns="http://www.w3.org/2000/svg"><g id="book-education-knowledge-2" data-name="book-education-knowledge"><g fill="#78b9eb"><path d="m35 10h20v8h-20z"/><path d="m61 47v3h-20-12v-3h31z"/><path d="m61 40v3h-1-31v-3z"/><path d="m41 57v3h-32v-3h31z"/><path d="m41 50v3h-1-31v-3h19 1z"/><path d="m9 57v3h-1a5 5 0 0 1 0-10h1z"/><path d="m8 50a5 5 0 0 0 -5 5v-36a5 5 0 0 1 5-5h1v36z"/><path d="m29 47v3h-1a5 5 0 0 1 0-10h1z"/><path d="m28 40a5 5 0 0 0 -5 5v-36a5 5 0 0 1 5-5h1v36z"/></g><path d="m61 3h-33a6.006 6.006 0 0 0 -6 6v4h-14a6.006 6.006 0 0 0 -6 6v36a6.006 6.006 0 0 0 6 6h33a1 1 0 0 0 1-1v-3a1 1 0 0 0 -1-1v-2a1 1 0 0 0 1-1v-2h19a1 1 0 0 0 1-1v-3a1 1 0 0 0 -1-1v-2a1 1 0 0 0 1-1v-39a1 1 0 0 0 -1-1zm-1 39h-30v-1h30zm-32 7a4 4 0 0 1 0-8zm0-44v34a5.969 5.969 0 0 0 -4 1.54v-31.54a4 4 0 0 1 4-4zm-6 40a5.969 5.969 0 0 0 1.54 4h-13.54v-34h12zm-14-30v34a5.969 5.969 0 0 0 -4 1.54v-31.54a4 4 0 0 1 4-4zm-4 40a4 4 0 0 1 4-4v8a4 4 0 0 1 -4-4zm36 4h-30v-1h30zm-1-3h-29v-2h29zm1-4h-30v-1h30zm20-3h-30v-1h30zm-1-3h-29v-2h29zm1-7h-30v-34h30z" fill="#006df0"/><path d="m55 9h-20a1 1 0 0 0 -1 1v8a1 1 0 0 0 1 1h20a1 1 0 0 0 1-1v-8a1 1 0 0 0 -1-1zm-1 8h-18v-6h18z" fill="#006df0"/></g></svg>