<svg height="512" viewBox="0 0 64 64" width="512" xmlns="http://www.w3.org/2000/svg"><g fill="#78b9eb"><path d="m10 46v2.91a5.993 5.993 0 0 1 0-11.82z"/><path d="m8 58v2.91a5.991 5.991 0 0 1 -3.24-10.15 5.832 5.832 0 0 1 3.24-1.67z"/><path d="m41 61h-32a5.47 5.47 0 0 1 -1-.09v-2.91h33z"/><path d="m10 49h31v3h-33v-2.91a5.47 5.47 0 0 1 1-.09z"/><path d="m43 46v3h-32a5.47 5.47 0 0 1 -1-.09v-2.91z"/><path d="m43 40h-33v-2.91a5.47 5.47 0 0 1 1-.09h32z"/><path d="m8 34h33v3h-32a5.47 5.47 0 0 1 -1-.09z"/><path d="m41 28h-33v-2.91a5.47 5.47 0 0 1 1-.09h32z"/><path d="m8 34v2.91a5.991 5.991 0 0 1 -3.24-10.15 5.832 5.832 0 0 1 3.24-1.67z"/><path d="m47 53h14v8h-14z"/><path d="m61 11v38h-14v-38zm-4 10a3 3 0 1 0 -3 3 3 3 0 0 0 3-3z"/></g><path d="m61 10h-14a1 1 0 0 0 -1 1v50a1 1 0 0 0 1 1h14a1 1 0 0 0 1-1v-50a1 1 0 0 0 -1-1zm-1 2v36h-12v-36zm0 40h-12v-2h12zm-12 8v-6h12v6z" fill="#006df0"/><path d="m42 36v-10h1v-2h-34a7 7 0 0 0 -2.4 13.566 6.985 6.985 0 0 0 0 10.868 7 7 0 0 0 2.4 13.566h34v-2h-1v-10h3v-2h-1v-10h1v-2zm0 9h-31v-4h31zm-31-7h31v1h-31zm-2-2v-1h31v1zm31-3h-31v-4h31zm0-7v1h-31v-1zm-36 5a5 5 0 0 1 3-4.576v9.152a5 5 0 0 1 -3-4.576zm2 12a5 5 0 0 1 3-4.576v9.152a5 5 0 0 1 -3-4.576zm34 14h-31v-4h31zm-36-2a5 5 0 0 1 3-4.576v9.152a5 5 0 0 1 -3-4.576zm5 5v-1h31v1zm31-9h-31v-1h31zm-29-3v-1h31v1z" fill="#006df0"/><path d="m54 25a4 4 0 1 0 -4-4 4 4 0 0 0 4 4zm0-6a2 2 0 1 1 -2 2 2 2 0 0 1 2-2z" fill="#006df0"/></svg>