<svg height="512" viewBox="0 0 64 64" width="512" xmlns="http://www.w3.org/2000/svg"><g fill="#78b9eb"><path d="m15 9h26v8h-26z"/><path d="m47 58v3h-38v-3h37z"/><path d="m47 52v2h-1-37v-3h38z"/><path d="m9 58v3h-1a5 5 0 0 1 0-10h1z"/><path d="m8 51a5 5 0 0 0 -5 5v-48a5 5 0 0 1 5-5h1v48z"/><path d="m45 39h-7a2.006 2.006 0 0 1 -2-2v-10a2.006 2.006 0 0 1 2-2h9v12z"/><path d="m51.66 32-2.83 2.83-1.83 1.82v-13.65h1a2.006 2.006 0 0 1 2 2v5.34z"/></g><path d="m61.556 37.657-7.071-7.071a2 2 0 0 0 -2.828 0l-.657-.657v-4.929a3 3 0 0 0 -3-3v-19a1 1 0 0 0 -1-1h-39a6.006 6.006 0 0 0 -6 6v48a6.006 6.006 0 0 0 6 6h39a1 1 0 0 0 1-1v-3a1 1 0 0 0 -1-1v-2a1 1 0 0 0 1-1v-10.1l3.657 3.657a2 2 0 0 0 2.828 0l7.071-7.072a2 2 0 0 0 0-2.828zm-23.556.343a1 1 0 0 1 -1-1v-10a1 1 0 0 1 1-1h8v1a4.994 4.994 0 0 0 -4.9 4h-2.1v2h2.1a4.964 4.964 0 0 0 1.363 2.535l2.122 2.122a1.993 1.993 0 0 0 -.271.343zm8-1.757-2.122-2.122a2.969 2.969 0 0 1 -.7-1.121h1.822v-2h-1.818a2.959 2.959 0 0 1 2.818-2zm2-2v-4.463c.039.035.084.061.122.1l2.121 2.12-2.122 2.122zm1-9.243v3.028a4.966 4.966 0 0 0 -1-.6v-3.428a1 1 0 0 1 1 1zm-41-21v46a5.969 5.969 0 0 0 -4 1.54v-43.54a4 4 0 0 1 4-4zm-4 52a4 4 0 0 1 4-4v8a4 4 0 0 1 -4-4zm42 4h-36v-1h36zm-1-3h-35v-2h35zm1-4h-36v-1h36zm0-3h-36v-46h36v20h-8a3 3 0 0 0 -3 3v10a3 3 0 0 0 3 3h6.24a1.95 1.95 0 0 0 .346.485l1.414 1.415zm14.142-10.929-7.071 7.072-7.071-7.072 7.071-7.071 7.072 7.07z" fill="#006df0"/><path d="m53.071 36.243a2.047 2.047 0 0 0 -2.827 0 1.989 1.989 0 0 0 1.925 3.341l2.316 2.316 1.415-1.415-2.317-2.316a2.008 2.008 0 0 0 .075-.514 1.986 1.986 0 0 0 -.587-1.412z" fill="#006df0"/><path d="m42 17v-8a1 1 0 0 0 -1-1h-26a1 1 0 0 0 -1 1v8a1 1 0 0 0 1 1h26a1 1 0 0 0 1-1zm-2-1h-24v-6h24z" fill="#006df0"/></svg>