<svg height="512" viewBox="0 0 64 64" width="512" xmlns="http://www.w3.org/2000/svg"><g fill="#78b9eb"><path d="m43.49 20.34 3.24-3.24a5.011 5.011 0 0 1 -6.49 6.49l-2.41 2.41-.71-.71-1.41-1.41-.71-.71 2.41-2.41a5.011 5.011 0 0 1 6.49-6.49l-3.24 3.24z"/><path d="m35 28.83-2.41 2.41a5.011 5.011 0 0 1 -6.49 6.49l3.24-3.24-2.83-2.83-3.24 3.24a5.011 5.011 0 0 1 6.49-6.49l2.41-2.41.71.71 1.41 1.41z"/><path d="m15 51a5 5 0 0 0 -5 5v-48a5 5 0 0 1 5-5h1v48z"/><path d="m16 58v3h-1a5 5 0 0 1 0-10h1z"/><path d="m54 58v3h-38v-3h37z"/><path d="m54 51v3h-1-37v-3z"/></g><path d="m54 2h-39a6.006 6.006 0 0 0 -6 6v48a6.006 6.006 0 0 0 6 6h39a1 1 0 0 0 1-1v-3a1 1 0 0 0 -1-1v-2a1 1 0 0 0 1-1v-51a1 1 0 0 0 -1-1zm-1 51h-36v-1h36zm-38-49v46a5.969 5.969 0 0 0 -4 1.54v-43.54a4 4 0 0 1 4-4zm-4 52a4 4 0 0 1 4-4v8a4 4 0 0 1 -4-4zm42 4h-36v-1h36zm-1-3h-35v-2h35zm1-7h-36v-46h36z" fill="#006df0"/><path d="m40.515 27.272-1.272-1.272 1.274-1.273a6.009 6.009 0 0 0 7.147-7.987 1 1 0 0 0 -1.641-.348l-2.533 2.534-1.416-1.416 2.533-2.533a1 1 0 0 0 -.347-1.64 6.009 6.009 0 0 0 -7.988 7.146l-1.272 1.274-1.271-1.272a6.01 6.01 0 0 0 -7.991-7.149 1 1 0 0 0 -.346 1.64l2.538 2.539-1.414 1.414-2.538-2.538a1 1 0 0 0 -1.64.346 6.01 6.01 0 0 0 7.148 7.991l1.271 1.272-1.274 1.273a6.009 6.009 0 0 0 -7.147 7.987 1 1 0 0 0 1.641.348l2.533-2.533 1.416 1.416-2.533 2.533a1 1 0 0 0 .347 1.64 6.009 6.009 0 0 0 7.988-7.146l1.272-1.275 1.271 1.272a6.018 6.018 0 0 0 7.991 7.149 1 1 0 0 0 .346-1.64l-2.538-2.539 1.414-1.414 2.538 2.538a1 1 0 0 0 1.64-.346 6.01 6.01 0 0 0 -7.148-7.991zm-2.4-5.8a1 1 0 0 0 .227-1.066 4.041 4.041 0 0 1 .9-4.3 4 4 0 0 1 2.569-1.158l-1.858 1.852a1 1 0 0 0 0 1.414l2.83 2.83a1 1 0 0 0 1.414 0l1.864-1.863a4 4 0 0 1 -1.161 2.572 4.043 4.043 0 0 1 -4.3.9 1 1 0 0 0 -1.066.227l-1.7 1.7-1.416-1.416zm-6.234 9.066a1 1 0 0 0 -.227 1.066 4.041 4.041 0 0 1 -.9 4.3 4 4 0 0 1 -2.569 1.158l1.862-1.862a1 1 0 0 0 0-1.414l-2.83-2.83a1 1 0 0 0 -1.414 0l-1.864 1.863a4 4 0 0 1 1.161-2.572 4.042 4.042 0 0 1 4.3-.9 1 1 0 0 0 1.066-.227l1.7-1.7 1.416 1.416zm12.309.417a1.029 1.029 0 0 0 -1.414 0l-2.826 2.823a1 1 0 0 0 0 1.414l1.869 1.87a4.005 4.005 0 0 1 -3.475-5.462 1 1 0 0 0 -.226-1.067l-3.118-3.119-4.532-4.532a1 1 0 0 0 -1.067-.226 4.007 4.007 0 0 1 -5.463-3.475l1.87 1.869a1.029 1.029 0 0 0 1.414 0l2.828-2.828a1 1 0 0 0 0-1.414l-1.869-1.87a4.005 4.005 0 0 1 3.475 5.462 1 1 0 0 0 .226 1.067l7.65 7.651a1 1 0 0 0 1.067.226 4.007 4.007 0 0 1 5.463 3.475z" fill="#006df0"/></svg>