<svg height="512" viewBox="0 0 64 64" width="512" xmlns="http://www.w3.org/2000/svg"><g id="Book-notebook-2" data-name="Book-notebook"><g fill="#78b9eb"><path d="m53 11v15l-5-4-5 4v-15z"/><path d="m47 51v4h-15a4 4 0 0 1 4-4z"/><path d="m61 15v40h-8v-4h4v-36z"/><path d="m32 15v40a8 8 0 0 0 -8-8h-6v-40h6a8 8 0 0 1 8 8z"/><path d="m32 55h-15v-4h11a4 4 0 0 1 4 4z"/><path d="m11 51v4h-8v-40h4v36z"/></g><path d="m61 14h-3v-3a1 1 0 0 0 -1-1h-21a4.961 4.961 0 0 0 -3.66 1.62 9.015 9.015 0 0 0 -8.34-5.62h-6a1 1 0 0 0 -1 1v3h-10a1 1 0 0 0 -1 1v3h-3a1 1 0 0 0 -1 1v40a1 1 0 0 0 1 1h7v3a.987.987 0 0 0 .62.92.838.838 0 0 0 .38.08 1.007 1.007 0 0 0 .71-.29l2.29-2.3 2.29 2.3a1.007 1.007 0 0 0 .71.29.838.838 0 0 0 .38-.08.987.987 0 0 0 .62-.92v-3h28v3a1 1 0 0 0 1 1h6a1 1 0 0 0 1-1v-3h7a1 1 0 0 0 1-1v-40a1 1 0 0 0 -1-1zm-51 40h-6v-38h2v35a1 1 0 0 0 1 1h3zm6 2.59-1.29-1.3a1.008 1.008 0 0 0 -1.42 0l-1.29 1.3v-4.59h4zm-8-6.59v-38h9v35a1 1 0 0 0 1 1h6a7 7 0 0 1 4.99 2.1 4.125 4.125 0 0 0 -.99-.1zm10 4v-2h10a3.01 3.01 0 0 1 2.82 2zm13-4.64a8.96 8.96 0 0 0 -7-3.36h-5v-38h5a7.008 7.008 0 0 1 7 7zm13-37.36h8v11.92l-3.38-2.7a.984.984 0 0 0 -1.24 0l-3.38 2.7zm2 42h-12.82a3.01 3.01 0 0 1 2.82-2h10zm6 4h-4v-6h4zm-16-8a4.924 4.924 0 0 0 -3 1.03v-36.03a3.009 3.009 0 0 1 3-3h6v14a1 1 0 0 0 .57.9.981.981 0 0 0 1.05-.12l4.38-3.5 4.38 3.5a.961.961 0 0 0 .62.22.907.907 0 0 0 .43-.1 1 1 0 0 0 .57-.9v-14h2v38zm24 4h-6v-2h3a1 1 0 0 0 1-1v-35h2z" fill="#006df0"/></g></svg>