<svg id="Book-notebook" height="512" viewBox="0 0 64 64" width="512" xmlns="http://www.w3.org/2000/svg"><g fill="#78b9eb"><path d="m54 16v4a2.006 2.006 0 0 1 -2 2h-2v-8h2a2.006 2.006 0 0 1 2 2z"/><path d="m54 32v4a2.006 2.006 0 0 1 -2 2h-2v-8h2a2.006 2.006 0 0 1 2 2z"/><path d="m54 24v4a2.006 2.006 0 0 1 -2 2h-2v-8h2a2.006 2.006 0 0 1 2 2z"/><path d="m54 8v4a2.006 2.006 0 0 1 -2 2h-2v-8h2a2.006 2.006 0 0 1 2 2z"/><path d="m16 10h30v12h-30z"/><path d="m58 44a3 3 0 0 1 -3 3h-3v-6h3a3 3 0 0 1 3 3z"/><path d="m48 41v6h-21.29l-.71-.32v-5.36l.71-.32z"/><path d="m12 51v10h-1a5 5 0 0 1 0-10z"/><path d="m12 58h38v3h-38z"/><path d="m12 51h38v3h-38z"/><path d="m12 3v48h-1a5 5 0 0 0 -5 5v-48a5 5 0 0 1 5-5z"/></g><path d="m16 23h30a1 1 0 0 0 1-1v-12a1 1 0 0 0 -1-1h-30a1 1 0 0 0 -1 1v12a1 1 0 0 0 1 1zm1-12h28v10h-28z" fill="#006df0"/><path d="m15 27h32v2h-32z" fill="#006df0"/><path d="m15 33h32v2h-32z" fill="#006df0"/><path d="m55 40h-4v-1h1a3 3 0 0 0 3-3v-4a2.981 2.981 0 0 0 -.78-2 2.981 2.981 0 0 0 .78-2v-4a2.981 2.981 0 0 0 -.78-2 2.981 2.981 0 0 0 .78-2v-4a2.981 2.981 0 0 0 -.78-2 2.981 2.981 0 0 0 .78-2v-4a3 3 0 0 0 -3-3h-1v-2a1 1 0 0 0 -1-1h-39a6.006 6.006 0 0 0 -6 6v48a6.006 6.006 0 0 0 6 6h39a1 1 0 0 0 1-1v-3a1 1 0 0 0 -1-1v-2a1 1 0 0 0 1-1v-6h4a4 4 0 0 0 0-8zm-30 5.141-2.551-1.141 2.551-1.141zm2-3.141h20v4h-20zm22 0h2v4h-2zm4-26v4a1 1 0 0 1 -1 1h-1v-6h1a1 1 0 0 1 1 1zm0 8v4a1 1 0 0 1 -1 1h-1v-6h1a1 1 0 0 1 1 1zm0 12a1 1 0 0 1 -1 1h-1v-6h1a1 1 0 0 1 1 1zm-1-29a1 1 0 0 1 1 1v4a1 1 0 0 1 -1 1h-1v-6zm-3 46h-36v-1h36zm-38-49v46a5.969 5.969 0 0 0 -4 1.54v-43.54a4 4 0 0 1 4-4zm-4 52a4 4 0 0 1 4-4v8a4 4 0 0 1 -4-4zm42 4h-36v-1h36zm-1-3h-35v-2h35zm1-7h-36v-46h36v36h-22.294a.987.987 0 0 0 -.408.087l-6.706 3a1 1 0 0 0 0 1.826l6.706 3a.987.987 0 0 0 .408.087h22.294zm6-4h-2v-4h2a2 2 0 0 1 0 4z" fill="#006df0"/></svg>