<svg height="512" viewBox="0 0 64 64" width="512" xmlns="http://www.w3.org/2000/svg"><g fill="#78b9eb"><path d="m55 43h4v18h-4z"/><path d="m5 52h22v9h-22z"/><path d="m59 37v6h-4-28-22v-6z"/><path d="m55 27v2a4 4 0 0 1 -8 0v-2z"/><path d="m29 29h8v4h-8z"/><path d="m37 7v18h-8v-1-17z"/><path d="m29 29v4h-8v-4-2h8z"/><path d="m21 5h8v19h-8z"/><path d="m21 27v2h-8v-4-15h8v14z"/><path d="m5 29h8v4h-8z"/><path d="m5 7h8v18h-8z"/></g><path d="m61 32h-6.026a4.948 4.948 0 0 0 1.026-3v-5h1a1 1 0 0 1 1 1v2h2v-2a3 3 0 0 0 -3-3h-10a1 1 0 0 0 -1 1v6a4.948 4.948 0 0 0 1.026 3h-9.026v-25a1 1 0 0 0 -1-1h-7v-1a1 1 0 0 0 -1-1h-8a1 1 0 0 0 -1 1v4h-6v-2a1 1 0 0 0 -1-1h-8a1 1 0 0 0 -1 1v25h-1a1 1 0 0 0 -1 1v4a1 1 0 0 0 1 1h1v23a1 1 0 0 0 1 1h22a1 1 0 0 0 1-1v-17h26v17a1 1 0 0 0 1 1h4a1 1 0 0 0 1-1v-23h1a1 1 0 0 0 1-1v-4a1 1 0 0 0 -1-1zm-7-8v2h-6v-2zm-6 5v-1h6v1a3 3 0 0 1 -6 0zm-26 3v-4h6v4zm-8 0v-2h6v2zm-2-4h-6v-2h6zm10-3h6v1h-6zm14 3h-6v-2h6zm-6 2h6v2h-6zm6-22v16h-6v-16zm-14-2h6v17h-6zm-2 5v17h-6v-17zm-8-3v16h-6v-16zm-6 22h6v2h-6zm0 30v-7h20v7zm20-9h-20v-7h20zm32 9h-2v-16h2zm0-18h-52v-4h52zm2-6h-56v-2h56z" fill="#006df0"/><path d="m50 19a3 3 0 0 0 3-3v-1h-2v1a1 1 0 0 1 -1 1 3 3 0 0 0 -3 3h2a1 1 0 0 1 1-1z" fill="#006df0"/><path d="m55 20a1 1 0 0 1 1-1 3 3 0 0 0 3-3v-1h-2v1a1 1 0 0 1 -1 1 3 3 0 0 0 -3 3z" fill="#006df0"/><circle cx="25" cy="9" fill="#006df0" r="2"/></svg>