<svg height="512" viewBox="0 0 64 64" width="512" xmlns="http://www.w3.org/2000/svg"><g fill="#78b9eb"><path d="m14 37h5.76l-5.76-5.76zm-3-13 16 16h-16z"/><path d="m15 44h6v8h-6z"/><path d="m32 60h-29v-40h4v36h21a4 4 0 0 1 4 4z"/><path d="m61 20v40h-29a4 4 0 0 1 4-4h21v-36z"/><path d="m52 13v1h-6v-1a3 3 0 0 1 6 0z"/><path d="m52 18v23.29l-.32.71h-5.36l-.32-.71v-23.29z"/><path d="m25 4h4 4 4 4v8h-36v-8h4 4 4 4 2z"/></g><path d="m61 19h-3v-3a1 1 0 0 0 -1-1h-4v-2a4 4 0 0 0 -8 0v2h-9a4.982 4.982 0 0 0 -4 2.031 4.982 4.982 0 0 0 -4-2.031h-21a1 1 0 0 0 -1 1v3h-3a1 1 0 0 0 -1 1v40a1 1 0 0 0 1 1h58a1 1 0 0 0 1-1v-40a1 1 0 0 0 -1-1zm-57 40v-38h2v35a1 1 0 0 0 1 1h21a3 3 0 0 1 2.816 2zm27-2.974a4.948 4.948 0 0 0 -3-1.026h-20v-38h20a3 3 0 0 1 3 3zm18-45.026a2 2 0 0 1 2 2h-4a2 2 0 0 1 2-2zm-2 4h4v2h-4zm0 4h4v22h-4zm3.141 24-1.141 2.551-1.141-2.551zm-17.141-23a3 3 0 0 1 3-3h9v24.294a.987.987 0 0 0 .087.408l3 6.706a1 1 0 0 0 1.826 0l3-6.706a.987.987 0 0 0 .087-.408v-24.294h3v38h-20a4.948 4.948 0 0 0 -3 1.026zm27 39h-26.816a3 3 0 0 1 2.816-2h21a1 1 0 0 0 1-1v-35h2z" fill="#006df0"/><path d="m11.707 23.293a1 1 0 0 0 -1.707.707v16a1 1 0 0 0 1 1h16a1 1 0 0 0 .707-1.707zm.293 15.707v-12.586l12.586 12.586z" fill="#006df0"/><path d="m14 38h5.758a1 1 0 0 0 .707-1.707l-5.758-5.757a1 1 0 0 0 -1.707.707v5.757a1 1 0 0 0 1 1zm1-4.343 2.344 2.343h-2.344z" fill="#006df0"/><path d="m5 13h36a1 1 0 0 0 1-1v-8a1 1 0 0 0 -1-1h-36a1 1 0 0 0 -1 1v8a1 1 0 0 0 1 1zm1-8h2v2h2v-2h2v3h2v-3h2v2h2v-2h2v3h2v-3h2v2h2v-2h2v3h2v-3h2v2h2v-2h2v3h2v-3h2v6h-34z" fill="#006df0"/><path d="m23 43h-10a3 3 0 0 0 -3 3v4a3 3 0 0 0 3 3h10a3 3 0 0 0 3-3v-4a3 3 0 0 0 -3-3zm-9 8h-1a1 1 0 0 1 -1-1v-4a1 1 0 0 1 1-1h1zm6 0h-4v-6h4zm4-1a1 1 0 0 1 -1 1h-1v-6h1a1 1 0 0 1 1 1z" fill="#006df0"/></svg>