<svg height="512" viewBox="0 0 64 64" width="512" xmlns="http://www.w3.org/2000/svg"><path d="m32 56h-29v-40h4v36h21a4 4 0 0 1 4 4z" fill="#78b9eb"/><path d="m61 16v40h-29a8 8 0 0 1 8-8h6v-32z" fill="#78b9eb"/><g fill="#006df0"><path d="m61 15h-14v-7a1 1 0 0 0 -1-1h-6a9.01 9.01 0 0 0 -8.337 5.623 4.972 4.972 0 0 0 -3.663-1.623h-21a1 1 0 0 0 -1 1v3h-3a1 1 0 0 0 -1 1v40a1 1 0 0 0 1 1h58a1 1 0 0 0 1-1v-40a1 1 0 0 0 -1-1zm-21-6h5v38h-5a8.983 8.983 0 0 0 -7 3.356v-34.356a7.008 7.008 0 0 1 7-7zm-32 4h20a3 3 0 0 1 3 3v36a4.98 4.98 0 0 0 -3-1h-20zm-4 4h2v35a1 1 0 0 0 1 1h21a3 3 0 0 1 2.816 2h-26.816zm56 38h-26.92a7 7 0 0 1 6.92-6h6a1 1 0 0 0 1-1v-31h13z"/><path d="m10 17h19v2h-19z"/><path d="m10 23h8v2h-8z"/><path d="m10 29h13v2h-13z"/><path d="m10 35h4v2h-4z"/><path d="m20 23h9v2h-9z"/><path d="m25 29h4v2h-4z"/><path d="m16 35h13v2h-13z"/></g></svg>