<svg height="512" viewBox="0 0 64 64" width="512" xmlns="http://www.w3.org/2000/svg"><g fill="#78b9eb"><path d="m46 13v8l-4-4-4 4-2-2-4 3.2v-9.2z"/><path d="m14 58h38v3h-38z"/><path d="m14 51h38v3h-38z"/><path d="m14 51v10h-1a5 5 0 0 1 0-10z"/><path d="m14 7v44h-1a5 5 0 0 0 -5 5v-44a5 5 0 0 1 5-5z"/></g><path d="m52 6h-19.1a5.009 5.009 0 0 0 -4.9-4h-5a1 1 0 0 0 -1 1v3h-9a6.006 6.006 0 0 0 -6 6v44a6.006 6.006 0 0 0 6 6h39a1 1 0 0 0 1-1v-3a1 1 0 0 0 -1-1v-2a1 1 0 0 0 1-1v-47a1 1 0 0 0 -1-1zm-19 16.681 2.926-2.341 2.367 2.367 1.414-1.414-.293-.293 2.586-2.586 3 3v1.586h-12zm12-4.1-2.293-2.293a1 1 0 0 0 -1.414 0l-3.293 3.298-1.293-1.293a1 1 0 0 0 -1.332-.074l-2.375 1.9v-6.119h12zm-21-14.581h4a3 3 0 0 1 3 3v36.026a4.948 4.948 0 0 0 -3-1.026h-4zm-1 40h5a3 3 0 0 1 0 6h-13v-42h7v35a1 1 0 0 0 1 1zm28 9h-36v-1h36zm-38-45v42a5.969 5.969 0 0 0 -4 1.54v-39.54a4 4 0 0 1 4-4zm-4 48a4 4 0 0 1 4-4v8a4 4 0 0 1 -4-4zm42 4h-36v-1h36zm-1-3h-35v-2h35zm1-7h-19.026a4.948 4.948 0 0 0 1.026-3v-4h16v-2h-16v-4h4v-2h-4v-4h16v-2h-16v-4h13a1 1 0 0 0 1-1v-11a1 1 0 0 0 -1-1h-13v-4h18z" fill="#006df0"/><path d="m39 35h10v2h-10z" fill="#006df0"/></svg>