<svg height="512" viewBox="0 0 64 64" width="512" xmlns="http://www.w3.org/2000/svg"><g fill="#78b9eb"><path d="m61 16v40h-29a4 4 0 0 1 4-4h21v-36z"/><path d="m32 56h-29v-40h4v36h21a4 4 0 0 1 4 4z"/><path d="m47 8v40a4 4 0 0 0 -4-4h-5v-40h5a4 4 0 0 1 4 4z"/><path d="m19 9v1h-6v-1a3 3 0 0 1 6 0z"/><path d="m19 14v23.29l-.32.71h-5.36l-.32-.71v-23.29z"/></g><path d="m61 15h-3v-3a1 1 0 0 0 -1-1h-9v-3a5.006 5.006 0 0 0 -5-5h-5a1 1 0 0 0 -1 1v7h-1a4.982 4.982 0 0 0 -4 2.031 4.982 4.982 0 0 0 -4-2.031h-8v-2a4 4 0 0 0 -8 0v2h-5a1 1 0 0 0 -1 1v3h-3a1 1 0 0 0 -1 1v40a1 1 0 0 0 1 1h58a1 1 0 0 0 1-1v-40a1 1 0 0 0 -1-1zm-5-2v38h-9.026a4.948 4.948 0 0 0 1.026-3v-35zm-17-8h4a3 3 0 0 1 3 3v36.026a4.948 4.948 0 0 0 -3-1.026h-4zm-3 8h1v31a1 1 0 0 0 1 1h5a3 3 0 0 1 0 6h-7a4.948 4.948 0 0 0 -3 1.026v-36.026a3 3 0 0 1 3-3zm-18 24h-4v-22h4zm-.859 2-1.141 2.551-1.141-2.551zm-3.141-26v-2h4v2zm2-6a2 2 0 0 1 2 2h-4a2 2 0 0 1 2-2zm-8 6h4v24.294a1 1 0 0 0 .087.408l3 6.706a1 1 0 0 0 1.826 0l3-6.706a1 1 0 0 0 .087-.408v-24.294h8a3 3 0 0 1 3 3v36.026a4.948 4.948 0 0 0 -3-1.026h-20zm-4 4h2v35a1 1 0 0 0 1 1h21a3 3 0 0 1 2.816 2h-26.816zm56 38h-26.816a3 3 0 0 1 2.816-2h21a1 1 0 0 0 1-1v-35h2z" fill="#006df0"/></svg>