<svg height="512" viewBox="0 0 64 64" width="512" xmlns="http://www.w3.org/2000/svg"><path d="m25 32h-20a2.006 2.006 0 0 0 -2 2v24a2.006 2.006 0 0 0 2 2h20a2.006 2.006 0 0 0 2-2v-24a2.006 2.006 0 0 0 -2-2zm-15 24h-4v-4h4zm0-7h-4v-4h4zm7 7h-4v-4h4zm0-7h-4v-4h4zm7 7h-4v-4h4zm0-7h-4v-4h4zm0-8h-18v-6h18z" fill="#78b9eb"/><path d="m27 50h1a4 4 0 0 1 4 4h-5z" fill="#78b9eb"/><path d="m61 14v40h-29a4 4 0 0 1 4-4h21v-36z" fill="#78b9eb"/><path d="m50 12v23.29l-.32.71h-5.36l-.32-.71v-23.29z" fill="#78b9eb"/><path d="m50 7v1h-6v-1a3 3 0 0 1 6 0z" fill="#78b9eb"/><path d="m7 14v18h-2a2.006 2.006 0 0 0 -2 2v-20z" fill="#78b9eb"/><g fill="#006df0"><path d="m61 13h-3v-3a1 1 0 0 0 -1-1h-6v-2a4 4 0 0 0 -8 0v2h-7a4.982 4.982 0 0 0 -4 2.031 4.982 4.982 0 0 0 -4-2.031h-21a1 1 0 0 0 -1 1v3h-3a1 1 0 0 0 -1 1v44a3 3 0 0 0 3 3h20a3 3 0 0 0 3-3v-3h33a1 1 0 0 0 1-1v-40a1 1 0 0 0 -1-1zm-12 22h-4v-22h4zm-.859 2-1.141 2.551-1.141-2.551zm-3.141-26v-2h4v2zm2-6a2 2 0 0 1 2 2h-4a2 2 0 0 1 2-2zm-11 6h7v24.294a.987.987 0 0 0 .087.408l3 6.706a1 1 0 0 0 1.826 0l3-6.706a.987.987 0 0 0 .087-.408v-24.294h5v38h-20a4.948 4.948 0 0 0 -3 1.026v-36.026a3 3 0 0 1 3-3zm-8 0a3 3 0 0 1 3 3v36.026a4.948 4.948 0 0 0 -3-1.026v-15a3 3 0 0 0 -3-3h-17v-20zm-22 4v16h-1a2.966 2.966 0 0 0 -1 .184v-16.184zm20 43a1 1 0 0 1 -1 1h-20a1 1 0 0 1 -1-1v-24a1 1 0 0 1 1-1h20a1 1 0 0 1 1 1zm2-7a3 3 0 0 1 2.816 2h-2.816zm32 2h-26.816a3 3 0 0 1 2.816-2h21a1 1 0 0 0 1-1v-35h2z"/><path d="m17 44h-4a1 1 0 0 0 -1 1v4a1 1 0 0 0 1 1h4a1 1 0 0 0 1-1v-4a1 1 0 0 0 -1-1zm-1 4h-2v-2h2z"/><path d="m10 44h-4a1 1 0 0 0 -1 1v4a1 1 0 0 0 1 1h4a1 1 0 0 0 1-1v-4a1 1 0 0 0 -1-1zm-1 4h-2v-2h2z"/><path d="m24 44h-4a1 1 0 0 0 -1 1v4a1 1 0 0 0 1 1h4a1 1 0 0 0 1-1v-4a1 1 0 0 0 -1-1zm-1 4h-2v-2h2z"/><path d="m17 51h-4a1 1 0 0 0 -1 1v4a1 1 0 0 0 1 1h4a1 1 0 0 0 1-1v-4a1 1 0 0 0 -1-1zm-1 4h-2v-2h2z"/><path d="m10 51h-4a1 1 0 0 0 -1 1v4a1 1 0 0 0 1 1h4a1 1 0 0 0 1-1v-4a1 1 0 0 0 -1-1zm-1 4h-2v-2h2z"/><path d="m24 51h-4a1 1 0 0 0 -1 1v4a1 1 0 0 0 1 1h4a1 1 0 0 0 1-1v-4a1 1 0 0 0 -1-1zm-1 4h-2v-2h2z"/><path d="m24 34h-18a1 1 0 0 0 -1 1v6a1 1 0 0 0 1 1h18a1 1 0 0 0 1-1v-6a1 1 0 0 0 -1-1zm-1 6h-16v-4h16z"/></g></svg>