<svg height="512" viewBox="0 0 64 64" width="512" xmlns="http://www.w3.org/2000/svg"><g fill="#78b9eb"><path d="m58 50a3 3 0 0 1 0 6h-3v-6z"/><path d="m51 50v6h-21.29l-.71-.32v-5.36l.71-.32z"/><path d="m7 49h6v8h-6z"/><path d="m26.36 26.36a8.994 8.994 0 1 1 2.64-6.36 8.954 8.954 0 0 1 -2.64 6.36z"/><path d="m37 33a2.828 2.828 0 0 1 -4 4l-1-1-5-5 2-2 2-2 1 1z"/><path d="m32 46h-29v-35h4v31h21a4 4 0 0 1 4 4z"/><path d="m61 11v35h-29a4 4 0 0 1 4-4h21v-31z"/></g><path d="m61 10h-3v-3a1 1 0 0 0 -1-1h-21a4.982 4.982 0 0 0 -4 2.031 4.982 4.982 0 0 0 -4-2.031h-21a1 1 0 0 0 -1 1v3h-3a1 1 0 0 0 -1 1v35a1 1 0 0 0 1 1h58a1 1 0 0 0 1-1v-35a1 1 0 0 0 -1-1zm-24.707 23.707a1.829 1.829 0 0 1 -2.586 2.586l-5.293-5.293 2.586-2.586zm-32.293 11.293v-33h2v30a1 1 0 0 0 1 1h21a3 3 0 0 1 2.816 2zm27-2.974a4.948 4.948 0 0 0 -3-1.026h-20v-33h20a3 3 0 0 1 3 3v15a1 1 0 0 0 -.707.293l-1.293 1.293-1.262-1.262a10.016 10.016 0 1 0 -1.414 1.414l1.262 1.262-1.293 1.293a1 1 0 0 0 0 1.414l4.707 4.707zm-11-14.026a8 8 0 1 1 8-8 8.009 8.009 0 0 1 -8 8zm13 10.253a3.823 3.823 0 0 0 4.707-5.96l-4.707-4.707v-16.586a3 3 0 0 1 3-3h20v33h-20a4.948 4.948 0 0 0 -3 1.026zm27 6.747h-26.816a3 3 0 0 1 2.816-2h21a1 1 0 0 0 1-1v-30h2z" fill="#006df0"/><path d="m17 15h6v2h-6z" fill="#006df0"/><path d="m15 19h10v2h-10z" fill="#006df0"/><path d="m17 23h6v2h-6z" fill="#006df0"/><path d="m58 49h-28.294a.987.987 0 0 0 -.408.087l-6.706 3a1 1 0 0 0 0 1.826l6.706 3a.987.987 0 0 0 .408.087h28.294a4 4 0 0 0 0-8zm-30 5.141-2.551-1.141 2.551-1.141zm22 .859h-20v-4h20zm4 0h-2v-4h2zm4 0h-2v-4h2a2 2 0 0 1 0 4z" fill="#006df0"/><path d="m15 48h-10a3 3 0 0 0 -3 3v4a3 3 0 0 0 3 3h10a3 3 0 0 0 3-3v-4a3 3 0 0 0 -3-3zm-9 8h-1a1 1 0 0 1 -1-1v-4a1 1 0 0 1 1-1h1zm6 0h-4v-6h4zm4-1a1 1 0 0 1 -1 1h-1v-6h1a1 1 0 0 1 1 1z" fill="#006df0"/></svg>