<svg height="512" viewBox="0 0 64 64" width="512" xmlns="http://www.w3.org/2000/svg"><g id="book-Reading-glasses-2" data-name="book-Reading-glasses"><path d="m32 59h-29v-37h4v33h21a4 4 0 0 1 4 4z" fill="#78b9eb"/><path d="m61 22v37h-29a4 4 0 0 1 4-4h21v-33z" fill="#78b9eb"/><path d="m29 13a8 8 0 1 1 -8-8 7.963 7.963 0 0 1 8 8z" fill="#78b9eb"/><path d="m51 13a8 8 0 1 1 -8-8 7.963 7.963 0 0 1 8 8z" fill="#78b9eb"/><g fill="#006df0"><path d="m10 23h19v2h-19z"/><path d="m10 28h4v2h-4z"/><path d="m16 28h13v2h-13z"/><path d="m10 33h6v2h-6z"/><path d="m18 33h11v2h-11z"/><path d="m10 38h19v2h-19z"/><path d="m10 43h2v2h-2z"/><path d="m14 43h14v2h-14z"/><path d="m10 48h10v2h-10z"/><path d="m23 48h5v2h-5z"/><path d="m35 48h19v2h-19z"/><path d="m35 43h5v2h-5z"/><path d="m42 43h12v2h-12z"/><path d="m35 38h7v2h-7z"/><path d="m44 38h10v2h-10z"/><path d="m35 33h19v2h-19z"/><path d="m35 28h4v2h-4z"/><path d="m41 28h13v2h-13z"/><path d="m35 23h11v2h-11z"/><path d="m48 23h6v2h-6z"/><path d="m21 10v-2a5.006 5.006 0 0 0 -5 5h2a3 3 0 0 1 3-3z"/><path d="m40 13a3 3 0 0 1 3-3v-2a5.006 5.006 0 0 0 -5 5z"/><path d="m61 21h-3v-3a1 1 0 0 0 -1-1h-5.95a8.912 8.912 0 0 0 .891-3h5.059a1 1 0 0 0 .99-1.142l-1-7a1 1 0 0 0 -.99-.858h-2v2h1.133l.714 5h-3.906a8.991 8.991 0 0 0 -16.46-3.932 3.964 3.964 0 0 0 -6.962 0 8.991 8.991 0 0 0 -16.46 3.932h-3.906l.714-5h1.133v-2h-2a1 1 0 0 0 -.99.858l-1 7a1 1 0 0 0 .99 1.142h5.059a8.912 8.912 0 0 0 .891 3h-5.95a1 1 0 0 0 -1 1v3h-3a1 1 0 0 0 -1 1v37a1 1 0 0 0 1 1h58a1 1 0 0 0 1-1v-37a1 1 0 0 0 -1-1zm-5-2v35h-20a4.948 4.948 0 0 0 -3 1.026v-33.026a3 3 0 0 1 3-3h.311a8.957 8.957 0 0 0 13.378 0zm-13-13a7 7 0 1 1 -7 7 7.009 7.009 0 0 1 7-7zm-13 4a2 2 0 0 1 4 0v3a8.941 8.941 0 0 0 1 4.1 5 5 0 0 0 -3 1.93 5 5 0 0 0 -3-1.93 8.941 8.941 0 0 0 1-4.1zm-9-4a7 7 0 1 1 -7 7 7.009 7.009 0 0 1 7-7zm-13 13h6.311a8.957 8.957 0 0 0 13.378 0h.311a3 3 0 0 1 3 3v33.026a4.948 4.948 0 0 0 -3-1.026h-20zm-4 4h2v32a1 1 0 0 0 1 1h21a3 3 0 0 1 2.816 2h-26.816zm56 35h-26.816a3 3 0 0 1 2.816-2h21a1 1 0 0 0 1-1v-32h2z"/></g></g></svg>