<svg height="512" viewBox="0 0 64 64" width="512" xmlns="http://www.w3.org/2000/svg"><g fill="#78b9eb"><path d="m3 51h58v4h-58z"/><path d="m10 45v2.91a5.993 5.993 0 0 1 0-11.82z"/><path d="m39 45v3h-28a5.47 5.47 0 0 1 -1-.09v-2.91z"/><path d="m39 36v3h-29v-2.91a5.47 5.47 0 0 1 1-.09z"/><path d="m37 33v3h-28a5.47 5.47 0 0 1 -1-.09v-2.91z"/><path d="m37 24v3h-29v-2.91a5.47 5.47 0 0 1 1-.09z"/><path d="m8 33v2.91a5.991 5.991 0 0 1 -3.24-10.15 5.832 5.832 0 0 1 3.24-1.67z"/><path d="m57 39v7a2.006 2.006 0 0 1 -2 2h-10a2.006 2.006 0 0 1 -2-2v-13h14z"/><circle cx="33" cy="15" r="6"/><circle cx="15" cy="15" r="6"/></g><path d="m13 15a2 2 0 0 1 2-2v-2a4 4 0 0 0 -4 4z" fill="#006df0"/><path d="m31 15a2 2 0 0 1 2-2v-2a4 4 0 0 0 -4 4z" fill="#006df0"/><path d="m5 20h3v-2h-1.719l.5-2h1.3a7 7 0 0 0 13.919-1v-1a2 2 0 0 1 4 0v1a7 7 0 0 0 13.92 1h1.3l.5 2h-1.72v2h3a1 1 0 0 0 .97-1.242l-1-4a1 1 0 0 0 -.97-.758h-2.08a6.986 6.986 0 0 0 -12.909-2.6 3.947 3.947 0 0 0 -6.022 0 6.986 6.986 0 0 0 -12.909 2.6h-2.08a1 1 0 0 0 -.97.758l-1 4a1 1 0 0 0 .97 1.242zm28-10a5 5 0 1 1 -5 5 5.006 5.006 0 0 1 5-5zm-18 0a5 5 0 1 1 -5 5 5.006 5.006 0 0 1 5-5z" fill="#006df0"/><path d="m59 30h-1v-1a1 1 0 0 0 -1-1h-14a1 1 0 0 0 -1 1v17a3 3 0 0 0 3 3h10a3 3 0 0 0 3-3v-6h1a3 3 0 0 0 3-3v-4a3 3 0 0 0 -3-3zm-3 0v2h-12v-2zm-1 17h-10a1 1 0 0 1 -1-1v-12h12v12a1 1 0 0 1 -1 1zm5-10a1 1 0 0 1 -1 1h-1v-6h1a1 1 0 0 1 1 1z" fill="#006df0"/><path d="m48 25a3 3 0 0 0 3-3v-1h-2v1a1 1 0 0 1 -1 1 3 3 0 0 0 -3 3h2a1 1 0 0 1 1-1z" fill="#006df0"/><path d="m53 26a1 1 0 0 1 1-1 3 3 0 0 0 3-3v-1h-2v1a1 1 0 0 1 -1 1 3 3 0 0 0 -3 3z" fill="#006df0"/><path d="m6.6 36.566a7 7 0 0 0 4.4 12.434h30v-2h-1v-10h1v-2h-3v-10h1v-2h-30a7 7 0 0 0 -2.4 13.566zm31.4.434v1h-27v-1zm0 7h-27v-4h27zm-32-2a5 5 0 0 1 3-4.576v9.152a5 5 0 0 1 -3-4.576zm5 5v-1h27v1zm-2-12v-1h27v1zm27-3h-27v-4h27zm0-7v1h-27v-1zm-29 .424v9.152a4.99 4.99 0 0 1 0-9.152z" fill="#006df0"/><path d="m61 50h-58a1 1 0 0 0 -1 1v4a1 1 0 0 0 1 1h58a1 1 0 0 0 1-1v-4a1 1 0 0 0 -1-1zm-1 4h-56v-2h56z" fill="#006df0"/></svg>