<svg height="512" viewBox="0 0 64 64" width="512" xmlns="http://www.w3.org/2000/svg"><path d="m33 45a5.9 5.9 0 0 1 -1 3.31 6 6 0 1 1 0-6.62 5.9 5.9 0 0 1 1 3.31z" fill="#78b9eb"/><circle cx="43" cy="45" fill="#78b9eb" r="6"/><path d="m61 18v41h-29a4 4 0 0 1 4-4h21v-37z" fill="#78b9eb"/><path d="m32 59h-29v-41h4v37h21a4 4 0 0 1 4 4z" fill="#78b9eb"/><path d="m17 8v3h-6v-3a3 3 0 0 1 6 0z" fill="#78b9eb"/><path d="m17 15v21.29l-.32.71h-5.36l-.32-.71v-21.29z" fill="#78b9eb"/><g fill="#006df0"><path d="m61 17h-3v-3a1 1 0 0 0 -1-1h-21a4.982 4.982 0 0 0 -4 2.031 4.982 4.982 0 0 0 -4-2.031h-10v-5a4 4 0 0 0 -8 0v5h-3a1 1 0 0 0 -1 1v3h-3a1 1 0 0 0 -1 1v41a1 1 0 0 0 1 1h58a1 1 0 0 0 1-1v-41a1 1 0 0 0 -1-1zm-25-2h20v39h-20a4.973 4.973 0 0 0 -3 1v-6.413a6.945 6.945 0 0 0 .92-2.587h2.16a6.991 6.991 0 0 0 13.84 0h2.3l.5 2h-1.72v2h3a1 1 0 0 0 .97-1.242l-1-4a1 1 0 0 0 -.97-.758h-3.08a6.991 6.991 0 0 0 -13.84 0h-2.16a6.945 6.945 0 0 0 -.92-2.587v-23.413a3 3 0 0 1 3-3zm-4 30a5 5 0 1 1 -5-5 5.006 5.006 0 0 1 5 5zm6 0a5 5 0 1 1 5 5 5.006 5.006 0 0 1 -5-5zm-22-31h-4v-2h4zm0 22h-4v-20h4zm-.859 2-1.141 2.551-1.141-2.551zm-1.141-32a2 2 0 0 1 2 2v2h-4v-2a2 2 0 0 1 2-2zm-6 9h2v21.294a.987.987 0 0 0 .087.408l3 6.706a1 1 0 0 0 1.826 0l3-6.706a.987.987 0 0 0 .087-.408v-21.294h10a3 3 0 0 1 3 3v21.264a6.983 6.983 0 0 0 -10.92 4.736h-3.08a1 1 0 0 0 -.97.758l-1 4a1 1 0 0 0 .97 1.242h3v-2h-1.719l.5-2h2.3a6.983 6.983 0 0 0 10.919 4.736v4.29a4.948 4.948 0 0 0 -3-1.026h-20zm-4 4h2v36a1 1 0 0 0 1 1h21a3 3 0 0 1 2.816 2h-26.816zm56 39h-26.816a3 3 0 0 1 2.816-2h21a1 1 0 0 0 1-1v-36h2z"/><path d="m23 45h2a2 2 0 0 1 2-2v-2a4 4 0 0 0 -4 4z"/><path d="m43 43v-2a4 4 0 0 0 -4 4h2a2 2 0 0 1 2-2z"/><path d="m35 17h19v2h-19z"/><path d="m35 23h8v2h-8z"/><path d="m35 29h13v2h-13z"/><path d="m35 35h4v2h-4z"/><path d="m45 23h9v2h-9z"/><path d="m50 29h4v2h-4z"/><path d="m41 35h13v2h-13z"/></g></svg>