<svg height="512" viewBox="0 0 64 64" width="512" xmlns="http://www.w3.org/2000/svg"><g fill="#78b9eb"><path d="m47 29v4h-4v-4l.03-.18a10.87 10.87 0 0 0 3.94 0z"/><path d="m48 33v11a3 3 0 0 1 -6 0v-11z"/><path d="m38.68 9a10.93 10.93 0 0 0 -4.63 8h-14.05v-8z"/><path d="m14 3v48h-1a5 5 0 0 0 -5 5v-48a5 5 0 0 1 5-5z"/><path d="m14 51v10h-1a5 5 0 0 1 0-10z"/><path d="m14 58h38v3h-38z"/><path d="m14 51h38v3h-38z"/></g><path d="m57 18a11.962 11.962 0 0 0 -4-8.919v-6.081a1 1 0 0 0 -1-1h-39a6.006 6.006 0 0 0 -6 6v48a6.006 6.006 0 0 0 6 6h39a1 1 0 0 0 1-1v-3a1 1 0 0 0 -1-1v-2a1 1 0 0 0 1-1v-27.081a11.962 11.962 0 0 0 4-8.919zm-2 0a10 10 0 1 1 -10-10 10.011 10.011 0 0 1 10 10zm-12 16h4v10a2 2 0 0 1 -4 0zm1-2v-2.051c.331.028.662.051 1 .051s.669-.023 1-.051v2.051zm-10.819-16h-12.181v-6h15.081a11.942 11.942 0 0 0 -2.9 6zm17.819 37h-36v-1h36zm-38-49v46a5.969 5.969 0 0 0 -4 1.54v-43.54a4 4 0 0 1 4-4zm-4 52a4 4 0 0 1 4-4v8a4 4 0 0 1 -4-4zm42 4h-36v-1h36zm-1-3h-35v-2h35zm1-7h-36v-46h36v3.624a11.926 11.926 0 0 0 -12.619.376h-18.381a1 1 0 0 0 -1 1v8a1 1 0 0 0 1 1h13a12.01 12.01 0 0 0 9 11.605v2.395a1 1 0 0 0 -1 1v11a4 4 0 0 0 8 0v-11a1 1 0 0 0 -1-1v-2.395a11.875 11.875 0 0 0 3-1.229z" fill="#006df0"/><path d="m37 18h2a6.006 6.006 0 0 1 6-6v-2a8.009 8.009 0 0 0 -8 8z" fill="#006df0"/></svg>