<svg height="512" viewBox="0 0 36 60" width="512" xmlns="http://www.w3.org/2000/svg" xmlns:xlink="http://www.w3.org/1999/xlink"><linearGradient id="linearGradient-1" x1="-14.2%" x2="114.2%" y1="12.366%" y2="87.634%"><stop offset="0" stop-color="#d3dff2"/><stop offset=".172" stop-color="#d3dff2"/><stop offset=".2" stop-color="#d3dff2"/><stop offset=".2" stop-color="#dae2f2"/><stop offset=".201" stop-color="#ebeaf2"/><stop offset=".201" stop-color="#f6eff2"/><stop offset=".202" stop-color="#fdf2f2"/><stop offset=".205" stop-color="#fff3f2"/><stop offset=".252" stop-color="#fff3f2"/><stop offset=".26" stop-color="#fff3f2"/><stop offset=".26" stop-color="#d3dff2"/><stop offset=".397" stop-color="#d3dff2"/><stop offset=".42" stop-color="#d3dff2"/><stop offset=".42" stop-color="#dae2f2"/><stop offset=".421" stop-color="#ebeaf2"/><stop offset=".421" stop-color="#f6eff2"/><stop offset=".422" stop-color="#fdf2f2"/><stop offset=".425" stop-color="#fff3f2"/><stop offset=".489" stop-color="#fff3f2"/><stop offset=".5" stop-color="#fff3f2"/><stop offset=".5" stop-color="#f8f0f2"/><stop offset=".5" stop-color="#e7e8f2"/><stop offset=".5" stop-color="#dce3f2"/><stop offset=".5" stop-color="#d5e0f2"/><stop offset=".501" stop-color="#d3dff2"/><stop offset=".706" stop-color="#d3dff2"/><stop offset=".74" stop-color="#d3dff2"/><stop offset=".741" stop-color="#fff3f2"/><stop offset=".835" stop-color="#fff3f2"/><stop offset=".85" stop-color="#fff3f2"/><stop offset=".851" stop-color="#d3dff2"/></linearGradient><g id="Page-1" fill="none" fill-rule="evenodd"><g id="001---E-Book" fill-rule="nonzero"><rect id="Rectangle-path" fill="url(#linearGradient-1)" height="58" rx="4" width="34" x="1" y="1"/><path id="Shape" d="m31 1h-3c2.209139 0 4 1.790861 4 4v50c0 2.209139-1.790861 4-4 4h3c2.209139 0 4-1.790861 4-4v-50c0-2.209139-1.790861-4-4-4z" fill="#a4c2f7"/><path id="Shape" d="m28 1-1.5 3.743c-.3033953.75823183-1.0373221 1.2558294-1.854 1.257h-13.292c-.8166779-.0011706-1.55060467-.49876817-1.854-1.257l-1.5-3.743z" fill="#a4c2f7"/><path id="Shape" d="m30 23v22c0 .5522847-.4477153 1-1 1h-20c-1.65685425 0-3-1.3431458-3-3v-24c0 1.6568542 1.34314575 3 3 3h20c.5522847 0 1 .4477153 1 1z" fill="#e8edfc"/><path id="Shape" d="m28 17v5h-19c-1.65685425 0-3-1.3431458-3-3s1.34314575-3 3-3h18c.5522847 0 1 .4477153 1 1z" fill="#a4c2f7"/><path id="Shape" d="m18.223 31.915-1.946-1.73c-.167789-.1116556-.386211-.1116556-.554 0l-1.946 1.73c-.1532634.1019903-.3501744.1115092-.5125608.0247777s-.2639763-.2556813-.2644392-.4397777v-9.5h6v9.5c-.0004629.1840964-.1020528.3530462-.2644392.4397777s-.3592974.0772126-.5125608-.0247777z" fill="#e8edfc"/><path id="Shape" d="m5 59h3c-2.209139 0-4-1.790861-4-4v-50c0-2.209139 1.790861-4 4-4h-3c-2.209139 0-4 1.790861-4 4v50c0 2.209139 1.790861 4 4 4z" fill="#fff"/><path id="Rectangle-path" d="m0 47h2v8h-2z" fill="#fff"/><g fill="#428dff"><path id="Shape" d="m7 11h-2c-.55228475 0-1-.4477153-1-1 0-.55228475.44771525-1 1-1h2c.55228475 0 1 .44771525 1 1 0 .5522847-.44771525 1-1 1z"/><path id="Shape" d="m24 11h-13c-.5522847 0-1-.4477153-1-1 0-.55228475.4477153-1 1-1h13c.5522847 0 1 .44771525 1 1 0 .5522847-.4477153 1-1 1z"/><path id="Shape" d="m1.02 52c-.55228473.0027614-1.00223852-.4427153-1.00499994-.995-.00276143-.5522847.44271521-1.0022385.99499994-1.005h.01c.55228475 0 1 .4477153 1 1s-.44771525 1-1 1z"/><path id="Shape" d="m5 60h26c2.7600532-.0033061 4.9966939-2.2399468 5-5v-50c-.0033061-2.76005315-2.2399468-4.99669388-5-5h-26c-2.76005315.00330612-4.99669388 2.23994685-5 5v42c0 .5522847.44771525 1 1 1s1-.4477153 1-1v-42c0-1.65685425 1.34314575-3 3-3h2.323l1.245 3.114c.45266017 1.14161029 1.5579281 1.88982827 2.786 1.886h13.292c1.2280719.00382827 2.3333398-.74438971 2.786-1.886l1.245-3.114h2.323c1.6568542 0 3 1.34314575 3 3v50c0 1.6568542-1.3431458 3-3 3h-26c-1.65685425 0-3-1.3431458-3-3 0-.5522847-.44771525-1-1-1s-1 .4477153-1 1c.00330612 2.7600532 2.23994685 4.9966939 5 5zm20.574-55.629c-.1503094.38074697-.5186601.63041571-.928.629h-13.292c-.4093399.00141571-.7776906-.24825303-.928-.629l-.949-2.371h17.046z"/><path id="Shape" d="m6 56h24c.5522847 0 1-.4477153 1-1s-.4477153-1-1-1h-24c-.55228475 0-1 .4477153-1 1s.44771525 1 1 1z"/><path id="Shape" d="m27 15h-18c-2.209139 0-4 1.790861-4 4v24c0 2.209139 1.790861 4 4 4h20c1.1045695 0 2-.8954305 2-2v-22c0-1.1045695-.8954305-2-2-2v-4c0-1.1045695-.8954305-2-2-2zm2 30h-20c-1.1045695 0-2-.8954305-2-2v-20.556c.60534654.3599241 1.29574677.5518554 2 .556h3v8.5c-.000206.553498.3044143 1.0621303.7924703 1.3232078.4880559.2610776 1.0802253.2321682 1.5405297-.0752078.0380793-.0260203.0744845-.0544096.109-.085l1.558-1.386 1.558 1.385c.0345155.0305904.0709207.0589797.109.085.4601552.3072763 1.0521041.3362738 1.5400888.0754436.4879847-.2608303.7927483-.769125.7929112-1.3224436v-8.5h9zm-15-22h4v7.379l-1.058-.941c-.0340824-.0308054-.0705274-.0588915-.109-.084-.5037063-.3386457-1.1622937-.3386457-1.666 0-.0384726.0251085-.0749176.0531946-.109.084l-1.058.941zm5-2h-10c-1.1045695 0-2-.8954305-2-2s.8954305-2 2-2h18v4z"/></g></g></g></svg>