<svg height="512" viewBox="0 0 60 60" width="512" xmlns="http://www.w3.org/2000/svg" xmlns:xlink="http://www.w3.org/1999/xlink"><linearGradient id="linearGradient-1" x1="10%" x2="90%" y1="-16.667%" y2="116.667%"><stop offset="0" stop-color="#d3dff2"/><stop offset=".172" stop-color="#d3dff2"/><stop offset=".2" stop-color="#d3dff2"/><stop offset=".2" stop-color="#dae2f2"/><stop offset=".201" stop-color="#ebeaf2"/><stop offset=".201" stop-color="#f6eff2"/><stop offset=".202" stop-color="#fdf2f2"/><stop offset=".205" stop-color="#fff3f2"/><stop offset=".252" stop-color="#fff3f2"/><stop offset=".26" stop-color="#fff3f2"/><stop offset=".26" stop-color="#d3dff2"/><stop offset=".397" stop-color="#d3dff2"/><stop offset=".42" stop-color="#d3dff2"/><stop offset=".42" stop-color="#dae2f2"/><stop offset=".421" stop-color="#ebeaf2"/><stop offset=".421" stop-color="#f6eff2"/><stop offset=".422" stop-color="#fdf2f2"/><stop offset=".425" stop-color="#fff3f2"/><stop offset=".489" stop-color="#fff3f2"/><stop offset=".5" stop-color="#fff3f2"/><stop offset=".5" stop-color="#f8f0f2"/><stop offset=".5" stop-color="#e7e8f2"/><stop offset=".5" stop-color="#dce3f2"/><stop offset=".5" stop-color="#d5e0f2"/><stop offset=".501" stop-color="#d3dff2"/><stop offset=".706" stop-color="#d3dff2"/><stop offset=".74" stop-color="#d3dff2"/><stop offset=".741" stop-color="#fff3f2"/><stop offset=".835" stop-color="#fff3f2"/><stop offset=".85" stop-color="#fff3f2"/><stop offset=".851" stop-color="#d3dff2"/></linearGradient><g id="Page-1" fill="none" fill-rule="evenodd"><g id="002---Desktop-Reading" fill-rule="nonzero" transform="translate(0 -1)"><path id="Shape" d="m59 42v5c0 1.6568542-1.3431458 3-3 3h-52c-1.65685425 0-3-1.3431458-3-3v-5z" fill="#e8edfc"/><path id="Shape" d="m56 42v5c0 1.6568542-1.3431458 3-3 3h3c1.6568542 0 3-1.3431458 3-3v-5z" fill="#cad9fc"/><path id="Shape" d="m42 56.86v1.14c-.0032948 1.1032019-.8967981 1.9967052-2 2h-20c-1.1032019-.0032948-1.9967052-.8967981-2-2v-1.14c-.0031645-.2917901.040732-.5821823.13-.86h23.74c.089268.2778177.1331645.5682099.13.86z" fill="#e8edfc"/><path id="Shape" d="m41.87 56h-3c.089268.2778177.1331645.5682099.13.86v1.14c-.0032948 1.1032019-.8967981 1.9967052-2 2h3c1.1032019-.0032948 1.9967052-.8967981 2-2v-1.14c.0031645-.2917901-.040732-.5821823-.13-.86z" fill="#cad9fc"/><path id="Shape" d="m41.87 56h-23.74c.1914504-.6779474.6257195-1.2617189 1.22-1.64 1.53681-1.0665563 2.6957134-2.5930877 3.31-4.36h14.68c.6142866 1.7669123 1.77319 3.2934437 3.31 4.36.5942805.3782811 1.0285496.9620526 1.22 1.64z" fill="#a4c2f7"/><path id="Shape" d="m40.65 54.36c-1.53681-1.0665563-2.6957134-2.5930877-3.31-4.36h-3c.6142866 1.7669123 1.77319 3.2934437 3.31 4.36.5942805.3782811 1.0285496.9620526 1.22 1.64h3c-.1914504-.6779474-.6257195-1.2617189-1.22-1.64z" fill="#7facfa"/><path id="Shape" d="m30 32.99v4h-18c-1.1032019-.0032948-1.9967052-.8967981-2-2v-27c.0032948-1.10320187.8967981-1.9967052 2-2h2v24.01c.003059.5432691.4369035.9859676.98 1 5.0523258.2551595 10.0755416.9206854 15.02 1.99z" fill="#a4c2f7"/><path id="Shape" d="m50 7.99v27c-.0032948 1.1032019-.8967981 1.9967052-2 2h-18v-4c4.9444584-1.0693146 9.9676742-1.7348405 15.02-1.99.5430965-.0140324.976941-.4567309.98-1v-24.01h2c1.1032019.0032948 1.9967052.89679813 2 2z" fill="#a4c2f7"/><path id="Shape" d="m30 3.99v29c-4.9444584-1.0693146-9.9676742-1.7348405-15.02-1.99-.5430965-.0140324-.976941-.4567309-.98-1v-27c-.0000133-.26695823.1067151-.52283943.2964199-.71066593.1897047-.18782651.4466352-.29200365.7135801-.28933407 5.0425255.25397051 10.0558706.91951798 14.99 1.99z" fill="#fff"/><path id="Shape" d="m46 3v27c-.003059.5432691-.4369035.9859676-.98 1-5.0523258.2551595-10.0755416.9206854-15.02 1.99v-29c4.9341294-1.07048202 9.9474745-1.73602949 14.99-1.99.2669449-.00266958.5238754.10150756.7135801.28933407.1897048.1878265.2964332.4437077.2964199.71066593z" fill="#fff"/><path id="Shape" d="m55 12v30h-50v-30h5v22.99c.0032948 1.1032019.8967981 1.9967052 2 2h36c1.1032019-.0032948 1.9967052-.8967981 2-2v-22.99z" fill="url(#linearGradient-1)"/><path id="Shape" d="m4 8h6v4h-5v30h-4v-31c0-1.65685425 1.34314575-3 3-3z" fill="#a4c2f7"/><path id="Shape" d="m59 11v31h-4v-30h-5v-4h6c1.6568542 0 3 1.34314575 3 3z" fill="#a4c2f7"/><path id="Shape" d="m56 8h-3c1.6568542 0 3 1.34314575 3 3v31h3v-31c0-1.65685425-1.3431458-3-3-3z" fill="#7facfa"/><path id="Shape" d="m4 50h3c-1.65685425 0-3-1.3431458-3-3v-36c0-1.65685425 1.34314575-3 3-3h-3c-1.65685425 0-3 1.34314575-3 3v36c0 1.6568542 1.34314575 3 3 3z" fill="#fff"/><path id="Rectangle-path" d="m0 34h2v8h-2z" fill="#fff"/><g fill="#428dff"><path id="Shape" d="m1.02 39c-.55228473.0027614-1.00223852-.4427153-1.00499994-.995-.00276143-.5522847.44271521-1.0022385.99499994-1.005h.01c.55228475 0 1 .4477153 1 1s-.44771525 1-1 1z"/><path id="Shape" d="m32 45h-4c-.5522847 0-1 .4477153-1 1s.4477153 1 1 1h4c.5522847 0 1-.4477153 1-1s-.4477153-1-1-1z"/><path id="Shape" d="m56 7h-5.18c-.4165044-1.20238616-1.5475247-2.01014321-2.82-2.014h-1v-1.986c-.0014929-.54080879-.2197818-1.05843447-.606-1.437-.3809413-.37517418-.8985558-.57853566-1.433-.563-5.0322414.244643-10.0359796.90117253-14.961 1.963-4.9250204-1.06182747-9.9287586-1.718357-14.961-1.963-.5344646-.01565274-1.0521235.18772615-1.433.563-.3862182.37856553-.6045071.89619121-.606 1.437v1.986h-1c-1.2724753.00385679-2.40349564.81161384-2.82 2.014h-5.18c-2.209139 0-4 1.790861-4 4v23c0 .5522847.44771525 1 1 1s1-.4477153 1-1v-23c0-1.1045695.8954305-2 2-2h5v2h-4c-.55228475 0-1 .4477153-1 1v29h-3c-.55228475 0-1 .4477153-1 1v5c0 2.209139 1.790861 4 4 4h17.078c-.5332748 1.0141828-1.3115114 1.8790429-2.264 2.516-1.1398368.7282282-1.8250833 1.9914389-1.814 3.344v1.14c0 1.6568542 1.3431458 3 3 3h20c1.6568542 0 3-1.3431458 3-3v-1.14c.0110207-1.3530633-.6746223-2.6166865-1.815-3.345-.9523603-.6363853-1.7303249-1.5009814-2.263-2.515h17.078c2.209139 0 4-1.790861 4-4v-36c0-2.209139-1.790861-4-4-4zm2 4v30h-2v-29c0-.5522847-.4477153-1-1-1h-4v-2h5c1.1045695 0 2 .8954305 2 2zm-27-6.2c4.6121805-.96657597 9.2933179-1.5684365 14-1.8l-.007 27c-4.7032962.2146661-9.3822323.8011632-13.993 1.754zm14.042 27.2c1.0902027-.0180603 1.9630783-.9096596 1.958-2v-23.014h1c.5522847 0 1 .44771525 1 1v27c0 .5522847-.4477153 1-1 1h-17v-2.186c4.6259592-.9688629 9.321234-1.5707355 14.042-1.8zm-16.042-27.2v26.954c-4.6130447-.9533394-9.2943467-1.5398397-14-1.754l-.011-23.96c0-.019.011-.035.011-.054s-.01-.035-.011-.054v-2.932c4.710334.23137636 9.3951416.83323586 14.011 1.8zm-18 3.186c0-.55228475.4477153-1 1-1h1v23.014c-.0050783 1.0903404.8677973 1.9819397 1.958 2 4.7207418.2295385 9.4159951.8314083 14.042 1.8v2.189h-17c-.5522847 0-1-.4477153-1-1zm-5 5.014h3v21.985c0 1.6568542 1.3431458 3 3 3h36c1.6568542 0 3-1.3431458 3-3v-21.985h3v28h-48zm34 46h-20c-.5522847 0-1-.4477153-1-1v-1h22v1c0 .5522847-.4477153 1-1 1zm-.178-4h-19.644c1.390016-1.0241823 2.4756784-2.4067514 3.141-4h13.362c.6653652 1.593223 1.7510192 2.9757814 3.141 4zm18.178-8c0 1.1045695-.8954305 2-2 2h-52c-1.1045695 0-2-.8954305-2-2v-4h56z"/></g></g></g></svg>