<svg height="512" viewBox="0 0 60 56" width="512" xmlns="http://www.w3.org/2000/svg" xmlns:xlink="http://www.w3.org/1999/xlink"><linearGradient id="linearGradient-1" x1="-5.556%" x2="105.556%" y1="95.455%" y2="4.545%"><stop offset="0" stop-color="#d3dff2"/><stop offset=".172" stop-color="#d3dff2"/><stop offset=".2" stop-color="#d3dff2"/><stop offset=".2" stop-color="#dae2f2"/><stop offset=".201" stop-color="#ebeaf2"/><stop offset=".201" stop-color="#f6eff2"/><stop offset=".202" stop-color="#fdf2f2"/><stop offset=".205" stop-color="#fff3f2"/><stop offset=".252" stop-color="#fff3f2"/><stop offset=".26" stop-color="#fff3f2"/><stop offset=".26" stop-color="#d3dff2"/><stop offset=".397" stop-color="#d3dff2"/><stop offset=".42" stop-color="#d3dff2"/><stop offset=".42" stop-color="#dae2f2"/><stop offset=".421" stop-color="#ebeaf2"/><stop offset=".421" stop-color="#f6eff2"/><stop offset=".422" stop-color="#fdf2f2"/><stop offset=".425" stop-color="#fff3f2"/><stop offset=".489" stop-color="#fff3f2"/><stop offset=".5" stop-color="#fff3f2"/><stop offset=".5" stop-color="#f8f0f2"/><stop offset=".5" stop-color="#e7e8f2"/><stop offset=".5" stop-color="#dce3f2"/><stop offset=".5" stop-color="#d5e0f2"/><stop offset=".501" stop-color="#d3dff2"/><stop offset=".706" stop-color="#d3dff2"/><stop offset=".74" stop-color="#d3dff2"/><stop offset=".741" stop-color="#fff3f2"/><stop offset=".835" stop-color="#fff3f2"/><stop offset=".85" stop-color="#fff3f2"/><stop offset=".851" stop-color="#d3dff2"/></linearGradient><g id="Page-1" fill="none" fill-rule="evenodd"><g id="003---Laptop-Reading" fill-rule="nonzero"><path id="Shape" d="m2 45h56c.5522847 0 1 .4477153 1 1v4c0 2.7614237-2.2385763 5-5 5h-48c-1.32608245 0-2.59785201-.5267842-3.53553391-1.4644661-.93768189-.9376819-1.46446609-2.2094515-1.46446609-3.5355339v-4c0-.5522847.44771525-1 1-1z" fill="#e8edfc"/><path id="Shape" d="m58 45h-3c.5522847 0 1 .4477153 1 1v4c0 2.7614237-2.2385763 5-5 5h3c2.7614237 0 5-2.2385763 5-5v-4c0-.2652165-.1053568-.5195704-.2928932-.7071068s-.4418903-.2928932-.7071068-.2928932z" fill="#cad9fc"/><path id="Shape" d="m39 45-2.4 3.2c-.3777088.5036117-.9704854.8-1.6.8h-10c-.6295146 0-1.2222912-.2963883-1.6-.8l-2.4-3.2z" fill="#a4c2f7"/><path id="Shape" d="m4 45v-40c0-2.209139 1.790861-4 4-4h44c2.209139 0 4 1.790861 4 4v40z" fill="#a4c2f7"/><path id="Shape" d="m52 1h-3c2.209139 0 4 1.790861 4 4v40h3v-40c0-2.209139-1.790861-4-4-4z" fill="#7facfa"/><path id="Rectangle-path" d="m12 1h36v44h-36z" fill="url(#linearGradient-1)" transform="matrix(0 1 -1 0 53 -7)"/><path id="Shape" d="m42 13h2c1.1032019.0032948 1.9967052.8967981 2 2v20c-.0032948 1.1032019-.8967981 1.9967052-2 2h-28c-1.1032019-.0032948-1.9967052-.8967981-2-2v-20c.0032948-1.1032019.8967981-1.9967052 2-2h2" fill="#e8edfc"/><path id="Shape" d="m30 33c-3.5407301-1.2484875-7.2592126-1.9193878-11.013-1.987-.5472013-.0071142-.9870462-.4527525-.987-1v-20c-.0000435-.26836485.1077807-.52548511.2992283-.71354761s.4504503-.29128296.7187717-.28645239c3.7433812.07068232 7.4511738.74154225 10.982 1.987z" fill="#fff"/><path id="Shape" d="m30 11c3.5308822-1.24511721 7.2386732-1.91563925 10.982-1.986.2683214-.00483057.5273241.09838989.7187717.28645239s.2992718.44518276.2992283.71354761v20c.0000462.5472475-.4397987.9928858-.987 1-3.7537328.0672907-7.4722138.737853-11.013 1.986z" fill="#fff"/><path id="Shape" d="m6 55h3c-2.76142375 0-5-2.2385763-5-5v-4c0-.5522847.44771525-1 1-1h2v-40c0-2.209139 1.790861-4 4-4h-3c-2.209139 0-4 1.790861-4 4v40h-2c-.55228475 0-1 .4477153-1 1v4c0 1.3260824.5267842 2.597852 1.46446609 3.5355339.9376819.9376819 2.20945146 1.4644661 3.53553391 1.4644661z" fill="#fff"/><path id="Rectangle-path" d="m3 37h2v8h-2z" fill="#fff"/><g fill="#428dff"><circle id="Oval" cx="6" cy="49" r="1"/><circle id="Oval" cx="10" cy="49" r="1"/><path id="Shape" d="m4.02 42c-.55228475.0027614-1.00223858-.4427153-1.005-.995s.44271525-1.0022386.995-1.005h.01c.55228475 0 1 .4477153 1 1s-.44771525 1-1 1z"/><path id="Shape" d="m58 44h-1v-39c-.0033061-2.76005315-2.2399468-4.99669388-5-5h-44c-2.76005315.00330612-4.99669388 2.23994685-5 5v32c0 .5522847.44771525 1 1 1s1-.4477153 1-1v-32c0-1.65685425 1.34314575-3 3-3h44c1.6568542 0 3 1.34314575 3 3v39h-53c-1.1045695 0-2 .8954305-2 2v4c.00330738 3.3123376 2.68766243 5.9966926 6 6h48c3.3123376-.0033074 5.9966926-2.6876624 6-6v-4c0-1.1045695-.8954305-2-2-2zm-21 2-1.2 1.6c-.1888544.2518058-.4852427.4-.8.4h-10c-.3147573 0-.6111456-.1481942-.8-.4l-1.2-1.6zm21 4c0 2.209139-1.790861 4-4 4h-48c-2.209139 0-4-1.790861-4-4v-4h18.5l2.1 2.8c.568209.7534428 1.4563204 1.1974985 2.4 1.2h10c.9437534-.0021906 1.8319955-.4463116 2.4-1.2l2.1-2.8h18.5z"/><path id="Shape" d="m52 42c.5522847 0 1-.4477153 1-1v-36c0-.55228475-.4477153-1-1-1h-44c-.55228475 0-1 .44771525-1 1v36c0 .5522847.44771525 1 1 1zm-43-36h42v34h-42z"/><path id="Shape" d="m44 12h-1v-1.984c-.0014842-.54179405-.2205531-1.06028121-.608-1.439-.3825948-.37502977-.9014898-.57796573-1.437-.562-3.727635.08179635-7.4213045.72848354-10.955 1.918-3.5336955-1.18951646-7.227365-1.83620365-10.955-1.918-.5360592-.01916355-1.0561713.18424843-1.437.562-.3874469.37871879-.6065158.89720595-.608 1.439v1.984h-1c-1.6568542 0-3 1.3431458-3 3v20c0 1.6568542 1.3431458 3 3 3h28c1.6568542 0 3-1.3431458 3-3v-20c0-1.6568542-1.3431458-3-3-3zm-13-.294c3.2361142-1.0355652 6.6033045-1.6046203 10-1.69l-.014 20c-3.3842815.0817337-6.7425491.6144291-9.986 1.584zm-2 0v19.894c-3.2477832-.9719798-6.6108658-1.505701-10-1.587l-.008-16.975c0-.014.008-.026.008-.041s-.008-.027-.008-.041v-2.945c3.3995543.0869869 6.769392.6577178 10.008 1.695zm-14 23.294v-20c0-.5522847.4477153-1 1-1h1v16.016c-.0002178 1.0891352.8710826 1.9782173 1.96 2 3.4099873.0832065 6.7906848.6522681 10.04 1.69v2.294h-13c-.5522847 0-1-.4477153-1-1zm30 0c0 .5522847-.4477153 1-1 1h-13v-2.3c3.2488443-1.0399426 6.6297655-1.6097153 10.04-1.692 1.0889174-.0217827 1.9602178-.9108648 1.96-2v-16.008h1c.5522847 0 1 .4477153 1 1z"/></g></g></g></svg>