<svg height="512" viewBox="0 0 60 60" width="512" xmlns="http://www.w3.org/2000/svg"><g id="Page-1" fill="none" fill-rule="evenodd"><g id="005---Domino-Books" fill-rule="nonzero"><path id="Shape" d="m37.02 50.45-.87 4.93-14.77-2.61.87-4.92z" fill="#a4c2f7"/><path id="Shape" d="m21.38 52.77 14.77 2.61-.35 1.97c-.1930197 1.0836591-1.2254011 1.8076668-2.31 1.62l-10.84-1.91c-1.0860301-.1963792-1.8097297-1.2327885-1.62-2.32z" fill="#e8edfc"/><path id="Shape" d="m43.44 14.02-.86 4.92h-.01l-14.77-2.61.87-4.92z" fill="#a4c2f7"/><path id="Shape" d="m27.8 16.33 14.77 2.61-5.55 31.51-14.77-2.6z" fill="#e8edfc"/><path id="Shape" d="m43.79 12.05-.35 1.97-14.77-2.61.35-1.97c.0926158-.52258399.3891442-.98692802.8242853-1.29077655s.9732096-.42228339 1.4957147-.32922345l10.83 1.91c.522584.09261578.986928.3891442 1.2907766.8242853.3038485.4351411.4222833.9732096.3292234 1.4957147z" fill="#e8edfc"/><path id="Rectangle-path" d="m44 50h15v5h-15z" fill="#e8edfc"/><path id="Rectangle-path" d="m44 5h15v5h-15z" fill="#e8edfc"/><path id="Shape" d="m59 3v2h-15v-2c.0032948-1.10320187.8967981-1.9967052 2-2h11c1.1032019.0032948 1.9967052.89679813 2 2z" fill="#a4c2f7"/><path id="Rectangle-path" d="m44 10h15v40h-15z" fill="#a4c2f7"/><path id="Shape" d="m44 55h15v2c-.0032948 1.1032019-.8967981 1.9967052-2 2h-11c-1.1032019-.0032948-1.9967052-.8967981-2-2z" fill="#a4c2f7"/><rect id="Rectangle-path" fill="#e8edfc" height="30" rx="1" width="7" x="48" y="15"/><path id="Shape" d="m16.29 54.77-.93 2.86c-.1626954.5055255-.5197667.9255889-.9924898 1.1675781-.472723.2419892-1.0222804.2860333-1.5275102.1224219l-10.46-3.4c-1.04879708-.3430516-1.62158291-1.4707237-1.28-2.52l.93-2.86z" fill="#a4c2f7"/><path id="Shape" d="m26.18 24.35-.93 2.85-14.27-4.64.93-2.85c.3430516-1.0487971 1.4707237-1.6215829 2.52-1.28l10.47 3.4c1.0487971.3430516 1.6215829 1.4707237 1.28 2.52z" fill="#a4c2f7"/><path id="Shape" d="m25.25 27.2-8.96 27.57-14.26-4.63 8.95-27.58z" fill="#e8edfc"/><path id="Shape" d="m2.38 55.52 10.46 3.4c.6488361.2077885 1.3588191.0709924 1.884-.363l-9.344-3.037c-1.04879708-.3430516-1.62158291-1.4707237-1.28-2.52 3.019-9.285 8.732-26.923 10.81-33.29.1203767-.3597442.3401954-.6780307.634-.918l-1.114-.362c-1.0492763-.3415829-2.1769484.2312029-2.52 1.28-2.078 6.367-7.791 24.005-10.81 33.29-.34158291 1.0492763.23120292 2.1769484 1.28 2.52z" fill="#fff"/><path id="Rectangle-path" d="m-.041 43.196h8v2h-8z" fill="#fff" transform="matrix(.309 -.951 .951 .309 -39.297 34.304)"/><g fill="#428dff"><path id="Shape" d="m57 0h-11c-1.6568542 0-3 1.34314575-3 3v5.947c-.2108768-.09184536-.4316811-.15895913-.658-.2l-10.833-1.913c-1.6306215-.2840158-3.1840429.80360271-3.475 2.433l-2.11 11.967c-.2227296-.1509474-.4645069-.271668-.719-.359l-10.462-3.4c-1.5756601-.5118625-3.2679516.3504003-3.78 1.926l-.914 2.812c0 .014-.016.022-.02.036s0 .027-.005.041l-5.78 17.793c-.1294341.3444788-.05921367.7322116.18281075 1.0094173.24202442.2772058.61674097.3990873.97553118.3173044.3587902-.0817829.64367249-.3540138.74165807-.7087217l5.483-16.878 12.363 4.02-8.34 25.668-12.362-4.011.386-1.188c.14240448-.5155043-.14600104-1.0518067-.65458601-1.2172307-.50858498-.165424-1.05730472.0985924-1.24541399.5992307l-1.624 5c-.51186249 1.5756601.35040032 3.2679516 1.926 3.78l10.462 3.4c.3003267.0977726.614159.1477157.93.148 1.2984457-.0035412 2.4478566-.840393 2.85-2.075l6.857-21.1-1.91 10.834-.872 4.919-.347 1.969c-.1383578.783588.0402544 1.5900438.4965384 2.2419317.4562841.6518879 1.1528578 1.0958004 1.9364616 1.2340683l10.833 1.91c.783588.1383578 1.5900438-.0402544 2.2419317-.4965384.6518879-.4562841 1.0958004-1.1528578 1.2340683-1.9364616l1.212-6.894 5-28.337v34.709c0 1.6568542 1.3431458 3 3 3h11c1.6568542 0 3-1.3431458 3-3v-54c0-1.65685425-1.3431458-3-3-3zm-33.943 49.007 12.8 2.257-.521 2.955-12.8-2.258zm13.15.288-12.8-2.258 5.209-29.544 12.8 2.258zm-7.245-33.771.52-2.955 12.8 2.258-.521 2.954zm16.038-4.524h13v38h-13zm0-2v-3h13v3zm0 42h13v3h-13zm1-49h11c.5522847 0 1 .44771525 1 1v1h-13v-1c0-.55228475.4477153-1 1-1zm-15.012 6.789c.0583405-.00042794.1165935.00459387.174.015l10.838 1.91c.5436188.0959871.9066296.6143182.811 1.158l-.174.985-12.807-2.257.17-.985c.0846292-.47897014.5016133-.82758242.988-.826zm-18.74 13.132.617-1.9c.1706828-.5251999.73478-.8126208 1.26-.642l10.462 3.4c.5251999.1706828.8126208.73478.642 1.26l-.619 1.9zm2.165 35.4c-.1706828.5251999-.73478.8126208-1.26.642l-10.462-3.4c-.52479917-.1711046-.81170592-.735071-.641-1.26l.62-1.903 12.364 4.015zm19.247.66-10.833-1.91c-.5436188-.0959871-.9066296-.6143182-.811-1.158l.173-.985 12.8 2.258-.174.984c-.0945907.5434545-.6113864.9076724-1.155.814zm23.34.019h-11c-.5522847 0-1-.4477153-1-1v-1h13v1c0 .5522847-.4477153 1-1 1z"/><path id="Shape" d="m54 14h-5c-1.1045695 0-2 .8954305-2 2v28c0 1.1045695.8954305 2 2 2h5c1.1045695 0 2-.8954305 2-2v-28c0-1.1045695-.8954305-2-2-2zm-5 30v-28h5v28z"/><path id="Shape" d="m3.979 45.2c-.55228473.0030375-1.00246237-.4422153-1.00549994-.9945-.00303756-.5522847.44221521-1.0024624.99449994-1.0055h.011c.55228475 0 1 .4477153 1 1s-.44771525 1-1 1z"/><path id="Shape" d="m14.409 29.789c-.2523523-.081892-.5269042-.0601469-.7632191.0604487-.2363148.1205956-.4150212.3301561-.4967809.5825513l-5.47 16.849c-.17062083.52522.11680011 1.0893172.642 1.26.09983728.0322521.20408272.048783.309.049.43347789-.0001675.81748883-.279595.951-.692l5.47-16.849c.1706208-.52522-.1168001-1.0893172-.642-1.26z"/><path id="Shape" d="m12.119 48.721c-.1706208.52522.1168001 1.0893172.642 1.26.0998373.0322521.2040827.048783.309.049.4334779-.0001675.8174888-.279595.951-.692l2.93-9.029c.1294341-.3444788.0592137-.7322116-.1828107-1.0094173-.2420245-.2772058-.616741-.3990873-.9755312-.3173044s-.6436725.3540138-.7416581.7087217z"/><path id="Shape" d="m37.768 23.169-6.894-1.216c-.5440005-.0960975-1.0629024.2669995-1.159.811-.0960975.5440005.2669995 1.0629024.811 1.159l6.894 1.216c.0578078.0099115.1163487.0149293.175.015.5188038.0002315.951625-.3963308.9966698-.9131754.0450449-.5168446-.312648-.982303-.8236698-1.0718246z"/><path id="Shape" d="m37.073 27.108-6.893-1.215c-.3555032-.0709282-.7215532.0560921-.9567102.3319806-.2351569.2758886-.3025916.6574372-.1762476.9972173s.4266793.5845769.7849578.6398021l6.894 1.216c.0574769.0098697.115682.0148874.174.015.5188038.0002315.951625-.3963308.9966698-.9131754.0450449-.5168446-.312648-.982303-.8236698-1.0718246z"/></g></g></g></svg>