<svg height="512" viewBox="0 0 60 60" width="512" xmlns="http://www.w3.org/2000/svg"><g id="Page-1" fill="none" fill-rule="evenodd"><g id="006---Large-Book" fill-rule="nonzero"><path id="Shape" d="m59 57c-.0081672 1.1011688-.8988312 1.9918328-2 2h-45.69c-5.32501409.06779-9.80437605-3.9758363-10.28-9.28-.02-.25-.03-.49-.03-.74.01103009-5.5150354 4.48495357-9.980011 10-9.98h46c1.1032019.0032948 1.9967052.8967981 2 2-.0081672 1.1011688-.8988312 1.9918328-2 2h-46c-3.2494364.0056802-5.9065153 2.5919037-6 5.84.02641344 3.4262669 2.82371036 6.1832828 6.25 6.16h45.75c1.1032019.0032948 1.9967052.8967981 2 2z" fill="#a4c2f7"/><path id="Shape" d="m56 41c-.0081672 1.1011688-.8988312 1.9918328-2 2h3c1.1011688-.0081672 1.9918328-.8988312 2-2-.0032948-1.1032019-.8967981-1.9967052-2-2h-3c1.1032019.0032948 1.9967052.8967981 2 2z" fill="#7facfa"/><path id="Shape" d="m57 55h-3c1.1032019.0032948 1.9967052.8967981 2 2-.0081672 1.1011688-.8988312 1.9918328-2 2h3c1.1011688-.0081672 1.9918328-.8988312 2-2-.0032948-1.1032019-.8967981-1.9967052-2-2z" fill="#7facfa"/><path id="Shape" d="m54 49c-.0235975 2.0628844.3887326 4.1074967 1.21 6h-43.96c-3.42628964.0232828-6.22358656-2.7337331-6.25-6.16.0934847-3.2480963 2.7505636-5.8343198 6-5.84h44.21c-.8212674 1.8925033-1.2335975 3.9371156-1.21 6z" fill="#e8edfc"/><path id="Shape" d="m59 41v16c-.0032948-1.1032019-.8967981-1.9967052-2-2h-1.79c-1.6133371-3.8373215-1.6133371-8.1626785 0-12h1.79c1.1011688-.0081672 1.9918328-.8988312 2-2z" fill="#a4c2f7"/><path id="Shape" d="m58.41 42.41c-.3704612.3798589-.8794095.5928231-1.41.59h-1v12h1c1.1032019.0032948 1.9967052.8967981 2.0000277 2v-16c.0027954.5305905-.2101688 1.0395388-.5900277 1.41z" fill="#7facfa"/><path id="Shape" d="m59 3v38c-.0032948-1.1032019-.8967981-1.9967052-2-2h-46v-38h46c1.1032019.0032948 1.9967052.89679813 2 2z" fill="#e8edfc"/><path id="Shape" d="m57 1h-3c1.1032019.0032948 1.9967052.89679813 2 2v36h1c1.1032019.0032948 1.9967052.8967981 2 2v-38c-.0032948-1.10320187-.8967981-1.9967052-2-2z" fill="#cad9fc"/><path id="Shape" d="m11 1v38c-5.51504643-.000011-9.98896991 4.4649646-10 9.98v-38c.01103009-5.5150354 4.48495357-9.98001103 10-9.98z" fill="#a4c2f7"/><rect id="Rectangle-path" fill="#fff" height="18" rx="1" width="39" x="16" y="5"/><path id="Shape" d="m11.31 59h3c-5.32501409.06779-9.80437605-3.9758363-10.28-9.28-.045-.556-.03 1.914-.03-38.74.01103009-5.5150354 4.48495357-9.98001103 10-9.98h-3c-5.51504643-.00001103-9.98896991 4.4649646-10 9.98 0 40.654-.015 38.184.03 38.74.47562395 5.3041637 4.95498591 9.34779 10.28 9.28z" fill="#fff"/><path id="Rectangle-path" d="m0 10.98h2v8h-2z" fill="#fff"/><g fill="#428dff"><path id="Shape" d="m11 48h24c.5522847 0 1-.4477153 1-1s-.4477153-1-1-1h-24c-.5522847 0-1 .4477153-1 1s.4477153 1 1 1z"/><path id="Shape" d="m49 46h-10c-.5522847 0-1 .4477153-1 1s.4477153 1 1 1h10c.5522847 0 1-.4477153 1-1s-.4477153-1-1-1z"/><path id="Shape" d="m49 50h-24c-.5522847 0-1 .4477153-1 1s.4477153 1 1 1h24c.5522847 0 1-.4477153 1-1s-.4477153-1-1-1z"/><path id="Shape" d="m21 50h-10c-.5522847 0-1 .4477153-1 1s.4477153 1 1 1h10c.5522847 0 1-.4477153 1-1s-.4477153-1-1-1z"/><path id="Shape" d="m1.02 15.98c-.55228475.0027614-1.00223858-.4427153-1.005-.995s.44271525-1.0022386.995-1.005h.01c.55228475 0 1 .4477153 1 1s-.44771525 1-1 1z"/><path id="Shape" d="m57 0h-46c-6.06733033-.00001003-10.98896849 4.9126797-11 10.98 0 .5522847.44771525 1 1 1s1-.4477153 1-1c.01183086-4.57470022 3.45360946-8.41271357 8-8.921v35.99c-3.22911794.2724782-6.16553376 1.9796369-8 4.651v-23.72c0-.5522847-.44771525-1-1-1s-1 .4477153-1 1v30h.014c0 .269-.006.537.013.808.51584844 5.8291998 5.43239982 10.2786701 11.284 10.212h45.689c1.6568542 0 3-1.3431458 3-3v-54c0-1.65685425-1.3431458-3-3-3zm1 3v35.184c-.320257-.1184378-.6585603-.1806856-1-.184h-45v-36h45c.5522847 0 1 .44771525 1 1zm-1 55h-45.689c-4.80295813.0711869-8.85051653-3.568478-9.288-8.352-.17997018-2.4930985.68498889-4.9487468 2.38768185-6.7787103 1.70269295-1.8299634 4.08973231-2.8693892 6.58931815-2.8692897h46c.5522847 0 1 .4477153 1 1s-.4477153 1-1 1h-46c-3.79484449.0034929-6.89767233 3.0265338-7 6.82-.03800959 1.8495334.6778323 3.6349867 1.983 4.946 1.38603368 1.4206069 3.28427327 2.2254404 5.269 2.234h45.748c.5522847 0 1 .4477153 1 1s-.4477153 1-1 1zm-1.1-4c-1.1945687-3.2263088-1.1945687-6.7736912 0-10h1.1c.3414397-.0033144.679743-.0655622 1-.184v10.368c-.320257-.1184378-.6585603-.1806856-1-.184zm-2.139 0h-42.5c-1.44523607-.0078377-2.82685176-.5954297-3.835-1.631-.9313293-.9239169-1.44620988-2.187288-1.426-3.499.0751865-2.7084724 2.29048697-4.866175 5-4.87h42.757c-1.0093364 3.2569263-1.0093364 6.7430737 0 10z"/><path id="Shape" d="m17 24h37c1.1045695 0 2-.8954305 2-2v-16c0-1.1045695-.8954305-2-2-2h-37c-1.1045695 0-2 .8954305-2 2v16c0 1.1045695.8954305 2 2 2zm0-18h37v16h-37z"/><path id="Shape" d="m51 27h-31c-.5522847 0-1 .4477153-1 1s.4477153 1 1 1h31c.5522847 0 1-.4477153 1-1s-.4477153-1-1-1z"/><path id="Shape" d="m46 32h-21c-.5522847 0-1 .4477153-1 1s.4477153 1 1 1h21c.5522847 0 1-.4477153 1-1s-.4477153-1-1-1z"/></g></g></g></svg>