<svg height="512" viewBox="0 0 44 60" width="512" xmlns="http://www.w3.org/2000/svg"><g id="Page-1" fill="none" fill-rule="evenodd"><g id="007---Hardback-Book" fill-rule="nonzero"><path id="Shape" d="m40 4v9h-33c-3.3137085 0-6-2.6862915-6-6 .00495634-3.31165334 2.68834666-5.99504366 6-6h30c1.6568542 0 3 1.34314575 3 3z" fill="#fff"/><path id="Shape" d="m37 1h-3c1.6568542 0 3 1.34314575 3 3v9h3v-9c0-1.65685425-1.3431458-3-3-3z" fill="#e8edfc"/><path id="Shape" d="m43 16v40c0 1.6568542-1.3431458 3-3 3h-33v-46h33c1.6568542 0 3 1.3431458 3 3z" fill="#e8edfc"/><path id="Shape" d="m40 13h-3c1.6568542 0 3 1.3431458 3 3v40c0 1.6568542-1.3431458 3-3 3h3c1.6568542 0 3-1.3431458 3-3v-40c0-1.6568542-1.3431458-3-3-3z" fill="#cad9fc"/><path id="Shape" d="m7 13v46c-3.3137085 0-6-2.6862915-6-6v-46c0 3.3137085 2.6862915 6 6 6z" fill="#a4c2f7"/><path id="Shape" d="m21.486 27.925-2.972-1.782c-.3160652-.1909495-.7119348-.1909495-1.028 0l-2.972 1.782c-.3088279.1850542-.6932921.189814-1.0066067.0124622-.3133147-.1773518-.5071089-.5094349-.5073933-.8694622v-14.068h10v14.068c-.0002844.3600273-.1940786.6921104-.5073933.8694622-.3133146.1773518-.6977788.172592-1.0066067-.0124622z" fill="#a4c2f7"/><rect id="Rectangle-path" fill="#fff" height="20" rx="2" width="26" x="12" y="34"/><path id="Shape" d="m7 59h3c-3.3137085 0-6-2.6862915-6-6v-46c0-3.3137085 2.6862915-6 6-6h-3c-3.3137085 0-6 2.6862915-6 6v46c0 3.3137085 2.6862915 6 6 6z" fill="#fff"/><path id="Rectangle-path" d="m0 45h2v8h-2z" fill="#fff"/><g fill="#428dff"><path id="Shape" d="m1.02 50c-.55228475.0027614-1.00223858-.4427153-1.005-.995s.44271525-1.0022386.995-1.005h.01c.55228475 0 1 .4477153 1 1s-.44771525 1-1 1z"/><path id="Shape" d="m7 60h33c2.209139 0 4-1.790861 4-4v-40c-.0068148-1.8184116-1.2393149-3.4034067-3-3.858v-8.142c0-2.209139-1.790861-4-4-4h-30c-3.86416566.00440864-6.99559136 3.13583434-7 7v38c0 .5522847.44771525 1 1 1s1-.4477153 1-1v-33.111c1.07343742 1.0988219 2.47946197 1.8127308 4 2.031v43.98c-2.3264168-.4784327-3.99700171-2.5248992-4-4.9 0-.5522847-.44771525-1-1-1s-1 .4477153-1 1c.00440864 3.8641657 3.13583434 6.9955914 7 7zm35-44v40c0 1.1045695-.8954305 2-2 2h-32v-44h4v13.067c-.0003674.7207281.3870751 1.3859104 1.014163 1.7411705.627088.3552602 1.3968196.3456442 2.014837-.0251705l2.971-1.783 2.971 1.783c.6165694.3748886 1.3883149.3844683 2.014.025.630766-.3515506 1.0198288-1.0188987 1.015-1.741v-13.067h16c1.1045695 0 2 .8954305 2 2zm-19.995 11.07-2.971-1.783c-.633369-.3800257-1.424631-.3800257-2.058 0l-2.976 1.78v-13.067h8zm-20.005-20.07c.00330612-2.76005315 2.23994685-4.99669388 5-5h30c1.1045695 0 2 .8954305 2 2h-32c-.55228475 0-1 .44771525-1 1s.44771525 1 1 1h32v2h-32c-.55228475 0-1 .44771525-1 1s.44771525 1 1 1h32v2h-32c-2.76005315-.0033061-4.99669388-2.23994685-5-5z"/><path id="Shape" d="m36 33h-22c-1.6568542 0-3 1.3431458-3 3v16c0 1.6568542 1.3431458 3 3 3h22c1.6568542 0 3-1.3431458 3-3v-16c0-1.6568542-1.3431458-3-3-3zm1 19c0 .5522847-.4477153 1-1 1h-22c-.5522847 0-1-.4477153-1-1v-16c0-.5522847.4477153-1 1-1h22c.5522847 0 1 .4477153 1 1z"/><path id="Shape" d="m33 41h-16c-.5522847 0-1 .4477153-1 1s.4477153 1 1 1h16c.5522847 0 1-.4477153 1-1s-.4477153-1-1-1z"/><path id="Shape" d="m31 45h-12c-.5522847 0-1 .4477153-1 1s.4477153 1 1 1h12c.5522847 0 1-.4477153 1-1s-.4477153-1-1-1z"/></g></g></g></svg>