<svg height="512" viewBox="0 0 44 60" width="512" xmlns="http://www.w3.org/2000/svg"><g id="Page-1" fill="none" fill-rule="evenodd"><g id="008---Audio-Book" fill-rule="nonzero"><path id="Shape" d="m40 4v9h-33c-3.3137085 0-6-2.6862915-6-6 .00495634-3.31165334 2.68834666-5.99504366 6-6h30c1.6568542 0 3 1.34314575 3 3z" fill="#fff"/><path id="Shape" d="m37 1h-3c1.6568542 0 3 1.34314575 3 3v9h3v-9c0-1.65685425-1.3431458-3-3-3z" fill="#e8edfc"/><path id="Shape" d="m43 16v40c0 1.6568542-1.3431458 3-3 3h-33v-46h33c1.6568542 0 3 1.3431458 3 3z" fill="#e8edfc"/><path id="Shape" d="m40 13h-3c1.6568542 0 3 1.3431458 3 3v40c0 1.6568542-1.3431458 3-3 3h3c1.6568542 0 3-1.3431458 3-3v-40c0-1.6568542-1.3431458-3-3-3z" fill="#cad9fc"/><path id="Shape" d="m7 13v46c-3.3137085 0-6-2.6862915-6-6v-46c0 3.3137085 2.6862915 6 6 6z" fill="#a4c2f7"/><path id="Shape" d="m18 31v10h-3c-1.6568542 0-3-1.3431458-3-3v-4c0-1.6568542 1.3431458-3 3-3z" fill="#7facfa"/><path id="Shape" d="m27 26.04v19.92c.0007498.3812998-.2169005.7293534-.5600509.8956001-.3431503.1662468-.7511879.1213215-1.0499491-.1156001l-7.39-5.74v-10l7.39-5.74c.2987612-.2369216.7067988-.2818469 1.0499491-.1156001.3431504.1662467.5608007.5143003.5600509.8956001z" fill="#a4c2f7"/><path id="Shape" d="m7 59h3c-3.3137085 0-6-2.6862915-6-6v-46c0-3.3137085 2.6862915-6 6-6h-3c-3.3137085 0-6 2.6862915-6 6v46c0 3.3137085 2.6862915 6 6 6z" fill="#fff"/><path id="Rectangle-path" d="m0 45h2v8h-2z" fill="#fff"/><g fill="#428dff"><path id="Shape" d="m1.02 50c-.55228475.0027614-1.00223858-.4427153-1.005-.995s.44271525-1.0022386.995-1.005h.01c.55228475 0 1 .4477153 1 1s-.44771525 1-1 1z"/><path id="Shape" d="m7 60h33c2.209139 0 4-1.790861 4-4v-40c-.0068148-1.8184116-1.2393149-3.4034067-3-3.858v-8.142c0-2.209139-1.790861-4-4-4h-30c-3.86416566.00440864-6.99559136 3.13583434-7 7v38c0 .5522847.44771525 1 1 1s1-.4477153 1-1v-33.111c1.07343742 1.0988219 2.47946197 1.8127308 4 2.031v43.98c-2.3264168-.4784327-3.99700171-2.5248992-4-4.9 0-.5522847-.44771525-1-1-1s-1 .4477153-1 1c.00440864 3.8641657 3.13583434 6.9955914 7 7zm35-44v40c0 1.1045695-.8954305 2-2 2h-32v-44h32c1.1045695 0 2 .8954305 2 2zm-40-9c.00330612-2.76005315 2.23994685-4.99669388 5-5h30c1.1045695 0 2 .8954305 2 2h-32c-.55228475 0-1 .44771525-1 1s.44771525 1 1 1h32v2h-32c-.55228475 0-1 .44771525-1 1s.44771525 1 1 1h32v2h-32c-2.76005315-.0033061-4.99669388-2.23994685-5-5z"/><path id="Shape" d="m26.879 24.249c-.6858206-.3396686-1.5057606-.255263-2.108.217l-7.115 5.534h-2.656c-2.209139 0-4 1.790861-4 4v4c0 2.209139 1.790861 4 4 4h2.656l7.116 5.534c.6028594.4689635 1.4201776.5536249 2.1063605.218186.6861828-.3354388 1.1214058-1.0324019 1.1216395-1.796186v-19.912c.0030384-.7642424-.4329422-1.4623558-1.121-1.795zm-13.879 13.751v-4c0-1.1045695.8954305-2 2-2h2v8h-2c-1.1045695 0-2-.8954305-2-2zm13 7.955-7-5.444v-9.022l7-5.445z"/><path id="Shape" d="m34.125 27.511c-.187777.1875683-.2932867.4420908-.2932867.7075s.1055097.5199317.2932867.7075c3.9052873 3.9075146 3.9052873 10.2404854 0 14.148-.3896369.3915699-.3880699 1.0248631.0035 1.4145s1.0248631.3880699 1.4145-.0035c4.6815036-4.688054 4.6815036-12.281946 0-16.97-.1871553-.1892277-.4420225-.2960424-.7081684-.2967932-.266146-.0007507-.5216117.1046244-.7098316.2927932z"/><path id="Shape" d="m32.707 30.343c-.3923789-.3789722-1.0160848-.3735524-1.4018186.0121814s-.3911536 1.0094397-.0121814 1.4018186c1.1254381 1.1252475 1.7577187 2.651525 1.7577187 4.243s-.6322806 3.1177525-1.7577187 4.243c-.2599566.2510745-.3642126.6228779-.2726972.9725073.0915155.3496295.3645604.6226744.7141899.7141899.3496294.0915154.7214328-.0127406.9725073-.2726972 1.5003802-1.5003029 2.3432915-3.5351967 2.3432915-5.657s-.8429113-4.1566971-2.3432915-5.657z"/><path id="Shape" d="m13 18h-2c-.5522847 0-1-.4477153-1-1s.4477153-1 1-1h2c.5522847 0 1 .4477153 1 1s-.4477153 1-1 1z"/><path id="Shape" d="m29 18h-12c-.5522847 0-1-.4477153-1-1s.4477153-1 1-1h12c.5522847 0 1 .4477153 1 1s-.4477153 1-1 1z"/></g></g></g></svg>