<svg height="512" viewBox="0 0 60 60" width="512" xmlns="http://www.w3.org/2000/svg"><g id="Page-1" fill="none" fill-rule="evenodd"><g id="009---Two-Books" fill-rule="nonzero"><path id="Shape" d="m6 26v33h-2c-1.65685425 0-3-1.3431458-3-3v-33c0 1.6568542 1.34314575 3 3 3z" fill="#e8edfc"/><path id="Shape" d="m24 20v6h-20c-1.65685425 0-3-1.3431458-3-3s1.34314575-3 3-3z" fill="#a4c2f7"/><path id="Shape" d="m36 40v17c-.0032948 1.1032019-.8967981 1.9967052-2 2h-28v-33h18v11c-.0016714.7393528.2729499 1.452655.77 2h-13.77c-.5522847 0-1 .4477153-1 1v14c0 .5522847.4477153 1 1 1h20c.5522847 0 1-.4477153 1-1v-14z" fill="#e8edfc"/><path id="Shape" d="m33 40v17c-.0032948 1.1032019-.8967981 1.9967052-2 2h3c1.1032019-.0032948 1.9967052-.8967981 2-2v-17z" fill="#cad9fc"/><path id="Shape" d="m24 35h-13c-.5522847 0-1-.4477153-1-1v-3c0-.5522847.4477153-1 1-1h13z" fill="#fff"/><path id="Shape" d="m32 40v14c0 .5522847-.4477153 1-1 1h-20c-.5522847 0-1-.4477153-1-1v-14c0-.5522847.4477153-1 1-1h13.77c.5630056.6411361 1.3767743 1.0060548 2.23 1z" fill="#fff"/><path id="Shape" d="m29 7v33h-2c-1.6568542 0-3-1.3431458-3-3v-33c0 1.65685425 1.3431458 3 3 3z" fill="#e8edfc"/><path id="Shape" d="m57 3v4h-30c-1.6568542-.00000002-3-1.34314577-3-3s1.3431458-2.99999998 3-3h28c1.1032019.0032948 1.9967052.89679813 2 2z" fill="#a4c2f7"/><path id="Shape" d="m55 1h-3c1.1032019.0032948 1.9967052.89679813 2 2v4h3v-4c-.0032948-1.10320187-.8967981-1.9967052-2-2z" fill="#7facfa"/><path id="Shape" d="m59 9v29c-.0032948 1.1032019-.8967981 1.9967052-2 2h-28v-33h28c1.1032019.0032948 1.9967052.89679813 2 2z" fill="#e8edfc"/><path id="Shape" d="m57 7h-3c1.1032019.0032948 1.9967052.89679813 2 2v29c-.0032948 1.1032019-.8967981 1.9967052-2 2h3c1.1032019-.0032948 1.9967052-.8967981 2-2v-29c-.0032948-1.10320187-.8967981-1.9967052-2-2z" fill="#cad9fc"/><g fill="#fff"><rect id="Rectangle-path" height="5" rx="1" width="22" x="33" y="11"/><rect id="Rectangle-path" height="16" rx="1" width="22" x="33" y="20"/><path id="Shape" d="m4 59h3c-1.65685425 0-3-1.3431458-3-3v-33c0-1.6568542 1.34314575-3 3-3h-3c-1.65685425 0-3 1.3431458-3 3v33c0 1.6568542 1.34314575 3 3 3z"/><path id="Shape" d="m27.7 38.907c.025.03.044.064.07.093.067.076-.01-.02-.07-.093z"/><path id="Rectangle-path" d="m0 48h2v8h-2z"/></g><path id="Shape" d="m1.02 53c-.55228475.0027614-1.00223858-.4427153-1.005-.995s.44271525-1.0022386.995-1.005h.01c.55228475 0 1 .4477153 1 1s-.44771525 1-1 1z" fill="#428dff"/><path id="Shape" d="m58 6.184v-3.184c0-1.65685425-1.3431458-3-3-3h-28c-2.209139 0-4 1.790861-4 4v15h-19c-2.209139 0-4 1.790861-4 4v25c0 .5522847.44771525 1 1 1s1-.4477153 1-1v-21.556c.60534654.3599241 1.29574677.5518554 2 .556h1v31h-1c-1.1045695 0-2-.8954305-2-2 0-.5522847-.44771525-1-1-1s-1 .4477153-1 1c0 2.209139 1.790861 4 4 4h30c1.6568542 0 3-1.3431458 3-3v-16h20c1.6568542 0 3-1.3431458 3-3v-29c-.0052514-1.26678543-.8056491-2.39374545-2-2.816zm-31-4.184h28c.5522847 0 1 .44771525 1 1v3h-29c-1.1045695 0-2-.8954305-2-2s.8954305-2 2-2zm-4 32h-12v-3h12zm1.382 6c.7218919.6408252 1.6527168.9963733 2.618 1h4v13h-20v-14zm3.618-1h-1c-1.1045695 0-2-.8954305-2-2v-29.556c.6053465.35992409 1.2957468.55185536 2 .556h1zm-26-16c0-1.1045695.8954305-2 2-2h19v4h-19c-1.1045695 0-2-.8954305-2-2zm33 34c0 .5522847-.4477153 1-1 1h-27v-31h16v2h-12c-1.1045695 0-2 .8954305-2 2v3c0 1.1045695.8954305 2 2 2h12v1c.0042237.3380459.0519493.6741416.142 1h-12.142c-1.1045695 0-2 .8954305-2 2v14c0 1.1045695.8954305 2 2 2h20c1.1045695 0 2-.8954305 2-2v-13h2zm23-19c0 .5522847-.4477153 1-1 1h-27v-31h27c.5522847 0 1 .44771525 1 1z" fill="#428dff"/><path id="Shape" d="m54 10h-20c-1.1045695 0-2 .8954305-2 2v3c0 1.1045695.8954305 2 2 2h20c1.1045695 0 2-.8954305 2-2v-3c0-1.1045695-.8954305-2-2-2zm-20 5v-3h20v3z" fill="#428dff"/><path id="Shape" d="m54 19h-20c-1.1045695 0-2 .8954305-2 2v14c0 1.1045695.8954305 2 2 2h20c1.1045695 0 2-.8954305 2-2v-14c0-1.1045695-.8954305-2-2-2zm-20 16v-14h20v14z" fill="#428dff"/></g></g></svg>