<svg height="512" viewBox="0 0 60 60" width="512" xmlns="http://www.w3.org/2000/svg"><g id="Page-1" fill="none" fill-rule="evenodd"><g id="010---Open-Book" fill-rule="nonzero"><path id="Shape" d="m37 20v30c0 1.66-3.13 3-7 3s-7-1.34-7-3v-30c0 1.66 3.13 3 7 3s7-1.34 7-3z" fill="#e8edfc"/><path id="Shape" d="m37 50v6c0 1.66-3.13 3-7 3s-7-1.34-7-3v-6c0 1.66 3.13 3 7 3s7-1.34 7-3z" fill="#a4c2f7"/><path id="Shape" d="m59 2.75v39.11c.0021048.7067231-.3709589 1.3614879-.98 1.72l-21.02 12.42v-42l19.03-11.25 1.46-.86c.3090648-.18324549.6926808-.18659574 1.004899-.00877613.3122181.17781961.5050383.50947127.505101.86877613z" fill="#e8edfc"/><path id="Shape" d="m57.49 1.89-1.46.86-.03.018v39.092c.0021048.7067231-.3709589 1.3614879-.98 1.72l-18.02 10.647v1.773l21.02-12.42c.6090411-.3585121.9821048-1.0132769.98-1.72v-39.11c-.0000627-.35930486-.1928829-.69095652-.505101-.86877613-.3122182-.17781961-.6958342-.17446936-1.004899.00877613z" fill="#cad9fc"/><path id="Shape" d="m56.03 2.75-19.03 11.25c-2.1241069 1.1226043-4.4550302 1.7997631-6.85 1.99.47-3.52 2.07-5.56 4.72-7.99 5.58-5.11 13.99-6.68 21.16-5.25z" fill="#a4c2f7"/><path id="Shape" d="m29.85 15.99c-2.4158843-.066988-4.7742711-.7521252-6.85-1.99l-19.03-11.25c7.17-1.43 15.58.14 21.16 5.25 2.65 2.43 4.25 4.47 4.72 7.99z" fill="#a4c2f7"/><path id="Shape" d="m23 14v42l-21.02-12.42c-.60904107-.3585121-.98210477-1.0132769-.98-1.72v-39.11c.00006266-.35930486.19288286-.69095652.50510101-.86877613s.69583415-.17446936 1.00489899.00877613l1.46.86z" fill="#e8edfc"/><path id="Shape" d="m37 14v6c0 1.66-3.13 3-7 3s-7-1.34-7-3v-6c2.0757289 1.2378748 4.4341157 1.923012 6.85 1.99.1.01.15.01.15.01s.05 0 .15-.01c2.3949698-.1902369 4.7258931-.8673957 6.85-1.99z" fill="#a4c2f7"/><path id="Shape" d="m53 4.54v13.939c-.0002375.307341-.1417889.597502-.3838627.7868662s-.557779.2568957-.8561373.1831338l-2.15-.54c-.3719808-.0898025-.762802.0378915-1.01.33l-2.83 3.4c-.2690667.3247138-.7129175.4457359-1.1095666.3025389-.3966491-.1431971-.6608368-.5198332-.6604334-.9415389v-12.14z" fill="#a4c2f7"/><path id="Shape" d="m1.98 43.58 21.02 12.42c0 1.66 3.13 3 7 3 .516 0 1.016-.025 1.5-.07-3.147-.294-5.5-1.491-5.5-2.93l-21.02-12.42c-.60904107-.3585121-.98210477-1.0132769-.98-1.72v-39.115h-.031l-1.459-.855c-.30906484-.18324549-.69268084-.18659574-1.00489899-.00877613s-.50503835.50947127-.50510101.86877613v39.11c-.00210477.7067231.37095893 1.3614879.98 1.72z" fill="#fff"/><path id="Rectangle-path" d="m0 33.859h2v8h-2z" fill="#fff"/><g fill="#428dff"><path id="Shape" d="m58.991 1.015c-.6227305-.36047-1.3920899-.3543427-2.009.016l-1.139.669c-8-1.479-16.265.629-21.649 5.559-1.7880845 1.48206917-3.2212168 3.3460979-4.194 5.455-.9732912-2.107459-2.4063903-3.97007774-4.194-5.451-5.384-4.931-13.65-7.04-21.649-5.563l-1.139-.669c-.616729-.37098587-1.38644042-.37711598-2.009-.016-.62703474.35258101-1.0133634 1.01764828-1.009 1.737v31.107c0 .5522847.44771525 1 1 1s1-.4477153 1-1v-31.107l20 11.819v39.677l-19.509-11.528c-.30439063-.1799963-.49108256-.5073726-.491-.861 0-.5522847-.44771525-1-1-1s-1 .4477153-1 1c.00232307 1.0601948.56223193 2.0409849 1.474 2.582l20.616 12.183c.586 2.217 4.264 3.376 7.91 3.376s7.324-1.159 7.91-3.376l20.616-12.183c.9117681-.5410151 1.4716769-1.5218052 1.474-2.582v-39.107c.0043634-.71935172-.3819653-1.38441899-1.009-1.737zm-6.991 17.464-2.157-.542c-.7432211-.1809129-1.5247087.0757066-2.016.662l-2.827 3.401v-11.566l7-4.134zm-16.454-9.742c4.322-3.958 10.973-5.955 17.528-5.4l-16.545 9.78c-1.6203116.8213178-3.3514123 1.4027305-5.139 1.726.617-2.457 1.987-4.117 4.156-6.106zm-5.546 8.263c2.071023-.1134677 4.1041256-.6027677 6-1.444v4.444c0 .7-2.278 2-6 2s-6-1.3-6-2v-4.317c1.8980809.8164664 3.9344586 1.2634513 6 1.317zm-6 5.732c1.8725173.8884419 3.9281312 1.3228616 6 1.268 2.0718688.0548616 4.1274827-.3795581 6-1.268v27.268c0 .7-2.278 2-6 2s-6-1.3-6-2zm.454-13.995c2.184 2 3.56 3.67 4.171 6.156-1.7971052-.1914772-3.5290198-.7807381-5.07-1.725-.008 0-.018 0-.026-.01s-.012-.014-.02-.019l-16.582-9.798c6.555-.558 13.206 1.438 17.527 5.396zm5.546 49.263c-3.722 0-6-1.3-6-2v-3.268c1.8725173.8884419 3.9281312 1.3228616 6 1.268 2.0718688.0548616 4.1274827-.3795581 6-1.268v3.268c0 .705-2.278 2-6 2zm28-16.141c.0000826.3536274-.1866094.6810037-.491.861l-19.509 11.528v-39.677l5-2.955v10.384c-.0050598.843838.5252517 1.598157 1.321 1.879.2217121.0811028.4559198.1227322.692.123.5908306-.0010174 1.1502398-.2662324 1.525-.723l2.828-3.4 2.148.54c.5975648.1496952 1.2307729.0156585 1.7164263-.363331.4856535-.3789894.7695575-.9606395.7695737-1.576669v-13.363l4-2.364z"/><path id="Shape" d="m1.02 38.859c-.55228475.0027614-1.00223858-.4427153-1.005-.995s.44271525-1.0022386.995-1.005h.01c.55228475 0 1 .4477153 1 1s-.44771525 1-1 1z"/><path id="Shape" d="m27 49c.5522847 0 1-.4477153 1-1v-21c0-.5522847-.4477153-1-1-1s-1 .4477153-1 1v21c0 .5522847.4477153 1 1 1z"/><path id="Shape" d="m33 49c.5522847 0 1-.4477153 1-1v-21c0-.5522847-.4477153-1-1-1s-1 .4477153-1 1v21c0 .5522847.4477153 1 1 1z"/><path id="Shape" d="m5 11c-.55228475 0-1-.4477153-1-1v-2c0-.55228475.44771525-1 1-1s1 .44771525 1 1v2c0 .5522847-.44771525 1-1 1z"/><path id="Shape" d="m5 35c-.55228475 0-1-.4477153-1-1v-20c0-.5522847.44771525-1 1-1s1 .4477153 1 1v20c0 .5522847-.44771525 1-1 1z"/></g></g></g></svg>