<svg height="512" viewBox="0 0 44 60" width="512" xmlns="http://www.w3.org/2000/svg"><g id="Page-1" fill="none" fill-rule="evenodd"><g id="011---Romance-Novel" fill-rule="nonzero"><path id="Shape" d="m43 44v12c0 1.6568542-1.3431458 3-3 3h-33c-3.3137085 0-6-2.6862915-6-6s2.6862915-6 6-6h33c1.6568542 0 3-1.3431458 3-3z" fill="#fff"/><path id="Shape" d="m40 47v9c0 1.6568542-1.3431458 3-3 3h3c1.6568542 0 3-1.3431458 3-3v-12c0 1.6568542-1.3431458 3-3 3z" fill="#e8edfc"/><path id="Shape" d="m7 1v46c-3.3137085 0-6 2.6862915-6 6v-46c0-3.3137085 2.6862915-6 6-6z" fill="#a4c2f7"/><path id="Shape" d="m43 4v40c0 1.6568542-1.3431458 3-3 3h-33v-46h33c1.6568542 0 3 1.34314575 3 3z" fill="#e8edfc"/><path id="Shape" d="m40 1h-3c1.6568542 0 3 1.34314575 3 3v40c0 1.6568542-1.3431458 3-3 3h3c1.6568542 0 3-1.3431458 3-3v-40c0-1.65685425-1.3431458-3-3-3z" fill="#cad9fc"/><rect id="Rectangle-path" fill="#fff" height="5" rx="1" width="26" x="12" y="33"/><path id="Shape" d="m25 10c1.4201136-1.88409812 3.6406533-2.99436796 6-3 3.552 0 6 3.08 6 6.667 0 4.077-3.219 10.009-11.54 14.225-.2897758.1439424-.6302242.1439424-.92 0-8.321-4.216-11.54-10.148-11.54-14.225 0-3.587 2.448-6.667 6-6.667 2.3593467.00563204 4.5798864 1.11590188 6 3z" fill="#a4c2f7"/><path id="Shape" d="m7 59h3c-3.3137085 0-6-2.6862915-6-6v-46c0-3.3137085 2.6862915-6 6-6h-3c-3.3137085 0-6 2.6862915-6 6v46c0 3.3137085 2.6862915 6 6 6z" fill="#fff"/><path id="Rectangle-path" d="m0 7h2v8h-2z" fill="#fff"/><g fill="#428dff"><path id="Shape" d="m7 60h33c2.209139 0 4-1.790861 4-4v-52c0-2.209139-1.790861-4-4-4h-33c-3.86416566.00440864-6.99559136 3.13583434-7 7 0 .55228475.44771525 1 1 1s1-.44771525 1-1c.00299829-2.37510083 1.6735832-4.42156735 4-4.9v43.98c-1.52036629.2181401-2.92633137.9316674-4 2.03v-33.11c0-.5522847-.44771525-1-1-1s-1 .4477153-1 1v38c.00440864 3.8641657 3.13583434 6.9955914 7 7zm35-56v40c0 1.1045695-.8954305 2-2 2h-32v-44h32c1.1045695 0 2 .8954305 2 2zm-35 44h33c.7042532-.0041446 1.3946535-.1960759 2-.556v2.556h-35c-.55228475 0-1 .4477153-1 1s.44771525 1 1 1h35v2h-35c-.55228475 0-1 .4477153-1 1s.44771525 1 1 1h35c0 1.1045695-.8954305 2-2 2h-33c-2.76142375 0-5-2.2385763-5-5s2.23857625-5 5-5z"/><path id="Shape" d="m1.02 12c-.55228474.0027614-1.00223854-.4427153-1.00499996-.995-.00276143-.5522847.44271523-1.0022386.99499996-1.005h.01c.55228475 0 1 .4477153 1 1s-.44771525 1-1 1z"/><path id="Shape" d="m13 39h24c1.1045695 0 2-.8954305 2-2v-3c0-1.1045695-.8954305-2-2-2h-24c-1.1045695 0-2 .8954305-2 2v3c0 1.1045695.8954305 2 2 2zm0-5h24v3h-24z"/><path id="Shape" d="m24.088 28.784c.5742301.2880705 1.2507699.2880705 1.825 0 8.921-4.52 12.087-10.969 12.087-15.117 0-4.299-3.075-7.667-7-7.667-2.2497243-.00361271-4.4084603.88794525-6 2.478-1.5915397-1.59005475-3.7502757-2.48161271-6-2.478-3.925 0-7 3.368-7 7.667 0 4.148 3.166 10.597 12.088 15.117zm-5.088-20.784c2.0296808-.0023224 3.943493.94533287 5.172 2.561.1861007.2746116.4962697.4390611.828.439.3304608.0000744.6396201-.1631138.826-.436 1.2286157-1.61698787 3.1432014-2.56576981 5.174-2.564 2.851 0 5 2.436 5 5.667 0 3.582-2.878 9.223-11.008 13.333-8.114-4.11-10.992-9.751-10.992-13.333 0-3.231 2.149-5.667 5-5.667z"/><path id="Shape" d="m17 15c-.5522847 0-1-.4477153-1-1-.0315929-1.0702387.3796808-2.1061138 1.1367835-2.8632165s1.7929778-1.16837645 2.8632165-1.1367835c.5522847-.00165684 1.0013431.4447153 1.003.997.0016568.5522847-.4447153 1.0013431-.997 1.003-.5411723-.035899-1.0715853.1630423-1.4556669.5459751s-.5846109.9127475-.5503331 1.4540249c0 .5522847-.4477153 1-1 1z"/></g></g></g></svg>