<svg height="512" viewBox="0 0 56 60" width="512" xmlns="http://www.w3.org/2000/svg" xmlns:xlink="http://www.w3.org/1999/xlink"><linearGradient id="linearGradient-1" x1="-8.824%" x2="103.985%" y1="6.522%" y2="89.902%"><stop offset="0" stop-color="#d3dff2"/><stop offset=".172" stop-color="#d3dff2"/><stop offset=".2" stop-color="#d3dff2"/><stop offset=".2" stop-color="#dae2f2"/><stop offset=".201" stop-color="#ebeaf2"/><stop offset=".201" stop-color="#f6eff2"/><stop offset=".202" stop-color="#fdf2f2"/><stop offset=".205" stop-color="#fff3f2"/><stop offset=".252" stop-color="#fff3f2"/><stop offset=".26" stop-color="#fff3f2"/><stop offset=".26" stop-color="#d3dff2"/><stop offset=".397" stop-color="#d3dff2"/><stop offset=".42" stop-color="#d3dff2"/><stop offset=".42" stop-color="#dae2f2"/><stop offset=".421" stop-color="#ebeaf2"/><stop offset=".421" stop-color="#f6eff2"/><stop offset=".422" stop-color="#fdf2f2"/><stop offset=".425" stop-color="#fff3f2"/><stop offset=".489" stop-color="#fff3f2"/><stop offset=".5" stop-color="#fff3f2"/><stop offset=".5" stop-color="#f8f0f2"/><stop offset=".5" stop-color="#e7e8f2"/><stop offset=".5" stop-color="#dce3f2"/><stop offset=".5" stop-color="#d5e0f2"/><stop offset=".501" stop-color="#d3dff2"/><stop offset=".706" stop-color="#d3dff2"/><stop offset=".74" stop-color="#d3dff2"/><stop offset=".741" stop-color="#fff3f2"/><stop offset=".835" stop-color="#fff3f2"/><stop offset=".85" stop-color="#fff3f2"/><stop offset=".851" stop-color="#d3dff2"/></linearGradient><g id="Page-1" fill="none" fill-rule="evenodd"><g id="012---E-Reader" fill-rule="nonzero"><path id="Shape" d="m43 5v23.54c-.507545.0723892-.9945075.2494664-1.43.52l-1.31.78c-1.1911625-.5388856-2.5713055-.4566007-3.69.22l-1.45.87-.15.09-3.78-6.57c-.4829054-.892286-1.4154211-1.4487254-2.43-1.45-.3494908.002539-.695429.0703701-1.02.2-.7063425.2798638-1.2657548.8390018-1.5459649 1.545207-.2802101.7062051-.2563405 1.4967794.0659649 2.184793l3.6 7.12c-1.6809865.630786-2.7274599 2.3133511-2.55 4.1l.52 5.16c.1056892 1.0791813.6520211 2.0669203 1.51 2.73l7.27 5.66c.2470861.1872793.3915758.4799636.39.79v5.51c0 .5522847.4477153 1 1 1h-33c-2.209139 0-4-1.790861-4-4v-50c0-2.209139 1.790861-4 4-4h34c2.209139 0 4 1.790861 4 4z" fill="#a4c2f7"/><path id="Shape" d="m39 1h-3c2.209139 0 4 1.790861 4 4v23.54c-.507545.0723892-.9945075.2494664-1.43.52l-.941.561c.8762818-.2295287 1.8047257-.1522466 2.631.219l1.31-.78c.4354925-.2705336.922455-.4476108 1.43-.52v-23.54c0-2.209139-1.790861-4-4-4z" fill="#7facfa"/><path id="Shape" d="m39 5v24.51c-.8482044-.0849217-1.7010339.1081055-2.43.55l-1.45.87-.15.09-3.78-6.57c-.4829054-.892286-1.4154211-1.4487254-2.43-1.45-.3494908.002539-.695429.0703701-1.02.2-.7063425.2798638-1.2657548.8390018-1.5459649 1.545207-.2802101.7062051-.2563405 1.4967794.0659649 2.184793l3.6 7.12c-1.6809865.630786-2.7274599 2.3133511-2.55 4.1l.52 5.16c.1056892 1.0791813.6520211 2.0669203 1.51 2.73l6.37 4.96h-30.71v-46z" fill="url(#linearGradient-1)"/><path id="Shape" d="m55 37.89v5.95c-.0017571 2.0935992-.3393804 4.173359-1 6.16s-.9982429 4.0664008-1 6.16v1.84c0 .5522847-.4477153 1-1 1h-14c-.5522847 0-1-.4477153-1-1v-5.51c.0015758-.3100364-.1429139-.6027207-.39-.79l-.9-.7-6.37-4.96c-.8579789-.6630797-1.4043108-1.6508187-1.51-2.73l-.52-5.16c-.1774599-1.7866489.8690135-3.469214 2.55-4.1l-3.6-7.12c-.3223054-.6880136-.346175-1.4785879-.0659649-2.184793.2802101-.7062052.8396224-1.2653432 1.5459649-1.545207.324571-.1296299.6705092-.197461 1.02-.2 1.0145789.0012746 1.9470946.557714 2.43 1.45l3.78 6.57.15-.09 1.45-.87c.7289661-.4418945 1.5817956-.6349217 2.43-.55.4357073.0375635.8618166.1491636 1.26.33l1.31-.78c.4354925-.2705336.922455-.4476108 1.43-.52 1.0977362-.1697353 2.216692.1235832 3.09.81l.48-.29c.9096215-.5466321 1.9991843-.7093891 3.0288429-.4524434 1.0296586.2569458 1.9150083.9125316 2.4611571 1.8224434l.94 1.57 1.16 2.31c.551398 1.1129235.8388392 2.3379706.84 3.58z" fill="#e8edfc"/><path id="Shape" d="m54.16 34.31-1.16-2.31-.94-1.57c-1.0197004-1.6825677-3.1115675-2.3737786-4.933-1.63.8042321.3190265 1.4827519.8911876 1.933 1.63l.94 1.57 1.16 2.31c.551398 1.1129235.8388392 2.3379706.84 3.58v5.95c-.0017571 2.0935992-.3393804 4.173359-1 6.16s-.9982429 4.0664008-1 6.16v1.84c0 .5522847-.4477153 1-1 1h3c.5522847 0 1-.4477153 1-1v-1.84c.0017571-2.0935992.3393804-4.173359 1-6.16s.9982429-4.0664008 1-6.16v-5.95c-.0011608-1.2420294-.288602-2.4670765-.84-3.58z" fill="#cad9fc"/><path id="Shape" d="m8 1h-3c-2.209139 0-4 1.790861-4 4v50c0 2.209139 1.790861 4 4 4h3c-2.209139 0-4-1.790861-4-4v-50c0-2.209139 1.790861-4 4-4z" fill="#fff"/><path id="Rectangle-path" d="m0 47h2v8h-2z" fill="#fff"/><g fill="#428dff"><path id="Shape" d="m1.02 52c-.55228473.0027614-1.00223852-.4427153-1.00499994-.995-.00276143-.5522847.44271521-1.0022385.99499994-1.005h.01c.55228475 0 1 .4477153 1 1s-.44771525 1-1 1z"/><path id="Shape" d="m5 60h47c1.1045695 0 2-.8954305 2-2v-1.838c-.0006239-1.987063.3198396-3.9611719.949-5.846.6964654-2.0887522 1.0513591-4.276194 1.051-6.478v-5.948c-.002349-1.3977566-.3260189-2.776262-.946-4.029l-1.2-2.375-.941-1.572c-.6825687-1.1375448-1.7902479-1.9562485-3.078-2.275-1.2603911-.318979-2.5957361-.1278047-3.716.532-.6464492-.3811514-1.3709875-.6105828-2.119-.671v-22.5c-.0033061-2.76005315-2.2399468-4.99669388-5-5h-34c-2.76005315.00330612-4.99669388 2.23994685-5 5v42c.00000001.5522847.44771526 1 1 1s.99999999-.4477153 1-1v-42c0-1.65685425 1.34314575-3 3-3h34c1.6568542 0 3 1.34314575 3 3v22.772c-.3278989.110272-.6435651.2540308-.942.429l-.9.534c-.053-.018-.107-.032-.161-.048v-23.687c0-.55228475-.4477153-1-1-1h-33.997c-.55228475 0-1 .44771525-1 1v46c0 .5522847.44771525 1 1 1h30.37l.63.49v5.51h-31c-1.65685425 0-3-1.3431458-3-3 0-.5522847-.44771525-1-1-1s-1 .4477153-1 1c.00330612 2.7600532 2.23994685 4.9966939 5 5zm1-10v-44h32v22.536c-.6878131.0840036-1.3503872.3112205-1.945.667l-.725.435-2.093-3.638h1.763c.5522847 0 1-.4477153 1-1s-.4477153-1-1-1h-2.914l-.013-.021c-.6508974-1.2241628-1.9258893-1.987503-3.3123318-1.9830996-1.3864424.0044034-2.6565598.775827-3.2996682 2.0040996h-16.461c-.55228475 0-1 .4477153-1 1s.44771525 1 1 1h16.022c.0283619.4771034.1453577.9447478.345 1.379l.818 1.621h-17.185c-.55228475 0-1 .4477153-1 1s.44771525 1 1 1h18.2l1.327 2.631c-.5498341.3592678-1.0224042.8246983-1.39 1.369h-18.137c-.55228475 0-1 .4477153-1 1s.44771525 1 1 1h17.364c-.0695188.4128777-.0859855.8329473-.049 1.25l.52 5.161c.1353585 1.350314.8189484 2.5859091 1.891 3.418l4.074 3.171zm31.224.911-7.275-5.664c-.6381742-.4961148-1.0445522-1.2325845-1.124-2.037l-.52-5.16c-.1007349-1.0090708.3237065-1.9991824 1.124-2.622l2.678 5.305c.1700994.3375641.5160011.5503671.894.55.1564393.0001712.3106787-.0368462.45-.108.4928024-.2489005.6906572-.8500749.442-1.343l-6.727-13.326c-.2041713-.4390291-.2187967-.9427052-.0404442-1.3928418.1783524-.4501365.5339831-.8071103.9834442-.9871582.8412187-.334165 1.7988732.0222017 2.217.825l3.783 6.575v.008.006l3.016 5.241c.1786328.3097493.5089456.5006699.8665127.500844s.6880657-.1904248.867-.5c.1789343-.3095751.1791201-.6910947.0004873-1.000844l-2.539-4.412.758-.456c.8411864-.5068416 1.8780844-.5666914 2.772-.16.5635783.245895 1.0357677.662471 1.35 1.191l.94 1.57c.1836345.3065339.5168537.491815.8741371.4860498.3572833-.0057652.6843511-.2017009.858-.514.1736488-.3122991.1674974-.6935159-.0161371-1.0000498l-.941-1.572c-.2270223-.3688866-.5006058-.7070008-.814-1.006 1.071452-.6370263 2.4265295-.5380106 3.394.248.2822008.2148147.519945.4824467.7.788l.94 1.57c.2838744.4738603.8981397.6278744 1.372.344s.6278744-.8981397.344-1.372l-.942-1.573c-.061-.1-.137-.181-.2-.275 1.3257062-.4261062 2.7704879.1143936 3.491 1.306l.9 1.5 1.158 2.3c.4859245.9776701.7398372 2.0542323.742 3.146v5.948c.0006239 1.987063-.3198396 3.9611719-.949 5.846-.6964654 2.0887522-1.0513591 4.276194-1.051 6.478v1.838h-14v-5.51c.0039416-.6190572-.2834911-1.2039236-.776-1.579z"/><path id="Shape" d="m25 56c.5522847 0 1-.4477153 1-1s-.4477153-1-1-1h-6c-.5522847 0-1 .4477153-1 1s.4477153 1 1 1z"/><path id="Shape" d="m17 11h10c.5522847 0 1-.4477153 1-1 0-.55228475-.4477153-1-1-1h-10c-.5522847 0-1 .44771525-1 1 0 .5522847.4477153 1 1 1z"/><path id="Shape" d="m9 16h26c.5522847 0 1-.4477153 1-1s-.4477153-1-1-1h-26c-.55228475 0-1 .4477153-1 1s.44771525 1 1 1z"/><path id="Shape" d="m9 21h26c.5522847 0 1-.4477153 1-1s-.4477153-1-1-1h-26c-.55228475 0-1 .4477153-1 1s.44771525 1 1 1z"/><path id="Shape" d="m23 41c0-.5522847-.4477153-1-1-1h-13c-.55228475 0-1 .4477153-1 1s.44771525 1 1 1h13c.5522847 0 1-.4477153 1-1z"/><path id="Shape" d="m23 45h-2c-.5522847 0-1 .4477153-1 1s.4477153 1 1 1h2c.5522847 0 1-.4477153 1-1s-.4477153-1-1-1z"/></g></g></g></svg>