<svg height="512" viewBox="0 0 60 49" width="512" xmlns="http://www.w3.org/2000/svg"><g id="Page-1" fill="none" fill-rule="evenodd"><g id="013---Book-Stack" fill-rule="nonzero" transform="translate(-1)"><path id="Shape" d="m60 10.76c.0022342.4033899-.2165122.7756426-.57.97l-26.52 13.92c-.8626812.4775565-1.8996236.5219969-2.8.12l-23.25-9.74c-.79882258-.3668256-1.70790055-.4133532-2.54-.13l27.9-13.78c1.2519991-.61820805 2.6987975-.71178208 4.02-.26l23.03 7.85c.4426864.15807341.7360093.5799762.73 1.05z" fill="#e8edfc"/><path id="Shape" d="m27 9.575 7.157-3.535c.1241417-.05534173.2581089-.08526333.394-.088.0949591.00108004.1891397.01728315.279.048l16 5.461-7.518 4.126z" fill="#fff"/><path id="Shape" d="m60.000017 10.76-.000017 10.35c-.0006475.7976426-.438249 1.5308171-1.14 1.91l-25.96 13.64c-.8590145.4778243-1.8931305.5223024-2.79.12l-11.69-4.9-.42-.18v-5.31l-7-2.74v5.12l-.25-.1-3.89-1.63c-.13-.06-.26-.12-.39-.19-5.73-2.87-5.36-9.69-2.18-10.94.01 0 .02-.01.03-.01.83209945-.2833532 1.74117742-.2368256 2.54.13l23.25 9.74c.9003764.4019969 1.9373188.3575565 2.8-.12l26.52-13.92c.3534878-.1943574.5722342-.5666101.570017-.97z" fill="#a4c2f7"/><path id="Shape" d="m59.43 11.73-2.43 1.275v8.105c-.0006475.7976426-.438249 1.5308171-1.14 1.91l-25.96 13.64c-.012.007-.026.009-.038.016l.248.1c.8968695.4023024 1.9309855.3578243 2.79-.12l25.96-13.636c.701751-.3791829 1.1393525-1.1123574 1.14-1.91l.000017-10.35c.0022172.4033899-.2165292.7756426-.570017.97z" fill="#7facfa"/><path id="Shape" d="m60.0000014 21.11-.0000014 10.94c.0008895.7979733-.4319344 1.5333909-1.13 1.92l-25.97 13.63c-.8561827.4877524-1.8950995.532437-2.79.12l-23.25-9.74c-6.14-2.75-5.82-9.85-2.57-11.13.01 0 .02-.01.03-.01.69504977-.2524633 1.45732875-.2489178 2.15.01.346.186 4.28 1.82 4.28 1.82l.25.1v6.28c0 .2761424.2238576.5.5.5h2.61c.1126463.0014219.2216519.0401013.31.11l2.77 2.23c.150052.1185759.3545982.1411705.5269131.0582041s.2822084-.256958.2830869-.4482041v-5.8l.42.18 11.69 4.9c.8968695.4023024 1.9309855.3578243 2.79-.12l25.96-13.64c.701751-.3791829 1.1393525-1.1123574 1.1400014-1.91z" fill="#a4c2f7"/><path id="Shape" d="m58.86 23.02-1.86.98v8.05c.0008895.7979733-.4319344 1.5333909-1.13 1.92l-25.97 13.63c-.012.007-.026.009-.038.016l.248.1c.8949005.412437 1.9338173.3677524 2.79-.12l25.97-13.626c.6980656-.3866091 1.1308895-1.1220267 1.13-1.92l.0000014-10.94c-.0006489.7976426-.4382504 1.5308171-1.1400014 1.91z" fill="#7facfa"/><path id="Shape" d="m18 26.39v11.11c-.0008785.1912461-.110772.3652377-.2830869.4482041s-.3768611.0603718-.5269131-.0582041l-2.77-2.23c-.0883481-.0698987-.1973537-.1085781-.31-.11h-2.61c-.2761424 0-.5-.2238576-.5-.5v-11.4z" fill="#e8edfc"/><path id="Shape" d="m6.86 37.98 23.25 9.74c.8811573.405612 1.9026054.3684954 2.752-.1l-23-9.636c-7.372-3.3-5.4-12.8-.39-11.13-5.73-2.87-5.36-9.69-2.18-10.94.1 0 6.247-3.081 27.93-13.79.2630654-.1249362.5359914-.22795239.816-.308-1.2652431-.38301196-2.6285629-.27297462-3.816.308-21.685 10.705-27.831 13.786-27.932 13.786-3.18 1.25-3.55 8.07 2.18 10.94-5.009-1.67-6.982 7.828.39 11.13z" fill="#fff"/><path id="Rectangle-path" d="m24.63 2.892h8v2h-8z" fill="#fff" transform="matrix(.897 -.443 .443 .897 1.236 13.078)"/><g fill="#428dff"><path id="Shape" d="m28.65 4.891c-.3572656.00178633-.6883456-.18716196-.8685254-.49566987-.1801798-.30850792-.1820858-.68970576-.005-1s.5062598-.5025438.8635254-.50433013h.01c.5522847 0 1 .44771525 1 1s-.4477153 1-1 1z"/><path id="Shape" d="m26 9.627c.0209423.3993298.2777652.7477909.653.886l16.317 6.008c.110801.0408122.2279218.0617992.346.062.167916-.0000423.3330735-.042708.48-.124l7.519-4.126c.3466733-.190844.5481941-.5681718.5140054-.9624242s-.297655-.7312575-.6720054-.8595758l-16.011-5.464c-.4735581-.15657288-.989693-.12065535-1.437.1l-7.157 3.534c-.3556822.17757741-.5723972.54897669-.552.946zm8.511-2.685 13.854 4.729-5.132 2.816-13.721-5.051z"/><path id="Shape" d="m60.992 10.576c-.0612437-.82912717-.6125988-1.54116287-1.4-1.808l-23.031-7.857c-1.5732981-.5420164-3.2983465-.42960723-4.788.312-.4914289.24665452-.6915272.84379605-.4479366 1.33675088s.839475.6967664 1.3339366.45624912c1.012761-.50458169 2.1854604-.58237747 3.256-.216l23.027 7.857c.017.005.051.017.058.087s-.032.1-.031.1l-26.541 13.93c-.5969002.330166-1.3152139.356894-1.935.072l-22.742-9.53 17.735-8.758c.3226075-.15692356.536437-.47463478.5603557-.83258519.0239187-.3579504-.1457389-.70128669-.4445998-.89973752-.298861-.19845082-.6811271-.22160504-1.0017559-.06067729l-20.725 10.235c-.17231117.0758954-.33790036.1662168-.495.27-.8395359.5061058-1.49247767 1.2706196-1.861 2.179-1.12228043 3.035332-.28165203 6.4481565 2.122 8.615-1.7080369.9789017-2.72694247 2.8292126-2.641 4.796.00056367 3.5503351 2.16953538 6.7401626 5.471 8.046l23.229 9.731c.5315966.2393959 1.107986.3631271 1.691.363.6918027.0016108 1.3725878-.1732319 1.978-.508l25.979-13.648c1.0189007-.5609639 1.6518738-1.6318839 1.652-2.795v-21.289c0-.025-.012-.046-.014-.07s.014-.075.006-.114zm-48.992 23.974v-5.8-3.638l5 1.964v9.378l-1.964-1.581c-.264243-.2074929-.5900324-.3211322-.926-.323zm17.7-2.49c.5339783.2421505 1.113682.3669573 1.7.366.6845941.0027744 1.3585551-.1693301 1.958-.5l25.6420084-12.875-.0000084 2.059c.0016054.4254429-.2282475.8181081-.6 1.025l-25.987 13.652c-.5908052.3280982-1.302828.3541116-1.916.07l-11.497-4.818v-3.178zm-10.7 1.14 10.7 4.489c.5320031.2365013 1.1077974.3584743 1.69.358.6897505.00244 1.3686396-.1717577 1.972-.506l25.638-13.465v3.747l-26.587 13.334c-.5969604.3351701-1.3198271.3583078-1.937.062l-11.476-4.51zm-15.644-14.961c.19932265-.6185839.66048074-1.118282 1.26111341-1.3665076.60063267-.2482255 1.28001601-.2198829 1.85788659.0775076l23.225 9.731c1.1793679.5336762 2.5413462.4799383 3.675-.145l25.625-13.45v3.727l-26.587 13.344c-.5969604.3351701-1.3198271.3583078-1.937.062l-12.071-4.74-.039-.015-11.14-4.375c-.51417709-.2021362-1.09486374.0508229-1.29699995.565s.05082288 1.0948638.56499995 1.297l3.506 1.376v2.942l-2.711-1.132-.015-.007c-4.18-1.879-4.809-5.819-3.918-7.891zm55.044 14.843-25.982 13.649c-.5908146.3308934-1.3049357.3565839-1.918.069l-23.231-9.728c-2.55227704-.9855348-4.24438714-3.4291654-4.269-6.165-.10024085-1.2662765.53521322-2.4776837 1.634-3.115l.04-.014c.44045654-.1563911.92015063-.1634196 1.365-.02.2.086.443.193.5.213l3.461 1.467v3.743l-2.774-1.092c-.5141771-.2021362-1.09486378.0508229-1.297.565s.0508229 1.0948638.565 1.297l3.536 1.392c.1396741.7012821.754944 1.206473 1.47 1.207h2.43l2.615 2.1c.2655276.2264334.6030344.3508713.952.351.3546839-.0003535.6975928-.1273043.967-.358l11.236 4.417c.5339783.2421505 1.113682.3669573 1.7.366.6842392.0024715 1.3578022-.1696192 1.957-.5l25.643-12.866v1.989c.0015227.4275002-.2279097.8225063-.6 1.033z"/></g></g></g></svg>