<svg height="512" viewBox="0 0 60 60" width="512" xmlns="http://www.w3.org/2000/svg"><g id="Page-1" fill="none" fill-rule="evenodd"><g id="015---Apple-Book" fill-rule="nonzero" transform="translate(-1)"><path id="Shape" d="m60 57c-.0081672 1.1011688-.8988312 1.9918328-2 2h-45.69c-5.32501409.06779-9.80437605-3.9758363-10.28-9.28-.19991146-2.7693387.76056309-5.4971265 2.65146594-7.5302738 1.89090285-2.0331472 4.5419894-3.1886027 7.31853406-3.1897262h46c1.1032019.0032948 1.9967052.8967981 2 2-.0081672 1.1011688-.8988312 1.9918328-2 2h-46c-3.2494364.0056802-5.9065153 2.5919037-6 5.84.02641344 3.4262669 2.82371036 6.1832828 6.25 6.16h45.75c1.1032019.0032948 1.9967052.8967981 2 2z" fill="#a4c2f7"/><path id="Shape" d="m57 41c-.0081672 1.1011688-.8988312 1.9918328-2 2h3c1.1011688-.0081672 1.9918328-.8988312 2-2-.0032948-1.1032019-.8967981-1.9967052-2-2h-3c1.1032019.0032948 1.9967052.8967981 2 2z" fill="#7facfa"/><path id="Shape" d="m58 55h-3c1.1032019.0032948 1.9967052.8967981 2 2-.0081672 1.1011688-.8988312 1.9918328-2 2h3c1.1011688-.0081672 1.9918328-.8988312 2-2-.0032948-1.1032019-.8967981-1.9967052-2-2z" fill="#cad9fc"/><path id="Shape" d="m55 49c-.0235975 2.0628844.3887326 4.1074967 1.21 6h-43.96c-3.42628964.0232828-6.22358656-2.7337331-6.25-6.16.0934847-3.2480963 2.7505636-5.8343198 6-5.84h44.21c-.8212674 1.8925033-1.2335975 3.9371156-1.21 6z" fill="#e8edfc"/><path id="Shape" d="m56.21 43h-3c-1.6133371 3.8373215-1.6133371 8.1626785 0 12h3c-1.6133371-3.8373215-1.6133371-8.1626785 0-12z" fill="#cad9fc"/><path id="Shape" d="m33.5 39h-5c-9.41.01-13.88-11.63-13.48-19.53.22-4.13 2.42-7.64 6.42-8.95 3.31-1.09 7.37-.54 9.5 2.46h.07c-.0010568.0075808-.0045695.0146061-.01.02 2.3213458.0431155 4.6390668-.2020926 6.9-.73 1.222954-.3013892 2.3929861-.7869357 3.47-1.44 3.4023142 1.5309102 5.5958253 4.9091519 5.61 8.64.4 7.9-4.07 19.54-13.48 19.53z" fill="#e8edfc"/><path id="Shape" d="m46.98 19.47c-.0141747-3.7308481-2.2076858-7.1090898-5.61-8.64-.4976184.3057582-1.0177875.5731974-1.556.8 2.5664472 1.7932657 4.1160746 4.7095111 4.166 7.84.4 7.9-4.07 19.54-13.48 19.5300064l3-.0000064c9.41.01 13.88-11.63 13.48-19.53z" fill="#cad9fc"/><path id="Shape" d="m44.53 7.78c-.8113812 1.24069263-1.8913501 2.2830677-3.16 3.05-1.0770139.6530643-2.247046 1.1386108-3.47 1.44-2.2609332.5279074-4.5786542.7731155-6.9.73.0054305-.0053939.0089432-.0124192.01-.02.09-.15.51-1.41.55-1.49.9837639-2.26504046 2.5630968-4.22106318 4.57-5.66 1.9992643-1.50197834 4.4506159-2.27794574 6.95-2.2.6691394.02691429 1.2980101.3268928 1.74.83.77.99.33 2.36-.29 3.32z" fill="#a4c2f7"/><path id="Shape" d="m28.5 39 3 .0000064c-9.41.0099936-13.88-11.6300064-13.48-19.5300064.0253263-4.6822154 3.4469326-8.6530416 8.074-9.37-2.7534376-.44584392-5.5641556.3346351-7.6934983 2.1363274s-3.3643643 4.4444191-3.3805017 7.2336726c-.4 7.9 4.07 19.54 13.48 19.53z" fill="#fff"/><path id="Shape" d="m2.03 49.72c.47562395 5.3041637 4.95498591 9.34779 10.28 9.28h3c-5.32501409.06779-9.80437605-3.9758363-10.28-9.28-.19991146-2.7693387.76056309-5.4971265 2.65146594-7.5302738 1.89090285-2.0331472 4.54198936-3.1886027 7.31853406-3.1897262h-3c-2.77654466.0011235-5.42763121 1.156579-7.31853406 3.1897262-1.89090285 2.0331473-2.8513774 4.7609351-2.65146594 7.5302738z" fill="#fff"/><path id="Shape" d="m17 27.086-1.917.571c-.7934739-2.6698799-1.1513979-5.4502066-1.06-8.234l2 .1c-.0804202 2.5570035.2494281 5.1103742.977 7.563z" fill="#fff"/><g fill="#428dff"><path id="Shape" d="m56.9 44h1.1c1.6568542 0 3-1.3431458 3-3s-1.3431458-3-3-3h-18c.8356233-.5544654 1.6070263-1.2000961 2.3-1.925 4.281-4.5 5.939-11.605 5.684-16.654-.0697035-3.5001092-1.8359498-6.7480482-4.736-8.709.8264205-.6816285 1.5422441-1.48718302 2.122-2.388 1.05-1.639 1.14-3.313.24-4.478-.6045913-.72136943-1.4811666-1.15983811-2.421-1.211-2.7438243-.11593649-5.4425855.72579138-7.634 2.381-1.393781.98982853-2.5979856 2.22248692-3.555 3.639v-1.6c-.0008439-.90842501-.3096523-1.78972754-.876-2.5l-3.343-4.18c-.345178-.43133436-.9746656-.50117792-1.406-.15599996-.4313343.34517795-.5011779.97466557-.156 1.40599996l3.343 4.175c.2831103.35594365.437478.79719557.438 1.252v3.574c-2.6292949-1.72052891-5.9123097-2.11129353-8.872-1.056-4.194 1.374-6.851 5.056-7.107 9.85-.0141655.2649785.0775674.5247225.2549989.7220352.1774314.1973128.4260112.3160139.6910011.3299648h.054c.532232.000748.9717922-.4155154 1-.947.21-3.937 2.353-6.948 5.734-8.056 2.778-.915 6.445-.625 8.372 2.09.2376792.2749311.5816074.435067.945.44 2.3830577.0438468 4.7621399-.2128428 7.081-.764 1.1313385-.2834099 2.2218333-.7101983 3.245-1.27 2.8151122 1.4704608 4.5813623 4.3819807 4.585 7.558.227 4.47-1.284 11.125-5.135 15.172-1.8646801 2.0945188-4.5327236 3.2963565-7.337 3.305h-5.011c-1.3852867-.0174912-2.7520836-.3204674-4.015-.89-1.2691647-.5967792-2.4089997-1.4366219-3.355-2.472-.2578583-.2441695-.4922202-.5120118-.7-.8l-.658-.848c-.4056767-.5981275-.7782364-1.2180588-1.116-1.857-.6849119-1.2907125-1.2396466-2.6463955-1.656-4.047-.1019993-.3424391-.3789397-.6044498-.7265003-.6873353-.3475605-.0828856-.7129387.0259464-.9585.2855-.2455612.2595535-.333999.6303962-.2319997.9728353.4543805 1.5278171 1.0593484 3.0067393 1.806 4.415.3760809.7097947.7907001 1.3984898 1.242 2.063l.743.961c.239738.3281533.5074015.6349627.8.917.6961844.7629007 1.4896505 1.4309587 2.36 1.987h-10.034c-3.05401531.0011405-5.97022083 1.2713251-8.05107692 3.5067331-2.08085609 2.2354079-3.1392149 5.2349913-2.92192308 8.2812669.51584844 5.8291998 5.43239982 10.2786701 11.284 10.212h45.689c1.6568542 0 3-1.3431458 3-3s-1.3431458-3-3-3h-1.1c-1.1945687-3.2263088-1.1945687-6.7736912 0-10zm-19.241-32.7c-1.7069481.4146418-3.4538241.6429763-5.21.681l.031-.088c.9064257-2.09846627 2.3678285-3.91009414 4.227-5.24 1.6609986-1.21710322 3.6374966-1.92986459 5.693-2.053.1950663-.00058287.3900202.00943188.584.03.3922925.00938209.7662951.16777898 1.046.443.549.71-.188 1.938-.341 2.177-1.4242447 2.06526174-3.5794524 3.5127893-6.03 4.05zm21.341 45.7c0 .5522847-.4477153 1-1 1h-45.689c-4.80315755.0712277-8.85102388-3.5683223-9.289-8.352-.17998273-2.493272.68510933-4.9490802 2.38802241-6.7790764 1.70291309-1.8299961 4.09021786-2.8693009 6.58997759-2.8689236h46c.5522847 0 1 .4477153 1 1s-.4477153 1-1 1h-46c-3.79446656.003478-6.89714114 3.0259262-7 6.819-.03882166 1.8496814.67714291 3.6354407 1.983 4.946 1.38547888 1.4215424 3.2839891 2.2268509 5.269 2.235h45.748c.5522847 0 1 .4477153 1 1zm-46.748-3c-1.4452592-.0077256-2.82691648-.5953352-3.835-1.631-.92793064-.9254881-1.43946743-2.1886265-1.417-3.499.07570557-2.7082448 2.2907008-4.8656501 5-4.87h42.757c-1.0093364 3.2569263-1.0093364 6.7430737 0 10z"/><path id="Shape" d="m12 48h24c.5522847 0 1-.4477153 1-1s-.4477153-1-1-1h-24c-.5522847 0-1 .4477153-1 1s.4477153 1 1 1z"/><path id="Shape" d="m50 46h-10c-.5522847 0-1 .4477153-1 1s.4477153 1 1 1h10c.5522847 0 1-.4477153 1-1s-.4477153-1-1-1z"/><path id="Shape" d="m50 50h-24c-.5522847 0-1 .4477153-1 1s.4477153 1 1 1h24c.5522847 0 1-.4477153 1-1s-.4477153-1-1-1z"/><path id="Shape" d="m22 50h-10c-.5522847 0-1 .4477153-1 1s.4477153 1 1 1h10c.5522847 0 1-.4477153 1-1s-.4477153-1-1-1z"/><path id="Shape" d="m15.231 24.467c-.3572656.0017863-.6883456-.187162-.8685254-.4956699s-.1820858-.6897057-.005-1c.1770858-.3102942.5062598-.5025438.8635254-.5043301h.01c.5522847 0 1 .4477153 1 1s-.4477153 1-1 1z"/><path id="Shape" d="m20 21c-.5522847 0-1-.4477153-1-1 0-4.746 3.271-6 5-6 .5522847-.0022091 1.0017908.4437153 1.004.996.0022091.5522847-.4437153 1.0017908-.996 1.004-.314.006-3.008.17-3.008 4 0 .5522847-.4477153 1-1 1z"/></g></g></g></svg>