<svg height="512" viewBox="0 0 53 60" width="512" xmlns="http://www.w3.org/2000/svg"><g id="Page-1" fill="none" fill-rule="evenodd"><g id="016---Leather-Cover-Book" fill-rule="nonzero"><path id="Shape" d="m48 16v15h-6v-1c0-.5522847-.4477153-1-1-1h-4c-.5522847 0-1 .4477153-1 1v1h-29v-18h38c1.6568542 0 3 1.3431458 3 3z" fill="#e8edfc"/><path id="Shape" d="m45 13h-3c1.6568542 0 3 1.3431458 3 3v15h3v-15c0-1.6568542-1.3431458-3-3-3z" fill="#cad9fc"/><path id="Shape" d="m7 13v18c-3.3137085 0-6-2.6862915-6-6v-18c0 3.3137085 2.6862915 6 6 6z" fill="#e8edfc"/><path id="Shape" d="m32.42 40.62c.1886474.2387374.475728.3785972.78.38h-26.2c-3.3137085 0-6-2.6862915-6-6v-10c0 3.3137085 2.6862915 6 6 6h26.2c-.304272.0014028-.5913526.1412626-.78.38l-3.2 4c-.2901603.3624101-.2901603.8775899 0 1.24z" fill="#a4c2f7"/><path id="Shape" d="m48 41v15c0 1.6568542-1.3431458 3-3 3h-38v-18h29v1c0 .5522847.4477153 1 1 1h4c.5522847 0 1-.4477153 1-1v-1z" fill="#e8edfc"/><path id="Shape" d="m45 41v15c0 1.6568542-1.3431458 3-3 3h3c1.6568542 0 3-1.3431458 3-3v-15z" fill="#cad9fc"/><path id="Shape" d="m7 41v18c-3.3137085 0-6-2.6862915-6-6v-18c0 3.3137085 2.6862915 6 6 6z" fill="#e8edfc"/><path id="Shape" d="m48 4v12c0-1.6568542-1.3431458-3-3-3h-38c-3.31370846 0-5.99999991-2.6862915-5.99999991-6 0-3.31370846 2.68629145-5.99999995 5.99999991-6h38c1.6568542 0 3 1.34314575 3 3z" fill="#fff"/><path id="Shape" d="m45 1h-3c1.6568542 0 3 1.34314575 3 3v9c1.6568542 0 3 1.3431458 3 3v-12c0-1.65685425-1.3431458-3-3-3z" fill="#e8edfc"/><path id="Shape" d="m52 33v6c-.0032948 1.1032019-.8967981 1.9967052-2 2h-8v-10h8c1.1032019.0032948 1.9967052.8967981 2 2z" fill="#a4c2f7"/><path id="Shape" d="m50 31h-3c1.1032019.0032948 1.9967052.8967981 2 2v6c-.0032948 1.1032019-.8967981 1.9967052-2 2h3c1.1032019-.0032948 1.9967052-.8967981 2-2v-6c-.0032948-1.1032019-.8967981-1.9967052-2-2z" fill="#7facfa"/><path id="Shape" d="m36 31v10h-2.8c-.304272-.0014028-.5913526-.1412626-.78-.38l-3.2-4c-.2901603-.3624101-.2901603-.8775899 0-1.24l3.2-4c.1886474-.2387374.475728-.3785972.78-.38z" fill="#e8edfc"/><rect id="Rectangle-path" fill="#e8edfc" height="14" rx="1" width="6" x="36" y="29"/><path id="Shape" d="m10 1h-3c-3.3137085 0-6 2.6862915-6 6v46c0 3.3137085 2.6862915 6 6 6h3c-3.3137085 0-6-2.6862915-6-6v-46c0-3.3137085 2.6862915-6 6-6z" fill="#fff"/><path id="Rectangle-path" d="m0 45h2v8h-2z" fill="#fff"/><g fill="#428dff"><path id="Shape" d="m1.02 50c-.55228475.0027614-1.00223858-.4427153-1.005-.995s.44271525-1.0022386.995-1.005h.01c.55228475 0 1 .4477153 1 1s-.44771525 1-1 1z"/><path id="Shape" d="m7 60h38c2.209139 0 4-1.790861 4-4v-14h1c1.6568542 0 3-1.3431458 3-3v-6c0-1.6568542-1.3431458-3-3-3h-1v-26c0-2.209139-1.790861-4-4-4h-38c-3.86416566.00440864-6.99559136 3.13583434-7 7v38c.00000001.5522847.44771526 1 1 1s.99999999-.4477153 1-1v-5.111c1.07343742 1.0988219 2.47946197 1.8127308 4 2.031v15.98c-2.3264168-.4784327-3.99700171-2.5248992-4-4.9 0-.5522847-.44771525-1-1-1s-1 .4477153-1 1c.00440864 3.8641657 3.13583434 6.9955914 7 7zm40-4c0 1.1045695-.8954305 2-2 2h-37v-16h27c0 1.1045695.8954305 2 2 2h4c1.1045695 0 2-.8954305 2-2h4zm-6-14h-4v-12h4zm-6-10v8h-1.8l-3.2-4 3.2-4zm16 1v6c0 .5522847-.4477153 1-1 1h-7v-8h7c.5522847 0 1 .4477153 1 1zm-8-3c0-1.1045695-.8954305-2-2-2h-4c-1.1045695 0-2 .8954305-2 2h-27v-16h37c1.1045695 0 2 .8954305 2 2v14zm-36-28h38c1.1045695 0 2 .8954305 2 2h-40c-.55228475 0-1 .44771525-1 1s.44771525 1 1 1h40v2h-40c-.55228475 0-1 .44771525-1 1s.44771525 1 1 1h40v2.556c-.6053465-.3599241-1.2957468-.5518554-2-.556h-38c-2.76142375 0-5-2.23857625-5-5s2.23857625-5 5-5zm-1 11.92v15.98c-2.3264168-.4784327-3.99700171-2.5248992-4-4.9v-13.111c1.07343742 1.0988219 2.47946197 1.8127308 4 2.031zm-4 21.08v-5.111c1.31319253 1.3500248 3.11664096 2.1114407 5 2.111h23.643l-2.2 2.753c-.5807418.7291636-.5807418 1.7628364 0 2.492l2.2 2.755h-23.643c-2.76005315-.0033061-4.99669388-2.2399468-5-5z"/><path id="Shape" d="m13 54h-2c-.5522847 0-1 .4477153-1 1s.4477153 1 1 1h2c.5522847 0 1-.4477153 1-1s-.4477153-1-1-1z"/><path id="Shape" d="m34 54h-17c-.5522847 0-1 .4477153-1 1s.4477153 1 1 1h17c.5522847 0 1-.4477153 1-1s-.4477153-1-1-1z"/></g></g></g></svg>