<svg height="512" viewBox="0 0 60 60" width="512" xmlns="http://www.w3.org/2000/svg"><g id="Page-1" fill="none" fill-rule="evenodd"><g id="017---Book-Stack" fill-rule="nonzero"><path id="Shape" d="m57 59h-51.5c-2.48528137 0-4.5-2.0147186-4.5-4.5s2.01471863-4.5 4.5-4.5h51.5c-1.1 0-3 2.01-3 4.5s1.9 4.5 3 4.5z" fill="#a4c2f7"/><path id="Shape" d="m59 50v7c-.0032948 1.1032019-.8967981 1.9967052-2 2-1.1 0-3-2.01-3-4.5s1.9-4.5 3-4.5z" fill="#a4c2f7"/><path id="Shape" d="m57 50c-.3667804.0330728-.7151683.1755635-1 .409v6.591c-.0021522.4471873-.1558511.8804348-.436 1.229.3685047.4236728.8792671.6979052 1.436.771 1.1032019-.0032948 1.9967052-.8967981 2-2v-7z" fill="#7facfa"/><path id="Shape" d="m59 41v9h-2c-1.1 0-3-2.01-3-4.5s1.9-4.5 3-4.5z" fill="#a4c2f7"/><path id="Shape" d="m57 41c-.3667804.0330728-.7151683.1755635-1 .409v8.182c.2848317.2334365.6332196.3759272 1 .409h2v-9z" fill="#7facfa"/><path id="Shape" d="m59 30.01v10.99h-2c-1.1 0-3-2.01-3-4.5s1.9-4.5 3-4.5c1.100676.0000138 1.9944966-.8893377 2-1.99z" fill="#a4c2f7"/><path id="Shape" d="m57 32c-.3667804.0330728-.7151683.1755635-1 .409v8.182c.2848317.2334365.6332196.3759272 1 .409h2v-10.99c-.0055034 1.1006623-.899324 1.9900138-2 1.99z" fill="#7facfa"/><path id="Shape" d="m57 50h-51.5c-2.48528137 0-4.5-2.0147186-4.5-4.5s2.01471863-4.5 4.5-4.5h51.5c-1.1 0-3 2.01-3 4.5s1.9 4.5 3 4.5z" fill="#a4c2f7"/><path id="Shape" d="m57 41h-51.5c-2.48528137 0-4.5-2.0147186-4.5-4.5s2.01471863-4.5 4.5-4.5h51.5c-1.1 0-3 2.01-3 4.5s1.9 4.5 3 4.5z" fill="#a4c2f7"/><path id="Shape" d="m59 30v.01c-.0055034 1.1006623-.899324 1.9900138-2 1.99h-48.92c.05730064-.4544335.14077267-.9051825.25-1.35l6.41-26.19c.5-2.06 1.96-3.46 3.61-3.46h29.94c.8691828-.00210155 1.6388532.56097311 1.9 1.39l8.71 27c.0664076.1965115.1001879.4025712.1.61z" fill="#e8edfc"/><path id="Shape" d="m58.9 29.39-8.71-27c-.2611468-.82902689-1.0308172-1.39210155-1.9-1.39l-3-.00000586c.8691828-.00209569 1.6388532.56097897 1.9 1.39000586l8.71 27c.0664076.1965115.1001879.4025712.1.61v.01c-.0055034 1.1006623-.899324 1.9900138-2 1.99h3c1.100676.0000138 1.9944966-.8893377 2-1.99v-.01c.0001879-.2074288-.0335924-.4134885-.1-.61z" fill="#cad9fc"/><path id="Shape" d="m18.35 1c-1.65 0-3.11 1.4-3.61 3.46l-6.41 26.19c-.10922733.4448175-.19269936.8955665-.25 1.35h-2.58c-1.1939625-.0015951-2.33948215.4719984-3.18374189 1.3162581-.84425973.8442597-1.31785325 1.9897794-1.31626213 3.1837419l.00000402-3.08c.00277199-.9397387.14774684-1.8736465.43-2.77l8.45-26.19c.670268-2.06222147 2.5915869-3.45881042 4.76-3.46z" fill="#a4c2f7"/><path id="Shape" d="m45.23 5 1.64 7h-26.84l.93-7z" fill="#fff"/><path id="Shape" d="m5.5 41c-2.48528137 0-4.5 2.0147186-4.5 4.5s2.01471863 4.5 4.5 4.5c-2.48528137 0-4.5 2.0147186-4.5 4.5s2.01471863 4.5 4.5 4.5h3c-2.48528137 0-4.5-2.0147186-4.5-4.5s2.01471863-4.5 4.5-4.5c-2.48528137 0-4.5-2.0147186-4.5-4.5s2.01471863-4.5 4.5-4.5c-2.48528137 0-4.5-2.0147186-4.5-4.5 0-3.017-.123-4.073.43-5.85l8.45-26.19c.670268-2.06222147 2.5915869-3.45881042 4.76-3.46h-3c-2.1684131.00118958-4.089732 1.39777853-4.76 3.46l-8.45 26.19c-.553 1.777-.43 2.833-.43 5.85 0 2.4852814 2.01471863 4.5 4.5 4.5z" fill="#fff"/><path id="Rectangle-path" d="m4.654 7.272h8v2h-8z" fill="#fff" transform="matrix(.307 -.952 .952 .307 -1.875 13.969)"/><g fill="#428dff"><path id="Shape" d="m8.674 9.272c-.55228475.00276142-1.00223858-.44271525-1.005-.995s.44271525-1.00223858.995-1.005h.01c.55228475 0 1 .44771525 1 1s-.44771525 1-1 1z"/><path id="Shape" d="m59.854 29.079-8.709-27c-.397656-1.24101896-1.5528309-2.08191834-2.856-2.079h-33.648c-2.6054353-.00542225-4.91483012 1.67586573-5.71 4.157-.13295551.34552911-.06412861.73624091.17889493 1.01553841.24302354.27929749.62047081.40147122.98106117.31755402.3605904-.08391719.6453102-.36019152.7400439-.71809243.5308841-1.65506919 2.0718763-2.77623199 3.81-2.772h.136c-.4747793.66951949-.8169423 1.42377154-1.008 2.222l-6.409 26.185c-.048.191-.089.391-.129.593h-1.731c-1.2351049.0008904-2.4335141.4199812-3.4 1.189.06368895-.4167542.16066588-.8277357.29-1.229l5.988-18.574c.13398524-.3458412.06555528-.7374324-.17777819-1.0173377-.24333347-.2799054-.62159788-.4021445-.98271517-.3175722-.36111728.0845723-.64576644.3620632-.73950664.7209099l-5.994 18.572c-.32077157.9924407-.48408486 2.0290077-.484 3.072v3.584c-.00028138.1336786.02659539.2660212.079.389.23989707 1.4598435 1.0577942 2.7614859 2.269 3.611-1.47129344 1.0259378-2.34813512 2.7063298-2.34813512 4.5s.87684168 3.4740622 2.34813512 4.5c-1.96105499 1.3780801-2.80386604 3.8674485-2.08332779 6.1534201.72053824 2.2859716 2.83849207 3.8421069 5.23532779 3.8465799h51.5c1.6568542 0 3-1.3431458 3-3v-27c0-.024-.012-.043-.013-.067-.003352-.289555-.0481396-.5771389-.133-.854zm-2.854 10.921c-.5-.033-2-1.492-2-3.5s1.5-3.467 2-3.5c.341757-.0055739.6800139-.0698427 1-.19v7.19zm-47.7-9.112 6.412-26.188c.388-1.592 1.47-2.7 2.638-2.7h29.939c.4337461.00030778.81784.28019957.951.693l8.71 27c.0980656.3040048.044997.6365662-.1428124.8949523-.1878094.2583862-.4877577.4115018-.8071876.4120477h-47.723c.009-.037.016-.076.023-.112zm-7.3 5.612c0-1.9329966 1.56700338-3.5 3.5-3.5h48.6c-1.4611894 2.1045753-1.4611894 4.8954247 0 7h-48.6c-1.93299662 0-3.5-1.5670034-3.5-3.5zm0 9c0-1.9329966 1.56700338-3.5 3.5-3.5h48.6c-1.4611894 2.1045753-1.4611894 4.8954247 0 7h-48.6c-1.93299662 0-3.5-1.5670034-3.5-3.5zm0 9c0-1.9329966 1.56700338-3.5 3.5-3.5h48.6c-1.4611894 2.1045753-1.4611894 4.8954247 0 7h-48.6c-1.93299662 0-3.5-1.5670034-3.5-3.5zm56 2.5c0 .5522847-.4477153 1-1 1-.5-.035-2-1.493-2-3.5s1.5-3.467 2-3.5h1zm-1-8c-.5-.033-2-1.492-2-3.5s1.5-3.467 2-3.5h1v7z"/><path id="Shape" d="m20.03 13h26.84c.3053703.0001035.5940514-.1393278.7838151-.3785782.1897638-.2392504.2598094-.5520946.1901849-.8494218l-1.64-7c-.1059236-.45234074-.5094229-.77215742-.974-.772h-24.27c-.5011704.00012515-.9248455.37121492-.991.868l-.93 7c-.0380408.2856665.0490103.5738566.2388377.7906928.1898275.2168363.4639741.3412352.7521623.3413072zm1.806-7h22.6l1.17 5h-24.434z"/><path id="Shape" d="m48 15h-29c-.5522847 0-1 .4477153-1 1s.4477153 1 1 1h29c.5522847 0 1-.4477153 1-1s-.4477153-1-1-1z"/><path id="Shape" d="m43 19h-19c-.5522847 0-1 .4477153-1 1s.4477153 1 1 1h19c.5522847 0 1-.4477153 1-1s-.4477153-1-1-1z"/></g></g></g></svg>