<svg height="512" viewBox="0 0 60 56" width="512" xmlns="http://www.w3.org/2000/svg"><g id="Page-1" fill="none" fill-rule="evenodd"><g id="019---Bookmarked-Books" fill-rule="nonzero" transform="translate(-1)"><path id="Shape" d="m46 11v13c-.0010489.3465932-.1814922.6679286-.4768822.8492369-.2953899.1813084-.6635996.1967323-.9731178.0407631l-4.1-2.05c-.2836743-.1399671-.6163257-.1399671-.9 0l-4.1 2.05c-.3095182.1559692-.6777279.1405453-.9731178-.0407631-.29539-.1813083-.4758333-.5026437-.4768822-.8492369v-13c0-.5522847.4477153-1 1-1h10c.5522847 0 1 .4477153 1 1z" fill="#e8edfc"/><path id="Shape" d="m60 3c-.0032948 1.10320187-.8967981 1.9967052-2 2h-47c-2.76142375 0-5 2.23857625-5 5 0 2.7614237 2.23857625 5 5 5h23v4h-23c-4.9705627-.0000001-8.99999987-4.0294373-8.99999987-9s4.02943717-8.99999993 8.99999987-9h47c1.1032019.0032948 1.9967052.89679813 2 2z" fill="#a4c2f7"/><path id="Shape" d="m58 1h-3c1.1045695 0 2 .8954305 2 2s-.8954305 2-2 2h3c1.1045695 0 2-.8954305 2-2s-.8954305-2-2-2z" fill="#7facfa"/><path id="Shape" d="m60 17c-.0032948 1.1032019-.8967981 1.9967052-2 2h-12v-4h12c1.1032019.0032948 1.9967052.8967981 2 2z" fill="#a4c2f7"/><path id="Shape" d="m58 15h-3c1.1045695 0 2 .8954305 2 2s-.8954305 2-2 2h3c1.1045695 0 2-.8954305 2-2s-.8954305-2-2-2z" fill="#7facfa"/><path id="Shape" d="m60 28c-.007709 4.9673661-4.0326339 8.992291-9 9h-25v-4h25c2.7614237 0 5-2.2385763 5-5s-2.2385763-5-5-5h-5v-4h5c4.9673661.007709 8.992291 4.0326339 9 9z" fill="#a4c2f7"/><path id="Shape" d="m51 19h-3c4.9705627 0 9 4.0294373 9 9s-4.0294373 9-9 9h3c4.9705627 0 9-4.0294373 9-9s-4.0294373-9-9-9z" fill="#7facfa"/><path id="Shape" d="m34 19v4h-30c-1.1045695 0-2-.8954305-2-2s.8954305-2 2-2z" fill="#a4c2f7"/><path id="Shape" d="m14 33v4h-10c-1.1045695 0-2-.8954305-2-2s.8954305-2 2-2z" fill="#a4c2f7"/><path id="Shape" d="m60 53c-.0032948 1.1032019-.8967981 1.9967052-2 2h-47c-4.97056275 0-9-4.0294373-9-9s4.02943725-9 9-9h3v4h-3c-2.76142375 0-5 2.2385763-5 5s2.23857625 5 5 5h47c1.1032019.0032948 1.9967052.8967981 2 2z" fill="#a4c2f7"/><path id="Shape" d="m58 51h-3c1.1045695 0 2 .8954305 2 2s-.8954305 2-2 2h3c1.1045695 0 2-.8954305 2-2s-.8954305-2-2-2z" fill="#7facfa"/><path id="Shape" d="m60 39c-.0032948 1.1032019-.8967981 1.9967052-2 2h-32v-4h32c1.1032019.0032948 1.9967052.8967981 2 2z" fill="#a4c2f7"/><path id="Shape" d="m58 37h-3c1.1045695 0 2 .8954305 2 2s-.8954305 2-2 2h3c1.1045695 0 2-.8954305 2-2s-.8954305-2-2-2z" fill="#7facfa"/><path id="Shape" d="m26 29v16c-.0010489.3465932-.1814922.6679286-.4768822.8492369-.2953899.1813084-.6635996.1967323-.9731178.0407631l-4.1-2.05c-.2836743-.1399671-.6163257-.1399671-.9 0l-4.1 2.05c-.3095182.1559692-.6777279.1405453-.9731178-.0407631-.29539-.1813083-.4758333-.5026437-.4768822-.8492369v-16c0-.5522847.4477153-1 1-1h10c.5522847 0 1 .4477153 1 1z" fill="#e8edfc"/><path id="Shape" d="m56 28c0 2.7614237-2.2385763 5-5 5h-25v-4c0-.5522847-.4477153-1-1-1h-10c-.5522847 0-1 .4477153-1 1v4h-9c1.1 0 2-2.24 2-5s-.9-5-2-5h29v1c.0010489.3465932.1814922.6679286.4768822.8492369.2953899.1813084.6635996.1967323.9731178.0407631l4.1-2.05c.2836743-.1399671.6163257-.1399671.9 0l4.1 2.05c.3095182.1559692.6777279.1405453.9731178-.0407631.29539-.1813083.4758333-.5026437.4768822-.8492369v-1h5c2.7614237 0 5 2.2385763 5 5z" fill="#e8edfc"/><path id="Shape" d="m57 15h-11v-4c0-.5522847-.4477153-1-1-1h-10c-.5522847 0-1 .4477153-1 1v4h-23c-2.76142375 0-5-2.2385763-5-5 0-2.76142375 2.23857625-5 5-5h46c-1.1 0-2 2.24-2 5s.9 5 2 5z" fill="#e8edfc"/><path id="Shape" d="m55 10c0-2.76.9-5 2-5h-3c-1.1 0-2 2.24-2 5s.9 5 2 5h3c-1.1 0-2-2.24-2-5z" fill="#cad9fc"/><path id="Shape" d="m57 51h-46c-2.76142375 0-5-2.2385763-5-5s2.23857625-5 5-5h3v4c.0010489.3465932.1814922.6679286.4768822.8492369.2953899.1813084.6635996.1967323.9731178.0407631l4.1-2.05c.2836743-.1399671.6163257-.1399671.9 0l4.1 2.05c.3095182.1559692.6777279.1405453.9731178-.0407631.29539-.1813083.4758333-.5026437.4768822-.8492369v-4h31c-1.1 0-2 2.24-2 5s.9 5 2 5z" fill="#e8edfc"/><path id="Shape" d="m55 46c0-2.76.9-5 2-5h-3c-1.1 0-2 2.24-2 5s.9 5 2 5h3c-1.1 0-2-2.24-2-5z" fill="#cad9fc"/><g fill="#fff"><path id="Shape" d="m11 19h3c-4.9705627-.0000001-8.99999987-4.0294373-8.99999987-9s4.02943717-8.99999993 8.99999987-9h-3c-4.97056267.0000001-8.99999981 4.02943733-8.99999981 9 0 4.9705627 4.02943714 8.9999999 8.99999981 9z"/><path id="Shape" d="m11 55h3c-4.97056275 0-9-4.0294373-9-9s4.02943725-9 9-9h-3c-4.97056275 0-9 4.0294373-9 9s4.02943725 9 9 9z"/><path id="Shape" d="m5 33h-1c-1.1045695 0-2 .8954305-2 2s.8954305 2 2 2h3c-1.1045695 0-2-.8954305-2-2s.8954305-2 2-2h1c1.1 0 2-2.24 2-5s-.9-5-2-5h-1c-1.1045695 0-2-.8954305-2-2s.8954305-2 2-2h-3c-1.1045695 0-2 .8954305-2 2s.8954305 2 2 2h1c1.1 0 2 2.24 2 5s-.9 5-2 5z"/><path id="Shape" d="m4.706 2.24 1.261 1.552c-1.86457207 1.52389595-2.95237352 3.79995641-2.967 6.208h-2c.01532811-3.01012283 1.37447397-5.85604076 3.706-7.76z"/></g><path id="Shape" d="m2.89 7.115c-.55228475.00276142-1.00223858-.44271525-1.005-.995s.44271525-1.00223858.995-1.005h.01c.55228475 0 1 .44771525 1 1s-.44771525 1-1 1z" fill="#428dff"/><path id="Shape" d="m57.038 6h.962c1.6568542 0 3-1.34314575 3-3s-1.3431458-3-3-3h-47c-2.29117223.01212299-4.51032284.80190649-6.294 2.24-.22174789.16766849-.36051074.42274343-.38080737.70000305s.07984075.54982312.27480737.74799695c.36753705.37095226.952492.4136497 1.37.1 1.42665178-1.1469084 3.19953132-1.77710892 5.03-1.788h47c.5522847 0 1 .44771525 1 1s-.4477153 1-1 1h-47c-3.3137085 0-6 2.6862915-6 6s2.6862915 6 6 6h22v2h-22c-4.41622192-.0049599-7.99504012-3.5837781-8-8 0-.55228475-.44771525-1-1-1s-1 .44771525-1 1c.00296668 3.1529085 1.49565066 6.1189968 4.026 8h-1.026c-1.65685425 0-3 1.3431458-3 3s1.34314575 3 3 3h.957c.306.158 1.043 1.541 1.043 4 0 2.484-.754 3.875-1 4h-1c-1.65685425 0-3 1.3431458-3 3s1.34314575 3 3 3h1.026c-3.45676031 2.5714769-4.87483458 7.0698437-3.51773868 11.1588505 1.35709591 4.0890067 5.18341495 6.8468177 9.49173868 6.8411495h47c1.6568542 0 3-1.3431458 3-3s-1.3431458-3-3-3h-.957c-.306-.158-1.043-1.541-1.043-4 0-2.44.727-3.824 1.038-4h.962c1.6568542 0 3-1.3431458 3-3s-1.3431458-3-3-3h-1.026c2.5328113-1.8789573 4.0262278-4.8463333 4.0262278-8s-1.4934165-6.1210427-4.0262278-8h1.026c1.6568542 0 3-1.3431458 3-3s-1.3431458-3-3-3h-.957c-.306-.158-1.043-1.541-1.043-4 0-2.44.727-3.824 1.038-4zm-12.038 9.006v3.982.012.012 3.97c-.0054036.0113917-.0054036.0246083 0 .036v.982l-4.1-2.054c-.5638101-.2800314-1.2261899-.2800314-1.79 0l-4.11 2.054v-13h10zm-42 5.994c0-.5522847.44771525-1 1-1h29v2h-29c-.55228475 0-1-.4477153-1-1zm4.306 3h25.694c-.0006749.6946105.3591006 1.3398284.9503634 1.7043725.5912629.3645442 1.3293295.3962027 1.9496366.0836275l4.1-2.053 4.1 2.053c.6203071.3125752 1.3583737.2809167 1.9496366-.0836275.5912628-.3645441.9510383-1.009762.9503634-1.7043725h4c2.209139 0 4 1.790861 4 4s-1.790861 4-4 4h-24v-3c0-1.1045695-.8954305-2-2-2h-10c-1.1045695 0-2 .8954305-2 2v3h-5.694c.48061745-1.2778814.71606087-2.634904.694-4 .02206087-1.365096-.21338255-2.7221186-.694-4zm17.694 21-4.1-2.054c-.5638101-.2800314-1.2261899-.2800314-1.79 0l-4.11 2.054v-16h10v7.99.01.01 3.975.015.015zm-21-9c-.55228475 0-1-.4477153-1-1s.44771525-1 1-1h9v2zm55 17c0 .5522847-.4477153 1-1 1h-47c-4.418278 0-8-3.581722-8-8s3.581722-8 8-8h2v2h-2c-3.3137085 0-6 2.6862915-6 6s2.6862915 6 6 6h47c.5522847 0 1 .4477153 1 1zm-4.306-3h-43.694c-2.209139 0-4-1.790861-4-4s1.790861-4 4-4h2v3c-.0006749.6946105.3591006 1.3398284.9503634 1.7043725.5912629.3645442 1.3293295.3962027 1.9496366.0836275l4.1-2.053 4.105 2.053c.6201427.3112495 1.357464.2779242 1.947-.088.5910663-.3623529.9503893-1.0067084.948-1.7v-3h27.694c-.9253646 2.5863886-.9253646 5.4136114 0 8zm3.306-12c.5522847 0 1 .4477153 1 1s-.4477153 1-1 1h-31v-2zm1-10c-.0049599 4.4162219-3.5837781 7.9950401-8 8h-24v-2h24c3.3137085 0 6-2.6862915 6-6s-2.6862915-6-6-6h-4v-2h4c4.4162219.0049599 7.9950401 3.5837781 8 8zm0-11c0 .5522847-.4477153 1-1 1h-11v-2h11c.5522847 0 1 .4477153 1 1zm-12-3v-3c0-1.1045695-.8954305-2-2-2h-10c-1.1045695 0-2 .8954305-2 2v3h-22c-2.209139 0-4-1.790861-4-4s1.790861-4 4-4h43.694c-.4806174 1.27788136-.7160609 2.63490396-.694 4-.0220609 1.365096.2133826 2.7221186.694 4z" fill="#428dff"/></g></g></svg>