<svg height="512" viewBox="0 0 60 51" width="512" xmlns="http://www.w3.org/2000/svg"><g id="Page-1" fill="none" fill-rule="evenodd"><g id="020---Open-Book" fill-rule="nonzero"><path id="Shape" d="m30 8v36.670002c-.3455015.0006894-.6668845-.1770165-.85-.470002-.7309701-1.0890252-1.8636036-1.8441142-3.15-2.1-.3288923-.0683868-.6640785-.1019055-1-.1h-19c-.55228475 0-1-.4477153-1-1v-37c0-.55228475.44771525-1 1-1h4v11.75c0 .3787721.2140024.7250352.5527864.8944272s.744196.132836 1.0472136-.0944272l1.8-1.35c.3544214-.2700476.8455786-.2700476 1.2 0l1.8 1.35c.3030176.2272632.7084296.2638192 1.0472136.0944272s.5527864-.5156551.5527864-.8944272v-11.75h7c2.7614237 0 5 2.23857625 5 5z" fill="#e8edfc"/><path id="Shape" d="m55 4v37c0 .5522847-.4477153 1-1 1h-19c-.3359215-.0019055-.6711077.0316132-1 .1-1.2863964.2558858-2.4190299 1.0109748-3.15 2.1-.1831155.2929855-.5044985.4706914-.85.470002v-36.670002c0-2.76142375 2.2385763-5 5-5h19c.5522847 0 1 .44771525 1 1z" fill="#e8edfc"/><path id="Shape" d="m54 3h-3c.5522847 0 1 .44771525 1 1v37c0 .5522847-.4477153 1-1 1h3c.5522847 0 1-.4477153 1-1v-37c0-.55228475-.4477153-1-1-1z" fill="#cad9fc"/><path id="Shape" d="m34 42.1v4.9c0 1.6568542-1.3431458 3-3 3h-2c-1.6568542 0-3-1.3431458-3-3v-4.9c1.2863964.2558858 2.4190299 1.0109748 3.15 2.1.1823393.2942169.5038624.4732173.85.4732173s.6676607-.1790004.85-.4732173c.7309701-1.0890252 1.8636036-1.8441142 3.15-2.1z" fill="#a4c2f7"/><path id="Shape" d="m26 42.1v4.9h-22c-1.65685425 0-3-1.3431458-3-3v-35c.0032948-1.10320187.89679813-1.9967052 2-2h2v34c0 .5522847.44771525 1 1 1h19c.3359215-.0019055.6711077.0316132 1 .1z" fill="#a4c2f7"/><path id="Shape" d="m59 9v35c0 1.6568542-1.3431458 3-3 3h-22v-4.9c.3288923-.0683868.6640785-.1019055 1-.1h19c.5522847 0 1-.4477153 1-1v-34h2c1.1032019.0032948 1.9967052.89679813 2 2z" fill="#a4c2f7"/><path id="Shape" d="m57 7h-2v.279c.615396.35528455.9960674 1.01042002 1 1.721v35c0 1.6568542-1.3431458 3-3 3h3c1.6568542 0 3-1.3431458 3-3v-35c-.0032948-1.10320187-.8967981-1.9967052-2-2z" fill="#7facfa"/><path id="Shape" d="m18 3v11.75c0 .3787721-.2140024.7250352-.5527864.8944272s-.744196.132836-1.0472136-.0944272l-1.8-1.35c-.3544214-.2700476-.8455786-.2700476-1.2 0l-1.8 1.35c-.3030176.2272632-.7084296.2638192-1.0472136.0944272s-.5527864-.5156551-.5527864-.8944272v-11.75c.0032948-1.10320187.8967981-1.9967052 2-2h4c1.1032019.0032948 1.9967052.89679813 2 2z" fill="#a4c2f7"/><path id="Shape" d="m4 47h3c-1.65685425 0-3-1.3431458-3-3v-35c.0032948-1.10320187.89679813-1.9967052 2-2h2v-3c0-.55228475.44771525-1 1-1h-3c-.55228475 0-1 .44771525-1 1v3h-2c-1.10320187.0032948-1.9967052.89679813-2 2v35c0 1.6568542 1.34314575 3 3 3z" fill="#fff"/><path id="Rectangle-path" d="m0 36h2v8h-2z" fill="#fff"/><g fill="#428dff"><path id="Shape" d="m1.02 41c-.55228473.0027614-1.00223852-.4427153-1.00499994-.995-.00276143-.5522847.44271521-1.0022385.99499994-1.005h.01c.55228475 0 1 .4477153 1 1s-.44771525 1-1 1z"/><path id="Shape" d="m57 6h-1v-2c0-1.1045695-.8954305-2-2-2h-19c-2.0123062.00147205-3.889878 1.01160567-5 2.69-1.110122-1.67839433-2.9876938-2.68852795-5-2.69h-6.184c-.4222546-1.19435086-1.5492146-1.99474861-2.816-2h-4c-1.2667854.00525139-2.39374545.80564914-2.816 2h-3.184c-1.1045695 0-2 .8954305-2 2v2h-1c-1.65685425 0-3 1.34314575-3 3v27c0 .5522847.44771525 1 1 1s1-.4477153 1-1v-27c0-.55228475.44771525-1 1-1h1v33c0 1.1045695.8954305 2 2 2h19v3h-21c-1.1045695 0-2-.8954305-2-2 0-.5522847-.44771525-1-1-1s-1 .4477153-1 1c0 2.209139 1.790861 4 4 4h21.127c.4578661 1.7648504 2.0497244 2.9978932 3.873 3h2c1.8232756-.0021068 3.4151339-1.2351496 3.873-3h21.127c2.209139 0 4-1.790861 4-4v-35c0-1.65685425-1.3431458-3-3-3zm-22-2h19v37h-19c-.4512848.0055651-.9004849.0622603-1.339.169-.0206144.004605-.0409752.0102793-.061.017-.9640829.2249503-1.8573815.6853426-2.6 1.34v-34.526c0-2.209139 1.790861-4 4-4zm-23-2h4c.5522847 0 1 .44771525 1 1l.007 11.754h-.006l-1.801-1.354c-.7111111-.5333333-1.6888889-.5333333-2.4 0l-1.8 1.35v-11.75c0-.55228475.4477153-1 1-1zm-6 39v-37h3v10.75c0 .7575441.42800475 1.4500704 1.1055728 1.7888544.6775681.338784 1.4883919.2656721 2.0944272-.1888544l1.8-1.35 1.8 1.35c.6060353.4545265 1.4168591.5276384 2.0944272.1888544.677568-.338784 1.1055728-1.0313103 1.1055728-1.7888544v-10.75h6c2.209139 0 4 1.790861 4 4v34.521c-.7431317-.6530764-1.6363593-1.112058-2.6-1.336-.0173104-.0061824-.0350171-.0111937-.053-.015-.4410731-.1077123-.8929958-.1647478-1.347-.17zm25 8h-2c-1.1045695 0-2-.8954305-2-2v-3.462c.5247551.2979934.9742561.7122595 1.314 1.211.3704432.5719819 1.0045424.918367 1.686.921.6759298-.002078 1.3056013-.3435885 1.676-.909.3423085-.5030235.7952049-.9210291 1.324-1.222v3.461c0 1.1045695-.8954305 2-2 2zm27-5c0 1.1045695-.8954305 2-2 2h-21v-3h19c1.1045695 0 2-.8954305 2-2v-33h1c.5522847 0 1 .44771525 1 1z"/><path id="Shape" d="m9 21h17c.5522847 0 1-.4477153 1-1s-.4477153-1-1-1h-17c-.55228475 0-1 .4477153-1 1s.44771525 1 1 1z"/><path id="Shape" d="m9 25h17c.5522847 0 1-.4477153 1-1s-.4477153-1-1-1h-17c-.55228475 0-1 .4477153-1 1s.44771525 1 1 1z"/><path id="Shape" d="m9 29h17c.5522847 0 1-.4477153 1-1s-.4477153-1-1-1h-17c-.55228475 0-1 .4477153-1 1s.44771525 1 1 1z"/><path id="Shape" d="m9 33h17c.5522847 0 1-.4477153 1-1s-.4477153-1-1-1h-17c-.55228475 0-1 .4477153-1 1s.44771525 1 1 1z"/><path id="Shape" d="m27 36c0-.5522847-.4477153-1-1-1h-17c-.55228475 0-1 .4477153-1 1s.44771525 1 1 1h17c.5522847 0 1-.4477153 1-1z"/><path id="Shape" d="m34 21h17c.5522847 0 1-.4477153 1-1s-.4477153-1-1-1h-17c-.5522847 0-1 .4477153-1 1s.4477153 1 1 1z"/><path id="Shape" d="m34 25h17c.5522847 0 1-.4477153 1-1s-.4477153-1-1-1h-17c-.5522847 0-1 .4477153-1 1s.4477153 1 1 1z"/><path id="Shape" d="m34 29h17c.5522847 0 1-.4477153 1-1s-.4477153-1-1-1h-17c-.5522847 0-1 .4477153-1 1s.4477153 1 1 1z"/><path id="Shape" d="m34 33h17c.5522847 0 1-.4477153 1-1s-.4477153-1-1-1h-17c-.5522847 0-1 .4477153-1 1s.4477153 1 1 1z"/><path id="Shape" d="m34 37h17c.5522847 0 1-.4477153 1-1s-.4477153-1-1-1h-17c-.5522847 0-1 .4477153-1 1s.4477153 1 1 1z"/><path id="Shape" d="m34 9h17c.5522847 0 1-.44771525 1-1s-.4477153-1-1-1h-17c-.5522847 0-1 .44771525-1 1s.4477153 1 1 1z"/><path id="Shape" d="m34 13h17c.5522847 0 1-.4477153 1-1s-.4477153-1-1-1h-17c-.5522847 0-1 .4477153-1 1s.4477153 1 1 1z"/><path id="Shape" d="m34 17h17c.5522847 0 1-.4477153 1-1s-.4477153-1-1-1h-17c-.5522847 0-1 .4477153-1 1s.4477153 1 1 1z"/></g></g></g></svg>