<svg height="512" viewBox="0 0 60 60" width="512" xmlns="http://www.w3.org/2000/svg" xmlns:xlink="http://www.w3.org/1999/xlink"><linearGradient id="linearGradient-1" x1="16.278%" x2="73.962%" y1="26.517%" y2="103.843%"><stop offset="0" stop-color="#d3dff2"/><stop offset=".172" stop-color="#d3dff2"/><stop offset=".2" stop-color="#d3dff2"/><stop offset=".2" stop-color="#dae2f2"/><stop offset=".201" stop-color="#ebeaf2"/><stop offset=".201" stop-color="#f6eff2"/><stop offset=".202" stop-color="#fdf2f2"/><stop offset=".205" stop-color="#fff3f2"/><stop offset=".252" stop-color="#fff3f2"/><stop offset=".26" stop-color="#fff3f2"/><stop offset=".26" stop-color="#d3dff2"/><stop offset=".397" stop-color="#d3dff2"/><stop offset=".42" stop-color="#d3dff2"/><stop offset=".42" stop-color="#dae2f2"/><stop offset=".421" stop-color="#ebeaf2"/><stop offset=".421" stop-color="#f6eff2"/><stop offset=".422" stop-color="#fdf2f2"/><stop offset=".425" stop-color="#fff3f2"/><stop offset=".489" stop-color="#fff3f2"/><stop offset=".5" stop-color="#fff3f2"/><stop offset=".5" stop-color="#f8f0f2"/><stop offset=".5" stop-color="#e7e8f2"/><stop offset=".5" stop-color="#dce3f2"/><stop offset=".5" stop-color="#d5e0f2"/><stop offset=".501" stop-color="#d3dff2"/><stop offset=".706" stop-color="#d3dff2"/><stop offset=".74" stop-color="#d3dff2"/><stop offset=".741" stop-color="#fff3f2"/><stop offset=".835" stop-color="#fff3f2"/><stop offset=".85" stop-color="#fff3f2"/><stop offset=".851" stop-color="#d3dff2"/></linearGradient><g id="Page-1" fill="none" fill-rule="evenodd"><g id="022---Science-Book" fill-rule="nonzero"><path id="Shape" d="m57 55h-20l-1-4h18.17l-2.52-7.15c1.4312971.3043304 2.843682.6916511 4.23 1.16.1408246.0504769.2914402.0675924.44.05l2.56 7.27c.2174541.6116045.1245654 1.2907028-.249142 1.8214468s-.9817476.847114-1.630858.8485532z" fill="#a4c2f7"/><path id="Shape" d="m58.88 52.33-2.56-7.27c-.1485598.0175924-.2991754.0004769-.44-.05-1.386318-.4683489-2.7987029-.8556696-4.23-1.16l.31.88c.308.1.6.174.92.28.1408246.0504769.2914402.0675924.44.05l2.56 7.27c.2174541.6116045.1245654 1.2907028-.249142 1.8214468s-.9817476.847114-1.630858.8485532h3c.6491104-.0014392 1.2571506-.3178092 1.630858-.8485532s.4665961-1.2098423.249142-1.8214468z" fill="#7facfa"/><path id="Shape" d="m24 51-1 4h-20c-.6491104-.0014392-1.25715061-.3178092-1.63085799-.8485532-.37370737-.530744-.46659612-1.2098423-.24914201-1.8214468l2.56-7.27c.14855977.0175924.29917538.0004769.44-.05 1.38631799-.4683489 2.79870293-.8556696 4.23-1.16l-2.52 7.15z" fill="#a4c2f7"/><path id="Shape" d="m54.17 51h-23.16c.4260248-.7039166.9075537-1.3727068 1.44-2 2.88-3.4 8.64-7.4 19.2-5.15z" fill="#a4c2f7"/><path id="Shape" d="m28.99 51h-23.16l2.52-7.15c10.57-2.25 16.33 1.75 19.2 5.15.5324463.6272932 1.0139752 1.2960834 1.44 2z" fill="#a4c2f7"/><path id="Shape" d="m56.32 45.06c-.1485598.0175924-.2991754.0004769-.44-.05-1.386318-.4683489-2.7987029-.8556696-4.23-1.16-10.56-2.25-16.32 1.75-19.2 5.15-.5324463.6272932-1.0139752 1.2960834-1.44 2-.4009627.6322027-.7392344 1.3020478-1.01 2-.2707656-.6979522-.6090373-1.3677973-1.01-2-.4260248-.7039166-.9075537-1.3727068-1.44-2-2.87-3.4-8.63-7.4-19.2-5.15-1.43129707.3043304-2.84368201.6916511-4.23 1.16-.14082462.0504769-.29144023.0675924-.44.05-.29925502-.0376239-.56554291-.2083051-.72469791-.4645058-.159155-.2562008-.19417344-.5705493-.09530209-.8554942l7.24-20.54c.1027684-.2859989.3257098-.5125951.61-.62 2.296995-.8691728 4.7096193-1.3948283 7.16-1.56-1.5261934 2.6389937-2.1444745 5.7058086-1.76 8.73.9246845 7.3328942 7.3902677 12.6838268 14.7667269 12.2209797 7.3764593-.462847 13.1224593-6.5800138 13.1232731-13.9709797.0003204-2.449191-.6409656-4.8557373-1.86-6.98 2.4471164.1653054 4.856423.6909724 7.15 1.56.2823037.1104349.5041697.335938.61.62l7.25 20.54c.0990048.286464.0627448.6023721-.0985909.8589542-.1613358.2565821-.430335.4261465-.7314091.4610458z" fill="#e8edfc"/><path id="Shape" d="m57.15 43.74-7.25-20.54c-.1058303-.284062-.3276963-.5095651-.61-.62-2.293577-.8690276-4.7028836-1.3946946-7.15-1.56.082.141.151.29.227.434 1.3319218.2850032 2.6426778.6612232 3.923 1.126.2823037.1104349.5041697.335938.61.62l7.25 20.54c.083864.2393661.0709467.5020181-.036.732.578.165 1.161.335 1.766.538.1408246.0504769.2914402.0675924.44.05.3010741-.0348993.5700733-.2044637.7314091-.4610458.1613357-.2565821.1975957-.5724902.0985909-.8589542z" fill="#cad9fc"/><path id="Shape" d="m37 55c0 2.21-3.13 4-7 4s-7-1.79-7-4l1-4h4.99c.4009627.6322027.7392344 1.3020478 1.01 2 .2707656-.6979522.6090373-1.3677973 1.01-2h4.99z" fill="#7facfa"/><path id="Shape" d="m44 28c-.0067162 7.0742687-5.2898029 13.0319338-12.3124963 13.8846349s-13.5780153-3.667535-15.2775037-10.5346349c2.8034496.5294695 5.6894461.4304235 8.45-.29 3.7-1 6.58-3.68 10.01-5.24 2.7665785-1.3376832 5.9470133-1.5387039 8.86-.56.1818474.9019395.2723048 1.8199141.27 2.74z" fill="#e8edfc"/><path id="Shape" d="m43.73 25.26c-1.6096773-.5879046-3.3404477-.765587-5.036-.517.6961963.0939484 1.3793245.2674146 2.036.517.1818474.9019395.2723048 1.8199141.27 2.74-.0024653 7.1430744-5.3803431 13.1397033-12.481 13.917 3.9477555.4199728 7.8881891-.8558764 10.8405976-3.5100118 2.9524085-2.6541353 4.6391419-6.4369569 4.6404024-10.4069882.0023048-.9200859-.0881526-1.8380605-.27-2.74z" fill="#cad9fc"/><path id="Shape" d="m43.73 25.26c-2.9129867-.9787039-6.0934215-.7776832-8.86.56-3.43 1.56-6.31 4.24-10.01 5.24-2.7605539.7204235-5.6465504.8194695-8.45.29-.13071-.5271151-.2308767-1.0613374-.3-1.6-.78684-6.3080256 2.7668049-12.3566083 8.66-14.74.7456142-.3066411 1.2317008-1.033795 1.23-1.84v-2.17h8v2.17c.0016479.8134961.4958667 1.54494 1.25 1.85 2.9039449 1.17171 5.3303013 3.2846473 6.89 6 .7598514 1.3161417 1.2970825 2.7487581 1.59 4.24z" fill="url(#linearGradient-1)"/><path id="Shape" d="m32.25 15.02c2.9039449 1.17171 5.3303013 3.2846473 6.89 6 .6500751 1.1342223 1.1355995 2.3551041 1.442 3.626 1.0763566.0265376 2.1405638.2341054 3.148.614-.2929175-1.4912419-.8301486-2.9238583-1.59-4.24-1.5596987-2.7153527-3.9860551-4.82829-6.89-6-.7541333-.30506-1.2483521-1.0365039-1.25-1.85v-2.17h-3v2.17c.0016479.8134961.4958667 1.54494 1.25 1.85z" fill="#a4c2f7"/><rect id="Rectangle-path" fill="#e8edfc" height="5" rx="2" width="12" x="24" y="6"/><path id="Shape" d="m34 6h-3c1.1045695 0 2 .8954305 2 2v1c0 1.1045695-.8954305 2-2 2h3c1.1045695 0 2-.8954305 2-2v-1c0-1.1045695-.8954305-2-2-2z" fill="#cad9fc"/><circle id="Oval" cx="36.5" cy="32.5" fill="#e8edfc" r="2.5"/><circle id="Oval" cx="29.5" cy="20.5" fill="#e8edfc" r="2.5"/><path id="Shape" d="m34 6 .761-3.8c.0600998-.29442665-.0153882-.60027193-.2055798-.83292226s-.4749224-.36743961-.7754202-.36707774h-7.56c-.3004978-.00036187-.5852286.13442741-.7754202.36707774s-.2656796.53849561-.2055798.83292226l.761 3.8z" fill="#a4c2f7"/><path id="Shape" d="m33.78 1-3-.00000073c.3004978-.00036114.5852286.13442814.7754202.36707847s.2656796.53849561.2055798.83292226l-.761 3.8h3l.761-3.8c.0600998-.29442665-.0153882-.60027193-.2055798-.83292226s-.4749224-.36743961-.7754202-.36707774z" fill="#7facfa"/><path id="Shape" d="m3 55h3c-.6491104-.0014392-1.25715061-.3178092-1.63085799-.8485532-.37370737-.530744-.46659612-1.2098423-.24914201-1.8214468l2.56-7.27c-.29925502-.0376239-.56554291-.2083051-.72469791-.4645058-.159155-.2562008-.19417344-.5705493-.09530209-.8554942l7.24-20.54c.1027684-.2859989.3257098-.5125951.61-.62 2.296995-.8691728 4.7096193-1.3948283 7.16-1.56 1.5660073-2.7162671 3.9945332-4.8315483 6.9-6.01.7456142-.3066411 1.2317008-1.033795 1.23-1.84v-2.17c-1.1045695 0-2-.8954305-2-2v-1c0-1.1045695.8954305-2 2-2l-.761-3.8c-.0600998-.29442665.0153882-.60027193.2055798-.83292226s.4749224-.36743961.7754202-.36707847l-3 .00000073c-.3004978-.00036187-.5852286.13442741-.7754202.36707774s-.2656796.53849561-.2055798.83292226l.761 3.8c-1.1045695 0-2 .8954305-2 2v1c0 1.1045695.8954305 2 2 2v2.17c.0017008.806205-.4843858 1.5333589-1.23 1.84-2.9054668 1.1784517-5.3339927 3.2937329-6.9 6.01-2.4503807.1651717-4.863005.6908272-7.16 1.56-.2842902.1074049-.5072316.3340011-.61.62l-7.24 20.54c-.09887135.2849449-.06385291.5992934.09530209.8554942.159155.2562007.42544289.4268819.72469791.4645058l-2.56 7.27c-.21745411.6116045-.12456536 1.2907028.24914201 1.8214468.37370738.530744.98174759.847114 1.63085799.8485532z" fill="#fff"/><path id="Rectangle-path" d="m4.772 25.971h8v2h-8z" fill="#fff" transform="matrix(.332 -.943 .943 .332 -19.581 26.277)"/><g fill="#428dff"><circle id="Oval" cx="27" cy="35" r="1"/><circle id="Oval" cx="24" cy="23" r="1"/><circle id="Oval" cx="23" cy="27" r="1"/><circle id="Oval" cx="31" cy="36" r="1"/><path id="Shape" d="m.561 54.739c.56165762.7895414 1.47006672 1.2592027 2.439 1.261h19.157c.722 2.309 3.91 4 7.846 4s7.125-1.691 7.847-4h19.15c.9731226-.0014357 1.8850953-.474788 2.4463418-1.2697547.5612464-.7949667.7020338-1.8127759.3776582-2.7302453l-2.276-6.47c.026-.024.058-.039.083-.065.5364108-.5408812.7145509-1.341734.458-2.059l-7.246-20.539c-.2021507-.5678877-.6467911-1.0161937-1.213-1.223-2.2168069-.8279643-4.5343182-1.3559708-6.891-1.57-1.6763391-2.6987318-4.1678411-4.7941291-7.114-5.983-.3770053-.1498297-.6246163-.5143132-.625-.92v-1.355c1.1943509-.4222546 1.9947486-1.5492146 2-2.816v-1c-.0002394-1.20372282-.7199343-2.29074563-1.828-2.761l.569-2.846c.1177668-.58763755-.0342009-1.197116-.4140728-1.66067208s-.9476052-.73232563-1.5469272-.73232792h-7.56c-.599322.00000229-1.1670553.26877184-1.5469272.73232792s-.5318396 1.07303453-.4140728 1.66067208l.569 2.846c-1.1080657.47025437-1.8277606 1.55727718-1.828 2.761v1c.0052514 1.2667854.8056491 2.3937454 2 2.816v1.356c.0034019.4001737-.2380721.76179-.609.912-2.9392122 1.1929441-5.4226568 3.2900906-7.091 5.988-2.3678997.2114784-4.6966957.7398635-6.924 1.571-.56611323.2075041-1.01061479.6560366-1.213 1.224-.18029995.5204632.09422228 1.0887332.614 1.271.10623615.037887.21821031.0571695.331.057.4265009-.000397.8063984-.2696914.948-.672 1.6656392-.6147692 3.3890226-1.0600213 5.144-1.329-1.0235856 2.4195642-1.3972583 5.0645737-1.084 7.673.0732186.5698878.1804095 1.1348938.321 1.692l.005.02c1.3460988 5.4753725 5.648998 9.7333724 11.1381887 11.0219654s11.2373361-.6099142 14.8792534-4.914345c3.6419174-4.3044307 4.5623459-10.2876002 2.3825579-15.4876204 1.7481709.2708148 3.4645387.7174121 5.123 1.333l7.235 20.532c-14.176-4.73-21.44.656-24.51 4.287-.252.3-.477.592-.689.879v-3.23c0-.5522847-.4477153-1-1-1s-1 .4477153-1 1v3.22c-.21-.284-.432-.573-.683-.869-2.725-3.224-8.764-7.823-20.009-5.5-.04083146.0061601-.08124217.0148434-.121.026-1.48356803.3151727-2.94767681.715841-4.385 1.2v-.006l4.582-12.995c.13308533-.3402078.07006591-.7259139-.16437921-1.006072-.23444513-.2801581-.6030031-.4101798-.96134298-.3391475-.35833989.0710323-.64943047.3318137-.75927781.6802195l-4.582 12.994c-.2562968.7174554-.07776148 1.5183361.459 2.059.025.026.057.04.084.064l-2.281 6.472c-.32353791.9208784-.18158385 1.9413828.381 2.739zm34.439-45.739c0 .55228475-.4477153 1-1 1h-8c-.5522847 0-1-.44771525-1-1v-1c0-.55228475.4477153-1 1-1h8c.5522847 0 1 .44771525 1 1zm-1.22-7-.6 3h-6.36l-.6-3zm-8.641 13.939c1.1289873-.4535228 1.8666728-1.5503393 1.861-2.767v-1.172h6v1.171c-.0018367 1.2207882.7406088 2.3194015 1.874 2.773 3.518717 1.4158325 6.2396234 4.3034144 7.444 7.9-2.6681277-.4442175-5.4082078-.0730415-7.862 1.065-1.4024629.6746299-2.7587579 1.4413041-4.06 2.295-1.7795146 1.2450511-3.7342052 2.2186893-5.8 2.889-2.4046772.6242717-4.9123286.7454669-7.366.356-.051-.273-.1-.546-.136-.824-.7138215-5.8547106 2.5823026-11.4620138 8.045-13.686zm13.526 21.751c-2.7625709 2.4895652-6.4651438 3.665801-10.158 3.227-4.8428817-.5752261-8.9619626-3.8004641-10.682-8.364.7417859.0838643 1.4875035.1282602 2.234.133 1.7090332.002822 3.410997-.2194218 5.062-.661 2.2563662-.7197885 4.3923432-1.7731147 6.337-3.125 1.2252341-.8068742 2.502713-1.5314693 3.824-2.169 2.3598064-1.126104 5.0437111-1.3742855 7.57-.7.6595314 4.3437198-.9147021 8.7272854-4.187 11.659zm-8.665 20.31c-3.464 0-5.893-1.517-5.99-2.913l.774-3.087h3.636c.2431255.4273363.4569508.8706895.64 1.327.1406829.4005593.5189539.6686275.9435.6686275s.8028171-.2680682.9435-.6686275c.1803378-.4571618.3935627-.9006562.638-1.327h3.638l.771 3.087c-.094 1.396-2.526 2.913-5.994 2.913zm27.812-4.417c-.1858064.2638627-.4892924.419717-.812.417h-19.216l-.5-2h16.889c.3247618.0003486.6294675-.1570337.817158-.422067s.2349879-.6047063.126842-.910933l-1.908-5.413c.762.205 1.546.437 2.357.708h.014l2.36 6.7c.1122016.3088892.0654723.6531903-.125.921zm-6.912-8.862 1.861 5.279h-19.828c.094-.12.181-.237.284-.358 2.902-3.433 8.247-6.774 17.683-4.921zm-24.11 4.92c.1.122.19.239.284.359h-19.828l1.861-5.279c9.437-1.853 14.782 1.489 17.683 4.92zm-24.723 3.022 2.361-6.7h.013c.811-.271 1.595-.5 2.357-.708l-1.908 5.412c-.1080869.3060602-.06090251.6455417.12655344.9105245s.49186126.4224993.81644656.4224755h16.89l-.5 2h-19.223c-.3223962.0025601-.6255116-.1532958-.811-.417-.18912185-.2680863-.23471292-.6118878-.122-.92z"/><path id="Shape" d="m8.792 27.971c-.35726559.0017863-.6883456-.187162-.8685254-.4956699s-.18208579-.6897057-.005-1c.17708579-.3102942.50625981-.5025438.8635254-.5043301h.01c.55228475 0 1 .4477153 1 1s-.44771525 1-1 1z"/><path id="Shape" d="m36.5 29c-1.4156179 0-2.6918449.8527476-3.2335784 2.160608s-.2422883 2.8132727.7587047 3.8142657 2.5064053 1.3004382 3.8142657.7587047 2.160608-1.8179605 2.160608-3.2335784c0-1.9329966-1.5670034-3.5-3.5-3.5zm0 5c-.8284271 0-1.5-.6715729-1.5-1.5s.6715729-1.5 1.5-1.5 1.5.6715729 1.5 1.5-.6715729 1.5-1.5 1.5z"/><path id="Shape" d="m29.5 24c1.9329966 0 3.5-1.5670034 3.5-3.5s-1.5670034-3.5-3.5-3.5-3.5 1.5670034-3.5 3.5 1.5670034 3.5 3.5 3.5zm0-5c.8284271 0 1.5.6715729 1.5 1.5s-.6715729 1.5-1.5 1.5-1.5-.6715729-1.5-1.5.6715729-1.5 1.5-1.5z"/></g></g></g></svg>