<svg height="512" viewBox="0 0 60 60" width="512" xmlns="http://www.w3.org/2000/svg"><g id="Page-1" fill="none" fill-rule="evenodd"><g id="023---Education-Book" fill-rule="nonzero"><path id="Shape" d="m56.32 45.06c-.1485598.0175924-.2991754.0004769-.44-.05-1.386318-.4683489-2.7987029-.8556696-4.23-1.16-10.56-2.25-16.32 1.75-19.2 5.15-.5324463.6272932-1.0139752 1.2960834-1.44 2-.4009627.6322027-.7392344 1.3020478-1.01 2-.2707656-.6979522-.6090373-1.3677973-1.01-2-.4260248-.7039166-.9075537-1.3727068-1.44-2-2.87-3.4-8.63-7.4-19.2-5.15-1.43129707.3043304-2.84368201.6916511-4.23 1.16-.13736964.0504067-.2847294.0675416-.43.05-.30107412-.0348993-.57007334-.2044637-.73140906-.4610458-.16133571-.2565821-.1975957-.5724902-.09859094-.8589542l6.25-17.74h2.65c.6934608.0030104 1.3386845-.3544821 1.7038347-.9440263.3651501-.5895441.39778-1.3264632.0861653-1.9459737l-.62-1.24c2.288879-.6929076 4.6832863-.9706182 7.07-.82v10.45c0 1.93 4.48 3.5 10 3.5s10-1.57 10-3.5v-10.45c3.1706447-.1637095 6.3393131.3581487 9.29 1.53.2823037.1104349.5041697.335938.61.62l7.25 20.54c.0990048.286464.0627448.6023721-.0985909.8589542-.1613358.2565821-.430335.4261465-.7314091.4610458z" fill="#e8edfc"/><path id="Shape" d="m57.15 43.74-7.25-20.54c-.1058303-.284062-.3276963-.5095651-.61-.62-2.9506869-1.1718513-6.1193553-1.6937095-9.29-1.53v.033c2.1510206.2357097 4.2640987.7396234 6.29 1.5.2823037.1104349.5041697.335938.61.62l7.25 20.54c.083864.2393661.0709467.5020181-.036.732.578.165 1.161.335 1.766.538.1408246.0504769.2914402.0675924.44.05.3018166-.0346769.571503-.2046772.7329547-.4620273s.1971589-.57414.0970453-.8609727z" fill="#cad9fc"/><g fill="#a4c2f7"><path id="Shape" d="m28.99 51h-23.16l2.52-7.15c10.57-2.25 16.33 1.75 19.2 5.15.5324463.6272932 1.0139752 1.2960834 1.44 2z"/><path id="Shape" d="m54.17 51h-23.16c.4260248-.7039166.9075537-1.3727068 1.44-2 2.88-3.4 8.64-7.4 19.2-5.15z"/><path id="Shape" d="m57 55h-20l-1-4h18.17l-2.52-7.15c1.4312971.3043304 2.843682.6916511 4.23 1.16.1408246.0504769.2914402.0675924.44.05l2.56 7.27c.2174541.6116045.1245654 1.2907028-.249142 1.8214468s-.9817476.847114-1.630858.8485532z"/></g><path id="Shape" d="m58.88 52.33-2.56-7.27c-.1485598.0175924-.2991754.0004769-.44-.05-1.386318-.4683489-2.7987029-.8556696-4.23-1.16l.31.88c.308.1.6.174.92.28.1408246.0504769.2914402.0675924.44.05l2.56 7.27c.2174541.6116045.1245654 1.2907028-.249142 1.8214468s-.9817476.847114-1.630858.8485532h3c.6491104-.0014392 1.2571506-.3178092 1.630858-.8485532s.4665961-1.2098423.249142-1.8214468z" fill="#7facfa"/><path id="Shape" d="m37 55c0 2.21-3.13 4-7 4s-7-1.79-7-4l1-4h4.99c.4009627.6322027.7392344 1.3020478 1.01 2 .2707656-.6979522.6090373-1.3677973 1.01-2h4.99z" fill="#7facfa"/><path id="Shape" d="m24 51-1 4h-20c-.6491104-.0014392-1.25715061-.3178092-1.63085799-.8485532-.37370737-.530744-.46659612-1.2098423-.24914201-1.8214468l2.57-7.27c.1452706.0175416.29263036.0004067.43-.05 1.38631799-.4683489 2.79870293-.8556696 4.23-1.16l-2.52 7.15z" fill="#a4c2f7"/><path id="Shape" d="m40 14.53v16.97c0 1.93-4.48 3.5-10 3.5s-10-1.57-10-3.5v-16.9l9.6 4.05c.2438284.1018438.5189357.098224.76-.01z" fill="#e8edfc"/><path id="Shape" d="m37 15.809v15.691c0 1.751-3.693 3.2-8.5 3.456.491.026.989.044 1.5.044 5.52 0 10-1.57 10-3.5v-16.97z" fill="#cad9fc"/><path id="Shape" d="m49.7 10.4-9.7 4.13-9.64 4.11c-.2410643.108224-.5161716.1118438-.76.01l-9.6-4.05-9.7-4.1c-.1796906-.0774296-.2960928-.2543369-.2960928-.45 0-.19566315.1164022-.37257042.2960928-.45l19.34-8.24c.2410643-.10822398.5161716-.11184381.76-.01l19.3 8.15c.1796906.07742958.2960928.25433685.2960928.45 0 .1956631-.1164022.3725704-.2960928.45z" fill="#e8edfc"/><path id="Shape" d="m49.7 9.5-19.3-8.15c-.2438284-.10184381-.5189357-.09822398-.76.01l-1.1.47 18.16 7.67c.1796906.07742958.2960928.25433685.2960928.45 0 .1956631-.1164022.3725704-.2960928.45l-9.7 4.13-8.538 3.64 1.138.48c.2438284.1018438.5189357.098224.76-.01l9.64-4.11 9.7-4.13c.1796906-.0774296.2960928-.2543369.2960928-.45 0-.19566315-.1164022-.37257042-.2960928-.45z" fill="#cad9fc"/><path id="Shape" d="m11.76 26h-3.52c-.6934608.0030104-1.3386845-.3544821-1.70383467-.9440263-.36515018-.5895441-.39778005-1.3264632-.08616533-1.9459737l3.55-7.11 2.93 5.87.62 1.24c.3116147.6195105.2789848 1.3564296-.0861653 1.9459737-.3651502.5895442-1.0103739.9470367-1.7038347.9440263z" fill="#a4c2f7"/><path id="Shape" d="m3 55h3c-.6491104-.0014392-1.25715061-.3178092-1.63085799-.8485532-.37370737-.530744-.46659612-1.2098423-.24914201-1.8214468l2.57-7.27c-.30107412-.0348993-.57007334-.2044637-.73140906-.4610458-.16133571-.2565821-.1975957-.5724902-.09859094-.8589542l6.25-17.74h-.87c-.6934608.0030104-1.3386845-.3544821-1.70383467-.9440263-.36515018-.5895441-.39778005-1.3264632-.08616533-1.9459737l2.05-4.105-1.5-3.005-3.55 7.11c-.31161472.6195105-.27898485 1.3564296.08616533 1.9459737.36515017.5895442 1.01037387.9470367 1.70383467.9440263h.87l-6.25 17.74c-.09900476.286464-.06274477.6023721.09859094.8589542.16133572.2565821.43033494.4261465.73140906.4610458l-2.57 7.27c-.21745411.6116045-.12456536 1.2907028.24914201 1.8214468.37370738.530744.98174759.847114 1.63085799.8485532z" fill="#fff"/><path id="Rectangle-path" d="m3.781 28.772h8v2h-8z" fill="#fff" transform="matrix(.332 -.943 .943 .332 -22.885 27.218)"/><path id="Shape" d="m.561 54.739c.56165762.7895414 1.47006672 1.2592027 2.439 1.261h19.157c.722 2.309 3.91 4 7.846 4s7.125-1.691 7.847-4h19.15c.9731226-.0014357 1.8850953-.474788 2.4463418-1.2697547.5612464-.7949667.7020338-1.8127759.3776582-2.7302453l-2.276-6.47c.022-.021.051-.033.073-.055.543112-.5405524.7267951-1.3453334.472-2.068l-7.251-20.543c-.2090391-.5637472-.6511628-1.0098803-1.213-1.224-2.7539413-1.0624113-5.6773178-1.6180189-8.629-1.64v-4.8l9.089-3.874c.550642-.2328511.9084538-.7726487.9084538-1.3705 0-.59785134-.3578118-1.13764889-.9084538-1.3705l-19.298-8.152c-.4937979-.20898897-1.0512021-.20898897-1.545 0l-19.335 8.243c-.45958372.19950391-.78647255.61865975-.868 1.113-.02245512.06843106-.03688516.13923893-.043.211v5.764l-3.447 6.894c-.465131.9299507-.41555654 2.0344384.13101715 2.9189792s1.51219671 1.4229855 2.55198285 1.4230208h3.528c1.0397861-.0000353 2.0054092-.53848 2.5519829-1.4230208.5465736-.8845408.5961481-1.9890285.1310171-2.9189792l-.056-.112c1.5090753-.3630685 3.0569186-.5400512 4.609-.527v9.481c0 2.954 5.534 4.5 11 4.5s11-1.546 11-4.5v-9.5c2.7235684.0211248 5.4202938.5403385 7.957 1.532l7.243 20.529c-1.4226041-.4745975-2.8717443-.8655982-4.34-1.171-.0546293-.0161607-.1104789-.0278657-.167-.035-6.194-1.25-14.375-1.158-20.007 5.5-.251.3-.475.589-.686.874v-10.229c0-.5522847-.4477153-1-1-1s-1 .4477153-1 1v10.229c-.211-.286-.434-.576-.686-.874-2.719-3.225-8.75-7.828-20-5.5-.05009594.0062814-.09959427.0166493-.148.031-1.47688199.3137155-2.93459884.7116996-4.366 1.192v-.006l3.6-10.194c.11879081-.3370801.04872797-.7119291-.18379655-.983345-.23252451-.2714159-.59218468-.3981642-.9435-.3325-.35131533.0656642-.64091265.3137649-.75970345.650845l-3.594 10.187v.006c-.25867444.7184647-.07861724 1.5217069.462 2.061.024.025.055.039.08.062l-2.281 6.471c-.32353791.9208784-.18158385 1.9413828.381 2.739zm29.452-52.464 18.187 7.681-18.222 7.765-15.913-6.721h15.935c.5522847 0 1-.4477153 1-1 0-.55228475-.4477153-1-1-1h-15.752zm-17.4 22.251c-.1809376.2962801-.5038462.4761375-.851.474h-3.526c-.34644011-.000185-.66810366-.1796678-.85019453-.4743943-.18209086-.2947265-.19866427-.6627032-.04380547-.9726057l2.658-5.317 2.658 5.317c.1578292.3093149.1414999.6788137-.043.973zm.859-3.815-2.472-4.947v-3.887l8 3.379v4.763c-1.8641558-.0089596-3.7216167.2236431-5.526.692zm16.528 13.289c-5.583 0-9-1.619-9-2.5v-15.4l8.208 3.467c.4938674.2086461 1.0511326.2086461 1.545 0l8.247-3.517v15.45c0 .881-3.417 2.5-9 2.5zm0 24c-3.464 0-5.893-1.517-5.99-2.913l.774-3.087h3.63c.2446769.4287022.4595192.8737565.643 1.332.1411019.3998258.5190066.6672073.943.6672073s.8018981-.2673815.943-.6672073c.182264-.4582702.396111-.9033394.64-1.332h3.64l.771 3.087c-.094 1.396-2.526 2.913-5.994 2.913zm27.812-4.417c-.1858064.2638627-.4892924.419717-.812.417h-19.216l-.5-2h16.889c.3247618.0003486.6294675-.1570337.817158-.422067s.2349879-.6047063.126842-.910933l-1.909-5.415c.76.2 1.541.435 2.349.7h.021l2.362 6.7c.1157524.3118101.0689002.6607651-.125.931zm-6.912-8.864 1.861 5.281h-19.828c.093-.118.179-.234.281-.354 2.905-3.434 8.254-6.776 17.686-4.927zm-24.114 4.926c.1.12.188.237.282.355h-19.822l1.862-5.281c9.442-1.85 14.782 1.493 17.678 4.926zm-24.719 3.018 2.362-6.7h.007c.814-.27 1.6-.5 2.363-.708l-1.909 5.412c-.1080869.3060602-.06090251.6455417.12655344.9105245s.49186126.4224993.81644656.4224755h16.89l-.5 2h-19.223c-.3223962.0025601-.6255116-.1532958-.811-.417-.18912185-.2680863-.23471292-.6118878-.122-.92z" fill="#428dff"/><path id="Shape" d="m7.8 30.773c-.35726559.0017863-.6883456-.187162-.8685254-.4956699s-.18208579-.6897057-.005-1c.17708579-.3102942.50625981-.5025438.8635254-.5043301h.01c.55228475 0 1 .4477153 1 1s-.44771525 1-1 1z" fill="#428dff"/></g></g></svg>