<svg height="512" viewBox="0 0 60 51" width="512" xmlns="http://www.w3.org/2000/svg"><g id="Page-1" fill="none" fill-rule="evenodd"><g id="024---Opening-Page" fill-rule="nonzero"><path id="Shape" d="m30 41h-25v-31h4v22.52c-.00083347.3226006.15401401.6257891.41585393.8142345s.59850797.2389991.90414607.1357655c3.8-1.32 14.76-3.95 19.68 7.53z" fill="#a4c2f7"/><path id="Shape" d="m25 41v4h-21c-1.65685425 0-3-1.3431458-3-3v-29c0-1.6568542 1.34314575-3 3-3h1v31z" fill="#e8edfc"/><path id="Shape" d="m59 13v29c0 1.6568542-1.3431458 3-3 3h-13v-4h12v-31h1c1.6568542 0 3 1.3431458 3 3z" fill="#e8edfc"/><path id="Shape" d="m56 10h-1v.776c.6350581.5649372.9988582 1.3740285 1 2.224v29c0 1.6568542-1.3431458 3-3 3h3c1.6568542 0 3-1.3431458 3-3v-29c0-1.6568542-1.3431458-3-3-3z" fill="#cad9fc"/><g fill="#e8edfc"><path id="Rectangle-path" d="m30 10h5v31h-5z"/><path id="Shape" d="m30 10v31c-4.92-11.48-15.88-8.85-19.68-7.53-.3056381.1032336-.64230615.0526799-.90414607-.1357655s-.4166874-.4916339-.41585393-.8142345v-28.87c-.00039671-.40980385.24927896-.7783727.63-.93 2.91-1.13 15.11-5 20.37 7.28z"/><path id="Shape" d="m43 10v39c-.0010489.3465932-.1814922.6679286-.4768822.8492369-.2953899.1813084-.6635996.1967323-.9731178.0407631l-2.1-1.05c-.2836743-.1399671-.6163257-.1399671-.9 0l-2.1 1.05c-.3095182.1559692-.6777279.1405453-.9731178-.0407631-.29539-.1813083-.4758333-.5026437-.4768822-.8492369v-39c0-.55228475.4477153-1 1-1h6c.2652165 0 .5195704.10535684.7071068.29289322s.2928932.44189029.2928932.70710678z"/></g><path id="Shape" d="m35 41v5.72c-1.3251474.8955706-2.9018893 1.344066-4.5 1.28-3.04 0-5.5-1.34-5.5-3v-4z" fill="#a4c2f7"/><path id="Rectangle-path" d="m43 10h12v31h-12z" fill="#e8edfc"/><path id="Shape" d="m4 45h3c-1.65685425 0-3-1.3431458-3-3v-29c0-1.6568542 1.34314575-3 3-3h-3c-1.65685425 0-3 1.3431458-3 3v29c0 1.6568542 1.34314575 3 3 3z" fill="#fff"/><path id="Rectangle-path" d="m0 13h2v8h-2z" fill="#fff"/><path id="Shape" d="m1.02 18c-.55228475.0027614-1.00223858-.4427153-1.005-.995s.44271525-1.0022386.995-1.005h.01c.55228475 0 1 .4477153 1 1s-.44771525 1-1 1z" fill="#428dff"/><path id="Shape" d="m56 9h-12.278c-.3544126-.61675126-1.0106732-.997855-1.722-1h-6c-.7113268.002145-1.3675874.38324874-1.722 1h-3.641c-5.825-12.5-18.792-8.214-21.368-7.21-.76845731.29656875-1.27356508 1.03731388-1.269 1.861v5.349h-4c-2.209139 0-4 1.790861-4 4 0 .5522847.44771525 1 1 1s1-.4477153 1-1c0-1.1045695.8954305-2 2-2v30c0 .5522847.44771525 1 1 1h19v2h-20c-1.1045695 0-2-.8954305-2-2v-21c0-.5522847-.44771525-1-1-1s-1 .4477153-1 1v21c0 2.209139 1.790861 4 4 4h20.2c.687 1.764 3.165 3 6.3 3 1.1932726.0123185 2.3789633-.1909427 3.5-.6v.6c-.0010227.6947884.3586134 1.3403254.9499369 1.7051109.5913236.3647854 1.3295969.396545 1.9500631.0838891l2.1-1.054 2.1 1.053c.2793984.1397858.5875845.2123808.9.212 1.1045695 0 2-.8954305 2-2v-3h12c2.209139 0 4-1.790861 4-4v-29c0-2.209139-1.790861-4-4-4zm-12 2h10v29h-10zm-13 0h3v29h-3zm-2-.792v26.927c-2.6715005-3.8301864-7.1041623-6.0429399-11.771-5.876-2.4620695.0268397-4.9034678.4530459-7.229 1.262v-22.5c0-.008 0-.014 0-.021s0-.013 0-.021v-6.326c3.233-1.26 14.128-4.495 19 6.555zm-23 .792h2v21.521c-.00213833.6469383.30955989 1.2547475.83617262 1.6305304.52661272.3757829 1.20274918.4728776 1.81382738.2604696 3.849-1.338 13-3.329 17.756 5.588h-22.406zm24.5 36c-2.747 0-4.5-1.185-4.5-2v-3h8v4.19c-1.0800724.5598011-2.2838058.8383794-3.5.81zm9.394.946c-.5634632-.2800112-1.2255368-.2800112-1.789 0l-2.105 1.054v-39h6v30.983.017.017 3.963.02.02 3.98zm18.106-5.946c0 1.1045695-.8954305 2-2 2h-12v-2h11c.5522847 0 1-.4477153 1-1v-30c1.1045695 0 2 .8954305 2 2z" fill="#428dff"/></g></g></svg>