<svg height="512" viewBox="0 0 60 60" width="512" xmlns="http://www.w3.org/2000/svg"><g id="Page-1" fill="none" fill-rule="evenodd"><g id="025---Three-Books" fill-rule="nonzero"><path id="Shape" d="m25 30v6c0-.5522847-.4477153-1-1-1h-19.83c-1.63711065.0289164-3.01950043-1.2095653-3.17-2.84v-.16c0-1.6568542 1.34314575-3 3-3h20c.5522847 0 1 .4477153 1 1z" fill="#a4c2f7"/><path id="Shape" d="m25 36v22c0 .5522847-.4477153 1-1 1h-20c-1.65685425 0-3-1.3431458-3-3v-23.84c.15049957 1.6304347 1.53288935 2.8689164 3.17 2.84h19.83c.5522847 0 1 .4477153 1 1z" fill="#e8edfc"/><rect id="Rectangle-path" fill="#fff" height="7" rx="1" width="14" x="6" y="47"/><path id="Shape" d="m42 22v22c0 .5522847-.4477153 1-1 1h-16v-15c0-.5522847-.4477153-1-1-1h-6v-10.84c.1504996 1.6304347 1.5328894 2.8689164 3.17 2.84h19.83c.5522847 0 1 .4477153 1 1z" fill="#e8edfc"/><path id="Shape" d="m41 21h-3c.5522847 0 1 .4477153 1 1v22c0 .5522847-.4477153 1-1 1h3c.5522847 0 1-.4477153 1-1v-22c0-.5522847-.4477153-1-1-1z" fill="#cad9fc"/><path id="Shape" d="m42 16v6c0-.5522847-.4477153-1-1-1h-19.83c-1.6371106.0289164-3.0195004-1.2095653-3.17-2.84v-.16c0-1.6568542 1.3431458-3 3-3h20c.5522847 0 1 .4477153 1 1z" fill="#a4c2f7"/><path id="Shape" d="m41 15h-3c.5522847 0 1 .4477153 1 1v5h2c.5522847 0 1 .4477153 1 1v-6c0-.5522847-.4477153-1-1-1z" fill="#7facfa"/><path id="Shape" d="m25 33h11c.5522847 0 1 .4477153 1 1v5c0 .5522847-.4477153 1-1 1h-11z" fill="#fff"/><path id="Shape" d="m59 8v22c0 .5522847-.4477153 1-1 1h-16v-15c0-.5522847-.4477153-1-1-1h-6v-10.84c.1504996 1.6304347 1.5328894 2.8689164 3.17 2.84h19.83c.5522847 0 1 .44771525 1 1z" fill="#e8edfc"/><path id="Shape" d="m58 7h-3c.5522847 0 1 .44771525 1 1v22c0 .5522847-.4477153 1-1 1h3c.5522847 0 1-.4477153 1-1v-22c0-.55228475-.4477153-1-1-1z" fill="#cad9fc"/><path id="Shape" d="m59 2v6c0-.55228475-.4477153-1-1-1h-19.83c-1.6371106.0289164-3.0195004-1.2095653-3.17-2.84v-.16c0-1.65685425 1.3431458-3 3-3h20c.5522847 0 1 .44771525 1 1z" fill="#a4c2f7"/><path id="Shape" d="m58 1h-3c.5522847 0 1 .44771525 1 1v5h2c.5522847 0 1 .44771525 1 1v-6c0-.55228475-.4477153-1-1-1z" fill="#7facfa"/><path id="Shape" d="m42 19h11c.5522847 0 1 .4477153 1 1v5c0 .5522847-.4477153 1-1 1h-11z" fill="#fff"/><path id="Shape" d="m4 59h3c-1.65685425 0-3-1.3431458-3-3v-23.84c-.04395625-.822991.25260071-1.6278202.82004435-2.2255275s1.35579248-.9356455 2.17995565-.9344755l-3 .000003c-.82416317-.001173-1.61251201.3367652-2.17995565.9344725s-.8640006 1.4025365-.82004435 2.2255275v23.84c0 1.6568542 1.34314575 3 3 3z" fill="#fff"/><path id="Rectangle-path" d="m0 48h2v8h-2z" fill="#fff"/><g fill="#428dff"><path id="Shape" d="m1.02 53c-.55228475.0027614-1.00223858-.4427153-1.005-.995s.44271525-1.0022386.995-1.005h.01c.55228475 0 1 .4477153 1 1s-.44771525 1-1 1z"/><path id="Shape" d="m5 40h16c.5522847 0 1-.4477153 1-1s-.4477153-1-1-1h-16c-.55228475 0-1 .4477153-1 1s.44771525 1 1 1z"/><path id="Shape" d="m5 44h16c.5522847 0 1-.4477153 1-1s-.4477153-1-1-1h-16c-.55228475 0-1 .4477153-1 1s.44771525 1 1 1z"/><path id="Shape" d="m7 46c-1.1045695 0-2 .8954305-2 2v5c0 1.1045695.8954305 2 2 2h12c1.1045695 0 2-.8954305 2-2v-5c0-1.1045695-.8954305-2-2-2zm12 7h-12v-5h12z"/><path id="Shape" d="m38 24h-16c-.5522847 0-1 .4477153-1 1s.4477153 1 1 1h16c.5522847 0 1-.4477153 1-1s-.4477153-1-1-1z"/><path id="Shape" d="m58 0h-20c-2.209139 0-4 1.790861-4 4v10h-13c-2.209139 0-4 1.790861-4 4v10h-13c-2.209139 0-4 1.790861-4 4v.16 15.84c0 .5522847.44771525 1 1 1s1-.4477153 1-1v-12.608c.65512585.3949788 1.40502311.6050883 2.17.608h19.83v22h-20c-1.1045695 0-2-.8954305-2-2 0-.5522847-.44771525-1-1-1s-1 .4477153-1 1c0 2.209139 1.790861 4 4 4h20c1.1045695 0 2-.8954305 2-2v-12h15c1.1045695 0 2-.8954305 2-2v-12h15c1.1045695 0 2-.8954305 2-2v-28c0-1.1045695-.8954305-2-2-2zm-20 2h20v4h-19.83c-1.0879415.03327804-2.0249722-.7612549-2.17-1.84v-.16c0-1.1045695.8954305-2 2-2zm-17 14h20v4h-19.83c-1.0879415.033278-2.0249722-.7612549-2.17-1.84v-.16c0-1.1045695.8954305-2 2-2zm22 4h10v5h-10zm-38.83 14c-1.10286249.0288884-2.04491575-.7898731-2.17-1.886v-.114c0-1.1045695.8954305-2 2-2h20v4zm21.83 3v-3h10v5h-10zm15 7h-15v-3h10c1.1045695 0 2-.8954305 2-2v-5c0-1.1045695-.8954305-2-2-2h-10v-2h12c.5522847 0 1-.4477153 1-1s-.4477153-1-1-1h-19v-6.608c.6551258.3949788 1.4050231.6050883 2.17.608h19.83zm17-14h-15v-3h10c1.1045695 0 2-.8954305 2-2v-5c0-1.1045695-.8954305-2-2-2h-10v-2h12c.5522847 0 1-.4477153 1-1s-.4477153-1-1-1h-19v-6.608c.6551258.39497879 1.4050231.60508826 2.17.608h19.83z"/><path id="Shape" d="m55 10h-16c-.5522847 0-1 .4477153-1 1s.4477153 1 1 1h16c.5522847 0 1-.4477153 1-1s-.4477153-1-1-1z"/></g></g></g></svg>