<svg height="512" viewBox="0 0 54 60" width="512" xmlns="http://www.w3.org/2000/svg"><g id="Page-1" fill="none" fill-rule="evenodd"><g id="026---Page-Folded-Book" fill-rule="nonzero"><path id="Shape" d="m53 8v44c-.0032948 1.1032019-.8967981 1.9967052-2 2h-40v-48h40c1.1032019.0032948 1.9967052.89679813 2 2z" fill="#e8edfc"/><path id="Shape" d="m51 6h-3c1.1032019.0032948 1.9967052.89679813 2 2v44c-.0032948 1.1032019-.8967981 1.9967052-2 2h3c1.1032019-.0032948 1.9967052-.8967981 2-2v-44c-.0032948-1.10320187-.8967981-1.9967052-2-2z" fill="#cad9fc"/><path id="Shape" d="m47 54v3c-.0032948 1.1032019-.8967981 1.9967052-2 2h-39c-2.76142375 0-5-2.2385763-5-5s2.23857625-5 5-5 5 2.2385763 5 5z" fill="#a4c2f7"/><path id="Shape" d="m44 54v3c-.0032948 1.1032019-.8967981 1.9967052-2 2h3c1.1032019-.0032948 1.9967052-.8967981 2-2v-3z" fill="#7facfa"/><path id="Shape" d="m11 6v48c0-2.7614237-2.23857625-5-5-5s-5 2.2385763-5 5v-48c0-2.76142375 2.23857625-5 5-5s5 2.23857625 5 5z" fill="#e8edfc"/><rect id="Rectangle-path" fill="#fff" height="21" rx="1" width="8" x="16" y="27"/><rect id="Rectangle-path" fill="#fff" height="21" rx="1" width="8" x="28" y="27"/><rect id="Rectangle-path" fill="#fff" height="21" rx="1" width="8" x="40" y="27"/><rect id="Rectangle-path" fill="#a4c2f7" height="12" rx="1" width="15" x="33" y="11"/><path id="Shape" d="m1 54c0 2.7614237 2.23857625 5 5 5h3c-2.76142375 0-5-2.2385763-5-5v-48c.00565259-2.1761534 1.42254108-4.09704937 3.5-4.745-.48381554-.16201472-.98982576-.24803646-1.5-.255-2.76142375 0-5 2.23857625-5 5z" fill="#fff"/><path id="Rectangle-path" d="m0 6h2v8h-2z" fill="#fff"/><g fill="#428dff"><path id="Shape" d="m0 54c.00330738 3.3123376 2.68766243 5.9966926 6 6h39c1.6568542 0 3-1.3431458 3-3v-2h3c1.6568542 0 3-1.3431458 3-3v-44c0-1.65685425-1.3431458-3-3-3h-39.09c-.5356138-3.05921949-3.31724876-5.20406462-6.41211254-4.9442104s-5.47989925 2.83850879-5.49788746 5.9442104c0 .55228475.44771525 1 1 1s1-.44771525 1-1c0-2.209139 1.790861-4 4-4s4 1.790861 4 4v43.54c-2.2714348-2.0532429-5.7285652-2.0532429-8 0v-35.54c0-.5522847-.44771525-1-1-1s-1 .4477153-1 1zm52-46v44c0 .5522847-.4477153 1-1 1h-39v-46h39c.5522847 0 1 .44771525 1 1zm-46 42c2.209139 0 4 1.790861 4 4 0 .5522847.4477153 1 1 1h35v2c0 .5522847-.4477153 1-1 1h-39c-2.209139 0-4-1.790861-4-4s1.790861-4 4-4z"/><path id="Shape" d="m1.02 11c-.55228475.0027614-1.00223858-.4427153-1.005-.995-.00276142-.55228475.44271525-1.00223858.995-1.005h.01c.55228475 0 1 .44771525 1 1 0 .5522847-.44771525 1-1 1z"/><path id="Shape" d="m17 49h6c1.1045695 0 2-.8954305 2-2v-19c0-1.1045695-.8954305-2-2-2h-6c-1.1045695 0-2 .8954305-2 2v19c0 1.1045695.8954305 2 2 2zm0-21h6v19h-6z"/><path id="Shape" d="m35 26h-6c-1.1045695 0-2 .8954305-2 2v19c0 1.1045695.8954305 2 2 2h6c1.1045695 0 2-.8954305 2-2v-19c0-1.1045695-.8954305-2-2-2zm-6 21v-19h6v19z"/><path id="Shape" d="m47 26h-6c-1.1045695 0-2 .8954305-2 2v19c0 1.1045695.8954305 2 2 2h6c1.1045695 0 2-.8954305 2-2v-19c0-1.1045695-.8954305-2-2-2zm-6 21v-19h6v19z"/><path id="Shape" d="m34 24h13c1.1045695 0 2-.8954305 2-2v-10c0-1.1045695-.8954305-2-2-2h-13c-1.1045695 0-2 .8954305-2 2v10c0 1.1045695.8954305 2 2 2zm0-12h13v10h-13z"/><path id="Shape" d="m16 24h13c.5522847 0 1-.4477153 1-1s-.4477153-1-1-1h-13c-.5522847 0-1 .4477153-1 1s.4477153 1 1 1z"/><path id="Shape" d="m16 20h13c.5522847 0 1-.4477153 1-1s-.4477153-1-1-1h-13c-.5522847 0-1 .4477153-1 1s.4477153 1 1 1z"/><path id="Shape" d="m16 16h13c.5522847 0 1-.4477153 1-1s-.4477153-1-1-1h-13c-.5522847 0-1 .4477153-1 1s.4477153 1 1 1z"/><path id="Shape" d="m16 12h13c.5522847 0 1-.4477153 1-1s-.4477153-1-1-1h-13c-.5522847 0-1 .4477153-1 1s.4477153 1 1 1z"/></g></g></g></svg>