<svg height="512" viewBox="0 0 60 43" width="512" xmlns="http://www.w3.org/2000/svg"><g id="Page-1" fill="none" fill-rule="evenodd"><g id="027---Book-Stack" fill-rule="nonzero" transform="translate(-1)"><path id="Shape" d="m46.5 42h-38.5c-3.3137085 0-6-2.6862915-6-6-.00234386-.5654251.07852221-1.1281181.24-1.67.02128428-.0586206.03800084-.1188002.05-.18.80570089-2.4725152 3.10952389-4.1469225 5.71-4.15h38.5c-1.38 0-3.5 2.69-3.5 6s2.12 6 3.5 6z" fill="#e8edfc"/><path id="Shape" d="m43 36c0-3.31 2.12-6 3.5-6h-3c-1.38 0-3.5 2.69-3.5 6s2.12 6 3.5 6h3c-1.38 0-3.5-2.69-3.5-6z" fill="#cad9fc"/><path id="Shape" d="m20 30h-12c-2.60047611.0030775-4.90429911 1.6774848-5.71 4.15 1.63-5.55 3.44-11.69 4.9-16.63l.17-.55c.85258929-2.3818909 3.1101163-3.9709657 5.64-3.97h3.98c-.89 3.03-1.82 6.18-2.69 9.15-.01.03-.01.05-.02.06-.0052548.0410389-.0153242.0813163-.03.12-.1614778.5418819-.2423439 1.1045749-.24 1.67 0 1.5912989.632141 3.1174224 1.7573593 4.2426407s2.6513418 1.7573593 4.2426407 1.7573593z" fill="#a4c2f7"/><path id="Shape" d="m58.5 30h-38.5c-3.3137085 0-6-2.6862915-6-6-.0023439-.5654251.0785222-1.1281181.24-1.67.0146758-.0386837.0247452-.0789611.03-.12.01-.01.01-.03.02-.06.8057009-2.4725152 3.1095239-4.1469225 5.71-4.15h38.5c-1.38 0-3.5 2.69-3.5 6s2.12 6 3.5 6z" fill="#e8edfc"/><path id="Shape" d="m55 24c0-3.31 2.12-6 3.5-6h-3c-1.38 0-3.5 2.69-3.5 6s2.12 6 3.5 6h3c-1.38 0-3.5-2.69-3.5-6z" fill="#cad9fc"/><path id="Shape" d="m58.66 18h-38.66c-2.6004761.0030775-4.9042991 1.6774848-5.71 4.15.87-2.97 1.8-6.12 2.69-9.15.78-2.64 1.53-5.19 2.21-7.48l.17-.55c.8525893-2.38189089 3.1101163-3.97096572 5.64-3.97h29.22c.4441043-.00880282.838366.28278661.96.71 1.18 3.96 2.81 9.49 4.44 15.01.088132.302167.0288544.6281942-.16.88s-.4852427.4-.8.4z" fill="#e8edfc"/><path id="Shape" d="m59.62 16.72c-1.63-5.52-3.26-11.05-4.44-15.01-.121634-.42721339-.5158957-.71880282-.96-.71h-3c.4441043-.00880282.838366.28278661.96.71 1.18 3.96 2.81 9.49 4.44 15.01.088132.302167.0288544.6281942-.16.88s-.4852427.4-.8.4h3c.3147573 0 .6111456-.1481942.8-.4s.248132-.577833.16-.88z" fill="#cad9fc"/><path id="Shape" d="m8 42h3c-1.88619997-.0009139-3.66217635-.8887456-4.79484014-2.3969975-1.13266378-1.5082519-1.49015247-3.4613364-.96515986-5.2730025.266-.8 4.091-14.03 5.12-17.36.8525893-2.3818909 3.1101163-3.9709657 5.64-3.9700004l-3 .0000004c-2.5298837-.0009657-4.78741071 1.5881091-5.64 3.97-1.029 3.33-4.854 16.564-5.12 17.36-.52499261 1.8116661-.16750392 3.7647506.96515986 5.2730025 1.13266379 1.5082519 2.90864017 2.3960836 4.79484014 2.3969975z" fill="#fff"/><path id="Rectangle-path" d="m2.059 20.358h8v2h-8z" fill="#fff" transform="matrix(.283 -.959 .959 .283 -16.14 21.132)"/><g fill="#428dff"><path id="Shape" d="m6.079 22.357c-.55228475.0027614-1.00223858-.4427153-1.005-.995s.44271525-1.0022386.995-1.005h.01c.55228475 0 1 .4477153 1 1s-.44771525 1-1 1z"/><path id="Shape" d="m60 29h-1.5c-.623 0-2.5-2.019-2.5-5s1.877-5 2.5-5h.161c.6306322-.0002978 1.224185-.2980142 1.6015243-.8032984.3773392-.5052842.49426-1.1589428.3154757-1.7637016l-1.964-6.648c-.92-3.12-1.775-6.018-2.474-8.364-.2509973-.84703495-1.0315747-1.42625189-1.915-1.421h-29.225c-2.9669329.00322341-5.6095556 1.87650032-6.595 4.675l-.174.562c-.615 2.084-1.3 4.386-2 6.763h-3.231c-2.9669329.0032234-5.60955561 1.8765003-6.595 4.675l-.17.55c-.162924.5277081.13279192 1.087576.6605 1.2505s1.087576-.1327919 1.2505-.6605l.157-.51c.71024484-1.9833145 2.590348-3.3062315 4.697-3.305h2.646c-.776 2.632-1.565 5.312-2.316 7.868-.005.018-.012.04-.018.062-.7752046 2.5076975-.0799994 5.2383091 1.8 7.07h-7.112c-1.19651652.0009888-2.37249503.3110007-3.414.9l1.3-4.418c.10737836-.3445352.02079185-.7201985-.22656465-.9829709-.2473565-.2627725-.61710581-.3718852-.96749625-.2855073-.35039045.0863779-.6270592.3548449-.7239391.7024782l-2.637 8.952c-.016.049-.029.1-.044.148v.006c-.62883423 2.1167401-.22018946 4.4061582 1.10212761 6.1746318 1.32231707 1.7684735 3.40270563 2.807901 5.61087239 2.8033682h40c.5522847 0 1-.4477153 1-1s-.4477153-1-1-1h-1.5c-.623 0-2.5-2.019-2.5-5s1.877-5 2.5-5h13.5c.5522847 0 1-.4477153 1-1s-.4477153-1-1-1zm-39.854-23.185.157-.51c.7102448-1.98331446 2.590348-3.30623145 4.697-3.305l29.224-.006c.7 2.343 1.552 5.239 2.472 8.357l1.965 6.649h-38.661c-1.1962722-.0011551-2.3726955.305693-3.416.891 1.237-4.203 2.495-8.465 3.562-12.076zm22.385 27.185h-34.531c-.55228475 0-1 .4477153-1 1s.44771525 1 1 1h34.064c-.0853278.6639364-.0853278 1.3360636 0 2h-34.064c-.55228475 0-1 .4477153-1 1s.44771525 1 1 1h34.531c.2502476.70932.5943017 1.3819575 1.023 2h-35.554c-2.76142375 0-5-2.2385763-5-5s2.23857625-5 5-5h35.554c-.4286983.6180425-.7727524 1.29068-1.023 2zm-22.531-4c-1.5600344-.0000755-3.0306342-.7282911-3.9763247-1.9690073-.9456906-1.2407163-1.2580844-2.851732-.8446753-4.3559927.006-.016.011-.033.016-.05.022-.064.041-.13.058-.2.6809607-2.0438435 2.5927018-3.4231806 4.747-3.425h35.554c-.4286983.6180425-.7727524 1.29068-1.023 2h-34.531c-.5522847 0-.9999999.4477153-.9999999 1s.4477152 1 .9999999 1h34.064c-.0853388.6639356-.0853388 1.3360644 0 2h-34.064c-.5522847 0-1 .4477153-1 1s.4477153 1 1 1h34.531c.2502476.70932.5943017 1.3819575 1.023 2z"/><path id="Shape" d="m27 6h-2c-.5522847 0-1-.44771525-1-1s.4477153-1 1-1h2c.5522847 0 1 .44771525 1 1s-.4477153 1-1 1z"/><path id="Shape" d="m48 6h-17c-.5522847 0-1-.44771525-1-1s.4477153-1 1-1h17c.5522847 0 1 .44771525 1 1s-.4477153 1-1 1z"/></g></g></g></svg>