<svg height="512" viewBox="0 0 60 60" width="512" xmlns="http://www.w3.org/2000/svg"><g id="Page-1" fill="none" fill-rule="evenodd"><g id="028---Globe-Books" fill-rule="nonzero"><path id="Shape" d="m24 47c.0013291 1.0612728-.4196715 2.0794609-1.1701053 2.8298947s-1.7686219 1.1714344-2.8298947 1.1701053l-18.5.0000031c.83-.0000031 2.5-1.7900031 2.5-4.0000031s-1.67-4-2.5-4h18.5c2.2068582.0054966 3.9945034 1.7931418 4 4z" fill="#a4c2f7"/><path id="Shape" d="m53 47c.0013291 1.0612728-.4196715 2.0794609-1.1701053 2.8298947s-1.7686219 1.1714344-2.8298947 1.1701053l-29 .0000031c2.002918-.0044909 3.6937478-1.4896871 3.9564758-3.475304.2627279-1.985617-.9836501-3.8594513-2.9164758-4.3846991-.3389092-.0926542-.6886537-.1397352-1.04-.14h29c2.209139 0 4 1.790861 4 4z" fill="#a4c2f7"/><path id="Shape" d="m49 43h-3c2.209139 0 4 1.790861 4 4s-1.790861 4-4 4h3c2.209139 0 4-1.790861 4-4s-1.790861-4-4-4z" fill="#7facfa"/><path id="Shape" d="m9 51h3v8h-3c-1.10320187-.0032948-1.9967052-.8967981-2-2v-4c.0032948-1.1032019.89679813-1.9967052 2-2z" fill="#e8edfc"/><path id="Shape" d="m59 53v4c-.0032948 1.1032019-.8967981 1.9967052-2 2h-3v-8h3c1.1032019.0032948 1.9967052.8967981 2 2z" fill="#e8edfc"/><path id="Shape" d="m57 51h-3c1.1032019.0032948 1.9967052.8967981 2 2v4c-.0032948 1.1032019-.8967981 1.9967052-2 2h3c1.1032019-.0032948 1.9967052-.8967981 2-2v-4c-.0032948-1.1032019-.8967981-1.9967052-2-2z" fill="#cad9fc"/><path id="Rectangle-path" d="m12 51h42v8h-42z" fill="#e8edfc"/><path id="Shape" d="m38.86 43-2.26-3.16c-.3754029-.5272576-.9827536-.8402482-1.63-.84h-9.94c-.6472464-.0002482-1.2545971.3127424-1.63.84l-2.26 3.16z" fill="#e8edfc"/><path id="Shape" d="m36.6 39.84c-.3754029-.5272576-.9827536-.8402482-1.63-.84l-3-.0000001c.6472464-.0002481 1.2545971.3127425 1.63.8400001l2.26 3.16h3z" fill="#cad9fc"/><path id="Shape" d="m32 33.89v5.11h-4v-5.11c1.3291146.1500002 2.6708854.1500002 4 0z" fill="#e8edfc"/><circle id="Oval" cx="30" cy="16" fill="#e8edfc" r="14"/><path id="Shape" d="m39.9 6.1c-2.996149-2.99466171-7.1890635-4.46843437-11.4-4.007 7.1092599.75884328 12.5015651 6.75735534 12.5015651 13.907 0 7.1496447-5.3923052 13.1481567-12.5015651 13.907 5.9026162.6427104 11.5679798-2.5104821 14.1323192-7.8656775 2.5643394-5.3551955 1.4690074-11.7457523-2.7323192-15.9413225z" fill="#cad9fc"/><path id="Shape" d="m42.63 22.04c-2.257073-2.3489345-3.9827342-5.1556919-5.06-8.23-.6-1.72-.95-3.77.12-5.38.6501928-.85666062 1.437462-1.60000495 2.33-2.2 4.0945554 4.203648 5.1361971 10.5133625 2.61 15.81z" fill="#a4c2f7"/><path id="Shape" d="m40.02 6.23c-.6190795.45050124-1.2037007.94654347-1.749 1.484 2.4869247 3.388976 3.3206025 7.7155838 2.271 11.786.6444742.8877415 1.3417318 1.735938 2.088 2.54 2.5261971-5.2966375 1.4845554-11.606352-2.61-15.81z" fill="#7facfa"/><path id="Shape" d="m36.1 3.4c-.7334481.97242163-1.724027 1.7205512-2.86 2.16-2.7065511.87301154-5.6676975.39312726-7.96-1.29-.4219476-.29155742-.8229311-.61234418-1.2-.96 3.8179747-1.77154333 8.2289808-1.73851583 12.02.09z" fill="#a4c2f7"/><path id="Shape" d="m26.95 29.66c-4.9859786-1.1097309-8.9712233-4.8479503-10.3973009-9.7528242-1.4260775-4.904874-.066411-10.19711039 3.5473009-13.8071758.34-.34.7-.66 1.06-.96h.01c.37.36.73.73 1.09 1.09.6425563.54212298 1.1493916 1.22703555 1.48 2 .2601232 1.12924059.2082733 2.3079616-.15 3.41-.1857.817727-.5588426 1.5811289-1.09 2.23-.499672.4915231-.9092159 1.0669155-1.21 1.7-.7 2.04.2 4.26 1.12 6.06.2430845.5068245.5344303.989052.87 1.44.74.93 1.97 1.45 2.68 2.44.83 1.16.81 2.76.99 4.15z" fill="#a4c2f7"/><path id="Shape" d="m40.51 25.25c-.19.22-.4.44-.61.65-2.1159057 2.1208175-4.8573337 3.5055542-7.82 3.95l.48-.97c.2846037-.5696681.3555623-1.2224877.2-1.84l-.52-2.08c-.149992-.6211939-.0792871-1.2752147.2-1.85l.06-.12c.3205361-.632971.8773398-1.1143368 1.55-1.34h.01c1.1459609-.3796183 2.4045521.0494469 3.08 1.05l.46.71c.2614374.3887844.6199521.7024848 1.04.91z" fill="#a4c2f7"/><path id="Shape" d="m38.64 24.32c-.4200479-.2075152-.7785626-.5212156-1.04-.91l-.46-.71c-.6754479-1.0005531-1.9340391-1.4296183-3.08-1.05h-.01c-.2281717.0794806-.444227.1902005-.642.329.2888312.1901155.5375333.4350803.732.721l.46.71c.2614374.3887844.6199521.7024848 1.04.91l1.87.93c-.19.22-.4.44-.61.65-1.243835 1.2414634-2.7104082 2.2374983-4.323 2.936-.006.014-.01.03-.017.044l-.48.97c2.9626663-.4444458 5.7040943-1.8291825 7.82-3.95.21-.21.42-.43.61-.65z" fill="#7facfa"/><g fill="#fff"><path id="Shape" d="m1.5 51h3c.83 0 2.5-1.79 2.5-4s-1.67-4-2.5-4h-3c.83 0 2.5 1.79 2.5 4s-1.67 4-2.5 4z"/><path id="Shape" d="m22.345 27.72c1.4076585.9149179 2.9670026 1.5718402 4.605 1.94v-.014c1.5076414.3344014 3.0599777.4188593 4.595.25-.5358765-.0538064-1.0683595-.1372677-1.595-.25v.014c-1.6379974-.3681598-3.1973415-1.0250821-4.605-1.94-4.2475094-2.7835133-6.6546398-7.6488878-6.2902724-12.7141142.3643674-5.06522644 3.4430926-9.53597559 8.0452724-11.6828858l-.02-.013c1.3862098-.63903054 2.8685282-1.04449717 4.387-1.2-2.5254728-.27269628-5.0777105.14190846-7.387 1.2l.017.013c-4.6018115 2.14751237-7.6799008 6.61858441-8.0436429 11.6837765-.3637421 5.065192 2.0439031 9.9302062 6.2916429 12.7132235z"/><path id="Shape" d="m9 59h3c-1.1032019-.0032948-1.9967052-.8967981-2-2v-4c.0032948-1.1032019.8967981-1.9967052 2-2h-3c-1.10320187.0032948-1.9967052.8967981-2 2v4c.0032948 1.1032019.89679813 1.9967052 2 2z"/><path id="Shape" d="m12.107 22.347 1.885-.667c.8424851 2.3832209 2.2035642 4.5496764 3.985 6.343l-1.414 1.414c-1.9925786-2.0037662-3.5146466-4.4255484-4.456-7.09z"/></g><path id="Shape" d="m57 50h-4.025c1.1540984-1.5068327 1.3502657-3.5390451.5056965-5.238807-.8445692-1.699762-2.5826991-2.7708704-4.4806965-2.761193h-9.625l-1.963-2.743c-.5644794-.7873419-1.4732169-1.2551073-2.442-1.257h-1.97v-3.263c3.6115461-.5706407 6.9794371-2.1785012 9.694-4.628l1.449 1.448c.2510745.2599566.6228779.3642126.9725073.2726972.3496295-.0915155.6226744-.3645604.7141899-.7141899.0915154-.3496294-.0127406-.7214328-.2726972-.9725073l-2.118-2.118-2.157-2.157c.8880811-1.0140225 1.6342417-2.1440284 2.218-3.359.0212673-.0380456.0399755-.0774663.056-.118 2.6580369-5.6180584 1.565345-12.2944262-2.745-16.772h-.006c-.068-.071-.128-.149-.2-.218-1.2230157-1.21844488-2.6485809-2.21495317-4.213-2.945-.011 0-.02-.011-.031-.014-3.9893557-1.86130984-8.5936779-1.88250434-12.6-.058-.0642528.02153036-.125954.05003365-.184.085-1.1177694.52333684-2.1658666 1.18410837-3.12 1.967l-.008.007c-.109.09-.21.193-.317.287l-4.275-4.287c-.2510745-.25995658-.6228779-.3642126-.9725073-.27269716-.3496295.09151544-.6226744.3645604-.7141899.71418984-.0915154.34962943.0127406.72143285.2726972.97250732l1.443 1.443c-2.172555 2.41531357-3.6895247 5.34734132-4.406 8.516-.4000823 1.7397814-.5449325 3.5285131-.43 5.31.0925436 1.7829854.4487443 3.5424214 1.057 5.221.0792386.2595875.2650811.4732588.511176.5877216.2460949.1144627.5292432.1189266.778824.0122784.4950479-.2079176.7537732-.7555527.6-1.27-.545368-1.501734-.8638669-3.0763657-.945-4.672-.1047054-1.5945838.0246671-3.1959063.384-4.753.6324808-2.79984851 1.963889-5.39385828 3.87-7.54l1.42 1.42c-3.4759537 3.9520967-4.6187114 9.4403565-3.0090448 14.4513739s5.7347916 8.8070989 10.8620448 9.9956261c.0482445.0161014.0977501.0281433.148.036 1.7323667.407928 3.5263372.4839351 5.287.224.023 0 .047.008.07.008.1160698-.0021407.2308428-.0248244.339-.067 2.7619441-.4457677 5.3424785-1.6604834 7.446-3.505l1.416 1.416c-6.7238036 5.9683052-16.9308089 5.674361-23.3-.671-.2525868-.2527654-.6208353-.3515769-.96603-.259213-.3451946.0923638-.6148921.3618707-.7075.707s.0059432.7134476.25853.966213c2.827212 2.8277911 6.4794006 4.6846997 10.43 5.303v3.263h-1.97c-.9692369.002132-1.8783095.4702504-2.443 1.258l-1.962 2.742h-19.625c-.55228475 0-1 .4477153-1 1s.44771525 1 1 1h.446c.98231905.6814114 1.56408971 1.8045208 1.554 3 .00126238 1.1806375-.55473254 2.2926274-1.5 3h-.5c-.55228475 0-1 .4477153-1 1s.44771525 1 1 1h5.184c-.11843775.320257-.18068557.6585603-.184 1v4c0 1.6568542 1.34314575 3 3 3h48c1.6568542 0 3-1.3431458 3-3v-4c0-1.6568542-1.3431458-3-3-3zm-23.27-23.2-.52-2.08c-.0970662-.3884666-.052021-.7988386.127-1.157l.061-.123c.2693325-.5353825.8026271-.8875486 1.4007668-.9250095.5981397-.037461 1.1712064.2454148 1.5052332.7430095l.467.7c.356507.5346259.8467575.9666118 1.422 1.253l.63.314c-1.4454062 1.3503202-3.1822508 2.3497929-5.076 2.921.1189346-.5428869.1131219-1.1056854-.017-1.646zm8.579-6.651c-1.6625354-1.9714328-2.9485664-4.2316476-3.794-6.668-.691-1.978-.689-3.449.012-4.5.381768-.53318848.8451083-1.00294067 1.373-1.392 2.0030221 2.34394976 3.1002801 5.3277963 3.093 8.411-.002186 1.410558-.2331864 2.8114202-.684 4.148zm-7.961-16.387c-.4293998.36631901-.9185044.65619635-1.446.857-2.3030068.72933316-4.8138202.35319102-6.802-1.019 2.6930729-.84618049 5.5887748-.790001 8.247.16zm-17.341 12.238c-.0123242-3.4486431 1.3560923-6.75877049 3.8-9.192.1-.1.217-.194.324-.294.025.025.052.051.077.077l.48.485c.4792123.40197525.859665.90867533 1.112 1.481.1857506.94735997.1237496 1.926632-.18 2.843-.1484168.6731907-.4529332 1.3020908-.889 1.836-.086.1-.175.206-.266.309-.4805766.4903583-.861298 1.0694216-1.121 1.705-.826 2.407.194 4.92 1.178 6.846.2718882.5639381.5984526 1.0998387.975 1.6.4277992.4997179.9177773.9426473 1.458 1.318.4473304.3010522.8485248.6655294 1.191 1.082.3964862.6678244.6202325 1.4239561.651 2.2-5.2664802-1.7857931-8.8045069-6.7350054-8.79-12.296zm10.857 12.807c0-.032-.007-.062-.01-.094-.0194369-1.3354897-.3928016-2.6419212-1.082-3.786-.4563539-.5835693-.9996983-1.0935239-1.611-1.512-.4041456-.2774037-.7734638-.6024037-1.1-.968-.293209-.3990548-.5480107-.824952-.761-1.272-.8-1.568-1.647-3.585-1.07-5.268.1824355-.3906201.4322524-.7460507.738-1.05.1-.115.2-.231.295-.341.6315245-.7661992 1.0765406-1.6685547 1.3-2.636.4090244-1.2896356.4516088-2.66756821.123-3.98-.3404324-.85870456-.8807047-1.62386178-1.576-2.232l-.41-.419c.4059362-.27726095.8276476-.53068847 1.263-.759.25.2.49.421.755.6 1.7330171 1.21818017 3.7938325 1.88397135 5.912 1.91 1.0044527.00432707 2.0021096-.16482466 2.949-.5 1.0450418-.39826023 1.983831-1.03279001 2.743-1.854.7704797.43056088 1.4946244.93923817 2.161 1.518-.6275252.4824772-1.1760964 1.05972522-1.626 1.711-1.051 1.583-1.129 3.69-.232 6.26 1.0406834 2.9828062 2.6752708 5.7236743 4.805 8.057-.3460919.6351574-.745175 1.2399707-1.193 1.808l-1.152-.574c-.2624356-.130466-.4861755-.3273158-.649-.571l-.468-.7c-.7293691-1.0911747-1.9841937-1.7118971-3.2940983-1.6294873-1.3099046.0824099-2.4770401.8555048-3.0639017 2.0294873l-.061.122c-.3931658.7858997-.49179 1.6866435-.278 2.539l.519 2.079c.0967715.3880586.0521.7979014-.126 1.156l-.234.471c-1.187223.1398509-2.3884801.1061645-3.566-.1zm24.136 18.193c.0015971.796138-.3139606 1.560128-.8769163 2.1230837s-1.3269457.8785134-2.1230837.8769163l-25.025.000006c1.3604272-1.7665232 1.3673952-4.2258081.017-6.000006h25.008c.7956495 0 1.5587112.3160705 2.1213203.8786797.5626092.5626091.8786797 1.3256708.8786797 2.1213203zm-23-12.054c.333.017.666.048 1 .048s.667-.031 1-.048v3.054h-2zm-4.787 5.476c.1876729-.2649623.4923062-.4223127.817-.422h9.94c.324669-.0013435.6294474.1562747.816.422l1.129 1.578h-13.83zm-19.313 7.578h15.1c.5522847 0 1-.4477153 1-1s-.4477153-1-1-1h-15.1c-.1381761-.706746-.39948393-1.3837093-.772-2h15.872c.2635827.0001123.5259466.0357668.78.106 1.4477667.3953843 2.3806096 1.7997865 2.1837154 3.2876003-.1968943 1.4878138-1.4629388 2.6012196-2.9637154 2.6063997h-15.87c.37181598-.6164268.63244414-1.2933831.77-2zm3.1 9v-4c0-.5522847.44771525-1 1-1h2v6h-2c-.55228475 0-1-.4477153-1-1zm5 1v-6h40v6zm45-1c0 .5522847-.4477153 1-1 1h-2v-6h2c.5522847 0 1 .4477153 1 1z" fill="#428dff"/><path id="Shape" d="m20 54h-3c-.5522847 0-1 .4477153-1 1s.4477153 1 1 1h3c.5522847 0 1-.4477153 1-1s-.4477153-1-1-1z" fill="#428dff"/><path id="Shape" d="m47 54h-23c-.5522847 0-1 .4477153-1 1s.4477153 1 1 1h23c.5522847 0 1-.4477153 1-1s-.4477153-1-1-1z" fill="#428dff"/><path id="Shape" d="m14.8 26.613c-.5522847.0027614-1.0022386-.4427153-1.005-.995s.4427153-1.0022386.995-1.005h.01c.5522847 0 1 .4477153 1 1s-.4477153 1-1 1z" fill="#428dff"/></g></g></svg>