<svg height="512" viewBox="0 0 60 57" width="512" xmlns="http://www.w3.org/2000/svg"><g id="Page-1" fill="none" fill-rule="evenodd"><g id="029---Book-Shelf" fill-rule="nonzero"><rect id="Rectangle-path" fill="#e8edfc" height="6" rx="2" width="58" x="1" y="44"/><path id="Shape" d="m57 44h-3c1.1045695 0 2 .8954305 2 2v2c0 1.1045695-.8954305 2-2 2h3c1.1045695 0 2-.8954305 2-2v-2c0-1.1045695-.8954305-2-2-2z" fill="#cad9fc"/><path id="Shape" d="m5 50h8v4c0 1.1045695-.8954305 2-2 2h-4c-1.1045695 0-2-.8954305-2-2z" fill="#a4c2f7"/><path id="Shape" d="m47 50h8v4c0 1.1045695-.8954305 2-2 2h-4c-1.1045695 0-2-.8954305-2-2z" fill="#a4c2f7"/><path id="Shape" d="m52 50v4c0 1.1045695-.8954305 2-2 2h3c1.1045695 0 2-.8954305 2-2v-4z" fill="#7facfa"/><path id="Shape" d="m41 3v4h-14v-4c.0032948-1.10320187.8967981-1.9967052 2-2h10c1.1032019.0032948 1.9967052.89679813 2 2z" fill="#a4c2f7"/><path id="Rectangle-path" d="m27 38h14v6h-14z" fill="#a4c2f7"/><path id="Rectangle-path" d="m27 7h14v31h-14z" fill="#e8edfc"/><path id="Rectangle-path" d="m19 39h8v5h-8z" fill="#a4c2f7"/><path id="Shape" d="m27 11v3h-8v-3c.0032948-1.10320187.8967981-1.9967052 2-2h4c1.1032019.0032948 1.9967052.89679813 2 2z" fill="#a4c2f7"/><path id="Rectangle-path" d="m19 14h8v25h-8z" fill="#e8edfc"/><path id="Rectangle-path" d="m41 35h7v9h-7z" fill="#a4c2f7"/><path id="Shape" d="m48 14v7h-7v-7c.0032948-1.1032019.8967981-1.9967052 2-2h3c1.1032019.0032948 1.9967052.8967981 2 2z" fill="#a4c2f7"/><path id="Rectangle-path" d="m41 21h7v14h-7z" fill="#e8edfc"/><path id="Shape" d="m55 8v9h-7v-9c.0032948-1.10320187.8967981-1.9967052 2-2h3c1.1032019.0032948 1.9967052.89679813 2 2z" fill="#a4c2f7"/><path id="Shape" d="m53 6h-3c1.1032019.0032948 1.9967052.89679813 2 2v9h3v-9c-.0032948-1.10320187-.8967981-1.9967052-2-2z" fill="#7facfa"/><path id="Rectangle-path" d="m48 33h7v11h-7z" fill="#a4c2f7"/><path id="Rectangle-path" d="m52 33h3v11h-3z" fill="#7facfa"/><path id="Rectangle-path" d="m48 17h7v16h-7z" fill="#e8edfc"/><path id="Rectangle-path" d="m52 17h3v16h-3z" fill="#cad9fc"/><path id="Shape" d="m18.93 9.68-2.33 8.69-6.76-1.81 2.33-8.7c.2877442-1.06548145 1.3841812-1.6964921 2.45-1.41l2.9.78c1.0654815.28774424 1.6964921 1.38418119 1.41 2.45z" fill="#a4c2f7"/><path id="Shape" d="m12.46 33.82-2.33 8.7c-.28774424 1.0654815-1.38418119 1.6964921-2.45 1.41l-2.9-.78c-.51093941-.13595-.94677437-.4696394-1.21131082-.9274187-.26453645-.4577794-.33602569-1.0020128-.19868918-1.5125813l2.33-8.7z" fill="#a4c2f7"/><path id="Rectangle-path" d="m3.153 21.691h15.995v6.998h-15.995z" fill="#e8edfc" transform="matrix(.259 -.966 .966 .259 -16.068 29.441)"/><path id="Shape" d="m3 50h2v4c0 1.1045695.8954305 2 2 2h3c-1.1045695 0-2-.8954305-2-2v-4h-2c-1.1045695 0-2-.8954305-2-2v-2c0-1.1045695.8954305-2 2-2h-3c-1.1045695 0-2 .8954305-2 2v2c0 1.1045695.8954305 2 2 2z" fill="#fff"/><path id="Shape" d="m12.17 7.86c-5.483 20.473-3.042 11.351-8.8 32.85-.13733651.5105685-.06584727 1.0548019.19868918 1.5125813.26453645.4577793.70037141.7914687 1.21131082.9274187l2.9.78c.59551679.1581069 1.23068355.0314429 1.72-.343l-1.62-.437c-.51093941-.13595-.94677437-.4696394-1.21131082-.9274187-.26453645-.4577794-.33602569-1.0020128-.19868918-1.5125813 5.758-21.5 3.317-12.377 8.8-32.85.1186993-.42630891.3754346-.80121289.73-1.066l-1.28-.344c-1.0658188-.2864921-2.1622558.34451855-2.45 1.41z" fill="#fff"/><path id="Rectangle-path" d="m7.135 10.728h8v2h-8z" fill="#fff" transform="matrix(.259 -.966 .966 .259 -3.075 19.448)"/><g fill="#428dff"><path id="Shape" d="m57 43h-1v-35c0-1.65685425-1.3431458-3-3-3h-3c-1.6568542 0-3 1.34314575-3 3v3.184c-.320257-.1184378-.6585603-.1806856-1-.184h-3c-.3414397.0033144-.679743.0655622-1 .184v-8.184c0-1.65685425-1.3431458-3-3-3h-10c-1.6568542 0-3 1.34314575-3 3v5.184c-.320257-.11843775-.6585603-.18068557-1-.184h-4c-.3959531-.00027101-.7879661.07860758-1.153.232-.3124726-.96523553-1.0916276-1.70714455-2.071-1.972l-2.9-.776c-1.599355-.43030963-3.2448403.51687394-3.676 2.116-.0927104.34511856.0057402.71348169.2582664.96633056.2525262.25284886.6207634.3517697.966.2595.3452367-.09226971.6150232-.36171199.7077336-.70683056.1429996-.53305138.6908077-.84947318 1.224-.707l2.9.776c.2562166.06866321.4746553.23631056.6072483.46605097.1325931.22974041.1684756.50274873.0997517.75894903l-2.063 7.732-4.83-1.295c.0942549-.3457598-.0037211-.7155223-.2568204-.9692437-.2530994-.2537213-.6226204-.3526045-.96861043-.2591985-.34599005.093406-.61554337.3648183-.70656917.7114422l-4.3 16.034-.1.386-2.338 8.694c-.20853241.7682488-.10047758 1.5880249.3 2.276.06122375.0990261.12799696.1945118.2.286-1.61419058.0538314-2.8960521 1.3759169-2.9 2.991v2c0 1.6568542 1.34314575 3 3 3h1v3c0 1.6568542 1.34314575 3 3 3h4c1.6568542 0 3-1.3431458 3-3v-3h32v3c0 1.6568542 1.3431458 3 3 3h4c1.6568542 0 3-1.3431458 3-3v-3h1c1.6568542 0 3-1.3431458 3-3v-2c0-1.6568542-1.3431458-3-3-3zm-15 0v-7h5v7zm-14 0v-4h12v4zm-8 0v-3h6v3zm8-35h12v29h-12zm26 24h-5v-14h5zm-7 1v1h-5v-12h5zm-21 5h-6v-23h6zm23-3v-1h5v9h-5zm0-27c0-.55228475.4477153-1 1-1h3c.5522847 0 1 .44771525 1 1v8h-5zm-6 5h3c.5522847 0 1 .4477153 1 1v6h-5v-6c0-.5522847.4477153-1 1-1zm-14-11h10c.5522847 0 1 .44771525 1 1v3h-12v-3c0-.55228475.4477153-1 1-1zm-8 8h4c.5522847 0 1 .4477153 1 1v2h-6v-2c0-.5522847.4477153-1 1-1zm-3 7.016v25.984h-6.983c.026-.075.06-.146.081-.224zm-8.834 25.242c-.06865161.2564395-.23645288.4750576-.46642406.6076755-.22997117.132618-.50323711.1683511-.75957594.0993245l-2.9-.776c-.53305138-.1429996-.84947318-.6908077-.707-1.224l2.07-7.727 4.831 1.294zm2.588-9.658-4.83-1.294 2.555-9.536 1.069-3.988 4.829 1.294zm.246 21.4c0 .5522847-.4477153 1-1 1h-4c-.55228475 0-1-.4477153-1-1v-3h6zm42 0c0 .5522847-.4477153 1-1 1h-4c-.5522847 0-1-.4477153-1-1v-3h6zm4-6c0 .5522847-.4477153 1-1 1h-54c-.55228475 0-1-.4477153-1-1v-2c0-.5522847.44771525-1 1-1h54c.5522847 0 1 .4477153 1 1z"/><path id="Shape" d="m11.154 12.728c-.5522847.0024853-1.0020147-.4432153-1.0045-.9955s.4432153-1.0020147.9955-1.0045h.009c.5522847 0 1 .4477153 1 1s-.4477153 1-1 1z"/><path id="Shape" d="m31 13h6c.5522847 0 1-.4477153 1-1s-.4477153-1-1-1h-6c-.5522847 0-1 .4477153-1 1s.4477153 1 1 1z"/><path id="Shape" d="m31 17h6c.5522847 0 1-.4477153 1-1s-.4477153-1-1-1h-6c-.5522847 0-1 .4477153-1 1s.4477153 1 1 1z"/></g></g></g></svg>