<svg height="512" viewBox="0 0 60 60" width="512" xmlns="http://www.w3.org/2000/svg"><g id="Page-1" fill="none" fill-rule="evenodd"><g id="030---Messy-Books" fill-rule="nonzero"><path id="Shape" d="m53.44 45.3c-.01.22-.03.44-.06.65l-.05.26c-.4871821 2.794839-2.617945 5.0165249-5.39 5.62-.8896902.2053932-1.8120912.2258154-2.71.06l-6.88-1.21-17.29-3.05h-.02l-7.33-1.29c-.662836-.1208474-1.2196626-.5685661-1.48-1.19-.162481-.3531026-.2113966-.7479215-.14-1.13.1697283-.9549101 1.0001233-1.6504186 1.97-1.65.1173064.0000551.2343954.0100913.35.03l6.65 1.17h.01l24.73 4.36c1.4330605.2834358 2.8674386-.4818447 3.43-1.83.3272533-.8387033.2623122-1.7798044-.1770408-2.5656077-.4393531-.7858033-1.2070801-1.3339675-2.0929592-1.4943923l-8.61-1.52h-.01l-22.89-4.03c-1.0209264-.1788284-1.7360755-1.1079765-1.6476335-2.1406663.0884419-1.0326899.9511667-1.8267052 1.9876335-1.8293337.1173064.0000551.2343954.0100913.35.03l31.28 5.51c3.5307857.5754262 6.0984876 3.663493 6.02 7.24z" fill="#cad9fc"/><path id="Shape" d="m49.23 46.1c-.5625614 1.3481553-1.9969395 2.1134358-3.43 1.83l-24.73-4.36h-.01l-6.65-1.17 1.04-5.91 22.89 4.03h.01l8.61 1.52c.8858791.1604248 1.6536061.708589 2.0929592 1.4943923.439353.7858033.5042941 1.7269044.1770408 2.5656077z" fill="#e8edfc"/><path id="Shape" d="m58.99 13.78c-.0119064.3086184-.0453208.6160308-.1.92l-5.51 31.25c.03-.21.05-.43.06-.65.0784876-3.576507-2.4892143-6.6645738-6.02-7.24l-31.28-5.51c-.1156046-.0199087-.2326936-.0299449-.35-.03-.9661006.0044154-1.7909407.6987961-1.96 1.65l3.96-22.51 1.59-9c.0917743-.524182.3909923-.98923172.83-1.29.4308246-.30871862.9691108-.42793636 1.49-.33l31.28 5.51c3.5257169.57454224 6.0894162 3.6586597 6.01 7.23z" fill="#e8edfc"/><path id="Shape" d="m52.98 6.55-31.28-5.51c-.4854259-.08834566-.9862625.0121794-1.4.281l29.68 5.229c3.5257169.57454224 6.0894162 3.6586597 6.01 7.23-.0119064.3086184-.0453208.6160308-.1.92l-4.49 25.445c1.3739246 1.355492 2.1143025 3.2263977 2.04 5.155-.01.22-.03.44-.06.65l5.51-31.25c.0546792-.3039692.0880936-.6113816.1-.92.0794162-3.5713403-2.4842831-6.65545776-6.01-7.23z" fill="#cad9fc"/><rect id="Rectangle-path" fill="#fff" height="12" rx="1" transform="matrix(.985 .174 -.174 .985 4.699 -5.246)" width="23" x="20.833" y="18.234"/><path id="Shape" d="m47.94 51.83c-.1857191.771023-.8094746 1.3594717-1.59 1.5l-31.52 5.56c-1.8642413.3261476-3.7811318-.1157954-5.31439351-1.225244-1.53326172-1.1094485-2.55245202-2.7920162-2.82560649-4.664756-.03865245-.2349052-.06203482-.4720693-.07-.71-.07876599-3.4155632 2.27277316-6.4084312 5.61-7.14.2603374.6214339.817164 1.0691526 1.48 1.19l7.33 1.29-7.94 1.41c-.8866555.1558432-1.656734.7009972-2.0983662 1.4854753-.4416321.7844782-.5082899 1.7256321-.1816338 2.5645247.5656214 1.3511449 2.0021594 2.1195258 3.44 1.84l24.09-4.25 6.88 1.21c.8979088.1658154 1.8203098.1453932 2.71-.06z" fill="#a4c2f7"/><path id="Shape" d="m38.35 50.68-24.09 4.25c-1.4378406.2795258-2.8743786-.4888551-3.44-1.84-.3266561-.8388926-.2599983-1.7800465.1816338-2.5645247.4416322-.7844781 1.2117107-1.3296321 2.0983662-1.4854753l7.94-1.41h.02z" fill="#e8edfc"/><path id="Shape" d="m15.45 36.49-1.04 5.91c-.1156046-.0199087-.2326936-.0299449-.35-.03-.9698767-.0004186-1.8002717.6950899-1.97 1.65-.0713966.3820785-.022481.7768974.14 1.13-3.33722684.7315688-5.68876599 3.7244368-5.61 7.14.00796518.2379307.03134755.4750948.07.71l-5.52-31.3c-.05359011-.3041252-.08699643-.6114633-.1-.92-.08248096-3.5724087 2.48267266-6.6582757 6.01-7.23l10.71-1.89-3.96 22.51c-.0952816.5227733.0222587 1.0619471.3264839 1.4976276.3042252.4356806.7699151.7317499 1.2935161.8223724z" fill="#a4c2f7"/><path id="Shape" d="m1.07 20.78c.021.634-.377-1.78 5.62 32.22.27315447 1.8727398 1.29234477 3.5553075 2.82560649 4.664756 1.53326171 1.1094486 3.45015221 1.5513916 5.31439351 1.225244l.317-.056c-2.8589936-.6139761-5.035099-2.940419-5.457-5.834-6-34-5.6-31.586-5.62-32.22-.08248096-3.5724087 2.48267266-6.6582757 6.01-7.23l10.71-1.89 1.59-9c.1036957-.56147553.4454261-1.05054755.937-1.341-2.317-.396-2.044-.319-2.275-.28-.8451677.12625695-1.5146758.7792489-1.662 1.621l-1.59 9-10.71 1.89c-3.52732734.5717243-6.09248096 3.6575913-6.01 7.23z" fill="#fff"/><path id="Rectangle-path" d="m.864 21.639h2v8h-2z" fill="#fff" transform="matrix(.985 -.173 .173 .985 -4.419 .712)"/><g fill="#428dff"><path id="Shape" d="m23.612 7.465 22.651 3.994c.0578023.0099543.1163468.0149724.175.015.518612-.000287.9509435-.3969974.9957134-.9136734.04477-.5166761-.3128805-.98183829-.8237134-1.0713266l-22.65-3.989c-.5440005-.09609753-1.0629024.26699953-1.159.811-.0960975.54400047.2669995 1.06290244.811 1.159z"/><path id="Shape" d="m27.03 11.114c-.5363041-.080394-1.0389518.2813269-1.1330712.8153932-.0941194.5340664.2545939 1.045824.7860712 1.1536068l14.772 2.605c.0577137.0107287.1162976.0160849.175.016.5188038.0002315.951625-.3963308.9966698-.9131754.0450449-.5168446-.312648-.982303-.8236698-1.0718246z"/><path id="Shape" d="m20.776 29.3 20.682 3.647c.1145368.020357.2306689.0303973.347.03.9697546-.0007231 1.7992629-.6970381 1.968-1.652l1.737-9.849c.1912593-1.0873636-.5347624-2.1240258-1.622-2.316l-20.68-3.643c-1.0873636-.1912593-2.1240258.5347624-2.316 1.622l-1.737 9.847c-.1900728 1.0863328.535092 2.1215156 1.621 2.314zm2.084-11.813 20.682 3.646-1.735 9.848-20.683-3.646z"/><path id="Shape" d="m5.746 53.382c.76564823 4.3463666 4.9064161 7.2517055 9.254 6.493l31.518-5.56c.9453032-.1682515 1.7518286-.7812405 2.167-1.647 2.9015503-.8391214 5.077082-3.2498353 5.615-6.222 0-.02.018-.037.021-.057l5.558-31.515c.3766285-2.1309384-.1260717-4.3235569-1.393404-6.0775855-1.2673323-1.75402862-3.1911799-2.91983025-5.332596-3.2314145l-31.279-5.515c-.7788874-.14204789-1.5821455.03605331-2.228.494-.6613381.45038347-1.1111154 1.15031788-1.246 1.939l-1.467 8.317-10.025 1.765c-4.02614553.642156-6.95166348 4.170578-6.837 8.246.01356544.3531694.05132058.7049938.113 1.053.08010368.481827.49656025.8352866.985.836.05525852.0000698.11043421-.0042774.165-.013.54440923-.0908048.91231048-.6055085.822-1.15-.28407082-1.6089506.09904015-3.2642174 1.06113725-4.5847429.9620971-1.3205254 2.42028042-2.1925252 4.03886275-2.4152571l9.309-1.643-3.723 21.106c-.2146849 1.2481393.3775582 2.4966516 1.48 3.12l-.758 4.3c-1.255469.1976651-2.2449076 1.1742277-2.459 2.427-.0351229.2030149-.0495302.4090728-.043.615-1.76718495.6272322-3.26958883 1.8349365-4.262 3.426l-3.257-18.483c-.0958214-.5440005-.61449952-.9073214-1.1585-.8115s-.9073214.6144995-.8115 1.1585l4.162 23.631zm14.621-50.551c.0468628-.26538523.2009431-.49976089.426-.648.2113824-.15313133.4766426-.21211823.733-.163l29.547 5.21-.907 5.136c-.0462167.2612467.0132745.5301517.1653782.7475231s.3843519.3653911.6456218.4114769c.0574714.0099123.1156801.0149303.174.015.4848773-.0003616.8996315-.348519.984-.826l.9-5.116c2.9290865.56263345 5.0236826 3.1581572 4.955 6.14-.0124582.2645149-.0411791.5280126-.086.789l-4.645 26.364c-1.2180614-1.9460055-3.1826333-3.3056208-5.433-3.76l3.248-18.438c.0733334-.3566797-.0530134-.7250282-.3298376-.9616007-.2768243-.2365725-.6603628-.3039694-1.0012555-.1759444-.3408926.128025-.5852478.4312324-.6379069.7915451l-3.246 18.426-29.543-5.209c-.3365631-.0555466-.6801165-.0535177-1.016.006zm26.421 40.2c.59285.1041335 1.1072715.469739 1.4005473.9953854.2932758.5256465.3342124 1.155425.1114527 1.7146146-.3981424.8948001-1.3619474 1.3955804-2.323 1.207l-30.413-5.362.7-3.939zm-33.3.517c.1676476-.117455.3673021-.1806324.572-.181.0586812.0003674.1172251.00572.175.016l31.4 5.536c1.9057686.3672001 3.8055964-.6626757 4.538-2.46.4381252-1.1172658.3514576-2.3722117-.2360944-3.4186433s-1.6138978-1.7737656-2.7959056-1.9813567l-31.519-5.559c-.5432124-.0964671-.9056696-.6146466-.81-1.158.0960023-.5431572.6136695-.9060163 1.157-.811l31.273 5.514c3.0421721.4714538 5.2653852 3.1222079 5.2 6.2-.073614 1.7291098-.8891807 3.3425227-2.2378606 4.4270973s-3.0995022 1.5349874-4.8041394 1.2359027l-31.514-5.556c-.3962073-.0717009-.710766-.3740317-.7981114-.7670863-.0873455-.3930547.0695617-.8001557.3981114-1.0329137zm19.106 7.134-18.5 3.264c-.9648576.1912962-1.9335592-.3111165-2.333-1.21-.2227678-.5602081-.180947-1.1910141.1138267-1.7169106s.811045-.8907651 1.4051733-.9930894l7.774-1.379zm-20.782-4.349c.444644.5179626 1.0541935.866882 1.726.988l1.768.312-2.378.422c-1.1817821.2055625-2.2089301.9306341-2.7983359 1.9753665-.58940578 1.0447324-.67884433 2.2988307-.2436641 3.4166335.6205601 1.5492516 2.1312474 2.556244 3.8 2.533.2500824.0000374.4996927-.0217115.746-.065l23.916-4.215 5.752 1.011-29.443 5.194c-1.7004192.2957655-3.4459746-.1529147-4.793-1.232-1.35762496-1.078069-2.17745052-2.6947138-2.245-4.427-.06515631-2.6818061 1.64063178-5.0873212 4.193-5.913z"/><path id="Shape" d="m1.884 26.639c-.55228475.0027614-1.00223858-.4427153-1.005-.995s.44271525-1.0022386.995-1.005h.01c.55228475 0 1 .4477153 1 1s-.44771525 1-1 1z"/></g></g></g></svg>