<svg height="512" viewBox="0 0 60 60" width="512" xmlns="http://www.w3.org/2000/svg"><g id="Page-1" fill="none" fill-rule="evenodd"><g id="031---Messy-Book-Stack" fill-rule="nonzero" transform="translate(-1)"><path id="Shape" d="m60 57c-.0081672 1.1011688-.8988312 1.9918328-2 2h-45.69c-5.32501409.06779-9.80437605-3.9758363-10.28-9.28-.19991146-2.7693387.76056309-5.4971265 2.65146594-7.5302738 1.89090285-2.0331472 4.5419894-3.1886027 7.31853406-3.1897262h46c1.1032019.0032948 1.9967052.8967981 2 2-.0081672 1.1011688-.8988312 1.9918328-2 2h-46c-3.2494364.0056802-5.9065153 2.5919037-6 5.84.02641344 3.4262669 2.82371036 6.1832828 6.25 6.16h45.75c1.1032019.0032948 1.9967052.8967981 2 2z" fill="#a4c2f7"/><path id="Shape" d="m57 41c-.0081672 1.1011688-.8988312 1.9918328-2 2h3c1.1011688-.0081672 1.9918328-.8988312 2-2-.0032948-1.1032019-.8967981-1.9967052-2-2h-3c1.1032019.0032948 1.9967052.8967981 2 2z" fill="#7facfa"/><path id="Shape" d="m58 55h-3c1.1032019.0032948 1.9967052.8967981 2 2-.0081672 1.1011688-.8988312 1.9918328-2 2h3c1.1011688-.0081672 1.9918328-.8988312 2-2-.0032948-1.1032019-.8967981-1.9967052-2-2z" fill="#7facfa"/><path id="Shape" d="m55 49c-.0235975 2.0628844.3887326 4.1074967 1.21 6h-43.96c-3.42628964.0232828-6.22358656-2.7337331-6.25-6.16.0934847-3.2480963 2.7505636-5.8343198 6-5.84h44.21c-.8212674 1.8925033-1.2335975 3.9371156-1.21 6z" fill="#e8edfc"/><path id="Shape" d="m56.21 43h-3c-1.6133371 3.8373215-1.6133371 8.1626785 0 12h3c-1.6133371-3.8373215-1.6133371-8.1626785 0-12z" fill="#cad9fc"/><path id="Shape" d="m57 25c-.0032948 1.1032019-.8967981 1.9967052-2 2h-42.5c-4.14213562 0-7.5-3.3578644-7.5-7.5s3.35786438-7.5 7.5-7.5h42.5c1.1045695 0 2 .8954305 2 2s-.8954305 2-2 2h-42.5c-1.9329966 0-3.5 1.5670034-3.5 3.5s1.5670034 3.5 3.5 3.5h42.5c1.1032019.0032948 1.9967052.8967981 2 2z" fill="#a4c2f7"/><path id="Shape" d="m54 14c-.0032948 1.1032019-.8967981 1.9967052-2 2h3c1.1045695 0 2-.8954305 2-2s-.8954305-2-2-2h-3c1.1032019.0032948 1.9967052.8967981 2 2z" fill="#7facfa"/><path id="Shape" d="m55 23h-3c1.1045695 0 2 .8954305 2 2s-.8954305 2-2 2h3c1.1045695 0 2-.8954305 2-2s-.8954305-2-2-2z" fill="#7facfa"/><path id="Shape" d="m54.5 23h-42c-1.9329966 0-3.5-1.5670034-3.5-3.5s1.5670034-3.5 3.5-3.5h42c-.83 0-1.5 1.57-1.5 3.5s.67 3.5 1.5 3.5z" fill="#e8edfc"/><path id="Shape" d="m53 19.5c0-1.93.67-3.5 1.5-3.5h-3c-.83 0-1.5 1.57-1.5 3.5s.67 3.5 1.5 3.5h3c-.83 0-1.5-1.57-1.5-3.5z" fill="#cad9fc"/><path id="Shape" d="m60 29v8c-.0032948 1.1032019-.8967981 1.9967052-2 2h-3v-12h3c1.1032019.0032948 1.9967052.8967981 2 2z" fill="#a4c2f7"/><path id="Shape" d="m58 27h-3c1.1032019.0032948 1.9967052.8967981 2 2v8c-.0032948 1.1032019-.8967981 1.9967052-2 2h3c1.1032019-.0032948 1.9967052-.8967981 2-2v-8c-.0032948-1.1032019-.8967981-1.9967052-2-2z" fill="#7facfa"/><path id="Shape" d="m7 27v12h-3c-1.10320187-.0032948-1.9967052-.8967981-2-2v-8c.0032948-1.1032019.89679813-1.9967052 2-2z" fill="#a4c2f7"/><path id="Rectangle-path" d="m7 27h48v12h-48z" fill="#e8edfc"/><path id="Shape" d="m13 1v11h-3c-1.10320187-.0032948-1.9967052-.8967981-2-2v-7c.0032948-1.10320187.89679813-1.9967052 2-2z" fill="#a4c2f7"/><path id="Shape" d="m54 3v7c-.0032948 1.1032019-.8967981 1.9967052-2 2h-3v-11h3c1.1032019.0032948 1.9967052.89679813 2 2z" fill="#a4c2f7"/><path id="Shape" d="m52 1h-3c1.1032019.0032948 1.9967052.89679813 2 2v7c-.0032948 1.1032019-.8967981 1.9967052-2 2h3c1.1032019-.0032948 1.9967052-.8967981 2-2v-7c-.0032948-1.10320187-.8967981-1.9967052-2-2z" fill="#7facfa"/><path id="Rectangle-path" d="m13 1h36v11h-36z" fill="#e8edfc"/><path id="Shape" d="m2.03 49.72c.47562395 5.3041637 4.95498591 9.34779 10.28 9.28h3c-5.32501409.06779-9.80437605-3.9758363-10.28-9.28-.19991146-2.7693387.76056309-5.4971265 2.65146594-7.5302738 1.89090285-2.0331472 4.54198936-3.1886027 7.31853406-3.1897262h-3c-2.77654466.0011235-5.42763121 1.156579-7.31853406 3.1897262-1.89090285 2.0331473-2.8513774 4.7609351-2.65146594 7.5302738z" fill="#fff"/><path id="Shape" d="m4 39h3c-1.10320187-.0032948-1.9967052-.8967981-2-2v-8c.0032948-1.1032019.89679813-1.9967052 2-2h-3c-1.10320187.0032948-1.9967052.8967981-2 2v8c.0032948 1.1032019.89679813 1.9967052 2 2z" fill="#fff"/><path id="Shape" d="m8 19.5c0-4.1421356 3.3578644-7.5 7.5-7.5h-2.5c-1.1032019-.0032948-1.9967052-.8967981-2-2v-7c.0032948-1.10320187.8967981-1.9967052 2-2h-3c-1.10320187.0032948-1.9967052.89679813-2 2v7c.0032948 1.1032019.89679813 1.9967052 2 2h2.5c-4.14213562 0-7.5 3.3578644-7.5 7.5s3.35786438 7.5 7.5 7.5h3c-4.1421356 0-7.5-3.3578644-7.5-7.5z" fill="#fff"/><path id="Shape" d="m6.276 55.831-1.269 1.546c-2.31460995-1.874385-3.75404548-4.620129-3.979-7.59l2-.139c.18472289 2.4204234 1.35983846 4.6574122 3.248 6.183z" fill="#fff"/><g fill="#428dff"><path id="Shape" d="m3.133 54.554c-.55228473.0027614-1.00223852-.4427153-1.00499994-.995-.00276143-.5522847.44271521-1.0022385.99499994-1.005h.01c.55228475 0 1 .4477153 1 1s-.44771525 1-1 1z"/><path id="Shape" d="m12 48h24c.5522847 0 1-.4477153 1-1s-.4477153-1-1-1h-24c-.5522847 0-1 .4477153-1 1s.4477153 1 1 1z"/><path id="Shape" d="m50 46h-10c-.5522847 0-1 .4477153-1 1s.4477153 1 1 1h10c.5522847 0 1-.4477153 1-1s-.4477153-1-1-1z"/><path id="Shape" d="m50 50h-24c-.5522847 0-1 .4477153-1 1s.4477153 1 1 1h24c.5522847 0 1-.4477153 1-1s-.4477153-1-1-1z"/><path id="Shape" d="m22 50h-10c-.5522847 0-1 .4477153-1 1s.4477153 1 1 1h10c.5522847 0 1-.4477153 1-1s-.4477153-1-1-1z"/><path id="Shape" d="m58 26h-.184c.1184378-.320257.1806856-.6585603.184-1 0-1.6568542-1.3431458-3-3-3h-.4c-.4628646-.7474512-.6732101-1.6238909-.6-2.5-.0732101-.8761091.1371354-1.7525488.6-2.5h.4c1.6568542 0 2.9999999-1.3431458 2.9999999-3s-1.3431457-3-2.9999999-3h-.184c.1184378-.320257.1806856-.6585603.184-1v-7c0-1.65685425-1.3431458-3-3-3h-42c-1.65685425 0-3 1.34314575-3 3v7c.00306245.8740575.38945043 1.7027629 1.057 2.267-2.32933027 1.4236099-3.83063173 3.8817705-4.03342706 6.6041443-.20279534 2.7223737.91773032 5.3758397 3.01042706 7.1288557h-3.034c-1.65685425 0-3 1.3431458-3 3v8c0 1.6568542 1.34314575 3 3 3h1.69c-.5230289.3650243-1.01382352.7741871-1.467 1.223-2.25672719 2.256844-3.42406558 5.3812982-3.2 8.565.03865994.5522847.51771525.9686599 1.07.93.55228474-.0386599.96865992-.5177153.93-1.07-.17997018-2.4930985.68498889-4.9487468 2.38768185-6.7787103 1.70269295-1.8299634 4.08973231-2.8693892 6.58931815-2.8692897h46c.5522847 0 1 .4477153 1 1s-.4477153 1-1 1h-46c-3.79446656.003478-6.89714114 3.0259262-7 6.819-.03882166 1.8496814.67714291 3.6354407 1.983 4.946 1.38547888 1.4215424 3.2839891 2.2268509 5.269 2.235h45.748c.5522847 0 1 .4477153 1 1s-.4477153 1-1 1h-45.689c-2.2009643-.0090374-4.33183879-.7748811-6.035-2.169-.41961611-.3125924-1.0050282-.2700169-1.375.1-.19477118.1972858-.29485375.4690738-.27454355.7455607.02031019.2764869.15903418.5307326.38054355.6974393 2.06090069 1.6880641 4.64002584 2.6153345 7.304 2.626h45.689c1.6568542 0 3-1.3431458 3-3s-1.3431458-3-3-3h-1.1c-1.1945687-3.2263088-1.1945687-6.7736912 0-10h1.1c1.1856144.005247 2.2620981-.691231 2.7432243-1.7748484.4811261-1.0836175.2758048-2.3492169-.5232243-3.2251516.4993521-.5466671.7773963-1.259601.78-2v-8c0-1.6568542-1.3431458-3-3-3zm-3.243 28h-42.5c-1.4452592-.0077256-2.82691648-.5953352-3.835-1.631-.92976396-.9246521-1.44314833-2.1878954-1.422-3.499.07570557-2.7082448 2.2907008-4.8656501 5-4.87h42.757c-1.0093364 3.2569263-1.0093364 6.7430737 0 10zm-2.379-32h-39.878c-1.3807119 0-2.5-1.1192881-2.5-2.5s1.1192881-2.5 2.5-2.5h39.878c-.2621094.8069975-.3898112 1.6515857-.378 2.5-.0118112.8484143.1158906 1.6930025.378 2.5zm.622-19v7c0 .5522847-.4477153 1-1 1h-2v-9h2c.5522847 0 1 .44771525 1 1zm-5-1v9h-34v-9zm-39 1c0-.55228475.44771525-1 1-1h2v9h-2c-.55228475 0-1-.4477153-1-1zm-3 16.5c.0044079-3.5880235 2.91197652-6.4955921 6.5-6.5h42.5c.5522847 0 1 .4477153 1 1s-.4477153 1-1 1h-42.5c-2.4852814 0-4.5 2.0147186-4.5 4.5s2.0147186 4.5 4.5 4.5h42.5c.5522847 0 1 .4477153 1 1s-.4477153 1-1 1h-42.5c-3.58802348-.0044079-6.4955921-2.9119765-6.5-6.5zm-3 17.5v-8c0-.5522847.44771525-1 1-1h2v10h-2c-.55228475 0-1-.4477153-1-1zm9 1h-4v-10h46v10zm44 0v-10h2c.5522847 0 1 .4477153 1 1v8c0 .5522847-.4477153 1-1 1z"/><path id="Shape" d="m17 32h-6c-.5522847 0-1 .4477153-1 1s.4477153 1 1 1h6c.5522847 0 1-.4477153 1-1s-.4477153-1-1-1z"/><path id="Shape" d="m51 32h-29c-.5522847 0-1 .4477153-1 1s.4477153 1 1 1h29c.5522847 0 1-.4477153 1-1s-.4477153-1-1-1z"/></g></g></g></svg>