<svg height="512" viewBox="0 0 60 60" width="512" xmlns="http://www.w3.org/2000/svg"><g id="Page-1" fill="none" fill-rule="evenodd"><g id="032---Book" fill-rule="nonzero" transform="translate(-1)"><path id="Shape" d="m51 57c-.0081672 1.1011688-.8988312 1.9918328-2 2h-36.69c-5.32501409.06779-9.80437605-3.9758363-10.28-9.28-.19991146-2.7693387.76056309-5.4971265 2.65146594-7.5302738 1.89090285-2.0331472 4.5419894-3.1886027 7.31853406-3.1897262h37c1.1032019.0032948 1.9967052.8967981 2 2-.0081672 1.1011688-.8988312 1.9918328-2 2h-37c-3.2494364.0056802-5.9065153 2.5919037-6 5.84.02641344 3.4262669 2.82371036 6.1832828 6.25 6.16h36.75c1.1032019.0032948 1.9967052.8967981 2 2z" fill="#a4c2f7"/><path id="Shape" d="m46 49c-.0235975 2.0628844.3887326 4.1074967 1.21 6h-34.96c-3.42628964.0232828-6.22358656-2.7337331-6.25-6.16.0934847-3.2480963 2.7505636-5.8343198 6-5.84h35.21c-.8212674 1.8925033-1.2335975 3.9371156-1.21 6z" fill="#e8edfc"/><path id="Shape" d="m60 3v54c-.0032948 1.1032019-.8967981 1.9967052-2 2h-9c1.1011688-.0081672 1.9918328-.8988312 2-2-.0032948-1.1032019-.8967981-1.9967052-2-2h-1.79c-1.6133371-3.8373215-1.6133371-8.1626785 0-12h1.79c1.1011688-.0081672 1.9918328-.8988312 2-2-.0032948-1.1032019-.8967981-1.9967052-2-2h-29v-38h38c1.1032019.0032948 1.9967052.89679813 2 2z" fill="#e8edfc"/><path id="Shape" d="m58 1h-3c1.1032019.0032948 1.9967052.89679813 2 2v54c-.0032948 1.1032019-.8967981 1.9967052-2 2h3c1.1032019-.0032948 1.9967052-.8967981 2-2v-54c-.0032948-1.10320187-.8967981-1.9967052-2-2z" fill="#cad9fc"/><path id="Shape" d="m20 1v38h-7v-32c0-3.3137085 2.6862915-6 6-6z" fill="#e8edfc"/><rect id="Rectangle-path" fill="#fff" height="12" rx="1" width="28" x="26" y="7"/><path id="Shape" d="m2.03 49.72c.47562395 5.3041637 4.95498591 9.34779 10.28 9.28h3c-5.32501409.06779-9.80437605-3.9758363-10.28-9.28-.19991146-2.7693387.76056309-5.4971265 2.65146594-7.5302738 1.89090285-2.0331472 4.54198936-3.1886027 7.31853406-3.1897262h1v-32c0-3.3137085 2.6862915-6 6-6h-3c-3.3137085 0-6 2.6862915-6 6v32h-1c-2.77654466.0011235-5.42763121 1.156579-7.31853406 3.1897262-1.89090285 2.0331473-2.8513774 4.7609351-2.65146594 7.5302738z" fill="#fff"/><path id="Rectangle-path" d="m12 7h2v8h-2z" fill="#fff"/><g fill="#428dff"><path id="Shape" d="m11 47c0 .5522847.4477153 1 1 1h17c.5522847 0 1-.4477153 1-1s-.4477153-1-1-1h-17c-.5522847 0-1 .4477153-1 1z"/><path id="Shape" d="m33 48h8c.5522847 0 1-.4477153 1-1s-.4477153-1-1-1h-8c-.5522847 0-1 .4477153-1 1s.4477153 1 1 1z"/><path id="Shape" d="m41 50h-17c-.5522847 0-1 .4477153-1 1s.4477153 1 1 1h17c.5522847 0 1-.4477153 1-1s-.4477153-1-1-1z"/><path id="Shape" d="m20 50h-8c-.5522847 0-1 .4477153-1 1s.4477153 1 1 1h8c.5522847 0 1-.4477153 1-1s-.4477153-1-1-1z"/><path id="Shape" d="m13.02 12c-.5522847.0027614-1.0022385-.4427153-1.005-.995-.0027614-.5522847.4427153-1.0022386.995-1.005h.01c.5522847 0 1 .4477153 1 1s-.4477153 1-1 1z"/><path id="Shape" d="m58 0h-39c-3.8641657.00440864-6.9955914 3.13583434-7 7 0 .55228475.4477153 1 1 1s1-.44771525 1-1c.0033061-2.76005315 2.2399468-4.99669388 5-5v36h-5v-23c0-.5522847-.4477153-1-1-1s-1 .4477153-1 1v23c-3.05401531.0011405-5.97022083 1.2713251-8.05107692 3.5067331-2.08085609 2.2354079-3.1392149 5.2349913-2.92192308 8.2812669.51584844 5.8291998 5.43239982 10.2786701 11.284 10.212h45.689c1.6568542 0 3-1.3431458 3-3v-54c0-1.65685425-1.3431458-3-3-3zm-54.978 49.648c-.17998273-2.493272.68510933-4.9490802 2.38802241-6.7790764 1.70291309-1.8299961 4.09021786-2.8693009 6.58997759-2.8689236h37c.5522847 0 1 .4477153 1 1s-.4477153 1-1 1h-37c-3.79446656.003478-6.89714114 3.0259262-7 6.819-.03882166 1.8496814.67714291 3.6354407 1.983 4.946 1.38547888 1.4215424 3.2839891 2.2268509 5.269 2.235h36.748c.5522847 0 1 .4477153 1 1s-.4477153 1-1 1h-36.689c-4.80315755.0712277-8.85102388-3.5683223-9.289-8.352zm42.735-5.648c-1.0093364 3.2569263-1.0093364 6.7430737 0 10h-33.5c-1.4452592-.0077256-2.82691648-.5953352-3.835-1.631-.92976396-.9246521-1.44314833-2.1878954-1.422-3.499.07570557-2.7082448 2.2907008-4.8656501 5-4.87zm13.243 13c0 .5522847-.4477153 1-1 1h-6.184c.1184378-.320257.1806856-.6585603.184-1 0-1.6568542-1.3431458-3-3-3h-1.1c-1.1945687-3.2263088-1.1945687-6.7736912 0-10h1.1c1.6568542 0 3-1.3431458 3-3s-1.3431458-3-3-3h-28v-36h37c.5522847 0 1 .44771525 1 1z"/><path id="Shape" d="m53 6h-26c-1.1045695 0-2 .8954305-2 2v10c0 1.1045695.8954305 2 2 2h26c1.1045695 0 2-.8954305 2-2v-10c0-1.1045695-.8954305-2-2-2zm-26 12v-10h26v10z"/><path id="Shape" d="m52 23h-24c-.5522847 0-1 .4477153-1 1s.4477153 1 1 1h24c.5522847 0 1-.4477153 1-1s-.4477153-1-1-1z"/><path id="Shape" d="m47 28h-14c-.5522847 0-1 .4477153-1 1s.4477153 1 1 1h14c.5522847 0 1-.4477153 1-1s-.4477153-1-1-1z"/></g></g></g></svg>