<svg height="512" viewBox="0 0 60 60" width="512" xmlns="http://www.w3.org/2000/svg"><g id="Page-1" fill="none" fill-rule="evenodd"><g id="033---Open-Book" fill-rule="nonzero" transform="translate(0 -1)"><path id="Shape" d="m36 54v5.05c-3.899195 1.2699923-8.100805 1.2699923-12 0v-5.05c3.8894455 1.3299896 8.1105545 1.3299896 12 0z" fill="#a4c2f7"/><path id="Shape" d="m36 20v5c-3.8894455 1.3299896-8.1105545 1.3299896-12 0v-5c.16.05.32.11.48.15l.01.01c1.7747468.5508857 3.6217306.834 5.48.84h.06c1.8582694-.006 3.7052532-.2891143 5.48-.84l.01-.01c.16-.04.32-.1.48-.15z" fill="#a4c2f7"/><g fill="#e8edfc"><path id="Shape" d="m19 17.83v39l-17.4-7.57c-.36366944-.1618135-.5985467-.5219586-.6-.92v-36.81c-.00117856-.3379353.16839993-.6536053.45081603-.839193.28241611-.1855877.63946016-.215984.94918397-.080807l8.6 3.74z"/><path id="Shape" d="m36 25v29c-3.8894455 1.3299896-8.1105545 1.3299896-12 0v-29c3.8894455 1.3299896 8.1105545 1.3299896 12 0z"/><path id="Shape" d="m24 20v39l-5-2.17v-39z"/><path id="Shape" d="m41 17.83v39l-5 2.17v-39z"/><path id="Shape" d="m59 11.53v36.81c-.0014533.3980414-.2363306.7581865-.6.92l-17.4 7.57v-39l8-3.48 8.6-3.74c.3097238-.135177.6667679-.1047807.949184.080807s.4519946.5012577.450816.839193z"/></g><path id="Shape" d="m57.6 10.61-1.627.708c.016733.0694653.0257873.1405581.027.212v36.81c-.0014533.3980414-.2363306.7581865-.6.92l-14.4 6.265v1.3l17.4-7.57c.3636694-.1618135.5985467-.5219586.6-.92v-36.805c.0011786-.3379353-.1683999-.6536053-.450816-.839193s-.6394602-.215984-.949184-.080807z" fill="#cad9fc"/><path id="Shape" d="m29.97 21c-1.8582694-.006-3.7052532-.2891143-5.48-.84l-.01-.01-3.48-4.14v-13.51c-.0019451-.23836266.1646461-.44495341.3980062-.49357011.2333602-.0486167.4685906.07426122.5619938.29357011z" fill="#a4c2f7"/><path id="Shape" d="m24.48 20.15c-.16-.04-.32-.1-.48-.15l-5-2.17-8-3.48v-8.85c.0020566-.20843653.1332073-.39372843.3291041-.46496364.1958969-.0712352.4154335-.01346598.5508959.14496364l9.12 10.83z" fill="#a4c2f7"/><path id="Shape" d="m39 2.5v13.51l-3.48 4.14-.01.01c-1.7747468.5508857-3.6217306.834-5.48.84l8.01-18.7c.0934032-.21930889.3286336-.34218681.5619938-.29357011.2333601.0486167.3999513.25520745.3980062.49357011z" fill="#a4c2f7"/><path id="Shape" d="m49 5.5v8.85l-8 3.48-5 2.17c-.16.05-.32.11-.48.15l3.48-4.14 9.12-10.83c.1354624-.15842962.354999-.21619884.5508959-.14496364.1958968.07123521.3270475.25652711.3291041.46496364z" fill="#a4c2f7"/><path id="Shape" d="m48.12 5.18-2.12 2.52v6.65l-8 3.48-.834.362-1.646 1.958c.16-.04.32-.1.48-.15l5-2.17 8-3.48v-8.85c-.0020566-.20843653-.1332073-.39372843-.3291041-.46496364-.1958969-.0712352-.4154335-.01346598-.5508959.14496364z" fill="#7facfa"/><path id="Shape" d="m1.6 49.26c23.5 10.223 22.4 9.69 22.4 9.79 2.4172002.7868737 4.9655651 1.0906388 7.5.894-1.5301146-.1187142-3.0407037-.4188179-4.5-.894 0-.1 1.1.433-22.4-9.79-.36366944-.1618135-.5985467-.5219586-.6-.92v-36.81c.00121269-.0714419.01026695-.1425347.027-.212l-1.627-.708c-.30972381-.135177-.66676786-.1047807-.94918397.080807-.2824161.1855877-.45199459.5012577-.45081603.839193v36.81c.0014533.3980414.23633056.7581865.6.92z" fill="#fff"/><path id="Rectangle-path" d="m0 11.527h2v8h-2z" fill="#fff"/><path id="Shape" d="m1.02 16.527c-.55228475.0027614-1.00223858-.4427153-1.005-.995s.44271525-1.0022386.995-1.005h.01c.55228475 0 1 .4477153 1 1s-.44771525 1-1 1z" fill="#428dff"/><path id="Shape" d="m59.1 9.854c-.5649075-.37281217-1.2804157-.43344209-1.9-.161l-7.2 3.131v-7.324c-.0025105-.62834217-.3963855-1.18852841-.9868172-1.40349468-.5904318-.21496628-1.2522734-.03914869-1.6581828.44049468l-7.355 8.738v-10.775c.0041332-.71706121-.5037343-1.3350788-1.208-1.47-.696041-.14998923-1.3996546.21971318-1.671.878l-7.121 16.623-7.118-16.617c-.2776927-.65809732-.9809198-1.02909224-1.6808834-.88676792-.6999637.14232432-1.2024719.75848263-1.2011166 1.47276792v10.776l-7.352-8.734c-.4047968-.48135495-1.0668996-.65906531-1.6583227-.44509877-.5914232.21396654-.9865622.77416846-.9896773 1.40309877v7.323l-7.2-3.13c-.61847112-.26992302-1.33135619-.20976835-1.89585092.1599757-.56449473.369744-.9044763.999217-.90414908 1.6740243 0 .5522847.44771525 1 1 1s1-.4477153 1-1l8.6 3.739.02.009 7.38 3.208v36.817l-16-6.956v-28.817c0-.5522847-.44771525-1-1-1s-1 .4477153-1 1v28.817c-.00038571.7955963.47082382 1.5157615 1.2 1.834l17.393 7.562.036.015 4.716 2.051c.862.747 5.088 1.194 6.655 1.194 1.453 0 5.814-.465 6.655-1.194l4.716-2.051.036-.015 17.393-7.562c.7291762-.3182385 1.2003857-1.0384037 1.2-1.834v-36.817c.0019944-.6739244-.3365578-1.3032554-.9-1.673zm-11.1-2.977v6.817l-9.051 3.935zm-18 15.132c1.6886361-.0041093 3.3695088-.2286739 5-.668v2.915c-3.2608658.9829718-6.7391342.9829718-10 0v-2.915c1.6304912.4393261 3.3113639.6638907 5 .668zm-5 4.332c3.2738396.8906461 6.7261604.8906461 10 0v26.914c-3.2610054.9820246-6.7389946.9820246-10 0zm12-5.684 3-1.3v36.813l-3 1.3zm1-15.722v10.716l-3.047 3.619c-1.1009169.33038-2.2317162.5514485-3.376.66zm-16 0 6.423 15c-1.1449256-.1086465-2.2763791-.329712-3.378-.66l-3.045-3.623zm-10 1.942 9.055 10.754-9.055-3.937zm8 12.476 3 1.3v36.822l-3-1.3zm5 38.941v-2.954c3.274014.8893396 6.725986.8893396 10 0v2.954c-3.2683261.9310012-6.7316739.9310012-10 0zm33-9.95-16 6.956v-36.817l7.379-3.208.02-.009 8.601-3.739z" fill="#428dff"/><path id="Shape" d="m30 34c.5522847 0 1-.4477153 1-1v-2c0-.5522847-.4477153-1-1-1s-1 .4477153-1 1v2c0 .5522847.4477153 1 1 1z" fill="#428dff"/><path id="Shape" d="m31 51v-14c0-.5522847-.4477153-1-1-1s-1 .4477153-1 1v14c0 .5522847.4477153 1 1 1s1-.4477153 1-1z" fill="#428dff"/></g></g></svg>