<svg height="512" viewBox="0 0 60 60" width="512" xmlns="http://www.w3.org/2000/svg"><g id="Page-1" fill="none" fill-rule="evenodd"><g id="034---Online-Reading" fill-rule="nonzero"><path id="Shape" d="m24 51-1 4h-20c-.6491104-.0014392-1.25715061-.3178092-1.63085799-.8485532-.37370737-.530744-.46659612-1.2098423-.24914201-1.8214468l2.57-7.27c.1452706.0175416.29263036.0004067.43-.05 1.38631799-.4683489 2.79870293-.8556696 4.23-1.16l-2.52 7.15z" fill="#a4c2f7"/><path id="Shape" d="m37 55c0 2.21-3.13 4-7 4s-7-1.79-7-4l1-4h4.99c.4009627.6322027.7392344 1.3020478 1.01 2 .2707656-.6979522.6090373-1.3677973 1.01-2h4.99z" fill="#7facfa"/><path id="Shape" d="m57 55h-20l-1-4h18.17l-2.52-7.15c1.4312971.3043304 2.843682.6916511 4.23 1.16.1408246.0504769.2914402.0675924.44.05l2.56 7.27c.2174541.6116045.1245654 1.2907028-.249142 1.8214468s-.9817476.847114-1.630858.8485532z" fill="#a4c2f7"/><path id="Shape" d="m58.88 52.33-2.56-7.27c-.1485598.0175924-.2991754.0004769-.44-.05-1.386318-.4683489-2.7987029-.8556696-4.23-1.16l.31.88c.308.1.6.174.92.28.1408246.0504769.2914402.0675924.44.05l2.56 7.27c.2174541.6116045.1245654 1.2907028-.249142 1.8214468s-.9817476.847114-1.630858.8485532h3c.6491104-.0014392 1.2571506-.3178092 1.630858-.8485532s.4665961-1.2098423.249142-1.8214468z" fill="#7facfa"/><path id="Shape" d="m56.32 45.06c-.1485598.0175924-.2991754.0004769-.44-.05-1.386318-.4683489-2.7987029-.8556696-4.23-1.16-10.56-2.25-16.32 1.75-19.2 5.15-.5324463.6272932-1.0139752 1.2960834-1.44 2-.4009627.6322027-.7392344 1.3020478-1.01 2-.2707656-.6979522-.6090373-1.3677973-1.01-2-.4260248-.7039166-.9075537-1.3727068-1.44-2-2.87-3.4-8.63-7.4-19.2-5.15-1.43129707.3043304-2.84368201.6916511-4.23 1.16-.13736964.0504067-.2847294.0675416-.43.05-.30107412-.0348993-.57007334-.2044637-.73140906-.4610458-.16133571-.2565821-.1975957-.5724902-.09859094-.8589542l7.24-20.54c.1027684-.2859989.3257098-.5125951.61-.62.94-.34 1.84-.62 2.7-.84 1.7515599 7.754013 8.6406177 13.2604723 16.59 13.2604723s14.8384401-5.5064593 16.59-13.2604723c.86.22 1.76.5 2.7.84.2823037.1104349.5041697.335938.61.62l7.25 20.54c.0990048.286464.0627448.6023721-.0985909.8589542-.1613358.2565821-.430335.4261465-.7314091.4610458z" fill="#e8edfc"/><path id="Shape" d="m57.15 43.74-7.25-20.54c-.1058303-.284062-.3276963-.5095651-.61-.62-.94-.34-1.84-.62-2.7-.84-.067.3-.156.588-.238.881.2514895.1137219.4482748.3216393.548.579l7.25 20.54c.083864.2393661.0709467.5020181-.036.732.578.165 1.161.335 1.766.538.1408246.0504769.2914402.0675924.44.05.3010741-.0348993.5700733-.2044637.7314091-.4610458.1613357-.2565821.1975957-.5724902.0985909-.8589542z" fill="#cad9fc"/><path id="Shape" d="m47 18c0 9.3888407-7.6111593 17-17 17s-17-7.6111593-17-17c0-9.38884075 7.6111593-17 17-17 9.3863263.00606762 16.9939324 7.61367369 17 17z" fill="#e8edfc"/><path id="Shape" d="m30 1c-.506 0-1 .032-1.5.076 8.7744062.77259338 15.5043442 8.12114572 15.5043442 16.9295 0 8.8083543-6.729938 16.1569066-15.5043442 16.9295.494.043 1 .065 1.5.065 9.3888406-.0000001 16.9999997-7.6111594 16.9999997-17 0-9.38884065-7.6111591-16.99999986-16.9999997-17z" fill="#cad9fc"/><path id="Shape" d="m28.99 51h-23.16l2.52-7.15c10.57-2.25 16.33 1.75 19.2 5.15.5324463.6272932 1.0139752 1.2960834 1.44 2z" fill="#a4c2f7"/><path id="Shape" d="m54.17 51h-23.16c.4260248-.7039166.9075537-1.3727068 1.44-2 2.88-3.4 8.64-7.4 19.2-5.15z" fill="#a4c2f7"/><path id="Shape" d="m3 55h3c-.6491104-.0014392-1.25715061-.3178092-1.63085799-.8485532-.37370737-.530744-.46659612-1.2098423-.24914201-1.8214468l2.57-7.27c-.30107412-.0348993-.57007334-.2044637-.73140906-.4610458-.16133571-.2565821-.1975957-.5724902-.09859094-.8589542l7.24-20.54c.1027684-.2859989.3257098-.5125951.61-.62.94-.34 1.84-.62 2.7-.84-1.0730724-4.7828212-.0308514-9.79607 2.8595542-13.75491046 2.8904056-3.9588405 7.3480331-6.47845253 12.2304458-6.91308954-.494-.043-.993-.072-1.5-.072-5.1652046.00295939-10.0493573 2.35230399-13.2757984 6.38584157-3.2264411 4.03353763-4.4457325 9.31441783-3.3142016 14.35415843-.86.22-1.76.5-2.7.84-.2842902.1074049-.5072316.3340011-.61.62l-7.24 20.54c-.09900476.286464-.06274477.6023721.09859094.8589542.16133572.2565821.43033494.4261465.73140906.4610458l-2.57 7.27c-.21745411.6116045-.12456536 1.2907028.24914201 1.8214468.37370738.530744.98174759.847114 1.63085799.8485532z" fill="#fff"/><path id="Rectangle-path" d="m4.77 25.973h8v2h-8z" fill="#fff" transform="matrix(.332 -.943 .943 .332 -19.584 26.278)"/><g fill="#428dff"><path id="Shape" d="m57.548 45.53c.022-.021.051-.033.073-.055.543112-.5405524.7267951-1.3453334.472-2.068l-7.251-20.543c-.2089299-.56347-.6506157-1.0095289-1.212-1.224-.654-.237-1.286-.436-1.905-.616.7870305-4.3967185-.1270606-8.928208-2.557-12.676 0-.01 0-.02-.007-.03-.0219485-.03476351-.045993-.06815861-.072-.1-3.3081772-5.1235535-8.990243-8.21833096-15.089-8.21833096s-11.7808228 3.09477746-15.089 8.21833096c-.026007.03184139-.0500515.06523649-.072.1 0 .01 0 .02-.007.03-2.4299394 3.747792-3.3440305 8.2792815-2.557 12.676-.622.181-1.259.382-1.931.625-.55649903.2146652-.99102476.6623473-1.189 1.225-.17866412.5246705.10182949 1.0948359.6265 1.2735.5246705.1786641 1.0948359-.1018295 1.2735-.6265.572-.207 1.124-.383 1.665-.544.4776244 1.6518651 1.1906064 3.226353 2.117 4.675 0 .01 0 .02.007.03.0219768.0347444.0460201.0681378.072.1 3.2925355 5.0956259 8.9341375 8.1856559 15.0008709 8.2163082s11.7392715-3.0022128 15.0831291-8.0643082c.067323-.0752527.1229451-.1602028.165-.252 0-.01 0-.02.007-.03.9262884-1.4482146 1.6389521-3.0224066 2.116-4.674.542.162 1.1.34 1.673.555l7.239 20.528c-1.4219377-.4745595-2.8704101-.8655603-4.338-1.171-.0538022-.016733-.1090378-.0284497-.165-.035-6.197-1.255-14.379-1.155-20.011 5.5-.251.3-.475.589-.686.874v-10.229c0-.5522847-.4477153-1-1-1s-1 .4477153-1 1v10.229c-.211-.286-.434-.576-.686-.874-2.719-3.225-8.75-7.827-20-5.5-.05216884.006152-.10369891.0168595-.154.032-1.47480495.3137424-2.93050461.7113888-4.36 1.191v-.006l4.584-12.995c.15232305-.5109728-.12304848-1.0515844-.6259238-1.2288186-.50287533-.1772342-1.05635861.0712545-1.2580762.5648186l-4.581 12.987v.006c-.25841845.7184807-.07839257 1.5215832.462 2.061.024.025.055.039.08.062l-2.281 6.471c-.32414372.9168047-.18380944 1.9338513.37650051 2.7286171.56030994.7947659 1.47108365 1.2686527 2.44349949 1.2713829h19.157c.722 2.309 3.91 4 7.846 4s7.125-1.691 7.847-4h19.15c.9731226-.0014357 1.8850953-.474788 2.4463418-1.2697547.5612464-.7949667.7020338-1.8127759.3776582-2.7302453zm-13.728-19.505c-1.4743606-.541061-2.9935844-.9509837-4.54-1.225.4852606-2.2339503.7266736-4.5139625.72-6.8.0066736-2.2860375-.2347394-4.5660497-.72-6.8 1.5464644-.2737975 3.0657073-.6837254 4.54-1.225 2.9066211 4.9552128 2.9066211 11.0947872 0 16.05zm-5.82-8.025c.0033862 2.1800897-.2377883 4.3536797-.719 6.48-2.0832928-.2705867-4.1804201-.4211685-6.281-.451v-12.047c2.1007435-.0337907 4.1978348-.1877088 6.281-.461.4812122 2.1259816.7223872 4.2992405.719 6.479zm-16 0c-.0033872-2.1797595.2377878-4.3530184.719-6.479 2.0831527.273413 4.180251.4273315 6.281.461v12.047c-2.1005768.0299042-4.1976999.1804857-6.281.451-.4812117-2.1263203-.7223862-4.2999103-.719-6.48zm9-8.028v-7.826c2.393.629 4.49 3.467 5.75 7.427-1.9080401.23689288-3.8275278.37008863-5.75.399zm-2-7.826v7.826c-1.9224932-.02917445-3.8419848-.1627043-5.75-.4 1.26-3.959 3.357-6.797 5.75-7.426zm0 23.882v7.826c-2.393-.629-4.49-3.467-5.75-7.427 1.9080401-.2368929 3.8275278-.3700886 5.75-.399zm2 7.826v-7.826c1.9224932.0291745 3.8419848.1627043 5.75.4-1.26 3.959-3.357 6.797-5.75 7.426zm11.677-25.577c-1.2732704.42582189-2.5770116.75443154-3.9.983-.6306531-2.25746453-1.6985289-4.36909297-3.143-6.215 2.7884398 1.05527582 5.2274248 2.86711309 7.043 5.232zm-18.313-5.232c-1.4444711 1.84590703-2.5123469 3.95753547-3.143 6.215-1.3228875-.22904392-2.6265931-.55764458-3.9-.983 1.8155752-2.36488691 4.2545602-4.17672418 7.043-5.232zm-8.184 6.93c1.4743984.540942 2.9936115.9508619 4.54 1.225-.9600034 4.4825094-.9600034 9.1174906 0 13.6-1.5464644.2737975-3.0657073.6837254-4.54 1.225-2.9066211-4.9552128-2.9066211-11.0947872 0-16.05zm1.143 17.748c1.2732704-.4258219 2.5770116-.7544315 3.9-.983.6306531 2.2574645 1.6985289 4.369093 3.143 6.215-2.7884398-1.0552758-5.2274248-2.8671131-7.043-5.232zm18.313 5.232c1.4444711-1.845907 2.5123469-3.9575355 3.143-6.215 1.3228875.2290439 2.6265931.5576446 3.9.983-1.8155752 2.3648869-4.2545602 4.1767242-7.043 5.232zm15.264 11.764 1.861 5.281h-19.828c.093-.118.179-.234.281-.354 2.904-3.433 8.254-6.777 17.686-4.927zm-24.114 4.926c.1.12.188.237.282.355h-19.822l1.862-5.282c9.442-1.849 14.782 1.493 17.678 4.927zm-24.594 3.938c-.19013213-.2675662-.2368492-.6114038-.125-.92l2.362-6.7h.007c.814-.27 1.6-.5 2.363-.708l-1.909 5.412c-.1080869.3060602-.06090251.6455417.12655344.9105245s.49186126.4224993.81644656.4224755h16.89l-.5 2h-19.223c-.32133853.0015744-.62311745-.1541704-.808-.417zm27.808 4.417c-3.464 0-5.893-1.517-5.99-2.913l.774-3.087h3.63c.2446769.4287022.4595192.8737565.643 1.332.1411019.3998258.5190066.6672073.943.6672073s.8018981-.2673815.943-.6672073c.182264-.4582702.396111-.9033394.64-1.332h3.64l.771 3.087c-.094 1.396-2.526 2.913-5.994 2.913zm27.812-4.417c-.1858064.2638627-.4892924.419717-.812.417h-19.216l-.5-2h16.889c.3247618.0003486.6294675-.1570337.817158-.422067s.2349879-.6047063.126842-.910933l-1.909-5.416c.76.2 1.54.436 2.349.705h.021l2.362 6.7c.1143262.3106437.0675234.657733-.125.927z"/><path id="Shape" d="m8.791 27.973c-.55228474.0030376-1.00246242-.4422153-1.00549999-.9945-.00303756-.5522847.44221525-1.0024624.99449999-1.0055h.011c.55228475 0 1 .4477153 1 1s-.44771525 1-1 1z"/></g></g></g></svg>