<svg height="512" viewBox="0 0 60 60" width="512" xmlns="http://www.w3.org/2000/svg"><g id="Page-1" fill="none" fill-rule="evenodd"><g id="035---Book-Stack" fill-rule="nonzero"><path id="Shape" d="m59 48v9c-.0032948 1.1032019-.8967981 1.9967052-2 2h-5v-13h5c1.1032019.0032948 1.9967052.8967981 2 2z" fill="#a4c2f7"/><path id="Shape" d="m57 46h-3c1.1032019.0032948 1.9967052.8967981 2 2v9c-.0032948 1.1032019-.8967981 1.9967052-2 2h3c1.1032019-.0032948 1.9967052-.8967981 2-2v-9c-.0032948-1.1032019-.8967981-1.9967052-2-2z" fill="#7facfa"/><path id="Shape" d="m8 46v13h-5c-1.10320187-.0032948-1.9967052-.8967981-2-2v-9c.0032948-1.1032019.89679813-1.9967052 2-2z" fill="#a4c2f7"/><path id="Rectangle-path" d="m8 46h44v13h-44z" fill="#e8edfc"/><path id="Shape" d="m58 44c-.0032948 1.1032019-.8967981 1.9967052-2 2h-27.5c-4.1421356 0-7.5-3.3578644-7.5-7.5s3.3578644-7.5 7.5-7.5h27.5c1.1045695 0 2 .8954305 2 2s-.8954305 2-2 2h-27.5c-1.9329966 0-3.5 1.5670034-3.5 3.5s1.5670034 3.5 3.5 3.5h27.5c1.1032019.0032948 1.9967052.8967981 2 2z" fill="#a4c2f7"/><path id="Shape" d="m55 33c-.0032948 1.1032019-.8967981 1.9967052-2 2h3c1.1045695 0 2-.8954305 2-2s-.8954305-2-2-2h-3c1.1032019.0032948 1.9967052.8967981 2 2z" fill="#7facfa"/><path id="Shape" d="m56 42h-3c1.1045695 0 2 .8954305 2 2s-.8954305 2-2 2h3c1.1045695 0 2-.8954305 2-2s-.8954305-2-2-2z" fill="#7facfa"/><path id="Shape" d="m55.5 42h-27c-1.9329966 0-3.5-1.5670034-3.5-3.5s1.5670034-3.5 3.5-3.5h27c-.83 0-1.5 1.57-1.5 3.5s.67 3.5 1.5 3.5z" fill="#e8edfc"/><path id="Shape" d="m54 38.5c0-1.93.67-3.5 1.5-3.5h-3c-.83 0-1.5 1.57-1.5 3.5s.67 3.5 1.5 3.5h3c-.83 0-1.5-1.57-1.5-3.5z" fill="#cad9fc"/><path id="Shape" d="m59 23.5c0 4.1421356-3.3578644 7.5-7.5 7.5h-27.5c-1.1045695 0-2-.8954305-2-2s.8954305-2 2-2h27.5c1.9329966 0 3.5-1.5670034 3.5-3.5s-1.5670034-3.5-3.5-3.5h-27.5c-1.1045695 0-2-.8954305-2-2s.8954305-2 2-2h27.5c1.9891237 0 3.896778.7901763 5.3033009 2.1966991 1.4065228 1.4065229 2.1966991 3.3141772 2.1966991 5.3033009z" fill="#a4c2f7"/><path id="Shape" d="m51.5 16h-3c4.1421356.0000001 7.4999998 3.3578644 7.4999998 7.5s-3.3578642 7.4999999-7.4999998 7.5h3c4.1421356 0 7.5-3.3578644 7.5-7.5s-3.3578644-7.5-7.5-7.5z" fill="#7facfa"/><path id="Shape" d="m55 23.5c0 1.9329966-1.5670034 3.5-3.5 3.5h-27c.83 0 1.5-1.57 1.5-3.5s-.67-3.5-1.5-3.5h27c1.9329966 0 3.5 1.5670034 3.5 3.5z" fill="#e8edfc"/><path id="Shape" d="m58 14c-.0032948 1.1032019-.8967981 1.9967052-2 2h-27.5c-4.1421356 0-7.5-3.3578644-7.5-7.5 0-.2.01-.41.03-.61v-.03l.24-1.31v-.02c.8835281-3.26529596 3.8472829-5.53217894 7.23-5.53h27.5c1.1045695 0 2 .8954305 2 2s-.8954305 2-2 2h-27.5c-1.9329966 0-3.5 1.56700338-3.5 3.5 0 1.9329966 1.5670034 3.5 3.5 3.5h27.5c1.1032019.0032948 1.9967052.8967981 2 2z" fill="#a4c2f7"/><path id="Shape" d="m55 3c-.0032948 1.10320187-.8967981 1.9967052-2 2h3c1.1045695 0 2-.8954305 2-2s-.8954305-2-2-2h-3c1.1032019.0032948 1.9967052.89679813 2 2z" fill="#7facfa"/><path id="Shape" d="m56 12h-3c1.1045695 0 2 .8954305 2 2s-.8954305 2-2 2h3c1.1045695 0 2-.8954305 2-2s-.8954305-2-2-2z" fill="#7facfa"/><path id="Shape" d="m55.5 12h-27c-1.9329966 0-3.5-1.5670034-3.5-3.5 0-1.93299662 1.5670034-3.5 3.5-3.5h27c-.83 0-1.5 1.57-1.5 3.5s.67 3.5 1.5 3.5z" fill="#e8edfc"/><path id="Shape" d="m54 8.5c0-1.93.67-3.5 1.5-3.5h-3c-.83 0-1.5 1.57-1.5 3.5s.67 3.5 1.5 3.5h3c-.83 0-1.5-1.57-1.5-3.5z" fill="#cad9fc"/><path id="Shape" d="m15.3 40.41-.7 3.94c-.1741755.9523283-1.0018849 1.6455875-1.97 1.65-.1139722-.0004893-.2277031-.0105244-.34-.03l-7.88-1.39c-1.0904123-.1910895-1.81990092-1.2293801-1.63-2.32l.7-3.94z" fill="#e8edfc"/><path id="Shape" d="m21.55 4.95-.28 1.58v.02c-.1307623.42582545-.2113087.86547451-.24 1.31v.03l-4.69 26.61-11.82-2.08 5.21-29.55c.09261578-.52258399.3891442-.98692802.8242853-1.29077655s.9732096-.42228339 1.4957147-.32922345l7.88 1.39c1.0836591.19301971 1.8076668 1.22540112 1.62 2.31z" fill="#e8edfc"/><path id="Shape" d="m16.34 34.5-1.04 5.91-11.82-2.09 1.04-5.9z" fill="#a4c2f7"/><rect id="Rectangle-path" fill="#fff" height="5" rx="1" width="34" x="13" y="50"/><path id="Shape" d="m3 59h3c-1.10320187-.0032948-1.9967052-.8967981-2-2v-9c.0032948-1.1032019.89679813-1.9967052 2-2h-3c-1.10320187.0032948-1.9967052.8967981-2 2v9c.0032948 1.1032019.89679813 1.9967052 2 2z" fill="#fff"/><path id="Shape" d="m4.41 44.58c7.275 1.283 7.946 1.411 8.131 1.42h.089c.3746135-.0019011.7410503-.1097174 1.057-.311l-6.277-1.109c-1.0904123-.1910895-1.81990092-1.2293801-1.63-2.32.929-5.231-.278 1.608 6.95-39.39.0975687-.55606179.4288993-1.04359101.91-1.339l-1.59-.281c-.5225051-.09305994-1.0605736.02537492-1.4957147.32922345s-.73166952.76819256-.8242853 1.29077655c-7.228 41-6.021 34.159-6.95 39.39-.18990092 1.0906199.5395877 2.1289105 1.63 2.32z" fill="#fff"/><path id="Rectangle-path" d="m5.036 5.81h8v2h-8z" fill="#fff" transform="matrix(.174 -.985 .985 .174 .76 14.526)"/><g fill="#428dff"><path id="Shape" d="m60 23.5c-.0011488-2.5784515-1.1745561-5.0165189-3.189-6.626 1.4420151-.4021805 2.3648364-1.8082389 2.160087-3.2912205-.2047494-1.4829815-1.474042-2.5863834-2.971087-2.5827795h-.4c-.4628646-.7474512-.6732101-1.62389091-.6-2.5-.0732101-.87610909.1371354-1.75254885.6-2.5h.4c1.6568542 0 3-1.34314575 3-3s-1.3431458-3-3-3h-27.5c-2.4707453.00096842-4.8181396 1.07971804-6.428 2.954-.4504709-.68619952-1.1638005-1.1564472-1.972-1.3l-7.879-1.39c-.7840273-.13829527-1.5908735.04072179-2.24284257.49762529-.65196904.4569035-1.0955884 1.15421962-1.23315743 1.93837471-.06216422.35190661.06813362.71024594.34181157.94003503.27367796.2297891.64915784.29611752.98500003.17400001.3358422-.12211752.5810242-.41412843.6431884-.76603504.0458528-.26145361.1937748-.49394937.4111732-.64625956s.4864336-.21193631.7478268-.16574044l7.878 1.39c.5436188.09598708.9066296.61431821.811 1.158l-.276 1.567c-.1233166.46338309-.206952.93642515-.25 1.414l-4.51 25.575-9.848-1.74 3.647-20.677c.06198558-.3519066-.06847732-.7101506-.34224459-.93978502-.27376727-.22963439-.64924715-.29577222-.985-.1735-.33575285.12227221-.58076983.41437842-.64275541.76628502l-5.556 31.513c-.20694359 1.1139443.24667097 2.2473967 1.165 2.911-1.64316975.0191716-2.96511184 1.3567184-2.965 3v9c0 1.6568542 1.34314575 3 3 3h54c1.6568542 0 3-1.3431458 3-3v-9c-.0018551-1.0273655-.5303387-1.9820333-1.4-2.529.2591718-.4471277.3970562-.9541978.4-1.471 0-1.6568542-1.3431458-3-3-3h-.4c-.4628646-.7474512-.6732101-1.6238909-.6-2.5-.0732101-.8761091.1371354-1.7525488.6-2.5h.4c1.497045.0036039 2.7663376-1.099798 2.971087-2.5827795.2047494-1.4829816-.7180719-2.88904-2.160087-3.2912205 2.0144439-1.6094811 3.1878512-4.0475485 3.189-6.626zm-2 0c-.0044079 3.5880235-2.9119765 6.4955921-6.5 6.5h-27.5c-.5522847 0-1-.4477153-1-1s.4477153-1 1-1h27.5c2.4852813-.0000001 4.4999999-2.0147187 4.4999999-4.5s-2.0147186-4.4999999-4.4999999-4.5h-27.5c-.5522847 0-1-.4477153-1-1s.4477153-1 1-1h27.5c3.5880235.0044079 6.4955921 2.9119765 6.5 6.5zm-42.413 21.021 5.593-31.721c.5236327.8903362 1.2039044 1.678679 2.008 2.327-1.4403537.4036547-2.3612805 1.8090281-2.1564139 3.2907789s1.4725695 2.5845246 2.9684139 2.5822211h.4c.4628646.7474512.6732101 1.6238909.6 2.5.0732101.8761091-.1371354 1.7525488-.6 2.5h-.4c-1.497045-.0036039-2.7663376 1.099798-2.971087 2.5827795-.2047494 1.4829816.7180719 2.88904 2.160087 3.2912205-1.9879359 1.5870277-3.1583365 3.9827154-3.1883724 6.5262649-.0300358 2.5435495 1.0834668 4.9662069 3.0333724 6.5997351h-7.577c.0568815-.1556775.1003726-.3159257.13-.479zm11.035-23.521h24.878c1.3807119 0 2.5 1.1192881 2.5 2.5s-1.1192881 2.5-2.5 2.5h-24.878c.5040122-1.6285624.5040122-3.3714376 0-5zm26.756-10h-24.878c-1.3807119 0-2.5-1.11928813-2.5-2.5s1.1192881-2.5 2.5-2.5h24.878c-.2621094.8069975-.3898112 1.65158571-.378 2.5-.0118112.84841429.1158906 1.6930025.378 2.5zm-24.878-9h27.5c.5522847 0 1 .44771525 1 1s-.4477153 1-1 1h-27.5c-2.4852814 0-4.5 2.01471863-4.5 4.5 0 2.4852814 2.0147186 4.5 4.5 4.5h27.5c.5522847 0 1 .4477153 1 1s-.4477153 1-1 1h-27.5c-3.5880235-.0044079-6.4955921-2.9119765-6.5-6.5 0-.166.013-.329.025-.492l.223-1.266c.789581-2.80057611 3.3422514-4.73671862 6.252-4.742zm-14.015 37.249-9.847-1.736.694-3.939 9.848 1.736zm-.347 1.97-.521 2.954c-.0959871.5436188-.6143182.9066296-1.158.811l-7.878-1.384c-.26124794-.0458634-.49357264-.1936387-.64585577-.410811-.15228313-.2171722-.21204788-.4859481-.16614423-.747189l.521-2.955zm-12.138 15.781v-9c0-.5522847.44771525-1 1-1h4v11h-4c-.55228475 0-1-.4477153-1-1zm7 1v-11h42v11zm49-1c0 .5522847-.4477153 1-1 1h-4v-11h4c.5522847 0 1 .4477153 1 1zm-4.622-16h-24.878c-1.3807119 0-2.5-1.1192881-2.5-2.5s1.1192881-2.5 2.5-2.5h24.878c-.5040122 1.6285624-.5040122 3.3714376 0 5zm2.622-9c.5522847 0 1 .4477153 1 1s-.4477153 1-1 1h-27.5c-2.4852814 0-4.5 2.0147186-4.5 4.5s2.0147186 4.5 4.5 4.5h27.5c.5522847 0 1 .4477153 1 1s-.4477153 1-1 1h-27.5c-3.5898509 0-6.5-2.9101491-6.5-6.5s2.9101491-6.5 6.5-6.5z"/><path id="Shape" d="m9.056 7.81c-.55228474.00303756-1.00246242-.44221526-1.00549999-.9945-.00303756-.55228474.44221525-1.00246243.99449999-1.0055h.011c.55228475 0 1 .44771525 1 1s-.44771525 1-1 1z"/><path id="Shape" d="m14.945 8.852c.4848773-.00036157.8996315-.34851903.984-.826l.348-1.97c.0960975-.54400047-.2669995-1.06290243-.811-1.15899998-.5440005-.09609754-1.0629024.26699951-1.159.81099998l-.348 1.97c-.0461959.2613932.0134302.53042839.1657404.7478268.1523102.21739842.384806.36532045.6462596.4111732.0574769.00986969.115682.01488738.174.015z"/><path id="Shape" d="m13.265 11.617-3.126 17.727c-.0944039.5429791.2683038 1.059983.811 1.156.0577137.0107287.1162976.0160849.175.016.485194-.0004473.9000616-.3491216.984-.827l3.126-17.726c.0960975-.5440005-.2669995-1.0629024-.811-1.159-.5440005-.0960975-1.0629024.2669995-1.159.811z"/><path id="Shape" d="m46 49h-32c-1.1045695 0-2 .8954305-2 2v3c0 1.1045695.8954305 2 2 2h32c1.1045695 0 2-.8954305 2-2v-3c0-1.1045695-.8954305-2-2-2zm-32 5v-3h32v3z"/></g></g></g></svg>