<svg height="512" viewBox="0 0 60 53" width="512" xmlns="http://www.w3.org/2000/svg"><g id="Page-1" fill="none" fill-rule="evenodd"><g id="036---Open-Book" fill-rule="nonzero"><path id="Shape" d="m38 47.58v1.42c0 1.6568542-1.3431458 3-3 3h-10c-1.6568542 0-3-1.3431458-3-3v-1.42c-.0023724-.2395473.0417774-.4772775.13-.7.0557715-.1648044.136731-.3199769.24-.46.7790718-1.0251639 1.7900376-1.8510715 2.95-2.41 1.4607926-.6943778 3.0628518-1.0401213 4.68-1.01 1.6171482-.0301213 3.2192074.3156222 4.68 1.01 1.1599624.5589285 2.1709282 1.3848361 2.95 2.41.103269.1400231.1842285.2951956.24.46.0882226.2227225.1323724.4604527.13.7z" fill="#a4c2f7"/><path id="Shape" d="m37.87 46.88c-.0557715-.1648044-.136731-.3199769-.24-.46-.7790718-1.0251639-1.7900376-1.8510715-2.95-2.41-1.4607926-.6943778-3.0628518-1.0401213-4.68-1.01-.5014584.0004229-1.002412.031816-1.5.094 1.1039568.1243949 2.1790312.4340705 3.18.916 1.1599624.5589285 2.1709282 1.3848361 2.95 2.41.103269.1400231.1842285.2951956.24.46.0882226.2227225.1323724.4604527.13.7v1.42c0 1.6568542-1.3431458 3-3 3h3c1.6568542 0 3-1.3431458 3-3v-1.42c.0023724-.2395473-.0417774-.4772775-.13-.7z" fill="#7facfa"/><path id="Shape" d="m25.32 44.01c-1.1599624.5589285-2.1709282 1.3848361-2.95 2.41-.103269.1400231-.1842285.2951956-.24.46l-20.86-36.75c-.51225302-1.00125761-.14473333-2.22833805.8335773-2.78316079.97831063-.55482275 2.22005607-.24039404 2.8164227.71316079l.23.41z" fill="#a4c2f7"/><path id="Shape" d="m58.73 10.13-20.86 36.75c-.0557715-.1648044-.136731-.3199769-.24-.46-.7790718-1.0251639-1.7900376-1.8510715-2.95-2.41l20.17-35.54.23-.41c.5963666-.95355483 1.8381121-1.26798354 2.8164227-.71316079.9783106.55482274 1.3458303 1.78190318.8335773 2.78316079z" fill="#a4c2f7"/><path id="Shape" d="m57.94 7.27c-.8306991-.46902046-1.8734057-.31730172-2.536.369.6500011.66570102.7828025 1.68045035.326 2.491l-19.7 34.708c.6060202.4483653 1.1448073.9810911 1.6 1.582.103269.1400231.1842285.2951956.24.46l20.86-36.75c.5704649-1.00806178.2170058-2.28767313-.79-2.86z" fill="#7facfa"/><path id="Shape" d="m30 43c-1.6171482-.0301213-3.2192074.3156222-4.68 1.01l-20.17-35.54 10.83-5c.2595927-.11967394.5579899-.12253506.8198295-.00786075.2618397.11467431.4620878.33592022.5501705.60786075z" fill="#e8edfc"/><path id="Shape" d="m54.85 8.47-20.17 35.54c-1.4607926-.6943778-3.0628518-1.0401213-4.68-1.01l12.65-38.93c.0880827-.27194053.2883308-.49318644.5501705-.60786075.2618396-.11467431.5602368-.11181319.8198295.00786075z" fill="#e8edfc"/><path id="Shape" d="m2.06 7.27c-1.00700579.57232687-1.36046487 1.85193822-.79 2.86l20.86 36.75c-.172443.6927968-.2165037 1.4113244-.13 2.12 0 1.6568542 1.3431458 3 3 3h3c-1.6568542 0-3-1.3431458-3-3-.0865037-.7086756-.042443-1.4272032.13-2.12l-20.86-36.75c-.45576732-.81140942-.32132376-1.82625459.33-2.491-.66322102-.68828734-1.70834562-.84011844-2.54-.369z" fill="#fff"/><path id="Rectangle-path" d="m2.245 9.608h2v8h-2z" fill="#fff" transform="matrix(.87 -.494 .494 .87 -6.295 3.375)"/><g fill="#428dff"><path id="Shape" d="m3.264 14.609c-.55228475.0027614-1.00223858-.4427153-1.005-.995s.44271525-1.0022386.995-1.005h.01c.55228475 0 1 .4477153 1 1s-.44771525 1-1 1z"/><path id="Shape" d="m.4 10.621c.17541741.311357.50361673.5054786.86096847.5092411.35735174.0037626.68956567-.1834056.8715-.491.18193434-.3075944.18594893-.68888414.01053153-1.0002411-.22968037-.34242822-.2485732-.78454814-.0489423-1.14532184s.58425774-.57960962.99638467-.56689951c.41212694.01271012.78253771.25483163.95955763.62722135l19.908 35.083c-.6283142.3959991-1.2067905.866032-1.723 1.4l-16.146-28.443c-.27255253-.4804877-.88301227-.6490525-1.36349999-.3765-.48048773.2725525-.64905252.8830123-.37650001 1.3635l16.709 29.437c-.0370141.1864342-.0564328.3759334-.058.566v1.416c0 2.209139 1.790861 4 4 4h10c2.209139 0 4-1.790861 4-4v-1.416c-.0015672-.1900666-.0209859-.3795658-.058-.566l20.66-36.4c.8049788-1.41005239.382208-3.20254146-.968021-4.10427333-1.3502289-.90173186-3.1679203-.60550463-4.161979.67827333l-5.251-2.422h-.005l-4.771-2.2c-.5151314-.2375625-1.1069122-.24519604-1.628-.021-.5275674.22702523-.9336965.66769528-1.117 1.212l-10.7 32.925v-35.686c0-.55228475-.4477153-1-1-1s-1 .44771525-1 1v35.686l-10.7-32.932c-.1816153-.54332243-.5854907-.98391373-1.111-1.212-.5202198-.2246786-1.1114639-.21740622-1.626.02l-4.772 2.2h-.006-.006l-5.252 2.438c-.99962853-1.26239514-2.80078179-1.54626432-4.14022729-.6525169-1.33944549.89374743-1.76872842 2.66587918-.98677271 4.0735169zm36.6 38.379c0 1.1045695-.8954305 2-2 2h-10c-1.1045695 0-2-.8954305-2-2v-1.416c-.0031948-.2044623.0591862-.4045719.178-.571.668-.906 2.668-3.013 6.822-3.013 4.152 0 6.152 2.107 6.819 3.012.1194375.1665503.1821892.3670753.179.572zm20.449-40.859c.524612.30067008.7081832.96840494.411 1.495l-20.095 35.4c-.516203-.5339751-1.0946801-1.0040088-1.723-1.4l19.909-35.084c.3007551-.52639796.970725-.71021482 1.498-.411zm-13.849-3.763 3.894 1.8-2.409 5.418c-.1077098.242404-.1146977.5176707-.0194258.7652275s.2849968.4471189.5274258.5547725c.1281677.0565677.2669093.0852023.407.084.3956522.0004458.7543653-.2324237.915-.594l2.4-5.392 4.13 1.907-19.196 33.821c-.9330213-.349438-1.9081286-.5740489-2.9-.668zm-27.2 0 12.249 37.7c-.9918677.0939742-1.9669719.3185844-2.9.668l-19.19-33.825 4.13-1.906 2.4 5.391c.1600448.3602522.5167986.5928667.911.594.1395619.0002893.2775985-.0290222.405-.086.242429-.1076536.4321539-.3072157.5274258-.5547725s.088284-.5228235-.0194258-.7652275l-2.408-5.418z"/></g></g></g></svg>