<svg height="512" viewBox="0 0 60 54" width="512" xmlns="http://www.w3.org/2000/svg"><g id="Page-1" fill="none" fill-rule="evenodd"><g id="037---Book-Stack" fill-rule="nonzero"><path id="Shape" d="m58.97 43.72c-.475624 5.3041637-4.9549859 9.34779-10.28 9.28h-45.69c-.53059053.0028231-1.0395388-.2101411-1.41-.59-.3798589-.3704612-.59282307-.8794095-.59-1.41.0032948-1.1032019.89679813-1.9967052 2-2h45.75c3.4262896.0232828 6.2235866-2.7337331 6.25-6.16-.0934847-3.2480963-2.7505636-5.8343198-6-5.84h-17v-4h17c2.7765447.0011235 5.4276312 1.156579 7.3185341 3.1897262 1.8909028 2.0331473 2.8513774 4.7609351 2.6514659 7.5302738z" fill="#a4c2f7"/><path id="Shape" d="m56.07 35.93c-1.8729903-1.8783897-4.4173726-2.9328508-7.07-2.93h-3c2.7765447.0011235 5.4276312 1.156579 7.3185341 3.1897262 1.8909028 2.0331473 2.8513774 4.7609351 2.6514659 7.5302738-.475624 5.3041637-4.9549859 9.34779-10.28 9.28h3c5.3250141.06779 9.804376-3.9758363 10.28-9.28.2167646-2.8954895-.8425858-5.7411239-2.9-7.79z" fill="#7facfa"/><path id="Shape" d="m20 33v4.0000277l-17-.0000277c-.53059053.0028231-1.0395388-.2101411-1.41-.59-.3798589-.3704612-.59282307-.8794095-.59-1.41.0032948-1.1032019.89679813-1.9967052 2-2z" fill="#a4c2f7"/><path id="Shape" d="m55 42.84c-.0264134 3.4262669-2.8237104 6.1832828-6.25 6.16h-43.96c.82126739-1.8925033 1.23359754-3.9371156 1.21-6 .02359754-2.0628844-.38873261-4.1074967-1.21-6h15.21v7c.0010489.3465932.1814922.6679286.4768822.8492369.2953899.1813084.6635996.1967323.9731178.0407631l4.1-2.05c.2836743-.1399671.6163257-.1399671.9 0l4.1 2.05c.3095182.1559692.6777279.1405453.9731178-.0407631.29539-.1813083.4758333-.5026437.4768822-.8492369v-7h17c3.2494364.0056802 5.9065153 2.5919037 6 5.84z" fill="#e8edfc"/><path id="Shape" d="m58 18c-.0032948 1.1032019-.8967981 1.9967052-2 2h-38.5c-2.4852813.0000001-4.4999999 2.0147187-4.4999999 4.5s2.0147186 4.4999999 4.4999999 4.5h2.5v4h-2.5c-4.6944204 0-8.5-3.8055796-8.5-8.5s3.8055796-8.5 8.5-8.5h38.5c1.1032019.0032948 1.9967052.8967981 2 2z" fill="#a4c2f7"/><path id="Shape" d="m56 16h-3c1.1045695 0 2 .8954305 2 2s-.8954305 2-2 2h3c1.1045695 0 2-.8954305 2-2s-.8954305-2-2-2z" fill="#7facfa"/><path id="Shape" d="m58 31c-.0032948 1.1032019-.8967981 1.9967052-2 2h-24v-4h24c1.1032019.0032948 1.9967052.8967981 2 2z" fill="#a4c2f7"/><path id="Shape" d="m56 29h-3c1.1045695 0 2 .8954305 2 2s-.8954305 2-2 2h3c1.1045695 0 2-.8954305 2-2s-.8954305-2-2-2z" fill="#7facfa"/><path id="Shape" d="m55 29h-23v-3c0-.5522847-.4477153-1-1-1h-10c-.5522847 0-1 .4477153-1 1v3h-2.5c-2.4852814 0-4.5-2.0147186-4.5-4.5s2.0147186-4.5 4.5-4.5h37.5c-1.1 0-2 2.01-2 4.5s.9 4.5 2 4.5z" fill="#e8edfc"/><path id="Shape" d="m53 24.5c0-2.49.9-4.5 2-4.5h-3c-1.1 0-2 2.01-2 4.5s.9 4.5 2 4.5h3c-1.1 0-2-2.01-2-4.5z" fill="#cad9fc"/><path id="Shape" d="m32 26v18c-.0010489.3465932-.1814922.6679286-.4768822.8492369-.2953899.1813084-.6635996.1967323-.9731178.0407631l-4.1-2.05c-.2836743-.1399671-.6163257-.1399671-.9 0l-4.1 2.05c-.3095182.1559692-.6777279.1405453-.9731178-.0407631-.29539-.1813083-.4758333-.5026437-.4768822-.8492369v-18c0-.5522847.4477153-1 1-1h10c.5522847 0 1 .4477153 1 1z" fill="#e8edfc"/><path id="Shape" d="m46 8.5c0 4.1421356-3.3578644 7.5-7.5 7.5h-27.5c-1.1045695 0-2-.8954305-2-2s.8954305-2 2-2h27.5c1.9329966 0 3.5-1.5670034 3.5-3.5 0-1.93299662-1.5670034-3.5-3.5-3.5h-27.5c-1.1045695 0-2-.8954305-2-2s.8954305-2 2-2h27.5c4.1421356 0 7.5 3.35786438 7.5 7.5z" fill="#a4c2f7"/><path id="Shape" d="m38.5 1h-3c4.1421356 0 7.5 3.35786438 7.5 7.5 0 4.1421356-3.3578644 7.5-7.5 7.5h3c4.1421356 0 7.5-3.3578644 7.5-7.5 0-4.14213562-3.3578644-7.5-7.5-7.5z" fill="#7facfa"/><path id="Shape" d="m42 8.5c0 1.9329966-1.5670034 3.5-3.5 3.5h-27c.83 0 1.5-1.57 1.5-3.5s-.67-3.5-1.5-3.5h27c1.9329966 0 3.5 1.56700338 3.5 3.5z" fill="#e8edfc"/><g fill="#fff"><path id="Shape" d="m11.5 12h-.5c-1.1045695 0-2 .8954305-2 2s.8954305 2 2 2h3c-1.1045695 0-2-.8954305-2-2s.8954305-2 2-2h.5c.83 0 1.5-1.57 1.5-3.5s-.67-3.5-1.5-3.5h-.5c-1.1045695 0-2-.8954305-2-2s.8954305-2 2-2h-3c-1.1045695 0-2 .8954305-2 2s.8954305 2 2 2h.5c.83 0 1.5 1.57 1.5 3.5s-.67 3.5-1.5 3.5z"/><path id="Shape" d="m12 24.5c.0033092-4.693049 3.806951-8.4966908 8.5-8.5h-3c-4.6944204 0-8.5 3.8055796-8.5 8.5s3.8055796 8.5 8.5 8.5h3c-4.693049-.0033092-8.4966908-3.806951-8.5-8.5z"/><path id="Shape" d="m4 51c.0032948-1.1032019.89679813-1.9967052 2-2h1.79c1.6135632-3.8372759 1.6135632-8.1627241 0-12h-1.79c-.53059053.0028231-1.0395388-.2101411-1.41-.59-.56846165-.5718399-.73793892-1.4291108-.42983461-2.1742425s1.03352322-1.2323721 1.83983461-1.2357575h-3c-.80631139.0033854-1.5317303.4906258-1.83983461 1.2357575s-.13862704 1.6024026.42983461 2.1742425c.3704612.3798589.87940947.5928231 1.41.59h1.79c1.6135632 3.8372759 1.6135632 8.1627241 0 12h-1.79c-1.1045695 0-2 .8954305-2 2s.8954305 2 2 2h3c-1.10342912-.0027483-1.99725172-.8965709-2-2z"/><path id="Shape" d="m13.093 30.556-1.178 1.615c-2.45109478-1.7885238-3.9047341-4.6367657-3.915-7.671h2c.0092129 2.395685 1.1575556 4.6441053 3.093 6.056z"/></g><path id="Shape" d="m55.31 34h.69c1.6568542 0 3-1.3431458 3-3s-1.3431458-3-3-3h-.983c-.284-.1-1.017-1.311-1.017-3.5s.739-3.412 1-3.5h1c1.6568542 0 3-1.3431458 3-3s-1.3431458-3-3-3h-12.034c2.7356767-2.2961713 3.7427117-6.05840629 2.519879-9.4141491s-4.4142793-5.58805119-7.985879-5.5858509h-27.5c-1.65685425 0-3 1.34314575-3 3s1.34314575 3 3 3h.4c.4628646.74745115.6732101 1.62389091.6 2.5.0732101.87610909-.1371354 1.7525488-.6 2.5h-.4c-1.65685425 0-3 1.3431458-3 3s1.34314575 3 3 3h.691c-2.32573069 1.7932415-3.68892462 4.5632102-3.691 7.5 0 .5522847.44771525 1 1 1s1-.4477153 1-1c.0044093-4.1403079 3.3596921-7.4955907 7.5-7.5h38.5c.5522847 0 1 .4477153 1 1s-.4477153 1-1 1h-38.5c-3.0375661 0-5.5 2.4624339-5.5 5.5s2.4624339 5.5 5.5 5.5h1.5v2h-1.5c-1.5843199-.0057904-3.1264609-.5110891-4.407-1.444-.4348293-.2818511-1.0095832-.2087391-1.36.173-.3277771.3637887-.3177244.9193085.023 1.271h-8.756c-1.65685425 0-3 1.3431458-3 3-.00643329.7920851.30898549 1.5528434.874 2.108.55792893.5739985 1.32553608.8960613 2.126.892h1.1c.60510354 1.5970899.91021486 3.2921528.9 5 .01021486 1.7078472-.29489646 3.4029101-.9 5h-1.1c-1.65685425 0-3 1.3431458-3 3-.00643329.7920851.30898549 1.5528434.874 2.108.55792893.5739985 1.32553608.8960613 2.126.892h45.69c5.8519381.0748418 10.7705763-4.3775356 11.277-10.208.2325623-3.1842023-.9318388-6.3120246-3.19-8.569-.452954-.4490576-.9437704-.8582386-1.467-1.223zm-41.688-28h24.878c1.3807119 0 2.5 1.11928813 2.5 2.5s-1.1192881 2.5-2.5 2.5h-24.878c.2621094-.8069975.3898112-1.65158571.378-2.5.0118112-.84841429-.1158906-1.6930025-.378-2.5zm3.878 9h-6.5c-.5522847 0-1-.4477153-1-1s.4477153-1 1-1h27.5c2.4852814 0 4.5-2.0147186 4.5-4.5 0-2.48528137-2.0147186-4.5-4.5-4.5h-27.5c-.5522847 0-1-.44771525-1-1s.4477153-1 1-1h27.5c3.5898509 0 6.5 2.91014913 6.5 6.5 0 3.5898509-2.9101491 6.5-6.5 6.5zm39.5 16c0 .5522847-.4477153 1-1 1h-23v-2h23c.5522847 0 1 .4477153 1 1zm-26 13-4.1-2.054c-.5638101-.2800314-1.2261899-.2800314-1.79 0l-4.11 2.054v-18h10v6.992.008.008 3.98.012.012zm-13.5-16c-1.9329966-.0000001-3.4999999-1.5670034-3.4999999-3.5s1.5670033-3.4999999 3.4999999-3.5h35.14c-.8533622 2.255309-.8533622 4.744691 0 7h-19.64v-2c0-1.1045695-.8954305-2-2-2h-10c-1.1045695 0-2 .8954305-2 2v2zm-15.213 7.694c-.18545144-.1830903-.2889672-.4334037-.287-.694 0-.5522847.44771525-1 1-1h16v2.000003l-16-.000003c-.26969182.0006712-.52769054-.1100548-.713-.306zm3.956 2.306h12.757v6c-.0006749.6946105.3591006 1.3398284.9503634 1.7043725.5912629.3645442 1.3293295.3962027 1.9496366.0836275l4.1-2.053 4.105 2.053c.6201427.3112495 1.357464.2779242 1.947-.088.5910663-.3623529.9503893-1.0067084.948-1.7v-6h16c2.7062333.0052834 4.9195523 2.1579576 5 4.863.0219181 1.3146793-.4917654 2.5817413-1.423 3.51-1.0066129 1.0325064-2.3850336 1.6185242-3.827 1.627h-42.507c.51039814-1.6172555.76579232-3.3041391.757-5 .00879232-1.6958609-.24660186-3.3827445-.757-5zm51.729 5.652c-.4308934 4.7838025-4.4794475 8.4249713-9.282 8.348h-45.69c-.26969182.0006712-.52769054-.1100548-.713-.306-.18545144-.1830903-.2889672-.4334037-.287-.694 0-.5522847.44771525-1 1-1h45.75c1.9804619-.0097762 3.8743602-.8130081 5.258-2.23 1.3094158-1.3129766 2.0285092-3.1020463 1.992-4.956-.108108-3.7899728-3.2084904-6.8079737-7-6.814h-16v-2h16c2.499464.0012086 4.8858544 1.0417828 6.5875777 2.8724821 1.7017233 1.8306992 2.5654949 4.2866211 2.3844223 6.7795179z" fill="#428dff"/><path id="Shape" d="m9.938 29.373c-.55228473.0024853-1.00201466-.4432153-1.00449994-.9955-.00248529-.5522847.44321521-1.0020147.99549994-1.0045h.009c.5522847 0 1 .4477153 1 1s-.4477153 1-1 1z" fill="#428dff"/></g></g></svg>