<svg height="512" viewBox="0 0 60 58" width="512" xmlns="http://www.w3.org/2000/svg"><g id="Page-1" fill="none" fill-rule="evenodd"><g id="038---Recycle-Book" fill-rule="nonzero" transform="translate(-1)"><path id="Shape" d="m56.95 28h2.55c.189386 0 .3625176.1070012.4472136.2763932s.066418.372098-.0472136.5236068l-5.09 7.78c-.1856499.2633805-.4877653.4200525-.81.4200525s-.6243501-.156672-.81-.4200525l-5.09-7.78c-.1136316-.1515088-.1319096-.3542148-.0472136-.5236068s.2578276-.2763932.4472136-.2763932h2.44c-.6956031-10.0979735-8.3339786-18.34646401-18.3488613-19.81447585-10.0148826-1.46801183-19.6992295 4.24126155-23.26368164 13.71478325-3.56445216 9.4735218-.04553105 20.1505799 8.45313184 25.648367 8.4986629 5.497787 19.6798618 4.3302401 26.8594111-2.8046744 1.0667727-1.0393898 2.7384201-1.1279114 3.909-.207.6832624.5277535 1.1060375 1.3242868 1.1602255 2.1859335.054188.8616466-.2654646 1.7048704-.8772255 2.3140665-9.21455 9.1140262-23.54318 10.5540715-34.3870718 3.4559438-10.84389174-7.0981277-15.25705287-20.8060589-10.59108148-32.8974656 4.66597138-12.09140678 17.14345688-19.28138056 29.94453688-17.25511406 12.8010801 2.0262665 22.448047 12.71829136 23.1516164 25.65963586z" fill="#e8edfc"/><path id="Shape" d="m59.5 28h-2.55c-.8052713-14.5756874-12.8520915-25.98615464-27.45-26-.51 0-1.017.014-1.521.042 14.0080944.76775657 25.1962299 11.9502918 25.971 25.958h2.55c.189386 0 .3625176.1070012.4472136.2763932s.066418.372098-.0472136.5236068l-4.4 6.725.69 1.055c.1856499.2633805.4877653.4200525.81.4200525s.6243501-.156672.81-.4200525l5.09-7.78c.1136316-.1515088.1319096-.3542148.0472136-.5236068s-.2578276-.2763932-.4472136-.2763932z" fill="#cad9fc"/><path id="Shape" d="m48.549 44.537c-.9645615-.7501233-2.2888209-.8368756-3.343-.219.1192124.0650611.2338154.1382333.343.219.6832624.5277535 1.1060375 1.3242868 1.1602255 2.1859335.054188.8616466-.2654646 1.7048704-.8772255 2.3140665-4.7786033 4.7422522-11.1351455 7.5603027-17.858 7.917 7.7607434.4380159 15.3424895-2.4397616 20.858-7.917.6117609-.6091961.9314135-1.4524199.8772255-2.3140665-.054188-.8616467-.4769631-1.65818-1.1602255-2.1859335z" fill="#cad9fc"/><path id="Shape" d="m43 21.66v16.68c-.0049196.9147472-.7452528 1.6550804-1.66 1.66h-24.68c-.9147472-.0049196-1.6550804-.7452528-1.66-1.66v-16.68c.0049196-.9147472.7452528-1.6550804 1.66-1.66h2.34v15.64c.0014602.1439325.0648791.2802538.1740311.3740862.1091521.0938325.2534476.1360728.3959689.1159138 6.59-.76 9.43 2.07 9.43 2.07s2.84-2.83 9.43-2.07c.1425213.020159.2868168-.0220813.3959689-.1159138.109152-.0938324.1725709-.2301537.1740311-.3740862v-15.64h2.34c.9147472.0049196 1.6550804.7452528 1.66 1.66z" fill="#a4c2f7"/><path id="Shape" d="m41.34 20h-2.34v.141c.6046669.2637004.9967938.8593413 1 1.519v16.68c-.0049196.9147472-.7452528 1.6550804-1.66 1.66h3c.9147472-.0049196 1.6550804-.7452528 1.66-1.66v-16.68c-.0049196-.9147472-.7452528-1.6550804-1.66-1.66z" fill="#7facfa"/><path id="Shape" d="m39 18.44v17.2c-.0014602.1439325-.0648791.2802538-.1740311.3740862-.1091521.0938325-.2534476.1360728-.3959689.1159138-6.59-.76-9.43 2.07-9.43 2.07s-2.84-2.83-9.43-2.07c-.1425213.020159-.2868168-.0220813-.3959689-.1159138-.109152-.0938324-.1725709-.2301537-.1740311-.3740862v-17.2c.0008398-.2533058.1888567-.4669613.44-.5 6.69-.81 9.56 2.06 9.56 2.06s2.87-2.87 9.56-2.06c.2511433.0330387.4391602.2466942.44.5z" fill="#e8edfc"/><path id="Shape" d="m30.949 56.955c-14.5636647-.8280674-25.94687911-12.8834943-25.93890986-27.4706791s11.40434906-26.63016678 25.96890986-27.4423209c-.49-.026-.979-.042-1.479-.042-10.0260062-.04340869-19.2811087 5.373091-24.15345161 14.1356796-4.87234293 8.7625885-4.58969197 19.4824533.73764678 27.9761065 5.32733873 8.4936533 14.85501703 13.4149069 24.86480483 12.8432139z" fill="#fff"/><path id="Shape" d="m5.185 40-1.834.8c-1.09943393-2.543319-1.82754732-5.2314786-2.162-7.982l1.987-.226c.31211589 2.5526701.98866814 5.0473934 2.009 7.408z" fill="#fff"/><g fill="#428dff"><path id="Shape" d="m2.966 37.634c-.55228473.0027614-1.00223852-.4427153-1.00499994-.995-.00276143-.5522847.44271521-1.0022385.99499994-1.005h.01c.55228475 0 1 .4477153 1 1s-.44771525 1-1 1z"/><path id="Shape" d="m47.155 27.834c-.250294.4847394-.2086082 1.0687269.108 1.513l5.113 7.814c.3927778.5083087 1.0011124.8031131 1.6434577.7964343s1.2444187-.3140685 1.6265423-.8304343l5.054-7.727c.3408949-.4545265.3957288-1.0626444.1416408-1.5708204s-.7734827-.8291796-1.3416408-.8291796h-1.617c-.8767305-10.2603102-7.220174-19.24969199-16.5932263-23.51449119-9.3730523-4.26479919-20.3177668-3.14164067-28.6292649 2.93796634-8.31149813 6.07960705-12.69695436 16.17000015-11.4715088 26.39452485.0261609.2661006.15916455.5102012.36857978.6764517.20941522.1662504.47732087.2404234.74242022.2055483.54868395-.0627041.94266263-.5583113.88-1.107-.90986646-7.5280404 1.47819614-15.0819746 6.55-20.719 7.1342353-8.01506354 18.4002037-10.93239048 28.5279399-7.38732126 10.1277363 3.54506922 17.1149024 12.85164486 17.6930601 23.56632126.0282078.5314846.467768.947748 1 .947h1.629l-4.552 7.033-4.605-7.033h1.517c.277616.0006617.5430133-.1141131.7326659-.3168518.1896527-.2027387.2864904-.4751931.2673341-.7521482-.72762-10.5677601-8.7211077-19.20020803-19.2018525-20.73675441-10.4807447-1.53654639-20.6157357 4.43814681-24.34614399 14.35233061-3.73040826 9.9141837-.04788109 21.0879922 8.84611899 26.8415778 8.8940001 5.7535856 20.5953694 4.5317182 28.1088775-2.935154.7103097-.6850727 1.8180414-.738514 2.591-.125.4575569.3563875.7389694.8929669.772 1.472.0386598.5697238-.1735761 1.1278932-.581 1.528-5.6361057 5.589867-13.483713 8.3546445-21.379 7.532-2.3233618-.2664915-4.6051457-.8176259-6.794-1.641-2.1770656-.8596919-4.2345924-1.9956672-6.122-3.38-1.8916974-1.3819961-3.5868665-3.014593-5.039-4.853-.73009723-.9135702-1.404966-1.8699404-2.021-2.864-.59171205-1.0079051-1.12233467-2.05045-1.589-3.122-.23753709-.4894005-.81106795-.7143743-1.318-.517-.25055387.0972743-.44892167.2950297-.54697025.5452816s-.0868167.5301283.03097025.7717184c.50138171 1.1534417 1.07209105 2.2754917 1.709 3.36.66188826 1.0690902 1.38718567 2.0975966 2.172 3.08 1.56099664 1.9747989 3.3825956 3.7287817 5.415 5.214 2.0293117 1.4896121 4.2422223 2.7113511 6.584 3.635 2.3565189.8880804 4.8138437 1.481251 7.316 1.766.9706335.0970936 1.9455226.1454876 2.921.145 7.5163464.0076276 14.7304084-2.9589563 20.067-8.252 1.5395515-1.5531057 1.5464534-4.0547123.0154954-5.6162896-1.5309581-1.5615772-4.032211-1.6042085-5.6154954-.0957104-6.7673252 6.7144389-17.2714564 7.8743579-25.3407528 2.7982535-8.0692963-5.0761044-11.57149388-15.0469016-8.448897-24.054108 3.122597-9.0072065 12.0448606-14.67072098 21.5245671-13.66297876 9.4797065 1.00774226 17.0118993 8.42045126 18.1710827 17.88283326h-1.341c-.5704442-.000365-1.0917228.3228666-1.345.834z"/><path id="Shape" d="m38.677 16.949c-5.284-.645-8.386.9-9.678 1.784-1.292-.883-4.394-2.427-9.675-1.784-.7563688.0893626-1.3257064.7313724-1.324 1.493v.558h-1.34c-1.4683921.0016533-2.6583467 1.1916079-2.66 2.66v16.68c.0016533 1.4683921 1.1916079 2.6583467 2.66 2.66h24.68c1.4683921-.0016533 2.6583467-1.1916079 2.66-2.66v-16.68c-.0016533-1.4683921-1.1916079-2.6583467-2.66-2.66h-1.34v-.558c.0017658-.7612885-.5670279-1.4031698-1.323-1.493zm-.677 1.937v16.2c-2.7330709-.3455409-5.508024.094636-8 1.269v-15.886c.813-.598 3.312-2.048 8-1.583zm-18 0c4.693-.467 7.2.989 8 1.583v15.881c-2.4918609-1.1747376-5.2669229-1.6149318-8-1.269zm-4 19.454v-16.68c.0048445-.3624823.2975177-.6551555.66-.66h1.34v14.639c.0011542.4286541.1856439.8363347.5068987 1.1201321.3212549.2837975.748578.4165939 1.1741013.3648679 4.9-.568 7.492.938 8.319 1.55v.326h-11.34c-.3624823-.0048445-.6551555-.2975177-.66-.66zm25.34-17.34c.3624823.0048445.6551555.2975177.66.66v16.68c-.0048445.3624823-.2975177.6551555-.66.66h-11.34v-.326c.828-.613 3.416-2.118 8.319-1.55.4286085.0490989.8579044-.0861238 1.181-.372.3168461-.2833914.4985713-.6879117.5-1.113v-14.639z"/></g></g></g></svg>