<svg height="512" viewBox="0 0 60 60" width="512" xmlns="http://www.w3.org/2000/svg"><g id="Page-1" fill="none" fill-rule="evenodd"><g id="039---Book-Shopping" fill-rule="nonzero" transform="translate(-1 -1)"><path id="Shape" d="m14.077 60h33.846c1.9537291.0000786 3.6216578-1.4112132 3.945-3.338l3.132-18.662h-48l3.132 18.662c.3233422 1.9267868 1.9912709 3.3380786 3.945 3.338z" fill="#e8edfc"/><path id="Shape" d="m52 38-3.132 18.662c-.3233422 1.9267868-1.9912709 3.3380786-3.945 3.338h3c1.9537291.0000786 3.6216578-1.4112132 3.945-3.338l3.132-18.662z" fill="#cad9fc"/><path id="Shape" d="m58 31v5c-.0032948 1.1032019-.8967981 1.9967052-2 2h-50c-1.10320187-.0032948-1.9967052-.8967981-2-2v-5c.0032948-1.1032019.89679813-1.9967052 2-2h7.65l2.03 3.51c.8284271 1.4359403 2.6640596 1.9284271 4.1 1.1 1.4359403-.8284272 1.9284271-2.6640597 1.1-4.1l-.29-.51h20.82l-.29.51c-.8284271 1.4359403-.3359403 3.2715728 1.1 4.1 1.4359404.8284271 3.2715729.3359403 4.1-1.1l2.03-3.51h7.65c1.1032019.0032948 1.9967052.8967981 2 2z" fill="#e8edfc"/><path id="Shape" d="m56 29h-3c1.1032019.0032948 1.9967052.8967981 2 2v5c-.0032948 1.1032019-.8967981 1.9967052-2 2h3c1.1032019-.0032948 1.9967052-.8967981 2-2v-5c-.0032948-1.1032019-.8967981-1.9967052-2-2z" fill="#cad9fc"/><rect id="Rectangle-path" fill="#7facfa" height="4" rx="2" width="36" x="13" y="43"/><rect id="Rectangle-path" fill="#7facfa" height="4" rx="2" width="32" x="15" y="51"/><path id="Shape" d="m19.78 33.6c-1.4331915.8310947-3.268754.3431037-4.1-1.09l-2.03-3.51-11.25-19.5c-.82842712-1.43594035-.33594035-3.27157288 1.1-4.1s3.27157288-.33594035 4.1 1.1l12.99 22.5.29.51c.399173.6876213.5075232 1.5060796.3010238 2.2738817-.2064993.7678022-.7107822 1.4214936-1.4010238 1.8161183z" fill="#e8edfc"/><path id="Shape" d="m59.6 9.5-11.25 19.5-2.03 3.51c-.8284271 1.4359403-2.6640596 1.9284271-4.1 1.1-1.4359403-.8284272-1.9284271-2.6640597-1.1-4.1l.29-.51 12.99-22.5c.5358984-.92889058 1.5266461-1.50132249 2.5990381-1.50166615 1.072392-.00034367 2.0635065.57145312 2.6000001 1.50000003.5364936.92854692.5368602 2.07277558.0009618 3.00166612z" fill="#e8edfc"/><path id="Shape" d="m58.5 5.4c-.926014-.53606729-2.067986-.53606729-2.994 0 1.4312419.83241023 1.9202878 2.66521476 1.094 4.1l-11.25 19.5-2.03 3.51c-.2664482.4533701-.6489047.8275423-1.108 1.084l.008.006c1.4331915.8310947 3.268754.3431037 4.1-1.09l2.03-3.51 11.25-19.5c.8252757-1.43635279.3334186-3.26963838-1.1-4.1z" fill="#cad9fc"/><path id="Shape" d="m45 6.16v16.18c-.0049196.9147472-.7452528 1.6550804-1.66 1.66h-24.68c-.9147472-.0049196-1.6550804-.7452528-1.66-1.66v-16.18c.0049196-.91474718.7452528-1.65508043 1.66-1.66h2.34v15.14c.0014602.1439325.0648791.2802538.1740311.3740862.1091521.0938325.2534476.1360728.3959689.1159138 6.59-.76 9.43 2.07 9.43 2.07s2.84-2.83 9.43-2.07c.1425213.020159.2868168-.0220813.3959689-.1159138.109152-.0938324.1725709-.2301537.1740311-.3740862v-15.14h2.34c.9147472.00491957 1.6550804.74525282 1.66 1.66z" fill="#a4c2f7"/><path id="Shape" d="m41 2.65v16.99c-.0014602.1439325-.0648791.2802538-.1740311.3740862-.1091521.0938325-.2534476.1360728-.3959689.1159138-6.59-.76-9.43 2.07-9.43 2.07s-2.84-2.83-9.43-2.07c-.1425213.020159-.2868168-.0220813-.3959689-.1159138-.109152-.0938324-.1725709-.2301537-.1740311-.3740862v-16.99c-.0018369-.25431284.1875175-.4694883.44-.5 6.69-.82 9.56 2.05 9.56 2.05s2.87-2.87 9.56-2.05c.2524825.0305117.4418369.24568716.44.5z" fill="#e8edfc"/><path id="Shape" d="m9 29h-3c-1.10320187.0032948-1.9967052.8967981-2 2v5c.0032948 1.1032019.89679813 1.9967052 2 2h1l3.132 18.662c.3233422 1.9267868 1.9912709 3.3380786 3.945 3.338h3c-1.9537291.0000786-3.6216578-1.4112132-3.945-3.338l-3.132-18.662h-1c-1.10320187-.0032948-1.9967052-.8967981-2-2v-5c.0032948-1.1032019.89679813-1.9967052 2-2z" fill="#fff"/><path id="Shape" d="m13.65 29h3l-11.25-19.5c-.825113-1.43493969-.33630022-3.26687057 1.094-4.1-1.1761182-.67635396-2.6597811-.47918294-3.61842937.48087028-.95864827.96005323-1.15364627 2.44400329-.47557063 3.61912972z" fill="#fff"/><path id="Rectangle-path" d="m6.662 37.945h2v8h-2z" fill="#fff" transform="matrix(.986 -.165 .165 .986 -6.836 1.846)"/><g fill="#428dff"><path id="Shape" d="m7.682 42.945c-.55228473.0027614-1.00223852-.4427153-1.00499994-.995-.00276143-.5522847.44271521-1.0022385.99499994-1.005h.01c.55228475 0 1 .4477153 1 1s-.44771525 1-1 1z"/><path id="Shape" d="m50 45c0-1.6568542-1.3431458-3-3-3h-32c-1.6568542 0-3 1.3431458-3 3s1.3431458 3 3 3h32c1.6568542 0 3-1.3431458 3-3zm-3 1h-32c-.5522847 0-1-.4477153-1-1s.4477153-1 1-1h32c.5522847 0 1 .4477153 1 1s-.4477153 1-1 1z"/><path id="Shape" d="m17 50c-1.6568542 0-3 1.3431458-3 3s1.3431458 3 3 3h28c1.6568542 0 3-1.3431458 3-3s-1.3431458-3-3-3zm29 3c0 .5522847-.4477153 1-1 1h-28c-.5522847 0-1-.4477153-1-1s.4477153-1 1-1h28c.5522847 0 1 .4477153 1 1z"/><path id="Shape" d="m59 4.536c-.9188055-.53072648-2.0108351-.67464247-3.0357681-.40007669-1.0249331.27456578-1.8987788.94511333-2.4292319 1.86407669l-7.535 13.052v-12.892c-.0016533-1.46839208-1.1916079-2.65834671-2.66-2.66h-1.34v-.854c-.0008705-.76047905-.5682102-1.40114832-1.323-1.494-5.287-.644-8.386.9-9.677 1.785-1.293-.884-4.393-2.429-9.678-1.785-.7543931.09331501-1.3211921.73385787-1.322 1.494v.854h-1.34c-1.4683921.00165329-2.6583467 1.19160792-2.66 2.66v12.892l-7.535-13.052c-1.10456952-1.91339048-3.55110947-2.56906944-5.46449997-1.46449995s-2.56906949 3.55110944-1.46450003 5.46449995l10.392 18h-5.928c-1.65685425 0-3 1.3431458-3 3v5c0 1.6568542 1.34314575 3 3 3h47.818l-2.936 17.5c-.2405923 1.4457588-1.4933651 2.5042015-2.959 2.5h-33.846c-1.4656349.0042015-2.7184077-1.0542412-2.959-2.5l-1.808-10.776c-.05266593-.3582647-.29489844-.6600666-.63327753-.789012-.33837909-.1289455-.72002983-.0648854-.99776385.1674745-.27773403.2323599-.40815277.5967113-.34095862.9525375l1.808 10.771c.39773773 2.4122641 2.4861736 4.1800863 4.931 4.174h33.846c2.4441841.0062465 4.5323865-1.7605311 4.931-4.172l2.992-17.828h.154c1.6568542 0 3-1.3431458 3-3v-5c0-1.6568542-1.3431458-3-3-3h-5.928l10.392-18c1.100971-1.91358678.4462342-4.35722223-1.464-5.464zm-15.66.964c.3624823.00484451.6551555.29751769.66.66v16.18c-.0048445.3624823-.2975177.6551555-.66.66h-11.34v-.327c.828-.612 3.416-2.116 8.319-1.549.4286701.0497446.8582239-.0855594 1.181-.372.3168461-.2833914.4985713-.6879117.5-1.113v-14.139zm-3.34-2.411v15.992c-2.7330709-.3455409-5.508024.094636-8 1.269v-15.678c.8-.591 3.3-2.05 8-1.583zm-18 0c4.7-.465 7.2.989 8 1.583v15.68c-2.4919083-1.1746205-5.2667458-1.6154728-8-1.271zm-4 3.071c.0048445-.36248231.2975177-.65515549.66-.66h1.34v14.139c.0011542.4286541.1856439.8363347.5068987 1.1201321.3212549.2837975.748578.4165939 1.1741013.3648679 4.9-.569 7.492.937 8.319 1.55v.326h-11.34c-.3624823-.0048445-.6551555-.2975177-.66-.66zm24.566 18.84-1.732 3h-19.668l-1.732-3zm-38.566-18.731c.95629879-.55242645 2.1793566-.22517343 2.732.731l13.283 23.006c.2651215.4594789.3368385 1.0054639.1993714 1.5178242s-.4728556.9491182-.9323714 1.2141758c-.9563377.551578-2.178727.2239365-2.731-.732l-13.282-23.006c-.5517459-.95607593-.22457358-2.17838454.731-2.731zm52 23.731c.5522847 0 1 .4477153 1 1v5c0 .5522847-.4477153 1-1 1h-50c-.55228475 0-1-.4477153-1-1v-5c0-.5522847.44771525-1 1-1h7.083l1.735 3.006c.5287192.9203707 1.4031705 1.5914195 2.429 1.864.3398776.0908873.6901801.1369443 1.042.137 1.2363873-.0015565 2.4020563-.5767675 3.1554602-1.5570932s1.0092373-2.2547672.6925398-3.4499068h17.726c-.3166975 1.1951396-.0608641 2.4695811.6925398 3.4499068s1.9190729 1.5555367 3.1554602 1.5570932c.3518199-.0000557.7021224-.0461127 1.042-.137 1.0258295-.2725805 1.9002808-.9436293 2.429-1.864l1.735-3.006zm2.731-21-13.282 23.006c-.5560115.9484272-1.7732941 1.2702572-2.7253886.7205491-.9520945-.5497082-1.281992-1.7648292-.7386114-2.7205491l13.283-23.006c.5643418-.92966747 1.7681241-1.23799432 2.7098944-.69408998.9417704.54390433 1.276313 1.74066596.7531056 2.69408998z"/></g></g></g></svg>