<svg height="512" viewBox="0 0 60 60" width="512" xmlns="http://www.w3.org/2000/svg"><g id="Page-1" fill="none" fill-rule="evenodd"><g id="042---Science-Book" fill-rule="nonzero"><path id="Shape" d="m43 44v12c0 1.6568542-1.3431458 3-3 3h-33c-3.31370843-.0000001-5.99999982-2.6862916-5.99999982-6s2.68629139-5.9999999 5.99999982-6h33c1.6568542 0 3-1.3431458 3-3z" fill="#e8edfc"/><path id="Shape" d="m43 4v40c0 1.6568542-1.3431458 3-3 3h-33c-3.3137085 0-6 2.6862915-6 6v-46c0-3.3137085 2.6862915-6 6-6h33c1.6568542 0 3 1.34314575 3 3z" fill="#e8edfc"/><rect id="Rectangle-path" fill="#fff" height="5" rx="1" width="26" x="12" y="37"/><path id="Shape" d="m53 1c3.3137085 0 6 2.6862915 6 6v2h-12v-2c0-3.3137085 2.6862915-6 6-6z" fill="#a4c2f7"/><path id="Shape" d="m53 1c-.5064496.00291083-1.0104803.07011491-1.5.2 2.6456983.68311274 4.4956841 3.06753882 4.5 5.8v2h3v-2c0-3.3137085-2.6862915-6-6-6z" fill="#7facfa"/><circle id="Oval" cx="25" cy="19" fill="#e8edfc" r="2"/><path id="Shape" d="m58.98 44c-.0172674.0686373-.0406958.1355756-.07.2l-5.91 12.8-5.91-12.8c-.0293042-.0644244-.0527326-.1313627-.07-.2z" fill="#a4c2f7"/><path id="Shape" d="m55.98 44c-.0172674.0686373-.0406958.1355756-.07.2l-4.41 9.551 1.5 3.249 5.91-12.8c.0293042-.0644244.0527326-.1313627.07-.2z" fill="#7facfa"/><path id="Shape" d="m59 9v34.78c-.0012503.0737252-.0079351.1472579-.02.22h-11.96c-.0120649-.0727421-.0187497-.1462748-.02-.22v-34.78z" fill="#e8edfc"/><path id="Shape" d="m56 9v34.78c-.0012503.0737252-.0079351.1472579-.02.22h3c.0120649-.0727421.0187497-.1462748.02-.22v-34.78z" fill="#cad9fc"/><path id="Shape" d="m51 9h4v16c0 1.1045695-.8954305 2-2 2s-2-.8954305-2-2z" fill="#a4c2f7"/><path id="Shape" d="m10 59c-3.3137085 0-6-2.6862915-6-6v-46c0-3.3137085 2.6862915-6 6-6h-3c-3.3137085 0-6 2.6862915-6 6v46c0 3.3137085 2.6862915 6 6 6z" fill="#fff"/><path id="Rectangle-path" d="m0 7h2v8h-2z" fill="#fff"/><g fill="#428dff"><path id="Shape" d="m40 60c2.209139 0 4-1.790861 4-4v-52c0-2.209139-1.790861-4-4-4h-33c-3.86416566.00440864-6.99559136 3.13583434-7 7 0 .55228475.44771525 1 1 1s1-.44771525 1-1c.00299829-2.37510083 1.6735832-4.42156735 4-4.9v43.98c-1.52060655.2180524-2.92669715.9319949-4 2.031v-33.111c0-.5522847-.44771525-1-1-1s-1 .4477153-1 1v38c.00440864 3.8641657 3.13583434 6.9955914 7 7zm2-56v40c0 1.1045695-.8954305 2-2 2h-32v-44h32c1.1045695 0 2 .8954305 2 2zm-40 49c.00330612-2.7600532 2.23994685-4.9966939 5-5h33c.7042532-.0041446 1.3946535-.1960759 2-.556v2.556h-35c-.55228475 0-1 .4477153-1 1s.44771525 1 1 1h35v2h-35c-.55228475 0-1 .4477153-1 1s.44771525 1 1 1h35c0 1.1045695-.8954305 2-2 2h-33c-2.76005315-.0033061-4.99669388-2.2399468-5-5z"/><path id="Shape" d="m1.02 12c-.55228474.0027614-1.00223854-.4427153-1.00499996-.995-.00276143-.5522847.44271523-1.0022386.99499996-1.005h.01c.55228475 0 1 .4477153 1 1s-.44771525 1-1 1z"/><path id="Shape" d="m13 43h24c1.1045695 0 2-.8954305 2-2v-3c0-1.1045695-.8954305-2-2-2h-24c-1.1045695 0-2 .8954305-2 2v3c0 1.1045695.8954305 2 2 2zm0-5h24v3h-24z"/><path id="Shape" d="m53 0c-3.8641657.00440864-6.9955914 3.13583434-7 7v36.78c.003665.0693861.0113445.1385018.023.207v.013c0 .015.008.027.009.042.011472.0963517.0305312.1916476.057.285.0081601.0294806.0178397.0585194.029.087.0194065.0678527.0424396.1346154.069.2l5.813 12.606v1.78c0 .5522847.4477153 1 1 1s1-.4477153 1-1v-1.78l5.816-12.6c.0265604-.0653846.0495935-.1321473.069-.2.0111603-.0284806.0208399-.0575194.029-.087.0264688-.0933524.045528-.1886483.057-.285 0-.015.009-.027.009-.042v-.013c.0108838-.0705407.0175623-.1416663.02-.213v-36.78c-.0044086-3.86416566-3.1358343-6.99559136-7-7zm-1 10h2v15c0 .5522847-.4477153 1-1 1s-1-.4477153-1-1zm1 18c1.6568542 0 3-1.3431458 3-3v-15h2v33h-10v-33h2v15c0 1.6568542 1.3431458 3 3 3zm0 26.613-4.437-9.613h8.874zm5-46.613h-10v-1c0-2.76142375 2.2385763-5 5-5s5 2.23857625 5 5z"/><path id="Shape" d="m12.009 26.5c.7 1.2 2.124 1.717 3.963 1.717.482565-.0044968.9644276-.0378899 1.443-.1 1.721 3.592 4.449 5.883 7.585 5.883s5.864-2.291 7.585-5.882c.4785691.0621435.9604337.0955367 1.443.1 1.838 0 3.268-.515 3.963-1.717 1.15-1.994-.357-4.793-3.074-7.5 2.717-2.707 4.224-5.506 3.074-7.5-.867-1.5-2.884-1.927-5.407-1.62-1.722-3.591-4.449-5.881-7.584-5.881s-5.863 2.291-7.584 5.88c-2.523-.306-4.54.119-5.407 1.62-1.15 1.994.357 4.793 3.074 7.5-2.717 2.707-4.224 5.506-3.074 7.5zm1.733-1c-.418-.724.227-2.284 1.874-4.165.1469597 1.6526966.484535 3.2828564 1.006 4.858-1.535.112-2.566-.147-2.88-.693zm13.258-9.964c1.7573684 1.0054943 3.4222088 2.1646917 4.975 3.464-1.5527912 1.2993083-3.2176316 2.4585057-4.975 3.464-.682.394-1.346.744-2 1.071-.653-.327-1.318-.677-2-1.071-1.7573684-1.0054943-3.4222088-2.1646917-4.975-3.464 1.5527912-1.2993083 3.2176316-2.4585057 4.975-3.464.682-.394 1.347-.743 2-1.07.653.327 1.318.676 2 1.07zm.306-2.117c1.3006092-.5424016 2.6447237-.9739367 4.018-1.29.5425976 1.4950161.8976419 3.0515682 1.057 4.634-1.3885156-1.0899041-2.8525151-2.0800502-4.381-2.963-.228-.128-.462-.253-.694-.381zm5.075 7.818c-.1599018 1.5838353-.5156167 3.1417255-1.059 4.638-1.3747451-.3171903-2.7202053-.7500659-4.022-1.294.234-.129.472-.252.7-.385 1.5283623-.8816631 2.9923587-1.8704705 4.381-2.959zm-9.681 3.344c-1.3028826.5462429-2.6496981.9811312-4.026 1.3-.5433747-1.4966213-.8990881-3.0548411-1.059-4.639 1.3899582 1.0883439 2.855295 2.0768197 4.385 2.958.231.13.47.253.7.381zm-.7-10.781c-1.5283623.8816631-2.9923587 1.8704705-4.381 2.959.159246-1.5821248.5142946-3.1383598 1.057-4.633 1.3734033.3156013 2.7175565.7471487 4.018 1.29-.232.131-.466.256-.694.384zm3 18.2c-2.149 0-4.117-1.672-5.5-4.278 1.892395-.4783477 3.7342526-1.1380676 5.5-1.97 1.7656832.8320877 3.607556 1.4918131 5.5 1.97-1.384 2.607-3.351 4.278-5.5 4.278zm11.258-6.5c-.314.546-1.344.8-2.88.693.521465-1.5751436.8590403-3.2053034 1.006-4.858 1.647 1.881 2.292 3.441 1.874 4.165zm-2.213-13.723c1.167 0 1.946.26 2.213.723.418.724-.227 2.284-1.874 4.165-.1459723-1.6503583-.4815161-3.2784165-1-4.852.224-.013.456-.036.661-.036zm-9.045-5.777c2.146 0 4.11 1.666 5.493 4.266-1.8903188.4847462-3.7297515 1.149795-5.493 1.986-1.7636759-.8360092-3.6034213-1.5010501-5.494-1.986 1.384-2.6 3.348-4.266 5.494-4.266zm-11.258 6.5c.267-.463 1.045-.723 2.213-.723.205 0 .437.02.665.036-.5184839 1.5735835-.8540277 3.2016417-1 4.852-1.651-1.881-2.296-3.441-1.878-4.165z"/><path id="Shape" d="m22 19c0 1.6568542 1.3431458 3 3 3s3-1.3431458 3-3-1.3431458-3-3-3-3 1.3431458-3 3zm3-1c.5522847 0 1 .4477153 1 1s-.4477153 1-1 1-1-.4477153-1-1 .4477153-1 1-1z"/></g></g></g></svg>