<svg height="512" viewBox="0 0 60 60" width="512" xmlns="http://www.w3.org/2000/svg"><g id="Page-1" fill="none" fill-rule="evenodd"><g id="043---Owl-Book" fill-rule="nonzero" transform="translate(0 -1)"><path id="Shape" d="m59 58c-.0081672 1.1011688-.8988312 1.9918328-2 2h-45.69c-5.32501409.06779-9.80437605-3.9758363-10.28-9.28-.19991146-2.7693387.76056309-5.4971265 2.65146594-7.5302738 1.89090285-2.0331472 4.5419894-3.1886027 7.31853406-3.1897262h6v4h-6c-3.2494364.0056802-5.9065153 2.5919037-6 5.84.02641344 3.4262669 2.82371036 6.1832828 6.25 6.16h45.75c1.1032019.0032948 1.9967052.8967981 2 2z" fill="#a4c2f7"/><path id="Shape" d="m57 56h-3c1.1032019.0032948 1.9967052.8967981 2 2-.0081672 1.1011688-.8988312 1.9918328-2 2h3c1.1011688-.0081672 1.9918328-.8988312 2-2-.0032948-1.1032019-.8967981-1.9967052-2-2z" fill="#7facfa"/><path id="Shape" d="m59 42c-.0081672 1.1011688-.8988312 1.9918328-2 2h-14v-4h14c1.1032019.0032948 1.9967052.8967981 2 2z" fill="#a4c2f7"/><path id="Shape" d="m57 40h-3c1.1032019.0032948 1.9967052.8967981 2 2-.0081672 1.1011688-.8988312 1.9918328-2 2h3c1.1011688-.0081672 1.9918328-.8988312 2-2-.0032948-1.1032019-.8967981-1.9967052-2-2z" fill="#7facfa"/><path id="Shape" d="m54 50c-.0235975 2.0628844.3887326 4.1074967 1.21 6h-43.96c-3.42628964.0232828-6.22358656-2.7337331-6.25-6.16.0934847-3.2480963 2.7505636-5.8343198 6-5.84h6c0 1.1045695.8954305 2 2 2s2-.8954305 2-2c0 1.1045695.8954305 2 2 2s2-.8954305 2-2h10c0 1.1045695.8954305 2 2 2s2-.8954305 2-2c0 1.1045695.8954305 2 2 2s2-.8954305 2-2h12.21c-.8212674 1.8925033-1.2335975 3.9371156-1.21 6z" fill="#e8edfc"/><path id="Shape" d="m55.21 44h-3c-1.6133371 3.8373215-1.6133371 8.1626785 0 12h3c-1.6133371-3.8373215-1.6133371-8.1626785 0-12z" fill="#cad9fc"/><path id="Shape" d="m30 14.9v.1c-.0019074 4.0585805-3.0394101 7.4741598-7.07 7.95-.31.03-.62.05-.93.05-4.3649104-.00028-7.9239147-3.499346-7.9983243-7.8636221-.0744097-4.3642761 3.3632446-7.98263316 7.7256085-8.13171064s8.0390141 3.22615844 8.2627158 7.58533274c.01.1.01.21.01.31z" fill="#fff"/><path id="Shape" d="m46 15c-.0055097 4.4159938-3.5840062 7.9944903-8 8-.31 0-.62-.02-.93-.05-4.0305899-.4758402-7.0680926-3.8914195-7.07-7.95v-.1c0-.1 0-.21.01-.31.21698-4.3369594 3.8541103-7.70893445 8.1950674-7.59762786 4.340957.11130659 7.8004998 3.66524756 7.7949326 8.00762786z" fill="#fff"/><path id="Shape" d="m45.07 11.26c-1.6492907-3.11867993-5.1467918-4.78881896-8.609-4.111 3.7738522.7020939 6.5151059 3.9886431 6.5285532 7.8272256s-2.7047127 7.1442571-6.4735532 7.8727744c.184.035.366.076.554.1.31.03.62.05.93.05 2.804771-.0006817 5.4043404-1.4701587 6.8512939-3.8728792 1.4469535-2.4027206 1.5299366-5.3877227.2187061-7.8671208z" fill="#e8edfc"/><circle id="Oval" cx="23" cy="15" fill="#a4c2f7" r="2"/><circle id="Oval" cx="37" cy="15" fill="#a4c2f7" r="2"/><path id="Shape" d="m23.93 38.23c-.2859132-.1531674-.605652-.2322426-.93-.23-.6070886-.0006445-1.1813694.275452-1.56.75-2.7555368-1.6073181-4.4471105-4.5599524-4.44-7.75l-.0000223-9.76c1.4167901 1.1404529 3.1812695 1.7615497 5.0000223 1.76.31 0 .62-.02.93-.05-.7424036 2.2724733-1.057716 4.662745-.93 7.05-.0094486 2.8565523.6516067 5.6754568 1.93 8.23z" fill="#e8edfc"/><path id="Shape" d="m43.0000223 21.24-.0000223 9.76c.0071105 3.1900476-1.6844632 6.1426819-4.44 7.75-.05-.06-.1-.11-.15-.16-.6154041-.6226219-1.5659074-.7688532-2.34-.36 1.2783933-2.5545432 1.9394486-5.3734477 1.93-8.23.127716-2.387255-.1875964-4.7775267-.93-7.05.31.03.62.05.93.05 1.8187528.0015497 3.5832322-.6195471 5.0000223-1.76z" fill="#e8edfc"/><path id="Shape" d="m40 22.744v8.256c.0049103 2.7514173-1.2568277 5.3519769-3.421 7.051.1381293-.0318721.2792558-.0489681.421-.051.5305905-.0028231 1.0395388.2101411 1.41.59.05.05.1.1.15.16 2.7555368-1.6073181 4.4471105-4.5599524 4.44-7.75l.0000223-9.76c-.8820781.7083636-1.9046988 1.2210374-3.0000223 1.504z" fill="#cad9fc"/><path id="Shape" d="m29.99 14.59c-.185551-3.594078-2.7481685-6.62186011-6.2621551-7.39885714s-7.1142665.88807265-8.7978449 4.06885714c-1.9765107-1.1395147-3.3975943-3.04152476-3.93-5.26 1.46-2.19 4.31-3.26 6.8-3.64 2.2359737-.37071779 4.5278229-.20970596 6.69.47.2682883.08927777.5291005.19962137.78.33 1.4062352.75750662 2.5212119 1.96041519 3.17 3.42 1.0702268 2.53250291 1.5982262 5.2610674 1.55 8.01z" fill="#a4c2f7"/><path id="Shape" d="m49 6c-.5324057 2.21847524-1.9534893 4.1204853-3.93 5.26-1.6835784-3.18078449-5.2838583-4.84585417-8.7978449-4.06885714s-6.0766041 3.80477914-6.2621551 7.39885714c-.0482262-2.7489326.4797732-5.47749709 1.55-8.01.6487881-1.45958481 1.7637648-2.66249338 3.17-3.42.2508995-.13037863.5117117-.24072223.78-.33 2.1621771-.67970596 4.4540263-.84071779 6.69-.47 2.49.38 5.34 1.45 6.8 3.64z" fill="#a4c2f7"/><path id="Shape" d="m42.2 2.36c-1.2949-.19684967-2.6090863-.23379332-3.913-.11.307.029.612.065.913.11 2.49.38 5.34 1.45 6.8 3.64-.3437275 1.39304212-1.0258913 2.67974194-1.986 3.746.4093375.4621525.7637041.9702122 1.056 1.514 1.9765107-1.1395147 3.3975943-3.04152476 3.93-5.26-1.46-2.19-4.31-3.26-6.8-3.64z" fill="#7facfa"/><path id="Shape" d="m34.73 3.16c-1.4062352.75750662-2.5212119 1.96041519-3.17 3.42-1.0702268 2.53250291-1.5982262 5.2610674-1.55 8.01-.01.1-.01.21-.01.31 0-.1 0-.21-.01-.31.0482262-2.7489326-.4797732-5.47749709-1.55-8.01-.6487881-1.45958481-1.7637648-2.66249338-3.17-3.42 1.4400019-.81425818 3.0766621-1.21563787 4.73-1.16 1.6533379-.05563787 3.2899981.34574182 4.73 1.16z" fill="#a4c2f7"/><path id="Shape" d="m21 40v4c0 1.1045695-.8954305 2-2 2s-2-.8954305-2-2v-4c.0032948-1.1032019.8967981-1.9967052 2-2 1.1011688.0081672 1.9918328.8988312 2 2z" fill="#e8edfc"/><path id="Shape" d="m25 39.94v4.06c0 1.1045695-.8954305 2-2 2s-2-.8954305-2-2v-4c-.0027437-.4550866.1528005-.8969734.44-1.25.3786306-.474548.9529114-.7506445 1.56-.75.324348-.0022426.6440868.0768326.93.23.178176.093632.340224.215168.48.36.3649241.3560259.5765912.8403489.59 1.35z" fill="#e8edfc"/><path id="Rectangle-path" d="m25 40h10v4h-10z" fill="#a4c2f7"/><path id="Shape" d="m39 40v4c0 1.1045695-.8954305 2-2 2s-2-.8954305-2-2v-4.06c.02205-.721295.4309547-1.3747781 1.07-1.71.7740926-.4088532 1.7245959-.2626219 2.34.36.05.05.1.1.15.16.2871995.3530266.4427437.7949134.44 1.25z" fill="#e8edfc"/><path id="Shape" d="m43 40v4c0 1.1045695-.8954305 2-2 2s-2-.8954305-2-2v-4c.0032948-1.1032019.8967981-1.9967052 2-2 1.1011688.0081672 1.9918328.8988312 2 2z" fill="#e8edfc"/><path id="Shape" d="m33.72 21.76c-.61 1.61-2.16 5.24-3.72 5.24s-3.11-3.63-3.72-5.24c2.3176685-1.4658676 3.721917-4.0176741 3.72-6.76-.001917 2.7423259 1.4023315 5.2941324 3.72 6.76z" fill="#a4c2f7"/><path id="Shape" d="m38 30c.0094486 2.8565523-.6516067 5.6754568-1.93 8.23-.6390453.3352219-1.04795.988705-1.07 1.71-.3318128.0402091-.6657599.060246-1 .06h-8c-.3342401.000246-.6681872-.0197909-1-.06-.0134088-.5096511-.2250759-.9939741-.59-1.35-.139776-.144832-.301824-.266368-.48-.36-1.2783933-2.5545432-1.9394486-5.3734477-1.93-8.23-.127716-2.387255.1875964-4.7775267.93-7.05 1.191342-.142286 2.3358669-.5488485 3.35-1.19.61 1.61 2.16 5.24 3.72 5.24s3.11-3.63 3.72-5.24c1.0141331.6411515 2.158658 1.047714 3.35 1.19.7424036 2.2724733 1.057716 4.662745.93 7.05z" fill="#e8edfc"/><path id="Shape" d="m14.31 60c-5.32501409.06779-9.80437605-3.9758363-10.28-9.28-.19991146-2.7693387.76056309-5.4971265 2.65146594-7.5302738 1.89090285-2.0331472 4.54198936-3.1886027 7.31853406-3.1897262h-3c-2.77654466.0011235-5.42763121 1.156579-7.31853406 3.1897262-1.89090285 2.0331473-2.8513774 4.7609351-2.65146594 7.5302738.47562395 5.3041637 4.95498591 9.34779 10.28 9.28z" fill="#fff"/><path id="Shape" d="m2.791 42.682 1.492 1.332c-1.61891801 1.8148328-2.43291204 4.2084659-2.256 6.634l-1.994.144c-.21577527-2.9651387.77928512-5.8911503 2.758-8.11z" fill="#fff"/><g fill="#428dff"><path id="Shape" d="m1.547 47.763c-.55228473.0027614-1.00223852-.4427153-1.00499994-.995-.00276143-.5522847.44271521-1.0022385.99499994-1.005h.01c.55228475 0 1 .4477153 1 1s-.44771525 1-1 1z"/><path id="Shape" d="m55.9 45h1.1c1.6534434-.0082058 2.9917942-1.3465566 3-3 0-1.6568542-1.3431458-3-3-3h-13.184c-.3189711-.8897317-1.0385926-1.5771148-1.942-1.855 1.3730849-1.7544915 2.1212843-3.9170906 2.126-6.145v-9.311c2.8272428-2.5150984 3.766246-6.5369954 2.345-10.044 1.8209131-1.3247031 3.109765-3.25532169 3.635-5.445.0522187-.26005461-.0010193-.53020173-.148-.751-1.893-2.84-5.5-3.771-7.483-4.074-2.3925762-.39659028-4.8450385-.22148783-7.157.511-.136.045-.266.1-.4.16-1.4927661-.72090033-3.1346105-1.07928289-4.792-1.046-1.6572657-.03439475-3.2993124.32224422-4.793 1.041-.131-.053-.261-.113-.395-.158-2.3136689-.73434343-4.7685175-.90946945-7.163-.511-1.982.3-5.588 1.233-7.481 4.073-.1469807.22079827-.20021872.49094539-.148.751.5243661 2.19114076 1.8133016 4.123303 3.635 5.449-1.421246 3.5070046-.4822428 7.5289016 2.345 10.044v9.311c.0047157 2.2279094.7529151 4.3905085 2.126 6.145-.9034074.2778852-1.6230289.9652683-1.942 1.855h-5.184c-3.13557436.0034502-6.12117877 1.3425896-8.209 3.682-.1916953.1996799-.28862989.4719356-.26625993.7478319.02236997.2758962.16189959.5289792.38325993.6951681.42111687.3137447 1.00966386.2662329 1.375-.111 1.70765418-1.9153268 4.15096142-3.0116686 6.717-3.014h5v2h-5c-3.79226409.0060582-6.89295191 3.0252423-7 6.816-.03588878 1.8535453.6831313 3.6420716 1.992 4.955 1.38380615 1.4166243 3.27768353 2.2194871 5.258 2.229h45.75c.5522847 0 1 .4477153 1 1 .0006712.2696918-.1100548.5276905-.306.713-.1830903.1854514-.4334037.2889672-.694.287h-45.69c-4.80273681.0759913-8.85116985-3.5651126-9.283-8.349-.04520095-.546798-.51712841-.9584606-1.065-.929-.26471719.0179533-.51144825.1403721-.68587387.3403052-.17442563.199933-.26224571.4609889-.24412613.7256948.50541621 5.8319741 5.42463709 10.2862287 11.278 10.212h45.69c1.6534434-.0082058 2.9917942-1.3465566 3-3 0-1.6568542-1.3431458-3-3-3h-1.1c-1.1945687-3.2263088-1.1945687-6.7736912 0-10zm2.1-3c.0006712.2696918-.1100548.5276905-.306.713-.1830903.1854514-.4334037.2889672-.694.287h-13v-2h13c.5522847 0 1 .4477153 1 1zm-16 2c0 .5522847-.4477153 1-1 1s-1-.4477153-1-1v-4c0-.5522847.4477153-1 1-1s1 .4477153 1 1zm-16-1v-2h8v2zm-.236-19.836c2.036 4.836 3.674 4.836 4.236 4.836s2.2 0 4.236-4.836c.6647593.3099058 1.3654654.5359725 2.086.673.5294313 2.0095193.7579168 4.0864455.678 6.163.0071286 2.6097195-.5768071 5.1871732-1.708 7.539-.507509.3582428-.8917456.8647365-1.1 1.45-.063 0-.124.011-.188.011h-8.004c-.064 0-.125-.01-.188-.011-.2082544-.5852635-.592491-1.0917572-1.1-1.45-1.1325743-2.3515021-1.7178809-4.9289709-1.712-7.539-.0799168-2.0765545.1485687-4.1534807.678-6.163.7205346-.1370275 1.4212407-.3630942 2.086-.673zm1.736-1.056c1.0417043-.8061705 1.8948937-1.8299978 2.5-3 .6051063 1.1700022 1.4582957 2.1938295 2.5 3-1.182 2.875-2.2 3.892-2.5 3.892s-1.318-1.017-2.5-3.892zm-5.5 17.892c0-.5522847.4477153-1 1-1s1 .4477153 1 1v4c0 .5522847-.4477153 1-1 1s-1-.4477153-1-1zm14 0c0-.5522847.4477153-1 1-1s1 .4477153 1 1v4c0 .5522847-.4477153 1-1 1s-1-.4477153-1-1zm6-9c-.0061858 2.5800313-1.2584424 4.9981307-3.362 6.492-.2944572-.1918906-.6204502-.3303446-.963-.409.874405-2.2591665 1.3236202-4.6605187 1.325-7.083.0532774-2.0224031-.1343761-4.0439587-.559-6.022 1.2378476-.0592022 2.4498493-.3752285 3.559-.928zm-4-9c-3.8659932 0-7-3.1340068-7-7s3.1340068-7 7-7 7 3.1340068 7 7c-.0044086 3.8641657-3.1358343 6.9955914-7 7zm4.049-18.651c1.262.192 4.256.847 5.862 2.855-.445596 1.4529839-1.3262129 2.73429373-2.523 3.671-1.4750139-2.13685437-3.8040259-3.52924556-6.384535-3.81697049-2.580509-.28772494-5.1590116.55748183-7.068465 2.31697049.1510424-.46821407.3290055-.92731211.533-1.375.6337067-1.48836684 1.8488715-2.6525836 3.363-3.222 2.0099328-.63082655 4.1404782-.77781979 6.218-.429zm-12.049-.349c.9104413-.00155173 1.816713.12296388 2.693.37-.8613103.78202404-1.555267 1.73043159-2.04 2.788-.2509888.55022644-.4690403 1.11488946-.653 1.691-.1834544-.57517326-.4011772-1.13884819-.652-1.688-.4845359-1.0588159-1.1788776-2.00830521-2.041-2.791.876287-.24703612 1.7825587-.37155173 2.693-.37zm-17.909 3.2c1.607-2 4.6-2.66 5.857-2.851 2.0793407-.35113328 4.212297-.20445827 6.224.428 1.5135656.57010546 2.7279747 1.73465187 3.361 3.223.2038535.44523759.3814902.90201762.532 1.368-1.90974-1.75884641-4.4880627-2.60362766-7.0683488-2.31592758s-4.9092162 1.67963655-6.3846512 3.81592758c-1.1905976-.94084022-2.0692933-2.21932338-2.521-3.668zm2.909 8.8c0-3.8659932 3.1340068-7 7-7s7 3.1340068 7 7-3.1340068 7-7 7c-3.8641657-.0044086-6.9955914-3.1358343-7-7zm3 8.05c1.1091507.5527715 2.3211524.8687978 3.559.928-.4246239 1.9780413-.6122774 3.9995969-.559 6.022.0013798 2.4224813.450595 4.8238335 1.325 7.083-.3425498.0786554-.6685428.2171094-.963.409-2.1035576-1.4938693-3.3558142-3.9119687-3.362-6.492zm1 15.95c.5522847 0 1 .4477153 1 1v4c0 .5522847-.4477153 1-1 1s-1-.4477153-1-1v-4c0-.5522847.4477153-1 1-1zm-7.75 16c-1.44196641-.0084758-2.82038706-.5944936-3.827-1.627-.93063276-.927839-1.44425683-2.1940324-1.423-3.508.07938979-2.7058275 2.29301331-4.8596832 5-4.865h5.184c.3272348.945892 1.1086023 1.6635411 2.0788516 1.9093268s1.9990475-.0133081 2.7371484-.6893268c.7381009.6760187 1.7668991.9351125 2.7371484.6893268s1.7516168-.9634348 2.0788516-1.9093268h8.368c.3272348.945892 1.1086023 1.6635411 2.0788516 1.9093268s1.9990475-.0133081 2.7371484-.6893268c.7381009.6760187 1.7668991.9351125 2.7371484.6893268s1.7516168-.9634348 2.0788516-1.9093268h9.941c-1.0093364 3.2569263-1.0093364 6.7430737 0 10z"/><path id="Shape" d="m49 49h-24c-.5522847 0-1 .4477153-1 1s.4477153 1 1 1h24c.5522847 0 1-.4477153 1-1s-.4477153-1-1-1z"/><path id="Shape" d="m21 49h-10c-.5522847 0-1 .4477153-1 1s.4477153 1 1 1h10c.5522847 0 1-.4477153 1-1s-.4477153-1-1-1z"/><path id="Shape" d="m23 18c1.6568542 0 3-1.3431458 3-3s-1.3431458-3-3-3-3 1.3431458-3 3 1.3431458 3 3 3zm0-4c.5522847 0 1 .4477153 1 1s-.4477153 1-1 1-1-.4477153-1-1 .4477153-1 1-1z"/><path id="Shape" d="m37 12c-1.6568542 0-3 1.3431458-3 3s1.3431458 3 3 3 3-1.3431458 3-3-1.3431458-3-3-3zm0 4c-.5522847 0-1-.4477153-1-1s.4477153-1 1-1 1 .4477153 1 1-.4477153 1-1 1z"/></g></g></g></svg>