<svg height="512" viewBox="0 0 60 57" width="512" xmlns="http://www.w3.org/2000/svg"><g id="Page-1" fill="none" fill-rule="evenodd"><g id="044---Reading-Glasses" fill-rule="nonzero"><path id="Shape" d="m57 52h-20l-1-4h18.17l-2.52-7.15c1.4312971.3043304 2.843682.6916511 4.23 1.16.1408246.0504769.2914402.0675924.44.05l2.56 7.27c.2174541.6116045.1245654 1.2907028-.249142 1.8214468s-.9817476.847114-1.630858.8485532z" fill="#a4c2f7"/><path id="Shape" d="m58.88 49.33-2.56-7.27c-.1485598.0175924-.2991754.0004769-.44-.05-1.386318-.4683489-2.7987029-.8556696-4.23-1.16l.31.88c.308.1.6.174.92.28.1408246.0504769.2914402.0675924.44.05l2.56 7.27c.2174541.6116045.1245654 1.2907028-.249142 1.8214468s-.9817476.847114-1.630858.8485532h3c.6491104-.0014392 1.2571506-.3178092 1.630858-.8485532s.4665961-1.2098423.249142-1.8214468z" fill="#7facfa"/><path id="Shape" d="m37 52c0 2.21-3.13 4-7 4s-7-1.79-7-4l1-4h4.99c.4009627.6322027.7392344 1.3020478 1.01 2 .2707656-.6979522.6090373-1.3677973 1.01-2h4.99z" fill="#7facfa"/><g fill="#a4c2f7"><path id="Shape" d="m24 48-1 4h-20c-.6491104-.0014392-1.25715061-.3178092-1.63085799-.8485532-.37370737-.530744-.46659612-1.2098423-.24914201-1.8214468l2.57-7.27c.1452706.0175416.29263036.0004067.43-.05 1.38631799-.4683489 2.79870293-.8556696 4.23-1.16l-2.52 7.15z"/><path id="Shape" d="m54.17 48h-23.16c.4260248-.7039166.9075537-1.3727068 1.44-2 2.88-3.4 8.64-7.4 19.2-5.15z"/><path id="Shape" d="m28.99 48h-23.16l2.52-7.15c10.57-2.25 16.33 1.75 19.2 5.15.5324463.6272932 1.0139752 1.2960834 1.44 2z"/></g><path id="Shape" d="m56.32 42.06c-.1485598.0175924-.2991754.0004769-.44-.05-1.386318-.4683489-2.7987029-.8556696-4.23-1.16-10.56-2.25-16.32 1.75-19.2 5.15-.5324463.6272932-1.0139752 1.2960834-1.44 2-.4009627.6322027-.7392344 1.3020478-1.01 2-.2707656-.6979522-.6090373-1.3677973-1.01-2-.4260248-.7039166-.9075537-1.3727068-1.44-2-2.87-3.4-8.63-7.4-19.2-5.15-1.43129707.3043304-2.84368201.6916511-4.23 1.16-.13736964.0504067-.2847294.0675416-.43.05-.30107412-.0348993-.57007334-.2044637-.73140906-.4610458-.16133571-.2565821-.1975957-.5724902-.09859094-.8589542l4.27-12.12c2.12769307 4.0870268 6.7725827 6.1911779 11.2480929 5.095425s7.6229698-5.1077287 7.6219071-9.715425c0-2.209139 1.790861-4 4-4s4 1.790861 4 4c.0035412 4.6058315 3.1525143 8.6135455 7.6267616 9.7066181 4.4742472 1.0930726 9.1164082-1.011243 11.2432384-5.0966181l4.28 12.13c.0990048.286464.0627448.6023721-.0985909.8589542-.1613358.2565821-.430335.4261465-.7314091.4610458z" fill="#e8edfc"/><path id="Shape" d="m57.15 40.74-4.28-12.13c-.5285598 1.0021787-1.2238186 1.9070971-2.056 2.676l3.336 9.454c.083864.2393661.0709467.5020181-.036.732.578.165 1.161.335 1.766.538.1408246.0504769.2914402.0675924.44.05.3010741-.0348993.5700733-.2044637.7314091-.4610458.1613357-.2565821.1975957-.5724902.0985909-.8589542z" fill="#cad9fc"/><path id="Shape" d="m23.87 17.83-14.79 13.38c-.79079347-.7477379-1.45001223-1.6233157-1.95-2.59v-.01c-.16354221-.3071253-.30717171-.6244463-.43-.95l13.87-12.55c1.2833714.6579411 2.4091414 1.5858485 3.3 2.72z" fill="#fff"/><path id="Shape" d="m20.57 15.11-13.87 12.55c-.09-.22-.17-.44-.24-.66-.61330821-1.9529816-.61330821-4.0470184 0-6 1.31323164-4.1640783 5.1737528-6.9967458 9.54-7 1.59042-.0027974 3.1580623.3779647 4.57 1.11z" fill="#e8edfc"/><path id="Shape" d="m26 24c.0029891 4.0077072-2.3886608 7.629516-6.0755867 9.2005997-3.6869258 1.5710836-7.9558206.7874856-10.8444133-1.9905997l14.79-13.38c1.3815123 1.7597807 2.1316534 3.9327245 2.13 6.17z" fill="#e8edfc"/><path id="Shape" d="m6 24c-.00164774 1.0176898.1535055 2.0295587.46 3h-2.46c-1.10320187-.0032948-1.9967052-.8967981-2-2v-2c.0032948-1.1032019.89679813-1.9967052 2-2h2.46c-.3064945.9704413-.46164774 1.9823102-.46 3z" fill="#a4c2f7"/><path id="Shape" d="m58 23v2c-.0032948 1.1032019-.8967981 1.9967052-2 2h-2.46c.6133082-1.9529816.6133082-4.0470184 0-6h2.46c1.1032019.0032948 1.9967052.8967981 2 2z" fill="#a4c2f7"/><path id="Shape" d="m51.86 17.84-14.78 13.37c-1.0398951-.9979903-1.8517689-2.2089786-2.38-3.55l13.87-12.55c1.2847593.6559588 2.4083219 1.5882767 3.29 2.73z" fill="#fff"/><path id="Shape" d="m48.57 15.11-13.87 12.55c-.4630897-1.164638-.700637-2.4066711-.7-3.66 0-5.5228475 4.4771525-10 10-10 1.59042-.0027974 3.1580623.3779647 4.57 1.11z" fill="#e8edfc"/><path id="Shape" d="m54 24c.0016477 1.0176898-.1535055 2.0295587-.46 3-.1713309.5568586-.3956921 1.0959952-.67 1.61-1.45015 2.7967556-4.1349065 4.7453137-7.2434088 5.2571634-3.1085024.5118496-6.276281-.4730232-8.5465912-2.6571634l14.78-13.37c1.3902912 1.7517666 2.1447849 3.9235803 2.14 6.16z" fill="#e8edfc"/><path id="Shape" d="m10.13 28.62v-.01c-.74608848-1.4218574-1.13397278-3.0042881-1.13-4.61.00713345-4.9523243 3.6379555-9.1534793 8.537-9.878h-.007c-4.8807281-.7484535-9.5790377 2.170695-11.07 6.878h-2.46c-1.10320187.0032948-1.9967052.8967981-2 2v2c.0032948 1.1032019.89679813 1.9967052 2 2h2.46c.15272262.5168205.35918339 1.0162143.616 1.49.017.034.029.07.047.1.00289243.0085064.00523066.0171912.007.026l-4.27 12.124c-.09900476.286464-.06274477.6023721.09859094.8589542.16133572.2565821.43033494.4261465.73140906.4610458l-2.57 7.27c-.21745411.6116045-.12456536 1.2907028.24914201 1.8214468.37370738.530744.98174759.847114 1.63085799.8485532h3c-.6491104-.0014392-1.25715061-.3178092-1.63085799-.8485532-.37370737-.530744-.46659612-1.2098423-.24914201-1.8214468l2.57-7.27c-.30107412-.0348993-.57007334-.2044637-.73140906-.4610458-.16133571-.2565821-.1975957-.5724902-.09859094-.8589542l3.325-9.44c1.8452837 1.7344877 4.2825073 2.7000789 6.815 2.7.4991205.0010156.9974751-.0391203 1.49-.12-3.1496852-.4844337-5.8816833-2.4369215-7.36-5.26zm-5.13-3.62v-2c.004655-.8830567.58789725-1.6585453 1.435-1.908-.57997397 1.8952902-.57997397 3.9207098 0 5.816-.84710275-.2494547-1.430345-1.0249433-1.435-1.908z" fill="#fff"/><path id="Rectangle-path" d="m13.873 5.838h8v2h-8z" fill="#fff" transform="matrix(.569 -.822 .822 .569 2.076 17.638)"/><path id="Shape" d="m57.547 42.53c.023-.021.051-.033.073-.055.543908-.5400871.7280499-1.3451725.473-2.068l-4.144-11.745c.1-.217.2-.437.287-.662h1.764c1.6568542 0 3-1.3431458 3-3v-2c0-1.6568542-1.3431458-3-3-3h-1.764c-.3888973-.9898212-.9190641-1.9181182-1.574-2.756-.02-.027-.027-.059-.05-.085-.009-.009-.021-.012-.029-.021-.9706225-1.2110582-2.1852861-2.2042543-3.565-2.915-.018-.009-.035-.018-.054-.026-.254-.129-.511-.255-.776-.364l-7.517-10.854c-1.0059901-1.45366533-2.704821-2.26806403-4.4681299-2.1419667-1.763309.12609733-3.3289673 1.17394541-4.1178701 2.7559667l-.98 1.96c-.2468713.49429485-.0462949 1.09512872.448 1.342s1.0951287.04629485 1.342-.448l.98-1.96c.4732218-.94980844 1.4130104-1.57895419 2.4714815-1.65454459 1.0584711-.07559041 2.0781269.41362219 2.6815185 1.28654459l6.2 8.954c-5.1584937-.5989613-10.0273295 2.5108597-11.653 7.443-.9369596-.9689717-2.227113-1.5161078-3.575-1.5161078s-2.6380404.5471361-3.575 1.5161078c-.3975495-1.1828886-.9937481-2.2893899-1.763-3.272-.02-.027-.027-.059-.05-.085-.009-.009-.021-.012-.029-.021-.9706225-1.2110582-2.1852861-2.2042543-3.565-2.915-.018-.009-.035-.018-.054-.026-1.5368416-.7856255-3.2379964-1.1958355-4.964-1.197-.4103714.0015076-.8203401.0258787-1.228.073l1.646-2.373c.31425-.4542542.2007542-1.07724998-.2535-1.3915s-1.07725-.20075421-1.3915.2535l-2.96 4.275c-2.76895502 1.1485979-4.95229461 3.3730849-6.049 6.163h-1.764c-1.65685425 0-3 1.3431458-3 3v2c0 1.6568542 1.34314575 3 3 3h1.762l.005.009c.088.224.185.442.286.658l-4.135 11.733c-.26037921.720404-.08070659 1.5263975.461 2.068.025.024.055.038.08.061l-2.279 6.471c-.32414372.9168047-.18380944 1.9338513.37650051 2.7286171.56030994.7947659 1.47108365 1.2686527 2.44349949 1.2713829h19.157c.722 2.309 3.91 4 7.846 4s7.125-1.691 7.847-4h19.15c.9731226-.0014357 1.8850953-.474788 2.4463418-1.2697547.5612464-.7949667.7020338-1.8127759.3776582-2.7302453zm-4.547-18.53c.0064919 3.4117202-1.9202765 6.5326384-4.9732577 8.0555247-3.0529811 1.5228864-6.7051444 1.1848478-9.4267423-.8725247l13.087-11.839c.8580025 1.4015084 1.3123649 3.0127125 1.313 4.656zm3-2c.5522847 0 1 .4477153 1 1v2c0 .5522847-.4477153 1-1 1h-1.191c.2546594-1.3211737.2546594-2.6788263 0-4zm-5.535-4.247-13.327 12.057c-.4878335-.579207-.9007515-1.2175667-1.229-1.9l12.791-11.57c.6448382.3957209 1.2377557.8703908 1.765 1.413zm-6.465-2.753c.9268766.0000331 1.8481472.1437392 2.731.426l-11.531 10.437c-.5615843-2.6542053.1040855-5.4201186 1.8117987-7.5281742 1.7077132-2.1080555 4.2752361-3.333298 6.9882013-3.3348258zm-11 9c.0017256 1.3586652.2571008 2.705066.753 3.97 0 .013.009.026.014.039.5717784 1.4555643 1.4468342 2.77275 2.567 3.864v.008c.006.006.014.008.02.014 2.2233153 2.1648889 5.2599001 3.2862196 8.3566307 3.0858833 3.0967305-.2003364 5.9635246-1.7035734 7.8893693-4.1368833l3.6 10.218c-1.4278965-.4777632-2.8827626-.8707807-4.357-1.177-.0470205-.0128644-.0947738-.0228826-.143-.03-6.195-1.252-14.377-1.16-20.01 5.5-.251.3-.475.589-.686.875v-25.046c1.1927734.4235986 1.9913518 1.5502502 1.996 2.816zm19.761 23h-19.829c.094-.118.18-.234.282-.354 2.9-3.433 8.253-6.779 17.686-4.928zm-45.515 0 1.862-5.282c9.442-1.852 14.782 1.494 17.678 4.928.1.12.187.236.281.354zm17.754-23c.0064919 3.4117202-1.9202765 6.5326384-4.9732577 8.0555247-3.0529811 1.5228864-6.7051444 1.1848478-9.4267423-.8725247l13.087-11.839c.8580025 1.4015084 1.3123649 3.0127125 1.313 4.656zm-2.535-6.247-13.327 12.057c-.48783351-.579207-.9007515-1.2175667-1.229-1.9l12.791-11.57c.6448382.3957209 1.2377557.8703908 1.765 1.413zm-6.465-2.753c.9268766.0000331 1.8481472.1437392 2.731.426l-11.531 10.437c-.56158432-2.6542053.10408548-5.4201186 1.81179871-7.5281742 1.70771319-2.1080555 4.27523609-3.333298 6.98820129-3.3348258zm-13 10v-2c0-.5522847.44771525-1 1-1h1.191c-.25465941 1.3211737-.25465941 2.6788263 0 4h-1.191c-.55228475 0-1-.4477153-1-1zm4.406 5.847c.28749969.3611323.59744582.7038098.928 1.026v.008c.006.006.014.008.02.014 3.168602 3.0794223 7.8735054 3.9613541 11.9422778 2.238574s6.7098402-5.7151079 6.7037222-10.133574c.0052514-1.2667854.8056491-2.3937454 2-2.816v25.045c-.211-.286-.434-.576-.686-.874-2.72-3.226-8.755-7.829-20.012-5.5-.0242955.0034584-.04834468.0084687-.072.015-1.49771739.3136928-2.97588817.7143716-4.427 1.2zm-5.214 19.735c-.19013213-.2675662-.2368492-.6114038-.125-.92l2.362-6.7h.007c.814-.271 1.6-.5 2.363-.709l-1.909 5.415c-.10767953.3059393-.06029518.6451005.12711041.9098134.18740559.2647128.49155372.422096.81588959.4221866h16.89l-.5 2h-19.223c-.32152262.001346-.62333852-.1547915-.808-.418zm27.808 4.418c-3.464 0-5.894-1.518-5.99-2.914l.774-3.086h3.63c.2443083.428551.459139.8732471.643 1.331.1411019.3998258.5190066.6672073.943.6672073s.8018981-.2673815.943-.6672073c.1826409-.457782.3964764-.902493.64-1.331h3.64l.771 3.086c-.094 1.396-2.526 2.914-5.994 2.914zm27.812-4.418c-.1855849.2642417-.489108.4204888-.812.418h-19.216l-.5-2h16.889c.3245124.0002339.6289607-.1570152.8166007-.4217785.18764-.2647632.2351375-.6041156.1273993-.9102215l-1.909-5.417c.759.2 1.54.436 2.348.705.0076592.000477.0153408.000477.023 0l2.361 6.7c.1139709.3103517.0671804.6569754-.125.926z" fill="#428dff"/><path id="Shape" d="m17.893 7.839c-.5522847.00303757-1.0024624-.44221525-1.0055-.9945s.4422153-1.00246243.9945-1.0055h.011c.5522847 0 1 .44771525 1 1s-.4477153 1-1 1z" fill="#428dff"/><path id="Shape" d="m20.971 4.121c.6029682-.87357968 1.6226812-1.36349739 2.6814818-1.28830899s1.999049.70428848 2.4725182 1.65430899l.98 1.96c.2468713.49429485.8477051.69487128 1.342.448s.6948713-.84770515.448-1.342l-.98-1.96c-.7889028-1.58202129-2.3545611-2.62986937-4.1178701-2.7559667-1.7633089-.12609733-3.4621398.68830137-4.4681299 2.1419667-.3153546.45342578-.2034258 1.0766454.25 1.39199998.4534258.31535459 1.0766454.20342579 1.392-.24999998z" fill="#428dff"/></g></g></svg>