<svg height="512" viewBox="0 0 60 48" width="512" xmlns="http://www.w3.org/2000/svg"><g id="Page-1" fill="none" fill-rule="evenodd"><g id="046---Open-Book" fill-rule="nonzero"><path id="Shape" d="m59 4.22v34.96c.000097.4752686-.3343337.8849463-.8.98l-23.59 4.72c-.3247356.0728739-.595624.2955219-.73.6-.43.87-2 1.52-3.88 1.52s-3.45-.65-3.88-1.52c-.134376-.3044781-.4052644-.5271261-.73-.6l-23.59-4.72c-.46566625-.0950537-.800097-.5047314-.8-.98v-34.96c-.0000613-.3003227.13485582-.58477174.36746541-.77473623.23260958-.1899645.53827964-.26532832.83253459-.20526377l4.63.93-1.83 1.83v31l24.61 4.92c.2572642.0533404.5227358.0533404.78 0l24.61-4.92v-31l-1.83-1.83 4.63-.93c.294255-.06006455.599925.01529927.8325346.20526377.2326096.18996449.3675267.47441353.3674654.77473623z" fill="#a4c2f7"/><path id="Shape" d="m57.8 3.24-2.012.4c.1328823.16455795.2074405.36853787.212.58v34.96c.000097.4752686-.3343337.8849463-.8.98l-23.59 4.72c-.3247356.0728739-.595624.2955219-.73.6-.5624613.7739657-1.4281175 1.2715361-2.38 1.368.4936047.1010564.9961568.1519817 1.5.152 1.88 0 3.45-.65 3.88-1.52.134376-.3044781.4052644-.5271261.73-.6l23.59-4.72c.4656663-.0950537.800097-.5047314.8-.98v-34.96c.0000613-.3003227-.1348558-.58477174-.3674654-.77473623-.2326096-.1899645-.5382796-.26532832-.8325346-.20526377z" fill="#7facfa"/><path id="Shape" d="m9 2v31l-4 4v-31z" fill="#cad9fc"/><path id="Shape" d="m30 8.48.0000002 31c.0004912-1.4396096-1.0249556-2.6751889-2.4400002-2.94l-18.56-3.54v-31l5 .95v12.95c-.000254.1723521.0893381.3323763.2364032.4222494.147065.0898731.3303387.0966002.4835968.0177506l2.96-1.47c.1891764-.0982537.4202995-.0617606.57.09l1.9 1.89c.1428502.1400599.3554356.1814878.5404242.105316.1849887-.0761718.3067658-.2552784.3095758-.455316v-12.21l6.56 1.25c1.4150446.26481106 2.4404914 1.5003904 2.44 2.94z" fill="#fff"/><path id="Shape" d="m30 39.48.0000002 2.48c-.1308268-.0034188-.2612034-.0167907-.3900002-.04l-24.61-4.92 4-4 18.56 3.54c1.4150446.2648111 2.4404914 1.5003904 2.44 2.94z" fill="#e8edfc"/><path id="Shape" d="m55 37-24.61 4.92c-.1287968.0232093-.2591734.0365812-.3900002.04l.0000002-2.48c-.0004914-1.4396096 1.0249554-2.6751889 2.44-2.94l18.56-3.54z" fill="#e8edfc"/><path id="Shape" d="m55 6v31l-4-4v-31z" fill="#cad9fc"/><path id="Shape" d="m51 2v31l-18.56 3.54c-1.4150446.2648111-2.4404914 1.5003904-2.4400002 2.94l.0000002-31c-.0004914-1.4396096 1.0249554-2.67518894 2.44-2.94z" fill="#fff"/><path id="Shape" d="m21 3.31v13.19c-.00281.2000376-.1245871.3791442-.3095758.455316-.1849886.0761718-.397574.0347439-.5404242-.105316l-1.9-1.89c-.1497005-.1517606-.3808236-.1882537-.57-.09l-2.96 1.47c-.1532581.0788496-.3365318.0721225-.4835968-.0177506-.1470651-.0898731-.2366572-.2498973-.2364032-.4222494v-13.66c-.0006955-.30247925.1355586-.58901868.3706144-.77939447s.5436506-.26412714.8393856-.20060553l5 1.07c.4616905.09916498.7910852.50778114.79.98z" fill="#e8edfc"/><path id="Shape" d="m26.12 45.48c.646 1.306 3.321 1.759 5.383 1.362-.9563131-.0803843-1.8283746-.5788097-2.383-1.362-.134376-.3044781-.4052644-.5271261-.73-.6l-23.59-4.72c-.46566625-.0950537-.800097-.5047314-.8-.98v-34.96c.00543616-.21008257.07994452-.41252037.212-.576l-2.012-.404c-.29425495-.06006455-.59992501.01529927-.83253459.20526377-.23260959.18996449-.36752671.47441353-.36746541.77473623v34.96c-.000097.4752686.33433375.8849463.8.98l23.59 4.72c.3247356.0728739.595624.2955219.73.6z" fill="#fff"/><path id="Rectangle-path" d="m0 4.22h2v8h-2z" fill="#fff"/><g fill="#428dff"><path id="Shape" d="m1.02 9.22c-.55228475.00276142-1.00223858-.44271525-1.005-.995s.44271525-1.00223858.995-1.005h.01c.55228475 0 1 .44771525 1 1s-.44771525 1-1 1z"/><path id="Shape" d="m57.6 2.26-4.1.824-1.79-1.79c-.1012321-.09468027-.2197132-.16902799-.349-.219-.1738344-.06072977-.359694-.07890423-.542-.053l-18.558 3.54c-.876954.16504578-1.673136.61965478-2.261 1.291-.5850527-.67146783-1.3783145-1.12742614-2.253-1.295l-5.747-1.096v-.153c-.0032159-.94149027-.6601386-1.75432811-1.58-1.955l-5-1.073c-1.0541352-.22643854-2.0973349.4260596-2.355 1.473l-3.878-.736c-.1812759-.02753133-.36655846-.00931245-.539.053-.1289094.05012986-.24703402.1244669-.348.219h-.005l-1.795 1.794-4.109-.825c-.58701696-.11480146-1.19464154.03834011-1.65712584.41765074-.46248431.37931064-.73157671.94521632-.73387416 1.54334926 0 .55228475.44771525 1 1 1s1-.44771525 1-1l2.8.562-.51.51c-.18669492.1882283-.29100506.44288894-.29.708v31c.00283126.2489048.09839173.487806.268.67.15004864.1463762.33429616.2529373.536.31l24.607 4.92c.388728.0786534.789272.0786534 1.178 0l24.611-4.92c.2023877-.0554358.3870205-.1622197.536-.31.168152-.182798.2622593-.421631.264-.67v-31c-.0000566-.26519481-.1054506-.51950727-.293-.707l-.51-.51 2.803-.563v34.96l-23.589 4.72c-.6260085.1374701-1.1523669.5584828-1.424 1.139-.167.334-1.215.961-2.987.961s-2.82-.627-2.987-.964c-.2724015-.5789292-.7981115-.9986105-1.423-1.136l-23.59-4.717v-26.963c0-.5522847-.44771525-1-1-1s-1 .4477153-1 1v26.96c-.00066949.9509129.6682992 1.7708176 1.6 1.961l23.618 4.785c.63 1.26 2.505 2.074 4.782 2.074s4.152-.814 4.8-2.141l23.589-4.717c.9364427-.1856842 1.6110931-1.0073255 1.611-1.962v-34.96c.0006174-.59575902-.2662489-1.1603261-.727-1.538-.4658597-.38503869-1.0802497-.54001332-1.673-.422zm-3.6 32.326-2-2v-28.172l2 2zm-46-30.172v28.172l-2 2v-28.172zm1.332 29.668 18.041 3.44c.9413275.1786868 1.6236886.9998687 1.627 1.958v1.3l-21.972-4.394zm21.668 5.918v-.52c.0034034-.9584429.6862751-1.7797345 1.628-1.958l18.04-3.44 2.3 2.3-21.968 4.399zm1.628-33.478 17.372-3.314v28.965l-17.746 3.385c-.441731.0840553-.8658404.2430118-1.254.47v-27.548c.0034034-.95844289.6862751-1.77973454 1.628-1.958zm-5.255 0c.9413275.17868683 1.6236886.99986873 1.627 1.958v27.548c-.3878859-.2268112-.8116359-.3857597-1.253-.47l-17.747-3.385v-28.965l3 .57v12.122c-.0001557.519982.2689972 1.0029527.7112977 1.27636.4423006.2734074.9946474.2982453 1.4597023.06564l2.629-1.319 1.636 1.637c.4285939.4313078 1.0751656.5612088 1.6370844.3289022.5619188-.2323065.9280071-.7808579.9269156-1.3889022v-11zm-12.373-4.286 5 1.073v11.983l-1.038-1.038c-.4566258-.456786-1.1543794-.5699897-1.732-.281l-2.23 1.115z"/><path id="Shape" d="m35 11.09c.0634237-.0000877.1266999-.006114.189-.018l11-2.1c.5426197-.10382955.8983295-.62788024.7945-1.17049999-.1038296-.54261976-.6278802-.89832952-1.1705-.79450001l-11 2.1c-.5084373.09494951-.8605688.5619484-.8120089 1.0768909s.4817849.9078811.9990089.9061091z"/><path id="Shape" d="m35 15c.0634237-.0000877.1266999-.006114.189-.018l11-2.1c.5426197-.1038296.8983295-.6278802.7944999-1.1705-.1038295-.5426197-.6278801-.8983295-1.1704999-.7945l-11 2.1c-.5084373.0949495-.8605688.5619484-.8120089 1.0768909s.4817849.9078811.9990089.9061091z"/><path id="Shape" d="m35 19c.0634237-.0000877.1266999-.006114.189-.018l11-2.1c.5426198-.1038295.8983295-.6278802.7945-1.1705s-.6278802-.8983295-1.1705-.7945l-11 2.1c-.5084373.0949495-.8605688.5619484-.8120089 1.0768909s.4817849.9078811.9990089.9061091z"/><path id="Shape" d="m35 23c.0634237-.0000877.1266999-.006114.189-.018l11-2.1c.5426197-.1038296.8983295-.6278802.7944999-1.1705-.1038295-.5426197-.6278801-.8983295-1.1704999-.7945l-11 2.1c-.5084373.0949495-.8605688.5619484-.8120089 1.0768909s.4817849.9078811.9990089.9061091z"/><path id="Shape" d="m35 27c.0634237-.0000877.1266999-.006114.189-.018l11-2.1c.5426198-.1038295.8983295-.6278802.7945-1.1705s-.6278802-.8983295-1.1705-.7945l-11 2.1c-.5084373.0949495-.8605688.5619484-.8120089 1.0768909s.4817849.9078811.9990089.9061091z"/><path id="Shape" d="m35 31c.063426-.0000404.1267066-.0060672.189-.018l6-1.15c.5426198-.1038295.8983295-.6278802.7945-1.1705s-.6278802-.8983295-1.1705-.7945l-6 1.151c-.5059061.0973027-.8550985.5630331-.8067068 1.0759337.0483917.5129007.4785293.905102.9937068.9060663z"/><path id="Shape" d="m13.018 19.713c-.1037324.5423236.2517109 1.0660876.794 1.17l11 2.1c.0620033.0114886.1249416.0171798.188.017.5151775-.0009643.9453151-.3931656.9937068-.9060663.0483917-.5129006-.3008007-.978631-.8067068-1.0759337l-11-2.1c-.5423007-.1030704-1.0655462.2527723-1.169.795z"/><path id="Shape" d="m25.188 25.018-11-2.1c-.5426198-.1038295-1.0666704.2518803-1.1705.7945-.1038295.5426198.2518803 1.0666704.7945 1.1705l11 2.1c.0620033.0114886.1249416.0171798.188.017.5151775-.0009643.9453151-.3931656.9937068-.9060663.0483917-.5129006-.3008007-.978631-.8067068-1.0759337z"/><path id="Shape" d="m25.188 29.018-11-2.1c-.5426198-.1038295-1.0666705.2518802-1.1705.7945s.2518802 1.0666705.7945 1.1705l11 2.1c.0620033.0114886.1249416.0171798.188.017.5151775-.0009643.9453151-.3931656.9937068-.9060663.0483917-.5129006-.3008007-.978631-.8067068-1.0759337z"/></g></g></g></svg>