<svg height="512" viewBox="0 0 44 60" width="512" xmlns="http://www.w3.org/2000/svg"><g id="Page-1" fill="none" fill-rule="evenodd"><g id="047---Bookcase" fill-rule="nonzero"><path id="Shape" d="m8.23 53c.53308565.5902011.80860229 1.3687349.76542228 2.1628717-.04318001.7941367-.40148602 1.5382073-.99542228 2.0671283v.77c0 .5522847-.44771525 1-1 1h-2c-.55228475 0-1-.4477153-1-1v-.77c-.59393626-.528921-.95224227-1.2729916-.99542228-2.0671283-.04318001-.7941368.23233663-1.5726706.76542228-2.1628717z" fill="#a4c2f7"/><path id="Shape" d="m40.23 53c.5330857.5902011.8086023 1.3687349.7654223 2.1628717-.04318.7941367-.401486 1.5382073-.9954223 2.0671283v.77c0 .5522847-.4477153 1-1 1h-2c-.5522847 0-1-.4477153-1-1v-.77c-.5939363-.528921-.9522423-1.2729916-.9954223-2.0671283-.04318-.7941368.2323366-1.5726706.7654223-2.1628717z" fill="#a4c2f7"/><path id="Rectangle-path" d="m3 5h38v44h-38z" fill="#e8edfc"/><path id="Rectangle-path" d="m38 5h3v44h-3z" fill="#cad9fc"/><path id="Shape" d="m36 13c0-2.209-6.126-4-13.682-4s-14.318 1.791-14.318 4v10c0 .5522847.44771525 1 1 1h26c.5522847 0 1-.4477153 1-1z" fill="#a4c2f7"/><path id="Shape" d="m41.382 53h-38.764c-.34644011-.000185-.66810366-.1796678-.85019453-.4743943-.18209086-.2947265-.19866427-.6627032-.04380547-.9726057l1.276-2.553h38l1.276 2.553c.1548588.3099025.1382854.6778792-.0438055.9726057-.1820908.2947265-.5037544.4742093-.8501945.4743943z" fill="#e8edfc"/><path id="Shape" d="m42.276 51.553-1.276-2.553h-3l1.276 2.553c.1548588.3099025.1382854.6778792-.0438055.9726057-.1820908.2947265-.5037544.4742093-.8501945.4743943h3c.3464401-.000185.6681037-.1796678.8501945-.4743943.1820909-.2947265.1986643-.6627032.0438055-.9726057z" fill="#cad9fc"/><path id="Shape" d="m41.382 1h-38.764c-.34644011.00018496-.66810366.17966784-.85019453.47439433-.18209086.29472648-.19866427.66270321-.04380547.97260567l1.276 2.553h38l1.276-2.553c.1548588-.30990246.1382854-.67787919-.0438055-.97260567-.1820908-.29472649-.5037544-.47420937-.8501945-.47439433z" fill="#e8edfc"/><path id="Shape" d="m41.382 1h-3c.3464401.00018496.6681037.17966784.8501945.47439433.1820909.29472648.1986643.66270321.0438055.97260567l-1.276 2.553h3l1.276-2.553c.1548588-.30990246.1382854-.67787919-.0438055-.97260567-.1820908-.29472649-.5037544-.47420937-.8501945-.47439433z" fill="#cad9fc"/><rect id="Rectangle-path" fill="#a4c2f7" height="15" rx="1" width="28" x="8" y="29"/><g fill="#e8edfc"><rect id="Rectangle-path" height="11" rx="1" width="4" x="12" y="33"/><rect id="Rectangle-path" height="11" rx="1" width="4" x="8" y="13"/><rect id="Rectangle-path" height="11" rx="1" width="4" x="16" y="33"/><rect id="Rectangle-path" height="11" rx="1" transform="matrix(.906 -.423 .423 .906 -14.04 13.669)" width="4" x="21.808" y="33"/><rect id="Rectangle-path" height="11" rx="1" transform="matrix(-1 0 0 -1 68 37.002)" width="4" x="32" y="13.001"/><rect id="Rectangle-path" height="11" rx="1" transform="matrix(-1 0 0 -1 60 37.002)" width="4" x="28" y="13.001"/><rect id="Rectangle-path" height="11" rx="1" transform="matrix(-.906 -.423 .423 -.906 38.296 45.493)" width="4" x="22.191" y="13.001"/></g><path id="Shape" d="m5 59h2c.17763412-.0045183.35060582-.0577936.5-.154-.30489039-.1733879-.49513955-.4952895-.5-.846v-.77c-.59465789-.5284838-.95348673-1.272675-.99668024-2.0670599-.0431935-.794385.23282981-1.5730954.76668024-2.1629401h-1.152c-.34644011-.000185-.66810366-.1796678-.85019453-.4743943-.18209086-.2947265-.19866427-.6627032-.04380547-.9726057l1.276-2.553v-44l-1.276-2.553c-.1548588-.30990246-.13828539-.67787919.04380547-.97260567.18209087-.29472649.50375442-.47420937.85019453-.47439433h-3c-.34644011.00018496-.66810366.17966784-.85019453.47439433-.18209086.29472648-.19866427.66270321-.04380547.97260567l1.276 2.553v44l-1.276 2.553c-.1548588.3099025-.13828539.6778792.04380547.9726057.18209087.2947265.50375442.4742093.85019453.4743943h1.152c-.53385043.5898447-.80987374 1.3685551-.76668024 2.1629401.04319351.7943849.40202235 1.5385761.99668024 2.0670599v.77c0 .5522847.44771525 1 1 1z" fill="#fff"/><path id="Rectangle-path" d="m2 41h2v8h-2z" fill="#fff"/><path id="Shape" d="m3.02 46c-.55228473.0027614-1.00223852-.4427153-1.00499994-.995-.00276143-.5522847.44271521-1.0022385.99499994-1.005h.01c.55228475 0 1 .4477153 1 1s-.44771525 1-1 1z" fill="#428dff"/><path id="Shape" d="m.917 53.052c.27847762.4511088.72622691.7717016 1.243.89-.38323958 1.2954657-.06505089 2.6970111.84 3.7v.358c0 1.1045695.8954305 2 2 2h2c1.1045695 0 2-.8954305 2-2v-.354c.89182377-.9880491 1.2152706-2.3641136.857-3.646h24.286c-.3582706 1.2818864-.0348238 2.6579509.857 3.646v.354c0 1.1045695.8954305 2 2 2h2c1.1045695 0 2-.8954305 2-2v-.354c.9050509-1.0029889 1.2232396-2.4045343.84-3.7.5954344-.1382632 1.0945527-.5419997 1.354184-1.0953987.2596313-.5533989.2510863-1.1953096-.023184-1.7416013l-1.171-2.345v-43.528l1.171-2.342c.309797-.61996405.2765486-1.3561233-.087874-1.94563646s-1.0080678-.94834001-1.701126-.94836354h-38.764c-.69478841-.00102272-1.34032541.35861339-1.70511087.94993695-.36478547.59132355-.39654501 1.32959687-.08388913 1.95006305l1.171 2.336v35.764c0 .5522847.44771525 1 1 1s1-.4477153 1-1v-35h36v42h-37c-.37557906.0116179-.71656948.2223081-.895.553l-1.276 2.553c-.31225629.6195799-.27890346 1.3571324.088 1.946zm7.083 1.948c.00499331.5641975-.2346331 1.1029011-.657 1.477-.21768518.1897079-.34274275.4642512-.343.753v.77h-2v-.77c-.00025725-.2887488-.12531482-.5632921-.343-.753-.4223669-.3740989-.66199331-.9128025-.657-1.477-.00041158-.3515295.09315107-.6967791.271-1h3.458c.17784893.3032209.27141158.6484705.271 1zm31.343 1.477c-.2176852.1897079-.3427427.4642512-.343.753v.77h-2v-.77c-.0002573-.2887488-.1253148-.5632921-.343-.753-.4223669-.3740989-.6619933-.9128025-.657-1.477-.0004116-.3515295.0931511-.6967791.271-1h3.458c.1778489.3032209.2714116.6484705.271 1 .0049933.5641975-.2346331 1.1029011-.657 1.477zm-35.725-52.477-1-2h38.764l-1 2zm36.765 46 1 2h-38.765l1-2z" fill="#428dff"/><path id="Shape" d="m7 43c0 1.1045695.8954305 2 2 2h26c1.1045695 0 2-.8954305 2-2v-13c0-1.1045695-.8954305-2-2-2h-26c-1.1045695 0-2 .8954305-2 2zm6 0v-9h2v9zm4 0v-9h2v9zm9.617-.844-1.811.844-3.806-8.154 1.812-.846 3.806 8.156zm-5.617-2.58 1.6 3.424h-1.6zm-12-9.576h26v13h-6.581c.0284758-.0519353.0541786-.1053435.077-.16.1826068-.4981854.1584837-1.0486969-.067-1.529l-3.8-8.158c-.4673111-.999499-1.6557716-1.4317478-2.656-.966l-1.362.634c-.3755787-.5146439-.9738849-.8195536-1.611-.821h-2c-.3521367.0019998-.6973555.0979706-1 .278-.3026445-.1800294-.6478633-.2760002-1-.278h-2c-1.1045695 0-2 .8954305-2 2v9h-2z" fill="#428dff"/><path id="Shape" d="m9 25h14.169.026.034 11.771c1.1045695 0 2-.8954305 2-2v-10c0-3.436-7.61-5-14.682-5-6.157 0-15.318 1.332-15.318 5v10c0 1.1045695.8954305 2 2 2zm0-2v-9h2v9zm12.384-.843 3.803-8.157 1.813.846-3.8 8.154zm11.616-8.157h2v9h-2zm-2 9h-2v-9h2zm-4 0h-1.6l1.6-3.423zm6.917-11h-.917c-.3521367.0019998-.6973555.0979706-1 .278-.3026445-.1800294-.6478633-.2760002-1-.278h-2c-.6359384.001751-1.2329008.306733-1.607.821l-1.361-.634c-1.0004874-.46642-2.1896804-.0340675-2.657.966l-3.8 8.158c-.2254837.4803031-.2496068 1.0308146-.067 1.529.02.056.051.106.076.159h-6.584v-8.999c0-1.1045695-.8954305-2-2-2h-.788c1.954-.94 6.2-2 12.106-2 5.954 0 9.843 1.064 11.599 2z" fill="#428dff"/></g></g></svg>