<svg height="512" viewBox="0 0 60 56" width="512" xmlns="http://www.w3.org/2000/svg"><g id="Page-1" fill="none" fill-rule="evenodd"><g id="048---Book-Shelf" fill-rule="nonzero"><rect id="Rectangle-path" fill="#e8edfc" height="7" rx="2" width="58" x="1" y="43"/><path id="Shape" d="m57 43h-3c1.1045695 0 2 .8954305 2 2v3c0 1.1045695-.8954305 2-2 2h3c1.1045695 0 2-.8954305 2-2v-3c0-1.1045695-.8954305-2-2-2z" fill="#cad9fc"/><path id="Shape" d="m25 38v3c-.0032948 1.1032019-.8967981 1.9967052-2 2h-6c-1.1032019-.0032948-1.9967052-.8967981-2-2v-3z" fill="#a4c2f7"/><path id="Shape" d="m25 9v3h-10v-3c.0032948-1.10320187.8967981-1.9967052 2-2h6c1.1032019.0032948 1.9967052.89679813 2 2z" fill="#a4c2f7"/><path id="Shape" d="m35 3v3h-10v-3c.0032948-1.10320187.8967981-1.9967052 2-2h6c1.1032019.0032948 1.9967052.89679813 2 2z" fill="#a4c2f7"/><path id="Shape" d="m35 38v3c-.0032948 1.1032019-.8967981 1.9967052-2 2h-6c-1.1032019-.0032948-1.9967052-.8967981-2-2v-3z" fill="#a4c2f7"/><path id="Shape" d="m45 38v3c-.0032948 1.1032019-.8967981 1.9967052-2 2h-6c-1.1032019-.0032948-1.9967052-.8967981-2-2v-3z" fill="#a4c2f7"/><path id="Shape" d="m45 16v3h-10v-3c.0032948-1.1032019.8967981-1.9967052 2-2h6c1.1032019.0032948 1.9967052.8967981 2 2z" fill="#a4c2f7"/><path id="Rectangle-path" d="m15 12h10v26h-10z" fill="#e8edfc"/><path id="Rectangle-path" d="m25 6h10v32h-10z" fill="#e8edfc"/><path id="Rectangle-path" d="m35 19h10v19h-10z" fill="#e8edfc"/><path id="Shape" d="m15 27v16h-12v-4c0-6.627417 5.372583-12 12-12z" fill="#a4c2f7"/><path id="Shape" d="m45 27h12v16c-6.627417 0-12-5.372583-12-12z" fill="#a4c2f7" transform="matrix(-1 0 0 -1 102 70)"/><path id="Shape" d="m45 27v.393c5.2951455 1.3650113 8.9966709 6.1387451 9 11.607v4h3v-4c0-6.627417-5.372583-12-12-12z" fill="#7facfa"/><path id="Shape" d="m7 50h10v3c0 1.1045695-.8954305 2-2 2h-6c-1.1045695 0-2-.8954305-2-2z" fill="#a4c2f7"/><path id="Shape" d="m43 50h10v3c0 1.1045695-.8954305 2-2 2h-6c-1.1045695 0-2-.8954305-2-2z" fill="#a4c2f7"/><path id="Shape" d="m50 50v3c0 1.1045695-.8954305 2-2 2h3c1.1045695 0 2-.8954305 2-2v-3z" fill="#7facfa"/><path id="Shape" d="m4 48v-3c0-1.1045695.8954305-2 2-2v-4c0-6.627417 5.372583-12 12-12v-18c.0032948-1.10320187.8967981-1.9967052 2-2h-3c-1.1032019.0032948-1.9967052.89679813-2 2v18c-6.627417 0-12 5.372583-12 12v4c-1.1045695 0-2 .8954305-2 2v3c0 1.1045695.8954305 2 2 2h3c-1.1045695 0-2-.8954305-2-2z" fill="#fff"/><path id="Shape" d="m8.2 30.363-1.238-1.57c2.29250215-1.8020432 5.1220327-2.7852329 8.038-2.793v2c-2.4667452.0073838-4.8602366.839122-6.8 2.363z" fill="#fff"/><g fill="#428dff"><path id="Shape" d="m11.081 28.66c-.5522847.0027614-1.0022386-.4427153-1.005-.995s.4427153-1.0022386.995-1.005h.01c.5522847 0 1 .4477153 1 1s-.4477153 1-1 1z"/><path id="Shape" d="m58 42.184v-3.184c-.0108555-6.7853317-5.2350994-12.4227262-12-12.949v-10.051c0-1.6568542-1.3431458-3-3-3h-6c-.3414397.0033144-.679743.0655622-1 .184v-10.184c0-1.65685425-1.3431458-3-3-3h-6c-1.6568542 0-3 1.34314575-3 3v3.184c-.320257-.11843775-.6585603-.18068557-1-.184h-6c-1.6568542 0-3 1.34314575-3 3v33h-10v-3c.0110025-3.3685267 1.55723627-6.548246 4.2-8.637.40259484-.3437485.4834582-.9347392.188-1.374-.15302652-.2283324-.39607742-.3806624-.66828194-.4188398-.27220452-.0381773-.5477829.0414136-.75771806.2188398-3.12376645 2.4695532-4.95064696 6.2289803-4.962 10.211v3.184c-1.19435086.4222546-1.99474861 1.5492146-2 2.816v3c0 1.6568542 1.34314575 3 3 3h3v2c0 1.6568542 1.34314575 3 3 3h6c1.6568542 0 3-1.3431458 3-3v-2h24v2c0 1.6568542 1.3431458 3 3 3h6c1.6568542 0 3-1.3431458 3-3v-2h3c1.6568542 0 3-1.3431458 3-3v-3c-.0052514-1.2667854-.8056491-2.3937454-2-2.816zm-2-3.184v3h-10v-13.955c5.6609393.5238638 9.99322 5.2698772 10 10.955zm-30-32h8v30h-8zm18 20v10h-8v-17h8zm-20 10h-8v-24h8zm-8 4v-2h8v2c0 .5522847-.4477153 1-1 1h-6c-.5522847 0-1-.4477153-1-1zm10 0v-2h8v2c0 .5522847-.4477153 1-1 1h-6c-.5522847 0-1-.4477153-1-1zm10 0v-2h8v2c0 .5522847-.4477153 1-1 1h-6c-.5522847 0-1-.4477153-1-1zm1-26h6c.5522847 0 1 .4477153 1 1v2h-8v-2c0-.5522847.4477153-1 1-1zm-10-13h6c.5522847 0 1 .44771525 1 1v2h-8v-2c0-.55228475.4477153-1 1-1zm-10 6h6c.5522847 0 1 .44771525 1 1v2h-8v-2c0-.55228475.4477153-1 1-1zm-1 45c0 .5522847-.4477153 1-1 1h-6c-.55228475 0-1-.4477153-1-1v-2h8zm36 0c0 .5522847-.4477153 1-1 1h-6c-.5522847 0-1-.4477153-1-1v-2h8zm6-5c0 .5522847-.4477153 1-1 1h-54c-.55228475 0-1-.4477153-1-1v-3c0-.5522847.44771525-1 1-1h54c.5522847 0 1 .4477153 1 1z"/><path id="Shape" d="m20 20c.5522847 0 1-.4477153 1-1v-3c0-.5522847-.4477153-1-1-1s-1 .4477153-1 1v3c0 .5522847.4477153 1 1 1z"/><path id="Shape" d="m20 35c.5522847 0 1-.4477153 1-1v-11c0-.5522847-.4477153-1-1-1s-1 .4477153-1 1v11c0 .5522847.4477153 1 1 1z"/><path id="Shape" d="m30 14c.5522847 0 1-.4477153 1-1v-3c0-.55228475-.4477153-1-1-1s-1 .44771525-1 1v3c0 .5522847.4477153 1 1 1z"/><path id="Shape" d="m30 35c.5522847 0 1-.4477153 1-1v-17c0-.5522847-.4477153-1-1-1s-1 .4477153-1 1v17c0 .5522847.4477153 1 1 1z"/><path id="Shape" d="m40 27c.5522847 0 1-.4477153 1-1v-3c0-.5522847-.4477153-1-1-1s-1 .4477153-1 1v3c0 .5522847.4477153 1 1 1z"/><path id="Shape" d="m40 35c.5522847 0 1-.4477153 1-1v-4c0-.5522847-.4477153-1-1-1s-1 .4477153-1 1v4c0 .5522847.4477153 1 1 1z"/><path id="Shape" d="m7 40c-.55228475 0-1-.4477153-1-1 .00919742-3.2123354 1.72223497-6.1785551 4.5-7.792.4748504-.2484017 1.0611063-.0783237 1.3292932.3856398.268187.4639634.1229594 1.0568642-.3292932 1.3443602-2.16064712 1.2554962-3.49296851 3.5630768-3.5 6.062 0 .5522847-.44771525 1-1 1z"/></g></g></g></svg>