<svg height="512" viewBox="0 0 60 60" width="512" xmlns="http://www.w3.org/2000/svg"><g id="Page-1" fill="none" fill-rule="evenodd"><g id="049---Maths-Textbook" fill-rule="nonzero"><path id="Shape" d="m57 55h-20l-1-4h18.17l-2.52-7.15c1.4312971.3043304 2.843682.6916511 4.23 1.16.1373696.0504067.2847294.0675416.43.05l2.57 7.27c.2174541.6116045.1245654 1.2907028-.249142 1.8214468s-.9817476.847114-1.630858.8485532z" fill="#a4c2f7"/><path id="Shape" d="m58.88 52.33-2.57-7.27c-.1452706.0175416-.2926304.0004067-.43-.05-1.386318-.4683489-2.7987029-.8556696-4.23-1.16l.31.88c.308.1.6.174.92.28.1373696.0504067.2847294.0675416.43.05l2.57 7.27c.2174541.6116045.1245654 1.2907028-.249142 1.8214468s-.9817476.847114-1.630858.8485532h3c.6491104-.0014392 1.2571506-.3178092 1.630858-.8485532s.4665961-1.2098423.249142-1.8214468z" fill="#7facfa"/><path id="Shape" d="m37 55c0 2.21-3.13 4-7 4s-7-1.79-7-4l1-4h4.99c.4009627.6322027.7392344 1.3020478 1.01 2 .2707656-.6979522.6090373-1.3677973 1.01-2h4.99z" fill="#7facfa"/><g fill="#a4c2f7"><path id="Shape" d="m24 51-1 4h-20c-.6491104-.0014392-1.25715061-.3178092-1.63085799-.8485532-.37370737-.530744-.46659612-1.2098423-.24914201-1.8214468l2.56-7.27c.14855977.0175924.29917538.0004769.44-.05 1.38631799-.4683489 2.79870293-.8556696 4.23-1.16l-2.52 7.15z"/><path id="Shape" d="m54.17 51h-23.16c.4260248-.7039166.9075537-1.3727068 1.44-2 2.87-3.4 8.63-7.4 19.2-5.15z"/><path id="Shape" d="m28.99 51h-23.16l2.52-7.15c10.56-2.25 16.32 1.75 19.2 5.15.5324463.6272932 1.0139752 1.2960834 1.44 2z"/></g><path id="Shape" d="m56.31 45.06c-.1452706.0175416-.2926304.0004067-.43-.05-1.386318-.4683489-2.7987029-.8556696-4.23-1.16-10.57-2.25-16.33 1.75-19.2 5.15-.5324463.6272932-1.0139752 1.2960834-1.44 2-.4009627.6322027-.7392344 1.3020478-1.01 2-.2707656-.6979522-.6090373-1.3677973-1.01-2-.4260248-.7039166-.9075537-1.3727068-1.44-2-2.88-3.4-8.64-7.4-19.2-5.15-1.43129707.3043304-2.84368201.6916511-4.23 1.16-.14082462.0504769-.29144023.0675924-.44.05-.30107412-.0348993-.57007334-.2044637-.73140906-.4610458-.16133571-.2565821-.1975957-.5724902-.09859094-.8589542l7.25-20.54c.1058303-.284062.3276963-.5095651.61-.62.1-.04.2-.07.29-.1v15.52c0 .5522847.4477153 1 1 1h32.59c.4044441-.0016958.7680455-.2468472.9212679-.6211476s.0658935-.8040433-.2212679-1.0888524l-12.6-12.6c.975022-1.2431898 2.2620218-2.2058519 3.73-2.79l6.63 6.63c.1864103.1918336.4425137.3000725.71.3000725s.5235897-.1082389.71-.3000725l4.24-4.24c.3877236-.3900375.3877236-1.0199625 0-1.41l-.74-.74c.43.13.86.28 1.31.44.2823037.1104349.5041697.335938.61.62l7.25 20.54c.0990048.286464.0627448.6023721-.0985909.8589542-.1613358.2565821-.430335.4261465-.7314091.4610458z" fill="#e8edfc"/><path id="Shape" d="m57.14 43.74-7.25-20.54c-.1058303-.284062-.3276963-.5095651-.61-.62-.45-.16-.88-.31-1.31-.44l.74.74c.3877236.3900375.3877236 1.0199625 0 1.41l-1.061 1.061 6.491 18.389c.0873971.2377359.0762374.5005294-.031.73.58.166 1.164.336 1.771.54.1373696.0504067.2847294.0675416.43.05.3010741-.0348993.5700733-.2044637.7314091-.4610458.1613357-.2565821.1975957-.5724902.0985909-.8589542z" fill="#cad9fc"/><path id="Shape" d="m45.29 37.29-12.6-12.6-19.98-19.98c-.2848091-.28716137-.714552-.37449029-1.0888524-.22126791-.3743004.15322239-.6194518.51682383-.6211476.92126791v32.59c0 .5522847.4477153 1 1 1h32.59c.4044441-.0016958.7680455-.2468472.9212679-.6211476s.0658935-.8040433-.2212679-1.0888524zm-28.29-4.29v-15.51l15.51 15.51z" fill="#e8edfc"/><path id="Shape" d="m32.51 33h-15.51v-15.51z" fill="#e8edfc"/><path id="Shape" d="m48.71 24.29-4.24 4.24c-.1864103.1918336-.4425137.3000725-.71.3000725s-.5235897-.1082389-.71-.3000725l-6.63-6.63-14.95-14.95c-.1918336-.18641029-.3000725-.44251366-.3000725-.71s.1082389-.52358971.3000725-.71l4.24-4.24c.3900375-.38772359 1.0199625-.38772359 1.41 0l20.85 20.85.74.74c.3877236.3900375.3877236 1.0199625 0 1.41z" fill="#e8edfc"/><path id="Shape" d="m4.12 52.33 2.56-7.27c-.30107412-.0348993-.57007334-.2044637-.73140906-.4610458-.16133571-.2565821-.1975957-.5724902-.09859094-.8589542l7.25-20.54c.1536034-.3807577.4948112-.653724.9-.72v-16.48l-1.29-1.29c-.2848091-.28716137-.714552-.37449029-1.0888524-.22126791-.3743004.15322239-.6194518.51682383-.6211476.92126791v17.07c-.4051888.066276-.7463966.3392423-.9.72l-7.25 20.54c-.09900476.286464-.06274477.6023721.09859094.8589542.16133572.2565821.43033494.4261465.73140906.4610458l-2.56 7.27c-.21745411.6116045-.12456536 1.2907028.24914201 1.8214468.37370738.530744.98174759.847114 1.63085799.8485532h3c-.6491104-.0014392-1.25715061-.3178092-1.63085799-.8485532-.37370737-.530744-.46659612-1.2098423-.24914201-1.8214468z" fill="#fff"/><path id="Rectangle-path" d="m.181 38.969h8v2h-8z" fill="#fff" transform="matrix(.333 -.943 .943 .333 -34.9 30.607)"/><path id="Shape" d="m57.541 45.531c.025-.023.056-.037.08-.061.5411894-.5398018.7212723-1.3439382.462-2.063l-7.251-20.542c-.2101043-.5651322-.653606-1.0122782-1.217-1.227-.38-.136-.743-.256-1.106-.372l-20.681-20.68c-.7809997-.78076388-2.0470003-.78076388-2.828 0l-4.242 4.242c-.7807639.7809997-.7807639 2.0470003 0 2.828l13.971 13.972c-.7617311.4407565-1.4612382.981193-2.08 1.607l-19.235-19.235c-.5719885-.57181583-1.4320732-.74284381-2.1793091-.43335596-.7472359.30948786-1.2345182 1.03856416-1.2346909 1.84735596v16.415c-.38824136.2405383-.68468778.6042309-.842 1.033v.005l-4.587 13c-.18391082.5208045.08919548 1.0920892.61 1.276s1.09208918-.0891955 1.276-.61l3.543-10.045v11.512c0 1.1045695.8954305 2 2 2h32.586c.8087918-.0001727 1.5378681-.487455 1.847356-1.2346909.3094878-.7472359.1384598-1.6073206-.433356-2.1793091l-11.937-11.937c.6262595-.6283549 1.3524586-1.1484202 2.149-1.539l6.132 6.132c.7809997.7807639 2.0470003.7807639 2.828 0l4.242-4.242c.013-.013.022-.029.035-.043l6.747 19.1c-14.19-4.725-21.448.663-24.509 4.293-.256.3-.483.6-.7.888v-6.238c0-.5522847-.4477153-1-1-1s-1 .4477153-1 1v6.216c-.208-.281-.429-.568-.677-.862-5.627-6.653-13.8-6.749-20-5.5-.0714725.0076019-.14189438.0230276-.21.046-1.45461767.3054266-2.89034922.6947435-4.3 1.166.18032094-.5246705-.09882952-1.096179-.62350002-1.2765-.52467049-.1803209-1.09617899.0988295-1.27649998.6235-.25191972.7219489-.06676617 1.5244106.476 2.063.022.022.05.034.073.055l-2.276 6.469c-.32455095.9179684-.18342412 1.9363507.37852529 2.7314684.5619494.7951176 1.47482231 1.2680685 2.44847471 1.2685316h19.149c.722 2.309 3.911 4 7.847 4s7.125-1.691 7.847-4h19.157c.9729459-.0017595 1.8846188-.4752456 2.445631-1.270162.5610123-.7949164.7016864-1.8125348.377369-2.729838zm-12.955-7.531h-3.586v-1c0-.5522847-.4477153-1-1-1s-1 .4477153-1 1v1h-2v-1c0-.5522847-.4477153-1-1-1s-1 .4477153-1 1v1h-2v-1c0-.5522847-.4477153-1-1-1s-1 .4477153-1 1v1h-2v-1c0-.5522847-.4477153-1-1-1s-1 .4477153-1 1v1h-2v-1c0-.5522847-.4477153-1-1-1s-1 .4477153-1 1v1h-2v-1c0-.5522847-.4477153-1-1-1s-1 .4477153-1 1v1h-2v-1c0-.5522847-.4477153-1-1-1s-1 .4477153-1 1v1h-3v-3h1c.5522847 0 1-.4477153 1-1s-.4477153-1-1-1h-1v-2h1c.5522847 0 1-.4477153 1-1s-.4477153-1-1-1h-1v-2h1c.5522847 0 1-.4477153 1-1s-.4477153-1-1-1h-1v-2h1c.5522847 0 1-.4477153 1-1s-.4477153-1-1-1h-1v-2h1c.5522847 0 1-.4477153 1-1s-.4477153-1-1-1h-1v-2h1c.5522847 0 1-.4477153 1-1s-.4477153-1-1-1h-1v-2h1c.5522847 0 1-.4477153 1-1 0-.55228475-.4477153-1-1-1h-1v-3.586l32.6 32.586zm-.828-10.172-1.658-1.661 1.353-1.354c.2524081-.2533013.3505082-.6220195.2573469-.967262-.0931612-.3452425-.3634305-.6145588-.709-.7065-.3455694-.0919412-.7139388.0074607-.9663469.260762l-1.353 1.353-1.414-1.414 1.353-1.353c.2599566-.2510745.3642126-.6228779.2726972-.9725073-.0915155-.3496295-.3645604-.6226744-.7141899-.7141899-.3496294-.0915154-.7214328.0127406-.9725073.2726972l-1.353 1.353-.722-.722-.019-.019-.674-.673 1.354-1.354c.2599566-.2510745.3642126-.6228779.2726972-.9725073-.0915155-.3496295-.3645604-.6226744-.7141899-.7141899-.3496294-.0915154-.7214328.0127406-.9725073.2726972l-1.354 1.357-1.414-1.415 1.353-1.353c.2599566-.2510745.3642126-.6228779.2726972-.9725073-.0915155-.3496295-.3645604-.6226744-.7141899-.7141899-.3496294-.0915154-.7214328.0127406-.9725073.2726972l-1.35 1.349-1.414-1.414 1.35-1.353c.2599566-.2510745.3642126-.6228779.2726972-.9725073-.0915155-.3496295-.3645604-.6226744-.7141899-.7141899-.3496294-.0915154-.7214328.0127406-.9725073.2726972l-1.353 1.353-1.415-1.415 1.354-1.353c.2599566-.2510745.3642126-.6228779.2726972-.97250732-.0915155-.34962944-.3645604-.6226744-.7141899-.71418984-.3496294-.09151544-.7214328.01274058-.9725073.27269716l-1.354 1.353-1.415-1.41 1.354-1.353c.3904653-.39074146.3902414-1.02403467-.0005-1.41449998-.3907415-.39046531-1.0240347-.39024146-1.4145.00049998l-1.353 1.349-1.539-1.54 4.241-4.242 21.587 21.586zm7.134 16.889 1.861 5.283h-19.821c.095-.119.181-.235.283-.355 2.895-3.434 8.237-6.779 17.677-4.928zm-24.106 4.929c.1.12.188.236.282.354h-19.829l1.861-5.28c9.434-1.848 14.782 1.494 17.686 4.926zm-24.6 3.936c-.1917999-.2668632-.23898569-.6113944-.126-.92l2.362-6.7h.015c.81-.27 1.593-.5 2.355-.706l-1.909 5.412c-.10767953.3059393-.06029518.6451005.12711041.9098134.18740559.2647128.49155372.422096.81588959.4221866h16.89l-.5 2h-19.216c-.32380269.004022-.62860218-.1524967-.814-.418zm27.814 4.418c-3.466 0-5.9-1.519-5.991-2.915l.767-3.085h3.638c.2437987.4288188.4586125.8734799.643 1.331.1411019.3998258.5190066.6672073.943.6672073s.8018981-.2673815.943-.6672073c.1821287-.4580068.395981-.9027526.64-1.331h3.633l.771 3.085c-.095 1.396-2.525 2.915-5.987 2.915zm27.811-4.418c-.1851499.2642171-.4883781.4205049-.811.418h-19.224l-.5-2h16.89c.3243359-.0000906.628484-.1574738.8158896-.4221866.1874056-.2647129.2347899-.6038741.1271104-.9098134l-1.909-5.418c.761.2 1.543.435 2.353.7h.018l2.362 6.7c.1158234.312265.0685822.6616997-.126.932z" fill="#428dff"/><path id="Shape" d="m4.2 40.968c-.55228475.0027614-1.00223858-.4427153-1.005-.995s.44271525-1.0022386.995-1.005h.01c.55228475 0 1 .4477153 1 1s-.44771525 1-1 1z" fill="#428dff"/><path id="Shape" d="m17 34h15.515c.4043959-.0000863.7689341-.2437275.923678-.6173454.1547439-.373618.0692299-.8036603-.216678-1.0896546l-15.515-15.515c-.2859943-.2859079-.7160366-.3714219-1.0896546-.216678-.3736179.1547439-.6172591.5192821-.6173454.923678v15.515c0 .5522847.4477153 1 1 1zm1-14.1 12.1 12.1h-12.1z" fill="#428dff"/></g></g></svg>