<svg height="512" viewBox="0 0 60 60" width="512" xmlns="http://www.w3.org/2000/svg"><g id="Page-1" fill="none" fill-rule="evenodd"><g id="050---Medical-Book" fill-rule="nonzero"><path id="Shape" d="m57 55h-20l-1-4h18.17l-2.52-7.15c1.4268478.3090963 2.8356372.6963465 4.22 1.16.1442833.0505066.298149.0676028.45.05l2.56 7.27c.2174541.6116045.1245654 1.2907028-.249142 1.8214468s-.9817476.847114-1.630858.8485532z" fill="#a4c2f7"/><path id="Shape" d="m58.88 52.33-2.56-7.27c-.151851.0176028-.3057167.0005066-.45-.05-1.3843628-.4636535-2.7931522-.8509037-4.22-1.16l.312.884c.3.094.6.173.908.276.1442833.0505066.298149.0676028.45.05l2.56 7.27c.2174541.6116045.1245654 1.2907028-.249142 1.8214468s-.9817476.847114-1.630858.8485532h3c.6491104-.0014392 1.2571506-.3178092 1.630858-.8485532s.4665961-1.2098423.249142-1.8214468z" fill="#7facfa"/><path id="Shape" d="m37 55c0 2.21-3.13 4-7 4s-7-1.79-7-4l1-4h4.99c.3957902.6335656.7306217 1.3032285 1 2 .2707656-.6979522.6090373-1.3677973 1.01-2h5z" fill="#7facfa"/><g fill="#a4c2f7"><path id="Shape" d="m24 51-1 4h-20c-.6491104-.0014392-1.25715061-.3178092-1.63085799-.8485532-.37370737-.530744-.46659612-1.2098423-.24914201-1.8214468l2.56-7.27c.1452706.0175416.29263036.0004067.43-.05 1.38930016-.4696837 2.80509143-.8570229 4.24-1.16l-2.52 7.15z"/><path id="Shape" d="m54.17 51h-23.17c.422603-.7061726.9043289-1.3752364 1.44-2 2.88-3.4 8.64-7.4 19.21-5.15z"/><path id="Shape" d="m28.98 51h-23.15l2.52-7.15c10.56-2.25 16.32 1.75 19.19 5.15.5356711.6247636 1.017397 1.2938274 1.44 2z"/></g><path id="Shape" d="m56.32 45.06c-.151851.0176028-.3057167.0005066-.45-.05-1.3843628-.4636535-2.7931522-.8509037-4.22-1.16-10.57-2.25-16.33 1.75-19.21 5.15-.5356711.6247636-1.017397 1.2938274-1.44 2-.4009627.6322027-.7392344 1.3020478-1.01 2-.2693783-.6967715-.6042098-1.3664344-1-2h-.01c-.422603-.7061726-.9043289-1.3752364-1.44-2-2.87-3.4-8.63-7.4-19.19-5.15-1.43490857.3029771-2.85069984.6903163-4.24 1.16-.13736964.0504067-.2847294.0675416-.43.05-.30107412-.0348993-.57007334-.2044637-.73140906-.4610458-.16133571-.2565821-.1975957-.5724902-.09859094-.8589542l6.25-17.74 1-2.8c.1058303-.284062.3276963-.5095651.61-.62 1.7138748-.6321634 3.4857215-1.0943843 5.29-1.38-2.28 5.98-3.69 12.69-2.66 14.3 1.96 3.06 14.71 1.83 14.66-7.36 0 0 0-2.85-.33-6.23.6306282.2127136 1.2426917.4769377 1.83.79.303535.1600181.666465.1600181.97 0 .596284-.3160047 1.2185626-.5803058 1.86-.79-.33 3.38-.33 6.23-.33 6.23-.05 9.19 12.7 10.42 14.66 7.36 1.03-1.61-.38-8.32-2.66-14.3 1.8010005.2857176 3.5695197.7479442 5.28 1.38.2823037.1104349.5041697.335938.61.62l7.25 20.54c.0965327.2849302.0604824.5981089-.098265.8536535-.1587474.2555447-.4235294.4266326-.721735.4663465z" fill="#e8edfc"/><path id="Shape" d="m57.14 43.74-7.25-20.54c-.1058303-.284062-.3276963-.5095651-.61-.62-1.7104803-.6320558-3.4789995-1.0942824-5.28-1.38.093.243.182.489.271.735.649.187 1.313.394 2.009.645.2823037.1104349.5041697.335938.61.62l7.25 20.54c.0848148.2397373.0711503.5033182-.038.733.578.166 1.161.337 1.768.537.3611176.1236364.7611201.0309198 1.03102-.23898.2698998-.2698999.3626164-.6699024.23898-1.03102z" fill="#cad9fc"/><path id="Shape" d="m28 28.14c.05 9.19-12.7 10.42-14.66 7.36-1.03-1.61.38-8.32 2.66-14.3 2.05-5.39 4.8-10.2 7.11-10.2 1.08 0 1.93.84 2.58 2.14-3.42 3.58-5.22 10.62-5.64 12.41-.1660842.7046852.0616356 1.4441091.5953866 1.9332666.5337511.4891575 1.2901869.6516654 1.9777453.4248864.6875584-.2267789 1.1988755-.8074327 1.3368681-1.518153.6710989-2.9547464 1.7338275-5.8066254 3.16-8.48.24 1.32.42 2.7.55 4 .33 3.38.33 6.23.33 6.23z" fill="#e8edfc"/><path id="Shape" d="m46.66 35.5c-1.96 3.06-14.71 1.83-14.66-7.36 0 0 0-2.85.33-6.23.13-1.3.3-2.68.55-4.01 1.4336462 2.6956925 2.4997906 5.5712555 3.17 8.55.2096287.9077944 1.0183163 1.5505974 1.95 1.55.1512794-.001826.3020095-.0185737.45-.05.5173458-.119047.9661372-.4388916 1.2474957-.8890652s.3721979-.9937382.2525043-1.5109348c-.42-1.79-2.22-8.83-5.64-12.41.65-1.3 1.5-2.14 2.58-2.14 2.31 0 5.06 4.81 7.11 10.2 2.28 5.98 3.69 12.69 2.66 14.3z" fill="#e8edfc"/><path id="Shape" d="m44 21.2c-2.05-5.39-4.8-10.2-7.11-10.2-.5551728.0097459-1.0859382.2299152-1.485.616 1.928 1.455 3.979 5.334 5.595 9.584 2.28 5.98 3.69 12.69 2.66 14.3-.7223401.8373983-1.7555628 1.3431716-2.86 1.4 2.665.342 5.1-.2 5.865-1.4 1.025-1.61-.385-8.32-2.665-14.3z" fill="#cad9fc"/><path id="Shape" d="m38.45 27.95c-.1479905.0314263-.2987206.048174-.45.05-.9316837.0005974-1.7403713-.6422056-1.95-1.55-.6702094-2.9787445-1.7363538-5.8543075-3.17-8.55-.98-1.75-2.01-2.9-2.88-2.9s-1.9 1.16-2.88 2.91c-1.4261725 2.6733746-2.4889011 5.5252536-3.16 8.48-.1379926.7107203-.6493097 1.2913741-1.3368681 1.518153-.6875584.226779-1.4439942.0642711-1.9777453-.4248864-.533751-.4891575-.7614708-1.2285814-.5953866-1.9332666.42-1.79 2.22-8.83 5.64-12.41.2525299-.2713321.5231493-.5252467.81-.76.9273873-.730948 1.4779368-1.8393877 1.5-3.02v-6.36c.0032948-1.10320187.8967981-1.9967052 2-2 .5305905-.00282307 1.0395388.2101411 1.41.59.3798589.3704612.5928231.87940947.59 1.41v6.36c.0220632 1.1806123.5726127 2.289052 1.5 3.02.2868507.2347533.5574701.4886679.81.76 3.42 3.58 5.22 10.62 5.64 12.41.1196936.5171966.0288542 1.0607612-.2525043 1.5109348s-.7301499.7700182-1.2474957.8890652z" fill="#a4c2f7"/><path id="Shape" d="m4.12 52.33 2.56-7.27c-.30107412-.0348993-.57007334-.2044637-.73140906-.4610458-.16133571-.2565821-.1975957-.5724902-.09859094-.8589542 7.244-20.561 5.887-16.725 7.25-20.54.1058303-.284062.3276963-.5095651.61-.62 1.7138748-.6321634 3.4857215-1.0943843 5.29-1.38 1.616-4.25 3.667-8.129 5.595-9.584-.3990618-.3860848-.9298272-.6062541-1.485-.616-2.31 0-5.06 4.81-7.11 10.2-1.8042785.2856157-3.5761252.7478366-5.29 1.38-.2823037.1104349-.5041697.335938-.61.62-1.363 3.815-.006-.021-7.25 20.54-.09900476.286464-.06274477.6023721.09859094.8589542.16133572.2565821.43033494.4261465.73140906.4610458l-2.56 7.27c-.21745411.6116045-.12456536 1.2907028.24914201 1.8214468.37370738.530744.98174759.847114 1.63085799.8485532h3c-.6491104-.0014392-1.25715061-.3178092-1.63085799-.8485532-.37370737-.530744-.46659612-1.2098423-.24914201-1.8214468z" fill="#fff"/><path id="Rectangle-path" d="m3.771 28.772h8v2h-8z" fill="#fff" transform="matrix(.332 -.943 .943 .332 -22.892 27.21)"/><path id="Shape" d="m57.54 45.528c.022-.02.049-.032.07-.053.5436857-.5402106.727796-1.345158.473-2.068l-7.251-20.542c-.2091386-.563563-.6507003-1.0098609-1.212-1.225-1.5896658-.5800181-3.2259379-1.0232936-4.891-1.325-1.598-4.084-4.57-10.315-7.839-10.315-1.1284814.0414259-2.1659364.6303122-2.78 1.578-.6804171-.539175-1.0869102-1.3521614-1.11-2.22v-6.358c0-1.65685425-1.3431458-3-3-3s-3 1.34314575-3 3v6.358c-.0230898.8678386-.4295829 1.680825-1.11 2.22-.6140636-.9476878-1.6515186-1.5365741-2.78-1.578-3.269 0-6.241 6.232-7.839 10.315-1.6774985.3027791-3.3258903.7490861-4.927 1.334-.55198388.215116-.98427886.6579814-1.186 1.215l-1 2.8c-.184988.5199607.08622775 1.091483.606 1.277.10770536.0390992.22141735.0590664.336.059.4224284-.0003642.79906416-.2661305.941-.664l1.009-2.815c1.1150452-.403066 2.2538703-.7370323 3.41-1-1.673 4.839-3.285 11.453-1.962 13.521.868 1.357 2.915 1.952 5.152 1.952 1.3075495-.0037122 2.6080349-.1919005 3.863-.559 4.712-1.394 7.511-4.87 7.487-9.292 0-.136 0-2.1-.194-4.678.079.04.157.08.217.113.6012939.3316791 1.3307061.3316791 1.932 0 .067-.037.15-.08.24-.124-.19 2.581-.2 4.552-.2 4.684-.024 4.428 2.775 7.9 7.487 9.3 1.2546434.3670064 2.5547856.5551938 3.862.559 2.238 0 4.285-.595 5.154-1.952 1.322-2.068-.29-8.68-1.962-13.519 1.1550396.2662334 2.2922666.6045626 3.405 1.013l7.241 20.529c-1.4244437-.4760454-2.875607-.8680532-4.346-1.174-.0506355-.0151627-.1024996-.0258702-.155-.032-6.2-1.252-14.378-1.16-20.009 5.5-.251.3-.474.587-.684.871v-15.233c0-.5522847-.4477153-1-1-1s-1 .4477153-1 1v15.233c-.212-.287-.436-.578-.688-.878-2.721-3.225-8.753-7.826-20-5.5-.04015139.0058312-.07989645.014181-.119.025-1.48592385.314937-2.95237564.7156069-4.392 1.2l3.596-10.202c.13308533-.3402078.07006591-.7259139-.16437921-1.006072-.23444513-.2801581-.6030031-.4101798-.96134298-.3391475-.35833989.0710323-.64943047.3318137-.75927781.6802195l-3.591 10.187v.005c-.26038008.7194515-.08063636 1.5245943.461 2.065.025.025.056.039.082.062l-2.279 6.468c-.32455095.9179684-.18342412 1.9363507.37852529 2.7314684.5619494.7951176 1.47482231 1.2680685 2.44847471 1.2685316h19.149c.722 2.309 3.911 4 7.847 4s7.125-1.691 7.847-4h19.157c.9729459-.0017595 1.8846188-.4752456 2.445631-1.270162.5610123-.7949164.7016864-1.8125348.377369-2.729838zm-30.411-32.374c1.1626679-.9196771 1.8497742-2.3137206 1.871-3.796v-6.358c0-.55228475.4477153-1 1-1s1 .44771525 1 1v6.358c.0200285 1.483688.7072539 2.8794425 1.871 3.8.2339673.1934387.4569793.3997582.668.618.011.014.024.025.036.038 3.288 3.418 5.061 10.5 5.4 11.965.1252633.5351108-.2047713 1.0710263-.739 1.2-.5392895.1169199-1.0746913-.2127958-1.213-.747-.73-3.178-3.59-12.232-7.023-12.232-3.413 0-6.276 9.007-7.01 12.162-.0853939.4539747-.4602555.7970546-.92.842-.3268773.0286931-.6459358-.1106831-.847-.37-.1972879-.2393227-.2712862-.5571455-.2-.859.34-1.468 2.113-8.547 5.4-11.965.011-.013.024-.024.035-.038.2119913-.2183269.4360065-.424648.671-.618zm-6.184 22.36c-3.289.973-6.2.322-6.762-.553-.6-.942.169-6.633 2.752-13.4 2.497-6.571 4.951-9.561 6.175-9.561.5886297.0951552 1.0941242.4708254 1.355 1.007-3.219 3.819-4.908 10.239-5.39 12.317-.2127205.9049344.0091891 1.8572963.6 2.575.5790411.7070074 1.4471679 1.1136775 2.361 1.106h.089c1.371233-.0655145 2.5262949-1.0464754 2.813-2.389.4174738-1.8043357.9731126-3.5738881 1.662-5.293.392 3.575.4 6.777.4 6.823.027 5.026-4.226 6.827-6.055 7.368zm9.037-13.7c-.4477803-.2325213-.9093006-.4375672-1.382-.614-.111-1.023-.255-2.079-.436-3.117.774-1.32 1.459-2.083 1.836-2.083s1.062.761 1.834 2.077c-.181 1.038-.324 2.094-.435 3.117-.4846483.1792135-.9578673.3879375-1.417.625zm15.836 13.147c-.56.874-3.471 1.526-6.763.553-1.829-.541-6.082-2.342-6.055-7.374 0-.042.008-3.243.4-6.819.6978059 1.7402416 1.2585137 3.5323668 1.677 5.36.3931647 1.5871308 1.969631 2.5804238 3.571 2.25l.029-.006c.7758341-.1787933 1.4487777-.6586529 1.8706117-1.3338874s.5579574-1.4904577.3783883-2.2661126c-.482-2.078-2.171-8.5-5.39-12.317.2604294-.5363006.7655362-.9123328 1.354-1.008 1.224 0 3.678 2.99 6.175 9.557 2.583 6.771 3.356 12.462 2.753 13.404zm5.074 9.758 1.861 5.281h-19.831c.094-.118.18-.234.282-.354 2.904-3.435 8.254-6.779 17.688-4.927zm-24.116 4.927c.1.12.188.236.282.354h-19.819l1.861-5.283c9.44-1.85 14.781 1.495 17.676 4.929zm-24.59 3.936c-.1917999-.2668632-.23898569-.6113944-.126-.92l2.362-6.7c.814-.272 1.6-.505 2.366-.71l-1.91 5.419c-.10675401.3064094-.05820545.6455674.13022176.9097233s.4933068.4204683.81777824.4192767h16.89l-.5 2h-19.216c-.32380269.004022-.62860218-.1524967-.814-.418zm27.814 4.418c-3.466 0-5.9-1.519-5.991-2.915l.767-3.085h3.624c.2443083.428551.459139.8732471.643 1.331.1406829.4005593.5189539.6686275.9435.6686275s.8028171-.2680682.9435-.6686275c.1822176-.4584771.3971029-.9032862.643-1.331h3.643l.771 3.085c-.095 1.396-2.525 2.915-5.987 2.915zm27.811-4.418c-.1851499.2642171-.4883781.4205049-.811.418h-19.224l-.5-2h16.89c.3243359-.0000906.628484-.1574738.8158896-.4221866.1874056-.2647129.2347899-.6038741.1271104-.9098134l-1.909-5.416c.758.2 1.538.435 2.345.7h.025l2.362 6.7c.1153951.3115188.0685553.6600068-.125.93z" fill="#428dff"/><path id="Shape" d="m7.79 30.772c-.55228475.0027614-1.00223858-.4427153-1.005-.995s.44271525-1.0022386.995-1.005h.01c.55228475 0 1 .4477153 1 1s-.44771525 1-1 1z" fill="#428dff"/></g></g></svg>