<svg height="512" viewBox="0 0 50 60" width="512" xmlns="http://www.w3.org/2000/svg"><g id="Page-1" fill="none" fill-rule="evenodd"><g id="051---Romance-Novel" fill-rule="nonzero" transform="translate(-1)"><path id="Shape" d="m50 3v39c0 1.1-.9 3-2 3h-41c-2.76142375 0-5 2.2385763-5 5v-44c0-2.76142375 2.23857625-5 5-5h41c1.1032019.0032948 1.9967052.89679813 2 2z" fill="#e8edfc"/><path id="Shape" d="m48 1h-3c1.1032019.0032948 1.9967052.89679813 2 2v39c0 1.1-.9 3-2 3h3c1.1 0 2-1.9 2-3v-39c-.0032948-1.10320187-.8967981-1.9967052-2-2z" fill="#cad9fc"/><path id="Shape" d="m47 55h-25v-5h-10v5h-4.79c-2.62768969.0421177-4.86508915-1.902135-5.19-4.51-.01643773-.162788-.02311634-.3264139-.02-.49 0-2.7614237 2.23857625-5 5-5h40c-1.66 0-3 2.24-3 5s1.34 5 3 5z" fill="#e8edfc"/><path id="Shape" d="m50 42v11c-.0032948 1.1032019-.8967981 1.9967052-2 2h-1c-1.66 0-3-2.24-3-5s1.34-5 3-5h1c1.1 0 2-1.9 2-3z" fill="#a4c2f7"/><path id="Shape" d="m48 45h-1v8c-.0036392.7004821-.3734912 1.3480075-.975 1.707.2933409.1822358.6297963.283345.975.293h1c1.1032019-.0032948 1.9967052-.8967981 2-2v-11c0 1.1-.9 3-2 3z" fill="#7facfa"/><path id="Shape" d="m22 50v8c-.0000627.3593049-.1928829.6909565-.505101.8687761-.3122182.1778196-.6958342.1744694-1.004899-.0087761l-2.98-1.79c-.3134634-.1899733-.7065366-.1899733-1.02 0l-2.98 1.79c-.3090648.1832455-.6926808.1865957-1.004899.0087761-.3122181-.1778196-.5050383-.5094712-.505101-.8687761v-8z" fill="#fff"/><path id="Shape" d="m46 23.3c0 4.49-3.92 9.98-14.07 14.61-.2741028.1200272-.5858972.1200272-.86 0-9.36-4.27-13.43-9.28-13.99-13.55-.0560794-.350496-.0828387-.7050574-.08-1.06-.0386379-1.9389655.7111382-3.8106247 2.0777455-5.1866568 1.3666073-1.3760322 3.2330693-2.1386541 5.1722545-2.1133432 2.7864945-.0399716 5.4452498 1.1665532 7.25 3.29 1.8047502-2.1234468 4.4635055-3.3299716 7.25-3.29.7386005-.0032337 1.4734868.1046395 2.18.32 3.0580887.9348238 5.1266908 3.7827217 5.07 6.98z" fill="#e8edfc"/><path id="Shape" d="m41 15.3c.0009038.3412304-.0224887.6820922-.07 1.02-.7065132-.2153605-1.4413995-.3232337-2.18-.32-2.7864945-.0399716-5.4452498 1.1665532-7.25 3.29-1.8047502-2.1234468-4.4635055-3.3299716-7.25-3.29-1.9391852-.0253109-3.8056472.737311-5.1722545 2.1133432-1.3666073 1.3760321-2.1163834 3.2476913-2.0777455 5.1866568-.0028387.3549426.0239206.709504.08 1.06-3.57-3.11-5.08-6.27-5.08-9.06-.0386379-1.9389655.7111382-3.8106247 2.0777455-5.1866568 1.3666073-1.3760322 3.2330693-2.13865412 5.1722545-2.1133432 2.7864945-.03997156 5.4452498 1.16655322 7.25 3.29 1.8047502-2.12344678 4.4635055-3.32997156 7.25-3.29 1.9391852-.02531092 3.8056472.737311 5.1722545 2.1133432 1.3666073 1.3760321 2.1163834 3.2476913 2.0777455 5.1866568z" fill="#a4c2f7"/><path id="Shape" d="m2 6v44c.0595869 2.8187131 2.39122068 5.0563654 5.21 5h3c-2.81877932.0563654-5.1504131-2.1812869-5.21-5v-44c0-2.76142375 2.23857625-5 5-5h-3c-2.76142375 0-5 2.23857625-5 5z" fill="#fff"/><path id="Rectangle-path" d="m1 6h2v8h-2z" fill="#fff"/><g fill="#428dff"><path id="Shape" d="m2.02 11c-.55228475.0027614-1.00223858-.4427153-1.005-.995-.00276142-.55228475.44271525-1.00223858.995-1.005h.01c.55228475 0 1 .44771525 1 1 0 .5522847-.44771525 1-1 1z"/><path id="Shape" d="m48 0h-41c-3.31233757.00330738-5.99669262 2.68766243-6 6 0 .35726559.19059892.68739261.5.8660254.30940108.1786328.69059892.1786328 1 0 .30940108-.17863279.5-.50875981.5-.8660254 0-2.209139 1.790861-4 4-4v1c0 .55228475.44771525 1 1 1s1-.44771525 1-1v-1h39c.5522847 0 1 .44771525 1 1v39c-.0286401.7798547-.3933003 1.5091751-1 2h-39v-1c0-.5522847-.44771525-1-1-1s-1 .4477153-1 1v1c-1.47930705.0013494-2.90517386.5531599-4 1.548v-31.548c0-.5522847-.44771525-1-1-1s-1 .4477153-1 1v36c-.00315317.1956308.00485985.3912822.024.586.38318859 3.1162408 3.04646318 5.4471442 6.186 5.414h3.79v2c-.0050454.722159.384077 1.3896095 1.015 1.741.6256978.3598127 1.3977993.3498452 2.014-.026l2.971-1.784 2.97 1.782c.617612.3710616 1.3870729.3812417 2.0142854.0266493s1.0152174-1.0191418 1.0157146-1.7396493v-2h25c1.6568542 0 3-1.3431458 3-3v-50c0-1.65685425-1.3431458-3-3-3zm-27 58-2.972-1.783c-.6331208-.3796258-1.4238792-.3796258-2.057 0l-2.971 1.783v-7h8zm2-7h3c.5522847 0 1-.4477153 1-1s-.4477153-1-1-1h-17c-.55228475 0-1 .4477153-1 1s.44771525 1 1 1h2v3h-3.79c-2.12033461.0396542-3.93043498-1.5234967-4.2-3.627-.01078853-.1240215-.01412786-.2485786-.01-.373.00876947-2.2054964 1.79450365-3.9912305 4-4h37c-1.334579 2.4996884-1.334579 5.5003116 0 8h-21zm25 3h-1c-.944 0-2-1.711-2-4s1.056-4 2-4h1c.3507845-.0022166.6951198-.0944985 1-.268v7.268c0 .5522847-.4477153 1-1 1z"/><path id="Shape" d="m8 10c.55228475 0 1-.44771525 1-1v-2c0-.55228475-.44771525-1-1-1s-1 .44771525-1 1v2c0 .55228475.44771525 1 1 1z"/><path id="Shape" d="m7 15c0 .5522847.44771525 1 1 1s1-.4477153 1-1v-2c0-.5522847-.44771525-1-1-1s-1 .4477153-1 1z"/><path id="Shape" d="m7 21c0 .5522847.44771525 1 1 1s1-.4477153 1-1v-2c0-.5522847-.44771525-1-1-1s-1 .4477153-1 1z"/><path id="Shape" d="m7 27c0 .5522847.44771525 1 1 1s1-.4477153 1-1v-2c0-.5522847-.44771525-1-1-1s-1 .4477153-1 1z"/><path id="Shape" d="m7 33c0 .5522847.44771525 1 1 1s1-.4477153 1-1v-2c0-.5522847-.44771525-1-1-1s-1 .4477153-1 1z"/><path id="Shape" d="m7 39c0 .5522847.44771525 1 1 1s1-.4477153 1-1v-2c0-.5522847-.44771525-1-1-1s-1 .4477153-1 1z"/><path id="Shape" d="m33.75 7c-2.6893163-.02383508-5.2849265.98684183-7.25 2.823-1.9650735-1.83615817-4.5606837-2.84683508-7.25-2.823-2.2019506-.01715548-4.3179794.8534259-5.8703297 2.41518433-1.5523503 1.56175847-2.4101302 3.68300897-2.3796703 5.88481567 0 2.273.911 5.76 5.153 9.568.89 5.085 6.056 10.1 14.5 13.949.5359355.2420597 1.1500645.2420597 1.686 0 9.319-4.249 14.661-9.904 14.661-15.517.0411854-3.3390188-1.9450622-6.3699938-5.023-7.665 0-.114.023-.221.023-.338.0296458-2.2012903-.828494-4.3217611-2.3807546-5.8828648-1.5522605-1.56110373-3.6678223-2.43127556-5.8692454-2.4141352zm-20.75 8.3c-.0448124-1.6754818.5976004-3.2963917 1.7780375-4.4862723s2.7961768-1.84518839 4.4719625-1.8137277c2.4729286-.04863776 4.838347 1.0097494 6.45 2.886.1969496.2410204.4917446.3808293.803.3808293s.6060504-.1398089.803-.3808293c1.6142346-1.869343 3.9744728-2.92639569 6.444-2.886 1.6401291-.0310801 3.2241819.5970471 4.3973128 1.743674s1.837286 2.715915 1.8436872 4.356326c-.4106967-.063363-.8254566-.0967845-1.241-.1-2.6887103-.0246105-5.2841384.9845636-7.25 2.819-1.9658616-1.8344364-4.5612897-2.8436105-7.25-2.819-4.0842112-.034327-7.5643841 2.9569807-8.144 7-2.028-2.212-3.106-4.5-3.106-6.7zm32 8c0 4.8-4.916 9.788-13.513 13.7-7.976-3.641-12.781-8.216-13.411-12.7 0-.02-.009-.039-.011-.059-.0425012-.3118791-.0642158-.6262393-.065-.941-.0442364-1.6753164.5983627-3.29589 1.7786725-4.4856423 1.1803099-1.1897524 2.7957118-1.8452438 4.4713275-1.8143577 2.4729092-.0495933 4.8385876 1.0085434 6.45 2.885.1967934.2391708.4902738.3777478.8.3777478s.6032066-.138577.8-.3777478c1.615522-1.8709398 3.9784639-2.9278525 6.45-2.885 1.6756157-.0308861 3.2910176.6246053 4.4713275 1.8143577 1.1803098 1.1897523 1.8229089 2.8103259 1.7786725 4.4856423z"/><path id="Shape" d="m21 24.3c-.5522847 0-1-.4477153-1-1-.0300794-1.1406786.4063616-2.244285 1.2084913-3.0558516.8021298-.8115666 1.9005563-1.2608849 3.0415087-1.2441484.5522847 0 1 .4477153 1 1s-.4477153 1-1 1c-.6112753-.0193615-1.2026632.2184674-1.6303388.6556469-.4276756.4371794-.652451 1.0336509-.6196612 1.6443531 0 .5522847-.4477153 1-1 1z"/></g></g></g></svg>