<svg height="512" viewBox="0 0 50 60" width="512" xmlns="http://www.w3.org/2000/svg"><g id="Page-1" fill="none" fill-rule="evenodd"><g id="052---Adventure-Novel" fill-rule="nonzero" transform="translate(-1)"><path id="Shape" d="m50 3v39c0 1.1-.9 3-2 3h-41c-2.76142375 0-5 2.2385763-5 5v-44c0-2.76142375 2.23857625-5 5-5h41c1.1032019.0032948 1.9967052.89679813 2 2z" fill="#e8edfc"/><path id="Shape" d="m48 1h-3c1.1032019.0032948 1.9967052.89679813 2 2v39c0 1.1-.9 3-2 3h3c1.1 0 2-1.9 2-3v-39c-.0032948-1.10320187-.8967981-1.9967052-2-2z" fill="#cad9fc"/><path id="Shape" d="m47 55h-25v-5h-10v5h-4.79c-2.62768969.0421177-4.86508915-1.902135-5.19-4.51-.01643773-.162788-.02311634-.3264139-.02-.49 0-2.7614237 2.23857625-5 5-5h40c-1.66 0-3 2.24-3 5s1.34 5 3 5z" fill="#e8edfc"/><path id="Shape" d="m50 42v11c-.0032948 1.1032019-.8967981 1.9967052-2 2h-1c-1.66 0-3-2.24-3-5s1.34-5 3-5h1c1.1 0 2-1.9 2-3z" fill="#a4c2f7"/><path id="Shape" d="m48 45h-1v8c-.0036392.7004821-.3734912 1.3480075-.975 1.707.2933409.1822358.6297963.283345.975.293h1c1.1032019-.0032948 1.9967052-.8967981 2-2v-11c0 1.1-.9 3-2 3z" fill="#7facfa"/><path id="Shape" d="m22 50v8c-.0000627.3593049-.1928829.6909565-.505101.8687761-.3122182.1778196-.6958342.1744694-1.004899-.0087761l-2.98-1.79c-.3134634-.1899733-.7065366-.1899733-1.02 0l-2.98 1.79c-.3090648.1832455-.6926808.1865957-1.004899.0087761-.3122181-.1778196-.5050383-.5094712-.505101-.8687761v-8z" fill="#fff"/><path id="Shape" d="m27.029 29.213 17.485-10.608c.3012451-.1805102.4857224-.5058128.486-.857v-9.748c0-.55228475-.4477153-1-1-1h-9.748c-.3511872.00027757-.6764898.18475492-.857.486l-10.608 17.485z" fill="#fff"/><rect id="Rectangle-path" fill="#a4c2f7" height="6" rx="2" transform="matrix(.707 .707 -.707 .707 27.331 -7.557)" width="16" x="14.788" y="26.213"/><path id="Shape" d="m14.4825702 30.0169797h6v7c0 1.1045695-.8954305 2-2 2h-2c-1.1045695 0-2-.8954305-2-2z" fill="#a4c2f7" transform="matrix(.707 .707 -.707 .707 29.528 -2.252)"/><path id="Shape" d="m2 6v44c.0595869 2.8187131 2.39122068 5.0563654 5.21 5h3c-2.81877932.0563654-5.1504131-2.1812869-5.21-5v-44c0-2.76142375 2.23857625-5 5-5h-3c-2.76142375 0-5 2.23857625-5 5z" fill="#fff"/><path id="Rectangle-path" d="m1 6h2v8h-2z" fill="#fff"/><g fill="#428dff"><path id="Shape" d="m2.02 11c-.55228475.0027614-1.00223858-.4427153-1.005-.995-.00276142-.55228475.44271525-1.00223858.995-1.005h.01c.55228475 0 1 .44771525 1 1 0 .5522847-.44771525 1-1 1z"/><path id="Shape" d="m48 0h-41c-3.31233757.00330738-5.99669262 2.68766243-6 6 0 .35726559.19059892.68739261.5.8660254.30940108.1786328.69059892.1786328 1 0 .30940108-.17863279.5-.50875981.5-.8660254 0-2.209139 1.790861-4 4-4v1c0 .55228475.44771525 1 1 1s1-.44771525 1-1v-1h39c.5522847 0 1 .44771525 1 1v39c-.0286401.7798547-.3933003 1.5091751-1 2h-39v-1c0-.5522847-.44771525-1-1-1s-1 .4477153-1 1v1c-1.47930705.0013494-2.90517386.5531599-4 1.548v-31.548c0-.5522847-.44771525-1-1-1s-1 .4477153-1 1v36c-.00315317.1956308.00485985.3912822.024.586.38318859 3.1162408 3.04646318 5.4471442 6.186 5.414h3.79v2c-.0050454.722159.384077 1.3896095 1.015 1.741.6256978.3598127 1.3977993.3498452 2.014-.026l2.971-1.784 2.97 1.782c.617612.3710616 1.3870729.3812417 2.0142854.0266493s1.0152174-1.0191418 1.0157146-1.7396493v-2h25c1.6568542 0 3-1.3431458 3-3v-50c0-1.65685425-1.3431458-3-3-3zm-27 58-2.972-1.783c-.6331208-.3796258-1.4238792-.3796258-2.057 0l-2.971 1.783v-7h8zm2-7h3c.5522847 0 1-.4477153 1-1s-.4477153-1-1-1h-17c-.55228475 0-1 .4477153-1 1s.44771525 1 1 1h2v3h-3.79c-2.12033461.0396542-3.93043498-1.5234967-4.2-3.627-.01078853-.1240215-.01412786-.2485786-.01-.373.00876947-2.2054964 1.79450365-3.9912305 4-4h37c-1.334579 2.4996884-1.334579 5.5003116 0 8h-21zm25 3h-1c-.944 0-2-1.711-2-4s1.056-4 2-4h1c.3507845-.0022166.6951198-.0944985 1-.268v7.268c0 .5522847-.4477153 1-1 1z"/><path id="Shape" d="m8 10c.55228475 0 1-.44771525 1-1v-2c0-.55228475-.44771525-1-1-1s-1 .44771525-1 1v2c0 .55228475.44771525 1 1 1z"/><path id="Shape" d="m7 15c0 .5522847.44771525 1 1 1s1-.4477153 1-1v-2c0-.5522847-.44771525-1-1-1s-1 .4477153-1 1z"/><path id="Shape" d="m7 21c0 .5522847.44771525 1 1 1s1-.4477153 1-1v-2c0-.5522847-.44771525-1-1-1s-1 .4477153-1 1z"/><path id="Shape" d="m7 27c0 .5522847.44771525 1 1 1s1-.4477153 1-1v-2c0-.5522847-.44771525-1-1-1s-1 .4477153-1 1z"/><path id="Shape" d="m7 33c0 .5522847.44771525 1 1 1s1-.4477153 1-1v-2c0-.5522847-.44771525-1-1-1s-1 .4477153-1 1z"/><path id="Shape" d="m7 39c0 .5522847.44771525 1 1 1s1-.4477153 1-1v-2c0-.5522847-.44771525-1-1-1s-1 .4477153-1 1z"/><path id="Shape" d="m12.887 37.7 1.413 1.412c.5626237.562719 1.3257625.8788593 2.1215.8788593s1.5588763-.3161403 2.1215-.8788593l4.243-4.242 1.414 1.414c1.1714996 1.1711458 3.0705004 1.1711458 4.242 0l1.415-1.414c1.1711458-1.1714996 1.1711458-3.0705004 0-4.242l-1.221-1.221 16.394-9.945c.600128-.3635459.9676553-1.0133492.97-1.715v-9.747c0-1.1045695-.8954305-2-2-2h-9.748c-.7002388.00177485-1.3489789.36820685-1.712.967l-9.947 16.4-1.22-1.22c-.5626237-.562719-1.3257625-.8788593-2.1215-.8788593s-1.5588763.3161403-2.1215.8788593l-1.414 1.414c-1.1711458 1.1714996-1.1711458 3.0705004 0 4.242l1.414 1.414-4.243 4.243c-1.1698135 1.1712702-1.1698135 3.0687298 0 4.24zm21.365-29.7h9.748v9.751l-16.815 10.2-3.132-3.132zm-17.122 16.971 1.414-1.414c.3904999-.3903819 1.0235001-.3903819 1.414 0l8.486 8.485c.3903819.3904999.3903819 1.0235001 0 1.414l-1.415 1.414c-.3947318.3790637-1.0182682.3790637-1.413 0l-8.486-8.485c-.3903819-.3904999-.3903819-1.0235001 0-1.414zm-2.83 9.899 4.243-4.243 1.414 1.415 1.415 1.414-4.243 4.244c-.3947318.3790637-1.0182682.3790637-1.413 0l-1.416-1.416c-.3903819-.3904999-.3903819-1.0235001 0-1.414z"/><path id="Shape" d="m27.737 24.264c.3904999.3903819 1.0235001.3903819 1.414 0l11.313-11.315c.3789722-.3923789.3735524-1.0160848-.0121814-1.4018186s-1.0094397-.3911536-1.4018186-.0121814l-11.313 11.315c-.3903819.3904999-.3903819 1.0235001 0 1.414z"/></g></g></g></svg>