<svg height="512" viewBox="0 0 50 60" width="512" xmlns="http://www.w3.org/2000/svg" xmlns:xlink="http://www.w3.org/1999/xlink"><linearGradient id="linearGradient-1" x1="12.849%" x2="74.78%" y1="24.753%" y2="93.739%"><stop offset="0" stop-color="#d3dff2"/><stop offset=".172" stop-color="#d3dff2"/><stop offset=".2" stop-color="#d3dff2"/><stop offset=".2" stop-color="#dae2f2"/><stop offset=".201" stop-color="#ebeaf2"/><stop offset=".201" stop-color="#f6eff2"/><stop offset=".202" stop-color="#fdf2f2"/><stop offset=".205" stop-color="#fff3f2"/><stop offset=".252" stop-color="#fff3f2"/><stop offset=".26" stop-color="#fff3f2"/><stop offset=".26" stop-color="#d3dff2"/><stop offset=".397" stop-color="#d3dff2"/><stop offset=".42" stop-color="#d3dff2"/><stop offset=".42" stop-color="#dae2f2"/><stop offset=".421" stop-color="#ebeaf2"/><stop offset=".421" stop-color="#f6eff2"/><stop offset=".422" stop-color="#fdf2f2"/><stop offset=".425" stop-color="#fff3f2"/><stop offset=".489" stop-color="#fff3f2"/><stop offset=".5" stop-color="#fff3f2"/><stop offset=".5" stop-color="#f8f0f2"/><stop offset=".5" stop-color="#e7e8f2"/><stop offset=".5" stop-color="#dce3f2"/><stop offset=".5" stop-color="#d5e0f2"/><stop offset=".501" stop-color="#d3dff2"/><stop offset=".706" stop-color="#d3dff2"/><stop offset=".74" stop-color="#d3dff2"/><stop offset=".741" stop-color="#fff3f2"/><stop offset=".835" stop-color="#fff3f2"/><stop offset=".85" stop-color="#fff3f2"/><stop offset=".851" stop-color="#d3dff2"/></linearGradient><g id="Page-1" fill="none" fill-rule="evenodd"><g id="053---Science-Book" fill-rule="nonzero" transform="translate(-1)"><path id="Shape" d="m50 3v39c0 1.1-.9 3-2 3h-41c-2.76142375 0-5 2.2385763-5 5v-44c0-2.76142375 2.23857625-5 5-5h41c1.1032019.0032948 1.9967052.89679813 2 2z" fill="#e8edfc"/><path id="Shape" d="m48 1h-3c1.1032019.0032948 1.9967052.89679813 2 2v39c0 1.1-.9 3-2 3h3c1.1 0 2-1.9 2-3v-39c-.0032948-1.10320187-.8967981-1.9967052-2-2z" fill="#cad9fc"/><path id="Shape" d="m47 55h-25v-5h-10v5h-4.79c-2.62768969.0421177-4.86508915-1.902135-5.19-4.51-.01643773-.162788-.02311634-.3264139-.02-.49 0-2.7614237 2.23857625-5 5-5h40c-1.66 0-3 2.24-3 5s1.34 5 3 5z" fill="#e8edfc"/><path id="Shape" d="m50 42v11c-.0032948 1.1032019-.8967981 1.9967052-2 2h-1c-1.66 0-3-2.24-3-5s1.34-5 3-5h1c1.1 0 2-1.9 2-3z" fill="#a4c2f7"/><path id="Shape" d="m48 45h-1v8c-.0036392.7004821-.3734912 1.3480075-.975 1.707.2933409.1822358.6297963.283345.975.293h1c1.1032019-.0032948 1.9967052-.8967981 2-2v-11c0 1.1-.9 3-2 3z" fill="#7facfa"/><path id="Shape" d="m22 50v8c-.0000627.3593049-.1928829.6909565-.505101.8687761-.3122182.1778196-.6958342.1744694-1.004899-.0087761l-2.98-1.79c-.3134634-.1899733-.7065366-.1899733-1.02 0l-2.98 1.79c-.3090648.1832455-.6926808.1865957-1.004899.0087761-.3122181-.1778196-.5050383-.5094712-.505101-.8687761v-8z" fill="#fff"/><path id="Shape" d="m42 28c.0002201 3.5399025-1.4431257 6.926815-3.9966534 9.378428s-5.9963872 3.7558911-9.5333466 3.611572c-5.1748466-.2526095-9.7180002-3.5228967-11.6-8.35 4.26.87 8.96.38 13.68-4.02 3.0173279-2.7377774 7.0752521-4.0295986 11.12-3.54.2216021.9574597.3323299 1.9372329.33 2.92z" fill="#e8edfc"/><path id="Shape" d="m41.67 25.08c-4.0447479-.4895986-8.1026721.8022226-11.12 3.54-4.72 4.4-9.42 4.89-13.68 4.02-.5094005-1.2894526-.8000587-2.6548705-.86-4.04-.2578007-5.5977344 3.0987398-10.731267 8.33-12.74.3925241-.1418868.6556404-.5126416.66-.93v-4.98c.1647784.03198.3321518.04871734.5.05h7c.1678482-.00128266.3352216-.01802.5-.05v4.98c.0043596.4173584.2674759.7881132.66.93 4.0373586 1.5497255 7.0397602 5.0056735 8.01 9.22z" fill="url(#linearGradient-1)"/><path id="Shape" d="m35 7.5c.0041496 1.18955971-.8336921 2.21591575-2 2.45-.1647784.03198-.3321518.04871734-.5.05h-7c-.1678482-.00128266-.3352216-.01802-.5-.05-1.2586964-.25558588-2.1189343-1.42336721-1.9898555-2.70124803.1290789-1.27788081 1.2054727-2.25004277 2.4898555-2.24875197h7c1.3807119 0 2.5 1.11928813 2.5 2.5z" fill="#a4c2f7"/><path id="Shape" d="m10 1h-3c-2.76142375 0-5 2.23857625-5 5v44c.0595869 2.8187131 2.39122068 5.0563654 5.21 5h3c-2.81877932.0563654-5.1504131-2.1812869-5.21-5v-44c0-2.76142375 2.23857625-5 5-5z" fill="#fff"/><path id="Rectangle-path" d="m1 6h2v8h-2z" fill="#fff"/><g fill="#428dff"><circle id="Oval" cx="36" cy="31" r="1"/><circle id="Oval" cx="33" cy="36" r="1"/><circle id="Oval" cx="28" cy="36" r="1"/><path id="Shape" d="m2.02 11c-.55228475.0027614-1.00223858-.4427153-1.005-.995-.00276142-.55228475.44271525-1.00223858.995-1.005h.01c.55228475 0 1 .44771525 1 1 0 .5522847-.44771525 1-1 1z"/><path id="Shape" d="m48 0h-41c-3.31233757.00330738-5.99669262 2.68766243-6 6 0 .35726559.19059892.68739261.5.8660254.30940108.1786328.69059892.1786328 1 0 .30940108-.17863279.5-.50875981.5-.8660254 0-2.209139 1.790861-4 4-4v1c0 .55228475.44771525 1 1 1s1-.44771525 1-1v-1h39c.5522847 0 1 .44771525 1 1v39c-.0286401.7798547-.3933003 1.5091751-1 2h-39v-1c0-.5522847-.44771525-1-1-1s-1 .4477153-1 1v1c-1.47930705.0013494-2.90517386.5531599-4 1.548v-31.548c0-.5522847-.44771525-1-1-1s-1 .4477153-1 1v36c-.00315317.1956308.00485985.3912822.024.586.38318859 3.1162408 3.04646318 5.4471442 6.186 5.414h3.79v2c-.0050454.722159.384077 1.3896095 1.015 1.741.6256978.3598127 1.3977993.3498452 2.014-.026l2.971-1.784 2.97 1.782c.617612.3710616 1.3870729.3812417 2.0142854.0266493s1.0152174-1.0191418 1.0157146-1.7396493v-2h25c1.6568542 0 3-1.3431458 3-3v-50c0-1.65685425-1.3431458-3-3-3zm-27 58-2.972-1.783c-.6331208-.3796258-1.4238792-.3796258-2.057 0l-2.971 1.783v-7h8zm2-7h3c.5522847 0 1-.4477153 1-1s-.4477153-1-1-1h-17c-.55228475 0-1 .4477153-1 1s.44771525 1 1 1h2v3h-3.79c-2.12033461.0396542-3.93043498-1.5234967-4.2-3.627-.01078853-.1240215-.01412786-.2485786-.01-.373.00876947-2.2054964 1.79450365-3.9912305 4-4h37c-1.334579 2.4996884-1.334579 5.5003116 0 8h-21zm25 3h-1c-.944 0-2-1.711-2-4s1.056-4 2-4h1c.3507845-.0022166.6951198-.0944985 1-.268v7.268c0 .5522847-.4477153 1-1 1z"/><path id="Shape" d="m8 10c.55228475 0 1-.44771525 1-1v-2c0-.55228475-.44771525-1-1-1s-1 .44771525-1 1v2c0 .55228475.44771525 1 1 1z"/><path id="Shape" d="m7 15c0 .5522847.44771525 1 1 1s1-.4477153 1-1v-2c0-.5522847-.44771525-1-1-1s-1 .4477153-1 1z"/><path id="Shape" d="m7 21c0 .5522847.44771525 1 1 1s1-.4477153 1-1v-2c0-.5522847-.44771525-1-1-1s-1 .4477153-1 1z"/><path id="Shape" d="m7 27c0 .5522847.44771525 1 1 1s1-.4477153 1-1v-2c0-.5522847-.44771525-1-1-1s-1 .4477153-1 1z"/><path id="Shape" d="m7 33c0 .5522847.44771525 1 1 1s1-.4477153 1-1v-2c0-.5522847-.44771525-1-1-1s-1 .4477153-1 1z"/><path id="Shape" d="m7 39c0 .5522847.44771525 1 1 1s1-.4477153 1-1v-2c0-.5522847-.44771525-1-1-1s-1 .4477153-1 1z"/><path id="Shape" d="m15.015 28.646c.3670986 7.2386563 6.1734728 13.0138646 13.414 13.342.194.008.386.012.579.012 4.2729635.0042573 8.3131725-1.9461503 10.9676157-5.2946077 2.6544432-3.3484573 3.6315186-7.7271217 2.6523843-11.8863923-.006-.022-.011-.044-.018-.065-1.0847848-4.4891997-4.3021715-8.1609817-8.61-9.826v-4.273c.3624258-.1677978.6929939-.3971992.977-.678 1.0027904-1.00106595 1.3030697-2.50798344.760597-3.8169697-.5424726-1.30898625-1.8206571-2.16175369-3.237597-2.1600303h-7c-.9291915-.0036775-1.8211966.36472025-2.477 1.023-.8028069.80297056-1.1648031 1.94629452-.9704291 3.0649899.1943741 1.11869538.9208177 2.0729022 1.9474291 2.5580101l-.018 4.284c-5.6353451 2.1583247-9.2505287 7.6881404-8.967 13.716zm22.3 8.008c-2.3487046 2.276503-5.5324095 3.4834165-8.8 3.336-4.1386271-.1853075-7.8921763-2.4827514-9.94-6.084.564.056 1.121.089 1.669.089 4.1332461-.0411764 8.0837125-1.7097499 10.995-4.644 2.605259-2.3836731 6.078473-3.586997 9.6-3.326.6693132 3.9073053-.6486622 7.8915945-3.516 10.629zm2.985-12.647c-3.8531809-.1340484-7.6029628 1.2614701-10.431 3.882-3.691 3.44-7.606 4.657-12.261 3.852-.3438208-1.0288788-.5437139-2.10036-.594-3.184-.244525-5.165466 2.8516512-9.9052765 7.68-11.757.7836296-.2899329 1.3044411-1.0364558 1.306-1.872v-3.928h6v3.928c.0018746.8329198.5197598 1.5774794 1.3 1.869 3.2719451 1.269298 5.827943 3.9019758 7 7.21zm-15.863-17.569c.2827147-.28045868.6647731-.43788253 1.063-.438h7c.6079673-.00149536 1.1567088.36413773 1.3894378.92579927.2327291.56166155.1034115 1.20825392-.3274378 1.63720073-.205175.20317489-.4650994.3421719-.748.4-.1033788.02151967-.2084507.03390076-.314.037h-7c-.100694-.00187542-.2010501-.01224556-.3-.031-.5409607-.11074585-.9773344-.50974617-1.1359448-1.03865623-.1586103-.52891006-.0138068-1.10219469.3769448-1.49234377z"/><path id="Shape" d="m20 29c-.5522847 0-1-.4477153-1-1-.0200435-4.144579 2.5361772-7.86569 6.412-9.334.3353969-.1365145.7183905-.0810444 1.0012744.1450176.2828838.226062.4214548.5873916.3622712.9446375s-.3068737.654585-.6475456.7773449c-3.1001469 1.1749072-5.1444919 4.1517254-5.128 7.467 0 .5522847-.4477153 1-1 1z"/></g></g></g></svg>