<svg height="512" viewBox="0 0 50 60" width="512" xmlns="http://www.w3.org/2000/svg"><g id="Page-1" fill="none" fill-rule="evenodd"><g id="054---Fantasy-Novel" fill-rule="nonzero" transform="translate(-1)"><path id="Shape" d="m50 3v39c0 1.1-.9 3-2 3h-41c-2.76142375 0-5 2.2385763-5 5v-44c0-2.76142375 2.23857625-5 5-5h41c1.1032019.0032948 1.9967052.89679813 2 2z" fill="#e8edfc"/><path id="Shape" d="m48 1h-3c1.1032019.0032948 1.9967052.89679813 2 2v39c0 1.1-.9 3-2 3h3c1.1 0 2-1.9 2-3v-39c-.0032948-1.10320187-.8967981-1.9967052-2-2z" fill="#cad9fc"/><path id="Shape" d="m47 55h-25v-5h-10v5h-4.79c-2.62768969.0421177-4.86508915-1.902135-5.19-4.51-.01643773-.162788-.02311634-.3264139-.02-.49 0-2.7614237 2.23857625-5 5-5h40c-1.66 0-3 2.24-3 5s1.34 5 3 5z" fill="#e8edfc"/><path id="Shape" d="m50 42v11c-.0032948 1.1032019-.8967981 1.9967052-2 2h-1c-1.66 0-3-2.24-3-5s1.34-5 3-5h1c1.1 0 2-1.9 2-3z" fill="#a4c2f7"/><path id="Shape" d="m22 50v8c-.0000627.3593049-.1928829.6909565-.505101.8687761-.3122182.1778196-.6958342.1744694-1.004899-.0087761l-2.98-1.79c-.3134634-.1899733-.7065366-.1899733-1.02 0l-2.98 1.79c-.3090648.1832455-.6926808.1865957-1.004899.0087761-.3122181-.1778196-.5050383-.5094712-.505101-.8687761v-8z" fill="#fff"/><path id="Shape" d="m45.88 21.6c-.1822135.3615105-.5552231.5868704-.96.58l-5.81-.08c-.3511143-.0006429-.6801149.1713347-.88.46l-3.35 4.73c-.2357658.3330827-.6400634.5035961-1.0431501.4399508-.4030867-.0636452-.7351793-.3504308-.8568499-.7399508l-1.19-3.83-.53-1.71c-.1076696-.337713-.372287-.6023304-.71-.71l-1.71-.53-3.83-1.19c-.38952-.1216706-.6763056-.4537632-.7399508-.8568499-.0636453-.4030867.1068681-.8073843.4399508-1.0431501l4.73-3.35c.2909199-.2024807.4630764-.5355661.46-.89l-.08-5.8c-.0068704-.40477695.2184895-.77778651.58-.96.3631654-.18716908.8010396-.15229414 1.13.09l4.65 3.48c.2805765.21180994.6489136.26818807.98.15l5.5-1.86c.3863622-.12892677.812407-.02842423 1.1004156.25958436.2880086.2880086.3885112.71405339.2595844 1.10041564l-1.86 5.49c-.1188361.3343072-.0625341.7059004.15.99l3.48 4.65c.2422941.3289604.2771691.7668346.09 1.13z" fill="#e8edfc"/><path id="Shape" d="m31.79 23.16-14.78 15.92c-.7210711.7758127-1.8083547 1.0957406-2.834693.8340946s-1.8277556-1.0630633-2.0894016-2.0894016.0582819-2.1136219.8340946-2.834693l15.92-14.78 1.71.53c.337713.1076696.6023304.372287.71.71z" fill="#a4c2f7"/><path id="Shape" d="m2 50c.0595869 2.8187131 2.39122068 5.0563654 5.21 5h3c-2.81877932.0563654-5.1504131-2.1812869-5.21-5v-44c0-2.76142375 2.23857625-5 5-5h-3c-2.76142375 0-5 2.23857625-5 5z" fill="#fff"/><path id="Rectangle-path" d="m1 6h2v8h-2z" fill="#fff"/><g fill="#428dff"><path id="Shape" d="m2.02 11c-.55228475.0027614-1.00223858-.4427153-1.005-.995-.00276142-.55228475.44271525-1.00223858.995-1.005h.01c.55228475 0 1 .44771525 1 1 0 .5522847-.44771525 1-1 1z"/><path id="Shape" d="m48 0h-41c-3.31233757.00330738-5.99669262 2.68766243-6 6 0 .35726559.19059892.68739261.5.8660254.30940108.1786328.69059892.1786328 1 0 .30940108-.17863279.5-.50875981.5-.8660254 0-2.209139 1.790861-4 4-4v1c0 .55228475.44771525 1 1 1s1-.44771525 1-1v-1h39c.5522847 0 1 .44771525 1 1v39c-.0286401.7798547-.3933003 1.5091751-1 2h-39v-1c0-.5522847-.44771525-1-1-1s-1 .4477153-1 1v1c-1.47930705.0013494-2.90517386.5531599-4 1.548v-31.548c0-.5522847-.44771525-1-1-1s-1 .4477153-1 1v36c-.00315317.1956308.00485985.3912822.024.586.38318859 3.1162408 3.04646318 5.4471442 6.186 5.414h3.79v2c-.0050454.722159.384077 1.3896095 1.015 1.741.6256978.3598127 1.3977993.3498452 2.014-.026l2.971-1.784 2.97 1.782c.617612.3710616 1.3870729.3812417 2.0142854.0266493s1.0152174-1.0191418 1.0157146-1.7396493v-2h25c1.6568542 0 3-1.3431458 3-3v-50c0-1.65685425-1.3431458-3-3-3zm-27 58-2.972-1.783c-.6331208-.3796258-1.4238792-.3796258-2.057 0l-2.971 1.783v-7h8zm2-7h3c.5522847 0 1-.4477153 1-1s-.4477153-1-1-1h-17c-.55228475 0-1 .4477153-1 1s.44771525 1 1 1h2v3h-3.79c-2.12033461.0396542-3.93043498-1.5234967-4.2-3.627-.01078853-.1240215-.01412786-.2485786-.01-.373.00876947-2.2054964 1.79450365-3.9912305 4-4h37c-1.334579 2.4996884-1.334579 5.5003116 0 8h-21zm25 3h-1c-.944 0-2-1.711-2-4s1.056-4 2-4h1c.3507845-.0022166.6951198-.0944985 1-.268v7.268c0 .5522847-.4477153 1-1 1z"/><path id="Shape" d="m8 10c.55228475 0 1-.44771525 1-1v-2c0-.55228475-.44771525-1-1-1s-1 .44771525-1 1v2c0 .55228475.44771525 1 1 1z"/><path id="Shape" d="m7 15c0 .5522847.44771525 1 1 1s1-.4477153 1-1v-2c0-.5522847-.44771525-1-1-1s-1 .4477153-1 1z"/><path id="Shape" d="m7 21c0 .5522847.44771525 1 1 1s1-.4477153 1-1v-2c0-.5522847-.44771525-1-1-1s-1 .4477153-1 1z"/><path id="Shape" d="m7 27c0 .5522847.44771525 1 1 1s1-.4477153 1-1v-2c0-.5522847-.44771525-1-1-1s-1 .4477153-1 1z"/><path id="Shape" d="m7 33c0 .5522847.44771525 1 1 1s1-.4477153 1-1v-2c0-.5522847-.44771525-1-1-1s-1 .4477153-1 1z"/><path id="Shape" d="m7 39c0 .5522847.44771525 1 1 1s1-.4477153 1-1v-2c0-.5522847-.44771525-1-1-1s-1 .4477153-1 1z"/><path id="Shape" d="m11 37.035c-.0174284 1.0455602.3857564 2.0543212 1.1190458 2.799832.7332894.7455109 1.7352488 1.1653132 2.7809542 1.165168h.068c1.0570242-.014903 2.0617607-.462336 2.78-1.238l13.601-14.657.679 2.183c.233415.7535409.8755659 1.3083903 1.655 1.43.1089221.0162402.2188746.0245952.329.025.6708148.0008333 1.2998122-.3257974 1.685-.875l3.403-4.768 5.8.079c.7919578.0242887 1.5244326-.4184847 1.871-1.131.3546465-.7032725.2822868-1.5464368-.187-2.179l-3.484-4.714 1.86-5.493c.2527828-.74668176.0599609-1.57212206-.4974585-2.12954147-.5574194-.55741942-1.3828597-.75024136-2.1295415-.49745853l-5.489 1.865-.066-.011-4.651-3.477c-.6318555-.472836-1.4775942-.54525499-2.180638-.18672386-.7030439.35853112-1.1410557 1.08562407-1.129362 1.87472386l.049 5.858-4.735 3.342c-.6431326.4556786-.9720263 1.2367923-.8485406 2.0152611.1234856.7784689.6779621 1.4194568 1.4305406 1.6537389l2.172.688-14.648 13.6c-.7747952.717935-1.2218113 1.7218241-1.237 2.778zm14.286-19.1 4.734-3.347c.5573459-.3932529.8850511-1.035944.876-1.718l-.079-5.8-1 .014 1.113-.069 4.652 3.472c.5460039.4050784 1.2557505.5171436 1.9.3l5.497-1.857.091.091-1.86 5.494c-.2180245.6441749-.1058934 1.3543385.3 1.9l3.473 4.652-.056.113-5.8-.079c-.6771016.0094364-1.3114481.3327056-1.717.875l-3.347 4.735.816.577-.942-.6-1.726-5.543c-.2036675-.6499386-.7129121-1.1588096-1.363-1.362l-5.541-1.725zm-11.686 17.787 15.476-14.367 1.227.389.36 1.159-14.384 15.497c-.3487575.3759751-.8362262.5927884-1.349.6-.5155848.0143189-1.0135776-.18807-1.373-.558-.3640419-.3617086-.5651574-.8560245-.5570455-1.3691461.0081118-.5131217.224752-1.0008333.6000455-1.3508539z"/><path id="Shape" d="m26 11c.4043959-.0000863.7689341-.2437275.923678-.6173454.1547439-.373618.0692299-.80366035-.216678-1.0896546l-3-3c-.3923789-.37897221-1.0160848-.37355237-1.4018186.01218142-.3857338.3857338-.3911536 1.00943969-.0121814 1.40181858l3 3c.1874927.1875494.4418052.2929434.707.293z"/><path id="Shape" d="m20.757 15.97c.0795104.0196732.1610923.029745.243.03.5047125-.0005564.929899-.377126.9914367-.8780733.0615377-.5009472-.259865-.9692298-.7494367-1.0919267l-4-1c-.5339666-.1297214-1.072566.1957027-1.2060974.7287292-.1335314.5330266.1880381 1.0739362.7200974 1.2112708z"/><path id="Shape" d="m36.757 30.03c-.5352153.1342322-.8605558.6766155-.727 1.212l1 4c.1110708.4453282.5110295.7578732.97.758.0822423-.0001749.1641648-.0102473.244-.03.5352153-.1342322.8605558-.6766155.727-1.212l-1-4c-.0642228-.2576607-.2282896-.4791976-.4560247-.6157637-.2277352-.1365661-.5004365-.176946-.7579753-.1122363z"/><path id="Shape" d="m41.293 25.293c-.3903819.3904999-.3903819 1.0235001 0 1.414l3 3c.3923789.3789722 1.0160848.3735524 1.4018186-.0121814s.3911536-1.0094397.0121814-1.4018186l-3-3c-.3904999-.3903819-1.0235001-.3903819-1.414 0z"/></g></g></g></svg>