<svg height="512" viewBox="0 0 50 60" width="512" xmlns="http://www.w3.org/2000/svg"><g id="Page-1" fill="none" fill-rule="evenodd"><g id="055---Horror-Novel" fill-rule="nonzero" transform="translate(-1)"><path id="Shape" d="m50 3v39c0 1.1-.9 3-2 3h-41c-2.76142375 0-5 2.2385763-5 5v-44c0-2.76142375 2.23857625-5 5-5h41c1.1032019.0032948 1.9967052.89679813 2 2z" fill="#e8edfc"/><path id="Shape" d="m48 1h-3c1.1032019.0032948 1.9967052.89679813 2 2v39c0 1.1-.9 3-2 3h3c1.1 0 2-1.9 2-3v-39c-.0032948-1.10320187-.8967981-1.9967052-2-2z" fill="#cad9fc"/><path id="Shape" d="m47 55h-25v-5h-10v5h-4.79c-2.62768969.0421177-4.86508915-1.902135-5.19-4.51-.01643773-.162788-.02311634-.3264139-.02-.49 0-2.7614237 2.23857625-5 5-5h40c-1.66 0-3 2.24-3 5s1.34 5 3 5z" fill="#e8edfc"/><path id="Shape" d="m50 42v11c-.0032948 1.1032019-.8967981 1.9967052-2 2h-1c-1.66 0-3-2.24-3-5s1.34-5 3-5h1c1.1 0 2-1.9 2-3z" fill="#a4c2f7"/><path id="Shape" d="m48 45h-1v8c-.0036392.7004821-.3734912 1.3480075-.975 1.707.2933409.1822358.6297963.283345.975.293h1c1.1032019-.0032948 1.9967052-.8967981 2-2v-11c0 1.1-.9 3-2 3z" fill="#7facfa"/><path id="Shape" d="m22 50v8c-.0000627.3593049-.1928829.6909565-.505101.8687761-.3122182.1778196-.6958342.1744694-1.004899-.0087761l-2.98-1.79c-.3134634-.1899733-.7065366-.1899733-1.02 0l-2.98 1.79c-.3090648.1832455-.6926808.1865957-1.004899.0087761-.3122181-.1778196-.5050383-.5094712-.505101-.8687761v-8z" fill="#fff"/><path id="Shape" d="m39 31v2c0 1.6568542-1.3431458 3-3 3h-14c-1.6568542 0-3-1.3431458-3-3v-2c0-1.1045695-.8954305-2-2-2-1.6568542 0-3-1.3431458-3-3v-7c0-6.0751322 4.9248678-11 11-11h8c6.0751322 0 11 4.9248678 11 11v7c0 1.6568542-1.3431458 3-3 3-1.1045695 0-2 .8954305-2 2z" fill="#fff"/><ellipse id="Oval" cx="22.5" cy="19" fill="#a4c2f7" rx="3.5" ry="3"/><ellipse id="Oval" cx="35.5" cy="19" fill="#a4c2f7" rx="3.5" ry="3"/><path id="Shape" d="m29 28c2.7 0 3.123-1.827 3.111-3.011-.0060282-.5479842-.4519827-.9890332-1-.989h-4.22c-.5480173-.0000332-.9939718.4410158-1 .989-.014 1.184.409 3.011 3.109 3.011z" fill="#a4c2f7"/><path id="Shape" d="m2 6v44c.0595869 2.8187131 2.39122068 5.0563654 5.21 5h3c-2.81877932.0563654-5.1504131-2.1812869-5.21-5v-44c0-2.76142375 2.23857625-5 5-5h-3c-2.76142375 0-5 2.23857625-5 5z" fill="#fff"/><path id="Rectangle-path" d="m1 6h2v8h-2z" fill="#fff"/><g fill="#428dff"><path id="Shape" d="m2.02 11c-.55228475.0027614-1.00223858-.4427153-1.005-.995-.00276142-.55228475.44271525-1.00223858.995-1.005h.01c.55228475 0 1 .44771525 1 1 0 .5522847-.44771525 1-1 1z"/><path id="Shape" d="m48 0h-41c-3.31233757.00330738-5.99669262 2.68766243-6 6 0 .35726559.19059892.68739261.5.8660254.30940108.1786328.69059892.1786328 1 0 .30940108-.17863279.5-.50875981.5-.8660254 0-2.209139 1.790861-4 4-4v1c0 .55228475.44771525 1 1 1s1-.44771525 1-1v-1h39c.5522847 0 1 .44771525 1 1v39c-.0286401.7798547-.3933003 1.5091751-1 2h-39v-1c0-.5522847-.44771525-1-1-1s-1 .4477153-1 1v1c-1.47930705.0013494-2.90517386.5531599-4 1.548v-31.548c0-.5522847-.44771525-1-1-1s-1 .4477153-1 1v36c-.00315317.1956308.00485985.3912822.024.586.38318859 3.1162408 3.04646318 5.4471442 6.186 5.414h3.79v2c-.0050454.722159.384077 1.3896095 1.015 1.741.6256978.3598127 1.3977993.3498452 2.014-.026l2.971-1.784 2.97 1.782c.617612.3710616 1.3870729.3812417 2.0142854.0266493s1.0152174-1.0191418 1.0157146-1.7396493v-2h25c1.6568542 0 3-1.3431458 3-3v-50c0-1.65685425-1.3431458-3-3-3zm-27 58-2.972-1.783c-.6331208-.3796258-1.4238792-.3796258-2.057 0l-2.971 1.783v-7h8zm2-7h3c.5522847 0 1-.4477153 1-1s-.4477153-1-1-1h-17c-.55228475 0-1 .4477153-1 1s.44771525 1 1 1h2v3h-3.79c-2.12033461.0396542-3.93043498-1.5234967-4.2-3.627-.01078853-.1240215-.01412786-.2485786-.01-.373.00876947-2.2054964 1.79450365-3.9912305 4-4h37c-1.334579 2.4996884-1.334579 5.5003116 0 8h-21zm25 3h-1c-.944 0-2-1.711-2-4s1.056-4 2-4h1c.3507845-.0022166.6951198-.0944985 1-.268v7.268c0 .5522847-.4477153 1-1 1z"/><path id="Shape" d="m8 10c.55228475 0 1-.44771525 1-1v-2c0-.55228475-.44771525-1-1-1s-1 .44771525-1 1v2c0 .55228475.44771525 1 1 1z"/><path id="Shape" d="m7 15c0 .5522847.44771525 1 1 1s1-.4477153 1-1v-2c0-.5522847-.44771525-1-1-1s-1 .4477153-1 1z"/><path id="Shape" d="m7 21c0 .5522847.44771525 1 1 1s1-.4477153 1-1v-2c0-.5522847-.44771525-1-1-1s-1 .4477153-1 1z"/><path id="Shape" d="m7 27c0 .5522847.44771525 1 1 1s1-.4477153 1-1v-2c0-.5522847-.44771525-1-1-1s-1 .4477153-1 1z"/><path id="Shape" d="m7 33c0 .5522847.44771525 1 1 1s1-.4477153 1-1v-2c0-.5522847-.44771525-1-1-1s-1 .4477153-1 1z"/><path id="Shape" d="m7 39c0 .5522847.44771525 1 1 1s1-.4477153 1-1v-2c0-.5522847-.44771525-1-1-1s-1 .4477153-1 1z"/><path id="Shape" d="m22 37h14c2.209139 0 4-1.790861 4-4v-2c0-.5522847.4477153-1 1-1 .054-.029.06 0 .089 0 2.1743056-.0483902 3.9115384-1.825156 3.911-4v-7c-.0071648-6.624447-5.375553-11.99283515-12-12h-8c-6.624447.00716485-11.9928352 5.375553-12 12v7c0 2.209139 1.790861 4 4 4 .5522847 0 1 .4477153 1 1v2c0 2.209139 1.790861 4 4 4zm-5-9c-1.1045695 0-2-.8954305-2-2v-7c.0060624-5.5203344 4.4796656-9.99393763 10-10h8c5.5203344.00606237 9.9939376 4.4796656 10 10v7c0 1.1045695-.8954305 2-2 2-.031 0-.062 0-.092 0-1.6208185.0497283-2.9087627 1.378419-2.908 3v2c0 1.1045695-.8954305 2-2 2v-4c0-.5522847-.4477153-1-1-1s-1 .4477153-1 1v4h-2v-4c0-.5522847-.4477153-1-1-1s-1 .4477153-1 1v4h-2v-4c0-.5522847-.4477153-1-1-1s-1 .4477153-1 1v4h-2v-4c0-.5522847-.4477153-1-1-1s-1 .4477153-1 1v4c-1.1045695 0-2-.8954305-2-2v-2c0-1.6568542-1.3431458-3-3-3z"/><path id="Shape" d="m22.5 23c2.3433786.1270679 4.3514506-1.657885 4.5-4-.1485494-2.342115-2.1566214-4.1270679-4.5-4-2.3433786-.1270679-4.3514506 1.657885-4.5 4 .1485494 2.342115 2.1566214 4.1270679 4.5 4zm0-6c1.2367154-.1179166 2.3435665.7675642 2.5 2-.1564335 1.2324358-1.2632846 2.1179166-2.5 2-1.2367154.1179166-2.3435665-.7675642-2.5-2 .1564335-1.2324358 1.2632846-2.1179166 2.5-2z"/><path id="Shape" d="m35.5 23c2.3433786.1270679 4.3514506-1.657885 4.5-4-.1485494-2.342115-2.1566214-4.1270679-4.5-4-2.3433786-.1270679-4.3514506 1.657885-4.5 4 .1485494 2.342115 2.1566214 4.1270679 4.5 4zm0-6c1.2367154-.1179166 2.3435665.7675642 2.5 2-.1564335 1.2324358-1.2632846 2.1179166-2.5 2-1.2367154.1179166-2.3435665-.7675642-2.5-2 .1564335-1.2324358 1.2632846-2.1179166 2.5-2z"/><path id="Shape" d="m31.109 23h-4.218c-1.0948655.0037122-1.9847316.8842347-2 1.979-.0607142 1.0750587.3166488 2.128861 1.046 2.921.8275269.7702488 1.9345108 1.1677944 3.063 1.1 1.1284892.0677944 2.2354731-.3297512 3.063-1.1.730589-.7923091 1.108725-1.8469766 1.048-2.923-.0163628-1.0947584-.9071224-1.9743946-2.002-1.977zm-.467 3.5c-.4600227.3766017-1.0501555.5563011-1.642.5-.5918445.0563011-1.1819773-.1233983-1.642-.5-.3438734-.4207482-.5112658-.9584112-.467-1.5h4.22c.0421351.5416801-.1258044 1.0788-.469 1.5z"/></g></g></g></svg>