<svg height="512" viewBox="0 0 50 60" width="512" xmlns="http://www.w3.org/2000/svg"><g id="Page-1" fill="none" fill-rule="evenodd"><g id="056---Science-Fiction-Novel" transform="translate(-1)"><path id="Shape" d="m47 55h-25v-5h-10v5h-4.79c-2.62768969.0421177-4.86508915-1.902135-5.19-4.51-.01643773-.162788-.02311634-.3264139-.02-.49 0-2.7614237 2.23857625-5 5-5h40c-1.66 0-3 2.24-3 5s1.34 5 3 5z" fill="#e8edfc" fill-rule="nonzero"/><path id="Shape" d="m50 3v39c0 1.1-.9 3-2 3h-41c-2.76142375 0-5 2.2385763-5 5v-44c0-2.76142375 2.23857625-5 5-5h41c1.1032019.0032948 1.9967052.89679813 2 2z" fill="#e8edfc" fill-rule="nonzero"/><path id="Shape" d="m50 42v11c-.0032948 1.1032019-.8967981 1.9967052-2 2h-1c-1.66 0-3-2.24-3-5s1.34-5 3-5h1c1.1 0 2-1.9 2-3z" fill="#a4c2f7" fill-rule="nonzero"/><path id="Shape" d="m48 45h-1v8c-.0036392.7004821-.3734912 1.3480075-.975 1.707.2933409.1822358.6297963.283345.975.293h1c1.1032019-.0032948 1.9967052-.8967981 2-2v-11c0 1.1-.9 3-2 3z" fill="#7facfa" fill-rule="nonzero"/><path id="Shape" d="m48 1h-3c1.1032019.0032948 1.9967052.89679813 2 2v42h1c1.1 0 2-1.9 2-3v-39c-.0032948-1.10320187-.8967981-1.9967052-2-2z" fill="#cad9fc" fill-rule="nonzero"/><path id="Shape" d="m22 50v8c-.0000627.3593049-.1928829.6909565-.505101.8687761-.3122182.1778196-.6958342.1744694-1.004899-.0087761l-2.98-1.79c-.3134634-.1899733-.7065366-.1899733-1.02 0l-2.98 1.79c-.3090648.1832455-.6926808.1865957-1.004899.0087761-.3122181-.1778196-.5050383-.5094712-.505101-.8687761v-8z" fill="#fff" fill-rule="nonzero"/><path id="Shape" d="m39 15v5.37c-2.82-.23-6.28-.37-10-.37s-7.18.14-10 .37v-5.37c.0000001-5.52284742 4.4771526-9.99999979 10-9.99999979s9.9999999 4.47715237 10 9.99999979z" stroke="#428dff" stroke-linecap="round" stroke-linejoin="round" stroke-width="2"/><g fill-rule="nonzero"><path id="Shape" d="m45.8 22.35-9.61 7.24c-.3576159.2681314-.7930334.4121001-1.24.41h-11.9c-.4469666.0021001-.8823841-.1418686-1.24-.41l-9.61-7.24c-.1396874-.1043251-.214946-.2738791-.1986092-.4474573.0163368-.1735783.1219095-.3261129.2786092-.4025427 2.1813218-.6673247 4.440388-1.0471975 6.72-1.13 2.82-.23 6.28-.37 10-.37s7.18.14 10 .37c2.279612.0828025 4.5386782.4626753 6.72 1.13.1566997.0764298.2622724.2289644.2786092.4025427.0163368.1735782-.0589218.3431322-.1986092.4474573z" fill="#e8edfc"/><path id="Shape" d="m35 30-5.168 7.555c-.1854732.2781551-.4976789.4452244-.832.4452244s-.6465268-.1670693-.832-.4452244l-5.168-7.555z" fill="#a4c2f7"/><path id="Shape" d="m10 1h-3c-2.76142375 0-5 2.23857625-5 5v44c.0595869 2.8187131 2.39122068 5.0563654 5.21 5h3c-2.81877932.0563654-5.1504131-2.1812869-5.21-5v-44c0-2.76142375 2.23857625-5 5-5z" fill="#fff"/><path id="Rectangle-path" d="m1 6h2v8h-2z" fill="#fff"/><path id="Shape" d="m2.02 11c-.55228475.0027614-1.00223858-.4427153-1.005-.995-.00276142-.55228475.44271525-1.00223858.995-1.005h.01c.55228475 0 1 .44771525 1 1 0 .5522847-.44771525 1-1 1z" fill="#428dff"/><path id="Shape" d="m48 0h-41c-3.31233757.00330738-5.99669262 2.68766243-6 6 0 .35726559.19059892.68739261.5.8660254.30940108.1786328.69059892.1786328 1 0 .30940108-.17863279.5-.50875981.5-.8660254 0-2.209139 1.790861-4 4-4v1c0 .55228475.44771525 1 1 1s1-.44771525 1-1v-1h39c.5522847 0 1 .44771525 1 1v39c-.0286401.7798547-.3933003 1.5091751-1 2h-39v-1c0-.5522847-.44771525-1-1-1s-1 .4477153-1 1v1c-1.47930705.0013494-2.90517386.5531599-4 1.548v-31.548c0-.5522847-.44771525-1-1-1s-1 .4477153-1 1v36c-.00311203.1956303.0049009.3912794.024.586.38318859 3.1162408 3.04646318 5.4471442 6.186 5.414h3.79v2c-.0050454.722159.384077 1.3896095 1.015 1.741.6256978.3598127 1.3977993.3498452 2.014-.026l2.971-1.784 2.971 1.782c.6175574.3705391 1.3866446.3804356 2.0135321.02591.6268875-.3545257 1.0147548-1.0187184 1.0154679-1.73891v-2h25c1.6568542 0 3-1.3431458 3-3v-50c0-1.65685425-1.3431458-3-3-3zm-27 58-2.972-1.783c-.6331208-.3796258-1.4238792-.3796258-2.057 0l-2.971 1.783v-7h8zm2-7h3c.5522847 0 1-.4477153 1-1s-.4477153-1-1-1h-17c-.55228475 0-1 .4477153-1 1s.44771525 1 1 1h2v3h-3.79c-2.11949134.0402921-3.9294676-1.5214589-4.2-3.624-.01078908-.125024-.01412832-.2505793-.01-.376.00876947-2.2054964 1.79450365-3.9912305 4-4h37c-1.334579 2.4996884-1.334579 5.5003116 0 8h-21zm25 3h-1c-.944 0-2-1.711-2-4s1.056-4 2-4h1c.3507845-.0022166.6951198-.0944985 1-.268v7.268c0 .5522847-.4477153 1-1 1z" fill="#428dff"/><path id="Shape" d="m8 10c.55228475 0 1-.44771525 1-1v-2c0-.55228475-.44771525-1-1-1s-1 .44771525-1 1v2c0 .55228475.44771525 1 1 1z" fill="#428dff"/><path id="Shape" d="m7 15c0 .5522847.44771525 1 1 1s1-.4477153 1-1v-2c0-.5522847-.44771525-1-1-1s-1 .4477153-1 1z" fill="#428dff"/><path id="Shape" d="m7 21c0 .5522847.44771525 1 1 1s1-.4477153 1-1v-2c0-.5522847-.44771525-1-1-1s-1 .4477153-1 1z" fill="#428dff"/><path id="Shape" d="m7 27c0 .5522847.44771525 1 1 1s1-.4477153 1-1v-2c0-.5522847-.44771525-1-1-1s-1 .4477153-1 1z" fill="#428dff"/><path id="Shape" d="m7 33c0 .5522847.44771525 1 1 1s1-.4477153 1-1v-2c0-.5522847-.44771525-1-1-1s-1 .4477153-1 1z" fill="#428dff"/><path id="Shape" d="m7 39c0 .5522847.44771525 1 1 1s1-.4477153 1-1v-2c0-.5522847-.44771525-1-1-1s-1 .4477153-1 1z" fill="#428dff"/><path id="Shape" d="m36.777 7.223c-3.1459368-3.14498707-7.8764028-4.08564097-11.9862001-2.38345776-4.1097974 1.70218321-6.7898501 5.71210286-6.7907999 10.16045776v4.456c-2.0842892.1041837-4.1454144.4855373-6.129 1.134-.4785844.2129408-.8071877.6650562-.862 1.186-.0572464.5294325.1684203 1.0499097.594 1.37l9.611 7.242c.358608.2652926.7709137.4489188 1.208.538l4.914 7.183c.3697837.5544116.99142.8882182 1.6578345.8902248.6664144.0020067 1.2900497-.3280502 1.6631655-.8802248l4.921-7.193c.4373377-.0892517.8499339-.2728553 1.209-.538l9.61-7.242c.4254171-.3202185.6510418-.8405986.594-1.37-.0545683-.5202019-.3823453-.9718481-.86-1.185-1.9841987-.6489076-4.0459998-1.0305981-6.131-1.135v-4.456c.0072344-2.918702-1.1533001-5.71903599-3.223-7.777zm-16.777 7.777c.0000001-4.9705627 4.0294373-8.99999981 9-8.99999981s8.9999999 4.02943711 9 8.99999981v4.292c-2.644-.186-5.716-.292-9-.292s-6.356.106-9 .292zm8.993 21.99-4.093-5.99h8.2zm6.592-8.2c-.1828089.1364763-.4048666.2101448-.633.21h-11.9c-.2278495.0002886-.4496338-.0734055-.632-.21l-8.842-6.662c1.7792243-.38257 3.5840329-.6345748 5.4-.754.0072488.0022979.0145882.0042996.022.006.025 0 .045-.012.07-.014 2.676-.222 6.042-.366 9.93-.366s7.255.144 9.932.366c.023 0 .044.014.068.014.0094296-.0015211.0187751-.0035237.028-.006 1.8159514.1195777 3.620749.3715809 5.4.754z" fill="#428dff"/><path id="Shape" d="m15.5 37h.5c.5522847 0 1-.4477153 1-1s-.4477153-1-1-1h-.5c-1.9329966 0-3.5 1.5670034-3.5 3.5s1.5670034 3.5 3.5 3.5h.5c2.7600532-.0033061 4.9966939-2.2399468 5-5v-4c0-.5522847-.4477153-1-1-1s-1 .4477153-1 1v4c0 1.6568542-1.3431458 3-3 3h-.5c-.8284271 0-1.5-.6715729-1.5-1.5s.6715729-1.5 1.5-1.5z" fill="#428dff"/><path id="Shape" d="m38 32c-.5522847 0-1 .4477153-1 1v4c.0033061 2.7600532 2.2399468 4.9966939 5 5h.5c1.9329966 0 3.5-1.5670034 3.5-3.5s-1.5670034-3.5-3.5-3.5h-.5c-.5522847 0-1 .4477153-1 1s.4477153 1 1 1h.5c.8284271 0 1.5.6715729 1.5 1.5s-.6715729 1.5-1.5 1.5h-.5c-1.6568542 0-3-1.3431458-3-3v-4c0-.5522847-.4477153-1-1-1z" fill="#428dff"/><path id="Shape" d="m23 16c-.5522847 0-1-.4477153-1-1 0-5.537 4.579-7 7-7 .5522847 0 1 .44771525 1 1s-.4477153 1-1 1c-.516 0-5 .179-5 5 0 .5522847-.4477153 1-1 1z" fill="#428dff"/></g></g></g></svg>