<svg height="512" viewBox="0 0 50 60" width="512" xmlns="http://www.w3.org/2000/svg"><g id="Page-1" fill="none" fill-rule="evenodd"><g id="057---Sports-Book" fill-rule="nonzero" transform="translate(-1)"><path id="Shape" d="m50 3v39c0 1.1-.9 3-2 3h-41c-2.76142375 0-5 2.2385763-5 5v-44c0-2.76142375 2.23857625-5 5-5h41c1.1032019.0032948 1.9967052.89679813 2 2z" fill="#e8edfc"/><path id="Shape" d="m48 1h-3c1.1032019.0032948 1.9967052.89679813 2 2v39c0 1.1-.9 3-2 3h3c1.1 0 2-1.9 2-3v-39c-.0032948-1.10320187-.8967981-1.9967052-2-2z" fill="#cad9fc"/><path id="Shape" d="m47 55h-25v-5h-10v5h-4.79c-2.62768969.0421177-4.86508915-1.902135-5.19-4.51-.01643773-.162788-.02311634-.3264139-.02-.49 0-2.7614237 2.23857625-5 5-5h40c-1.66 0-3 2.24-3 5s1.34 5 3 5z" fill="#e8edfc"/><path id="Shape" d="m50 42v11c-.0032948 1.1032019-.8967981 1.9967052-2 2h-1c-1.66 0-3-2.24-3-5s1.34-5 3-5h1c1.1 0 2-1.9 2-3z" fill="#a4c2f7"/><path id="Shape" d="m22 50v8c-.0000627.3593049-.1928829.6909565-.505101.8687761-.3122182.1778196-.6958342.1744694-1.004899-.0087761l-2.98-1.79c-.3134634-.1899733-.7065366-.1899733-1.02 0l-2.98 1.79c-.3090648.1832455-.6926808.1865957-1.004899.0087761-.3122181-.1778196-.5050383-.5094712-.505101-.8687761v-8z" fill="#fff"/><path id="Shape" d="m32.95 11.3v.01c-7.07 7.48-5.99 10.19-9.34 13.54-.61.62-1.31 1.32-2.04 2.05-1.7478394-.2193408-3.4159319-.8611788-4.86-1.87v-.01c-2.9509492-2.0551991-4.7099889-5.4238988-4.7099889-9.02s1.7590397-6.96480094 4.7099889-9.02v-.01c3.782035-2.62656509 8.797965-2.62656509 12.58 0v.01c1.5775075 1.09436683 2.8396716 2.58413421 3.66 4.32z" fill="#e8edfc"/><path id="Shape" d="m19.1 39.27c-.9793245.973236-2.5606755.973236-3.54 0l-2.83-2.83c-.7168842-.715071-.9316507-1.7919472-.5439215-2.7273164.3877291-.9353692 1.3013771-1.5444952 2.3139215-1.5426836.4897897.001569.9688071.1438857 1.38.41h.01c.1335323.0982367.2604719.2051332.38.32l2.83 2.83c.1148668.1195281.2217633.2464677.32.38v.01c.6451119.9951483.5120564 2.3049133-.32 3.15z" fill="#7facfa"/><path id="Shape" d="m44.83 14.95-2.83 2.83c-1.4922859 1.5189557-3.0823482 2.9386542-4.76 4.25-.24-.02-.49-.03-.74-.03-2.6624856-.002665-5.203181 1.1152409-7 3.08-.7564376.8114997-1.3595192 1.7533912-1.78 2.78-.19.16-.38.34-.57.53-2.37 2.36-6 6-7.73 7.72-.0982367-.1335323-.2051332-.2604719-.32-.38l-2.83-2.83c-.1195281-.1148668-.2464677-.2217633-.38-.32l5.68-5.68c.73-.73 1.43-1.43 2.04-2.05 3.35-3.35 2.27-6.06 9.34-13.54v-.01c.4-.42.82-.85 1.27-1.3l2.83-2.83c1.5642825-1.55978389 4.0957175-1.55978389 5.66 0l.7.71.71.71.71.7c1.5597839 1.5642825 1.5597839 4.0957175 0 5.66z" fill="#a4c2f7"/><ellipse id="Oval" cx="43.5" cy="31.5" fill="#e8edfc" rx="2.5" ry="6.42"/><path id="Shape" d="m32 31.5c.0059221 2.378663-.8870242 4.6717489-2.5 6.42-1.6129758-1.7482511-2.5059221-4.041337-2.5-6.42.0001262-1.2486965.2447269-2.4852886.72-3.64.4204808-1.0266088 1.0235624-1.9685003 1.78-2.78 1.6129758 1.7482511 2.5059221 4.041337 2.5 6.42z" fill="#e8edfc"/><path id="Shape" d="m41 31.5c-.0059221 2.378663.8870242 4.6717489 2.5 6.42-1.7984777 1.9624187-4.3381193 3.0797818-7 3.0797818s-5.2015223-1.1173631-7-3.0797818c3.3334668-3.6309345 3.3334668-9.2090655 0-12.84 1.796819-1.9647591 4.3375144-3.082665 7-3.08.25 0 .5.01.74.03 2.3990445.1819733 4.6381325 1.2729028 6.26 3.05-1.6129758 1.7482511-2.5059221 4.041337-2.5 6.42z" fill="#e8edfc"/><path id="Shape" d="m2 50c.0595869 2.8187131 2.39122068 5.0563654 5.21 5h3c-2.81877932.0563654-5.1504131-2.1812869-5.21-5v-44c0-2.76142375 2.23857625-5 5-5h-3c-2.76142375 0-5 2.23857625-5 5z" fill="#fff"/><path id="Rectangle-path" d="m1 6h2v8h-2z" fill="#fff"/><g fill="#428dff"><path id="Shape" d="m2.02 11c-.55228475.0027614-1.00223858-.4427153-1.005-.995-.00276142-.55228475.44271525-1.00223858.995-1.005h.01c.55228475 0 1 .44771525 1 1 0 .5522847-.44771525 1-1 1z"/><path id="Shape" d="m48 0h-41c-3.31233757.00330738-5.99669262 2.68766243-6 6 0 .35726559.19059892.68739261.5.8660254.30940108.1786328.69059892.1786328 1 0 .30940108-.17863279.5-.50875981.5-.8660254 0-2.209139 1.790861-4 4-4v1c0 .55228475.44771525 1 1 1s1-.44771525 1-1v-1h39c.5522847 0 1 .44771525 1 1v39c-.0286401.7798547-.3933003 1.5091751-1 2h-39v-1c0-.5522847-.44771525-1-1-1s-1 .4477153-1 1v1c-1.47930705.0013494-2.90517386.5531599-4 1.548v-31.548c0-.5522847-.44771525-1-1-1s-1 .4477153-1 1v36c-.00311203.1956303.0049009.3912794.024.586.38318859 3.1162408 3.04646318 5.4471442 6.186 5.414h3.79v2c-.0050454.722159.384077 1.3896095 1.015 1.741.6256978.3598127 1.3977993.3498452 2.014-.026l2.971-1.784 2.971 1.782c.6175574.3705391 1.3866446.3804356 2.0135321.02591.6268875-.3545257 1.0147548-1.0187184 1.0154679-1.73891v-2h25c1.6568542 0 3-1.3431458 3-3v-50c0-1.65685425-1.3431458-3-3-3zm-27 58-2.972-1.783c-.6331208-.3796258-1.4238792-.3796258-2.057 0l-2.971 1.783v-7h8zm2-7h3c.5522847 0 1-.4477153 1-1s-.4477153-1-1-1h-17c-.55228475 0-1 .4477153-1 1s.44771525 1 1 1h2v3h-3.79c-2.11949134.0402921-3.9294676-1.5214589-4.2-3.624-.01078908-.125024-.01412832-.2505793-.01-.376.00876947-2.2054964 1.79450365-3.9912305 4-4h37c-1.334579 2.4996884-1.334579 5.5003116 0 8h-21zm25 3h-1c-.944 0-2-1.711-2-4s1.056-4 2-4h1c.3507845-.0022166.6951198-.0944985 1-.268v7.268c0 .5522847-.4477153 1-1 1z"/><path id="Shape" d="m8 10c.55228475 0 1-.44771525 1-1v-2c0-.55228475-.44771525-1-1-1s-1 .44771525-1 1v2c0 .55228475.44771525 1 1 1z"/><path id="Shape" d="m7 15c0 .5522847.44771525 1 1 1s1-.4477153 1-1v-2c0-.5522847-.44771525-1-1-1s-1 .4477153-1 1z"/><path id="Shape" d="m7 21c0 .5522847.44771525 1 1 1s1-.4477153 1-1v-2c0-.5522847-.44771525-1-1-1s-1 .4477153-1 1z"/><path id="Shape" d="m7 27c0 .5522847.44771525 1 1 1s1-.4477153 1-1v-2c0-.5522847-.44771525-1-1-1s-1 .4477153-1 1z"/><path id="Shape" d="m7 33c0 .5522847.44771525 1 1 1s1-.4477153 1-1v-2c0-.5522847-.44771525-1-1-1s-1 .4477153-1 1z"/><path id="Shape" d="m7 39c0 .5522847.44771525 1 1 1s1-.4477153 1-1v-2c0-.5522847-.44771525-1-1-1s-1 .4477153-1 1z"/><path id="Shape" d="m45.537 15.657c1.9444269-1.9599062 1.9421936-5.1218425-.005-7.079l-2.117-2.118c-1.9577111-1.94117779-5.1142889-1.94117779-7.072 0l-2.831 2.83c-.119.118-.225.23-.34.346-.8329605-1.33254052-1.9203406-2.48788193-3.2-3.4-.0336868-.03074001-.0694369-.05913964-.107-.085-4.1252717-2.86529797-9.5967283-2.86529797-13.722 0-.0367217.02577725-.0717906.05383232-.105.084-2.9383562 2.0989281-4.7717311 5.4125263-4.989 9.017-.0148352.0419999-.0262065.0851441-.034.129-.015.205-.015.411-.015.619s0 .414.011.621c.007528.0479316.0192395.0951119.035.141.22133 3.5976895 2.0526203 6.9039308 4.985 9 .0345461.031171.0709459.060224.109.087 1.0497385.721802 2.2079813 1.271385 3.431 1.628-.259.258-.518.517-.773.773-1.181 1.18-2.289 2.289-3.13 3.133-1.5394861-.5532963-3.2567218.0366458-4.1311544 1.4192238s-.6715169 3.1869491.4881544 4.3407762l2.829 2.829c1.1542391 1.1585776 2.9579488 1.3608967 4.340186.4868314 1.3822373-.8740653 1.9727041-2.5903551 1.420814-4.1298314.843-.841 1.952-1.949 3.132-3.13l2.282-2.281c-.01.193-.029.384-.029.579.0012813 2.6215442.9878452 5.146848 2.764 7.075.0175251.0273667.0365543.0537406.057.079.01.01.024.013.034.021 1.9767957 2.1208216 4.7457578 3.3251754 7.645 3.3251754s5.6682043-1.2043538 7.645-3.3251754c.01-.008.024-.011.034-.021.0204457-.0252594.0394749-.0516333.057-.079 3.6852973-3.9968036 3.6852973-10.1531964 0-14.15-.0175251-.0273667-.0365543-.0537406-.057-.079-.01-.009-.023-.012-.033-.02-1.2606712-1.3480231-2.8540994-2.3402943-4.62-2.877 1.006-.864 2.055-1.835 3.181-2.962zm-13.81-4.507c-1.079 1.169-1.956 2.219-2.687 3.174.0582358-1.90282.3129214-3.7945309.76-5.645.7690016.71654522 1.4194233 1.5505836 1.927 2.471zm-7.727 5.85h3.02v.29c-.642 1.081-1.108 2.027-1.534 2.9-.4205028.924853-.9175661 1.8129439-1.486 2.655zm-5.017-2c-.0196078-2.5646534-.3783864-5.11544483-1.067-7.586 1.2469622-.7399461 2.6410554-1.19736159 4.084-1.34v8.926zm5.017-8.926c1.442563.14228342 2.8363357.59936441 4.083 1.339-.6881562 2.47096653-1.0465953 5.0220715-1.066 7.587h-3.017zm-7.8 2.609c.4934529 2.0703181.756385 4.188867.784 6.317h-3.923c.2420404-2.4176987 1.3582182-4.6639221 3.139-6.317zm-3.139 8.317h3.923c-.027615 2.128133-.2905471 4.2466819-.784 6.317-1.7807818-1.6530779-2.8969596-3.8993013-3.139-6.317zm4.853 7.6c.6910215-2.4748779 1.0504938-5.0305275 1.069-7.6h3.017v8.048l-.773.774c-1.1688412-.204761-2.2911507-.6187249-3.313-1.222zm.476 13.966c-.2813322.2815125-.6630087.4396798-1.061.4396798s-.7796678-.1581673-1.061-.4396798l-2.829-2.829c-.5859741-.5859741-.5859741-1.5360259 0-2.122s1.5360259-.5859741 2.122 0l2.829 2.829c.5829121.5852888.5829121 1.5317112 0 2.117zm11.11-11.876c2.0014471 2.8943649 2.0014471 6.7256351 0 9.62-1.9985743-2.8952608-1.9985743-6.7247392 0-9.62zm1.367 11.157c2.8452344-3.753035 2.8452344-8.940965 0-12.694 3.2074846-2.870696 8.0605154-2.870696 11.268 0-2.8452344 3.753035-2.8452344 8.940965 0 12.694-3.2074846 2.870696-8.0605154 2.870696-11.268 0zm12.633-1.537c-2.0014471-2.8943649-2.0014471-6.7256351 0-9.62 1.9985743 2.8952608 1.9985743 6.7247392 0 9.62zm-6.6-15.29c-.134 0-.266-.02-.4-.02-2.8994638.0011414-5.6684 1.2056251-7.646 3.326-.01.008-.023.011-.033.02-.0204457.0252594-.0394749.0516333-.057.079-.767964.836368-1.3957228 1.7913446-1.859 2.828-.153.138-.307.275-.461.428-1.185 1.18-2.688 2.684-4.111 4.107-1.061 1.062-2.077 2.077-2.884 2.882l-2.119-2.119c.805-.807 1.82-1.823 2.882-2.884l2.011-2.011.019-.019c.742-.743 1.455-1.456 2.075-2.08 1.2555071-1.3034212 2.2620641-2.8254575 2.97-4.491 1.162-2.371 2.608-5.32 7.64-10.359l2.83-2.83c1.1749919-1.16173406 3.0660081-1.16173406 4.241 0l2.122 2.118c1.1669006 1.1755944 1.1669006 3.0724056 0 4.248l-2.83 2.83c-1.3821516 1.4032507-2.848179 2.7213395-4.39 3.947z"/></g></g></g></svg>