<svg height="512" viewBox="0 0 50 60" width="512" xmlns="http://www.w3.org/2000/svg"><g id="Page-1" fill="none" fill-rule="evenodd"><g id="058---Cooking-Book" fill-rule="nonzero" transform="translate(-1)"><path id="Shape" d="m47 55h-25v-5h-10v5h-4.79c-2.62768969.0421177-4.86508915-1.902135-5.19-4.51-.01643773-.162788-.02311634-.3264139-.02-.49 0-2.7614237 2.23857625-5 5-5h40c-1.66 0-3 2.24-3 5s1.34 5 3 5z" fill="#e8edfc"/><path id="Shape" d="m50 3v39c0 1.1-.9 3-2 3h-41c-2.76142375 0-5 2.2385763-5 5v-44c0-2.76142375 2.23857625-5 5-5h41c1.1032019.0032948 1.9967052.89679813 2 2z" fill="#e8edfc"/><path id="Shape" d="m48 1h-3c1.1032019.0032948 1.9967052.89679813 2 2v39c0 1.1-.9 3-2 3h3c1.1 0 2-1.9 2-3v-39c-.0032948-1.10320187-.8967981-1.9967052-2-2z" fill="#cad9fc"/><path id="Shape" d="m50 42v11c-.0032948 1.1032019-.8967981 1.9967052-2 2h-1c-1.66 0-3-2.24-3-5s1.34-5 3-5h1c1.1 0 2-1.9 2-3z" fill="#a4c2f7"/><path id="Shape" d="m48 45h-1v8c-.0036392.7004821-.3734912 1.3480075-.975 1.707.2933409.1822358.6297963.283345.975.293h1c1.1032019-.0032948 1.9967052-.8967981 2-2v-11c0 1.1-.9 3-2 3z" fill="#7facfa"/><path id="Shape" d="m22 50v8c-.0000627.3593049-.1928829.6909565-.505101.8687761-.3122182.1778196-.6958342.1744694-1.004899-.0087761l-2.98-1.79c-.3134634-.1899733-.7065366-.1899733-1.02 0l-2.98 1.79c-.3090648.1832455-.6926808.1865957-1.004899.0087761-.3122181-.1778196-.5050383-.5094712-.505101-.8687761v-8z" fill="#fff"/><path id="Shape" d="m29.67 23c-.3826333.7897075-.6294235 1.63826-.73 2.51-.0205241.318335-.1962523.60623-.47.77l-2.81 1.72h-11.66c-1.1032019-.0032948-1.9967052-.8967981-2-2v-1c.0032948-1.1032019.8967981-1.9967052 2-2z" fill="#e8edfc"/><path id="Shape" d="m40.47 17.08c-4.4750158-.4361087-8.7604859 1.9129637-10.8 5.92h-15.67c0-6.22 4.71-11.42 11-12.7 1.98-.4 4.02-.4 6 0 3.9963547.7661819 7.4568785 3.2437269 9.47 6.78z" fill="#e8edfc"/><path id="Shape" d="m31 8v2.3c-1.98-.4-4.02-.4-6 0v-2.3c0-1.65685425 1.3431458-3 3-3s3 1.34314575 3 3z" fill="#e8edfc"/><path id="Shape" d="m40.95 30.61c-2.5615626 1.6024126-5.7255641 1.9132619-8.55.84-.3058255-.1395-.6605078-.1208325-.95.05l-14.95 9.1c-1.4359403.8284271-3.2715729.3359403-4.1-1.1s-.3359403-3.2715729 1.1-4.1l12.15-7.4h.01l2.81-1.72c.2737477-.16377.4494759-.451665.47-.77.1005765-.87174.3473667-1.7202925.73-2.51 2.0395141-4.0070363 6.3249842-6.3561087 10.8-5.92 1.9692335.1906298 3.7368443 1.2889151 4.78 2.97 1.93 3.35.01 8.08-4.3 10.56z" fill="#a4c2f7"/><path id="Shape" d="m2 50c.0595869 2.8187131 2.39122068 5.0563654 5.21 5h3c-2.81877932.0563654-5.1504131-2.1812869-5.21-5v-44c0-2.76142375 2.23857625-5 5-5h-3c-2.76142375 0-5 2.23857625-5 5z" fill="#fff"/><path id="Rectangle-path" d="m1 6h2v8h-2z" fill="#fff"/><g fill="#428dff"><path id="Shape" d="m2.02 11c-.55228475.0027614-1.00223858-.4427153-1.005-.995-.00276142-.55228475.44271525-1.00223858.995-1.005h.01c.55228475 0 1 .44771525 1 1 0 .5522847-.44771525 1-1 1z"/><path id="Shape" d="m48 0h-41c-3.31233757.00330738-5.99669262 2.68766243-6 6 0 .35726559.19059892.68739261.5.8660254.30940108.1786328.69059892.1786328 1 0 .30940108-.17863279.5-.50875981.5-.8660254 0-2.209139 1.790861-4 4-4v1c0 .55228475.44771525 1 1 1s1-.44771525 1-1v-1h39c.5522847 0 1 .44771525 1 1v39c-.0286401.7798547-.3933003 1.5091751-1 2h-39v-1c0-.5522847-.44771525-1-1-1s-1 .4477153-1 1v1c-1.47930705.0013494-2.90517386.5531599-4 1.548v-31.548c0-.5522847-.44771525-1-1-1s-1 .4477153-1 1v36c-.00311203.1956303.0049009.3912794.024.586.38318859 3.1162408 3.04646318 5.4471442 6.186 5.414h3.79v2c-.0050454.722159.384077 1.3896095 1.015 1.741.6256978.3598127 1.3977993.3498452 2.014-.026l2.971-1.784 2.971 1.782c.6175574.3705391 1.3866446.3804356 2.0135321.02591.6268875-.3545257 1.0147548-1.0187184 1.0154679-1.73891v-2h25c1.6568542 0 3-1.3431458 3-3v-50c0-1.65685425-1.3431458-3-3-3zm-27 58-2.972-1.783c-.6331208-.3796258-1.4238792-.3796258-2.057 0l-2.971 1.783v-7h8zm2-7h3c.5522847 0 1-.4477153 1-1s-.4477153-1-1-1h-17c-.55228475 0-1 .4477153-1 1s.44771525 1 1 1h2v3h-3.79c-2.11949134.0402921-3.9294676-1.5214589-4.2-3.624-.01078908-.125024-.01412832-.2505793-.01-.376.00876947-2.2054964 1.79450365-3.9912305 4-4h37c-1.334579 2.4996884-1.334579 5.5003116 0 8h-21zm25 3h-1c-.944 0-2-1.711-2-4s1.056-4 2-4h1c.3507845-.0022166.6951198-.0944985 1-.268v7.268c0 .5522847-.4477153 1-1 1z"/><path id="Shape" d="m8 10c.55228475 0 1-.44771525 1-1v-2c0-.55228475-.44771525-1-1-1s-1 .44771525-1 1v2c0 .55228475.44771525 1 1 1z"/><path id="Shape" d="m7 15c0 .5522847.44771525 1 1 1s1-.4477153 1-1v-2c0-.5522847-.44771525-1-1-1s-1 .4477153-1 1z"/><path id="Shape" d="m7 21c0 .5522847.44771525 1 1 1s1-.4477153 1-1v-2c0-.5522847-.44771525-1-1-1s-1 .4477153-1 1z"/><path id="Shape" d="m7 27c0 .5522847.44771525 1 1 1s1-.4477153 1-1v-2c0-.5522847-.44771525-1-1-1s-1 .4477153-1 1z"/><path id="Shape" d="m7 33c0 .5522847.44771525 1 1 1s1-.4477153 1-1v-2c0-.5522847-.44771525-1-1-1s-1 .4477153-1 1z"/><path id="Shape" d="m7 39c0 .5522847.44771525 1 1 1s1-.4477153 1-1v-2c0-.5522847-.44771525-1-1-1s-1 .4477153-1 1z"/><path id="Shape" d="m30.827 5.173c-1.1439416-1.14278893-2.8634049-1.48445435-4.3573485-.8658256-1.4939435.61862876-2.4684984 2.07586313-2.4696515 3.6928256v1.518c-5.9923217 1.4259034-10.4044854 6.5195553-10.961 12.654-1.2138842.4104623-2.0330519 1.5466106-2.039 2.828v1c0 1.6568542 1.3431458 3 3 3h8.091l-9.091 5.534c-1.9100768 1.1100923-2.5585923 3.5584232-1.4485 5.4685s3.5584232 2.5585923 5.4685 1.4485l14.97-9.084c3.1194859 1.1963175 6.6186057.8678936 9.461-.888 2.1936603-1.2231126 3.9210689-3.1375722 4.913-5.445.9402923-2.0804586.8465661-4.4821471-.253-6.483-1.0947072-1.8147304-2.937601-3.0507731-5.032-3.375-2.0316365-3.3265862-5.2945153-5.7165128-9.079-6.65v-1.526c.0024539-1.06121457-.4199612-2.07926013-1.173-2.827zm-2.827.827c1.1045695 0 2 .8954305 2 2v1.138c-1.3283516-.16300043-2.6716484-.16300043-4 0v-1.138c0-1.1045695.8954305-2 2-2zm-14 21c-.5522847 0-1-.4477153-1-1v-1c0-.5522847.4477153-1 1-1h14.245c-.1388827.4671769-.2362605.9457002-.291 1.43l-2.579 1.57zm30.381-6.449c.7830371 1.4683707.8322708 3.2189404.133 4.729-.8242941 1.8959152-2.2519679 3.4663212-4.061 4.467-2.288538 1.4379707-5.1154134 1.7306355-7.65.792-.6035398-.2745667-1.3031071-.2372366-1.874.1l-14.929 9.091c-.6216424.3673006-1.3929991.3710149-2.0181499.0097179-.6251509-.361297-1.0070243-1.0315042-.99912-1.7535059.0079044-.7220018.4043591-1.383688 1.0372699-1.731212l14.973-9.115c.5398335-.3314125.8907531-.8989674.946-1.53.4454143-2.6754694 2.115173-4.9892356 4.514-6.255 1.4603192-.8641819 3.1213028-1.331312 4.818-1.355.3615952-.0009182.7228112.0234748 1.081.073 1.6575508.1476734 3.149502 1.0652845 4.029 2.478zm-5.814-4.52c-1.8034943.1351613-3.5524565.6796173-5.114 1.592-1.8262091 1.0400094-3.3393229 2.5517416-4.381 4.377h-14.024c.6702525-5.4116299 4.7849222-9.7569189 10.152-10.721 1.8481206-.3721252 3.7518794-.3721252 5.6 0 3.0760181.5989365 5.8333376 2.2859176 7.767 4.752z"/><path id="Shape" d="m19.029 20.03c-.167512.0002694-.3323422-.0420565-.479-.123-.2330645-.1268358-.406165-.3410997-.4811879-.5956148-.0750229-.2545152-.0458167-.5284126.0811879-.7613852 1.3275788-2.3612523 3.50208-4.1304471 6.084-4.95.3394023-.1127173.7131569-.0358034.9804741.201769s.3875852.5997103.3155001.95c-.0720852.3502897-.3255719.6355137-.6649742.748231-2.0951683.6722282-3.863498 2.1031558-4.958 4.012-.1760806.3200776-.512687.5186677-.878.518z"/></g></g></g></svg>