<svg height="512" viewBox="0 0 50 60" width="512" xmlns="http://www.w3.org/2000/svg"><g id="Page-1" fill="none" fill-rule="evenodd"><g id="059---Crime-Novel" fill-rule="nonzero" transform="translate(-1)"><path id="Shape" d="m47 55h-25v-5h-10v5h-4.79c-2.62768969.0421177-4.86508915-1.902135-5.19-4.51-.01643773-.162788-.02311634-.3264139-.02-.49 0-2.7614237 2.23857625-5 5-5h40c-1.66 0-3 2.24-3 5s1.34 5 3 5z" fill="#e8edfc"/><path id="Shape" d="m50 3v39c0 1.1-.9 3-2 3h-41c-2.76142375 0-5 2.2385763-5 5v-44c0-2.76142375 2.23857625-5 5-5h41c1.1032019.0032948 1.9967052.89679813 2 2z" fill="#e8edfc"/><path id="Shape" d="m48 1h-3c1.1032019.0032948 1.9967052.89679813 2 2v39c0 1.1-.9 3-2 3h3c1.1 0 2-1.9 2-3v-39c-.0032948-1.10320187-.8967981-1.9967052-2-2z" fill="#cad9fc"/><path id="Shape" d="m50 42v11c-.0032948 1.1032019-.8967981 1.9967052-2 2h-1c-1.66 0-3-2.24-3-5s1.34-5 3-5h1c1.1 0 2-1.9 2-3z" fill="#a4c2f7"/><path id="Shape" d="m48 45h-1v8c-.0036392.7004821-.3734912 1.3480075-.975 1.707.2933409.1822358.6297963.283345.975.293h1c1.1032019-.0032948 1.9967052-.8967981 2-2v-11c0 1.1-.9 3-2 3z" fill="#7facfa"/><path id="Shape" d="m22 50v8c-.0000627.3593049-.1928829.6909565-.505101.8687761-.3122182.1778196-.6958342.1744694-1.004899-.0087761l-2.98-1.79c-.3134634-.1899733-.7065366-.1899733-1.02 0l-2.98 1.79c-.3090648.1832455-.6926808.1865957-1.004899.0087761-.3122181-.1778196-.5050383-.5094712-.505101-.8687761v-8z" fill="#fff"/><path id="Shape" d="m34.93 25.4c-.9317627 1.3984351-2.1315649 2.5982373-3.53 3.53-3.9505789 2.6117255-9.0378742 2.7665899-13.14.4-.9514158-.5445941-1.8258161-1.2138466-2.6-1.99-4.6487664-4.6534175-4.895873-12.1133986-.5652413-17.0642523 4.3306318-4.95085374 11.7571638-5.69851706 16.9877398-1.71023432 5.230576 3.98828272 6.4754185 11.34781712 2.8475015 16.83448662z" fill="#e8edfc"/><path id="Shape" d="m24.5 27c-4.05506-.0000881-7.5453835-2.8645842-8.3364891-6.8417268-.7911055-3.9771426 1.3373326-7.9592837 5.0836837-9.5111743 3.7463512-1.55189056 8.0672435-.2413237 10.3202673 3.130233 2.2530238 3.3715568 1.810704 7.8651133-1.0564619 10.7326681-1.5906215 1.5996077-3.755167 2.4962502-6.011 2.49z" fill="#a4c2f7"/><path id="Shape" d="m45.27 39.27c-.9793245.973236-2.5606755.973236-3.54 0l-8.1-8.11-2.23-2.23c1.3984351-.9317627 2.5982373-2.1315649 3.53-3.53l10.34 10.33c.9699707.9806688.9699707 2.5593312 0 3.54z" fill="#a4c2f7"/><circle id="Oval" cx="26.5" cy="18.5" fill="#e8edfc" r="2.5"/><path id="Shape" d="m27.48 37.79c-2.0605186-1.6493802-4.7928413-2.1973358-7.33-1.47-1.37.31-3.29.8-4.47-.24-1.32-1.15-.77-3.2.15-4.41.6982373-.8883073 1.5159857-1.6757688 2.43-2.34 4.1021258 2.3665899 9.1894211 2.2117255 13.14-.4l2.23 2.23c1.44 3.96-1.42 10.57-6.15 6.63z" fill="#a4c2f7"/><path id="Shape" d="m2 50c.0595869 2.8187131 2.39122068 5.0563654 5.21 5h3c-2.81877932.0563654-5.1504131-2.1812869-5.21-5v-44c0-2.76142375 2.23857625-5 5-5h-3c-2.76142375 0-5 2.23857625-5 5z" fill="#fff"/><path id="Rectangle-path" d="m1 6h2v8h-2z" fill="#fff"/><g fill="#428dff"><circle id="Oval" cx="22" cy="15" r="1"/><circle id="Oval" cx="20" cy="20" r="1"/><path id="Shape" d="m2.02 11c-.55228475.0027614-1.00223858-.4427153-1.005-.995-.00276142-.55228475.44271525-1.00223858.995-1.005h.01c.55228475 0 1 .44771525 1 1 0 .5522847-.44771525 1-1 1z"/><path id="Shape" d="m48 0h-41c-3.31233757.00330738-5.99669262 2.68766243-6 6 0 .35726559.19059892.68739261.5.8660254.30940108.1786328.69059892.1786328 1 0 .30940108-.17863279.5-.50875981.5-.8660254 0-2.209139 1.790861-4 4-4v1c0 .55228475.44771525 1 1 1s1-.44771525 1-1v-1h39c.5522847 0 1 .44771525 1 1v39c-.0286401.7798547-.3933003 1.5091751-1 2h-39v-1c0-.5522847-.44771525-1-1-1s-1 .4477153-1 1v1c-1.47930705.0013494-2.90517386.5531599-4 1.548v-31.548c0-.5522847-.44771525-1-1-1s-1 .4477153-1 1v36c-.00311203.1956303.0049009.3912794.024.586.38318859 3.1162408 3.04646318 5.4471442 6.186 5.414h3.79v2c-.0050454.722159.384077 1.3896095 1.015 1.741.6256978.3598127 1.3977993.3498452 2.014-.026l2.971-1.784 2.971 1.782c.6175574.3705391 1.3866446.3804356 2.0135321.02591.6268875-.3545257 1.0147548-1.0187184 1.0154679-1.73891v-2h25c1.6568542 0 3-1.3431458 3-3v-50c0-1.65685425-1.3431458-3-3-3zm-27 58-2.972-1.783c-.6331208-.3796258-1.4238792-.3796258-2.057 0l-2.971 1.783v-7h8zm2-7h3c.5522847 0 1-.4477153 1-1s-.4477153-1-1-1h-17c-.55228475 0-1 .4477153-1 1s.44771525 1 1 1h2v3h-3.79c-2.11949134.0402921-3.9294676-1.5214589-4.2-3.624-.01078908-.125024-.01412832-.2505793-.01-.376.00876947-2.2054964 1.79450365-3.9912305 4-4h37c-1.334579 2.4996884-1.334579 5.5003116 0 8h-21zm25 3h-1c-.944 0-2-1.711-2-4s1.056-4 2-4h1c.3507845-.0022166.6951198-.0944985 1-.268v7.268c0 .5522847-.4477153 1-1 1z"/><path id="Shape" d="m8 10c.55228475 0 1-.44771525 1-1v-2c0-.55228475-.44771525-1-1-1s-1 .44771525-1 1v2c0 .55228475.44771525 1 1 1z"/><path id="Shape" d="m7 15c0 .5522847.44771525 1 1 1s1-.4477153 1-1v-2c0-.5522847-.44771525-1-1-1s-1 .4477153-1 1z"/><path id="Shape" d="m7 21c0 .5522847.44771525 1 1 1s1-.4477153 1-1v-2c0-.5522847-.44771525-1-1-1s-1 .4477153-1 1z"/><path id="Shape" d="m7 27c0 .5522847.44771525 1 1 1s1-.4477153 1-1v-2c0-.5522847-.44771525-1-1-1s-1 .4477153-1 1z"/><path id="Shape" d="m7 33c0 .5522847.44771525 1 1 1s1-.4477153 1-1v-2c0-.5522847-.44771525-1-1-1s-1 .4477153-1 1z"/><path id="Shape" d="m7 39c0 .5522847.44771525 1 1 1s1-.4477153 1-1v-2c0-.5522847-.44771525-1-1-1s-1 .4477153-1 1z"/><path id="Shape" d="m34.046 8.954c-3.5816465-3.6304007-8.9033893-4.93263139-13.7566858-3.36626159s-8.4096899 5.73396109-9.1932641 10.77320829 1.3394268 10.0899519 5.4879499 13.0560533c-.5696859.4965732-1.0888781 1.0482567-1.55 1.647-1.281 1.685-1.721 4.28-.015 5.766 1.518 1.339 3.728.834 5.19.5l.167-.039c2.2322419-.660037 4.6461569-.1877087 6.465 1.265.9268286.8731029 2.1351376 1.3862884 3.407 1.447.7893325-.0040227 1.5579839-.2527862 2.2-.712 1.5829464-1.3386088 2.5047039-3.3000357 2.525-5.373l6.049 6.055c1.3697211 1.3667035 3.5872789 1.3667035 4.957 0 1.3529393-1.3730492 1.3529393-3.5779508 0-4.951l-9.795-9.785c3.0456137-5.2878127 2.1694511-11.9606637-2.138-16.283zm-17.678 1.414c4.4911088-4.4908083 11.7723662-4.49064592 16.2632746.0003627 4.4909085 4.4910086 4.4909085 11.772266 0 16.2632746-4.4909084 4.4910086-11.7721658 4.491171-16.2632746.0003627-2.1654523-2.1521062-3.383119-5.0790105-3.383119-8.132s1.2176667-5.9798938 3.383119-8.132zm14.932 27.289c-.868.612-1.938.4-3.18-.636-2.2985553-1.8489294-5.3488708-2.4732216-8.189-1.676l-.165.038c-1.129.256-2.674.607-3.428-.057-.842-.734-.338-2.226.291-3.054.5075725-.6517621 1.0921556-1.239703 1.741-1.751 4.0692603 2.078115 8.9147923 1.9504722 12.869-.339l1.5 1.5c.661 2.075-.022 4.978-1.439 5.975zm13.26-1.222c.5809436.5903852.5809436 1.5376148 0 2.128-.5957482.5638235-1.5282518.5638235-2.124 0l-8.075-8.081-1.435-1.436c.3915024-.3124081.7654079-.6462524 1.12-1 .3534746-.3548497.6873051-.7287399 1-1.12z"/><path id="Shape" d="m31.218 25.217c3.2044616-3.2049524 3.6987668-8.2271866 1.1806254-11.9953768-2.5181414-3.76819032-7.3474137-5.23287565-11.5344962-3.49833404-4.1870824 1.73454164-6.5658504 6.18523104-5.6815785 10.63026844s4.7853092 7.6464561 9.3174493 7.6464424c2.5211595.0068572 4.940262-.9952807 6.718-2.783zm-14.218-6.717c-.0031501-3.5782374 2.5219049-6.6603528 6.0308181-7.3612958 3.5089132-.7009431 7.0242996 1.1745292 8.3961165 4.4793607 1.3718168 3.3048315.2179535 7.118483-2.7558766 9.1084899s-6.9392858 1.6020659-9.471058-.9265548c-1.4115153-1.4020973-2.2036691-3.3104677-2.2-5.3z"/><path id="Shape" d="m30 18.5c0-1.9329966-1.5670034-3.5-3.5-3.5s-3.5 1.5670034-3.5 3.5 1.5670034 3.5 3.5 3.5 3.5-1.5670034 3.5-3.5zm-5 0c0-.8284271.6715729-1.5 1.5-1.5s1.5.6715729 1.5 1.5-.6715729 1.5-1.5 1.5-1.5-.6715729-1.5-1.5z"/></g></g></g></svg>