<svg height="512" viewBox="0 0 50 60" width="512" xmlns="http://www.w3.org/2000/svg"><g id="Page-1" fill="none" fill-rule="evenodd"><g id="060---Poetry-Book" fill-rule="nonzero" transform="translate(-1)"><path id="Shape" d="m47 55h-25v-5h-10v5h-4.79c-2.62768969.0421177-4.86508915-1.902135-5.19-4.51-.01643773-.162788-.02311634-.3264139-.02-.49 0-2.7614237 2.23857625-5 5-5h40c-1.66 0-3 2.24-3 5s1.34 5 3 5z" fill="#e8edfc"/><path id="Shape" d="m50 3v39c0 1.1-.9 3-2 3h-41c-2.76142375 0-5 2.2385763-5 5v-44c0-2.76142375 2.23857625-5 5-5h41c1.1032019.0032948 1.9967052.89679813 2 2z" fill="#e8edfc"/><path id="Shape" d="m48 1h-3c1.1032019.0032948 1.9967052.89679813 2 2v39c0 1.1-.9 3-2 3h3c1.1 0 2-1.9 2-3v-39c-.0032948-1.10320187-.8967981-1.9967052-2-2z" fill="#cad9fc"/><path id="Shape" d="m50 42v11c-.0032948 1.1032019-.8967981 1.9967052-2 2h-1c-1.66 0-3-2.24-3-5s1.34-5 3-5h1c1.1 0 2-1.9 2-3z" fill="#a4c2f7"/><path id="Shape" d="m22 50v8c-.0000627.3593049-.1928829.6909565-.505101.8687761-.3122182.1778196-.6958342.1744694-1.004899-.0087761l-2.98-1.79c-.3134634-.1899733-.7065366-.1899733-1.02 0l-2.98 1.79c-.3090648.1832455-.6926808.1865957-1.004899.0087761-.3122181-.1778196-.5050383-.5094712-.505101-.8687761v-8z" fill="#fff"/><path id="Shape" d="m35.95 32h-17.9c.0407134-.1670936.1273016-.3194888.25-.44l4.63-4.56h8.14l4.63 4.56c.1226984.1205112.2092866.2729064.25.44z" fill="#e8edfc"/><path id="Shape" d="m35.95 32.59-2.62 7.73c-.1453687.4058359-.5289215.6775191-.96.68h-10.74c-.4310785-.0024809-.8146313-.2741641-.96-.68l-2.62-7.73c-.0649954-.1912967-.0649954-.3987033 0-.59h17.9c.0649954.1912967.0649954.3987033 0 .59z" fill="#e8edfc"/><path id="Shape" d="m33 25c-.0081672 1.1011688-.8988312 1.9918328-2 2h-8c-1.1032019-.0032948-1.9967052-.8967981-2-2 .0081672-1.1011688.8988312-1.9918328 2-2h8c1.1032019.0032948 1.9967052.8967981 2 2z" fill="#e8edfc"/><path id="Shape" d="m29 23h-2s-1.22-13 10-18c0 0 1 9-8 18z" fill="#a4c2f7"/><path id="Shape" d="m27 23h-2s-7.22-18 12-18c-11.22 5-10 18-10 18z" fill="#a4c2f7"/><path id="Shape" d="m2 50c.0595869 2.8187131 2.39122068 5.0563654 5.21 5h3c-2.81877932.0563654-5.1504131-2.1812869-5.21-5v-44c0-2.76142375 2.23857625-5 5-5h-3c-2.76142375 0-5 2.23857625-5 5z" fill="#fff"/><path id="Rectangle-path" d="m1 6h2v8h-2z" fill="#fff"/><g fill="#428dff"><path id="Shape" d="m2.02 11c-.55228475.0027614-1.00223858-.4427153-1.005-.995-.00276142-.55228475.44271525-1.00223858.995-1.005h.01c.55228475 0 1 .44771525 1 1 0 .5522847-.44771525 1-1 1z"/><path id="Shape" d="m48 0h-41c-3.31233757.00330738-5.99669262 2.68766243-6 6 0 .35726559.19059892.68739261.5.8660254.30940108.1786328.69059892.1786328 1 0 .30940108-.17863279.5-.50875981.5-.8660254 0-2.209139 1.790861-4 4-4v1c0 .55228475.44771525 1 1 1s1-.44771525 1-1v-1h39c.5522847 0 1 .44771525 1 1v39c-.0286401.7798547-.3933003 1.5091751-1 2h-39v-1c0-.5522847-.44771525-1-1-1s-1 .4477153-1 1v1c-1.47930705.0013494-2.90517386.5531599-4 1.548v-31.548c0-.5522847-.44771525-1-1-1s-1 .4477153-1 1v36c-.00311203.1956303.0049009.3912794.024.586.38318859 3.1162408 3.04646318 5.4471442 6.186 5.414h3.79v2c-.0050454.722159.384077 1.3896095 1.015 1.741.6256978.3598127 1.3977993.3498452 2.014-.026l2.971-1.784 2.971 1.782c.6175574.3705391 1.3866446.3804356 2.0135321.02591.6268875-.3545257 1.0147548-1.0187184 1.0154679-1.73891v-2h25c1.6568542 0 3-1.3431458 3-3v-50c0-1.65685425-1.3431458-3-3-3zm-27 58-2.972-1.783c-.6331208-.3796258-1.4238792-.3796258-2.057 0l-2.971 1.783v-7h8zm2-7h3c.5522847 0 1-.4477153 1-1s-.4477153-1-1-1h-17c-.55228475 0-1 .4477153-1 1s.44771525 1 1 1h2v3h-3.79c-2.11949134.0402921-3.9294676-1.5214589-4.2-3.624-.01078908-.125024-.01412832-.2505793-.01-.376.00876947-2.2054964 1.79450365-3.9912305 4-4h37c-1.334579 2.4996884-1.334579 5.5003116 0 8h-21zm25 3h-1c-.944 0-2-1.711-2-4s1.056-4 2-4h1c.3507845-.0022166.6951198-.0944985 1-.268v7.268c0 .5522847-.4477153 1-1 1z"/><path id="Shape" d="m8 10c.55228475 0 1-.44771525 1-1v-2c0-.55228475-.44771525-1-1-1s-1 .44771525-1 1v2c0 .55228475.44771525 1 1 1z"/><path id="Shape" d="m7 15c0 .5522847.44771525 1 1 1s1-.4477153 1-1v-2c0-.5522847-.44771525-1-1-1s-1 .4477153-1 1z"/><path id="Shape" d="m7 21c0 .5522847.44771525 1 1 1s1-.4477153 1-1v-2c0-.5522847-.44771525-1-1-1s-1 .4477153-1 1z"/><path id="Shape" d="m7 27c0 .5522847.44771525 1 1 1s1-.4477153 1-1v-2c0-.5522847-.44771525-1-1-1s-1 .4477153-1 1z"/><path id="Shape" d="m7 33c0 .5522847.44771525 1 1 1s1-.4477153 1-1v-2c0-.5522847-.44771525-1-1-1s-1 .4477153-1 1z"/><path id="Shape" d="m7 39c0 .5522847.44771525 1 1 1s1-.4477153 1-1v-2c0-.5522847-.44771525-1-1-1s-1 .4477153-1 1z"/><path id="Shape" d="m17.2 31.425c-.1262675.1654406-.1963444.3669118-.2.575.0056421.0390407.0133192.0777601.023.116-.0262131.2664305.0013311.5354121.081.791l2.62 7.729c.2779216.8179213 1.0471558 1.3669718 1.911 1.364h10.73c.8632189.0029533 1.6321305-.5450622 1.911-1.362l2.62-7.733c.0802104-.2551328.1077674-.5238986.081-.79.0101587-.0377925.0178417-.0762074.023-.115-.0040794-.2074008-.0741341-.4081076-.2-.573-.097603-.2144962-.2331069-.4096219-.4-.576l-3.559-3.5c.9706113-.750109 1.3815275-2.0189178 1.0349321-3.1956171-.3465955-1.1766993-1.3796837-2.0201783-2.6019321-2.1243829 7.559-8.641 6.76-16.778 6.72-17.141-.010528-.03397378-.0228793-.06735552-.037-.1-.0185107-.09219324-.050522-.18115106-.095-.264-.0250538-.04467058-.0538219-.08715378-.086-.127-.0597708-.07664281-.1305344-.14403676-.21-.2-.026-.018-.041-.048-.069-.064s-.033-.007-.048-.014c-.0945177-.04572409-.1958386-.07578261-.3-.089-.0407019-.01120581-.0821358-.01955941-.124-.025-.009 0-.017 0-.026 0-5.991-.007-10.18 1.693-12.45 5.052-2.976 4.4-1.732 10.3-.941 12.941h-.608c-1.2790022-.0048776-2.4192738.8048306-2.8361918 2.0139832s-.018014 2.5495713.9921918 3.3340168l-3.559 3.5c-.165802.1670213-.3002687.3624552-.397.577zm15.165 8.575-10.747-.005-2.37-6.995h15.5zm-12.065-9 3.048-3h7.312l3.057 3zm8.275-9h-.607c-.013-2.76.589-11.154 8.039-15.379-.171 2.8-1.295 9.079-7.436 15.379zm-2.365-11.826c1.326-1.957 3.545-3.218 6.588-3.8-6.224 4.956-6.829 12.771-6.829 15.626h-.261c-.625-1.9-2.221-7.807.502-11.826zm-3.21 13.826h8c.5522847 0 1 .4477153 1 1s-.4477153 1-1 1h-8c-.5522847 0-1-.4477153-1-1s.4477153-1 1-1z"/></g></g></g></svg>