<svg height="512" viewBox="0 0 50 60" width="512" xmlns="http://www.w3.org/2000/svg"><g id="Page-1" fill="none" fill-rule="evenodd"><g id="062---Theatrical-Novel" fill-rule="nonzero" transform="translate(-1)"><path id="Shape" d="m50 3v39c0 1.1-.9 3-2 3h-41c-2.76142375 0-5 2.2385763-5 5v-44c0-2.76142375 2.23857625-5 5-5h41c1.1032019.0032948 1.9967052.89679813 2 2z" fill="#e8edfc"/><path id="Shape" d="m48 1h-3c1.1032019.0032948 1.9967052.89679813 2 2v39c0 1.1-.9 3-2 3h3c1.1 0 2-1.9 2-3v-39c-.0032948-1.10320187-.8967981-1.9967052-2-2z" fill="#cad9fc"/><path id="Shape" d="m47 55h-25v-5h-10v5h-4.79c-2.62768969.0421177-4.86508915-1.902135-5.19-4.51-.01643773-.162788-.02311634-.3264139-.02-.49 0-2.7614237 2.23857625-5 5-5h40c-1.66 0-3 2.24-3 5s1.34 5 3 5z" fill="#e8edfc"/><path id="Shape" d="m50 42v11c-.0032948 1.1032019-.8967981 1.9967052-2 2h-1c-1.66 0-3-2.24-3-5s1.34-5 3-5h1c1.1 0 2-1.9 2-3z" fill="#a4c2f7"/><path id="Shape" d="m48 45h-1v8c-.0036392.7004821-.3734912 1.3480075-.975 1.707.2933409.1822358.6297963.283345.975.293h1c1.1032019-.0032948 1.9967052-.8967981 2-2v-11c0 1.1-.9 3-2 3z" fill="#7facfa"/><path id="Shape" d="m22 50v8c-.0000627.3593049-.1928829.6909565-.505101.8687761-.3122182.1778196-.6958342.1744694-1.004899-.0087761l-2.98-1.79c-.3134634-.1899733-.7065366-.1899733-1.02 0l-2.98 1.79c-.3090648.1832455-.6926808.1865957-1.004899.0087761-.3122181-.1778196-.5050383-.5094712-.505101-.8687761v-8z" fill="#fff"/><path id="Shape" d="m45.9 13.02c-.71 2.47-5.18 16.74-12.96 16.97-.6711557.0246136-1.3421535-.0529389-1.99-.23-5.38-1.46-6.22-8.05-5.89-13.71.1884621-2.8028479.6065307-5.5855126 1.25-8.32.0539014-.24018404.1968353-.45101142.4-.59 3.44-2.29 10.37-.42 10.37-.42s6.93 1.87 8.77 5.6c.1067162.2180463.1246415.4689996.05.7z" fill="#e8edfc"/><path id="Shape" d="m32.94 29.99v.01c-.29 4.46-1.74 8.64-5.89 9.76-9.01 2.43-14.18-14.08-14.95-16.75-.073803-.2311013-.0559006-.4817347.05-.7 1.84-3.72 8.77-5.59 8.77-5.59 1.3587472-.3391443 2.74364-.5632694 4.14-.67-.33 5.66.51 12.25 5.89 13.71.6478465.1770611 1.3188443.2546136 1.99.23z" fill="#a4c2f7"/><path id="Shape" d="m5 50v-44c0-2.76142375 2.23857625-5 5-5h-3c-2.76142375 0-5 2.23857625-5 5v44c.0595869 2.8187131 2.39122068 5.0563654 5.21 5h3c-2.81877932.0563654-5.1504131-2.1812869-5.21-5z" fill="#fff"/><path id="Rectangle-path" d="m1 6h2v8h-2z" fill="#fff"/><g fill="#428dff"><path id="Shape" d="m2.02 11c-.55228475.0027614-1.00223858-.4427153-1.005-.995-.00276142-.55228475.44271525-1.00223858.995-1.005h.01c.55228475 0 1 .44771525 1 1 0 .5522847-.44771525 1-1 1z"/><path id="Shape" d="m48 0h-41c-3.31233757.00330738-5.99669262 2.68766243-6 6 0 .35726559.19059892.68739261.5.8660254.30940108.1786328.69059892.1786328 1 0 .30940108-.17863279.5-.50875981.5-.8660254 0-2.209139 1.790861-4 4-4v1c0 .55228475.44771525 1 1 1s1-.44771525 1-1v-1h39c.5522847 0 1 .44771525 1 1v39c-.0286401.7798547-.3933003 1.5091751-1 2h-39v-1c0-.5522847-.44771525-1-1-1s-1 .4477153-1 1v1c-1.47930705.0013494-2.90517386.5531599-4 1.548v-31.548c0-.5522847-.44771525-1-1-1s-1 .4477153-1 1v36c-.00315317.1956308.00485985.3912822.024.586.38318859 3.1162408 3.04646318 5.4471442 6.186 5.414h3.79v2c-.0050454.722159.384077 1.3896095 1.015 1.741.6256978.3598127 1.3977993.3498452 2.014-.026l2.971-1.784 2.97 1.782c.617612.3710616 1.3870729.3812417 2.0142854.0266493s1.0152174-1.0191418 1.0157146-1.7396493v-2h25c1.6568542 0 3-1.3431458 3-3v-50c0-1.65685425-1.3431458-3-3-3zm-27 58-2.972-1.783c-.6331208-.3796258-1.4238792-.3796258-2.057 0l-2.971 1.783v-7h8zm2-7h3c.5522847 0 1-.4477153 1-1s-.4477153-1-1-1h-17c-.55228475 0-1 .4477153-1 1s.44771525 1 1 1h2v3h-3.79c-2.12033461.0396542-3.93043498-1.5234967-4.2-3.627-.01078853-.1240215-.01412786-.2485786-.01-.373.00876947-2.2054964 1.79450365-3.9912305 4-4h37c-1.334579 2.4996884-1.334579 5.5003116 0 8h-21zm25 3h-1c-.944 0-2-1.711-2-4s1.056-4 2-4h1c.3507845-.0022166.6951198-.0944985 1-.268v7.268c0 .5522847-.4477153 1-1 1z"/><path id="Shape" d="m8 10c.55228475 0 1-.44771525 1-1v-2c0-.55228475-.44771525-1-1-1s-1 .44771525-1 1v2c0 .55228475.44771525 1 1 1z"/><path id="Shape" d="m7 15c0 .5522847.44771525 1 1 1s1-.4477153 1-1v-2c0-.5522847-.44771525-1-1-1s-1 .4477153-1 1z"/><path id="Shape" d="m7 21c0 .5522847.44771525 1 1 1s1-.4477153 1-1v-2c0-.5522847-.44771525-1-1-1s-1 .4477153-1 1z"/><path id="Shape" d="m7 27c0 .5522847.44771525 1 1 1s1-.4477153 1-1v-2c0-.5522847-.44771525-1-1-1s-1 .4477153-1 1z"/><path id="Shape" d="m7 33c0 .5522847.44771525 1 1 1s1-.4477153 1-1v-2c0-.5522847-.44771525-1-1-1s-1 .4477153-1 1z"/><path id="Shape" d="m7 39c0 .5522847.44771525 1 1 1s1-.4477153 1-1v-2c0-.5522847-.44771525-1-1-1s-1 .4477153-1 1z"/><path id="Shape" d="m37.294 15.749c.9735629.3095807 1.8733911.8153086 2.644 1.486.2665201.2381175.6398291.3159604.979305.204206.3394759-.1117545.5935442-.3961281.6665-.746.0729557-.349872-.0462848-.7120885-.312805-.950206-1.0021147-.8778164-2.1785082-1.5338296-3.452-1.925-.5332309-.1449747-1.0830252.1697691-1.228.703-.1449747.5332309.1697691 1.0830252.703 1.228z"/><path id="Shape" d="m29.377 14.382c1.0004685-.1924353 2.0298476-.1767768 3.024.046.5186715.1078032 1.0314177-.2075921 1.1691212-.7191383.1377036-.5115461-.1474227-1.0417214-.6501212-1.2088617-1.2956678-.3034407-2.6409978-.3283226-3.947-.073-.3573141.0640376-.6518645.3166812-.769566.6600768s-.0400675.7236082.2028329.9933741c.2429004.2697658.6129162.3867143.9667331.3055491z"/><path id="Shape" d="m32.744 23.03c-.6488684-.1390909-1.2272448-.5041201-1.632-1.03-.2786277-.4768978-.8911021-.6376276-1.368-.359-.4768978.2786277-.6376276.8911021-.359 1.368.662056.9891694 1.6774602 1.6875729 2.838 1.952.4687341.1299005.9526074.1971518 1.439.2.6922782.0162095 1.3775511-.141613 1.993-.459.4679222-.2736073.6292016-.8723906.362-1.344-.269674-.4750844-.86822-.6496418-1.351-.394-.6118439.2525996-1.2942697.2760336-1.922.066z"/><path id="Shape" d="m25.233 41.009c.7020735-.0028913 1.4007223-.0980394 2.078-.283 2.637-.713 5.846-3 6.544-9.81 7.816-1.166 12.138-14.629 13-17.623.141132-.4711553.1008213-.9780711-.113-1.421-2.02-4.084-9.107-6.038-9.408-6.12s-7.405-1.959-11.186.56c-.4090873.27761891-.6983546.69937777-.81 1.181-.5999609 2.5120569-1.0081363 5.0660785-1.221 7.64-1.1666607.1265655-2.323114.3340655-3.461.621-.3.081-7.39 2.032-9.406 6.115-.2136903.4422534-.2540046.9485009-.113 1.419.908 3.131 5.587 17.721 14.096 17.721zm2.056-33.051c2.521-1.647 7.729-.759 9.527-.275s6.792 2.358 8.122 5.055c-.538 1.876-5.538 18.276-13.725 16.052-8.18-2.208-4.402-18.865-3.924-20.832zm-6.109 9.728c.9329849-.2312551 1.8790232-.4062371 2.833-.524-.154 5.739 1.045 12.039 6.678 13.56.3759864.1003072.7586127.1738249 1.145.22-.488 4.421-2.172 7.076-5.046 7.852-8.198 2.206-13.19-14.184-13.743-16.04 1.341-2.716 6.326-4.579 8.133-5.068z"/><path id="Shape" d="m21.407 24.523c-.1460667-.5312174-.6942801-.8442267-1.226-.7-1.2734918.3911704-2.4498853 1.0471836-3.452 1.925-.4120044.3680978-.4475978 1.0004956-.0795 1.4125s1.0004956.4475978 1.4125.0795c.7707561-.6704826 1.6705389-1.176185 2.644-1.486.2564506-.0698854.4745269-.2389938.6060582-.4699709.1315312-.2309771.1656939-.5048162.0949418-.7610291z"/><path id="Shape" d="m22.339 35.007c.1532665.0914561.3285215.1395043.507.139.3493642.0003754.6744664-.1786008.861-.474.8695415-1.0164095 2.2699353-1.4016465 3.537-.973.4757687.2629861 1.0744802.0977306 1.3479864-.3720693s.1216121-1.0720398-.3419864-1.3559307c-1.0669941-.5267065-2.296195-.6209297-3.431-.263-1.1613997.2636825-2.1774796.9626624-2.839 1.953-.2679006.4714312-.1080918 1.0706032.359 1.346z"/></g></g></g></svg>