<svg height="512" viewBox="0 0 50 60" width="512" xmlns="http://www.w3.org/2000/svg"><g id="Page-1" fill="none" fill-rule="evenodd"><g id="064---Mechanical-Book" fill-rule="nonzero" transform="translate(-1)"><path id="Shape" d="m50 3v39c0 1.1-.9 3-2 3h-41c-2.76142375 0-5 2.2385763-5 5v-44c0-2.76142375 2.23857625-5 5-5h41c1.1032019.0032948 1.9967052.89679813 2 2z" fill="#e8edfc"/><path id="Shape" d="m48 1h-3c1.1032019.0032948 1.9967052.89679813 2 2v39c0 1.1-.9 3-2 3h3c1.1 0 2-1.9 2-3v-39c-.0032948-1.10320187-.8967981-1.9967052-2-2z" fill="#cad9fc"/><path id="Shape" d="m47 55h-25v-5h-10v5h-4.79c-2.62768969.0421177-4.86508915-1.902135-5.19-4.51-.01643773-.162788-.02311634-.3264139-.02-.49 0-2.7614237 2.23857625-5 5-5h40c-1.66 0-3 2.24-3 5s1.34 5 3 5z" fill="#e8edfc"/><path id="Shape" d="m50 42v11c-.0032948 1.1032019-.8967981 1.9967052-2 2h-1c-1.66 0-3-2.24-3-5s1.34-5 3-5h1c1.1 0 2-1.9 2-3z" fill="#a4c2f7"/><path id="Shape" d="m48 45h-1v8c-.0036392.7004821-.3734912 1.3480075-.975 1.707.2933409.1822358.6297963.283345.975.293h1c1.1032019-.0032948 1.9967052-.8967981 2-2v-11c0 1.1-.9 3-2 3z" fill="#7facfa"/><path id="Shape" d="m22 50v8c-.0000627.3593049-.1928829.6909565-.505101.8687761-.3122182.1778196-.6958342.1744694-1.004899-.0087761l-2.98-1.79c-.3134634-.1899733-.7065366-.1899733-1.02 0l-2.98 1.79c-.3090648.1832455-.6926808.1865957-1.004899.0087761-.3122181-.1778196-.5050383-.5094712-.505101-.8687761v-8z" fill="#fff"/><path id="Shape" d="m45.243 19.811-1.136-.284c-.3463289-.0887443-.6189338-.3556302-.715-.7-.3065087-1.0597482-.7301211-2.0820528-1.263-3.048-.1758566-.3110066-.1724257-.6922089.009-1l.6-1c.2363948-.3934817.1745423-.8973731-.15-1.222l-3.136-3.147c-.3246269-.32454231-.8285183-.38639476-1.222-.15l-1 .6c-.3077911.1814257-.6889934.1848566-1 .009-.9659472-.5328789-1.9882518-.95649133-3.048-1.263-.3443698-.09606618-.6112557-.36867106-.7-.715l-.284-1.136c-.113039-.44740915-.5175526-.75936807-.979-.755h-4.438c-.4586794.00001206-.8585409.31206894-.97.757l-.284 1.136c-.0887443.34632894-.3556302.61893382-.7.715-1.0597482.30650867-2.0820528.7301211-3.048 1.263-.3110066.1758566-.6922089.1724257-1-.009l-1-.6c-.3934817-.23639476-.8973731-.17454231-1.222.15l-3.147 3.136c-.3245423.3246269-.3863948.8285183-.15 1.222l.6 1c.1814257.3077911.1848566.6889934.009 1-.5328789.9659472-.9564913 1.9882518-1.263 3.048-.0960662.3443698-.3686711.6112557-.715.7l-1.136.284c-.4449311.1114591-.7569879.5113206-.757.97v4.438c.0000121.4586794.3120689.8585409.757.97l1.136.284c.3463289.0887443.6189338.3556302.715.7.3065087 1.0597482.7301211 2.0820528 1.263 3.048.1758566.3110066.1724257.6922089-.009 1l-.6 1c-.2363948.3934817-.1745423.8973731.15 1.222l3.138 3.138c.3246269.3245423.8285183.3863948 1.222.15l1-.6c.3077911-.1814257.6889934-.1848566 1-.009.9659472.5328789 1.9882518.9564913 3.048 1.263.3443698.0960662.6112557.3686711.7.715l.284 1.136c.1114591.4449311.5113206.7569879.97.757h4.438c.4586794-.0000121.8585409-.3120689.97-.757l.284-1.136c.0887443-.3463289.3556302-.6189338.7-.715 1.0597482-.3065087 2.0820528-.7301211 3.048-1.263.3110066-.1758566.6922089-.1724257 1 .009l1 .6c.3934817.2363948.8973731.1745423 1.222-.15l3.138-3.138c.3245423-.3246269.3863948-.8285183.15-1.222l-.6-1c-.1814257-.3077911-.1848566-.6889934-.009-1 .5328789-.9659472.9564913-1.9882518 1.263-3.048.0960662-.3443698.3686711-.6112557.715-.7l1.136-.284c.4449311-.1114591.7569879-.5113206.757-.97v-4.429c.001871-.4540677-.3024216-.8523993-.741-.97z" fill="#e8edfc"/><path id="Shape" d="m39 23c-.0032542 4.3662472-2.8359217 8.2267684-7 9.54v-4c.0007135-.3374777.1694426-.6524387.45-.84l2.1-1.4c.2805574-.1875613.4492865-.5025223.45-.84v-4.46c0-.5522847-.4477153-1-1-1h-2c-.5522847 0-1 .4477153-1 1v2.39c.001676.3773574-.2117454.722712-.55.89l-1 .5c-.2836743.1399671-.6163257.1399671-.9 0l-1-.5c-.3382546-.167288-.551676-.5126426-.55-.89v-2.39c0-.5522847-.4477153-1-1-1h-2c-.5522847 0-1 .4477153-1 1v4.46c.0007135.3374777.1694426.6524387.45.84l2.1 1.4c.2805574.1875613.4492865.5025223.45.84v4c-4.8938813-1.5390545-7.8292759-6.5318104-6.7944434-11.5565378 1.0348324-5.0247274 5.7041714-8.4513039 10.8079372-7.9313632 5.1037657.5199407 8.9861943 4.8177194 8.9865062 9.947901z" fill="#a4c2f7"/><path id="Shape" d="m35 21v4.46c-.0007135.3374777-.1694426.6524387-.45.84l-2.1 1.4c-.2805574.1875613-.4492865.5025223-.45.84v4c-1.9529816.6133082-4.0470184.6133082-6 0v-4c-.0007135-.3374777-.1694426-.6524387-.45-.84l-2.1-1.4c-.2805574-.1875613-.4492865-.5025223-.45-.84v-4.46c0-.5522847.4477153-1 1-1h2c.5522847 0 1 .4477153 1 1v2.39c-.001676.3773574.2117454.722712.55.89l1 .5c.2836743.1399671.6163257.1399671.9 0l1-.5c.3382546-.167288.551676-.5126426.55-.89v-2.39c0-.5522847.4477153-1 1-1h2c.5522847 0 1 .4477153 1 1z" fill="#e8edfc"/><path id="Shape" d="m5 50v-44c0-2.76142375 2.23857625-5 5-5h-3c-2.76142375 0-5 2.23857625-5 5v44c.0595869 2.8187131 2.39122068 5.0563654 5.21 5h3c-2.81877932.0563654-5.1504131-2.1812869-5.21-5z" fill="#fff"/><path id="Rectangle-path" d="m1 6h2v8h-2z" fill="#fff"/><g fill="#428dff"><path id="Shape" d="m2.02 11c-.55228475.0027614-1.00223858-.4427153-1.005-.995-.00276142-.55228475.44271525-1.00223858.995-1.005h.01c.55228475 0 1 .44771525 1 1 0 .5522847-.44771525 1-1 1z"/><path id="Shape" d="m48 0h-41c-3.31233757.00330738-5.99669262 2.68766243-6 6 0 .35726559.19059892.68739261.5.8660254.30940108.1786328.69059892.1786328 1 0 .30940108-.17863279.5-.50875981.5-.8660254 0-2.209139 1.790861-4 4-4v1c0 .55228475.44771525 1 1 1s1-.44771525 1-1v-1h39c.5522847 0 1 .44771525 1 1v39c-.0286401.7798547-.3933003 1.5091751-1 2h-39v-1c0-.5522847-.44771525-1-1-1s-1 .4477153-1 1v1c-1.47930705.0013494-2.90517386.5531599-4 1.548v-31.548c0-.5522847-.44771525-1-1-1s-1 .4477153-1 1v36c-.00315317.1956308.00485985.3912822.024.586.38318859 3.1162408 3.04646318 5.4471442 6.186 5.414h3.79v2c-.0050454.722159.384077 1.3896095 1.015 1.741.6256978.3598127 1.3977993.3498452 2.014-.026l2.971-1.784 2.97 1.782c.617612.3710616 1.3870729.3812417 2.0142854.0266493s1.0152174-1.0191418 1.0157146-1.7396493v-2h25c1.6568542 0 3-1.3431458 3-3v-50c0-1.65685425-1.3431458-3-3-3zm-27 58-2.972-1.783c-.6331208-.3796258-1.4238792-.3796258-2.057 0l-2.971 1.783v-7h8zm2-7h3c.5522847 0 1-.4477153 1-1s-.4477153-1-1-1h-17c-.55228475 0-1 .4477153-1 1s.44771525 1 1 1h2v3h-3.79c-2.12033461.0396542-3.93043498-1.5234967-4.2-3.627-.01078853-.1240215-.01412786-.2485786-.01-.373.00876947-2.2054964 1.79450365-3.9912305 4-4h37c-1.334579 2.4996884-1.334579 5.5003116 0 8h-21zm25 3h-1c-.944 0-2-1.711-2-4s1.056-4 2-4h1c.3507845-.0022166.6951198-.0944985 1-.268v7.268c0 .5522847-.4477153 1-1 1z"/><path id="Shape" d="m8 10c.55228475 0 1-.44771525 1-1v-2c0-.55228475-.44771525-1-1-1s-1 .44771525-1 1v2c0 .55228475.44771525 1 1 1z"/><path id="Shape" d="m7 15c0 .5522847.44771525 1 1 1s1-.4477153 1-1v-2c0-.5522847-.44771525-1-1-1s-1 .4477153-1 1z"/><path id="Shape" d="m7 21c0 .5522847.44771525 1 1 1s1-.4477153 1-1v-2c0-.5522847-.44771525-1-1-1s-1 .4477153-1 1z"/><path id="Shape" d="m7 27c0 .5522847.44771525 1 1 1s1-.4477153 1-1v-2c0-.5522847-.44771525-1-1-1s-1 .4477153-1 1z"/><path id="Shape" d="m7 33c0 .5522847.44771525 1 1 1s1-.4477153 1-1v-2c0-.5522847-.44771525-1-1-1s-1 .4477153-1 1z"/><path id="Shape" d="m7 39c0 .5522847.44771525 1 1 1s1-.4477153 1-1v-2c0-.5522847-.44771525-1-1-1s-1 .4477153-1 1z"/><path id="Shape" d="m12.515 18.841c-.8898977.2224395-1.5144024 1.0217231-1.515 1.939v4.439c.0001389.9176498.6247408 1.7174699 1.515 1.94l1.132.3c.3267155 1.1319455.7806094 2.2232366 1.353 3.253l-.6 1c-.474868.7861777-.3509755 1.7950757.3 2.443l3.139 3.14c.6490939.6485805 1.6562669.7722611 2.443.3l1.011-.595c1.0333479.5709236 2.1284195 1.0221709 3.264 1.345l.283 1.135c.2206753.8926066 1.0215197 1.5197491 1.941 1.52h4.438c.9183138.0002055 1.7187681-.6249819 1.941-1.516l.3-1.131c1.1331905-.3280949 2.2255067-.7836739 3.256-1.358l1 .6c.7869634.4727895 1.7947461.3490846 2.444-.3l3.14-3.136c.6508126-.6475978.7747111-1.6561315.3-2.442l-.593-1.01c.5705479-1.0335283 1.0217772-2.1285561 1.345-3.264l1.135-.284c.889465-.223306 1.5130909-1.0229321 1.513-1.94v-4.439c-.0005976-.9172769-.6251023-1.7165605-1.515-1.939l-1.132-.294c-.3259632-1.1341232-.7798813-2.2274854-1.353-3.259l.6-1c.474868-.7861777.3509755-1.7950757-.3-2.443l-3.142-3.145c-.6490939-.64858047-1.6562669-.77226114-2.443-.3l-1.008.6c-1.0333479-.57092356-2.1284195-1.02217088-3.264-1.345l-.283-1.139c-.2222319-.89101809-1.0226862-1.51620547-1.941-1.516h-4.438c-.9183138-.00020547-1.7187681.62498191-1.941 1.516l-.295 1.131c-1.1331905.32809488-2.2255067.78367393-3.256 1.358l-1-.6c-.7869634-.47278952-1.7947461-.34908461-2.444.3l-3.145 3.136c-.6508126.6475978-.7747111 1.6561315-.3 2.442l.6 1.01c-.5707981 1.0334082-1.0220394 2.1284651-1.345 3.264zm3.053.261c.2864692-.987943.6815474-1.9410944 1.178-2.842.3474034-.6239072.3375049-1.3853346-.026-2l-.6-1 3.138-3.139 1.006.6c.6149575.3627865 1.3761664.3723016 2 .025.8989548-.4961415 1.8500838-.89121551 2.836-1.178.6879512-.19468251 1.2209121-.73982536 1.4-1.432l.281-1.136h4.438l.281 1.138c.1798327.69112587.7127059 1.23503716 1.4 1.429.9894239.28720241 1.9439293.683292 2.846 1.181.6246705.3451596 1.3852369.3345117 2-.028l1-.6 3.137 3.139-.6 1c-.3636141.614544-.3738919 1.3758642-.027 2 .4959171.9005674.8903323 1.8534022 1.176 2.841.1943192.6881671.7396178 1.2212802 1.432 1.4l1.136.28v4.44l-1.135.283c-.6919113.1780523-1.2374048.7098418-1.433 1.397-.2861038.9883906-.6811968 1.941913-1.178 2.843-.3474034.6239072-.3375049 1.3853346.026 2l.6 1-3.138 3.139-1.006-.6c-.6149575-.3627865-1.3761664-.3723016-2-.025-.8990841.495106-1.8502087.8891721-2.836 1.175-.6879512.1946825-1.2209121.7398254-1.4 1.432l-.281 1.136h-4.438l-.281-1.138c-.1798327-.6911259-.7127059-1.2350372-1.4-1.429-.9894239-.2872024-1.9439293-.683292-2.846-1.181-.2991473-.1642801-.6347144-.2509224-.976-.252-.3585806-.0003627-.7106171.0960241-1.019.279l-1 .6-3.137-3.139.6-1c.3636141-.614544.3738919-1.3758642.027-2-.4975155-.9000627-.8936064-1.8525592-1.181-2.84-.193955-.6883834-.7394098-1.2216493-1.432-1.4l-1.136-.281v-4.439l1.135-.283c.691808-.178236 1.2372237-.7099498 1.433-1.397z"/><path id="Shape" d="m25.606 33.458.014.005c2.1964586.7159823 4.5635414.7159823 6.76 0l.014-.005c5.1478052-1.6698022 8.3162731-6.8359591 7.470998-12.1813915-.8452751-5.3454325-5.4531464-9.2819141-10.864998-9.2819141s-10.0197229 3.9364816-10.864998 9.2819141c-.8452751 5.3454324 2.3231928 10.5115893 7.470998 12.1813915zm1.394-1.69v-3.233c-.0001229-.6687467-.3344799-1.29318-.891-1.664l-2.109-1.406v-4.465h2v2.387c-.0027578.7582029.42579 1.4520237 1.105 1.789l1 .5c.5637173.2789267 1.2252827.2789267 1.789 0l1-.5c.6797652-.3365121 1.1088078-1.030506 1.106-1.789v-2.387h2v4.465l-2.109 1.406c-.5565201.37082-.8908771.9952533-.891 1.664v3.233c-1.3153933.309322-2.6846067.309322-4 0zm2-17.768c4.1784724-.0043837 7.8093705 2.8701736 8.7637457 6.9381975.9543751 4.0680239-1.0192874 8.2574341-4.7637457 10.1118025v-2.515l2.109-1.406c.5565201-.37082.8908771-.9952533.891-1.664v-4.465c0-1.1045695-.8954305-2-2-2h-2c-1.1045695 0-2 .8954305-2 2v2.387l-1 .5-1-.5v-2.387c0-1.1045695-.8954305-2-2-2h-2c-1.1045695 0-2 .8954305-2 2v4.465c.0001229.6687467.3344799 1.29318.891 1.664l2.109 1.406v2.515c-3.7444583-1.8543684-5.7181208-6.0437786-4.7637457-10.1118025.9543752-4.0680239 4.5852733-6.9425812 8.7637457-6.9381975z"/></g></g></g></svg>