<svg height="512" viewBox="0 0 50 60" width="512" xmlns="http://www.w3.org/2000/svg"><g id="Page-1" fill="none" fill-rule="evenodd"><g id="065---Developer-Book" fill-rule="nonzero" transform="translate(-1)"><path id="Shape" d="m50 3v39c0 1.1-.9 3-2 3h-41c-2.76142375 0-5 2.2385763-5 5v-44c0-2.76142375 2.23857625-5 5-5h41c1.1032019.0032948 1.9967052.89679813 2 2z" fill="#e8edfc"/><path id="Shape" d="m48 1h-3c1.1032019.0032948 1.9967052.89679813 2 2v39c0 1.1-.9 3-2 3h3c1.1 0 2-1.9 2-3v-39c-.0032948-1.10320187-.8967981-1.9967052-2-2z" fill="#cad9fc"/><path id="Shape" d="m47 55h-25v-5h-10v5h-4.79c-2.62768969.0421177-4.86508915-1.902135-5.19-4.51-.01643773-.162788-.02311634-.3264139-.02-.49 0-2.7614237 2.23857625-5 5-5h40c-1.66 0-3 2.24-3 5s1.34 5 3 5z" fill="#e8edfc"/><path id="Shape" d="m50 42v11c-.0032948 1.1032019-.8967981 1.9967052-2 2h-1c-1.66 0-3-2.24-3-5s1.34-5 3-5h1c1.1 0 2-1.9 2-3z" fill="#a4c2f7"/><path id="Shape" d="m48 45h-1v8c-.0036392.7004821-.3734912 1.3480075-.975 1.707.2933409.1822358.6297963.283345.975.293h1c1.1032019-.0032948 1.9967052-.8967981 2-2v-11c0 1.1-.9 3-2 3z" fill="#7facfa"/><path id="Shape" d="m22 50v8c-.0000627.3593049-.1928829.6909565-.505101.8687761-.3122182.1778196-.6958342.1744694-1.004899-.0087761l-2.98-1.79c-.3134634-.1899733-.7065366-.1899733-1.02 0l-2.98 1.79c-.3090648.1832455-.6926808.1865957-1.004899.0087761-.3122181-.1778196-.5050383-.5094712-.505101-.8687761v-8z" fill="#fff"/><path id="Shape" d="m20 32c-.5842743-.0002537-1.1392217-.2559899-1.519-.7l-6-7c-.6401754-.748448-.6401754-1.851552 0-2.6l6-7c.4565676-.5694913 1.1871219-.8450292 1.9060544-.7188927s1.3120546.633913 1.5474864 1.3248155c.2354319.6909024.0757797 1.4551942-.4165408 1.9940772l-4.884 5.7 4.885 5.7c.5073414.5931477.6232667 1.4272477.2969036 2.1362658-.3263632.709018-1.0353785 1.1633954-1.8159036 1.1637342z" fill="#a4c2f7"/><path id="Shape" d="m38 32c.5846236.0000385 1.1399946-.2557245 1.52-.7l6-7c.6401754-.748448.6401754-1.851552 0-2.6l-6-7c-.4582255-.5641291-1.1864151-.8352797-1.9020073-.7082363-.7155922.1270433-1.3059448.6322825-1.5419814 1.3196681-.2360367.6873855-.0806026 1.4487153.4059887 1.9885682l4.884 5.7-4.885 5.7c-.5073414.5931477-.6232667 1.4272477-.2969036 2.1362658.3263632.709018 1.0353785 1.1633954 1.8159036 1.1637342z" fill="#a4c2f7"/><path id="Shape" d="m27 34c-.1108798-.0000859-.2215721-.0091152-.331-.027-1.0892246-.1811253-1.825584-1.2106855-1.645-2.3l3-18c.1175404-.704885.6022038-1.2935186 1.2714224-1.5441681.6692185-.2506496 1.4213218-.1252355 1.973.329.5516781.4542354.819118 1.1682831.7015776 1.8731681l-3 18c-.161514.962462-.9940807 1.6678192-1.97 1.669z" fill="#a4c2f7"/><path id="Shape" d="m5 50v-44c0-2.76142375 2.23857625-5 5-5h-3c-2.76142375 0-5 2.23857625-5 5v44c.0595869 2.8187131 2.39122068 5.0563654 5.21 5h3c-2.81877932.0563654-5.1504131-2.1812869-5.21-5z" fill="#fff"/><path id="Rectangle-path" d="m1 6h2v8h-2z" fill="#fff"/><g fill="#428dff"><path id="Shape" d="m2.02 11c-.55228475.0027614-1.00223858-.4427153-1.005-.995-.00276142-.55228475.44271525-1.00223858.995-1.005h.01c.55228475 0 1 .44771525 1 1 0 .5522847-.44771525 1-1 1z"/><path id="Shape" d="m48 0h-41c-3.31233757.00330738-5.99669262 2.68766243-6 6 0 .35726559.19059892.68739261.5.8660254.30940108.1786328.69059892.1786328 1 0 .30940108-.17863279.5-.50875981.5-.8660254 0-2.209139 1.790861-4 4-4v1c0 .55228475.44771525 1 1 1s1-.44771525 1-1v-1h39c.5522847 0 1 .44771525 1 1v39c-.0286401.7798547-.3933003 1.5091751-1 2h-39v-1c0-.5522847-.44771525-1-1-1s-1 .4477153-1 1v1c-1.47930705.0013494-2.90517386.5531599-4 1.548v-31.548c0-.5522847-.44771525-1-1-1s-1 .4477153-1 1v36c-.00315317.1956308.00485985.3912822.024.586.38318859 3.1162408 3.04646318 5.4471442 6.186 5.414h3.79v2c-.0050454.722159.384077 1.3896095 1.015 1.741.6256978.3598127 1.3977993.3498452 2.014-.026l2.971-1.784 2.97 1.782c.617612.3710616 1.3870729.3812417 2.0142854.0266493s1.0152174-1.0191418 1.0157146-1.7396493v-2h25c1.6568542 0 3-1.3431458 3-3v-50c0-1.65685425-1.3431458-3-3-3zm-27 58-2.972-1.783c-.6331208-.3796258-1.4238792-.3796258-2.057 0l-2.971 1.783v-7h8zm2-7h3c.5522847 0 1-.4477153 1-1s-.4477153-1-1-1h-17c-.55228475 0-1 .4477153-1 1s.44771525 1 1 1h2v3h-3.79c-2.12033461.0396542-3.93043498-1.5234967-4.2-3.627-.01078853-.1240215-.01412786-.2485786-.01-.373.00876947-2.2054964 1.79450365-3.9912305 4-4h37c-1.334579 2.4996884-1.334579 5.5003116 0 8h-21zm25 3h-1c-.944 0-2-1.711-2-4s1.056-4 2-4h1c.3507845-.0022166.6951198-.0944985 1-.268v7.268c0 .5522847-.4477153 1-1 1z"/><path id="Shape" d="m8 10c.55228475 0 1-.44771525 1-1v-2c0-.55228475-.44771525-1-1-1s-1 .44771525-1 1v2c0 .55228475.44771525 1 1 1z"/><path id="Shape" d="m7 15c0 .5522847.44771525 1 1 1s1-.4477153 1-1v-2c0-.5522847-.44771525-1-1-1s-1 .4477153-1 1z"/><path id="Shape" d="m7 21c0 .5522847.44771525 1 1 1s1-.4477153 1-1v-2c0-.5522847-.44771525-1-1-1s-1 .4477153-1 1z"/><path id="Shape" d="m7 27c0 .5522847.44771525 1 1 1s1-.4477153 1-1v-2c0-.5522847-.44771525-1-1-1s-1 .4477153-1 1z"/><path id="Shape" d="m7 33c0 .5522847.44771525 1 1 1s1-.4477153 1-1v-2c0-.5522847-.44771525-1-1-1s-1 .4477153-1 1z"/><path id="Shape" d="m7 39c0 .5522847.44771525 1 1 1s1-.4477153 1-1v-2c0-.5522847-.44771525-1-1-1s-1 .4477153-1 1z"/><path id="Shape" d="m21.952 13.722c-1.2581174-1.0780208-3.1519216-.9320681-4.23.326l-6 7c-.9674861 1.1199944-.9674861 2.7800056 0 3.9l6 7c1.0827539 1.2400852 2.9625688 1.3759597 4.2124046.3044758 1.2498359-1.0714838 1.4027214-2.9499918.3425954-4.2094758l-4.326-5.043 4.327-5.048c1.0780208-1.2581174.9320681-3.1519216-.326-4.23zm-1.193 2.929-4.884 5.7c-.3200877.374224-.3200877.925776 0 1.3l4.884 5.7c.3595039.4191951.3111527 1.0504467-.108 1.41-.1809941.1557084-.4122503.2406089-.651.239-.292151.0002693-.5698097-.1272345-.76-.349l-6-7c-.3226383-.3732783-.3226383-.9267217 0-1.3l6-7c.2291127-.2820645.5932076-.4176398.9510037-.3541182.3577961.0635217.6529723.3161413.7709907.6598341.1180183.3436928.0403012.7243576-.2029944.9942841z"/><path id="Shape" d="m36.048 32.278c1.2581174 1.0780208 3.1519216.9320681 4.23-.326l6-7c.9707992-1.1206581.9707992-2.7843419 0-3.905l-6-7c-1.0827539-1.2400852-2.9625688-1.3759597-4.2124046-.3044758-1.2498359 1.0714838-1.4027214 2.9499918-.3425954 4.2094758l4.326 5.048-4.327 5.048c-1.0780208 1.2581174-.9320681 3.1519216.326 4.23zm1.193-2.929 4.884-5.7c.3200877-.374224.3200877-.925776 0-1.3l-4.884-5.7c-.3340753-.4212323-.2753078-1.0312217.133041-1.3809275.4083488-.3497059 1.020119-.3139582 1.384959.0809275l6 7c.3226383.3732783.3226383.9267217 0 1.3l-6 7c-.2291127.2820645-.5932076.4176398-.9510037.3541182-.3577961-.0635217-.6529723-.3161413-.7709907-.6598341-.1180183-.3436928-.0403012-.7243576.2029944-.9942841z"/><path id="Shape" d="m27 35c1.4674322.0034944 2.7203684-1.0587683 2.957-2.507l3-18c.2507408-1.6237076-.8512075-3.1470452-2.471822-3.4170563s-3.1569346.8137636-3.446178 2.4310563l-3 18c-.1449642.8701417.1003839 1.7599847.6707961 2.4328823.5704122.6728975 1.4080696 1.0606427 2.2902039 1.0601177zm-.988-3.165 3-18c.0908048-.5444092.6055085-.9123105 1.15-.822.2616511.043598.4952601.1893666.6494208.405229.1541606.2158624.2162407.4841305.1725792.745771l-3 18c-.0500547.3603097-.2918224.6650176-.6313188.7956725-.3394965.1306549-.7231647.0666453-1.0018586-.1671458-.2786938-.233791-.4084481-.6004822-.3388226-.9575267z"/></g></g></g></svg>