<svg height="512" viewBox="0 0 50 60" width="512" xmlns="http://www.w3.org/2000/svg"><g id="Page-1" fill="none" fill-rule="evenodd"><g id="066---Space-Book" fill-rule="nonzero" transform="translate(-1)"><path id="Shape" d="m50 3v39c0 1.1-.9 3-2 3h-41c-2.76142375 0-5 2.2385763-5 5v-44c0-2.76142375 2.23857625-5 5-5h41c1.1032019.0032948 1.9967052.89679813 2 2z" fill="#e8edfc"/><path id="Shape" d="m48 1h-3c1.1032019.0032948 1.9967052.89679813 2 2v39c0 1.1-.9 3-2 3h3c1.1 0 2-1.9 2-3v-39c-.0032948-1.10320187-.8967981-1.9967052-2-2z" fill="#cad9fc"/><path id="Shape" d="m47 55h-25v-5h-10v5h-4.79c-2.62768969.0421177-4.86508915-1.902135-5.19-4.51-.01643773-.162788-.02311634-.3264139-.02-.49 0-2.7614237 2.23857625-5 5-5h40c-1.66 0-3 2.24-3 5s1.34 5 3 5z" fill="#e8edfc"/><path id="Shape" d="m50 42v11c-.0032948 1.1032019-.8967981 1.9967052-2 2h-1c-1.66 0-3-2.24-3-5s1.34-5 3-5h1c1.1 0 2-1.9 2-3z" fill="#a4c2f7"/><path id="Shape" d="m48 45h-1v8c-.0036392.7004821-.3734912 1.3480075-.975 1.707.2933409.1822358.6297963.283345.975.293h1c1.1032019-.0032948 1.9967052-.8967981 2-2v-11c0 1.1-.9 3-2 3z" fill="#7facfa"/><path id="Shape" d="m22 50v8c-.0000627.3593049-.1928829.6909565-.505101.8687761-.3122182.1778196-.6958342.1744694-1.004899-.0087761l-2.98-1.79c-.3134634-.1899733-.7065366-.1899733-1.02 0l-2.98 1.79c-.3090648.1832455-.6926808.1865957-1.004899.0087761-.3122181-.1778196-.5050383-.5094712-.505101-.8687761v-8z" fill="#fff"/><path id="Shape" d="m35.5 34.26c-4.7063906 2.7232371-10.6120897 2.2201147-14.79-1.26 3.9356719-1.1511296 7.7117129-2.7905495 11.24-4.88 3.5774127-2.013893 6.8896493-4.4661574 9.86-7.3.9198609 5.3595047-1.5988432 10.7242246-6.31 13.44z" fill="#a4c2f7"/><path id="Shape" d="m41.82 20.81-.01.01c-2.9703507 2.8338426-6.2825873 5.286107-9.86 7.3-3.5282871 2.0894505-7.3043281 3.7288704-11.24 4.88-4.1 1.12-7.18 1.02-8.08-.55s.54-4.27 3.55-7.26c.2051945 1.1550349.5615913 2.2780211 1.06 3.34.2591973.5635301.9051548.836653 1.49.63 3.7678414-1.3817452 7.4027074-3.1021146 10.86-5.14 3.4886806-1.9802537 6.7949536-4.2658655 9.88-6.83.4742999-.4034861.5611625-1.1027298.2-1.61-.6634452-.9650986-1.4576973-1.8333912-2.36-2.58 4.09-1.12 7.16-1.02 8.06.55s-.54 4.27-3.55 7.26z" fill="#e8edfc"/><path id="Shape" d="m39.47 17.19c-3.0850464 2.5641345-6.3913194 4.8497463-9.88 6.83-3.4572926 2.0378854-7.0921586 3.7582548-10.86 5.14-.5848452.206653-1.2308027-.0664699-1.49-.63-.4984087-1.0619789-.8548055-2.1849651-1.06-3.34l.01-.01c-.9169557-5.3581819 1.6002623-10.7205099 6.308244-13.4381979 4.7079818-2.71768808 10.6104285-2.21562151 14.791756 1.2581979h.02c.9023027.7466088 1.6965548 1.6149014 2.36 2.58.3611625.5072702.2742999 1.2065139-.2 1.61z" fill="#a4c2f7"/><path id="Shape" d="m5 50v-44c0-2.76142375 2.23857625-5 5-5h-3c-2.76142375 0-5 2.23857625-5 5v44c.0595869 2.8187131 2.39122068 5.0563654 5.21 5h3c-2.81877932.0563654-5.1504131-2.1812869-5.21-5z" fill="#fff"/><path id="Rectangle-path" d="m1 6h2v8h-2z" fill="#fff"/><g fill="#428dff"><path id="Shape" d="m2.02 11c-.55228475.0027614-1.00223858-.4427153-1.005-.995-.00276142-.55228475.44271525-1.00223858.995-1.005h.01c.55228475 0 1 .44771525 1 1 0 .5522847-.44771525 1-1 1z"/><path id="Shape" d="m48 0h-41c-3.31233757.00330738-5.99669262 2.68766243-6 6 0 .35726559.19059892.68739261.5.8660254.30940108.1786328.69059892.1786328 1 0 .30940108-.17863279.5-.50875981.5-.8660254 0-2.209139 1.790861-4 4-4v1c0 .55228475.44771525 1 1 1s1-.44771525 1-1v-1h39c.5522847 0 1 .44771525 1 1v39c-.0286401.7798547-.3933003 1.5091751-1 2h-39v-1c0-.5522847-.44771525-1-1-1s-1 .4477153-1 1v1c-1.47930705.0013494-2.90517386.5531599-4 1.548v-31.548c0-.5522847-.44771525-1-1-1s-1 .4477153-1 1v36c-.00311203.1956303.0049009.3912794.024.586.38318859 3.1162408 3.04646318 5.4471442 6.186 5.414h3.79v2c-.0050454.722159.384077 1.3896095 1.015 1.741.6256978.3598127 1.3977993.3498452 2.014-.026l2.971-1.784 2.971 1.782c.6175574.3705391 1.3866446.3804356 2.0135321.02591.6268875-.3545257 1.0147548-1.0187184 1.0154679-1.73891v-2h25c1.6568542 0 3-1.3431458 3-3v-50c0-1.65685425-1.3431458-3-3-3zm-27 58-2.972-1.783c-.6331208-.3796258-1.4238792-.3796258-2.057 0l-2.971 1.783v-7h8zm2-7h3c.5522847 0 1-.4477153 1-1s-.4477153-1-1-1h-17c-.55228475 0-1 .4477153-1 1s.44771525 1 1 1h2v3h-3.79c-2.11949134.0402921-3.9294676-1.5214589-4.2-3.624-.01078908-.125024-.01412832-.2505793-.01-.376.00876947-2.2054964 1.79450365-3.9912305 4-4h37c-1.334579 2.4996884-1.334579 5.5003116 0 8h-21zm25 3h-1c-.944 0-2-1.711-2-4s1.056-4 2-4h1c.3507845-.0022166.6951198-.0944985 1-.268v7.268c0 .5522847-.4477153 1-1 1z"/><path id="Shape" d="m8 10c.55228475 0 1-.44771525 1-1v-2c0-.55228475-.44771525-1-1-1s-1 .44771525-1 1v2c0 .55228475.44771525 1 1 1z"/><path id="Shape" d="m7 15c0 .5522847.44771525 1 1 1s1-.4477153 1-1v-2c0-.5522847-.44771525-1-1-1s-1 .4477153-1 1z"/><path id="Shape" d="m7 21c0 .5522847.44771525 1 1 1s1-.4477153 1-1v-2c0-.5522847-.44771525-1-1-1s-1 .4477153-1 1z"/><path id="Shape" d="m7 27c0 .5522847.44771525 1 1 1s1-.4477153 1-1v-2c0-.5522847-.44771525-1-1-1s-1 .4477153-1 1z"/><path id="Shape" d="m7 33c0 .5522847.44771525 1 1 1s1-.4477153 1-1v-2c0-.5522847-.44771525-1-1-1s-1 .4477153-1 1z"/><path id="Shape" d="m7 39c0 .5522847.44771525 1 1 1s1-.4477153 1-1v-2c0-.5522847-.44771525-1-1-1s-1 .4477153-1 1z"/><path id="Shape" d="m37.525 11.917c-4.4840263-3.45952737-10.6127409-3.87048476-15.5185011-1.040584-4.9057602 2.8299007-7.6183334 8.3409783-6.8684989 13.954584-3.271 3.345-4.474 6.22-3.375 8.121.686 1.191 2.152 1.793 4.262 1.793 1.5069865-.0378376 3.0037207-.2594765 4.457-.66 4.4840113 3.4571509 10.6111509 3.8663621 15.5150709 1.0361999 4.9039199-2.8301622 7.6149858-8.3401001 6.8649291-13.9521999 3.271-3.345 4.474-6.22 3.375-8.121s-4.189-2.286-8.712-1.131zm-14.525.694c4.3449749-2.5041714 9.7889674-2.0423294 13.65 1.158.0367629.030235.075517.0579642.116.083.7911669.6724629 1.490791 1.4457139 2.081 2.3.0664369.0836358.0554296.2047157-.025.275-3.0357183 2.5321444-6.2931943 4.7859041-9.733 6.734-3.4079524 2.0044969-6.988995 3.698966-10.7 5.063-.1012267.0347105-.2118405-.0164099-.251-.116-.4423299-.93642-.7610022-1.9263882-.948-2.945-.0011907-.0496006-.0058689-.099056-.014-.148-.8423831-4.9455838 1.4806711-9.8932425 5.824-12.404zm12 20.778c-3.7323423 2.1459299-8.3271897 2.1325806-12.047-.035 3.3010836-1.1454858 6.482767-2.60973 9.5-4.372 3.0350614-1.7320866 5.8942232-3.7556377 8.5371057-6.042.0179084 4.3042092-2.2667442 8.289574-5.9901057 10.449zm6.1-13.279c-2.9051677 2.7727454-6.1456373 5.1713514-9.646 7.14-3.4571278 2.0472609-7.1564276 3.6547028-11.012 4.785-4.114 1.128-6.454.772-6.947-.083-.417-.721.149-2.414 2.158-4.727.1882013.5920304.415364 1.1709613.68 1.733.4797413 1.0267471 1.6609747 1.5210559 2.729 1.142 3.8250927-1.4025096 7.5162949-3.1462002 11.029-5.21 3.5445423-2.0096222 6.9013688-4.3336305 10.03-6.944.8620905-.7365628 1.023148-2.0077053.372-2.936-.3544622-.5109501-.7430122-.9973893-1.163-1.456 3.008-.585 4.757-.229 5.175.494.495.852-.366 3.059-3.405 6.062z"/><path id="Shape" d="m16 4c-.5522847 0-1 .44771525-1 1v2c0 .55228475.4477153 1 1 1s1-.44771525 1-1v-2c0-.55228475-.4477153-1-1-1z"/><path id="Shape" d="m15 13c0 .5522847.4477153 1 1 1s1-.4477153 1-1v-2c0-.5522847-.4477153-1-1-1s-1 .4477153-1 1z"/><path id="Shape" d="m20 8h-2c-.5522847 0-1 .44771525-1 1s.4477153 1 1 1h2c.5522847 0 1-.44771525 1-1s-.4477153-1-1-1z"/><path id="Shape" d="m14 8h-2c-.5522847 0-1 .44771525-1 1s.4477153 1 1 1h2c.5522847 0 1-.44771525 1-1s-.4477153-1-1-1z"/><path id="Shape" d="m43 33c0-.5522847-.4477153-1-1-1s-1 .4477153-1 1v2c0 .5522847.4477153 1 1 1s1-.4477153 1-1z"/><path id="Shape" d="m42 42c.5522847 0 1-.4477153 1-1v-2c0-.5522847-.4477153-1-1-1s-1 .4477153-1 1v2c0 .5522847.4477153 1 1 1z"/><path id="Shape" d="m44 38h2c.5522847 0 1-.4477153 1-1s-.4477153-1-1-1h-2c-.5522847 0-1 .4477153-1 1s.4477153 1 1 1z"/><path id="Shape" d="m40 36h-2c-.5522847 0-1 .4477153-1 1s.4477153 1 1 1h2c.5522847 0 1-.4477153 1-1s-.4477153-1-1-1z"/></g></g></g></svg>