<svg height="512" viewBox="0 0 50 60" width="512" xmlns="http://www.w3.org/2000/svg"><g id="Page-1" fill="none" fill-rule="evenodd"><g id="067---Music-Book" fill-rule="nonzero" transform="translate(-1)"><path id="Shape" d="m50 3v39c0 1.1-.9 3-2 3h-41c-2.76142375 0-5 2.2385763-5 5v-44c0-2.76142375 2.23857625-5 5-5h41c1.1032019.0032948 1.9967052.89679813 2 2z" fill="#e8edfc"/><path id="Shape" d="m48 1h-3c1.1032019.0032948 1.9967052.89679813 2 2v39c0 1.1-.9 3-2 3h3c1.1 0 2-1.9 2-3v-39c-.0032948-1.10320187-.8967981-1.9967052-2-2z" fill="#cad9fc"/><path id="Shape" d="m47 55h-25v-5h-10v5h-4.79c-2.62768969.0421177-4.86508915-1.902135-5.19-4.51-.01643773-.162788-.02311634-.3264139-.02-.49 0-2.7614237 2.23857625-5 5-5h40c-1.66 0-3 2.24-3 5s1.34 5 3 5z" fill="#e8edfc"/><path id="Shape" d="m50 42v11c-.0032948 1.1032019-.8967981 1.9967052-2 2h-1c-1.66 0-3-2.24-3-5s1.34-5 3-5h1c1.1 0 2-1.9 2-3z" fill="#a4c2f7"/><path id="Shape" d="m48 45h-1v8c-.0036392.7004821-.3734912 1.3480075-.975 1.707.2933409.1822358.6297963.283345.975.293h1c1.1032019-.0032948 1.9967052-.8967981 2-2v-11c0 1.1-.9 3-2 3z" fill="#7facfa"/><path id="Shape" d="m22 50v8c-.0000627.3593049-.1928829.6909565-.505101.8687761-.3122182.1778196-.6958342.1744694-1.004899-.0087761l-2.98-1.79c-.3134634-.1899733-.7065366-.1899733-1.02 0l-2.98 1.79c-.3090648.1832455-.6926808.1865957-1.004899.0087761-.3122181-.1778196-.5050383-.5094712-.505101-.8687761v-8z" fill="#fff"/><ellipse id="Oval" cx="24.011" cy="34.733" fill="#a4c2f7" rx="7.201" ry="5" transform="matrix(.948 -.318 .318 .948 -9.811 9.455)"/><path id="Shape" d="m31.01 6c.7713791 3.3286533 2.8657045 6.1993235 5.8 7.95 4.97 3 4.19 7 4.19 7v2.51c.0028555.406585-.1594664.7969111-.4497864 1.0815755-.2903199.2846644-.6837634.4392771-1.0902136.4284245-.7426551.0005365-1.3690628-.5529333-1.46-1.29-.17-1.42-.98-3.79-4.2-5.73-1.0352781-.621203-1.9750482-1.3891871-2.79-2.28z" fill="#a4c2f7"/><path id="Shape" d="m5 50v-44c0-2.76142375 2.23857625-5 5-5h-3c-2.76142375 0-5 2.23857625-5 5v44c.0595869 2.8187131 2.39122068 5.0563654 5.21 5h3c-2.81877932.0563654-5.1504131-2.1812869-5.21-5z" fill="#fff"/><path id="Rectangle-path" d="m1 6h2v8h-2z" fill="#fff"/><g fill="#428dff"><path id="Shape" d="m2.02 11c-.55228475.0027614-1.00223858-.4427153-1.005-.995-.00276142-.55228475.44271525-1.00223858.995-1.005h.01c.55228475 0 1 .44771525 1 1 0 .5522847-.44771525 1-1 1z"/><path id="Shape" d="m48 0h-41c-3.31233757.00330738-5.99669262 2.68766243-6 6 0 .35726559.19059892.68739261.5.8660254.30940108.1786328.69059892.1786328 1 0 .30940108-.17863279.5-.50875981.5-.8660254 0-2.209139 1.790861-4 4-4v1c0 .55228475.44771525 1 1 1s1-.44771525 1-1v-1h39c.5522847 0 1 .44771525 1 1v39c-.0286401.7798547-.3933003 1.5091751-1 2h-39v-1c0-.5522847-.44771525-1-1-1s-1 .4477153-1 1v1c-1.47930705.0013494-2.90517386.5531599-4 1.548v-31.548c0-.5522847-.44771525-1-1-1s-1 .4477153-1 1v36c-.00311203.1956303.0049009.3912794.024.586.38318859 3.1162408 3.04646318 5.4471442 6.186 5.414h3.79v2c-.0050454.722159.384077 1.3896095 1.015 1.741.6256978.3598127 1.3977993.3498452 2.014-.026l2.971-1.784 2.971 1.782c.6175574.3705391 1.3866446.3804356 2.0135321.02591.6268875-.3545257 1.0147548-1.0187184 1.0154679-1.73891v-2h25c1.6568542 0 3-1.3431458 3-3v-50c0-1.65685425-1.3431458-3-3-3zm-27 58-2.972-1.783c-.6331208-.3796258-1.4238792-.3796258-2.057 0l-2.971 1.783v-7h8zm2-7h3c.5522847 0 1-.4477153 1-1s-.4477153-1-1-1h-17c-.55228475 0-1 .4477153-1 1s.44771525 1 1 1h2v3h-3.79c-2.11949134.0402921-3.9294676-1.5214589-4.2-3.624-.01078908-.125024-.01412832-.2505793-.01-.376.00876947-2.2054964 1.79450365-3.9912305 4-4h37c-1.334579 2.4996884-1.334579 5.5003116 0 8h-21zm25 3h-1c-.944 0-2-1.711-2-4s1.056-4 2-4h1c.3507845-.0022166.6951198-.0944985 1-.268v7.268c0 .5522847-.4477153 1-1 1z"/><path id="Shape" d="m8 10c.55228475 0 1-.44771525 1-1v-2c0-.55228475-.44771525-1-1-1s-1 .44771525-1 1v2c0 .55228475.44771525 1 1 1z"/><path id="Shape" d="m7 15c0 .5522847.44771525 1 1 1s1-.4477153 1-1v-2c0-.5522847-.44771525-1-1-1s-1 .4477153-1 1z"/><path id="Shape" d="m7 21c0 .5522847.44771525 1 1 1s1-.4477153 1-1v-2c0-.5522847-.44771525-1-1-1s-1 .4477153-1 1z"/><path id="Shape" d="m7 27c0 .5522847.44771525 1 1 1s1-.4477153 1-1v-2c0-.5522847-.44771525-1-1-1s-1 .4477153-1 1z"/><path id="Shape" d="m7 33c0 .5522847.44771525 1 1 1s1-.4477153 1-1v-2c0-.5522847-.44771525-1-1-1s-1 .4477153-1 1z"/><path id="Shape" d="m7 39c0 .5522847.44771525 1 1 1s1-.4477153 1-1v-2c0-.5522847-.44771525-1-1-1s-1 .4477153-1 1z"/><path id="Shape" d="m16 4c-.5522847 0-1 .44771525-1 1v2c0 .55228475.4477153 1 1 1s1-.44771525 1-1v-2c0-.55228475-.4477153-1-1-1z"/><path id="Shape" d="m15 13c0 .5522847.4477153 1 1 1s1-.4477153 1-1v-2c0-.5522847-.4477153-1-1-1s-1 .4477153-1 1z"/><path id="Shape" d="m20 8h-2c-.5522847 0-1 .44771525-1 1s.4477153 1 1 1h2c.5522847 0 1-.44771525 1-1s-.4477153-1-1-1z"/><path id="Shape" d="m14 8h-2c-.5522847 0-1 .44771525-1 1s.4477153 1 1 1h2c.5522847 0 1-.44771525 1-1s-.4477153-1-1-1z"/><path id="Shape" d="m42 32c-.5522847 0-1 .4477153-1 1v2c0 .5522847.4477153 1 1 1s1-.4477153 1-1v-2c0-.5522847-.4477153-1-1-1z"/><path id="Shape" d="m42 42c.5522847 0 1-.4477153 1-1v-2c0-.5522847-.4477153-1-1-1s-1 .4477153-1 1v2c0 .5522847.4477153 1 1 1z"/><path id="Shape" d="m44 38h2c.5522847 0 1-.4477153 1-1s-.4477153-1-1-1h-2c-.5522847 0-1 .4477153-1 1s.4477153 1 1 1z"/><path id="Shape" d="m40 36h-2c-.5522847 0-1 .4477153-1 1s.4477153 1 1 1h2c.5522847 0 1-.4477153 1-1s-.4477153-1-1-1z"/><path id="Shape" d="m37.326 13.094c-2.67649-1.6109833-4.5963979-4.22668219-5.331-7.263-.1075058-.46491522-.5086206-.80331762-.985-.831-.5398758.02886727-.9711327.46012424-1 1v23.768c-.6122998-.436416-1.2953231-.7638882-2.019-.968-1.9433334-.5127775-3.996193-.4270384-5.89.246-4.36 1.465-6.935 5.109-5.865 8.3.78 2.318 3.242 3.666 6.2 3.666 1.1851126-.0078365 2.361208-.2067225 3.483-.589 1.9159377-.6076753 3.6040954-1.7790003 4.844-3.361.8564066-1.0729187 1.2979908-2.4182596 1.244-3.79v-15.362c.4071172.3241017.8324819.6245948 1.274.9 2.784 1.677 3.562 3.64 3.722 4.98.1441014 1.2360788 1.1856011 2.1717141 2.43 2.183h.067c.6652998.000009 1.3031626-.2651669 1.7723791-.7368233.4692164-.4716563.7310805-1.1108859.7276209-1.7761767v-2.433c.105-.75.419-4.859-4.674-7.933zm-8.165 22.772c-.9952313 1.2559194-2.3460182 2.1825815-3.876 2.659-3.185 1.07-6.462.238-7.152-1.817s1.418-4.695 4.6-5.766c.9045813-.3090554 1.8531049-.4701254 2.809-.477.6379207-.0040116 1.2732056.0821744 1.887.256 1.105897.2301816 2.0258062.9935265 2.456 2.038.0704405.2195798.111136.4476094.121.678v.157c-.0310236.8282957-.3272338 1.6247331-.845 2.272zm10.858-15.107c-.0127995.0628568-.0191656.1268535-.019.191v2.51c.0008363.1385975-.0543355.2716589-.153.369-.1022146.092174-.2353716.1425094-.373.141-.241015.0058281-.4480102-.1701823-.481-.409-.176-1.469-1.017-4.263-4.678-6.467-.8428058-.5159087-1.6158055-1.1380054-2.3-1.851v-4.49c1.1150833 1.6473848 2.5768874 3.0310302 4.283 4.054 4.256 2.571 3.743 5.824 3.721 5.952z"/></g></g></g></svg>