<svg height="512" viewBox="0 0 50 60" width="512" xmlns="http://www.w3.org/2000/svg"><g id="Page-1" fill="none" fill-rule="evenodd"><g id="068---Web-Book" fill-rule="nonzero" transform="translate(-1)"><path id="Shape" d="m50 3v39c0 1.1-.9 3-2 3h-41c-2.76142375 0-5 2.2385763-5 5v-44c0-2.76142375 2.23857625-5 5-5h41c1.1032019.0032948 1.9967052.89679813 2 2z" fill="#e8edfc"/><path id="Shape" d="m48 1h-3c1.1032019.0032948 1.9967052.89679813 2 2v39c0 1.1-.9 3-2 3h3c1.1 0 2-1.9 2-3v-39c-.0032948-1.10320187-.8967981-1.9967052-2-2z" fill="#cad9fc"/><path id="Shape" d="m47 55h-25v-5h-10v5h-4.79c-2.62768969.0421177-4.86508915-1.902135-5.19-4.51-.01643773-.162788-.02311634-.3264139-.02-.49 0-2.7614237 2.23857625-5 5-5h40c-1.66 0-3 2.24-3 5s1.34 5 3 5z" fill="#e8edfc"/><path id="Shape" d="m50 42v11c-.0032948 1.1032019-.8967981 1.9967052-2 2h-1c-1.66 0-3-2.24-3-5s1.34-5 3-5h1c1.1 0 2-1.9 2-3z" fill="#a4c2f7"/><path id="Shape" d="m48 45h-1v8c-.0036392.7004821-.3734912 1.3480075-.975 1.707.2933409.1822358.6297963.283345.975.293h1c1.1032019-.0032948 1.9967052-.8967981 2-2v-11c0 1.1-.9 3-2 3z" fill="#7facfa"/><path id="Shape" d="m22 50v8c-.0000627.3593049-.1928829.6909565-.505101.8687761-.3122182.1778196-.6958342.1744694-1.004899-.0087761l-2.98-1.79c-.3134634-.1899733-.7065366-.1899733-1.02 0l-2.98 1.79c-.3090648.1832455-.6926808.1865957-1.004899.0087761-.3122181-.1778196-.5050383-.5094712-.505101-.8687761v-8z" fill="#fff"/><circle id="Oval" cx="29" cy="23" fill="#e8edfc" r="17"/><path id="Shape" d="m5 50v-44c0-2.76142375 2.23857625-5 5-5h-3c-2.76142375 0-5 2.23857625-5 5v44c.0595869 2.8187131 2.39122068 5.0563654 5.21 5h3c-2.81877932.0563654-5.1504131-2.1812869-5.21-5z" fill="#fff"/><path id="Rectangle-path" d="m1 6h2v8h-2z" fill="#fff"/><g fill="#428dff"><path id="Shape" d="m2.02 11c-.55228475.0027614-1.00223858-.4427153-1.005-.995-.00276142-.55228475.44271525-1.00223858.995-1.005h.01c.55228475 0 1 .44771525 1 1 0 .5522847-.44771525 1-1 1z"/><path id="Shape" d="m48 0h-41c-3.31233757.00330738-5.99669262 2.68766243-6 6 0 .35726559.19059892.68739261.5.8660254.30940108.1786328.69059892.1786328 1 0 .30940108-.17863279.5-.50875981.5-.8660254 0-2.209139 1.790861-4 4-4v1c0 .55228475.44771525 1 1 1s1-.44771525 1-1v-1h39c.5522847 0 1 .44771525 1 1v39c-.0286401.7798547-.3933003 1.5091751-1 2h-39v-1c0-.5522847-.44771525-1-1-1s-1 .4477153-1 1v1c-1.47930705.0013494-2.90517386.5531599-4 1.548v-31.548c0-.5522847-.44771525-1-1-1s-1 .4477153-1 1v36c-.00311203.1956303.0049009.3912794.024.586.38318859 3.1162408 3.04646318 5.4471442 6.186 5.414h3.79v2c-.0050454.722159.384077 1.3896095 1.015 1.741.6256978.3598127 1.3977993.3498452 2.014-.026l2.971-1.784 2.971 1.782c.6175574.3705391 1.3866446.3804356 2.0135321.02591.6268875-.3545257 1.0147548-1.0187184 1.0154679-1.73891v-2h25c1.6568542 0 3-1.3431458 3-3v-50c0-1.65685425-1.3431458-3-3-3zm-27 58-2.972-1.783c-.6331208-.3796258-1.4238792-.3796258-2.057 0l-2.971 1.783v-7h8zm2-7h3c.5522847 0 1-.4477153 1-1s-.4477153-1-1-1h-17c-.55228475 0-1 .4477153-1 1s.44771525 1 1 1h2v3h-3.79c-2.11949134.0402921-3.9294676-1.5214589-4.2-3.624-.01078908-.125024-.01412832-.2505793-.01-.376.00876947-2.2054964 1.79450365-3.9912305 4-4h37c-1.334579 2.4996884-1.334579 5.5003116 0 8h-21zm25 3h-1c-.944 0-2-1.711-2-4s1.056-4 2-4h1c.3507845-.0022166.6951198-.0944985 1-.268v7.268c0 .5522847-.4477153 1-1 1z"/><path id="Shape" d="m8 10c.55228475 0 1-.44771525 1-1v-2c0-.55228475-.44771525-1-1-1s-1 .44771525-1 1v2c0 .55228475.44771525 1 1 1z"/><path id="Shape" d="m7 15c0 .5522847.44771525 1 1 1s1-.4477153 1-1v-2c0-.5522847-.44771525-1-1-1s-1 .4477153-1 1z"/><path id="Shape" d="m7 21c0 .5522847.44771525 1 1 1s1-.4477153 1-1v-2c0-.5522847-.44771525-1-1-1s-1 .4477153-1 1z"/><path id="Shape" d="m7 27c0 .5522847.44771525 1 1 1s1-.4477153 1-1v-2c0-.5522847-.44771525-1-1-1s-1 .4477153-1 1z"/><path id="Shape" d="m7 33c0 .5522847.44771525 1 1 1s1-.4477153 1-1v-2c0-.5522847-.44771525-1-1-1s-1 .4477153-1 1z"/><path id="Shape" d="m7 39c0 .5522847.44771525 1 1 1s1-.4477153 1-1v-2c0-.5522847-.44771525-1-1-1s-1 .4477153-1 1z"/><path id="Shape" d="m14.48 33.593c3.3760142 4.6558 8.7798449 7.4103685 14.5308391 7.4070034s11.1515976-2.7642557 14.5221609-7.4240034c.0607198-.0617333.1128545-.1313584.155-.207 4.4327449-6.2303753 4.413856-14.5897208-.047-20.8-.0342897-.0573864-.0745102-.1110137-.12-.16-3.3737833-4.65333335-8.7733113-7.40791114-14.521-7.40791114s-11.1472167 2.75457779-14.521 7.40791114c-.0451584.0486588-.0850467.101955-.119.159-4.47859242 6.2336476-4.47859242 14.6303524 0 20.864.0343936.0576261.0746037.1115747.12.161zm1.106-19.285c1.4225771.4441864 2.8762658.7817871 4.349 1.01-.5475849 2.1871432-.8520952 4.4280437-.908 6.682h-5.976c.1659751-2.7400053 1.0393805-5.3901965 2.535-7.692zm29.363 7.692h-5.976c-.0559048-2.2539563-.3604151-4.4948568-.908-6.682 1.4727342-.2282129 2.9264229-.5658136 4.349-1.01 1.4956195 2.3018035 2.3690249 4.9519947 2.535 7.692zm-2.535 9.692c-1.4225771-.4441864-2.8762658-.7817871-4.349-1.01.5475849-2.1871432.8520952-4.4280437.908-6.682h5.976c-.1659751 2.7400053-1.0393805 5.3901965-2.535 7.692zm-14.414-1.676c-2.0235631.0253889-4.0445175.1538889-6.055.385-.5488219-2.0914227-.8571505-4.2386511-.919-6.4h6.974zm0 2v6.838c-2.2-.579-4.154-3.031-5.434-6.507 1.71-.189 3.542-.301 5.434-.331zm2 6.838v-6.838c1.892.03 3.724.142 5.434.331-1.28 3.476-3.234 5.928-5.434 6.507zm0-8.838v-6.016h6.974c-.0618495 2.1613489-.3701781 4.3085773-.919 6.4-2.0104996-.2307769-4.0314539-.3589432-6.055-.384zm6.974-8.016h-6.974v-6.016c2.0235631-.0253889 4.0445175-.1538889 6.055-.385.5488972 2.0917474.8572264 4.2393156.919 6.401zm-6.974-8.016v-6.838c2.2.579 4.154 3.031 5.434 6.507-1.71.189-3.542.301-5.434.331zm-2-6.838v6.838c-1.892-.03-3.724-.142-5.434-.331 1.28-3.476 3.234-5.928 5.434-6.507zm0 8.838v6.016h-6.974c.0618495-2.1613489.3701781-4.3085773.919-6.4 2.0104996.2307769 4.0314539.3589432 6.055.384zm-8.973 8.016c.0559048 2.2539563.3604151 4.4948568.908 6.682-1.4727342.2282129-2.9264229.5658136-4.349 1.01-1.4956195-2.3018035-2.3690249-4.9519947-2.535-7.692zm-2.172 9.388c1.2037007-.3285627 2.4258522-.5853481 3.66-.769.6265224 1.9332018 1.5911449 3.7398797 2.849 5.336-2.5187078-.9516757-4.757204-2.5223028-6.509-4.567zm17.781 4.567c1.2578551-1.5961203 2.2224776-3.4027982 2.849-5.336 1.2341478.1836519 2.4562993.4404373 3.66.769-1.751796 2.0446972-3.9902922 3.6153243-6.509 4.567zm6.509-25.343c-1.2037007.3285627-2.4258522.5853481-3.66.769-.6265224-1.9332018-1.5911449-3.73987969-2.849-5.336 2.5187078.95167571 4.757204 2.5223028 6.509 4.567zm-17.781-4.567c-1.2578551 1.59612031-2.2224776 3.4027982-2.849 5.336-1.2341478-.1836519-2.4562993-.4404373-3.66-.769 1.751796-2.0446972 3.9902922-3.61532429 6.509-4.567z"/></g></g></g></svg>