<svg height="512" viewBox="0 0 50 60" width="512" xmlns="http://www.w3.org/2000/svg"><g id="Page-1" fill="none" fill-rule="evenodd"><g id="069---Feng-Shui-Book" fill-rule="nonzero" transform="translate(-1)"><path id="Shape" d="m50 3v39c0 1.1-.9 3-2 3h-41c-2.76142375 0-5 2.2385763-5 5v-44c0-2.76142375 2.23857625-5 5-5h41c1.1032019.0032948 1.9967052.89679813 2 2z" fill="#e8edfc"/><path id="Shape" d="m48 1h-3c1.1032019.0032948 1.9967052.89679813 2 2v39c0 1.1-.9 3-2 3h3c1.1 0 2-1.9 2-3v-39c-.0032948-1.10320187-.8967981-1.9967052-2-2z" fill="#cad9fc"/><path id="Shape" d="m47 55h-25v-5h-10v5h-4.79c-2.62768969.0421177-4.86508915-1.902135-5.19-4.51-.01643773-.162788-.02311634-.3264139-.02-.49 0-2.7614237 2.23857625-5 5-5h40c-1.66 0-3 2.24-3 5s1.34 5 3 5z" fill="#e8edfc"/><path id="Shape" d="m50 42v11c-.0032948 1.1032019-.8967981 1.9967052-2 2h-1c-1.66 0-3-2.24-3-5s1.34-5 3-5h1c1.1 0 2-1.9 2-3z" fill="#a4c2f7"/><path id="Shape" d="m48 45h-1v8c-.0036392.7004821-.3734912 1.3480075-.975 1.707.2933409.1822358.6297963.283345.975.293h1c1.1032019-.0032948 1.9967052-.8967981 2-2v-11c0 1.1-.9 3-2 3z" fill="#7facfa"/><path id="Shape" d="m22 50v8c-.0000627.3593049-.1928829.6909565-.505101.8687761-.3122182.1778196-.6958342.1744694-1.004899-.0087761l-2.98-1.79c-.3134634-.1899733-.7065366-.1899733-1.02 0l-2.98 1.79c-.3090648.1832455-.6926808.1865957-1.004899.0087761-.3122181-.1778196-.5050383-.5094712-.505101-.8687761v-8z" fill="#fff"/><path id="Shape" d="m39.25 36.55c-7.2204331 5.4671904-17.4598353 4.3107869-23.2790597-2.6290584-5.8192244-6.9398452-5.1730516-17.2240608 1.4690597-23.3809416.04-.04.09-.08.13-.12.3303836-.3089276.6775791-.59936996 1.04-.87.0449489-.0356749.0916754-.06905097.14-.1 3.7415225-2.52269547 8.8022072-1.68201087 11.5271368 1.9148963 2.7249297 3.5969072 2.1642366 8.6962114-1.2771368 11.6151037v.04c-3.4413734 2.9188923-4.0020665 8.0181965-1.2771368 11.6151037 2.7249296 3.5969072 7.7856143 4.4375918 11.5271368 1.9148963z" fill="#a4c2f7"/><path id="Shape" d="m46 23c.007378 4.7310116-1.9652777 9.2492633-5.44 12.46-.04.04-.09.08-.13.12-.3303836.3089276-.6775791.59937-1.04.87-.0449489.0356749-.0916754.069051-.14.1-3.7415225 2.5226955-8.8022072 1.6820109-11.5271368-1.9148963-2.7249297-3.5969072-2.1642366-8.6962114 1.2771368-11.6151037v-.04c3.4413734-2.9188923 4.0020665-8.0181965 1.2771368-11.6151037-2.7249296-3.59690717-7.7856143-4.43759177-11.5271368-1.9148963 5.1420342-3.89767443 12.0482842-4.54585335 17.8257576-1.67301796 5.7774733 2.87283536 9.4287164 8.77070346 9.4242424 15.22301796z" fill="#e8edfc"/><circle id="Oval" cx="23.5" cy="16.5" fill="#e8edfc" r="3.5"/><circle id="Oval" cx="34.5" cy="29.5" fill="#a4c2f7" r="3.5"/><path id="Shape" d="m5 50v-44c0-2.76142375 2.23857625-5 5-5h-3c-2.76142375 0-5 2.23857625-5 5v44c.0595869 2.8187131 2.39122068 5.0563654 5.21 5h3c-2.81877932.0563654-5.1504131-2.1812869-5.21-5z" fill="#fff"/><path id="Rectangle-path" d="m1 6h2v8h-2z" fill="#fff"/><g fill="#428dff"><path id="Shape" d="m2.02 11c-.55228475.0027614-1.00223858-.4427153-1.005-.995-.00276142-.55228475.44271525-1.00223858.995-1.005h.01c.55228475 0 1 .44771525 1 1 0 .5522847-.44771525 1-1 1z"/><path id="Shape" d="m48 0h-41c-3.31233757.00330738-5.99669262 2.68766243-6 6 0 .35726559.19059892.68739261.5.8660254.30940108.1786328.69059892.1786328 1 0 .30940108-.17863279.5-.50875981.5-.8660254 0-2.209139 1.790861-4 4-4v1c0 .55228475.44771525 1 1 1s1-.44771525 1-1v-1h39c.5522847 0 1 .44771525 1 1v39c-.0286401.7798547-.3933003 1.5091751-1 2h-39v-1c0-.5522847-.44771525-1-1-1s-1 .4477153-1 1v1c-1.47930705.0013494-2.90517386.5531599-4 1.548v-31.548c0-.5522847-.44771525-1-1-1s-1 .4477153-1 1v36c-.00311203.1956303.0049009.3912794.024.586.38318859 3.1162408 3.04646318 5.4471442 6.186 5.414h3.79v2c-.0050454.722159.384077 1.3896095 1.015 1.741.6256978.3598127 1.3977993.3498452 2.014-.026l2.971-1.784 2.971 1.782c.6175574.3705391 1.3866446.3804356 2.0135321.02591.6268875-.3545257 1.0147548-1.0187184 1.0154679-1.73891v-2h25c1.6568542 0 3-1.3431458 3-3v-50c0-1.65685425-1.3431458-3-3-3zm-27 58-2.972-1.783c-.6331208-.3796258-1.4238792-.3796258-2.057 0l-2.971 1.783v-7h8zm2-7h3c.5522847 0 1-.4477153 1-1s-.4477153-1-1-1h-17c-.55228475 0-1 .4477153-1 1s.44771525 1 1 1h2v3h-3.79c-2.11949134.0402921-3.9294676-1.5214589-4.2-3.624-.01078908-.125024-.01412832-.2505793-.01-.376.00876947-2.2054964 1.79450365-3.9912305 4-4h37c-1.334579 2.4996884-1.334579 5.5003116 0 8h-21zm25 3h-1c-.944 0-2-1.711-2-4s1.056-4 2-4h1c.3507845-.0022166.6951198-.0944985 1-.268v7.268c0 .5522847-.4477153 1-1 1z"/><path id="Shape" d="m8 10c.55228475 0 1-.44771525 1-1v-2c0-.55228475-.44771525-1-1-1s-1 .44771525-1 1v2c0 .55228475.44771525 1 1 1z"/><path id="Shape" d="m7 15c0 .5522847.44771525 1 1 1s1-.4477153 1-1v-2c0-.5522847-.44771525-1-1-1s-1 .4477153-1 1z"/><path id="Shape" d="m7 21c0 .5522847.44771525 1 1 1s1-.4477153 1-1v-2c0-.5522847-.44771525-1-1-1s-1 .4477153-1 1z"/><path id="Shape" d="m7 27c0 .5522847.44771525 1 1 1s1-.4477153 1-1v-2c0-.5522847-.44771525-1-1-1s-1 .4477153-1 1z"/><path id="Shape" d="m7 33c0 .5522847.44771525 1 1 1s1-.4477153 1-1v-2c0-.5522847-.44771525-1-1-1s-1 .4477153-1 1z"/><path id="Shape" d="m7 39c0 .5522847.44771525 1 1 1s1-.4477153 1-1v-2c0-.5522847-.44771525-1-1-1s-1 .4477153-1 1z"/><path id="Shape" d="m39.855 37.346c.044-.031.087-.059.131-.092.4084833-.3057732.7994348-.6342927 1.171-.984l.078-.072c5.4280195-5.0339359 7.2204494-12.8778782 4.517625-19.7698044-2.7028244-6.89192612-9.3496592-11.42622021-16.752625-11.4281956-3.9224117-.013199-7.7390123 1.27154152-10.855 3.654-.044.031-.087.059-.131.092-.4084833.30577324-.7994348.63429266-1.171.984l-.078.072c-5.4280195 5.0339359-7.22044944 12.8778782-4.517625 19.7698044 2.7028244 6.8919261 9.3496592 11.4262202 16.752625 11.4281956 3.9224117.013199 7.7390123-1.2715415 10.855-3.654zm5.145-14.346c-.0075809 4.4710997-1.8794992 8.736464-5.165 11.769-.007.005-.082.076-.09.082-.3223293.3000414-.6611921.581815-1.015.844-.007.005-.011.012-.018.017s-.015 0-.023.01c-3.3022876 2.2316101-7.7732532 1.4905811-10.1789926-1.6870918-2.4057395-3.1776729-1.9058937-7.6819832 1.1379926-10.2549082.0603643-.0515684.1138073-.1107255.159-.176 2.6234419-2.3262147 3.7513926-5.9088719 2.9337879-9.3184532-.8176048-3.4095813-3.4476763-6.09107896-6.8407879-6.9745468 4.696515-.9401907 9.5670219.27776645 13.2681748 3.3179439 3.701153 3.0401774 5.8419105 7.5813682 5.8318252 12.3710561zm-32 0c.0075809-4.4710997 1.8794992-8.736464 5.165-11.769.007 0 .082-.076.09-.082.304569-.2842612.6247313-.5513414.959-.8l.1-.07c3.3019912-2.21574067 7.7593605-1.46921326 10.1592226 1.701483 2.3998621 3.1706963 1.9079245 7.6632948-1.1212226 10.239517-.0603643.0515684-.1138073.1107255-.159.176-2.6260531 2.329817-3.7532025 5.9179511-2.9311484 9.3309306s3.4592997 6.0944171 6.8581484 6.9730694c-4.6982813.9251935-9.5641195-.2992866-13.2648696-3.3380824-3.70075-3.0387958-5.8485372-7.5734119-5.8551304-12.3619176z"/><path id="Shape" d="m28 16.5c0-2.4852814-2.0147186-4.5-4.5-4.5s-4.5 2.0147186-4.5 4.5 2.0147186 4.5 4.5 4.5c2.4841391-.0027556 4.4972444-2.0158609 4.5-4.5zm-4.5 2.5c-1.3807119 0-2.5-1.1192881-2.5-2.5s1.1192881-2.5 2.5-2.5 2.5 1.1192881 2.5 2.5-1.1192881 2.5-2.5 2.5z"/><path id="Shape" d="m30 29.5c0 2.4852814 2.0147186 4.5 4.5 4.5s4.5-2.0147186 4.5-4.5-2.0147186-4.5-4.5-4.5c-2.4841391.0027556-4.4972444 2.0158609-4.5 4.5zm4.5-2.5c1.3807119 0 2.5 1.1192881 2.5 2.5s-1.1192881 2.5-2.5 2.5-2.5-1.1192881-2.5-2.5 1.1192881-2.5 2.5-2.5z"/></g></g></g></svg>