<svg height="512" viewBox="0 0 50 60" width="512" xmlns="http://www.w3.org/2000/svg"><g id="Page-1" fill="none" fill-rule="evenodd"><g id="070---Art-Book" fill-rule="nonzero" transform="translate(-1)"><path id="Shape" d="m50 3v39c0 1.1-.9 3-2 3h-41c-2.76142375 0-5 2.2385763-5 5v-44c0-2.76142375 2.23857625-5 5-5h41c1.1032019.0032948 1.9967052.89679813 2 2z" fill="#e8edfc"/><path id="Shape" d="m48 1h-3c1.1032019.0032948 1.9967052.89679813 2 2v39c0 1.1-.9 3-2 3h3c1.1 0 2-1.9 2-3v-39c-.0032948-1.10320187-.8967981-1.9967052-2-2z" fill="#cad9fc"/><path id="Shape" d="m47 55h-25v-5h-10v5h-4.79c-2.62768969.0421177-4.86508915-1.902135-5.19-4.51-.01643773-.162788-.02311634-.3264139-.02-.49 0-2.7614237 2.23857625-5 5-5h40c-1.66 0-3 2.24-3 5s1.34 5 3 5z" fill="#e8edfc"/><path id="Shape" d="m50 42v11c-.0032948 1.1032019-.8967981 1.9967052-2 2h-1c-1.66 0-3-2.24-3-5s1.34-5 3-5h1c1.1 0 2-1.9 2-3z" fill="#a4c2f7"/><path id="Shape" d="m48 45h-1v8c-.0036392.7004821-.3734912 1.3480075-.975 1.707.2933409.1822358.6297963.283345.975.293h1c1.1032019-.0032948 1.9967052-.8967981 2-2v-11c0 1.1-.9 3-2 3z" fill="#7facfa"/><path id="Shape" d="m22 50v8c-.0000627.3593049-.1928829.6909565-.505101.8687761-.3122182.1778196-.6958342.1744694-1.004899-.0087761l-2.98-1.79c-.3134634-.1899733-.7065366-.1899733-1.02 0l-2.98 1.79c-.3090648.1832455-.6926808.1865957-1.004899.0087761-.3122181-.1778196-.5050383-.5094712-.505101-.8687761v-8z" fill="#fff"/><path id="Shape" d="m38.81 36.65c-3.1308963 1.5780965-6.5940404 2.3838775-10.1 2.35-3.898196-.0003375-7.7356785-.9657203-11.17-2.81-.7760208-.4292308-1.1746046-1.3199676-.977566-2.1846196.1970387-.864652.9421937-1.4947513 1.827566-1.5453804 1.0566291.0012773 2.0996717-.2381095 3.05-.7.8588958-.4870054 1.30381-1.4739059 1.1-2.44-.3688127-.9115378-1.174412-1.5740867-2.14-1.76-1.8009953-.322049-3.6326258-.4394613-5.46-.35-.9945355-.019812-1.9138537-.5337379-2.4516616-1.3705508-.5378078-.836813-.6234296-1.8865438-.2283384-2.7994492 2.33-5.07 8.84-9.04 16.45-9.04 2.526689-.0122356 5.0377523.3966993 7.43 1.21.4045482 1.0568808 1.0400132 2.0100783 1.86 2.79z" fill="#e8edfc"/><ellipse id="Oval" cx="23.5" cy="21.5" fill="#e8edfc" rx="3.5" ry="2.5"/><path id="Shape" d="m44 18-.35 8h-5.3l-.35-8z" fill="#e8edfc"/><path id="Shape" d="m43.65 26-.56 13c-.0489543 1.118742-.9701874 2.0005451-2.09 2.0005451s-2.0410457-.8818031-2.09-2.0005451l-.1-2.35-.46-10.65z" fill="#e8edfc"/><path id="Shape" d="m44 18h-6c-.8199868-.7799217-1.4554518-1.7331192-1.86-2.79-1.51-4.34 3.07-8.21 5.54-10.02.2926378-.21019565.6757254-.24671426 1.0028064-.09559458.3270809.15111968.5475778.46650961.5771936.82559458.54 6.17 4.74 5.08.74 12.08z" fill="#e8edfc"/><circle id="Oval" cx="28.5" cy="32.5" fill="#a4c2f7" r="2.5"/><path id="Shape" d="m38.6 31.85c-.5902288.9123605-1.7030748 1.337796-2.7514101 1.0518504s-1.7910452-1.2175054-1.8362823-2.3031966c-.0452371-1.0856911.6174029-2.0758072 1.6383169-2.4479715 1.0209141-.3721643 2.1652942-.0407799 2.8293755.8193177z" fill="#a4c2f7"/><path id="Shape" d="m5 50v-44c0-2.76142375 2.23857625-5 5-5h-3c-2.76142375 0-5 2.23857625-5 5v44c.0595869 2.8187131 2.39122068 5.0563654 5.21 5h3c-2.81877932.0563654-5.1504131-2.1812869-5.21-5z" fill="#fff"/><path id="Rectangle-path" d="m1 6h2v8h-2z" fill="#fff"/><g fill="#428dff"><path id="Shape" d="m2.02 11c-.55228475.0027614-1.00223858-.4427153-1.005-.995-.00276142-.55228475.44271525-1.00223858.995-1.005h.01c.55228475 0 1 .44771525 1 1 0 .5522847-.44771525 1-1 1z"/><path id="Shape" d="m48 0h-41c-3.31233757.00330738-5.99669262 2.68766243-6 6 0 .35726559.19059892.68739261.5.8660254.30940108.1786328.69059892.1786328 1 0 .30940108-.17863279.5-.50875981.5-.8660254 0-2.209139 1.790861-4 4-4v1c0 .55228475.44771525 1 1 1s1-.44771525 1-1v-1h39c.5522847 0 1 .44771525 1 1v39c-.0286401.7798547-.3933003 1.5091751-1 2h-39v-1c0-.5522847-.44771525-1-1-1s-1 .4477153-1 1v1c-1.47930705.0013494-2.90517386.5531599-4 1.548v-31.548c0-.5522847-.44771525-1-1-1s-1 .4477153-1 1v36c-.00311203.1956303.0049009.3912794.024.586.38318859 3.1162408 3.04646318 5.4471442 6.186 5.414h3.79v2c-.0050454.722159.384077 1.3896095 1.015 1.741.6256978.3598127 1.3977993.3498452 2.014-.026l2.971-1.784 2.971 1.782c.6175574.3705391 1.3866446.3804356 2.0135321.02591.6268875-.3545257 1.0147548-1.0187184 1.0154679-1.73891v-2h25c1.6568542 0 3-1.3431458 3-3v-50c0-1.65685425-1.3431458-3-3-3zm-27 58-2.972-1.783c-.6331208-.3796258-1.4238792-.3796258-2.057 0l-2.971 1.783v-7h8zm2-7h3c.5522847 0 1-.4477153 1-1s-.4477153-1-1-1h-17c-.55228475 0-1 .4477153-1 1s.44771525 1 1 1h2v3h-3.79c-2.11949134.0402921-3.9294676-1.5214589-4.2-3.624-.01078908-.125024-.01412832-.2505793-.01-.376.00876947-2.2054964 1.79450365-3.9912305 4-4h37c-1.334579 2.4996884-1.334579 5.5003116 0 8h-21zm25 3h-1c-.944 0-2-1.711-2-4s1.056-4 2-4h1c.3507845-.0022166.6951198-.0944985 1-.268v7.268c0 .5522847-.4477153 1-1 1z"/><path id="Shape" d="m8 10c.55228475 0 1-.44771525 1-1v-2c0-.55228475-.44771525-1-1-1s-1 .44771525-1 1v2c0 .55228475.44771525 1 1 1z"/><path id="Shape" d="m7 15c0 .5522847.44771525 1 1 1s1-.4477153 1-1v-2c0-.5522847-.44771525-1-1-1s-1 .4477153-1 1z"/><path id="Shape" d="m7 21c0 .5522847.44771525 1 1 1s1-.4477153 1-1v-2c0-.5522847-.44771525-1-1-1s-1 .4477153-1 1z"/><path id="Shape" d="m7 27c0 .5522847.44771525 1 1 1s1-.4477153 1-1v-2c0-.5522847-.44771525-1-1-1s-1 .4477153-1 1z"/><path id="Shape" d="m7 33c0 .5522847.44771525 1 1 1s1-.4477153 1-1v-2c0-.5522847-.44771525-1-1-1s-1 .4477153-1 1z"/><path id="Shape" d="m7 39c0 .5522847.44771525 1 1 1s1-.4477153 1-1v-2c0-.5522847-.44771525-1-1-1s-1 .4477153-1 1z"/><path id="Shape" d="m11.35 22.626c-.5399243 1.1932077-.4448917 2.5777536.253 3.686.7139754 1.1492893 1.9574969 1.8630932 3.31 1.9.465.013.938.011 1.411.011 1.280535-.0599981 2.5635404.0407878 3.819.3.563.152 1.278.522 1.432 1.059.0811075.534773-.1810772 1.0631391-.656 1.322-.7509246.3529942-1.5702465.5366588-2.4.538l-.212.019c-1.3413901.0833652-2.4611198 1.0540161-2.734 2.37-.2928084 1.2881599.3141383 2.6127051 1.481 3.232 3.5804573 1.9335399 7.5868214 2.9430364 11.656 2.937 3.1462772.019094 6.2640932-.5965105 9.167-1.81l.037.856c.0728374 1.6514715 1.4329231 2.9528934 3.086 2.9528934s3.0131626-1.3014219 3.086-2.9528934l.9-20.768c2.488-4.44 1.883-6 .685-8.135-.8086512-1.30201203-1.2932056-2.77899432-1.413-4.307-.0627002-.72230485-.5087954-1.35516419-1.168-1.657-.6562109-.30255999-1.4252957-.22239106-2.005.209-3.911 2.871-6 5.759-6.22 8.589-.0198127.2688982-.022151.5387989-.007.808-2.0070189-.525116-4.0734263-.7889628-6.148-.785-7.617 0-14.755 3.957-17.36 9.626zm26.144 6.757.093 2.132c-.5610373.6007805-1.5018627.6359153-2.1061468.0786535-.6042841-.5572619-.6453135-1.4978486-.091849-2.1056127.5534645-.607764 1.4937757-.6546862 2.1049958-.1050408zm1.55-10.383h3.912l-.256 6h-3.39zm1.956 21c-.5832058.0010589-1.0633206-.4583156-1.088-1.041l-.52-11.959h3.216l-.52 11.958c-.0241582.583078-.5044227 1.0430371-1.088 1.042zm-4.141-26.871c.118-1.526 1.15-4 5.41-7.12.1394073 1.8111884.7088313 3.56299882 1.661 5.11.868 1.55 1.358 2.442-.519 5.881h-4.976c-1.0580386-1.0033301-1.6323516-2.4139682-1.576-3.871zm.158 5.279.379 8.718c-1.4667013-.4204251-3.0368833.1562719-3.882797 1.426075-.8459137 1.2698032-.7732 2.9409595.1798087 4.1324897.9530088 1.1915303 2.5673471 1.6296656 3.9919883 1.0834353l.1 2.266c-2.8417859 1.320176-5.9416392 1.9917255-9.075 1.966-3.7277121-.0062317-7.3968447-.9278931-10.685-2.684-.3891799-.1968928-.593554-.6341295-.495-1.059.0954103-.4523564.4860417-.7820031.948-.8l.214-.018c1.1425494-.014014 2.2655338-.298444 3.277-.83 1.2376124-.7233822 1.8586195-2.1694242 1.531-3.565-.4541203-1.2593162-1.5341674-2.1891355-2.847-2.451-1.4223333-.3120053-2.879302-.4370613-4.334-.372-.455 0-.907 0-1.351-.011-.681772-.0183786-1.3087516-.377887-1.669-.957-.3485073-.5380863-.3982817-1.2168291-.132-1.8 2.29-4.975 8.681-8.453 15.543-8.453 2.2702063-.0074309 4.5275661.3407897 6.69 1.032.4027176.876638.9492617 1.6797233 1.617 2.376z"/><path id="Shape" d="m28 21.5c0-1.963-1.977-3.5-4.5-3.5s-4.5 1.537-4.5 3.5 1.977 3.5 4.5 3.5 4.5-1.537 4.5-3.5zm-4.5 1.5c-1.474 0-2.5-.79-2.5-1.5s1.026-1.5 2.5-1.5 2.5.79 2.5 1.5-1.026 1.5-2.5 1.5z"/><path id="Shape" d="m25 32.5c0 1.9329966 1.5670034 3.5 3.5 3.5s3.5-1.5670034 3.5-3.5-1.5670034-3.5-3.5-3.5-3.5 1.5670034-3.5 3.5zm5 0c0 .8284271-.6715729 1.5-1.5 1.5s-1.5-.6715729-1.5-1.5.6715729-1.5 1.5-1.5 1.5.6715729 1.5 1.5z"/></g></g></g></svg>